<svg xmlns="http://www.w3.org/2000/svg" viewBox="0 0 500 500"><g id="freepik--background-simple--inject-97"><path d="M341.57,49.38S263.94,14.17,185.89,54.2,66.79,182.74,31.66,253.47,13.88,400.35,71.75,439.05s99-8.29,181.44-4.19S357.45,453,427,410s84.7-156.3,32.87-245.17S341.57,49.38,341.57,49.38Z" style="fill:#263238"></path></g><g id="freepik--Light--inject-97"><path d="M457.79,382.31,359.76,59a138.78,138.78,0,0,0-18.19-9.6S263.94,14.17,185.89,54.2a211.28,211.28,0,0,0-47.21,33.45L64.87,434.12c2.23,1.7,4.51,3.35,6.88,4.93,57.86,38.7,99-8.29,181.44-4.19S357.45,453,427,410A118.63,118.63,0,0,0,457.79,382.31Z" style="fill:#263238"></path><path d="M457.79,382.31,359.76,59a138.78,138.78,0,0,0-18.19-9.6S263.94,14.17,185.89,54.2a211.28,211.28,0,0,0-47.21,33.45L64.87,434.12c2.23,1.7,4.51,3.35,6.88,4.93,57.86,38.7,99-8.29,181.44-4.19S357.45,453,427,410A118.63,118.63,0,0,0,457.79,382.31Z" style="fill:#fff;opacity:0.5"></path><path d="M457.79,382.31,359.76,59a138.78,138.78,0,0,0-18.19-9.6S263.94,14.17,185.89,54.2a211.28,211.28,0,0,0-47.21,33.45L64.87,434.12c2.23,1.7,4.51,3.35,6.88,4.93,57.86,38.7,99-8.29,181.44-4.19S357.45,453,427,410A118.63,118.63,0,0,0,457.79,382.31Z" style="fill:#263238"></path><path d="M457.79,382.31,359.76,59a138.78,138.78,0,0,0-18.19-9.6S263.94,14.17,185.89,54.2a211.28,211.28,0,0,0-47.21,33.45L64.87,434.12c2.23,1.7,4.51,3.35,6.88,4.93,57.86,38.7,99-8.29,181.44-4.19S357.45,453,427,410A118.63,118.63,0,0,0,457.79,382.31Z" style="fill:#fff;opacity:0.5"></path></g><g id="freepik--Character--inject-97"><rect x="144.16" y="81.75" width="6" height="102.78" transform="translate(-15.29 19.15) rotate(-7.08)" style="fill:#828282;stroke:#263238;stroke-miterlimit:10"></rect><rect x="181.49" y="83.42" width="6" height="93.45" transform="translate(-6.27 9.38) rotate(-2.86)" style="fill:#828282;stroke:#263238;stroke-miterlimit:10"></rect><rect x="221.16" y="84.14" width="6" height="88.67" style="fill:#828282;stroke:#263238;stroke-miterlimit:10"></rect><rect x="220.12" y="124.14" width="84.73" height="6" transform="translate(125.11 384.43) rotate(-87.74)" style="fill:#828282;stroke:#263238;stroke-miterlimit:10"></rect><rect x="257.36" y="125.14" width="86.92" height="6" transform="matrix(0.08, -1, 1, 0.08, 149.99, 418.26)" style="fill:#828282;stroke:#263238;stroke-miterlimit:10"></rect><rect x="287.95" y="125.81" width="91.74" height="6" transform="translate(155.56 439.06) rotate(-81.22)" style="fill:#828282;stroke:#263238;stroke-miterlimit:10"></rect><rect x="319.91" y="128.48" width="96.49" height="6" transform="translate(167.92 467.23) rotate(-78.84)" style="fill:#828282;stroke:#263238;stroke-miterlimit:10"></rect><rect x="105.49" y="79.48" width="298" height="5.33" style="fill:#828282;stroke:#263238;stroke-miterlimit:10"></rect><path d="M101.37,69.39l18.79,112.75,6.66-2L108.07,68.27a3.4,3.4,0,0,0-4-2.77h0A3.39,3.39,0,0,0,101.37,69.39Z" style="fill:#828282;stroke:#263238;stroke-miterlimit:10"></path><circle cx="102.16" cy="58.14" r="6" style="fill:#828282;stroke:#263238;stroke-miterlimit:10"></circle><path d="M409.7,69.39,390.91,182.14l-6.67-2L403,68.27a3.4,3.4,0,0,1,4-2.77h0A3.39,3.39,0,0,1,409.7,69.39Z" style="fill:#828282;stroke:#263238;stroke-miterlimit:10"></path><circle cx="408.91" cy="58.14" r="6" style="fill:#828282;stroke:#263238;stroke-miterlimit:10"></circle><path d="M180.16,166.81s-43.34,2.67-55.34,5.33-15.33,12.67-17.33,27.34-4.67,178-4.67,178,30.67-14,80-20,110-11.34,131.34-8,40,6.66,62.66,16.66,30.67,14,30.67,14-.67-168-3.33-184-18.67-23.33-35.34-24.66-94.66-5.34-123.33-5.34S180.16,166.81,180.16,166.81Z" style="fill:#757575;stroke:#263238;stroke-miterlimit:10"></path><path d="M139.41,204.49,127.1,217.21l12.31,12.72,12.3-12.72Zm-4.61,12.72,4.61-4.76,4.6,4.76-4.6,4.76Z" style="fill:#828282"></path><path d="M139.41,177.52,127.1,190.23,139.41,203l12.3-12.72Zm-4.61,12.71,4.61-4.76,4.6,4.76-4.6,4.76Z" style="fill:#828282"></path><path d="M138.66,203.72,126.36,191l-12.31,12.71,12.31,12.72ZM126.36,199l4.6,4.76-4.6,4.76-4.61-4.76Z" style="fill:#bfbfbf"></path><path d="M164.76,203.72,152.46,191l-12.31,12.71,12.31,12.72ZM152.46,199l4.6,4.76-4.6,4.76-4.61-4.76Z" style="fill:#bfbfbf"></path><path d="M139.41,262.21,127.1,274.92l12.31,12.72,12.3-12.72Zm-4.61,12.71,4.61-4.76,4.6,4.76-4.6,4.76Z" style="fill:#828282"></path><path d="M139.41,235.23,127.1,248l12.31,12.72L151.71,248ZM134.8,248l4.61-4.76L144,248l-4.6,4.76Z" style="fill:#828282"></path><path d="M138.66,261.44l-12.3-12.72-12.31,12.72,12.31,12.71Zm-12.3-4.76,4.6,4.76-4.6,4.76-4.61-4.76Z" style="fill:#bfbfbf"></path><path d="M164.76,261.44l-12.3-12.72-12.31,12.72,12.31,12.71Zm-12.3-4.76,4.6,4.76-4.6,4.76-4.61-4.76Z" style="fill:#bfbfbf"></path><path d="M139.41,319.92,127.1,332.64l12.31,12.72,12.3-12.72Zm-4.61,12.72,4.61-4.76,4.6,4.76-4.6,4.76Z" style="fill:#828282"></path><path d="M139.41,293,127.1,305.66l12.31,12.72,12.3-12.72Zm-4.61,12.71,4.61-4.76,4.6,4.76-4.6,4.76Z" style="fill:#828282"></path><path d="M138.66,319.15l-12.3-12.71-12.31,12.71,12.31,12.72Zm-12.3-4.76,4.6,4.76-4.6,4.76-4.61-4.76Z" style="fill:#bfbfbf"></path><path d="M164.76,319.15l-12.3-12.71-12.31,12.71,12.31,12.72Zm-12.3-4.76,4.6,4.76-4.6,4.76-4.61-4.76Z" style="fill:#bfbfbf"></path><path d="M198.46,204.49l-12.31,12.72,12.31,12.72,12.3-12.72Zm-4.61,12.72,4.61-4.76,4.6,4.76-4.6,4.76Z" style="fill:#828282"></path><path d="M198.46,177.52l-12.31,12.71L198.46,203l12.3-12.72Zm-4.61,12.71,4.61-4.76,4.6,4.76-4.6,4.76Z" style="fill:#828282"></path><path d="M197.71,203.72,185.41,191,173.1,203.72l12.31,12.72ZM185.41,199l4.6,4.76-4.6,4.76-4.61-4.76Z" style="fill:#bfbfbf"></path><path d="M223.81,203.72,211.51,191,199.2,203.72l12.31,12.72ZM211.51,199l4.6,4.76-4.6,4.76-4.61-4.76Z" style="fill:#bfbfbf"></path><path d="M198.46,262.21l-12.31,12.71,12.31,12.72,12.3-12.72Zm-4.61,12.71,4.61-4.76,4.6,4.76-4.6,4.76Z" style="fill:#828282"></path><path d="M198.46,235.23,186.15,248l12.31,12.72L210.76,248ZM193.85,248l4.61-4.76,4.6,4.76-4.6,4.76Z" style="fill:#828282"></path><path d="M197.71,261.44l-12.3-12.72L173.1,261.44l12.31,12.71Zm-12.3-4.76,4.6,4.76-4.6,4.76-4.61-4.76Z" style="fill:#bfbfbf"></path><path d="M223.81,261.44l-12.3-12.72L199.2,261.44l12.31,12.71Zm-12.3-4.76,4.6,4.76-4.6,4.76-4.61-4.76Z" style="fill:#bfbfbf"></path><path d="M198.46,319.92l-12.31,12.72,12.31,12.72,12.3-12.72Zm-4.61,12.72,4.61-4.76,4.6,4.76-4.6,4.76Z" style="fill:#828282"></path><path d="M198.46,293l-12.31,12.71,12.31,12.72,12.3-12.72Zm-4.61,12.71,4.61-4.76,4.6,4.76-4.6,4.76Z" style="fill:#828282"></path><path d="M197.71,319.15l-12.3-12.71L173.1,319.15l12.31,12.72Zm-12.3-4.76,4.6,4.76-4.6,4.76-4.61-4.76Z" style="fill:#bfbfbf"></path><path d="M223.81,319.15l-12.3-12.71L199.2,319.15l12.31,12.72Zm-12.3-4.76,4.6,4.76-4.6,4.76-4.61-4.76Z" style="fill:#bfbfbf"></path><path d="M257.51,204.49l-12.3,12.72,12.3,12.72,12.3-12.72Zm-4.6,12.72,4.6-4.76,4.61,4.76L257.51,222Z" style="fill:#828282"></path><path d="M257.51,177.52l-12.3,12.71L257.51,203l12.3-12.72Zm-4.6,12.71,4.6-4.76,4.61,4.76L257.51,195Z" style="fill:#828282"></path><path d="M256.76,203.72,244.46,191l-12.3,12.71,12.3,12.72ZM244.46,199l4.61,4.76-4.61,4.76-4.61-4.76Z" style="fill:#bfbfbf"></path><path d="M282.86,203.72,270.56,191l-12.3,12.71,12.3,12.72ZM270.56,199l4.61,4.76-4.61,4.76-4.6-4.76Z" style="fill:#bfbfbf"></path><path d="M257.51,262.21l-12.3,12.71,12.3,12.72,12.3-12.72Zm-4.6,12.71,4.6-4.76,4.61,4.76-4.61,4.76Z" style="fill:#828282"></path><path d="M257.51,235.23,245.21,248l12.3,12.72L269.81,248ZM252.91,248l4.6-4.76,4.61,4.76-4.61,4.76Z" style="fill:#828282"></path><path d="M256.76,261.44l-12.3-12.72-12.3,12.72,12.3,12.71Zm-12.3-4.76,4.61,4.76-4.61,4.76-4.61-4.76Z" style="fill:#bfbfbf"></path><path d="M282.86,261.44l-12.3-12.72-12.3,12.72,12.3,12.71Zm-12.3-4.76,4.61,4.76-4.61,4.76-4.6-4.76Z" style="fill:#bfbfbf"></path><path d="M257.51,319.92l-12.3,12.72,12.3,12.72,12.3-12.72Zm-4.6,12.72,4.6-4.76,4.61,4.76-4.61,4.76Z" style="fill:#828282"></path><path d="M257.51,293l-12.3,12.71,12.3,12.72,12.3-12.72Zm-4.6,12.71,4.6-4.76,4.61,4.76-4.61,4.76Z" style="fill:#828282"></path><path d="M256.76,319.15l-12.3-12.71-12.3,12.71,12.3,12.72Zm-12.3-4.76,4.61,4.76-4.61,4.76-4.61-4.76Z" style="fill:#bfbfbf"></path><path d="M282.86,319.15l-12.3-12.71-12.3,12.71,12.3,12.72Zm-12.3-4.76,4.61,4.76-4.61,4.76-4.6-4.76Z" style="fill:#bfbfbf"></path><path d="M316.56,204.49l-12.3,12.72,12.3,12.72,12.31-12.72ZM312,217.21l4.6-4.76,4.61,4.76L316.56,222Z" style="fill:#828282"></path><path d="M316.56,177.52l-12.3,12.71L316.56,203l12.31-12.72ZM312,190.23l4.6-4.76,4.61,4.76L316.56,195Z" style="fill:#828282"></path><path d="M315.82,203.72,303.51,191l-12.3,12.71,12.3,12.72ZM303.51,199l4.61,4.76-4.61,4.76-4.6-4.76Z" style="fill:#bfbfbf"></path><path d="M341.92,203.72,329.61,191l-12.3,12.71,12.3,12.72ZM329.61,199l4.61,4.76-4.61,4.76-4.6-4.76Z" style="fill:#bfbfbf"></path><path d="M316.56,262.21l-12.3,12.71,12.3,12.72,12.31-12.72ZM312,274.92l4.6-4.76,4.61,4.76-4.61,4.76Z" style="fill:#828282"></path><path d="M316.56,235.23,304.26,248l12.3,12.72L328.87,248ZM312,248l4.6-4.76,4.61,4.76-4.61,4.76Z" style="fill:#828282"></path><path d="M315.82,261.44l-12.31-12.72-12.3,12.72,12.3,12.71Zm-12.31-4.76,4.61,4.76-4.61,4.76-4.6-4.76Z" style="fill:#bfbfbf"></path><path d="M341.92,261.44l-12.31-12.72-12.3,12.72,12.3,12.71Zm-12.31-4.76,4.61,4.76-4.61,4.76-4.6-4.76Z" style="fill:#bfbfbf"></path><path d="M316.56,319.92l-12.3,12.72,12.3,12.72,12.31-12.72ZM312,332.64l4.6-4.76,4.61,4.76-4.61,4.76Z" style="fill:#828282"></path><path d="M316.56,293l-12.3,12.71,12.3,12.72,12.31-12.72ZM312,305.66l4.6-4.76,4.61,4.76-4.61,4.76Z" style="fill:#828282"></path><path d="M315.82,319.15l-12.31-12.71-12.3,12.71,12.3,12.72Zm-12.31-4.76,4.61,4.76-4.61,4.76-4.6-4.76Z" style="fill:#bfbfbf"></path><path d="M341.92,319.15l-12.31-12.71-12.3,12.71,12.3,12.72Zm-12.31-4.76,4.61,4.76-4.61,4.76-4.6-4.76Z" style="fill:#bfbfbf"></path><path d="M375.62,204.49l-12.31,12.72,12.31,12.72,12.3-12.72ZM371,217.21l4.61-4.76,4.6,4.76-4.6,4.76Z" style="fill:#828282"></path><path d="M375.62,177.52l-12.31,12.71L375.62,203l12.3-12.72ZM371,190.23l4.61-4.76,4.6,4.76-4.6,4.76Z" style="fill:#828282"></path><path d="M374.87,203.72,362.57,191l-12.31,12.71,12.31,12.72ZM362.57,199l4.6,4.76-4.6,4.76L358,203.72Z" style="fill:#bfbfbf"></path><path d="M401,203.72,388.67,191l-12.31,12.71,12.31,12.72ZM388.67,199l4.6,4.76-4.6,4.76-4.61-4.76Z" style="fill:#bfbfbf"></path><path d="M375.62,262.21l-12.31,12.71,12.31,12.72,12.3-12.72ZM371,274.92l4.61-4.76,4.6,4.76-4.6,4.76Z" style="fill:#828282"></path><path d="M375.62,235.23,363.31,248l12.31,12.72L387.92,248ZM371,248l4.61-4.76,4.6,4.76-4.6,4.76Z" style="fill:#828282"></path><path d="M374.87,261.44l-12.3-12.72-12.31,12.72,12.31,12.71Zm-12.3-4.76,4.6,4.76-4.6,4.76L358,261.44Z" style="fill:#bfbfbf"></path><path d="M401,261.44l-12.3-12.72-12.31,12.72,12.31,12.71Zm-12.3-4.76,4.6,4.76-4.6,4.76-4.61-4.76Z" style="fill:#bfbfbf"></path><path d="M375.62,319.92l-12.31,12.72,12.31,12.72,12.3-12.72ZM371,332.64l4.61-4.76,4.6,4.76-4.6,4.76Z" style="fill:#828282"></path><path d="M375.62,293l-12.31,12.71,12.31,12.72,12.3-12.72ZM371,305.66l4.61-4.76,4.6,4.76-4.6,4.76Z" style="fill:#828282"></path><path d="M374.87,319.15l-12.3-12.71-12.31,12.71,12.31,12.72Zm-12.3-4.76,4.6,4.76-4.6,4.76L358,319.15Z" style="fill:#bfbfbf"></path><path d="M401,319.15l-12.3-12.71-12.31,12.71,12.31,12.72Zm-12.3-4.76,4.6,4.76-4.6,4.76-4.61-4.76Z" style="fill:#bfbfbf"></path><path d="M238.16,144.74s-42.67-4-56.67-4-28.67-2-30.67,2,.67,9.34.67,12.67-3.33,26.67-3.33,51.33,5.33,58,5.33,58-5.33,12,0,13.34,11.33-4.67,11.33-4.67,25.34,4.67,38.67,5.33,58.67.67,81.33.67,52.67-2,52.67-2,12.67,1.33,14-4-2-10.67-2-10.67,9.33-29.33,9.33-56.66-4-45.34-4-45.34,5.34-10,0-12.66-13.33-.67-13.33-.67Z" style="fill:#263238;stroke:#263238;stroke-miterlimit:10"></path><path d="M238.16,138.14s-42.67-4-56.67-4-28.67-2-30.67,2,.67,9.34.67,12.67-3.33,26.67-3.33,51.33,5.33,58,5.33,58-5.33,12,0,13.34,11.33-4.67,11.33-4.67,25.34,4.67,38.67,5.33,58.67.67,81.33.67,52.67-2,52.67-2,12.67,1.33,14-4-2-10.67-2-10.67,9.33-29.33,9.33-56.66-4-45.34-4-45.34,5.34-10,0-12.66-13.33-.67-13.33-.67Z" style="fill:#ccc;stroke:#263238;stroke-miterlimit:10"></path><path d="M192.62,212.26a50.31,50.31,0,0,0-5.13,1.88" style="fill:none;stroke:#263238;stroke-linecap:round;stroke-linejoin:round"></path><path d="M226.93,216.62s-10.91-8.45-27.77-5.87" style="fill:none;stroke:#263238;stroke-linecap:round;stroke-linejoin:round"></path><path d="M198.16,160.14s14.66,2.67,21.33,15.34" style="fill:none;stroke:#263238;stroke-linecap:round;stroke-linejoin:round"></path><path d="M313,175.33a40.48,40.48,0,0,1,6.53-.52" style="fill:none;stroke:#263238;stroke-linecap:round;stroke-linejoin:round"></path><path d="M292.16,186.81s5.13-7.11,16-10.38" style="fill:none;stroke:#263238;stroke-linecap:round;stroke-linejoin:round"></path><path d="M306.81,231.55a18.85,18.85,0,0,1,2.68,2.59" style="fill:none;stroke:#263238;stroke-linecap:round;stroke-linejoin:round"></path><path d="M286.16,222.81a67.91,67.91,0,0,1,14.21,4.79" style="fill:none;stroke:#263238;stroke-linecap:round;stroke-linejoin:round"></path><path d="M236.49,238.48l-1,21.66a50.88,50.88,0,0,1-11.33,6.34c-6.67,2.66-47.34,12-51.67,15s-4.33,29.33-4.33,35v30.66l165,.34s0-55.34-2.34-62-44.66-19.34-50-22.34l.34-24.33Z" style="fill:#4D4D4D;stroke:#263238;stroke-miterlimit:10"></path><path d="M259.16,303.81c31.2,1.84,40.95-22.1,43.69-32.41-10.13-3.73-19.68-6.93-22-8.26l.34-24.33-44.67-.33-1,21.66a50.88,50.88,0,0,1-11.33,6.34c-2.2.88-8.11,2.49-15.19,4.35C212.72,278.78,226.37,301.88,259.16,303.81Z" style="fill:#4D4D4D;stroke:#263238;stroke-miterlimit:10"></path><path d="M258.16,297.14c23.56,1.84,33.13-19.55,36.16-28.83-6.55-2.35-11.83-4.23-13.5-5.17l.34-24.33-44.67-.33-1,21.66a50.88,50.88,0,0,1-11.33,6.34c-1,.38-2.67.92-4.86,1.54C223.44,276.58,235.06,295.35,258.16,297.14Z" style="fill:#e8e8e8;stroke:#263238;stroke-miterlimit:10"></path><path d="M263.09,261.44C270,259.7,276.28,254.75,281,250l.16-11.22-44.67-.33-.42,9.16C242.81,254.58,253.83,263.77,263.09,261.44Z" style="fill:#263238;stroke:#263238;stroke-miterlimit:10"></path><path d="M227.76,200.87s-.22-.54-.62-1.33c-1.37-2.66-4.85-8.08-9.32-4.88-5.81,4.14-.42,14.5,1.65,17.81s7.46,4.15,7.46,4.15,2.07,13.26,7,22,14.91,14.5,18.23,15.33,13.66,1.5,18.22-1a37,37,0,0,0,15.81-17.84c1.52-3.63,2.84-15.15,2.84-15.15s11.61-6.63,12-17-5.39-10.77-5.39-10.77-3.31-11.6-5-15.74-5.8-12-15.74-13.26-27.35-2.9-31.49-.83-12.43,7-15.75,12S227.76,200.87,227.76,200.87Z" style="fill:#e8e8e8;stroke:#263238;stroke-miterlimit:10"></path><path d="M243.41,204.49a7.4,7.4,0,0,1-7.28-6.12,7.59,7.59,0,0,0-.11,1.27,7.39,7.39,0,0,0,14.78,0,6.67,6.67,0,0,0-.12-1.27A7.38,7.38,0,0,1,243.41,204.49Z" style="fill:#263238"></path><path d="M250.77,196.47a7.39,7.39,0,0,0-10.63-6" style="fill:none;stroke:#263238;stroke-linecap:round;stroke-linejoin:round"></path><path d="M236.69,194a7.39,7.39,0,1,0,14,4.37" style="fill:none;stroke:#263238;stroke-linecap:round;stroke-linejoin:round"></path><path d="M274.25,204.49a7.39,7.39,0,0,1-7.27-6.12,7.59,7.59,0,0,0-.12,1.27,7.4,7.4,0,0,0,14.79,0,7.59,7.59,0,0,0-.12-1.27A7.39,7.39,0,0,1,274.25,204.49Z" style="fill:#263238"></path><path d="M281.5,195.6a7.4,7.4,0,0,0-10.37-5.21" style="fill:none;stroke:#263238;stroke-linecap:round;stroke-linejoin:round"></path><path d="M268.12,193a7.4,7.4,0,1,0,13.42,5.41" style="fill:none;stroke:#263238;stroke-linecap:round;stroke-linejoin:round"></path><circle cx="243.41" cy="197.09" r="2.29" style="fill:#263238"></circle><path d="M243.13,196.22a.8.8,0,0,1-1.6,0,.8.8,0,0,1,1.6,0Z" style="fill:#fff"></path><circle cx="274.25" cy="197.09" r="2.29" style="fill:#263238"></circle><circle cx="273.43" cy="196.22" r="0.8" style="fill:#fff"></circle><path d="M235,187.91s4.33-3.56,13.76-3.31" style="fill:none;stroke:#263238;stroke-linecap:round;stroke-linejoin:round;stroke-width:3px"></path><path d="M281.14,187.91s-4.34-3.56-13.77-3.31" style="fill:none;stroke:#263238;stroke-linecap:round;stroke-linejoin:round;stroke-width:3px"></path><path d="M299.48,201.75s-.77-3.82-3.57-2.8-4.84,7.64-4.84,7.64,3.05-.51,2.54,1.53-3.05,2.55-3.05,2.55" style="fill:none;stroke:#263238;stroke-linecap:round;stroke-linejoin:round"></path><path d="M217.15,202.7s.76-5.61,4.33-4.33,4.34,6.37,4.34,6.37-2.81-1.78-2.3.77a4.67,4.67,0,0,0,3.06,3.31" style="fill:none;stroke:#263238;stroke-linecap:round;stroke-linejoin:round"></path><path d="M252.33,210.35s-3.06,3.06-2,4.84,5.35,1.53,5.35,1.53,2,2,4.08,2,3.83-2,3.83-2,2.8.77,4.08-1-3.06-5.35-3.06-5.35" style="fill:none;stroke:#263238;stroke-linecap:round;stroke-linejoin:round"></path><path d="M250.29,213.15c0,.77-5.35,3.32-6.63,8.42" style="fill:none;stroke:#263238;stroke-linecap:round;stroke-linejoin:round"></path><path d="M266.86,212.9s5.36,2.29,7.14,7.39" style="fill:none;stroke:#263238;stroke-linecap:round;stroke-linejoin:round"></path><path d="M254.37,229.47c.36.29,3.82-4.84,8.92-.51" style="fill:none;stroke:#263238;stroke-linecap:round;stroke-linejoin:round"></path><path d="M279.55,142.86s-8.7-5.8-15.33-6.63-18.23.83-18.23.83l4.15,2.07s-16.58,5.8-22.38,11.19a46,46,0,0,0-9.12,12.43l3.73,1.66s-7.87,8.29-8.28,14.09,3.31,13.26,3.31,13.26l1.66-2.9s1.66,2.48,3.73,5,5,7,5,7,.41-7.46,1.24-9.11a23.55,23.55,0,0,1,9.12-11.61c7-5,13.67-9.11,13.67-9.11l-7.87,10.36s2.9.83,14.92-1.25,15.33-5.38,15.33-5.38l-3.32,3.31a9.06,9.06,0,0,0,7,.83,14.41,14.41,0,0,0,5.38-2.9s-.41,2.9,1.25,8.29a31.27,31.27,0,0,0,4.55,9.11l1.25,5.8,5.8-5.38A13.12,13.12,0,0,0,299.86,181a67.75,67.75,0,0,0-4.15-12l5.39,2.48s-2.07-7.46-2.9-9.11-2.49-4.15-2.49-4.15-1.24-9.94-5.8-14.5a17.85,17.85,0,0,0-10.36-5Z" style="fill:#263238;stroke:#263238;stroke-miterlimit:10"></path><path d="M101.4,392s13.2-1.65,35.47-9.07l27.23-9.08s-23.1,15.68-12.38,23.92,42.9,28.05,56.93,37.13,28.87,5.77,31.34,5.77S268,452.22,268,452.22l16-22.38S218.54,415.92,208.65,411s-22.28-28-22.28-28l1.65-9.08s23.93.83,39.6.83,67.64-4.13,76.72-2.48,39.6,2.48,39.6,2.48-14.85,28-23.1,37.12-23.1,31.35-23.1,31.35,47-33.83,53.62-38.78,11.55-21.44,11.55-21.44l40.42,12.37,4.95,2.47s6.6-4.12-.82-12.37S343.94,359,306.81,359s-115.49,2.48-137.76,2.48-50.28,12-59.4,17.32S101.4,392,101.4,392Z" style="fill:#263238;stroke:#263238;stroke-miterlimit:10"></path><path d="M414.23,360.81c-1.33-2.67-4-10-16-14s-35.33-14.67-63.33-18c-20.9-2.49-60.36-.15-79,1.2-18.67-1.35-58.14-3.69-79-1.2-28,3.33-51.33,14-63.33,18s-14.67,11.33-16,14c0,0-1.33,22.67,0,30.67a25.27,25.27,0,0,0,7.33,13.33l.67-11.33s38-22,66-22.67c21.2-.5,64.56-1,84.37-1.22,19.82.21,63.17.72,84.37,1.22,28,.67,66,22.67,66,22.67l.67,11.33a25.27,25.27,0,0,0,7.33-13.33C415.56,383.48,414.23,360.81,414.23,360.81Z" style="fill:#e8e8e8;stroke:#263238;stroke-miterlimit:10"></path><path d="M138.39,360.27c2.28-1.19,3.89-2.09,3.89-2.09" style="fill:none;stroke:#263238;stroke-linecap:round;stroke-linejoin:round"></path><path d="M100.53,384.14s.35-4.21,5.27-9.47,14.73-7.72,19.64-8.77a32.6,32.6,0,0,0,5.76-2.11" style="fill:none;stroke:#263238;stroke-linecap:round;stroke-linejoin:round"></path><path d="M103.69,371.51s3.51-4.2,14-6.31" style="fill:none;stroke:#263238;stroke-linecap:round;stroke-linejoin:round"></path><path d="M285.42,348.6a94.18,94.18,0,0,1,11.91-.24c17.89.7,45.25,7.37,53,8.77s25.25,7.72,30.52,9.82" style="fill:none;stroke:#263238;stroke-linecap:round;stroke-linejoin:round"></path><path d="M272.42,351.52a24.06,24.06,0,0,1,5.75-1.84" style="fill:none;stroke:#263238;stroke-linecap:round;stroke-linejoin:round"></path><path d="M411.84,382.5a8.22,8.22,0,0,1,.9,5.15" style="fill:none;stroke:#263238;stroke-linecap:round;stroke-linejoin:round"></path><path d="M372.75,361.34s26,9.47,33.67,15.09a20.22,20.22,0,0,1,2.66,2.26" style="fill:none;stroke:#263238;stroke-linecap:round;stroke-linejoin:round"></path><path d="M412.39,363.8a82.27,82.27,0,0,0-25.26-11.23" style="fill:none;stroke:#263238;stroke-linecap:round;stroke-linejoin:round"></path><path d="M247.36,418.12s14.43,3.31,24,3.31,10.52-.3,14.73,2.4,16.22,7.82,14.12,9.32-6.61,1.2-7.51.6-8.72-3.91-8.72-3.91l-4.51-.3A74.61,74.61,0,0,1,290.33,435c6,3.61,18,11.42,17.43,12.62a2.34,2.34,0,0,1-.66.73,4.77,4.77,0,0,1-5,.36c-4.3-2.15-14.05-7-15.68-7.7-2.11-.9-2.11,1.5.3,2.71s16.52,7.21,16.82,8.41.61,2.1-1.8,2.1-14.12-4.8-17.43-5.41-1.5,1.21,1.51,2.41,10.51,4.81,10.51,5.71-2.4,1.5-5.41,0-14.12-5.41-14.12-5.41-1.8.9.3,2.4,11.12,5.41,10.22,6.31-1.2,1.51-4.21,0-11.72-4.8-18.63-8.11-26.14-18-26.14-18Z" style="fill:#e8e8e8;stroke:#263238;stroke-miterlimit:10"></path><polygon points="242.55 412.71 249.16 418.12 239.25 437.06 229.63 431.05 242.55 412.71" style="fill:#4D4D4D;stroke:#263238;stroke-miterlimit:10"></polygon><path d="M182.66,279s-10.5-1.5-17,7.5-8.5,26-11,46.5-8.5,56-8.5,60.5,44.09,24.66,58.5,35c19.5,14,26,12.71,37.5-13,6.5-14.5-52.49-37.32-52.49-37.32l8.49-64.68" style="fill:#4D4D4D;stroke:#263238;stroke-miterlimit:10"></path><path d="M174.34,380.85c3.46-2,7.92-3.73,12.15-2.62" style="fill:none;stroke:#263238;stroke-linecap:round;stroke-linejoin:round"></path><path d="M168.05,385.61a32.67,32.67,0,0,1,2.51-2.17" style="fill:none;stroke:#263238;stroke-linecap:round;stroke-linejoin:round"></path><path d="M170.36,378.23s10.6-6.91,16.59-1.84" style="fill:none;stroke:#263238;stroke-linecap:round;stroke-linejoin:round"></path><path d="M269.06,439.42s-12.73,7.54-21.89,10.47-10.11,2.91-13.3,6.77S220.79,469,223.26,469.83s6.66-.87,7.33-1.71,7.12-6.38,7.12-6.38l4.2-1.65a74.09,74.09,0,0,0-8.66,8.44c-4.63,5.27-13.7,16.37-12.76,17.33a2.38,2.38,0,0,0,.85.49,4.78,4.78,0,0,0,4.86-1.18c3.45-3.35,11.26-10.94,12.6-12.1,1.73-1.5,2.46.79.54,2.67s-13.55,11.89-13.47,13.13.07,2.19,2.36,1.46,12-8.88,15-10.46,1.8.69-.7,2.75-8.55,7.78-8.28,8.64,2.75.7,5.15-1.65,11.81-9.45,11.81-9.45,2,.31.45,2.38-9,8.54-7.82,9.12,1.61,1.07,4-1.28,9.7-8.14,15.28-13.4,19.42-25.13,19.42-25.13Z" style="fill:#e8e8e8;stroke:#263238;stroke-miterlimit:10"></path><polygon points="272 432.81 267.35 439.97 282.55 454.99 289.88 446.34 272 432.81" style="fill:#4D4D4D;stroke:#263238;stroke-miterlimit:10"></polygon><path d="M315.28,279s10.5-1.5,17,7.5,8.5,26,11,46.5,7.54,39.83,7.54,53.83c0,4.5-27.35,35.25-37.93,49.48-14.31,19.27-20.87,20-39.68-1-10.6-11.83,38.65-51.52,38.65-51.52l-12.08-70.32" style="fill:#4D4D4D;stroke:#263238;stroke-miterlimit:10"></path><path d="M327.28,381.7c-3.92-.89-8.68-1.15-12.37,1.2" style="fill:none;stroke:#263238;stroke-linecap:round;stroke-linejoin:round"></path><path d="M334.72,384.32a31.91,31.91,0,0,0-3.06-1.31" style="fill:none;stroke:#263238;stroke-linecap:round;stroke-linejoin:round"></path><path d="M330.27,378s-12.2-3.36-16.36,3.3" style="fill:none;stroke:#263238;stroke-linecap:round;stroke-linejoin:round"></path><line x1="103.49" y1="438.14" x2="105.49" y2="393.48" style="fill:none;stroke:#263238;stroke-linecap:round;stroke-linejoin:round"></line><line x1="406.23" y1="393.48" x2="407.61" y2="417.52" style="fill:none;stroke:#263238;stroke-linecap:round;stroke-linejoin:round"></line></g><g id="freepik--Clocks--inject-97"><circle cx="90" cy="205.29" r="41" style="fill:none;stroke:#4D4D4D;stroke-linecap:round;stroke-linejoin:round"></circle><circle cx="90" cy="205.29" r="36.49" style="fill:none;stroke:#4D4D4D;stroke-linecap:round;stroke-linejoin:round"></circle><line x1="88.29" y1="207.27" x2="76.91" y2="212.28" style="fill:none;stroke:#4D4D4D;stroke-linecap:round;stroke-linejoin:round"></line><line x1="88.28" y1="204.22" x2="71.07" y2="181.42" style="fill:none;stroke:#4D4D4D;stroke-linecap:round;stroke-linejoin:round"></line><path d="M92.93,206.29A2.93,2.93,0,1,0,90,209.22,2.93,2.93,0,0,0,92.93,206.29Z" style="fill:#fff;stroke:#4D4D4D;stroke-miterlimit:10"></path><path d="M86.71,172.84h.13v6.42a2.89,2.89,0,0,0,.08.73.94.94,0,0,0,.25.43,1.51,1.51,0,0,0,.89.29v.12H84.68v-.12a2.19,2.19,0,0,0,.58-.1.74.74,0,0,0,.35-.23.92.92,0,0,0,.21-.39,2.94,2.94,0,0,0,.06-.7V173.7a3.5,3.5,0,0,1-.48,0,3.29,3.29,0,0,1-.7-.07v-.11h.14a2.47,2.47,0,0,0,.86-.15,4.11,4.11,0,0,0,.88-.48Z" style="fill:#4D4D4D"></path><path d="M94.3,180.83H89.74v-.11c.48-.43,1-.9,1.45-1.43a16.32,16.32,0,0,0,1.23-1.49,8.86,8.86,0,0,0,1-1.7,3.31,3.31,0,0,0,.32-1.33,2,2,0,0,0-.54-1.42,1.42,1.42,0,0,0-1.07-.48,1.45,1.45,0,0,0-1,.34,1.54,1.54,0,0,0-.43.57,2,2,0,0,0-.15.77,1.49,1.49,0,0,0,.46,1.13,1.32,1.32,0,0,0,.44.3,1.05,1.05,0,0,0,.48.11h.14l0,.1a1.61,1.61,0,0,1-.74.22,1.25,1.25,0,0,1-.89-.37,1.41,1.41,0,0,1-.37-.55,1.82,1.82,0,0,1-.13-.7,1.87,1.87,0,0,1,.64-1.47,2.49,2.49,0,0,1,1.69-.59,2.88,2.88,0,0,1,1,.18,2.2,2.2,0,0,1,.79.53,2.4,2.4,0,0,1,.44.72,2.45,2.45,0,0,1,.15.85,3.23,3.23,0,0,1-.62,1.8,5.73,5.73,0,0,1-.72.87c-.28.29-.67.64-1.17,1.06s-1.1.92-1.38,1.17H93a3.2,3.2,0,0,0,.75-.06,1.1,1.1,0,0,0,.5-.3,1.72,1.72,0,0,0,.36-.69l.13,0Z" style="fill:#4D4D4D"></path><path d="M86.76,232.62a3.16,3.16,0,0,1,.75-.47,2.19,2.19,0,0,1,.77-.14,2.26,2.26,0,0,1,.9.2,2.44,2.44,0,0,1,1.07.94,2.58,2.58,0,0,1,.39,1.41,3,3,0,0,1-.2,1.09,2.78,2.78,0,0,1-.58.91,2.28,2.28,0,0,1-1.69.72,2.16,2.16,0,0,1-1.86-1,3.93,3.93,0,0,1-.62-2.32,6.06,6.06,0,0,1,.38-2.18A5.13,5.13,0,0,1,87.14,230a3.59,3.59,0,0,1,1-.73,2.38,2.38,0,0,1,1.06-.23,1.91,1.91,0,0,1,1,.24.7.7,0,0,1,.41.6.48.48,0,0,1-.11.32.41.41,0,0,1-.29.13.48.48,0,0,1-.4-.22,1.92,1.92,0,0,1-.17-.37.9.9,0,0,0-.27-.42.72.72,0,0,0-.44-.12,1.71,1.71,0,0,0-1.37,1A5.71,5.71,0,0,0,86.76,232.62Zm-.11,2a3.42,3.42,0,0,0,.41,1.78,1.23,1.23,0,0,0,1.06.69,1,1,0,0,0,.61-.19,1.54,1.54,0,0,0,.5-.54,3.22,3.22,0,0,0,.34-.87,4.54,4.54,0,0,0,.13-1,3.85,3.85,0,0,0-.14-1,2.19,2.19,0,0,0-.36-.8,1.21,1.21,0,0,0-1-.54,1.17,1.17,0,0,0-.93.46,2.36,2.36,0,0,0-.43.87A4.37,4.37,0,0,0,86.65,234.66Z" style="fill:#4D4D4D"></path><path d="M101.73,231.67l1-4.31a6.7,6.7,0,0,0,1.53.2,3.2,3.2,0,0,0,.68-.05,2,2,0,0,0,.47-.15,2.17,2.17,0,0,1-.15.47,1,1,0,0,1-.26.32,1.45,1.45,0,0,1-1,.27,7.78,7.78,0,0,1-1.3-.16l-.65,2.57a2.3,2.3,0,0,1,.56-.33,1.8,1.8,0,0,1,.6-.09,2,2,0,0,1,1.52.65,2.21,2.21,0,0,1,.57,1.46,2.94,2.94,0,0,1-.28,1.24,3,3,0,0,1-1.06,1.28,2.81,2.81,0,0,1-1.55.44,3,3,0,0,1-.91-.13,2.07,2.07,0,0,1-.71-.38,1.24,1.24,0,0,1-.35-.44,1.12,1.12,0,0,1-.13-.53.63.63,0,0,1,.15-.44.47.47,0,0,1,.38-.17.39.39,0,0,1,.31.13.51.51,0,0,1,.12.35,2.2,2.2,0,0,1,0,.23,2.32,2.32,0,0,0,0,.24.92.92,0,0,0,.3.72,1.12,1.12,0,0,0,.8.28,1.6,1.6,0,0,0,1.34-.74,3.15,3.15,0,0,0,.44-.94,4.09,4.09,0,0,0,.16-1.15,2.61,2.61,0,0,0-.34-1.43,1.07,1.07,0,0,0-.93-.53,1,1,0,0,0-.7.28,2.09,2.09,0,0,0-.48.84Z" style="fill:#4D4D4D"></path><path d="M115.43,223.92H112.5v-.13l3.64-6h.26v5.91a2.26,2.26,0,0,0,.55-.05.57.57,0,0,0,.29-.2.73.73,0,0,0,.14-.26,1.68,1.68,0,0,0,.06-.38v-.14h.12v2.23h-.12a3.45,3.45,0,0,0-.07-.52.59.59,0,0,0-.15-.27A.63.63,0,0,0,117,224a1.55,1.55,0,0,0-.43,0h-.13v.59a2,2,0,0,0,.06.54,1,1,0,0,0,.18.35.73.73,0,0,0,.27.2,2.4,2.4,0,0,0,.49.1v.12h-3v-.12a1.28,1.28,0,0,0,.77-.24.81.81,0,0,0,.16-.35,2.65,2.65,0,0,0,.05-.63Zm0-.21V219.4l-2.65,4.31Z" style="fill:#4D4D4D"></path><path d="M105.42,175.22h.14v6.43a3,3,0,0,0,.07.73.94.94,0,0,0,.25.43,1.61,1.61,0,0,0,.89.29v.12h-3.38v-.12a2.28,2.28,0,0,0,.59-.1.85.85,0,0,0,.35-.23.81.81,0,0,0,.2-.39,3,3,0,0,0,.06-.7v-5.59l-.48,0a3.19,3.19,0,0,1-.69-.07V176h.13a2.47,2.47,0,0,0,.86-.15,4.11,4.11,0,0,0,.88-.48Z" style="fill:#4D4D4D"></path><path d="M70.58,177.21h.14v6.43a2.89,2.89,0,0,0,.08.73.85.85,0,0,0,.24.43,1.64,1.64,0,0,0,.9.29v.12H68.55v-.12a2.28,2.28,0,0,0,.59-.1.79.79,0,0,0,.35-.23.92.92,0,0,0,.21-.39,3.79,3.79,0,0,0,0-.7v-5.59a3.38,3.38,0,0,1-.47,0,3.22,3.22,0,0,1-.7-.07v-.11h.13a2.43,2.43,0,0,0,.86-.15,3.88,3.88,0,0,0,.88-.48Z" style="fill:#4D4D4D"></path><path d="M76.48,177.21h.14v6.43a2.89,2.89,0,0,0,.08.73.85.85,0,0,0,.24.43,1.64,1.64,0,0,0,.9.29v.12H74.45v-.12A2.28,2.28,0,0,0,75,185a.79.79,0,0,0,.35-.23.92.92,0,0,0,.21-.39,3.79,3.79,0,0,0,.05-.7v-5.59a3.26,3.26,0,0,1-.47,0,3.22,3.22,0,0,1-.7-.07v-.11h.14a2.41,2.41,0,0,0,.85-.15,3.88,3.88,0,0,0,.88-.48Z" style="fill:#4D4D4D"></path><path d="M117.06,195h-4.55v-.12c.48-.43,1-.9,1.44-1.42a18.06,18.06,0,0,0,1.24-1.49,9.61,9.61,0,0,0,1-1.7,3.19,3.19,0,0,0,.32-1.34,2,2,0,0,0-.53-1.42,1.43,1.43,0,0,0-1.08-.48,1.47,1.47,0,0,0-1,.34,1.4,1.4,0,0,0-.43.58,1.92,1.92,0,0,0-.15.77,1.52,1.52,0,0,0,.45,1.12,1.47,1.47,0,0,0,.44.31,1.2,1.2,0,0,0,.48.11h.14l0,.1a1.64,1.64,0,0,1-.75.22,1.27,1.27,0,0,1-.89-.37,1.44,1.44,0,0,1-.37-.55,2,2,0,0,1-.12-.7,1.87,1.87,0,0,1,.64-1.47,2.48,2.48,0,0,1,1.68-.59,2.8,2.8,0,0,1,1,.19,2,2,0,0,1,.79.53,2.07,2.07,0,0,1,.44.71,2.51,2.51,0,0,1,.15.86,3.26,3.26,0,0,1-.61,1.8,6.9,6.9,0,0,1-.72.87c-.28.28-.67.64-1.17,1.06s-1.1.91-1.38,1.17h2.11a2.71,2.71,0,0,0,.76-.07,1,1,0,0,0,.5-.3,1.67,1.67,0,0,0,.36-.68l.12,0Z" style="fill:#4D4D4D"></path><path d="M62,189.76h.14v6.42a2.84,2.84,0,0,0,.08.73.81.81,0,0,0,.24.43,1.57,1.57,0,0,0,.9.29v.12H60v-.12a2.28,2.28,0,0,0,.59-.1.79.79,0,0,0,.35-.23.92.92,0,0,0,.21-.39,3.79,3.79,0,0,0,0-.7v-5.59a3.38,3.38,0,0,1-.47,0,2.7,2.7,0,0,1-.7-.07v-.11h.13a2.43,2.43,0,0,0,.86-.15,3.88,3.88,0,0,0,.88-.48Z" style="fill:#4D4D4D"></path><path d="M67.58,189.65a1.58,1.58,0,0,1,1.15.56,3.44,3.44,0,0,1,.52.7,5.26,5.26,0,0,1,.44.89,5.31,5.31,0,0,1,.4,1.95,5.45,5.45,0,0,1-.4,2,5.56,5.56,0,0,1-.44.88,3.44,3.44,0,0,1-.52.7,1.6,1.6,0,0,1-1.15.56,1.63,1.63,0,0,1-1.15-.56,4.38,4.38,0,0,1-.52-.7,6,6,0,0,1-.84-2.85,5.33,5.33,0,0,1,.41-1.95,5.2,5.2,0,0,1,.43-.89,4.38,4.38,0,0,1,.52-.7A1.6,1.6,0,0,1,67.58,189.65Zm0,.14a.75.75,0,0,0-.46.18,1.6,1.6,0,0,0-.4.5,3.72,3.72,0,0,0-.27.64,8.12,8.12,0,0,0-.22.81,9.48,9.48,0,0,0-.19,1.83,9.66,9.66,0,0,0,.19,1.84,8.12,8.12,0,0,0,.22.81,3.72,3.72,0,0,0,.27.64,1.51,1.51,0,0,0,.41.5.74.74,0,0,0,.47.17.72.72,0,0,0,.44-.18,1.45,1.45,0,0,0,.41-.49,4.89,4.89,0,0,0,.26-.64,6.09,6.09,0,0,0,.22-.81,8.52,8.52,0,0,0,0-3.67,6.09,6.09,0,0,0-.22-.81,4.89,4.89,0,0,0-.26-.64,1.6,1.6,0,0,0-.4-.5A.75.75,0,0,0,67.58,189.79Z" style="fill:#4D4D4D"></path><path d="M64.73,219.62a5.56,5.56,0,0,1,.72.44,3.11,3.11,0,0,1,.46.42,2.11,2.11,0,0,1,.57,1.48,2.08,2.08,0,0,1-.62,1.53,2.32,2.32,0,0,1-1.7.65,2.64,2.64,0,0,1-1.89-.7,1.87,1.87,0,0,1-.6-1.39,1.79,1.79,0,0,1,.67-1.43,6.37,6.37,0,0,1,1-.63,3,3,0,0,1-1-.78,2,2,0,0,1-.47-1.3,1.87,1.87,0,0,1,.53-1.33,2,2,0,0,1,.72-.48,2.35,2.35,0,0,1,.92-.17,2.39,2.39,0,0,1,.84.14,2.06,2.06,0,0,1,.7.38,1.57,1.57,0,0,1,.58,1.26,1.75,1.75,0,0,1-.5,1.24A5.76,5.76,0,0,1,64.73,219.62Zm-1.13.49a2.75,2.75,0,0,0-.83.92,2.34,2.34,0,0,0-.27,1.14,1.92,1.92,0,0,0,.44,1.29,1.53,1.53,0,0,0,1.21.53,1.36,1.36,0,0,0,1-.42,1.39,1.39,0,0,0,.32-.54,1.93,1.93,0,0,0,.12-.67A1.88,1.88,0,0,0,65,221,4.47,4.47,0,0,0,63.6,220.11Zm.87-.6a2.05,2.05,0,0,0,.58-.74,2.19,2.19,0,0,0,.2-1,2,2,0,0,0-.38-1.25,1.2,1.2,0,0,0-1-.48,1.16,1.16,0,0,0-.93.41,1.48,1.48,0,0,0-.37,1.05,1.7,1.7,0,0,0,.71,1.39A5.22,5.22,0,0,0,64.47,219.51Z" style="fill:#4D4D4D"></path><path d="M76.77,225.1l-2.86,7.24-.11.3a1,1,0,0,1-.23.35.46.46,0,0,1-.31.1.51.51,0,0,1-.35-.12.41.41,0,0,1-.15-.32,1.15,1.15,0,0,1,.15-.45L73,232,76.15,226H73.6a3.1,3.1,0,0,0-.49,0,.79.79,0,0,0-.3.12,1,1,0,0,0-.29.29,4.3,4.3,0,0,0-.3.61l0,.07h-.12l.53-2.33h.12c0,.13.07.21.13.24a1,1,0,0,0,.38.05Z" style="fill:#4D4D4D"></path><path d="M60.3,206.45a2.81,2.81,0,0,1-.75.46,2,2,0,0,1-.77.15,2.11,2.11,0,0,1-.9-.21,2.48,2.48,0,0,1-1.07-.93,2.62,2.62,0,0,1-.39-1.41,2.87,2.87,0,0,1,.21-1.1,2.47,2.47,0,0,1,.57-.9,2.28,2.28,0,0,1,1.69-.72,2.16,2.16,0,0,1,1.86,1,3.93,3.93,0,0,1,.63,2.32,6.28,6.28,0,0,1-.38,2.18A5.18,5.18,0,0,1,59.91,209a3.15,3.15,0,0,1-.95.73,2.52,2.52,0,0,1-1.06.23,1.91,1.91,0,0,1-1-.24.7.7,0,0,1-.41-.6.44.44,0,0,1,.12-.32.38.38,0,0,1,.29-.13.46.46,0,0,1,.21,0,.4.4,0,0,1,.18.16,1.92,1.92,0,0,1,.17.37.86.86,0,0,0,.27.41.69.69,0,0,0,.43.12,1.68,1.68,0,0,0,1.37-1A5.49,5.49,0,0,0,60.3,206.45Zm.11-2a3.41,3.41,0,0,0-.41-1.77,1.22,1.22,0,0,0-1.06-.68,1.11,1.11,0,0,0-.61.18,1.52,1.52,0,0,0-.49.54,2.92,2.92,0,0,0-.35.87,4,4,0,0,0-.13,1,3.72,3.72,0,0,0,.14,1,2.41,2.41,0,0,0,.36.79,1.21,1.21,0,0,0,1,.54,1.19,1.19,0,0,0,.93-.46,2.38,2.38,0,0,0,.44-.87A4.18,4.18,0,0,0,60.41,204.4Z" style="fill:#4D4D4D"></path><path d="M120.14,205.6c1.17.32,1.75,1,1.75,2a2.32,2.32,0,0,1-1.21,2,3,3,0,0,1-1.54.38,3.1,3.1,0,0,1-1-.15,1.92,1.92,0,0,1-.75-.41,1.57,1.57,0,0,1-.35-.49,1.38,1.38,0,0,1-.12-.56,1.18,1.18,0,0,1,.33-.85,1.09,1.09,0,0,1,.82-.34l0,.1a1.31,1.31,0,0,0-.38.46,1.19,1.19,0,0,0-.11.56,1.47,1.47,0,0,0,.28.89,1.44,1.44,0,0,0,.56.48,1.72,1.72,0,0,0,.75.17,1.53,1.53,0,0,0,1.27-.62,2.25,2.25,0,0,0,.36-.71,2.92,2.92,0,0,0,.13-.82,2.87,2.87,0,0,0-.16-.92,1.94,1.94,0,0,0-.43-.7,1,1,0,0,0-.68-.3.45.45,0,0,0-.2,0,.92.92,0,0,0-.26.15.9.9,0,0,1-.52.22.39.39,0,0,1-.28-.1.32.32,0,0,1-.12-.25.34.34,0,0,1,.15-.29.52.52,0,0,1,.36-.12.6.6,0,0,1,.2,0l.22.06a.91.91,0,0,0,.23,0,1.1,1.1,0,0,0,.77-.37,1.79,1.79,0,0,0,.51-1.34,2.28,2.28,0,0,0-.13-.78,1.92,1.92,0,0,0-.36-.66,1.25,1.25,0,0,0-1-.48,1.11,1.11,0,0,0-.8.31,1,1,0,0,0-.32.78,1.07,1.07,0,0,0,.17.61.8.8,0,0,0,.46.33l0,.11a1.25,1.25,0,0,1-.42.08.94.94,0,0,1-.68-.25.9.9,0,0,1-.26-.66,1.25,1.25,0,0,1,.56-1,2.18,2.18,0,0,1,1.35-.43,2.86,2.86,0,0,1,.92.15,2.28,2.28,0,0,1,.75.42,1.82,1.82,0,0,1,.46.61,1.79,1.79,0,0,1,.16.76,1.75,1.75,0,0,1-.64,1.39A3.46,3.46,0,0,1,120.14,205.6Z" style="fill:#4D4D4D"></path><circle cx="66.33" cy="95.62" r="33.5" style="fill:none;stroke:#4D4D4D;stroke-linecap:round;stroke-linejoin:round"></circle><circle cx="66.33" cy="95.62" r="29.81" style="fill:none;stroke:#4D4D4D;stroke-linecap:round;stroke-linejoin:round"></circle><line x1="64.93" y1="97.43" x2="55.64" y2="101.51" style="fill:none;stroke:#4D4D4D;stroke-linecap:round;stroke-linejoin:round"></line><line x1="66.33" y1="96.62" x2="69.67" y2="73.29" style="fill:none;stroke:#4D4D4D;stroke-linecap:round;stroke-linejoin:round"></line><path d="M68.73,96.62a2.4,2.4,0,1,0-2.4,2.4A2.4,2.4,0,0,0,68.73,96.62Z" style="fill:#fff;stroke:#4D4D4D;stroke-miterlimit:10"></path><path d="M63.93,69h.12v5.39a2.65,2.65,0,0,0,.06.62.74.74,0,0,0,.21.35,1.25,1.25,0,0,0,.75.25v.1H62.23v-.1a2.91,2.91,0,0,0,.49-.08.72.72,0,0,0,.29-.2.67.67,0,0,0,.18-.33,2.62,2.62,0,0,0,.05-.58V69.71l-.4,0a2.38,2.38,0,0,1-.59-.06v-.09h.12a2.08,2.08,0,0,0,.71-.12,3.27,3.27,0,0,0,.74-.41Z" style="fill:#4D4D4D"></path><path d="M70.3,75.69H66.48v-.1a16.79,16.79,0,0,0,1.21-1.19c.4-.44.75-.86,1-1.25a8.79,8.79,0,0,0,.87-1.42,2.77,2.77,0,0,0,.27-1.13,1.67,1.67,0,0,0-.45-1.18,1.19,1.19,0,0,0-.9-.41,1.23,1.23,0,0,0-.8.29,1.09,1.09,0,0,0-.36.48,1.53,1.53,0,0,0-.13.64,1.3,1.3,0,0,0,.38,1,1.27,1.27,0,0,0,.37.25.88.88,0,0,0,.41.1h.11l0,.08a1.32,1.32,0,0,1-.62.19,1.05,1.05,0,0,1-.75-.31,1.25,1.25,0,0,1-.31-.46,1.63,1.63,0,0,1-.11-.59,1.55,1.55,0,0,1,.55-1.23,2,2,0,0,1,1.41-.5,2.38,2.38,0,0,1,.85.16,1.63,1.63,0,0,1,.66.44,1.68,1.68,0,0,1,.37.6,2,2,0,0,1,.13.72,2.67,2.67,0,0,1-.52,1.51,4.37,4.37,0,0,1-.6.73c-.24.24-.56.54-1,.89s-.93.77-1.16,1h1.78a3,3,0,0,0,.63,0,.84.84,0,0,0,.42-.26,1.52,1.52,0,0,0,.3-.57l.11,0Z" style="fill:#4D4D4D"></path><path d="M64,119.13a2.26,2.26,0,0,1,.63-.4,1.69,1.69,0,0,1,.64-.12,1.94,1.94,0,0,1,.76.17,2,2,0,0,1,.89.78,2.2,2.2,0,0,1,.33,1.19,2.59,2.59,0,0,1-.17.92,2.23,2.23,0,0,1-.48.76,1.92,1.92,0,0,1-1.42.6,1.83,1.83,0,0,1-1.56-.83,3.32,3.32,0,0,1-.52-1.94,5.35,5.35,0,0,1,.31-1.84A4.4,4.4,0,0,1,64.3,117a2.7,2.7,0,0,1,.8-.61,2.07,2.07,0,0,1,.89-.2,1.7,1.7,0,0,1,.85.2.6.6,0,0,1,.34.51.36.36,0,0,1-.1.27.3.3,0,0,1-.24.1.41.41,0,0,1-.19,0,.47.47,0,0,1-.14-.14,1.61,1.61,0,0,1-.14-.31.79.79,0,0,0-.23-.35.58.58,0,0,0-.37-.1,1.4,1.4,0,0,0-1.14.82A4.68,4.68,0,0,0,64,119.13Zm-.09,1.71a2.8,2.8,0,0,0,.34,1.48,1,1,0,0,0,.89.58,1,1,0,0,0,.51-.15,1.45,1.45,0,0,0,.42-.46,2.78,2.78,0,0,0,.28-.73,3.62,3.62,0,0,0,.11-.86,3.48,3.48,0,0,0-.11-.85,2.45,2.45,0,0,0-.3-.67,1,1,0,0,0-.87-.45,1,1,0,0,0-.78.39,1.85,1.85,0,0,0-.36.73A3.39,3.39,0,0,0,63.89,120.84Z" style="fill:#4D4D4D"></path><path d="M76.53,118.33l.88-3.62a5.57,5.57,0,0,0,1.28.17,2.91,2.91,0,0,0,.57,0,1.44,1.44,0,0,0,.4-.13,1.5,1.5,0,0,1-.12.39,1,1,0,0,1-.23.28,1.25,1.25,0,0,1-.8.22,6.94,6.94,0,0,1-1.09-.13l-.54,2.15a1.79,1.79,0,0,1,.47-.27,1.28,1.28,0,0,1,.5-.08,1.67,1.67,0,0,1,1.27.54,1.9,1.9,0,0,1,.36.57,1.92,1.92,0,0,1,.12.66,2.45,2.45,0,0,1-.23,1,2.56,2.56,0,0,1-.89,1.07,2.31,2.31,0,0,1-1.31.37,2.41,2.41,0,0,1-.76-.11,1.73,1.73,0,0,1-.59-.31,1.2,1.2,0,0,1-.3-.38,1,1,0,0,1-.1-.44.57.57,0,0,1,.12-.37.4.4,0,0,1,.32-.14.31.31,0,0,1,.26.11.39.39,0,0,1,.1.29,1.49,1.49,0,0,1,0,.19,1.55,1.55,0,0,0,0,.21.76.76,0,0,0,.25.6.93.93,0,0,0,.67.23,1.32,1.32,0,0,0,1.12-.61,2.47,2.47,0,0,0,.37-.8,3.43,3.43,0,0,0,.14-1,2.22,2.22,0,0,0-.29-1.2.89.89,0,0,0-.78-.44.8.8,0,0,0-.58.24,1.57,1.57,0,0,0-.41.7Z" style="fill:#4D4D4D"></path><path d="M88,111.83H85.56v-.11l3.06-5h.22v5a1.71,1.71,0,0,0,.46,0,.49.49,0,0,0,.24-.17.68.68,0,0,0,.12-.22,1.8,1.8,0,0,0,0-.32v-.11h.11v1.87h-.11a2.83,2.83,0,0,0,0-.44.58.58,0,0,0-.13-.23.56.56,0,0,0-.22-.13,1.64,1.64,0,0,0-.37,0h-.1v.49a1.92,1.92,0,0,0,0,.45.73.73,0,0,0,.16.29.5.5,0,0,0,.23.18,1.82,1.82,0,0,0,.41.08v.1H87.2v-.1a1.08,1.08,0,0,0,.64-.2.6.6,0,0,0,.14-.3,2.37,2.37,0,0,0,0-.52Zm0-.18V108l-2.22,3.61Z" style="fill:#4D4D4D"></path><path d="M79.63,71h.11v5.39a2.09,2.09,0,0,0,.07.61.7.7,0,0,0,.2.36,1.38,1.38,0,0,0,.75.24v.1H77.92v-.1a2.25,2.25,0,0,0,.5-.08.77.77,0,0,0,.29-.19.87.87,0,0,0,.17-.33,2.79,2.79,0,0,0,.05-.59V71.71l-.4,0a2.29,2.29,0,0,1-.58-.06V71.6h.11a2.18,2.18,0,0,0,.72-.13,3.3,3.3,0,0,0,.74-.41Z" style="fill:#4D4D4D"></path><path d="M50.41,72.66h.11V78a2.52,2.52,0,0,0,.07.62.7.7,0,0,0,.2.36,1.39,1.39,0,0,0,.76.24v.1H48.71v-.1a2.25,2.25,0,0,0,.49-.08.7.7,0,0,0,.29-.19.77.77,0,0,0,.18-.33,2.94,2.94,0,0,0,0-.59V73.38l-.4,0a2.35,2.35,0,0,1-.58-.06v-.08h.11a2.14,2.14,0,0,0,.72-.13,3.1,3.1,0,0,0,.74-.41Z" style="fill:#4D4D4D"></path><path d="M55.36,72.66h.11V78a2.12,2.12,0,0,0,.07.62.7.7,0,0,0,.2.36,1.38,1.38,0,0,0,.75.24v.1H53.65v-.1a2.25,2.25,0,0,0,.5-.08.77.77,0,0,0,.29-.19.75.75,0,0,0,.17-.33,2.25,2.25,0,0,0,0-.59V73.38l-.4,0a2.29,2.29,0,0,1-.58-.06v-.08h.11a2.18,2.18,0,0,0,.72-.13,3.1,3.1,0,0,0,.74-.41Z" style="fill:#4D4D4D"></path><path d="M89.39,87.54H85.57v-.09c.4-.36.81-.76,1.21-1.2a13.2,13.2,0,0,0,1-1.25,8.53,8.53,0,0,0,.88-1.42A2.88,2.88,0,0,0,89,82.46a1.68,1.68,0,0,0-.45-1.19,1.18,1.18,0,0,0-.9-.4,1.22,1.22,0,0,0-.8.28,1.44,1.44,0,0,0-.36.48,1.71,1.71,0,0,0-.13.65,1.24,1.24,0,0,0,.39.94,1.18,1.18,0,0,0,.37.26,1,1,0,0,0,.4.09h.12l0,.09a1.45,1.45,0,0,1-.63.18,1,1,0,0,1-.74-.31,1.07,1.07,0,0,1-.31-.46,1.44,1.44,0,0,1-.11-.59,1.57,1.57,0,0,1,.54-1.23,2,2,0,0,1,1.41-.49,2.43,2.43,0,0,1,.86.15,1.8,1.8,0,0,1,.66.45,1.84,1.84,0,0,1,.37.6,2.16,2.16,0,0,1,.12.71,2.71,2.71,0,0,1-.51,1.51,5,5,0,0,1-.61.73,12.44,12.44,0,0,1-1,.89c-.54.44-.92.77-1.15,1h1.77a2.89,2.89,0,0,0,.63,0,.89.89,0,0,0,.42-.25,1.38,1.38,0,0,0,.3-.58l.11,0Z" style="fill:#4D4D4D"></path><path d="M43.23,83.17h.11v5.39a2.59,2.59,0,0,0,.07.62.69.69,0,0,0,.2.35,1.31,1.31,0,0,0,.76.25v.1H41.53v-.1A2.15,2.15,0,0,0,42,89.7a.63.63,0,0,0,.29-.2.67.67,0,0,0,.18-.33,2.77,2.77,0,0,0,0-.58V83.9l-.39,0a2.38,2.38,0,0,1-.59-.06v-.09h.11a2.09,2.09,0,0,0,.72-.12,3.27,3.27,0,0,0,.74-.41Z" style="fill:#4D4D4D"></path><path d="M47.89,83.09a1.33,1.33,0,0,1,1,.46,3.34,3.34,0,0,1,.43.59,4.65,4.65,0,0,1,.37.74,4.15,4.15,0,0,1,0,3.29,4.26,4.26,0,0,1-.37.74,3.34,3.34,0,0,1-.43.59,1.36,1.36,0,0,1-1,.47,1.34,1.34,0,0,1-1-.47,3.35,3.35,0,0,1-.44-.59,4.21,4.21,0,0,1-.36-.74,4.15,4.15,0,0,1,0-3.29,4.58,4.58,0,0,1,.36-.74,3.35,3.35,0,0,1,.44-.59A1.32,1.32,0,0,1,47.89,83.09Zm0,.11a.59.59,0,0,0-.38.15,1.33,1.33,0,0,0-.34.42,3,3,0,0,0-.22.54,5.76,5.76,0,0,0-.19.68,7.44,7.44,0,0,0,0,3.07,5.91,5.91,0,0,0,.19.69,3.15,3.15,0,0,0,.22.53,1.25,1.25,0,0,0,.34.42.64.64,0,0,0,.4.15.61.61,0,0,0,.37-.15,1.33,1.33,0,0,0,.34-.42,4.29,4.29,0,0,0,.22-.53,5.91,5.91,0,0,0,.19-.69,8,8,0,0,0,.16-1.53A8.14,8.14,0,0,0,49,85a5.76,5.76,0,0,0-.19-.68,3.93,3.93,0,0,0-.22-.54,1.33,1.33,0,0,0-.34-.42A.6.6,0,0,0,47.89,83.2Z" style="fill:#4D4D4D"></path><path d="M45.51,108.22a4.83,4.83,0,0,1,.59.37,2.21,2.21,0,0,1,.39.35,1.76,1.76,0,0,1,.47,1.24,1.74,1.74,0,0,1-.51,1.28A1.92,1.92,0,0,1,45,112a2.19,2.19,0,0,1-1.58-.59,1.53,1.53,0,0,1-.5-1.16,1.5,1.5,0,0,1,.56-1.2,4.8,4.8,0,0,1,.86-.53,2.38,2.38,0,0,1-.88-.65,1.68,1.68,0,0,1-.39-1.09,1.54,1.54,0,0,1,.44-1.12,1.7,1.7,0,0,1,.61-.4,1.94,1.94,0,0,1,.76-.15,2.12,2.12,0,0,1,.71.12,1.86,1.86,0,0,1,.59.32,1.34,1.34,0,0,1,.48,1.06,1.43,1.43,0,0,1-.42,1A4.14,4.14,0,0,1,45.51,108.22Zm-1,.41a2.36,2.36,0,0,0-.69.77,2,2,0,0,0-.23,1,1.59,1.59,0,0,0,.37,1.08,1.26,1.26,0,0,0,1,.45,1.11,1.11,0,0,0,.86-.35,1.42,1.42,0,0,0,.28-.46,1.8,1.8,0,0,0,.1-.57,1.6,1.6,0,0,0-.5-1.17A4.18,4.18,0,0,0,44.55,108.63Zm.73-.5a1.74,1.74,0,0,0,.49-.63,1.92,1.92,0,0,0,.17-.81,1.65,1.65,0,0,0-.32-1,1,1,0,0,0-1.61-.06,1.26,1.26,0,0,0-.3.87,1.44,1.44,0,0,0,.59,1.17A4.18,4.18,0,0,0,45.28,108.13Z" style="fill:#4D4D4D"></path><path d="M55.6,112.82l-2.4,6.07-.09.25a.86.86,0,0,1-.19.29.4.4,0,0,1-.27.09.44.44,0,0,1-.29-.11.34.34,0,0,1-.12-.26.94.94,0,0,1,.12-.38l.1-.19,2.62-5H52.94a2.15,2.15,0,0,0-.41,0,.69.69,0,0,0-.25.1A.85.85,0,0,0,52,114a4,4,0,0,0-.25.51l0,.06h-.09l.44-2h.1a.29.29,0,0,0,.11.2.76.76,0,0,0,.32,0Z" style="fill:#4D4D4D"></path><path d="M41.79,97.17a2.34,2.34,0,0,1-.64.39,1.75,1.75,0,0,1-1.39,0,2,2,0,0,1-.9-.78,2.19,2.19,0,0,1-.32-1.19,2.58,2.58,0,0,1,.16-.92,2.27,2.27,0,0,1,.49-.75,1.9,1.9,0,0,1,1.41-.6,1.78,1.78,0,0,1,1.56.83A3.28,3.28,0,0,1,42.69,96a5.25,5.25,0,0,1-.32,1.83,4.14,4.14,0,0,1-.91,1.48,2.75,2.75,0,0,1-.8.61,2,2,0,0,1-.89.19,1.6,1.6,0,0,1-.85-.2.59.59,0,0,1-.34-.5.41.41,0,0,1,.1-.27.32.32,0,0,1,.24-.11.58.58,0,0,1,.19,0,.5.5,0,0,1,.15.14c0,.06.08.16.14.3a.66.66,0,0,0,.22.35.58.58,0,0,0,.37.1,1.39,1.39,0,0,0,1.14-.82A4.78,4.78,0,0,0,41.79,97.17Zm.09-1.71A2.83,2.83,0,0,0,41.53,94a1,1,0,0,0-.89-.57,1,1,0,0,0-.51.15,1.49,1.49,0,0,0-.41.45,2.59,2.59,0,0,0-.29.73,3.69,3.69,0,0,0-.11.86,3.34,3.34,0,0,0,.11.84,2,2,0,0,0,.31.66,1,1,0,0,0,1.65.07,2.17,2.17,0,0,0,.36-.73A3.67,3.67,0,0,0,41.88,95.46Z" style="fill:#4D4D4D"></path><path d="M92,96.46c1,.27,1.47.82,1.47,1.66a1.91,1.91,0,0,1-.19.84,1.94,1.94,0,0,1-.82.88,2.63,2.63,0,0,1-1.3.31,2.71,2.71,0,0,1-.82-.12,1.59,1.59,0,0,1-.63-.35,1.22,1.22,0,0,1-.29-.41,1.12,1.12,0,0,1-.11-.47,1,1,0,0,1,.28-.71.94.94,0,0,1,.69-.29l0,.09a1.1,1.1,0,0,0-.32.38,1.12,1.12,0,0,0-.1.47,1.26,1.26,0,0,0,.72,1.15,1.44,1.44,0,0,0,.62.14,1.27,1.27,0,0,0,1.06-.51,1.88,1.88,0,0,0,.3-.6,2.09,2.09,0,0,0,.12-.69,2.28,2.28,0,0,0-.14-.77,1.51,1.51,0,0,0-.36-.58.79.79,0,0,0-.57-.26.47.47,0,0,0-.17,0,1.53,1.53,0,0,0-.21.13.82.82,0,0,1-.44.19.36.36,0,0,1-.24-.09.26.26,0,0,1-.09-.21.29.29,0,0,1,.12-.24.45.45,0,0,1,.31-.1l.16,0,.19.05a.58.58,0,0,0,.19,0,.93.93,0,0,0,.65-.3A1.53,1.53,0,0,0,92.49,95a2.05,2.05,0,0,0-.1-.65,1.83,1.83,0,0,0-.31-.55,1,1,0,0,0-.83-.4.91.91,0,0,0-.67.25.87.87,0,0,0-.27.66.93.93,0,0,0,.14.51.68.68,0,0,0,.39.28l0,.09a1.15,1.15,0,0,1-.35.07.78.78,0,0,1-.57-.22.71.71,0,0,1-.22-.55,1,1,0,0,1,.47-.85,1.8,1.8,0,0,1,1.13-.36,2.27,2.27,0,0,1,.77.13,1.75,1.75,0,0,1,.63.35,1.37,1.37,0,0,1,.38.51,1.52,1.52,0,0,1,.14.63,1.48,1.48,0,0,1-.54,1.17A2.56,2.56,0,0,1,92,96.46Z" style="fill:#4D4D4D"></path><circle cx="440.09" cy="55.7" r="34.04" transform="translate(216.86 439.03) rotate(-67)" style="fill:none;stroke:#4D4D4D;stroke-linecap:round;stroke-linejoin:round"></circle><circle cx="440.09" cy="55.7" r="30.3" transform="translate(-3.26 70.54) rotate(-9.13)" style="fill:none;stroke:#4D4D4D;stroke-linecap:round;stroke-linejoin:round"></circle><path d="M437.85,28.41H438v5.46a2.12,2.12,0,0,0,.07.62.62.62,0,0,0,.2.36,1.34,1.34,0,0,0,.77.25v.11h-2.88V35.1a1.78,1.78,0,0,0,.5-.08.72.72,0,0,0,.3-.2.74.74,0,0,0,.17-.33,2.79,2.79,0,0,0,.05-.59V29.15l-.4,0a2.47,2.47,0,0,1-.6-.06V29h.12a2,2,0,0,0,.73-.13,3.15,3.15,0,0,0,.75-.41Z" style="fill:#4D4D4D"></path><path d="M444.29,35.21h-3.86v-.1c.4-.36.81-.77,1.22-1.21a14.9,14.9,0,0,0,1.05-1.27,8.1,8.1,0,0,0,.89-1.44,2.82,2.82,0,0,0,.27-1.14,1.68,1.68,0,0,0-.46-1.2,1.19,1.19,0,0,0-.91-.41,1.24,1.24,0,0,0-.81.29,1.18,1.18,0,0,0-.36.49,1.57,1.57,0,0,0-.13.65,1.32,1.32,0,0,0,.38,1,1.35,1.35,0,0,0,.38.26,1,1,0,0,0,.41.09h.12l0,.08a1.42,1.42,0,0,1-.64.19,1.1,1.1,0,0,1-.75-.31,1.4,1.4,0,0,1-.32-.47,1.73,1.73,0,0,1-.11-.6,1.62,1.62,0,0,1,.55-1.25,2.11,2.11,0,0,1,1.43-.5,2.28,2.28,0,0,1,.87.16,1.77,1.77,0,0,1,1,1.06,2,2,0,0,1,.13.72,2.73,2.73,0,0,1-.52,1.53,5.08,5.08,0,0,1-.61.74,11.29,11.29,0,0,1-1,.9c-.54.45-.93.78-1.17,1h1.8a2.39,2.39,0,0,0,.64-.06.89.89,0,0,0,.42-.25,1.49,1.49,0,0,0,.31-.59l.11,0Z" style="fill:#4D4D4D"></path><path d="M437.89,79.21a2.56,2.56,0,0,1,.64-.4,1.75,1.75,0,0,1,.65-.12,2,2,0,0,1,.77.17,2.05,2.05,0,0,1,.9.8,2.13,2.13,0,0,1,.34,1.2,2.48,2.48,0,0,1-.18.93,2.15,2.15,0,0,1-.49.77,1.93,1.93,0,0,1-1.43.6,1.85,1.85,0,0,1-1.58-.83,3.32,3.32,0,0,1-.53-2,5.42,5.42,0,0,1,.32-1.86,4.37,4.37,0,0,1,.91-1.5,3,3,0,0,1,.82-.61,2,2,0,0,1,.9-.2,1.71,1.71,0,0,1,.86.2.61.61,0,0,1,.35.52.43.43,0,0,1-.1.27.33.33,0,0,1-.25.1.41.41,0,0,1-.19,0,.32.32,0,0,1-.14-.14,1.8,1.8,0,0,1-.15-.31.77.77,0,0,0-.23-.36.58.58,0,0,0-.37-.1,1.41,1.41,0,0,0-1.16.83A4.91,4.91,0,0,0,437.89,79.21Zm-.09,1.73a2.88,2.88,0,0,0,.35,1.51,1.05,1.05,0,0,0,.9.59.88.88,0,0,0,.51-.16,1.37,1.37,0,0,0,.43-.46,2.54,2.54,0,0,0,.28-.74,3.24,3.24,0,0,0,.11-.87,3.07,3.07,0,0,0-.11-.86,1.86,1.86,0,0,0-.3-.68,1,1,0,0,0-.88-.46,1,1,0,0,0-.79.39,2.05,2.05,0,0,0-.37.74A3.51,3.51,0,0,0,437.8,80.94Z" style="fill:#4D4D4D"></path><path d="M450.61,78.4l.89-3.66a5.74,5.74,0,0,0,1.3.17,3.09,3.09,0,0,0,.58,0,1.87,1.87,0,0,0,.4-.13,1.19,1.19,0,0,1-.13.39.85.85,0,0,1-.22.28,1.24,1.24,0,0,1-.81.23,6.16,6.16,0,0,1-1.11-.14L451,77.69a1.64,1.64,0,0,1,.48-.28,1.52,1.52,0,0,1,.51-.08,1.74,1.74,0,0,1,1.64,1.13,1.74,1.74,0,0,1,.13.67,2.51,2.51,0,0,1-.24,1.05,2.41,2.41,0,0,1-.9,1.08,2.35,2.35,0,0,1-1.32.38,2.43,2.43,0,0,1-.77-.12,1.75,1.75,0,0,1-.61-.31,1.33,1.33,0,0,1-.29-.38,1.06,1.06,0,0,1-.11-.45.51.51,0,0,1,.13-.37.39.39,0,0,1,.32-.15.33.33,0,0,1,.26.11.44.44,0,0,1,.11.3s0,.11,0,.2a1.5,1.5,0,0,0,0,.2.77.77,0,0,0,.26.61.93.93,0,0,0,.67.24,1.35,1.35,0,0,0,1.14-.63,2.59,2.59,0,0,0,.38-.8,3.63,3.63,0,0,0,.14-1,2.17,2.17,0,0,0-.3-1.21.89.89,0,0,0-.78-.45.85.85,0,0,0-.6.24,1.77,1.77,0,0,0-.41.71Z" style="fill:#4D4D4D"></path><path d="M462.25,71.81h-2.49v-.1l3.09-5.09h.22v5a2.3,2.3,0,0,0,.47,0,.49.49,0,0,0,.25-.18.78.78,0,0,0,.12-.22,1.8,1.8,0,0,0,0-.32v-.12h.11v1.9H464a2.83,2.83,0,0,0,0-.44.55.55,0,0,0-.13-.24.53.53,0,0,0-.23-.13,1.52,1.52,0,0,0-.37,0h-.11v.51a1.87,1.87,0,0,0,.05.45.86.86,0,0,0,.16.3.53.53,0,0,0,.23.17,1.4,1.4,0,0,0,.41.09v.1h-2.5v-.1a1.12,1.12,0,0,0,.65-.2.83.83,0,0,0,.14-.3,2.58,2.58,0,0,0,0-.54Zm0-.17V68L460,71.64Z" style="fill:#4D4D4D"></path><path d="M453.74,30.44h.12V35.9a2.12,2.12,0,0,0,.07.62.7.7,0,0,0,.2.36,1.34,1.34,0,0,0,.77.25v.11H452v-.11a1.78,1.78,0,0,0,.5-.08.63.63,0,0,0,.29-.2.67.67,0,0,0,.18-.33,2.79,2.79,0,0,0,.05-.59V31.18l-.4,0a2.47,2.47,0,0,1-.6-.06v-.09h.12a1.92,1.92,0,0,0,.72-.13,3.15,3.15,0,0,0,.75-.41Z" style="fill:#4D4D4D"></path><path d="M424.15,32.13h.11v5.46a2.24,2.24,0,0,0,.07.63.7.7,0,0,0,.2.36,1.43,1.43,0,0,0,.77.24v.11h-2.88v-.11a1.78,1.78,0,0,0,.5-.08.8.8,0,0,0,.3-.19.84.84,0,0,0,.17-.34,2.73,2.73,0,0,0,.05-.59V32.87l-.4,0a2.47,2.47,0,0,1-.6-.06v-.09h.12a2,2,0,0,0,.73-.13,3.35,3.35,0,0,0,.75-.41Z" style="fill:#4D4D4D"></path><path d="M429.16,32.13h.11v5.46a2.68,2.68,0,0,0,.07.63.7.7,0,0,0,.21.36,1.39,1.39,0,0,0,.76.24v.11h-2.88v-.11a1.78,1.78,0,0,0,.5-.08.8.8,0,0,0,.3-.19,1,1,0,0,0,.18-.34,2.88,2.88,0,0,0,0-.59V32.87l-.4,0a2.38,2.38,0,0,1-.59-.06v-.09h.11a2,2,0,0,0,.73-.13,3.15,3.15,0,0,0,.75-.41Z" style="fill:#4D4D4D"></path><path d="M463.64,47.22h-3.87v-.1c.41-.37.81-.77,1.22-1.21A14.9,14.9,0,0,0,462,44.64a7.87,7.87,0,0,0,.89-1.44,2.82,2.82,0,0,0,.27-1.14,1.72,1.72,0,0,0-.45-1.2,1.24,1.24,0,0,0-1.72-.12,1.21,1.21,0,0,0-.37.49,1.54,1.54,0,0,0-.13.65,1.3,1.3,0,0,0,.39,1,1.18,1.18,0,0,0,.37.26,1,1,0,0,0,.41.09h.12l0,.09a1.48,1.48,0,0,1-.63.19,1.07,1.07,0,0,1-.76-.32,1.14,1.14,0,0,1-.31-.46,1.52,1.52,0,0,1-.11-.6,1.6,1.6,0,0,1,.54-1.25,2.11,2.11,0,0,1,1.43-.5,2.25,2.25,0,0,1,.87.16,1.77,1.77,0,0,1,1,1.06,2,2,0,0,1,.13.72,2.73,2.73,0,0,1-.52,1.53,5.08,5.08,0,0,1-.61.74c-.24.24-.57.54-1,.9l-1.17,1h1.8a2.45,2.45,0,0,0,.64,0,1,1,0,0,0,.43-.25,1.62,1.62,0,0,0,.3-.59l.11,0Z" style="fill:#4D4D4D"></path><path d="M416.87,42.79H417v5.46a2.16,2.16,0,0,0,.07.62.7.7,0,0,0,.2.36,1.31,1.31,0,0,0,.76.25v.1h-2.87v-.1a2.36,2.36,0,0,0,.5-.08.72.72,0,0,0,.29-.2.67.67,0,0,0,.18-.33,2.79,2.79,0,0,0,.05-.59V43.53l-.41,0a2.38,2.38,0,0,1-.59-.06v-.09h.12a2.18,2.18,0,0,0,.72-.13,3.55,3.55,0,0,0,.75-.41Z" style="fill:#4D4D4D"></path><path d="M421.6,42.7a1.36,1.36,0,0,1,1,.47,3.12,3.12,0,0,1,.45.6,6.5,6.5,0,0,1,.37.75,4.25,4.25,0,0,1,0,3.33,5.22,5.22,0,0,1-.37.75,3.46,3.46,0,0,1-.45.6,1.36,1.36,0,0,1-1,.47,1.38,1.38,0,0,1-1-.47,3.46,3.46,0,0,1-.44-.6,4.35,4.35,0,0,1-.37-.75,4.14,4.14,0,0,1,0-3.33,5.21,5.21,0,0,1,.37-.75,3.11,3.11,0,0,1,.44-.6A1.36,1.36,0,0,1,421.6,42.7Zm0,.12a.6.6,0,0,0-.39.15,1.35,1.35,0,0,0-.35.42,3.47,3.47,0,0,0-.22.55,5.91,5.91,0,0,0-.19.69,7.64,7.64,0,0,0,0,3.11,5.41,5.41,0,0,0,.19.69,3.47,3.47,0,0,0,.22.55,1.5,1.5,0,0,0,.35.42.64.64,0,0,0,.4.15.64.64,0,0,0,.38-.15,1.33,1.33,0,0,0,.34-.42,4.6,4.6,0,0,0,.23-.55,5.38,5.38,0,0,0,.18-.69,7.2,7.2,0,0,0,0-3.11,5.84,5.84,0,0,0-.18-.69,4.6,4.6,0,0,0-.23-.55A1.33,1.33,0,0,0,422,43,.64.64,0,0,0,421.6,42.82Z" style="fill:#4D4D4D"></path><path d="M419.18,68.16c.25.14.45.27.6.37a2.77,2.77,0,0,1,.4.36,1.82,1.82,0,0,1,.48,1.26,1.76,1.76,0,0,1-.53,1.3,1.94,1.94,0,0,1-1.44.55,2.22,2.22,0,0,1-1.6-.59,1.57,1.57,0,0,1-.52-1.18,1.53,1.53,0,0,1,.57-1.22,5.93,5.93,0,0,1,.87-.53,2.6,2.6,0,0,1-.88-.66,1.7,1.7,0,0,1-.4-1.11,1.57,1.57,0,0,1,.45-1.13,1.73,1.73,0,0,1,.61-.41,2,2,0,0,1,.78-.14,2.15,2.15,0,0,1,.71.11,1.93,1.93,0,0,1,.6.33,1.33,1.33,0,0,1,.49,1.07,1.46,1.46,0,0,1-.43,1A4.41,4.41,0,0,1,419.18,68.16Zm-1,.41a2.34,2.34,0,0,0-.7.79,2,2,0,0,0-.23,1,1.6,1.6,0,0,0,.37,1.09,1.3,1.3,0,0,0,1,.46,1.13,1.13,0,0,0,.88-.36,1.32,1.32,0,0,0,.28-.46,1.56,1.56,0,0,0,.1-.57,1.6,1.6,0,0,0-.51-1.19A4.1,4.1,0,0,0,418.21,68.57Zm.74-.5a1.77,1.77,0,0,0,.5-.63,2,2,0,0,0,.16-.83,1.62,1.62,0,0,0-.32-1,1,1,0,0,0-.83-.42,1,1,0,0,0-.8.35,1.34,1.34,0,0,0-.31.89,1.44,1.44,0,0,0,.61,1.18A4.05,4.05,0,0,0,419,68.07Z" style="fill:#4D4D4D"></path><path d="M429.4,72.82,427,79l-.1.25a.71.71,0,0,1-.2.3.39.39,0,0,1-.26.09.44.44,0,0,1-.3-.11.34.34,0,0,1-.12-.26,1,1,0,0,1,.12-.39l.1-.19,2.66-5h-2.17l-.42,0a.69.69,0,0,0-.25.1,1,1,0,0,0-.25.25,4.06,4.06,0,0,0-.26.52l0,.06h-.1l.45-2h.1a.27.27,0,0,0,.11.2.72.72,0,0,0,.32,0Z" style="fill:#4D4D4D"></path><path d="M415.41,57a2.89,2.89,0,0,1-.64.4,1.78,1.78,0,0,1-.65.12,1.73,1.73,0,0,1-.76-.18,2,2,0,0,1-.92-.79,2.29,2.29,0,0,1-.32-1.2,2.4,2.4,0,0,1,.17-.93,2.2,2.2,0,0,1,.49-.77,1.93,1.93,0,0,1,1.43-.6,1.85,1.85,0,0,1,1.58.83,3.4,3.4,0,0,1,.53,2,5.2,5.2,0,0,1-.32,1.86,4.12,4.12,0,0,1-.92,1.49,2.66,2.66,0,0,1-.81.62,2.12,2.12,0,0,1-.9.2,1.68,1.68,0,0,1-.86-.2.6.6,0,0,1-.34-.52.4.4,0,0,1,.09-.27.33.33,0,0,1,.25-.1.42.42,0,0,1,.34.17c0,.06.08.16.14.31a.73.73,0,0,0,.22.35.6.6,0,0,0,.37.11,1.43,1.43,0,0,0,1.17-.83A4.91,4.91,0,0,0,415.41,57Zm.09-1.74a2.87,2.87,0,0,0-.35-1.5,1,1,0,0,0-.9-.58,1,1,0,0,0-.52.15,1.45,1.45,0,0,0-.42.46,2.54,2.54,0,0,0-.29.74,3.7,3.7,0,0,0-.11.87,3.06,3.06,0,0,0,.12.85,2.19,2.19,0,0,0,.3.67,1.06,1.06,0,0,0,.88.45A1,1,0,0,0,415,57a1.86,1.86,0,0,0,.37-.73A3.44,3.44,0,0,0,415.5,55.23Z" style="fill:#4D4D4D"></path><path d="M466.25,56.25c1,.27,1.49.83,1.49,1.68a1.92,1.92,0,0,1-.19.85,2,2,0,0,1-.84.89,2.65,2.65,0,0,1-1.31.32,2.45,2.45,0,0,1-.83-.13,1.71,1.71,0,0,1-.64-.35,1.22,1.22,0,0,1-.29-.41,1.05,1.05,0,0,1-.11-.48,1,1,0,0,1,.28-.72.91.91,0,0,1,.7-.29l0,.09a1.27,1.27,0,0,0-.33.38,1.14,1.14,0,0,0-.09.48,1.29,1.29,0,0,0,.24.76,1.18,1.18,0,0,0,.48.4,1.33,1.33,0,0,0,.63.15,1.3,1.3,0,0,0,1.08-.53,1.69,1.69,0,0,0,.3-.6A2.09,2.09,0,0,0,467,58a2.22,2.22,0,0,0-.13-.77,1.52,1.52,0,0,0-.36-.6.86.86,0,0,0-.59-.26.51.51,0,0,0-.17,0,1.86,1.86,0,0,0-.21.14.82.82,0,0,1-.44.18.36.36,0,0,1-.24-.08.27.27,0,0,1-.1-.22.29.29,0,0,1,.12-.24.45.45,0,0,1,.31-.1.47.47,0,0,1,.17,0l.19,0,.19,0a.93.93,0,0,0,.66-.31,1.51,1.51,0,0,0,.43-1.14,2.08,2.08,0,0,0-.11-.66,1.61,1.61,0,0,0-.31-.56,1,1,0,0,0-.84-.4.94.94,0,0,0-.68.25.9.9,0,0,0-.27.67,1,1,0,0,0,.14.52.67.67,0,0,0,.4.28V55a1.15,1.15,0,0,1-.35.07.78.78,0,0,1-.58-.22.71.71,0,0,1-.22-.55,1.08,1.08,0,0,1,.47-.87,1.86,1.86,0,0,1,1.15-.36,2.54,2.54,0,0,1,.78.12,2.09,2.09,0,0,1,.64.36,1.52,1.52,0,0,1,.39.52,1.53,1.53,0,0,1,.14.64,1.49,1.49,0,0,1-.55,1.18A2.78,2.78,0,0,1,466.25,56.25Z" style="fill:#4D4D4D"></path><line x1="439.9" y1="56.29" x2="439.67" y2="46.29" style="fill:none;stroke:#4D4D4D;stroke-linecap:round;stroke-linejoin:round"></line><line x1="439.9" y1="56.29" x2="451" y2="80.29" style="fill:none;stroke:#4D4D4D;stroke-linecap:round;stroke-linejoin:round"></line><path d="M442.33,56.29a2.43,2.43,0,1,0-2.43,2.43A2.43,2.43,0,0,0,442.33,56.29Z" style="fill:#fff;stroke:#4D4D4D;stroke-miterlimit:10"></path><circle cx="204.25" cy="66.87" r="41.42" style="fill:none;stroke:#4D4D4D;stroke-linecap:round;stroke-linejoin:round"></circle><circle cx="204.25" cy="66.87" r="36.86" style="fill:none;stroke:#4D4D4D;stroke-linecap:round;stroke-linejoin:round"></circle><line x1="202.52" y1="67.87" x2="190.33" y2="68.96" style="fill:none;stroke:#4D4D4D;stroke-linecap:round;stroke-linejoin:round"></line><line x1="204.25" y1="66.87" x2="227" y2="48.96" style="fill:none;stroke:#4D4D4D;stroke-linecap:round;stroke-linejoin:round"></line><circle cx="204.25" cy="66.87" r="2.96" style="fill:#fff;stroke:#4D4D4D;stroke-miterlimit:10"></circle><path d="M200.62,33.72h.14v6.65a2.68,2.68,0,0,0,.09.76.83.83,0,0,0,.25.44,1.69,1.69,0,0,0,.92.3V42h-3.5v-.13a2.47,2.47,0,0,0,.61-.1,1,1,0,0,0,.36-.24.86.86,0,0,0,.22-.41,4,4,0,0,0,0-.72V34.62l-.49,0a2.86,2.86,0,0,1-.72-.08v-.11h.14a2.64,2.64,0,0,0,.89-.15,4.21,4.21,0,0,0,.91-.5Z" style="fill:#4D4D4D"></path><path d="M208.47,42h-4.71v-.12a20.79,20.79,0,0,0,1.5-1.48,19.62,19.62,0,0,0,1.28-1.54,10.08,10.08,0,0,0,1.08-1.75,3.46,3.46,0,0,0,.33-1.39,2.08,2.08,0,0,0-.56-1.46,1.44,1.44,0,0,0-1.11-.5,1.51,1.51,0,0,0-1,.35,1.39,1.39,0,0,0-.45.59,1.94,1.94,0,0,0-.16.8,1.55,1.55,0,0,0,.47,1.16,1.42,1.42,0,0,0,.46.32,1.13,1.13,0,0,0,.5.11h.14l0,.1a1.78,1.78,0,0,1-.77.23,1.31,1.31,0,0,1-.92-.38,1.45,1.45,0,0,1-.39-.57,2.2,2.2,0,0,1-.13-.73,1.93,1.93,0,0,1,.67-1.52,2.56,2.56,0,0,1,1.74-.61,3.07,3.07,0,0,1,1.06.19,2.2,2.2,0,0,1,.81.55,2.25,2.25,0,0,1,.46.74A2.68,2.68,0,0,1,209,36a3.4,3.4,0,0,1-.63,1.86,7.45,7.45,0,0,1-.75.9,15.21,15.21,0,0,1-1.21,1.09c-.66.55-1.14,1-1.43,1.22h2.19a3.3,3.3,0,0,0,.78-.07,1.1,1.1,0,0,0,.52-.31,1.82,1.82,0,0,0,.37-.71l.13,0Z" style="fill:#4D4D4D"></path><path d="M200.68,95.58a3.11,3.11,0,0,1,.78-.49,2.06,2.06,0,0,1,.79-.15,2.24,2.24,0,0,1,.93.21,2.55,2.55,0,0,1,1.11,1,2.69,2.69,0,0,1,.4,1.46,3.12,3.12,0,0,1-.21,1.14,2.76,2.76,0,0,1-.6.93,2.35,2.35,0,0,1-1.74.74,2.24,2.24,0,0,1-1.93-1,4.08,4.08,0,0,1-.64-2.4,6.51,6.51,0,0,1,.39-2.26,5.33,5.33,0,0,1,1.11-1.82,3.49,3.49,0,0,1,1-.75,2.52,2.52,0,0,1,1.09-.24,2,2,0,0,1,1.05.25.71.71,0,0,1,.42.62.48.48,0,0,1-.12.33.38.38,0,0,1-.3.13.59.59,0,0,1-.23,0,.58.58,0,0,1-.18-.17,2.09,2.09,0,0,1-.17-.38.92.92,0,0,0-.28-.43.71.71,0,0,0-.45-.13,1.75,1.75,0,0,0-1.42,1A5.76,5.76,0,0,0,200.68,95.58Zm-.11,2.11a3.49,3.49,0,0,0,.42,1.83,1.28,1.28,0,0,0,1.1.72,1.13,1.13,0,0,0,.63-.19,1.86,1.86,0,0,0,.51-.56,3.45,3.45,0,0,0,.35-.9,4.35,4.35,0,0,0,.13-1.07,4,4,0,0,0-.13-1,2.73,2.73,0,0,0-.37-.84,1.26,1.26,0,0,0-1.07-.55,1.23,1.23,0,0,0-1,.48,2.53,2.53,0,0,0-.45.9A4.63,4.63,0,0,0,200.57,97.69Z" style="fill:#4D4D4D"></path><path d="M216.16,94.59l1.09-4.46a6.68,6.68,0,0,0,1.58.21,3.29,3.29,0,0,0,.7,0,1.66,1.66,0,0,0,.49-.16,2,2,0,0,1-.15.48,1.1,1.1,0,0,1-.27.34,1.48,1.48,0,0,1-1,.28,7.45,7.45,0,0,1-1.35-.17l-.67,2.66a2.46,2.46,0,0,1,.58-.34,1.89,1.89,0,0,1,.62-.09,2,2,0,0,1,1.57.67,2.13,2.13,0,0,1,.44.7,2.33,2.33,0,0,1,.15.82,3,3,0,0,1-.29,1.28,3,3,0,0,1-1.09,1.31,2.87,2.87,0,0,1-1.61.47,3.24,3.24,0,0,1-.94-.14,2.35,2.35,0,0,1-.74-.39,1.6,1.6,0,0,1-.36-.46,1.2,1.2,0,0,1-.13-.55.64.64,0,0,1,.16-.45.48.48,0,0,1,.39-.18.39.39,0,0,1,.32.14.51.51,0,0,1,.12.35c0,.06,0,.14,0,.25a2.29,2.29,0,0,0,0,.25,1,1,0,0,0,.31.74,1.2,1.2,0,0,0,.83.29,1.68,1.68,0,0,0,1.39-.76,3.28,3.28,0,0,0,.45-1,4.39,4.39,0,0,0,.17-1.19,2.62,2.62,0,0,0-.36-1.47,1.1,1.1,0,0,0-1-.56,1,1,0,0,0-.72.3,2.12,2.12,0,0,0-.5.86Z" style="fill:#4D4D4D"></path><path d="M230.34,86.57h-3v-.13l3.77-6.2h.27v6.11a2.54,2.54,0,0,0,.57,0,.66.66,0,0,0,.31-.22.94.94,0,0,0,.14-.26,1.79,1.79,0,0,0,.06-.4v-.14h.12V87.6h-.12a2.6,2.6,0,0,0-.08-.54.63.63,0,0,0-.15-.28.54.54,0,0,0-.27-.16,1.67,1.67,0,0,0-.46-.05h-.13v.62a2.15,2.15,0,0,0,.06.55.83.83,0,0,0,.19.36.69.69,0,0,0,.28.21,2.52,2.52,0,0,0,.51.11v.12h-3v-.12a1.34,1.34,0,0,0,.79-.25.76.76,0,0,0,.17-.36,3.69,3.69,0,0,0,.05-.66Zm0-.22V81.9l-2.74,4.45Z" style="fill:#4D4D4D"></path><path d="M220,36.19h.14v6.65a3.16,3.16,0,0,0,.08.76.86.86,0,0,0,.26.44,1.69,1.69,0,0,0,.92.3v.13h-3.5v-.13a2.47,2.47,0,0,0,.61-.1,1,1,0,0,0,.36-.24.86.86,0,0,0,.21-.4,3.2,3.2,0,0,0,.06-.72V37.09a3.62,3.62,0,0,1-.49,0,2.86,2.86,0,0,1-.72-.08V37h.14a2.65,2.65,0,0,0,.89-.16,4.21,4.21,0,0,0,.91-.5Z" style="fill:#4D4D4D"></path><path d="M183.94,38.25h.14V44.9a3.16,3.16,0,0,0,.08.76.93.93,0,0,0,.25.44,1.76,1.76,0,0,0,.93.3v.13h-3.5V46.4a2.47,2.47,0,0,0,.61-.1,1,1,0,0,0,.36-.24,1,1,0,0,0,.21-.4,3.24,3.24,0,0,0,.06-.73V39.15a3.62,3.62,0,0,1-.49,0,2.75,2.75,0,0,1-.72-.08V39H182a2.59,2.59,0,0,0,.88-.16,4,4,0,0,0,.92-.5Z" style="fill:#4D4D4D"></path><path d="M190.05,38.25h.14V44.9a2.72,2.72,0,0,0,.08.76.85.85,0,0,0,.25.44,1.69,1.69,0,0,0,.93.3v.13h-3.51V46.4a2.38,2.38,0,0,0,.61-.1.94.94,0,0,0,.58-.64,3.24,3.24,0,0,0,.06-.73V39.15a3.74,3.74,0,0,1-.5,0,2.86,2.86,0,0,1-.72-.08V39h.14a2.65,2.65,0,0,0,.89-.16,4,4,0,0,0,.91-.5Z" style="fill:#4D4D4D"></path><path d="M232,56.62h-4.71V56.5c.49-.44,1-.93,1.49-1.47s.92-1.06,1.28-1.54a10.1,10.1,0,0,0,1.08-1.76,3.46,3.46,0,0,0,.33-1.38,2.09,2.09,0,0,0-.56-1.47,1.48,1.48,0,0,0-1.11-.5,1.51,1.51,0,0,0-1,.35,1.61,1.61,0,0,0-.45.6,2,2,0,0,0-.16.79,1.56,1.56,0,0,0,.48,1.17,1.39,1.39,0,0,0,.45.31,1.15,1.15,0,0,0,.5.12h.14l0,.1a1.62,1.62,0,0,1-.77.23,1.29,1.29,0,0,1-.92-.38,1.43,1.43,0,0,1-.38-.57,1.94,1.94,0,0,1-.14-.73,2,2,0,0,1,.67-1.52,2.56,2.56,0,0,1,1.74-.6,2.85,2.85,0,0,1,1.06.19,2,2,0,0,1,.81.55,2.15,2.15,0,0,1,.46.74,2.59,2.59,0,0,1,.16.88,3.36,3.36,0,0,1-.64,1.86,6.62,6.62,0,0,1-.75.9c-.29.3-.69.66-1.21,1.1s-1.14.95-1.42,1.21h2.19a2.93,2.93,0,0,0,.78-.07,1,1,0,0,0,.51-.31,1.64,1.64,0,0,0,.37-.71l.14,0Z" style="fill:#4D4D4D"></path><path d="M175.08,51.23h.14v6.65a2.68,2.68,0,0,0,.09.76.82.82,0,0,0,.25.43,1.61,1.61,0,0,0,.93.31v.12H173v-.12a2.93,2.93,0,0,0,.61-.1A.88.88,0,0,0,174,59a.91.91,0,0,0,.22-.41,3.32,3.32,0,0,0,.05-.72V52.13l-.49,0a2.92,2.92,0,0,1-.72-.07V52h.14a2.64,2.64,0,0,0,.89-.15,4.42,4.42,0,0,0,.91-.5Z" style="fill:#4D4D4D"></path><path d="M180.84,51.12a1.59,1.59,0,0,1,1.18.58,3.07,3.07,0,0,1,.54.72,7.18,7.18,0,0,1,.46.92,5.21,5.21,0,0,1,0,4,6.58,6.58,0,0,1-.46.92A3.56,3.56,0,0,1,182,59a1.61,1.61,0,0,1-1.18.58,1.63,1.63,0,0,1-1.19-.58,4.49,4.49,0,0,1-.54-.72,6.19,6.19,0,0,1-.87-3,5.5,5.5,0,0,1,.42-2,6,6,0,0,1,.45-.92,3.74,3.74,0,0,1,.54-.72A1.61,1.61,0,0,1,180.84,51.12Zm0,.15a.78.78,0,0,0-.48.18A1.53,1.53,0,0,0,180,52a3.38,3.38,0,0,0-.28.67,6.56,6.56,0,0,0-.23.84,9.34,9.34,0,0,0-.2,1.89,9.43,9.43,0,0,0,.2,1.9,6.56,6.56,0,0,0,.23.84,3,3,0,0,0,.28.66,1.5,1.5,0,0,0,.42.52.76.76,0,0,0,.48.18.75.75,0,0,0,.46-.18,1.71,1.71,0,0,0,.42-.52,4.49,4.49,0,0,0,.28-.66,6.5,6.5,0,0,0,.22-.84,8.83,8.83,0,0,0,.2-1.9,8.74,8.74,0,0,0-.2-1.89,6.5,6.5,0,0,0-.22-.84,5.24,5.24,0,0,0-.28-.67,1.67,1.67,0,0,0-.41-.51A.8.8,0,0,0,180.84,51.27Z" style="fill:#4D4D4D"></path><path d="M177.89,82.12a7.21,7.21,0,0,1,.74.46,2.88,2.88,0,0,1,.48.44,2.16,2.16,0,0,1,.58,1.52,2.13,2.13,0,0,1-.64,1.59,2.41,2.41,0,0,1-1.76.67,2.66,2.66,0,0,1-1.94-.72,2,2,0,0,1-.63-1.44,1.87,1.87,0,0,1,.69-1.48,6.48,6.48,0,0,1,1.06-.65,3.23,3.23,0,0,1-1.08-.8,2.11,2.11,0,0,1-.48-1.35,1.93,1.93,0,0,1,.54-1.38,2.15,2.15,0,0,1,.75-.5,2.5,2.5,0,0,1,1-.17,2.56,2.56,0,0,1,.87.14,2.26,2.26,0,0,1,.72.39,1.65,1.65,0,0,1,.61,1.31,1.78,1.78,0,0,1-.53,1.28A5,5,0,0,1,177.89,82.12Zm-1.18.51a2.8,2.8,0,0,0-.85,1,2.42,2.42,0,0,0-.28,1.18A2,2,0,0,0,176,86.1a1.58,1.58,0,0,0,1.26.55,1.43,1.43,0,0,0,1.07-.43,1.8,1.8,0,0,0,.34-.57,2,2,0,0,0,.12-.69,2,2,0,0,0-.62-1.45A4.81,4.81,0,0,0,176.71,82.63Zm.9-.62a2,2,0,0,0,.61-.77,2.29,2.29,0,0,0,.2-1A2.06,2.06,0,0,0,178,79a1.25,1.25,0,0,0-1-.5,1.21,1.21,0,0,0-1,.43,1.56,1.56,0,0,0-.38,1.08,1.76,1.76,0,0,0,.74,1.44A5.06,5.06,0,0,0,177.61,82Z" style="fill:#4D4D4D"></path><path d="M190.34,87.8l-3,7.48-.12.31A.87.87,0,0,1,187,96a.44.44,0,0,1-.32.12.57.57,0,0,1-.37-.14.41.41,0,0,1-.15-.32,1.17,1.17,0,0,1,.15-.47l.13-.23,3.23-6.14h-2.64a3.07,3.07,0,0,0-.5,0,.77.77,0,0,0-.31.12,1.14,1.14,0,0,0-.31.31,4.57,4.57,0,0,0-.31.63l0,.07h-.12l.54-2.42h.13c0,.14.07.22.13.25a.86.86,0,0,0,.4.06Z" style="fill:#4D4D4D"></path><path d="M173.31,68.5a3.27,3.27,0,0,1-.79.48,2.11,2.11,0,0,1-1.72-.07,2.47,2.47,0,0,1-1.11-1,2.78,2.78,0,0,1-.4-1.46,3.12,3.12,0,0,1,.21-1.14,2.86,2.86,0,0,1,.6-.93,2.35,2.35,0,0,1,1.74-.74,2.22,2.22,0,0,1,1.92,1,4.05,4.05,0,0,1,.65,2.4,6.51,6.51,0,0,1-.39,2.26,5.21,5.21,0,0,1-1.12,1.82,3.32,3.32,0,0,1-1,.75,2.53,2.53,0,0,1-1.09.25,2.09,2.09,0,0,1-1-.25.74.74,0,0,1-.42-.63.48.48,0,0,1,.12-.33.42.42,0,0,1,.3-.13.59.59,0,0,1,.23,0,.58.58,0,0,1,.18.17,1.8,1.8,0,0,1,.17.38,1,1,0,0,0,.28.42.69.69,0,0,0,.45.13,1.75,1.75,0,0,0,1.42-1A5.91,5.91,0,0,0,173.31,68.5Zm.1-2.12a3.49,3.49,0,0,0-.42-1.83,1.28,1.28,0,0,0-1.1-.71,1.13,1.13,0,0,0-.63.19,1.75,1.75,0,0,0-.51.56,2.87,2.87,0,0,0-.35.9,4.27,4.27,0,0,0-.14,1.05,4,4,0,0,0,.14,1,2.49,2.49,0,0,0,.38.82,1.27,1.27,0,0,0,2,.08,2.62,2.62,0,0,0,.45-.9A4.48,4.48,0,0,0,173.41,66.38Z" style="fill:#4D4D4D"></path><path d="M235.21,67.62c1.21.33,1.81,1,1.81,2a2.4,2.4,0,0,1-1.25,2.11,3.08,3.08,0,0,1-1.59.4,3.3,3.3,0,0,1-1-.16,1.91,1.91,0,0,1-.77-.43,1.51,1.51,0,0,1-.49-1.09,1.21,1.21,0,0,1,.34-.87,1.14,1.14,0,0,1,.85-.36l0,.11a1.37,1.37,0,0,0-.39.47,1.28,1.28,0,0,0-.12.58,1.56,1.56,0,0,0,.3.93,1.45,1.45,0,0,0,.58.49,1.64,1.64,0,0,0,.77.17,1.58,1.58,0,0,0,1.31-.63,2.28,2.28,0,0,0,.37-.73,2.87,2.87,0,0,0,.14-.86,2.74,2.74,0,0,0-.17-.94,1.92,1.92,0,0,0-.44-.73,1,1,0,0,0-.71-.31.45.45,0,0,0-.2,0,1,1,0,0,0-.27.16.93.93,0,0,1-.53.22.44.44,0,0,1-.3-.1.34.34,0,0,1-.12-.26.37.37,0,0,1,.15-.3.6.6,0,0,1,.38-.12l.2,0,.23.06a1,1,0,0,0,.24,0,1.14,1.14,0,0,0,.8-.37,1.87,1.87,0,0,0,.52-1.39,2.45,2.45,0,0,0-.13-.81,2.07,2.07,0,0,0-.37-.67,1.27,1.27,0,0,0-1-.5,1.14,1.14,0,0,0-.83.31,1.08,1.08,0,0,0-.33.82,1.11,1.11,0,0,0,.18.63.87.87,0,0,0,.48.34l0,.1a1.18,1.18,0,0,1-.43.09,1,1,0,0,1-.71-.26.9.9,0,0,1-.27-.68,1.3,1.3,0,0,1,.58-1.06,2.25,2.25,0,0,1,1.4-.44,2.73,2.73,0,0,1,.94.16,2.1,2.1,0,0,1,.78.43,1.83,1.83,0,0,1,.48.63,1.92,1.92,0,0,1,.17.78,1.82,1.82,0,0,1-.67,1.44A3.1,3.1,0,0,1,235.21,67.62Z" style="fill:#4D4D4D"></path><circle cx="323.67" cy="96.58" r="41.42" style="fill:none;stroke:#4D4D4D;stroke-linecap:round;stroke-linejoin:round"></circle><circle cx="323.67" cy="96.58" r="36.86" style="fill:none;stroke:#4D4D4D;stroke-linecap:round;stroke-linejoin:round"></circle><line x1="323.67" y1="96.58" x2="311" y2="89.62" style="fill:none;stroke:#4D4D4D;stroke-linecap:round;stroke-linejoin:round"></line><line x1="323.67" y1="96.58" x2="351.67" y2="104.96" style="fill:none;stroke:#4D4D4D;stroke-linecap:round;stroke-linejoin:round"></line><path d="M326.62,96.58a3,3,0,1,0-2.95,3A3,3,0,0,0,326.62,96.58Z" style="fill:#fff;stroke:#4D4D4D;stroke-miterlimit:10"></path><path d="M321.58,63.71h.13v6.42a3,3,0,0,0,.08.74.86.86,0,0,0,.25.42,1.51,1.51,0,0,0,.89.29v.13h-3.38v-.13a2.83,2.83,0,0,0,.58-.09,1,1,0,0,0,.35-.23.9.9,0,0,0,.21-.4,2.9,2.9,0,0,0,.06-.69V64.58l-.48,0a2.75,2.75,0,0,1-.7-.07v-.11h.14a2.72,2.72,0,0,0,.86-.14,4.19,4.19,0,0,0,.88-.49Z" style="fill:#4D4D4D"></path><path d="M329.17,71.71h-4.56v-.12c.48-.43,1-.9,1.45-1.42a17.8,17.8,0,0,0,1.23-1.49,9.51,9.51,0,0,0,1-1.7,3.35,3.35,0,0,0,.32-1.34,2,2,0,0,0-.54-1.42,1.42,1.42,0,0,0-1.07-.48,1.49,1.49,0,0,0-1.39.92,1.91,1.91,0,0,0-.15.76,1.49,1.49,0,0,0,.46,1.13,1.35,1.35,0,0,0,.44.31,1.2,1.2,0,0,0,.48.11H327l0,.1a1.61,1.61,0,0,1-.74.22,1.25,1.25,0,0,1-.89-.37,1.41,1.41,0,0,1-.37-.55,1.82,1.82,0,0,1-.13-.7,1.87,1.87,0,0,1,.64-1.47,2.49,2.49,0,0,1,1.69-.59,2.68,2.68,0,0,1,1,.19,2.08,2.08,0,0,1,.79.53,2.24,2.24,0,0,1,.44.71,2.51,2.51,0,0,1,.15.86,3.28,3.28,0,0,1-.62,1.8,6.9,6.9,0,0,1-.72.87c-.28.28-.67.64-1.17,1s-1.1.92-1.38,1.18h2.12a3.07,3.07,0,0,0,.75-.07,1,1,0,0,0,.5-.3,1.74,1.74,0,0,0,.36-.68l.13,0Z" style="fill:#4D4D4D"></path><path d="M321.63,123.5a2.63,2.63,0,0,1,.75-.47,2,2,0,0,1,.77-.15,2.11,2.11,0,0,1,.9.21,2.36,2.36,0,0,1,1.07.93,2.63,2.63,0,0,1,.39,1.42,3.1,3.1,0,0,1-.2,1.09,2.73,2.73,0,0,1-.58.9,2.28,2.28,0,0,1-1.69.72,2.16,2.16,0,0,1-1.86-1,3.91,3.91,0,0,1-.62-2.32,6.06,6.06,0,0,1,.38-2.18A5.13,5.13,0,0,1,322,120.9a3.59,3.59,0,0,1,1-.73,2.52,2.52,0,0,1,1.06-.23,1.91,1.91,0,0,1,1,.24.7.7,0,0,1,.41.6.48.48,0,0,1-.11.32.37.37,0,0,1-.29.13.56.56,0,0,1-.23,0,.46.46,0,0,1-.17-.17,1.66,1.66,0,0,1-.17-.37.86.86,0,0,0-.27-.41.66.66,0,0,0-.44-.13,1.71,1.71,0,0,0-1.37,1A5.71,5.71,0,0,0,321.63,123.5Zm-.11,2a3.42,3.42,0,0,0,.41,1.78A1.23,1.23,0,0,0,323,128a1,1,0,0,0,.61-.19,1.54,1.54,0,0,0,.5-.54,3.22,3.22,0,0,0,.34-.87,4.46,4.46,0,0,0,.13-1,3.73,3.73,0,0,0-.14-1,2.16,2.16,0,0,0-.36-.81,1.21,1.21,0,0,0-2-.08,2.34,2.34,0,0,0-.43.88A4.24,4.24,0,0,0,321.52,125.53Z" style="fill:#4D4D4D"></path><path d="M336.6,122.54l1-4.31a6.19,6.19,0,0,0,1.53.2,4.2,4.2,0,0,0,.68,0,2,2,0,0,0,.47-.16,2,2,0,0,1-.15.47,1.15,1.15,0,0,1-.26.33,1.51,1.51,0,0,1-1,.26,6.84,6.84,0,0,1-1.3-.16L337,121.7a2.3,2.3,0,0,1,.56-.33,1.8,1.8,0,0,1,.6-.09,2,2,0,0,1,1.52.65,2.2,2.2,0,0,1,.57,1.47,2.9,2.9,0,0,1-.28,1.23,3,3,0,0,1-1.06,1.28,2.74,2.74,0,0,1-1.55.45,3,3,0,0,1-.91-.14,2.06,2.06,0,0,1-.71-.37,1.37,1.37,0,0,1-.35-.45,1.12,1.12,0,0,1-.13-.53.65.65,0,0,1,.15-.44.5.5,0,0,1,.38-.17.39.39,0,0,1,.31.13.51.51,0,0,1,.12.35,2.2,2.2,0,0,1,0,.23,2.32,2.32,0,0,0,0,.24.94.94,0,0,0,.3.73,1.16,1.16,0,0,0,.8.27,1.59,1.59,0,0,0,1.34-.73,3.34,3.34,0,0,0,.44-1,4.09,4.09,0,0,0,.16-1.15,2.57,2.57,0,0,0-.34-1.42,1.06,1.06,0,0,0-.93-.54,1,1,0,0,0-.7.29,2,2,0,0,0-.48.83Z" style="fill:#4D4D4D"></path><path d="M350.3,114.79h-2.93v-.13l3.64-6h.26v5.91a2.26,2.26,0,0,0,.55,0,.57.57,0,0,0,.29-.2.73.73,0,0,0,.14-.26,1.59,1.59,0,0,0,.06-.38v-.13h.12v2.23h-.12a3.43,3.43,0,0,0-.07-.53.59.59,0,0,0-.15-.27.63.63,0,0,0-.27-.16,2.08,2.08,0,0,0-.43,0h-.13v.6a2,2,0,0,0,.06.53.89.89,0,0,0,.18.35.64.64,0,0,0,.27.2,1.87,1.87,0,0,0,.49.1v.13h-2.95v-.13a1.21,1.21,0,0,0,.77-.24.76.76,0,0,0,.16-.35,2.6,2.6,0,0,0,.05-.63Zm0-.21v-4.31l-2.65,4.31Z" style="fill:#4D4D4D"></path><path d="M340.29,66.1h.14v6.42a3,3,0,0,0,.07.74.91.91,0,0,0,.25.42,1.53,1.53,0,0,0,.89.29v.12h-3.38V74a3,3,0,0,0,.59-.09,1,1,0,0,0,.35-.24.81.81,0,0,0,.2-.39,2.94,2.94,0,0,0,.06-.7V67a3.5,3.5,0,0,1-.48,0,2.66,2.66,0,0,1-.69-.07v-.11h.13a2.47,2.47,0,0,0,.86-.15,4.11,4.11,0,0,0,.88-.48Z" style="fill:#4D4D4D"></path><path d="M305.45,68.09h.14v6.42a3,3,0,0,0,.08.74.78.78,0,0,0,.24.42,1.57,1.57,0,0,0,.9.29v.13h-3.39V76a3,3,0,0,0,.59-.09.92.92,0,0,0,.35-.24.87.87,0,0,0,.21-.39,3.74,3.74,0,0,0,.05-.69V69a3.38,3.38,0,0,1-.47,0,2.7,2.7,0,0,1-.7-.07v-.11h.13a2.43,2.43,0,0,0,.86-.15,3.88,3.88,0,0,0,.88-.48Z" style="fill:#4D4D4D"></path><path d="M311.35,68.09h.14v6.42a3,3,0,0,0,.08.74.78.78,0,0,0,.24.42,1.57,1.57,0,0,0,.9.29v.13h-3.39V76a3,3,0,0,0,.59-.09.92.92,0,0,0,.35-.24.87.87,0,0,0,.21-.39,3.74,3.74,0,0,0,0-.69V69a3.26,3.26,0,0,1-.47,0,2.7,2.7,0,0,1-.7-.07v-.11h.14a2.41,2.41,0,0,0,.85-.15,3.88,3.88,0,0,0,.88-.48Z" style="fill:#4D4D4D"></path><path d="M351.93,85.84h-4.55v-.12a19.15,19.15,0,0,0,1.44-1.42,16.54,16.54,0,0,0,1.24-1.49,9.61,9.61,0,0,0,1-1.7,3.18,3.18,0,0,0,.32-1.33,2,2,0,0,0-.53-1.42,1.49,1.49,0,0,0-2.46.43,2,2,0,0,0-.15.77,1.5,1.5,0,0,0,.45,1.12,1.31,1.31,0,0,0,.44.31,1.2,1.2,0,0,0,.48.11h.14l0,.1a1.67,1.67,0,0,1-.75.23,1.31,1.31,0,0,1-.89-.37,1.62,1.62,0,0,1-.37-.55,2.08,2.08,0,0,1-.12-.71,1.9,1.9,0,0,1,.64-1.47,2.47,2.47,0,0,1,1.68-.58,2.8,2.8,0,0,1,1,.18,2,2,0,0,1,.79.53,2,2,0,0,1,.44.72,2.41,2.41,0,0,1,.15.85,3.21,3.21,0,0,1-.61,1.8,6.9,6.9,0,0,1-.72.87c-.28.29-.67.64-1.17,1.06s-1.1.92-1.38,1.17h2.11a3.3,3.3,0,0,0,.76-.06,1.1,1.1,0,0,0,.5-.3,1.72,1.72,0,0,0,.36-.69l.12,0Z" style="fill:#4D4D4D"></path><path d="M296.89,80.63H297v6.42a3,3,0,0,0,.08.74.78.78,0,0,0,.24.42,1.57,1.57,0,0,0,.9.29v.13h-3.39V88.5a3,3,0,0,0,.59-.09.89.89,0,0,0,.35-.23.9.9,0,0,0,.21-.4,3.74,3.74,0,0,0,.05-.69V81.5l-.47,0a2.7,2.7,0,0,1-.7-.07v-.1H295a2.43,2.43,0,0,0,.86-.15,3.59,3.59,0,0,0,.88-.49Z" style="fill:#4D4D4D"></path><path d="M302.45,80.52a1.58,1.58,0,0,1,1.15.56,3.44,3.44,0,0,1,.52.7,5.65,5.65,0,0,1,.44.89,5,5,0,0,1,0,3.92,5.17,5.17,0,0,1-.44.88,3.44,3.44,0,0,1-.52.7,1.6,1.6,0,0,1-1.15.56,1.63,1.63,0,0,1-1.15-.56,4.38,4.38,0,0,1-.52-.7,5.11,5.11,0,0,1-.43-.88,5.47,5.47,0,0,1-.41-2,5.38,5.38,0,0,1,.41-2,5.59,5.59,0,0,1,.43-.89,4.38,4.38,0,0,1,.52-.7A1.6,1.6,0,0,1,302.45,80.52Zm0,.14a.75.75,0,0,0-.46.18,1.72,1.72,0,0,0-.4.5,3.55,3.55,0,0,0-.27.65c-.09.27-.16.54-.22.8a9,9,0,0,0,0,3.67,8.12,8.12,0,0,0,.22.81,3.41,3.41,0,0,0,.27.64,1.51,1.51,0,0,0,.41.5.75.75,0,0,0,.47.18.72.72,0,0,0,.44-.18,1.6,1.6,0,0,0,.41-.5,4.37,4.37,0,0,0,.26-.64,6.09,6.09,0,0,0,.22-.81,8.52,8.52,0,0,0,0-3.67,6.39,6.39,0,0,0-.22-.8,4.57,4.57,0,0,0-.26-.65,1.72,1.72,0,0,0-.4-.5A.75.75,0,0,0,302.45,80.66Z" style="fill:#4D4D4D"></path><path d="M299.6,110.49a7,7,0,0,1,.72.44,3.11,3.11,0,0,1,.46.42,2.13,2.13,0,0,1,.57,1.48,2.08,2.08,0,0,1-.62,1.53,2.32,2.32,0,0,1-1.7.65,2.6,2.6,0,0,1-1.89-.7,1.87,1.87,0,0,1-.6-1.39,1.79,1.79,0,0,1,.67-1.43,5.82,5.82,0,0,1,1-.62,3.25,3.25,0,0,1-1-.78,2,2,0,0,1-.47-1.3,1.87,1.87,0,0,1,.53-1.34A2,2,0,0,1,298,107a2.55,2.55,0,0,1,.92-.17,2.64,2.64,0,0,1,.84.14,2.24,2.24,0,0,1,.7.38,1.57,1.57,0,0,1,.58,1.26,1.75,1.75,0,0,1-.5,1.24A5.76,5.76,0,0,1,299.6,110.49Zm-1.13.49a2.85,2.85,0,0,0-.83.92,2.34,2.34,0,0,0-.27,1.14,1.92,1.92,0,0,0,.44,1.29,1.48,1.48,0,0,0,1.21.53,1.39,1.39,0,0,0,1-.41,1.43,1.43,0,0,0,.32-.55,1.93,1.93,0,0,0-.48-2.07A4.66,4.66,0,0,0,298.47,111Zm.87-.6a2,2,0,0,0,.58-.74,2.19,2.19,0,0,0,.2-1,2,2,0,0,0-.38-1.24,1.24,1.24,0,0,0-1.91-.08,1.48,1.48,0,0,0-.37,1.05,1.7,1.7,0,0,0,.71,1.39A4.49,4.49,0,0,0,299.34,110.38Z" style="fill:#4D4D4D"></path><path d="M311.64,116l-2.86,7.23-.11.3a.89.89,0,0,1-.23.35.47.47,0,0,1-.31.11.52.52,0,0,1-.35-.13.4.4,0,0,1-.15-.31,1.06,1.06,0,0,1,.15-.45l.12-.23,3.12-5.94h-2.55a3.1,3.1,0,0,0-.49,0,1,1,0,0,0-.3.12,1.33,1.33,0,0,0-.29.29,4,4,0,0,0-.3.62l0,.07h-.12l.53-2.34h.12c0,.13.07.21.13.24a.8.8,0,0,0,.38,0Z" style="fill:#4D4D4D"></path><path d="M295.17,97.32a2.81,2.81,0,0,1-.75.46,2,2,0,0,1-.77.15,2.11,2.11,0,0,1-.9-.21,2.42,2.42,0,0,1-1.07-.93,2.62,2.62,0,0,1-.39-1.41,2.91,2.91,0,0,1,.21-1.1,2.65,2.65,0,0,1,.57-.9,2.27,2.27,0,0,1,1.69-.71,2.15,2.15,0,0,1,1.86,1,3.93,3.93,0,0,1,.63,2.32,6.28,6.28,0,0,1-.38,2.18,5.22,5.22,0,0,1-1.08,1.76,3.31,3.31,0,0,1-1,.73,2.39,2.39,0,0,1-1.06.24,1.91,1.91,0,0,1-1-.24.72.72,0,0,1-.41-.61.45.45,0,0,1,.12-.32.37.37,0,0,1,.29-.12.46.46,0,0,1,.21,0,.47.47,0,0,1,.18.16,1.92,1.92,0,0,1,.17.37.86.86,0,0,0,.27.41.69.69,0,0,0,.43.12,1.67,1.67,0,0,0,1.37-1A5.58,5.58,0,0,0,295.17,97.32Zm.11-2a3.41,3.41,0,0,0-.41-1.77,1.24,1.24,0,0,0-1.06-.68,1.11,1.11,0,0,0-.61.18,1.72,1.72,0,0,0-.49.54,2.92,2.92,0,0,0-.35.87,4.08,4.08,0,0,0-.13,1,3.66,3.66,0,0,0,.14,1,2.58,2.58,0,0,0,.36.8,1.22,1.22,0,0,0,1,.53,1.16,1.16,0,0,0,.93-.46,2.33,2.33,0,0,0,.44-.86A4.25,4.25,0,0,0,295.28,95.27Z" style="fill:#4D4D4D"></path><path d="M355,96.48c1.17.31,1.75,1,1.75,2a2.31,2.31,0,0,1-.22,1,2.28,2.28,0,0,1-1,1,3.3,3.3,0,0,1-2.52.23,1.94,1.94,0,0,1-.75-.42,1.52,1.52,0,0,1-.35-.48,1.46,1.46,0,0,1-.12-.57,1.21,1.21,0,0,1,.33-.85,1.09,1.09,0,0,1,.82-.34l0,.1a1.31,1.31,0,0,0-.38.46,1.19,1.19,0,0,0-.11.56,1.47,1.47,0,0,0,.28.89,1.44,1.44,0,0,0,.56.48,1.72,1.72,0,0,0,.75.17,1.53,1.53,0,0,0,1.27-.62,2.09,2.09,0,0,0,.35-.7,2.68,2.68,0,0,0,.14-.83,2.81,2.81,0,0,0-.16-.91,1.78,1.78,0,0,0-.43-.7,1,1,0,0,0-.68-.31.65.65,0,0,0-.2,0,1.41,1.41,0,0,0-.26.16,1,1,0,0,1-.52.21.39.39,0,0,1-.28-.1.3.3,0,0,1-.12-.25.35.35,0,0,1,.15-.29.52.52,0,0,1,.36-.11.62.62,0,0,1,.2,0l.22.06a.91.91,0,0,0,.23,0,1.06,1.06,0,0,0,.77-.37,1.79,1.79,0,0,0,.51-1.34,2.28,2.28,0,0,0-.13-.78,1.79,1.79,0,0,0-.36-.65,1.25,1.25,0,0,0-1-.48,1.1,1.1,0,0,0-.8.3,1.05,1.05,0,0,0-.32.79,1.09,1.09,0,0,0,.17.61.83.83,0,0,0,.46.32l0,.11a1.25,1.25,0,0,1-.42.08.94.94,0,0,1-.68-.25.9.9,0,0,1-.26-.66,1.26,1.26,0,0,1,.56-1,2.17,2.17,0,0,1,1.35-.42,2.86,2.86,0,0,1,.92.15,2.46,2.46,0,0,1,.75.41,1.86,1.86,0,0,1,.46.62,1.71,1.71,0,0,1,.16.75,1.73,1.73,0,0,1-.64,1.39A3.79,3.79,0,0,1,355,96.48Z" style="fill:#4D4D4D"></path><circle cx="431.02" cy="183.7" r="49.35" transform="translate(-3.65 358.58) rotate(-45)" style="fill:none;stroke:#4D4D4D;stroke-linecap:round;stroke-linejoin:round"></circle><circle cx="431.02" cy="183.7" r="43.92" style="fill:none;stroke:#4D4D4D;stroke-linecap:round;stroke-linejoin:round"></circle><line x1="431.02" y1="184.7" x2="438.33" y2="170.29" style="fill:none;stroke:#4D4D4D;stroke-linecap:round;stroke-linejoin:round"></line><line x1="431.02" y1="184.7" x2="403" y2="204.29" style="fill:none;stroke:#4D4D4D;stroke-linecap:round;stroke-linejoin:round"></line><path d="M434.55,184.7a3.53,3.53,0,1,0-3.53,3.53A3.52,3.52,0,0,0,434.55,184.7Z" style="fill:#fff;stroke:#4D4D4D;stroke-miterlimit:10"></path><path d="M427.4,143.67h.16v7.89a3.61,3.61,0,0,0,.1.9,1,1,0,0,0,.3.52,1.9,1.9,0,0,0,1.1.36v.15H424.9v-.15a2.65,2.65,0,0,0,.72-.12,1,1,0,0,0,.43-.28,1.07,1.07,0,0,0,.26-.48,4.31,4.31,0,0,0,.07-.86v-6.87a5.22,5.22,0,0,1-.59,0,3.35,3.35,0,0,1-.85-.08v-.13h.16a3,3,0,0,0,1-.18,5.23,5.23,0,0,0,1.09-.6Z" style="fill:#4D4D4D"></path><path d="M436.72,153.49h-5.59v-.14a24.2,24.2,0,0,0,1.77-1.75,20.38,20.38,0,0,0,1.52-1.83,11.69,11.69,0,0,0,1.29-2.09,4,4,0,0,0,.39-1.64,2.47,2.47,0,0,0-.66-1.74,1.8,1.8,0,0,0-2.49-.17,1.7,1.7,0,0,0-.53.7,2.27,2.27,0,0,0-.19.95,1.88,1.88,0,0,0,.56,1.38,1.83,1.83,0,0,0,.54.38,1.61,1.61,0,0,0,.59.13h.18l0,.12a2,2,0,0,1-.92.28,1.53,1.53,0,0,1-1.09-.46,1.65,1.65,0,0,1-.45-.67,2.45,2.45,0,0,1,.63-2.67,3,3,0,0,1,2.07-.72,3.39,3.39,0,0,1,1.25.22,2.55,2.55,0,0,1,1,.65,2.49,2.49,0,0,1,.54.88,2.91,2.91,0,0,1,.19,1.05,3.93,3.93,0,0,1-.76,2.21,7.66,7.66,0,0,1-.88,1.07c-.35.36-.83.79-1.44,1.3-.79.65-1.35,1.13-1.7,1.44h2.6a3.41,3.41,0,0,0,.93-.08,1.22,1.22,0,0,0,.61-.36,2.06,2.06,0,0,0,.44-.85l.16,0Z" style="fill:#4D4D4D"></path><path d="M427.46,217.13a3.65,3.65,0,0,1,.93-.57,2.46,2.46,0,0,1,.94-.18,2.63,2.63,0,0,1,1.11.25,3,3,0,0,1,1.31,1.15,3.2,3.2,0,0,1,.48,1.74,3.58,3.58,0,0,1-.25,1.34,3.4,3.4,0,0,1-.71,1.11,2.77,2.77,0,0,1-2.07.88,2.66,2.66,0,0,1-2.29-1.21,4.87,4.87,0,0,1-.77-2.85,7.63,7.63,0,0,1,.47-2.68,6.36,6.36,0,0,1,1.32-2.17,4.21,4.21,0,0,1,1.18-.89,3,3,0,0,1,1.3-.29,2.39,2.39,0,0,1,1.25.3.85.85,0,0,1,.5.74.56.56,0,0,1-.14.39.5.5,0,0,1-.36.16.6.6,0,0,1-.49-.27,2.63,2.63,0,0,1-.2-.45,1.06,1.06,0,0,0-.34-.51.8.8,0,0,0-.53-.16,2.07,2.07,0,0,0-1.69,1.21A7,7,0,0,0,427.46,217.13Zm-.13,2.51a4.11,4.11,0,0,0,.51,2.18,1.49,1.49,0,0,0,1.3.85,1.34,1.34,0,0,0,.74-.23,2,2,0,0,0,.61-.66,3.62,3.62,0,0,0,.42-1.07,5.08,5.08,0,0,0,.16-1.27,4.69,4.69,0,0,0-.16-1.24,3.25,3.25,0,0,0-.44-1,1.52,1.52,0,0,0-1.27-.66,1.45,1.45,0,0,0-1.15.57,2.82,2.82,0,0,0-.53,1.07A5.47,5.47,0,0,0,427.33,219.64Z" style="fill:#4D4D4D"></path><path d="M445.85,216l1.3-5.3a7.67,7.67,0,0,0,1.88.25,5.92,5.92,0,0,0,.83,0,2.34,2.34,0,0,0,.58-.2,2.67,2.67,0,0,1-.18.58,1.38,1.38,0,0,1-.33.4,1.74,1.74,0,0,1-1.17.33,9.13,9.13,0,0,1-1.61-.2l-.79,3.16a2.94,2.94,0,0,1,.69-.41,2.31,2.31,0,0,1,.74-.11,2.43,2.43,0,0,1,1.86.8,2.61,2.61,0,0,1,.53.84,2.68,2.68,0,0,1,.18,1,3.66,3.66,0,0,1-.35,1.52,3.62,3.62,0,0,1-1.3,1.57,3.42,3.42,0,0,1-1.91.55,3.8,3.8,0,0,1-1.12-.17,2.56,2.56,0,0,1-.87-.46,1.75,1.75,0,0,1-.43-.55,1.49,1.49,0,0,1-.16-.65.81.81,0,0,1,.19-.54.59.59,0,0,1,.47-.21.5.5,0,0,1,.38.17.6.6,0,0,1,.15.42c0,.07,0,.16,0,.29s0,.2,0,.29a1.13,1.13,0,0,0,.37.89,1.37,1.37,0,0,0,1,.34,2,2,0,0,0,1.66-.9,4.23,4.23,0,0,0,.54-1.17,5.16,5.16,0,0,0,.2-1.41,3.21,3.21,0,0,0-.43-1.75,1.28,1.28,0,0,0-1.14-.65,1.16,1.16,0,0,0-.85.35,2.38,2.38,0,0,0-.6,1Z" style="fill:#4D4D4D"></path><path d="M462.7,206.44h-3.61v-.16l4.48-7.36h.31v7.26a2.64,2.64,0,0,0,.68-.06.68.68,0,0,0,.36-.25,1,1,0,0,0,.17-.32,2.14,2.14,0,0,0,.08-.47v-.16h.15v2.74h-.15a3.39,3.39,0,0,0-.08-.64.75.75,0,0,0-.19-.34.7.7,0,0,0-.32-.19,1.89,1.89,0,0,0-.54-.05h-.16v.73a2.35,2.35,0,0,0,.08.65,1,1,0,0,0,.22.43.77.77,0,0,0,.33.25,3.07,3.07,0,0,0,.61.13v.15h-3.63v-.15a1.55,1.55,0,0,0,.94-.3.86.86,0,0,0,.2-.43,3.09,3.09,0,0,0,.07-.77Zm0-.26v-5.29l-3.26,5.29Z" style="fill:#4D4D4D"></path><path d="M450.39,146.6h.17v7.9a3.24,3.24,0,0,0,.1.9,1,1,0,0,0,.29.52,2,2,0,0,0,1.11.36v.15h-4.17v-.15a3.76,3.76,0,0,0,.73-.12,1.18,1.18,0,0,0,.43-.28,1.09,1.09,0,0,0,.25-.49,3.57,3.57,0,0,0,.07-.85v-6.87a5.07,5.07,0,0,1-.58,0,3.38,3.38,0,0,1-.86-.09v-.13h.17a3,3,0,0,0,1-.18,4.9,4.9,0,0,0,1.08-.59Z" style="fill:#4D4D4D"></path><path d="M407.58,149.05h.17v7.89a3.19,3.19,0,0,0,.1.9.91.91,0,0,0,.3.52,1.88,1.88,0,0,0,1.1.36v.16h-4.16v-.16a3.21,3.21,0,0,0,.72-.11,1.09,1.09,0,0,0,.43-.29,1,1,0,0,0,.25-.48,3.66,3.66,0,0,0,.07-.86v-6.87a5.63,5.63,0,0,1-.58,0,3.38,3.38,0,0,1-.86-.09v-.13h.17a3,3,0,0,0,1-.18,5.27,5.27,0,0,0,1.09-.6Z" style="fill:#4D4D4D"></path><path d="M414.83,149.05H415v7.89a3.19,3.19,0,0,0,.1.9.91.91,0,0,0,.3.52,1.9,1.9,0,0,0,1.1.36v.16h-4.16v-.16a3.21,3.21,0,0,0,.72-.11,1.09,1.09,0,0,0,.43-.29,1.12,1.12,0,0,0,.26-.48,4.48,4.48,0,0,0,.06-.86v-6.87a5.63,5.63,0,0,1-.58,0,3.38,3.38,0,0,1-.86-.09v-.13h.17a3,3,0,0,0,1-.18,5.27,5.27,0,0,0,1.09-.6Z" style="fill:#4D4D4D"></path><path d="M464.7,170.86h-5.6v-.14c.59-.53,1.18-1.11,1.78-1.75s1.09-1.25,1.52-1.83a11.91,11.91,0,0,0,1.28-2.09,4,4,0,0,0,.39-1.64,2.45,2.45,0,0,0-.66-1.74,1.73,1.73,0,0,0-1.32-.59,1.83,1.83,0,0,0-1.17.41,1.9,1.9,0,0,0-.53.71,2.43,2.43,0,0,0-.19.94,1.88,1.88,0,0,0,.56,1.39,2,2,0,0,0,.55.37,1.38,1.38,0,0,0,.59.14h.17l0,.12a2.08,2.08,0,0,1-.91.28,1.6,1.6,0,0,1-1.1-.46,2,2,0,0,1-.45-.67,2.28,2.28,0,0,1-.16-.87,2.35,2.35,0,0,1,.79-1.81,3,3,0,0,1,2.07-.72,3.48,3.48,0,0,1,1.26.23,2.63,2.63,0,0,1,1,.65,2.71,2.71,0,0,1,.54.88,3.13,3.13,0,0,1,.18,1.05,4,4,0,0,1-.75,2.21,7.76,7.76,0,0,1-.89,1.07,18,18,0,0,1-1.44,1.3c-.79.65-1.35,1.13-1.69,1.44h2.6a4,4,0,0,0,.93-.08,1.28,1.28,0,0,0,.61-.37,2.07,2.07,0,0,0,.44-.84l.16,0Z" style="fill:#4D4D4D"></path><path d="M397.07,164.46h.16v7.89a3.19,3.19,0,0,0,.1.9,1,1,0,0,0,.3.53,2.06,2.06,0,0,0,1.1.36v.15h-4.16v-.15a3.77,3.77,0,0,0,.72-.12,1.12,1.12,0,0,0,.69-.77,4.48,4.48,0,0,0,.06-.86v-6.87a5.41,5.41,0,0,1-.58,0,3.43,3.43,0,0,1-.86-.09v-.13h.17a3,3,0,0,0,1.05-.18,4.63,4.63,0,0,0,1.09-.6Z" style="fill:#4D4D4D"></path><path d="M403.9,164.33a2,2,0,0,1,1.41.68,4.27,4.27,0,0,1,.64.87,7.77,7.77,0,0,1,.54,1.08,6.17,6.17,0,0,1,0,4.82,7.37,7.37,0,0,1-.54,1.09,4.37,4.37,0,0,1-.64.85,1.92,1.92,0,0,1-1.41.7,2,2,0,0,1-1.42-.7,4.81,4.81,0,0,1-.63-.85,5.82,5.82,0,0,1-.54-1.09,6.06,6.06,0,0,1,0-4.82,6.05,6.05,0,0,1,.54-1.08,4.67,4.67,0,0,1,.63-.87A2,2,0,0,1,403.9,164.33Zm0,.17a.89.89,0,0,0-.57.22,2.05,2.05,0,0,0-.49.61,4.63,4.63,0,0,0-.33.8,9.1,9.1,0,0,0-.27,1,11.12,11.12,0,0,0,0,4.5,8.68,8.68,0,0,0,.27,1,4.48,4.48,0,0,0,.33.79,1.84,1.84,0,0,0,.5.61.9.9,0,0,0,.58.22.92.92,0,0,0,.54-.22,1.93,1.93,0,0,0,.5-.61,6.79,6.79,0,0,0,.33-.79,8.68,8.68,0,0,0,.27-1,11.61,11.61,0,0,0,.23-2.25,11.45,11.45,0,0,0-.23-2.25,9.1,9.1,0,0,0-.27-1,7.06,7.06,0,0,0-.33-.8,2.05,2.05,0,0,0-.49-.61A.91.91,0,0,0,403.9,164.5Z" style="fill:#4D4D4D"></path><path d="M400.4,201.15q.56.32.87.54a3.64,3.64,0,0,1,.58.52,2.63,2.63,0,0,1,.69,1.82,2.56,2.56,0,0,1-.76,1.88,2.83,2.83,0,0,1-2.09.79,3.18,3.18,0,0,1-2.31-.85,2.29,2.29,0,0,1-.75-1.71,2.23,2.23,0,0,1,.83-1.76,7.55,7.55,0,0,1,1.25-.77,3.75,3.75,0,0,1-1.28-1,2.49,2.49,0,0,1-.57-1.6,2.29,2.29,0,0,1,.64-1.64,2.57,2.57,0,0,1,.89-.59,3.17,3.17,0,0,1,2.16,0,2.64,2.64,0,0,1,.86.47,1.93,1.93,0,0,1,.72,1.55,2.14,2.14,0,0,1-.62,1.52A6.3,6.3,0,0,1,400.4,201.15Zm-1.4.6a3.43,3.43,0,0,0-1,1.13,2.94,2.94,0,0,0-.34,1.41,2.35,2.35,0,0,0,.54,1.58,1.84,1.84,0,0,0,1.49.65A1.64,1.64,0,0,0,401,206a1.8,1.8,0,0,0,.41-.67,2.52,2.52,0,0,0,.14-.82,2.31,2.31,0,0,0-.73-1.72A6,6,0,0,0,399,201.75Zm1.07-.73a2.51,2.51,0,0,0,.72-.91,2.89,2.89,0,0,0,.24-1.2,2.42,2.42,0,0,0-.47-1.52,1.45,1.45,0,0,0-1.2-.6,1.48,1.48,0,0,0-1.15.5,1.88,1.88,0,0,0-.45,1.29,2.09,2.09,0,0,0,.88,1.71A5.83,5.83,0,0,0,400.07,201Z" style="fill:#4D4D4D"></path><path d="M415.18,207.89l-3.5,8.89-.15.37a1.14,1.14,0,0,1-.27.43.58.58,0,0,1-.39.13.6.6,0,0,1-.43-.16.48.48,0,0,1-.18-.38,1.32,1.32,0,0,1,.18-.55l.15-.28,3.84-7.3h-3.14a4.23,4.23,0,0,0-.6,0,1.35,1.35,0,0,0-.37.14,1.41,1.41,0,0,0-.36.37,5.15,5.15,0,0,0-.37.75l0,.09h-.14l.65-2.88h.15a.42.42,0,0,0,.16.3,1.15,1.15,0,0,0,.47.06Z" style="fill:#4D4D4D"></path><path d="M395,185a3.65,3.65,0,0,1-.93.57,2.46,2.46,0,0,1-.94.18,2.64,2.64,0,0,1-1.1-.26,2.93,2.93,0,0,1-1.32-1.14,3.22,3.22,0,0,1-.47-1.74,3.84,3.84,0,0,1,.24-1.35,3.41,3.41,0,0,1,.71-1.1,2.77,2.77,0,0,1,2.07-.88,2.65,2.65,0,0,1,2.29,1.21,4.87,4.87,0,0,1,.77,2.85,7.62,7.62,0,0,1-.46,2.68,6.54,6.54,0,0,1-1.33,2.17,4.07,4.07,0,0,1-1.18.89,3,3,0,0,1-1.3.29,2.39,2.39,0,0,1-1.25-.3.84.84,0,0,1-.49-.74.56.56,0,0,1,.14-.39.44.44,0,0,1,.36-.16.58.58,0,0,1,.26.06.53.53,0,0,1,.22.2,1.93,1.93,0,0,1,.21.45,1.06,1.06,0,0,0,.32.5.89.89,0,0,0,.54.15,2.05,2.05,0,0,0,1.68-1.2A7,7,0,0,0,395,185Zm.13-2.52a4.2,4.2,0,0,0-.5-2.17,1.52,1.52,0,0,0-1.31-.84,1.33,1.33,0,0,0-.74.22,2.06,2.06,0,0,0-.61.66,3.62,3.62,0,0,0-.42,1.07,5.06,5.06,0,0,0-.16,1.26,4.61,4.61,0,0,0,.16,1.23,2.91,2.91,0,0,0,.45,1,1.49,1.49,0,0,0,1.26.66,1.46,1.46,0,0,0,1.15-.56,3.07,3.07,0,0,0,.54-1.07A5.28,5.28,0,0,0,395.08,182.45Z" style="fill:#4D4D4D"></path><path d="M468.48,183.93c1.44.39,2.15,1.2,2.15,2.43a2.89,2.89,0,0,1-.27,1.22,2.85,2.85,0,0,1-1.21,1.29,3.8,3.8,0,0,1-1.9.47,3.7,3.7,0,0,1-1.21-.19,2.48,2.48,0,0,1-.91-.5,1.7,1.7,0,0,1-.43-.6,1.59,1.59,0,0,1-.16-.7,1.47,1.47,0,0,1,.41-1,1.37,1.37,0,0,1,1-.42l0,.13a1.69,1.69,0,0,0-.47.56,1.42,1.42,0,0,0-.14.68,1.9,1.9,0,0,0,.35,1.11,1.76,1.76,0,0,0,.69.58,2,2,0,0,0,.92.21,1.84,1.84,0,0,0,1.55-.76,2.55,2.55,0,0,0,.44-.87,3.21,3.21,0,0,0,.17-1,3.25,3.25,0,0,0-.2-1.11,2.37,2.37,0,0,0-.52-.87,1.24,1.24,0,0,0-.85-.37.69.69,0,0,0-.24.05,1.28,1.28,0,0,0-.31.19,1.14,1.14,0,0,1-.64.26.51.51,0,0,1-.35-.12.4.4,0,0,1-.14-.31.44.44,0,0,1,.17-.35.67.67,0,0,1,.45-.14l.25,0,.27.08a1.33,1.33,0,0,0,.28,0,1.37,1.37,0,0,0,.95-.44,2.22,2.22,0,0,0,.62-1.65,3.11,3.11,0,0,0-.15-1,2.65,2.65,0,0,0-.45-.81,1.53,1.53,0,0,0-1.22-.59,1.37,1.37,0,0,0-1,.38,1.3,1.3,0,0,0-.38,1,1.32,1.32,0,0,0,.21.75.94.94,0,0,0,.56.4l0,.13a1.4,1.4,0,0,1-.51.1,1.13,1.13,0,0,1-.84-.31,1,1,0,0,1-.32-.8,1.56,1.56,0,0,1,.68-1.26,2.67,2.67,0,0,1,1.66-.52,3.56,3.56,0,0,1,1.13.18,3,3,0,0,1,.93.52,2.17,2.17,0,0,1,.56.75,2.25,2.25,0,0,1,.2.93,2.12,2.12,0,0,1-.8,1.7A4.07,4.07,0,0,1,468.48,183.93Z" style="fill:#4D4D4D"></path></g></svg>