<svg xmlns="http://www.w3.org/2000/svg" viewBox="0 0 500 500"><g id="freepik--background-complete--inject-50"><path d="M466,406.18c-1.66-4.43-3.35-8.92-6.14-12.74s-6.86-6.94-11.56-7.52-9.89,2-11.42,6.44c-.67-10.09-2.1-20.43-7.15-29.18s-14.46-15.63-24.55-15c-9.51.58-17.65,7.65-22.18,16s-6.07,18-7.56,27.42c-3.6-4.43-11.21-3-15,1.25s-4.71,10.29-5.51,15.94H469.26Z" style="fill:#ebebeb"></path><path d="M454.91,105.2c-2-5.32-4-10.72-7.38-15.31s-8.25-8.35-13.89-9-11.9,2.35-13.74,7.73c-.81-12.12-2.52-24.55-8.59-35.08s-17.39-18.79-29.51-18c-11.44.7-21.22,9.19-26.66,19.27s-7.31,21.65-9.1,33c-4.33-5.32-13.48-3.65-18,1.51s-5.67,12.37-6.63,19.16L461,109.71Z" style="fill:#f5f5f5"></path><path d="M205.41,121.33c-2.16-5.78-4.37-11.64-8-16.62s-9-9.06-15.09-9.81-12.91,2.55-14.91,8.39c-.88-13.16-2.74-26.66-9.33-38.08s-18.88-20.41-32-19.6c-12.42.76-23,10-28.95,20.92S89.15,90,87.21,102.31c-4.7-5.77-14.64-4-19.55,1.64s-6.15,13.43-7.2,20.81H206.84Z" style="fill:#f5f5f5"></path><path d="M487.36,253.06c-2-5.25-4-10.57-7.28-15.1s-8.14-8.23-13.7-8.91-11.73,2.32-13.55,7.63c-.79-12-2.49-24.22-8.47-34.6s-17.15-18.54-29.11-17.8c-11.28.68-20.93,9.06-26.3,19s-7.2,21.35-9,32.51c-4.28-5.25-13.3-3.6-17.76,1.49s-5.59,12.2-6.54,18.89H489.17Z" style="fill:#f5f5f5"></path><path d="M146.34,404.53c-2-5.25-4-10.57-7.28-15.1s-8.15-8.23-13.71-8.91-11.73,2.32-13.54,7.62c-.8-11.95-2.5-24.22-8.48-34.6S86.18,335,74.22,335.74c-11.27.69-20.93,9.07-26.29,19s-7.21,21.35-9,32.5c-4.27-5.24-13.3-3.59-17.76,1.49s-5.59,12.2-6.54,18.9H167Z" style="fill:#f5f5f5"></path><path d="M115,236.66l6.46,1.57-6.38,1.89a1.28,1.28,0,0,0-.88.92l-1.57,6.47-1.89-6.38a1.26,1.26,0,0,0-.92-.88l-6.46-1.58,6.38-1.88a1.29,1.29,0,0,0,.88-.93l1.57-6.46,1.88,6.38A1.28,1.28,0,0,0,115,236.66Z" style="fill:#e0e0e0"></path><path d="M275.84,117l6.46,1.58-6.38,1.88a1.28,1.28,0,0,0-.88.93l-1.57,6.46-1.89-6.38a1.28,1.28,0,0,0-.92-.88L264.19,119l6.38-1.89a1.26,1.26,0,0,0,.88-.92l1.58-6.47,1.88,6.38A1.26,1.26,0,0,0,275.84,117Z" style="fill:#e0e0e0"></path><path d="M50.06,194.45,56.53,196l-6.38,1.89a1.26,1.26,0,0,0-.88.92l-1.58,6.46-1.88-6.38a1.29,1.29,0,0,0-.93-.88l-6.46-1.57,6.38-1.88a1.28,1.28,0,0,0,.88-.93l1.57-6.46,1.89,6.38A1.28,1.28,0,0,0,50.06,194.45Z" style="fill:#e0e0e0"></path><path d="M192.64,44.66l3.23.79-3.19.94a.66.66,0,0,0-.44.46l-.78,3.23-1-3.19a.66.66,0,0,0-.46-.44l-3.23-.78,3.19-.94a.65.65,0,0,0,.44-.47l.79-3.23.94,3.19A.62.62,0,0,0,192.64,44.66Z" style="fill:#e0e0e0"></path><path d="M94.76,227.66l2.17.53-2.14.63a.45.45,0,0,0-.3.31L94,231.3l-.63-2.14a.43.43,0,0,0-.31-.3l-2.17-.52L93,227.7a.43.43,0,0,0,.3-.31l.52-2.17.64,2.14A.43.43,0,0,0,94.76,227.66Z" style="fill:#e0e0e0"></path><path d="M273.62,169.15c-1.68-4.48-3.39-9-6.21-12.89s-7-7-11.7-7.6-10,2-11.55,6.5c-.69-10.2-2.13-20.66-7.24-29.52s-14.63-15.81-24.83-15.19c-9.62.59-17.86,7.74-22.44,16.22s-6.15,18.21-7.65,27.74c-3.64-4.48-11.35-3.07-15.15,1.27s-4.77,10.4-5.58,16.12h130Z" style="fill:#ebebeb"></path><path d="M115,167.65A22.77,22.77,0,0,0,112.3,162a7.8,7.8,0,0,0-5.11-3.33,4.76,4.76,0,0,0-5.06,2.85c-.3-4.46-.93-9.05-3.17-12.92s-6.4-6.93-10.87-6.65c-4.21.26-7.82,3.38-9.82,7.1s-2.69,8-3.35,12.14c-1.6-2-5-1.35-6.64.55s-2.08,4.56-2.44,7.06h50Z" style="fill:#f5f5f5"></path><path d="M154.34,219.65a19.53,19.53,0,0,0-2.33-4.82,6.66,6.66,0,0,0-4.38-2.85,4.07,4.07,0,0,0-4.33,2.43c-.25-3.82-.79-7.73-2.71-11s-5.47-5.92-9.3-5.69c-3.6.22-6.68,2.9-8.4,6.07s-2.3,6.82-2.86,10.39c-1.37-1.68-4.25-1.15-5.68.48s-1.78,3.89-2.09,6H155Z" style="fill:#f5f5f5"></path><path d="M344.92,470a19.5,19.5,0,0,0-2.32-4.82,6.66,6.66,0,0,0-4.38-2.85,4.07,4.07,0,0,0-4.33,2.43c-.25-3.81-.79-7.73-2.71-11.05s-5.48-5.92-9.3-5.69c-3.6.22-6.68,2.9-8.4,6.08s-2.3,6.82-2.86,10.38c-1.37-1.68-4.25-1.15-5.68.48s-1.78,3.89-2.09,6h42.78Z" style="fill:#f5f5f5"></path><path d="M399.23,429.23a37.56,37.56,0,0,0-4.39-9.11,12.55,12.55,0,0,0-8.26-5.37c-3.36-.41-7.08,1.4-8.17,4.6-.48-7.21-1.5-14.61-5.11-20.87S363,387.31,355.75,387.75c-6.8.42-12.62,5.47-15.86,11.46s-4.34,12.87-5.4,19.6c-2.58-3.16-8-2.17-10.71.9s-3.37,7.35-3.95,11.39h81.76Z" style="fill:#f5f5f5"></path><path d="M450.52,165.54l6.46,1.57L450.6,169a1.28,1.28,0,0,0-.88.93l-1.57,6.46L446.26,170a1.28,1.28,0,0,0-.92-.88l-6.46-1.57,6.38-1.89a1.3,1.3,0,0,0,.88-.92l1.57-6.46,1.88,6.38A1.29,1.29,0,0,0,450.52,165.54Z" style="fill:#e0e0e0"></path><path d="M299.12,414l6.46,1.57-6.38,1.89a1.28,1.28,0,0,0-.88.92l-1.57,6.46-1.89-6.38a1.3,1.3,0,0,0-.92-.88L287.47,416l6.38-1.88a1.27,1.27,0,0,0,.88-.93l1.58-6.46,1.88,6.38A1.29,1.29,0,0,0,299.12,414Z" style="fill:#e0e0e0"></path><path d="M438,449.14l6.46,1.57-6.38,1.89a1.28,1.28,0,0,0-.88.92L435.64,460l-1.89-6.38a1.26,1.26,0,0,0-.92-.88l-6.47-1.58,6.38-1.88a1.26,1.26,0,0,0,.88-.93l1.58-6.46,1.88,6.38A1.28,1.28,0,0,0,438,449.14Z" style="fill:#e0e0e0"></path><path d="M434.17,144.65l3.55.87-3.51,1a.71.71,0,0,0-.48.51l-.87,3.56-1-3.51a.72.72,0,0,0-.51-.49l-3.55-.86,3.5-1a.7.7,0,0,0,.49-.51l.86-3.55,1,3.51A.69.69,0,0,0,434.17,144.65Z" style="fill:#e0e0e0"></path></g><g id="freepik--Stars--inject-50"><path d="M52.67,298.68,59.12,301a1.12,1.12,0,0,1,.23,2l-5.72,3.73a1.14,1.14,0,0,0-.52.92l-.17,6.83a1.13,1.13,0,0,1-1.84.85L45.79,311a1.13,1.13,0,0,0-1-.2l-6.55,1.94a1.13,1.13,0,0,1-1.38-1.49l2.45-6.38a1.14,1.14,0,0,0-.13-1l-3.87-5.63a1.13,1.13,0,0,1,1-1.76l6.82.35a1.16,1.16,0,0,0,1-.44l4.15-5.42a1.13,1.13,0,0,1,2,.39l1.77,6.6A1.14,1.14,0,0,0,52.67,298.68Z" style="fill:#696969"></path><path d="M227.89,70.2l6.33-2.57A1.12,1.12,0,0,1,235.73,69l-1.8,6.59a1.11,1.11,0,0,0,.23,1l4.4,5.23a1.13,1.13,0,0,1-.81,1.85l-6.82.32a1.14,1.14,0,0,0-.91.53l-3.6,5.8a1.12,1.12,0,0,1-2-.19L222,83.73a1.12,1.12,0,0,0-.78-.7l-6.64-1.64a1.12,1.12,0,0,1-.43-2l5.33-4.27a1.11,1.11,0,0,0,.42-1l-.49-6.82a1.12,1.12,0,0,1,1.74-1l5.71,3.75A1.1,1.1,0,0,0,227.89,70.2Z" style="fill:#696969"></path><path d="M449.42,315.63l3.77.36a.62.62,0,0,1,.39,1L451,319.81a.63.63,0,0,0-.15.56l.83,3.69a.62.62,0,0,1-.87.7l-3.44-1.59a.66.66,0,0,0-.58,0l-3.25,1.93a.63.63,0,0,1-.94-.61l.45-3.76a.63.63,0,0,0-.21-.54l-2.84-2.5a.63.63,0,0,1,.29-1.08l3.72-.73a.63.63,0,0,0,.45-.37l1.5-3.47a.62.62,0,0,1,1.12-.06l1.84,3.3A.62.62,0,0,0,449.42,315.63Z" style="fill:#696969"></path><path d="M65.22,247.15l2.2.2a.36.36,0,0,1,.23.61l-1.5,1.63a.37.37,0,0,0-.09.32l.49,2.16a.37.37,0,0,1-.51.41l-2-.93a.37.37,0,0,0-.34,0l-1.9,1.13a.37.37,0,0,1-.55-.36l.26-2.2a.34.34,0,0,0-.12-.31l-1.66-1.46a.37.37,0,0,1,.17-.63l2.17-.43a.4.4,0,0,0,.27-.22l.87-2a.37.37,0,0,1,.66,0L64.93,247A.37.37,0,0,0,65.22,247.15Z" style="fill:#696969"></path><path d="M450.52,41l5.56.14a.92.92,0,0,1,.7,1.49l-3.5,4.34a.91.91,0,0,0-.16.84l1.59,5.33a.92.92,0,0,1-1.21,1.12l-5.2-2a.92.92,0,0,0-.85.1l-4.58,3.16a.92.92,0,0,1-1.44-.8l.28-5.56a.92.92,0,0,0-.36-.78L436.93,45a.91.91,0,0,1,.32-1.61l5.37-1.45a.93.93,0,0,0,.63-.59l1.85-5.25a.92.92,0,0,1,1.63-.19l3,4.66A.92.92,0,0,0,450.52,41Z" style="fill:#696969"></path><path d="M86.16,37.72l3.26.79a.55.55,0,0,1,.21,1L87,41.59a.56.56,0,0,0-.21.47l.26,3.35a.55.55,0,0,1-.85.5l-2.81-1.83a.57.57,0,0,0-.51,0l-3.1,1.28a.56.56,0,0,1-.75-.66l.87-3.24a.57.57,0,0,0-.11-.5l-2.18-2.55a.55.55,0,0,1,.39-.91l3.35-.18a.55.55,0,0,0,.44-.26l1.76-2.86a.55.55,0,0,1,1,.09l1.2,3.13A.54.54,0,0,0,86.16,37.72Z" style="fill:#696969"></path><path d="M333.59,34.1l2.05,1.4a.41.41,0,0,1-.11.73l-2.36.77a.37.37,0,0,0-.26.27l-.71,2.39a.41.41,0,0,1-.72.12l-1.47-2a.41.41,0,0,0-.34-.17l-2.48.07a.42.42,0,0,1-.35-.65l1.46-2a.43.43,0,0,0,.06-.38l-.83-2.34a.41.41,0,0,1,.51-.53l2.36.77a.43.43,0,0,0,.38-.07l2-1.51a.41.41,0,0,1,.66.32v2.49A.43.43,0,0,0,333.59,34.1Z" style="fill:#696969"></path><path d="M203.81,205.43l2,1.41a.41.41,0,0,1-.1.73l-2.36.77a.41.41,0,0,0-.27.27l-.7,2.38a.42.42,0,0,1-.73.13l-1.46-2a.42.42,0,0,0-.34-.17l-2.49.07a.41.41,0,0,1-.34-.65l1.46-2a.4.4,0,0,0,0-.38l-.83-2.34a.41.41,0,0,1,.52-.53l2.36.77a.41.41,0,0,0,.37-.07l2-1.51a.4.4,0,0,1,.65.32v2.49A.38.38,0,0,0,203.81,205.43Z" style="fill:#696969"></path><path d="M278.46,456.68l6.68,1.12a1.12,1.12,0,0,1,.57,1.92l-4.95,4.61a1.1,1.1,0,0,0-.34,1l1,6.7a1.11,1.11,0,0,1-1.64,1.14l-5.92-3.29a1.15,1.15,0,0,0-1,0l-6.06,3a1.11,1.11,0,0,1-1.59-1.21l1.29-6.64a1.12,1.12,0,0,0-.3-1l-4.74-4.83a1.12,1.12,0,0,1,.66-1.89l6.72-.82a1.14,1.14,0,0,0,.86-.59l3.13-6a1.11,1.11,0,0,1,2,0l2.86,6.14A1.11,1.11,0,0,0,278.46,456.68Z" style="fill:#696969"></path><path d="M260.8,467.87a1.62,1.62,0,1,1-1.62-1.62A1.62,1.62,0,0,1,260.8,467.87Z" style="fill:#696969"></path></g><g id="freepik--Character--inject-50"><path d="M241,46.79h-.56a144.86,144.86,0,0,1,92,110.27c2.17,29-13.94,43.88-25.67,54.16a47.42,47.42,0,0,0,23,8.68,144.69,144.69,0,0,1-262.13,39.6A177.06,177.06,0,1,0,241,46.79Z" style="fill:#f5f5f5"></path><path d="M336.74,74.71A177,177,0,0,1,127.31,359.32,177,177,0,1,0,336.74,74.71Z" style="fill:#e0e0e0"></path><path d="M241,46.79l3.54.07,4.36.09c.87,0,1.8.07,2.8.15l3.22.24a178.26,178.26,0,0,1,39.19,7.46,181.34,181.34,0,0,1,26.73,10.9,175.57,175.57,0,0,1,29,18.37,179.52,179.52,0,0,1,28.27,27.5l3.26,4.15,1.65,2.1,1.56,2.19,3.15,4.43c1,1.51,2,3.07,3,4.62,2.06,3.07,3.82,6.38,5.74,9.64.93,1.66,1.75,3.38,2.64,5.08s1.78,3.41,2.55,5.19l2.41,5.34c.78,1.81,1.46,3.66,2.2,5.5.37.93.74,1.85,1.1,2.78s.65,1.9,1,2.85c.65,1.9,1.29,3.81,1.94,5.74s1.12,3.92,1.68,5.9c.27,1,.59,2,.82,3s.47,2,.7,3c.44,2,1,4,1.36,6.11s.74,4.14,1.11,6.23a179.88,179.88,0,0,1,.62,52.66c-.16,1.13-.26,2.27-.47,3.4l-.6,3.39c-.42,2.27-.75,4.56-1.33,6.81s-1,4.54-1.59,6.81-1.28,4.52-1.92,6.79A184.3,184.3,0,0,1,400.08,302a178.28,178.28,0,0,1-35,48.39,177.17,177.17,0,0,1-242.62,5.3,177.6,177.6,0,0,1-55.17-96.13L67,258.29l.73,1.08,3.34,4.95,1.67,2.47,1.81,2.36c1.21,1.57,2.42,3.13,3.62,4.7s2.6,3,3.89,4.46L84,280.53l2.06,2.1,4.13,4.18c1.44,1.33,2.91,2.62,4.36,3.92l2.17,1.95c.73.64,1.52,1.22,2.28,1.83l4.56,3.6c1.54,1.17,3.17,2.23,4.74,3.34,3.11,2.29,6.48,4.16,9.74,6.17a26.6,26.6,0,0,0,2.5,1.4l2.54,1.33,2.53,1.32a27.59,27.59,0,0,0,2.56,1.26c3.49,1.51,6.88,3.21,10.46,4.42l5.3,2,5.38,1.62c3.56,1.18,7.23,1.87,10.84,2.74,1.79.48,3.64.68,5.46,1l5.46.89,5.48.54c1.83.15,3.64.42,5.47.42a144,144,0,0,0,111.74-43.82,145.58,145.58,0,0,0,22.36-30.06,155.4,155.4,0,0,0,7.78-16.24,159.52,159.52,0,0,0,5.55-16.57l.17.25a47.62,47.62,0,0,1-23.05-8.72l-.19-.14.17-.15a114.6,114.6,0,0,0,11.92-11.67,59.72,59.72,0,0,0,8.72-13.29,54.35,54.35,0,0,0,4.47-14.5,69.93,69.93,0,0,0,.53-14.55v0a145.28,145.28,0,0,0-9.6-31.87,137.67,137.67,0,0,0-14.37-25.75c-.66-.94-1.29-1.9-2-2.81S304.9,94.9,304.21,94c-1.38-1.72-2.67-3.48-4.06-5.09-2.87-3.15-5.48-6.32-8.35-9-1.4-1.37-2.75-2.73-4.11-4l-4.14-3.59c-2.63-2.41-5.41-4.37-7.95-6.32l-1.88-1.44c-.63-.47-1.28-.86-1.91-1.29l-3.66-2.43c-2.33-1.63-4.67-2.89-6.81-4.13L258.26,55c-1-.59-2-1-2.91-1.49l-5.1-2.5-1.1-.55L248.07,50l-1.94-.8-3-1.27-2.68-1.12h0l2.69,1.08,3,1.24,2,.79,1.07.44,1.11.54,5.11,2.49c.92.48,1.94.89,2.92,1.48l3.09,1.76c2.14,1.24,4.49,2.49,6.82,4.12l3.68,2.42c.62.43,1.28.83,1.91,1.29l1.89,1.43c2.55,2,5.32,3.91,8,6.32l4.15,3.59c1.36,1.29,2.71,2.65,4.12,4,2.88,2.66,5.5,5.83,8.38,9,1.4,1.61,2.68,3.37,4.07,5.09l2.08,2.64c.67.92,1.3,1.87,1.95,2.81a137.86,137.86,0,0,1,14.43,25.79A145.59,145.59,0,0,1,332.52,157h0a69.92,69.92,0,0,1-.52,14.62,54.68,54.68,0,0,1-4.48,14.6,60.27,60.27,0,0,1-8.76,13.37,115.31,115.31,0,0,1-11.95,11.72v-.3a47.25,47.25,0,0,0,22.87,8.64l.23,0-.06.23a158.7,158.7,0,0,1-5.56,16.61,160.33,160.33,0,0,1-7.78,16.3A146.19,146.19,0,0,1,263,307.46,144.15,144.15,0,0,1,182,327c-1.83,0-3.65-.27-5.48-.43l-5.5-.54-5.48-.89c-1.83-.33-3.68-.53-5.48-1-3.62-.87-7.31-1.56-10.88-2.75l-5.4-1.62-5.31-2c-3.59-1.22-7-2.93-10.5-4.44a27.77,27.77,0,0,1-2.57-1.26l-2.54-1.33-2.55-1.33c-.86-.44-1.7-.89-2.51-1.4-3.28-2-6.65-3.9-9.78-6.2-1.58-1.11-3.2-2.17-4.75-3.34l-4.58-3.62c-.76-.61-1.55-1.19-2.28-1.83l-2.19-2c-1.45-1.31-2.93-2.6-4.37-3.93L85.71,283l-2.07-2.11-2-2.23-3.9-4.48-3.64-4.72-1.82-2.36-1.67-2.48-3.35-5,.46-.19A176.85,176.85,0,0,0,313,385.28a175.71,175.71,0,0,0,51.73-35.23,178,178,0,0,0,34.95-48.25,182.93,182.93,0,0,0,10.52-26.65c.65-2.27,1.29-4.52,1.93-6.77s1.06-4.54,1.58-6.79.91-4.53,1.33-6.79c.2-1.13.4-2.26.61-3.39s.3-2.26.46-3.39a179.09,179.09,0,0,0-.59-52.54q-.56-3.12-1.1-6.21c-.37-2.06-.91-4.07-1.35-6.1-.24-1-.47-2-.7-3s-.55-2-.81-3q-.84-3-1.67-5.89l-1.94-5.73c-.33-.95-.62-1.9-1-2.83s-.73-1.86-1.1-2.78c-.74-1.84-1.42-3.69-2.19-5.49l-2.41-5.33c-.76-1.78-1.66-3.48-2.53-5.19s-1.71-3.41-2.64-5.06c-1.91-3.27-3.66-6.57-5.72-9.63-1-1.55-2-3.11-3-4.62s-2.1-2.95-3.13-4.42L382.71,118l-1.64-2.1c-1.1-1.39-2.18-2.78-3.26-4.15A179.38,179.38,0,0,0,349.63,84.3,175.93,175.93,0,0,0,320.7,65.92a174,174,0,0,0-65.82-18.48l-3.21-.25c-1-.09-1.94-.15-2.8-.16l-4.36-.12Z" style="fill:#263238"></path><path d="M370.62,200.42a9.15,9.15,0,1,0,12.85-1.59A9.15,9.15,0,0,0,370.62,200.42Z" style="fill:#e0e0e0"></path><path d="M369.77,199.88a8.87,8.87,0,0,0,1.34,12.62c4,3.1,9.68,1.93,12.78-2a8.54,8.54,0,0,0-1.57-12.32A8.83,8.83,0,0,0,369.77,199.88Z" style="fill:#ebebeb"></path><path d="M374.55,169.23a4.18,4.18,0,1,0,5.87-.73A4.18,4.18,0,0,0,374.55,169.23Z" style="fill:#e0e0e0"></path><path d="M374.16,169a4.07,4.07,0,0,0,.61,5.77,4.18,4.18,0,0,0,5.84-.94,3.91,3.91,0,0,0-.71-5.63A4.05,4.05,0,0,0,374.16,169Z" style="fill:#ebebeb"></path><circle cx="287.67" cy="327.13" r="11.58" transform="translate(-116.73 489.07) rotate(-70.5)" style="fill:#e0e0e0"></circle><path d="M277.48,319.32a11.2,11.2,0,0,0,1.69,16c5,3.93,12.24,2.45,16.16-2.58a10.81,10.81,0,0,0-2-15.58A11.16,11.16,0,0,0,277.48,319.32Z" style="fill:#ebebeb"></path><path d="M183.09,359.74a27.36,27.36,0,0,1-9.76-1.22c-2-.56-4.27-1.5-4.54-3.29l-.17-1.56a5.1,5.1,0,0,1-.14-6.56,9.65,9.65,0,0,1,6.59-3.22,18.75,18.75,0,0,1,7.46,1,30.65,30.65,0,0,1,7.37,3.43,6.65,6.65,0,0,1,2.92,3,4.65,4.65,0,0,1-1.06,4.31C189.85,358.07,186.44,359.44,183.09,359.74Z" style="fill:#e0e0e0"></path><path d="M181.17,360.2a27.58,27.58,0,0,1-9.76-1.21,7.27,7.27,0,0,1-4.54-3.3l-1.16-2.15c-.61-2.29-.7-4,.85-6a9.6,9.6,0,0,1,6.59-3.21,18.56,18.56,0,0,1,7.46,1,31.24,31.24,0,0,1,7.37,3.43,5.61,5.61,0,0,1,2.58,2.9c.5,1.41-.36,2.68-1.38,4A11.58,11.58,0,0,1,181.17,360.2Z" style="fill:#ebebeb"></path><path d="M303.15,332.63a3.28,3.28,0,0,1,1.24-1.78,4.37,4.37,0,0,1,3-.36,3.19,3.19,0,0,1,2.09,1.66,4.54,4.54,0,0,1,.74,3.44,3.72,3.72,0,0,1-2.2,2.68,3.78,3.78,0,0,1-4.17-1.23A4.79,4.79,0,0,1,303.15,332.63Z" style="fill:#e0e0e0"></path><path d="M302.47,332.66a3,3,0,0,1,1.15-1.64,4,4,0,0,1,2.75-.33,3,3,0,0,1,1.92,1.53,4.19,4.19,0,0,1,.68,3.16,3.41,3.41,0,0,1-2,2.47,3.49,3.49,0,0,1-3.84-1.14A4.4,4.4,0,0,1,302.47,332.66Z" style="fill:#ebebeb"></path><path d="M275.85,383.72a13.31,13.31,0,0,1-7.9-11,12.61,12.61,0,0,1,6.41-11.8,12,12,0,0,1,13.25,1.5,11.42,11.42,0,0,1,2.77,13" style="fill:#e0e0e0"></path><path d="M348.57,336.94a31.63,31.63,0,0,1,36-42.81" style="fill:#e0e0e0"></path><circle cx="256.16" cy="366.26" r="3.79" style="fill:#e0e0e0"></circle><path d="M345.1,194.8a5.66,5.66,0,0,1-.52-1.17,32.94,32.94,0,0,1-1.1-3.3,48.07,48.07,0,0,1-.86-22.78c.31-1.43.61-2.59.86-3.37a6.09,6.09,0,0,1,.43-1.2,6.08,6.08,0,0,1-.24,1.25c-.19.8-.43,2-.68,3.39a53.45,53.45,0,0,0,.84,22.61c.36,1.42.69,2.55.94,3.33A6.55,6.55,0,0,1,345.1,194.8Z" style="fill:#263238"></path><path d="M371.39,182.67c.22.26-1,1.81-3.47,3.91a55.39,55.39,0,0,1-22.18,11.24c-3.13.72-5.13.81-5.2.48-.18-.75,7.32-2.84,15.76-7.16S370.89,182.09,371.39,182.67Z" style="fill:#263238"></path><path d="M362,157.86c-.46.61-4.58-2-10.28-3.13s-10.49-.5-10.67-1.24c-.08-.33,1.07-1,3.11-1.41a21,21,0,0,1,15.55,3.26C361.38,156.55,362.17,157.59,362,157.86Z" style="fill:#263238"></path><path d="M313,283.68c.06.13-.22.39-.6.64s-.72.4-.82.29.13-.45.54-.72S312.91,283.55,313,283.68Z" style="fill:#ff9a6c"></path><path d="M306.43,281.25a22,22,0,0,1,14,2.11,9.94,9.94,0,0,1,2.53,2,4.11,4.11,0,0,1,1,3.39c-.68,1.7-1.44,1.83-3.24,1.53,0,1.9-1.8,3.66-4.65,2.72-.68,2.86-3,2.82-4.92,2.59a18.82,18.82,0,0,1-5.55-2,10.91,10.91,0,0,0-5.69-1.29,11.32,11.32,0,0,1,1.84,2.77,3.74,3.74,0,0,1,0,3.22c-1,1.78-3.63,1.94-5.36.88s-2.74-2.94-3.71-4.73-2-3.64-3.82-4.61Z" style="fill:#ffbf9d"></path><path d="M306.43,281.25l-.31.19-.92.48-3.51,1.79L289,290v-.38a10.1,10.1,0,0,1,3.68,4.24c.93,1.68,1.82,3.55,3.44,4.78a4.47,4.47,0,0,0,2.81.92,3,3,0,0,0,2.58-1.31,3.43,3.43,0,0,0,.1-3,10.91,10.91,0,0,0-1.84-2.78l-.3-.36.46-.06a7.69,7.69,0,0,1,2.81.2c2.7.67,4.93,2.25,7.37,2.86a8.83,8.83,0,0,0,3.64.18,2.69,2.69,0,0,0,1.43-.85,3.67,3.67,0,0,0,.71-1.52l.07-.26.25.08a3.7,3.7,0,0,0,3-.12,2.71,2.71,0,0,0,1.37-2.36V290l.27,0c.91.15,1.89.29,2.42-.35a3.44,3.44,0,0,0,.61-1.09,2.54,2.54,0,0,0,0-1.19c-.29-1.68-1.67-2.74-2.9-3.59a21,21,0,0,0-7.48-2.57,22.16,22.16,0,0,0-5.14-.2c-1.19.1-1.82.24-1.83.2l.45-.12c.31-.07.77-.15,1.36-.22a20.77,20.77,0,0,1,5.2.07,21.08,21.08,0,0,1,7.64,2.51A10.83,10.83,0,0,1,323,285a4.53,4.53,0,0,1,1.23,2.3,3,3,0,0,1,0,1.42,4.05,4.05,0,0,1-.69,1.25,2,2,0,0,1-1.37.63,7.67,7.67,0,0,1-1.45-.12l.27-.23a3.21,3.21,0,0,1-1.6,2.78,4.2,4.2,0,0,1-3.35.17l.31-.18a4.29,4.29,0,0,1-.81,1.73,3.19,3.19,0,0,1-1.69,1,6.42,6.42,0,0,1-1.95.11,10.7,10.7,0,0,1-1.93-.28c-2.57-.64-4.8-2.23-7.37-2.85a7.37,7.37,0,0,0-2.62-.2l.17-.42a10.92,10.92,0,0,1,1.92,2.93,3.93,3.93,0,0,1-.15,3.46,3.51,3.51,0,0,1-3,1.55,4.89,4.89,0,0,1-3.11-1c-1.74-1.35-2.63-3.28-3.56-4.95a9.61,9.61,0,0,0-3.47-4.08l-.36-.2.37-.18,12.82-6.17,3.56-1.68.94-.42A1.42,1.42,0,0,1,306.43,281.25Z" style="fill:#ff9a6c"></path><path d="M307,287.81a10.82,10.82,0,0,1,9.11,5.33,24.23,24.23,0,0,0-4.13-3.4A23.72,23.72,0,0,0,307,287.81Z" style="fill:#ff9a6c"></path><path d="M311.89,284.22a12.84,12.84,0,0,1,5.49,2.24,9.73,9.73,0,0,1,3.07,2.91A2.77,2.77,0,0,1,321,291c-.08,0-.25-.62-.87-1.46a11.48,11.48,0,0,0-3.06-2.67A50.29,50.29,0,0,0,311.89,284.22Z" style="fill:#ff9a6c"></path><path d="M253.43,251.17c.83-11.38,12.52-32.74,18.39-38.58,5.31-5.28,18.07-16.37,34.28-14.25s30.22,14.9,33.73,22.14c.2.42,22.51,15.93-7.57,43.77L316.41,281c-10.15,10.3-37.12,15.42-50.15,5.41l-.46-6.12C259.33,273.65,252.74,260.55,253.43,251.17Z" style="fill:#ffbf9d"></path><path d="M266.31,224.58c-.23-.35-9.5-13.56-17.46-.52s7.39,17.24,7.64,16.88S266.31,224.58,266.31,224.58Z" style="fill:#ffbf9d"></path><path d="M255.63,233c0-.06-.24,0-.61,0a2,2,0,0,1-1.3-.76c-.8-1-.67-3.19.36-5a6.58,6.58,0,0,1,2-2.16,2.29,2.29,0,0,1,2.09-.53,1,1,0,0,1,.72,1.09c0,.35-.22.51-.18.56s.31,0,.48-.49a1.24,1.24,0,0,0,0-.85,1.49,1.49,0,0,0-.79-.83,2.82,2.82,0,0,0-2.72.43,6.94,6.94,0,0,0-2.27,2.38c-1.14,2-1.26,4.49-.09,5.77a2.16,2.16,0,0,0,1.73.69C255.47,233.24,255.65,233.06,255.63,233Z" style="fill:#ff9a6c"></path><path d="M304.85,261c.58-.13,1.61,2.83,4.57,4.84s6.13,2,6.2,2.6c.05.26-.74.67-2.15.72a9.08,9.08,0,0,1-5.27-1.64,8.7,8.7,0,0,1-3.33-4.3C304.43,261.89,304.57,261,304.85,261Z" style="fill:#263238"></path><path d="M279.7,238.5c.6,0,.82,3.16,3.16,5.87s5.39,3.54,5.31,4.12c0,.27-.88.46-2.26.13a9.13,9.13,0,0,1-4.67-3,8.79,8.79,0,0,1-2.1-5C279.07,239.27,279.42,238.48,279.7,238.5Z" style="fill:#263238"></path><path d="M297.53,257.77c.13.14-.83,1.34-2.37,3l.11-.46c.08.31.59.6,1,1.27a3,3,0,0,1,.3,2.26,3.24,3.24,0,0,1-2.32,2.3,3.63,3.63,0,0,1-2.61-.24c-1.34-.68-1.69-1.58-1.6-1.64s.7.56,1.88,1a3.16,3.16,0,0,0,2,0,2.36,2.36,0,0,0,1.6-1.64,2.13,2.13,0,0,0-.16-1.5c-.18-.4-.78-.75-1-1.5l-.08-.27.2-.18C296.19,258.59,297.39,257.63,297.53,257.77Z" style="fill:#263238"></path><g style="opacity:0.30000000000000004"><path d="M269,215.87s-4.86,6.56-5.53,10.18a8.69,8.69,0,0,0,0,3.66,4.2,4.2,0,0,0,2.12,2.87,4.3,4.3,0,0,0,3.73-.19,10.61,10.61,0,0,0,3-2.45c2.63-2.88,6-6.93,8-9C280.21,220.92,271.77,216.56,269,215.87Z"></path></g><path d="M283.62,262.45c.19-.2,1.43.65,2.42,2.16s1.3,3,1,3.07-1-1.1-1.91-2.49S283.42,262.67,283.62,262.45Z" style="fill:#263238"></path><g style="opacity:0.30000000000000004"><path d="M306.52,245.27c1.47-4.89,4.82-9,8.1-12.87l19.16,20.29a8.24,8.24,0,0,1-15.88,3.71q.21,3.18.41,6.36a1,1,0,0,1-.16.77c-.26.28-.72.18-1.08,0a9.57,9.57,0,0,1-5.71-9.14,13,13,0,0,0-1.32,4.81C306,256.15,305.05,250.17,306.52,245.27Z"></path></g><path d="M313.09,194.35c13.75,1.6,26.36,8.47,32.18,21,6.51,14.06,5.75,34.33-9.85,48.11-11.82-18.16-37.58-35.43-69.11-46.36C280.4,194.55,299.33,192.75,313.09,194.35Z" style="fill:#696969"></path><path d="M302.82,267.45a6.24,6.24,0,1,0,.2,0" style="fill:#ffa488"></path><path d="M305.37,288.78a43.9,43.9,0,0,0,4.42-2.53,64.29,64.29,0,0,0,9.24-8.1c3.37-3.45,6.28-6.71,8.45-9,1.08-1.15,2-2.08,2.6-2.7a6.67,6.67,0,0,1,1-.94,7.26,7.26,0,0,1-.87,1.07c-.65.75-1.47,1.69-2.47,2.82-2.09,2.37-5,5.67-8.35,9.13a56.28,56.28,0,0,1-9.41,8.05,21.86,21.86,0,0,1-3.32,1.78A6.15,6.15,0,0,1,305.37,288.78Z" style="fill:#ff9a6c"></path><path d="M271,243.66a6.56,6.56,0,1,0,.2,0" style="fill:#ffa488"></path><path d="M305.89,190c-11.44-.54-27.45,2.83-37.78,7.92,14.09,2.44,33.88,5.7,48,8.14L339,209.15C336.88,199.21,317.32,190.5,305.89,190Z" style="fill:#696969"></path><path d="M264.62,191.58A5.93,5.93,0,1,1,266,203.3a3.36,3.36,0,0,1-2.89-1.25l-.81,2A3.35,3.35,0,0,1,261,201l-1.22.9a7.55,7.55,0,0,1,.14-6.07,8.1,8.1,0,0,1,4.67-4.23" style="fill:#fafafa"></path><path d="M264.62,191.58a8.51,8.51,0,0,0-2.87,1.95,8.23,8.23,0,0,0-2,3.35,7.43,7.43,0,0,0,.28,4.91l-.36-.1,1.21-.91.48-.35-.09.59a3.13,3.13,0,0,0,1.15,2.84L262,204l.81-2,.18-.46.27.41a2.49,2.49,0,0,0,1.15.87,5.06,5.06,0,0,0,4-.35,5.71,5.71,0,0,0,2.66-2.7,5.87,5.87,0,0,0-.88-6.18,6.11,6.11,0,0,0-3.91-2,11.41,11.41,0,0,0-1.67,0s.14-.07.42-.13a5.26,5.26,0,0,1,1.26-.09,6.15,6.15,0,0,1,4.17,1.95,6.09,6.09,0,0,1-1.82,9.58,5.52,5.52,0,0,1-4.41.37,2.84,2.84,0,0,1-1.37-1.06l.45,0-.82,2-.13.31-.26-.21a3.62,3.62,0,0,1-1.33-3.31l.39.23-1.22.89-.25.18-.11-.28a7.76,7.76,0,0,1-.22-5.2,8.25,8.25,0,0,1,2.17-3.44,7.26,7.26,0,0,1,2.18-1.49,4.42,4.42,0,0,1,.66-.23C264.53,191.58,264.61,191.56,264.62,191.58Z" style="fill:#263238"></path><path d="M316.86,198.73a7,7,0,0,1-1.45-.36c-.46-.13-1-.29-1.69-.44s-1.41-.37-2.25-.51a46.81,46.81,0,0,0-6-.8,51.52,51.52,0,0,0-7.33,0,52.7,52.7,0,0,0-7.25,1.2,48.85,48.85,0,0,0-5.72,1.81c-.8.29-1.5.62-2.13.88s-1.15.52-1.58.73a8.85,8.85,0,0,1-1.37.61,7.65,7.65,0,0,1,1.27-.79c.42-.24.94-.52,1.56-.81s1.31-.65,2.12-1a42.57,42.57,0,0,1,5.74-1.93,47.44,47.44,0,0,1,7.31-1.26,48.37,48.37,0,0,1,7.42,0,42.47,42.47,0,0,1,6,.92c.84.17,1.59.41,2.25.59a16,16,0,0,1,1.67.53A9.59,9.59,0,0,1,316.86,198.73Z" style="fill:#263238"></path><path d="M264.09,217.6c5.64,3.75,12.75,5.55,18.85,8.51,6.26,3,12.36,6.41,18.31,10,11.14,6.76,25.76,15.65,30.9,28.27,2.2,5.4,10.11,2.07,7.37-3.1-6.77-12.82-20.41-22.44-32.33-30.14a125.73,125.73,0,0,0-20.06-10.54c-6.78-2.83-14.64-6.51-22.11-6.46a1.86,1.86,0,0,0-.93,3.44Z" style="fill:#696969"></path><path d="M340.09,262.26a.93.93,0,0,1-.1-.21c-.07-.17-.14-.38-.24-.63-.21-.56-.53-1.37-1-2.38a37.78,37.78,0,0,0-5.17-7.93,44.16,44.16,0,0,0-4.56-4.7c-1.77-1.54-3.77-3.11-5.81-4.8a128,128,0,0,0-13.92-10.2c-5.35-3-10.59-5.6-15.43-7.79s-9.31-3.91-13.1-5.25-6.89-2.34-9-3l-2.47-.78-.64-.22-.21-.09s.08,0,.23,0l.65.17,2.5.69c2.16.62,5.28,1.56,9.09,2.87s8.31,3,13.18,5.17S304.15,228,309.53,231a79.62,79.62,0,0,1,7.41,5.08c2.32,1.75,4.49,3.51,6.55,5.2s4,3.27,5.8,4.85a43.47,43.47,0,0,1,4.55,4.79,35.45,35.45,0,0,1,5.07,8.08,21.9,21.9,0,0,1,.94,2.42l.19.65A.76.76,0,0,1,340.09,262.26Z" style="fill:#263238"></path><path d="M346,250.3a4.39,4.39,0,0,1-.65-.57L343.56,248c-.76-.75-1.7-1.66-2.82-2.68s-2.36-2.22-3.81-3.46-3-2.64-4.76-4-3.62-2.89-5.62-4.43c-4-3-8.6-6.17-13.55-9.22s-9.87-5.64-14.39-7.86c-2.28-1.08-4.44-2.12-6.51-3s-4-1.69-5.76-2.39-3.4-1.29-4.82-1.82-2.65-.95-3.67-1.28l-2.32-.79a4.41,4.41,0,0,1-.8-.32,7.16,7.16,0,0,1,.83.22l2.36.7c1,.3,2.27.69,3.7,1.2s3.08,1,4.85,1.75,3.74,1.43,5.8,2.33,4.25,1.89,6.55,2.95c4.55,2.21,9.46,4.83,14.45,7.86S322.8,230,326.84,233c2,1.55,3.9,3,5.61,4.48s3.3,2.81,4.72,4.1,2.67,2.47,3.77,3.52,2,2,2.76,2.75l1.7,1.78A7.4,7.4,0,0,1,346,250.3Z" style="fill:#fff"></path><path d="M347.25,233.56a4,4,0,0,1-.54-.47l-1.49-1.41c-.64-.63-1.42-1.38-2.37-2.21s-2-1.84-3.22-2.84-2.54-2.15-4-3.29-3.08-2.32-4.78-3.56a133.19,133.19,0,0,0-11.58-7.24,130.25,130.25,0,0,0-12.33-5.88c-2-.77-3.8-1.53-5.58-2.12s-3.41-1.16-4.93-1.63-2.91-.85-4.12-1.19-2.27-.61-3.14-.81l-2-.5a3.19,3.19,0,0,1-.68-.21,4.61,4.61,0,0,1,.7.11l2,.4c.87.17,1.94.4,3.16.73s2.63.64,4.15,1.12,3.21.94,5,1.57,3.64,1.33,5.61,2.08a126.11,126.11,0,0,1,12.4,5.87,124.28,124.28,0,0,1,11.61,7.31c1.7,1.25,3.32,2.42,4.77,3.62s2.8,2.29,4,3.34,2.25,2,3.18,2.9,1.7,1.64,2.31,2.28l1.42,1.48A3.68,3.68,0,0,1,347.25,233.56Z" style="fill:#fff"></path><path d="M339,211.18c-.06.07-1.22-1-3.21-2.43a51.45,51.45,0,0,0-17.32-8.39c-2.39-.65-3.91-.93-3.89-1a4.17,4.17,0,0,1,1.08.09c.69.09,1.69.28,2.9.56A44.6,44.6,0,0,1,336,208.46c1,.78,1.74,1.45,2.24,1.93A5.7,5.7,0,0,1,339,211.18Z" style="fill:#fff"></path><path d="M284.54,200.16a8.24,8.24,0,0,1-1-7.47c.16,0-.17,1.72.13,3.79S284.68,200.09,284.54,200.16Z" style="fill:#fff"></path><path d="M296.71,196.92a5.32,5.32,0,0,1-1.3-2.87,5.45,5.45,0,0,1,0-3.14c.15,0,.14,1.39.5,3S296.84,196.85,296.71,196.92Z" style="fill:#fff"></path><path d="M310.19,189.93a7.62,7.62,0,0,1-.08,3.52,7.53,7.53,0,0,1-1.21,3.31,29.64,29.64,0,0,1,.7-3.41A27.8,27.8,0,0,1,310.19,189.93Z" style="fill:#fff"></path><path d="M329.07,198.51a43.27,43.27,0,0,0-6.67-.86,41.88,41.88,0,0,0-6.68.71,5.6,5.6,0,0,1,1.88-.68,19.47,19.47,0,0,1,4.81-.56,19.18,19.18,0,0,1,4.79.67A5.83,5.83,0,0,1,329.07,198.51Z" style="fill:#fff"></path><path d="M273.32,286.78s11.85-3.86,18.38-3.37c0,0,6.1-3.37,11.06-2.08,0,0,3,.48,2.71,2.87,0,0,1.68,2.43-1.42,5s-9.38,3.13-12.14,6.26c-2.91,3.31-15,7.55-15,7.55Z" style="fill:#ffbf9d"></path><path d="M273.32,286.78a1.58,1.58,0,0,1,.09.3l.22.86.78,3.26c.66,2.84,1.59,6.86,2.73,11.76l-.26-.15a86.38,86.38,0,0,0,11.37-5,20.71,20.71,0,0,0,2.86-1.92l.62-.6c.22-.22.43-.46.67-.66a10.32,10.32,0,0,1,1.54-1.07,70.14,70.14,0,0,1,7-2.9,9.81,9.81,0,0,0,3.75-2.46,3.79,3.79,0,0,0,.93-1.89,2.93,2.93,0,0,0-.37-2l-.05-.09v-.09a1.92,1.92,0,0,0-.67-1.76,4,4,0,0,0-1.83-.84h0a12.5,12.5,0,0,0-5.81.14,22.64,22.64,0,0,0-5.08,1.89l-.06,0h-.06a33,33,0,0,0-7.64.62c-2.25.4-4.18.85-5.77,1.24s-2.82.73-3.66,1l-1,.26a1.74,1.74,0,0,1-.34.07,2,2,0,0,1,.32-.14l.94-.32c.83-.27,2.06-.64,3.64-1.07s3.51-.92,5.77-1.35a32.74,32.74,0,0,1,7.73-.7l-.12,0a22.8,22.8,0,0,1,5.18-2,12.78,12.78,0,0,1,6-.17h0a4.49,4.49,0,0,1,2.08.95,2.51,2.51,0,0,1,.71,1,2.55,2.55,0,0,1,.13,1.22l0-.17a3.47,3.47,0,0,1,.46,2.33,4.3,4.3,0,0,1-1,2.14,10.3,10.3,0,0,1-4,2.61,69.19,69.19,0,0,0-7,2.87,9.25,9.25,0,0,0-1.46,1c-.22.18-.41.4-.62.6l-.67.65a21,21,0,0,1-2.95,2,84,84,0,0,1-11.48,5l-.22.08,0-.23c-1.07-5-1.94-9-2.56-11.92-.28-1.37-.5-2.45-.67-3.24-.06-.34-.12-.61-.16-.84A1.52,1.52,0,0,1,273.32,286.78Z" style="fill:#ff9a6c"></path><path d="M291.53,288.41a6.31,6.31,0,0,1,1.67-1.53,16.27,16.27,0,0,1,10.39-3,6.2,6.2,0,0,1,2.23.4,20.32,20.32,0,0,0-14.29,4.15Z" style="fill:#ff9a6c"></path><path d="M291.17,286.15c.1-.09.7.59.9,1.64s-.11,1.9-.24,1.86-.09-.82-.28-1.76S291,286.23,291.17,286.15Z" style="fill:#ff9a6c"></path><path d="M147.71,265.17c-5.4,6.71-7.59,17.83-6,26.13s7.56,16.35,14.89,22.33l2.15,4,10.74-.29,7.55-6.83-10.12-16.73-13.64-15.89Z" style="fill:#696969"></path><g style="opacity:0.30000000000000004"><path d="M144.65,284.06c7.4,8,21.62,22.84,29,30.84L158,313c-4.39-2.14-8.95-10.21-11-14.64A28.48,28.48,0,0,1,144.65,284.06Z"></path></g><path d="M249.21,251.67l-6.7-1.42a2.4,2.4,0,0,1-.84-.15c-4-1.61-37.9-14.72-56.21-11-19.48,4-37.69,15.37-41,37.34-3.79,24.88,21.43,37.34,25.17,39a2.1,2.1,0,0,0,.92.21c4.66,0,43.09.19,55-1.69,10.41-1.64,26.16-4.42,31.55-5.38a2.28,2.28,0,0,0,1.88-2.26l-4.3-51.52v0C254.83,253.15,251.79,251.66,249.21,251.67Z" style="fill:#696969"></path><path d="M188.21,272.91s40.91,25.68,39.43,45.09-57.27,15.27-57.27,15.27l-4.14-19.49,5.71-.74" style="fill:#696969"></path><path d="M189.5,273.39a2.86,2.86,0,0,1,.6.28c.39.2,1,.5,1.68.9,1.45.8,3.52,2,6,3.54s5.49,3.45,8.69,5.69a91,91,0,0,1,10,7.95,37.83,37.83,0,0,1,7.7,10.15,34.38,34.38,0,0,1,2.15,5.14,29.53,29.53,0,0,1,1.09,4.74,23,23,0,0,1,0,7,14.19,14.19,0,0,1-.39,1.87,2.69,2.69,0,0,1-.19.64c-.06,0,.18-.9.38-2.54a23.84,23.84,0,0,0-.15-6.93,28.69,28.69,0,0,0-1.13-4.65,35.89,35.89,0,0,0-2.16-5.06,38.29,38.29,0,0,0-7.64-10,94,94,0,0,0-9.86-7.94c-3.18-2.26-6.12-4.18-8.61-5.77s-4.54-2.82-5.95-3.67l-1.63-1A3.75,3.75,0,0,1,189.5,273.39Z" style="fill:#263238"></path><path d="M158.1,308.26a2.77,2.77,0,0,1-.44-.32l-1.22-1a52.55,52.55,0,0,1-4.21-4,29.89,29.89,0,0,1-5-7A36.5,36.5,0,0,1,144.13,286a26.87,26.87,0,0,1-.5-5.44,36.81,36.81,0,0,1,.48-5.07,39.74,39.74,0,0,1,2.43-8.24,29.34,29.34,0,0,1,2.72-5.1c.37-.58.71-1,.93-1.28s.34-.42.36-.41-.41.63-1.12,1.79a34.31,34.31,0,0,0-2.55,5.14,40.55,40.55,0,0,0-2.29,8.18,37.46,37.46,0,0,0-.45,5,26.56,26.56,0,0,0,.5,5.34,36.91,36.91,0,0,0,3,9.93,30.46,30.46,0,0,0,4.86,6.94c1.62,1.8,3.07,3.14,4.06,4.07l1.15,1.06C158,308.11,158.11,308.24,158.1,308.26Z" style="fill:#263238"></path><path d="M248.17,253.12c4.64-1.36,9.83.47,13.25,3.88s5.19,8.2,5.78,13-.29,10.24-.94,15a23.36,23.36,0,0,1,8,.51c2.41,6.88,3.75,11.16,6.16,18a143.37,143.37,0,0,1-41.65,14.29c-3,.53-6.09,1-9,.17-5.41-1.45-9-6.89-9.84-12.43s.65-11.15,2.48-16.43c4-11.53,6.67-17.13,13.94-26.94" style="fill:#696969"></path><path d="M236.31,262.22l-.27.41-.82,1.17c-.72,1-1.79,2.54-3.08,4.54a74.41,74.41,0,0,0-4.28,7.54,98.31,98.31,0,0,0-4.35,10.62c-1.41,4-3,8.43-3.52,13.4a21.55,21.55,0,0,0,.54,7.63,16.31,16.31,0,0,0,3.91,7,11.5,11.5,0,0,0,7.47,3.61,34,34,0,0,0,8.88-.94,144.35,144.35,0,0,0,39.49-13.87l-.12.31c-2.15-6.34-4.21-12.38-6.14-18l.15.14a20,20,0,0,0-4-.59,22,22,0,0,0-3.9.08l-.28,0,0-.28c.46-3.28.92-6.42,1.09-9.42a29.77,29.77,0,0,0-.62-8.45c-1.16-5.22-3.88-9.32-7-11.55a14.21,14.21,0,0,0-8.25-2.82,13.35,13.35,0,0,0-3.11.38s.26-.09.78-.23a10.56,10.56,0,0,1,2.33-.28,14.08,14.08,0,0,1,8.39,2.75c3.19,2.23,6,6.39,7.19,11.67a29.71,29.71,0,0,1,.67,8.55c-.16,3-.61,6.18-1,9.46l-.25-.25a22.9,22.9,0,0,1,4-.09,19.71,19.71,0,0,1,4.1.6l.11,0,0,.12,6.18,18,.07.2-.19.1a143,143,0,0,1-39.64,13.93,33.71,33.71,0,0,1-9,.93,12,12,0,0,1-7.77-3.76,17,17,0,0,1-4-7.23,22.24,22.24,0,0,1-.52-7.79c.51-5,2.17-9.48,3.6-13.49a97.52,97.52,0,0,1,4.44-10.62,70.63,70.63,0,0,1,4.37-7.52c1.32-2,2.42-3.48,3.16-4.49l.87-1.14A3.55,3.55,0,0,1,236.31,262.22Z" style="fill:#263238"></path><path d="M262,260.15a20.37,20.37,0,0,0-3.12-1.66,16.62,16.62,0,0,0-8.38-.74,36.65,36.65,0,0,0-8.16,2.53A28.91,28.91,0,0,1,239,261.6a3.43,3.43,0,0,1,.82-.5c.55-.29,1.35-.69,2.35-1.16a31.42,31.42,0,0,1,8.23-2.7,15.78,15.78,0,0,1,8.6.91,10.38,10.38,0,0,1,2.28,1.33C261.78,259.87,262,260.12,262,260.15Z" style="fill:#fff"></path><path d="M239.09,284.76a4.9,4.9,0,0,1,1.06-.44,14.58,14.58,0,0,1,3.06-.62,17.31,17.31,0,0,1,10,2.05,16.87,16.87,0,0,1,3.3,2.37l-.29,0a30,30,0,0,1,7.09-2.56c.91-.2,1.64-.34,2.14-.42a2.6,2.6,0,0,1,.79-.09,24.4,24.4,0,0,1-2.85.82,33.4,33.4,0,0,0-6.94,2.7l-.15.08-.13-.12A17.4,17.4,0,0,0,253,286.2a18,18,0,0,0-9.74-2.14A31.21,31.21,0,0,0,239.09,284.76Z" style="fill:#263238"></path><path d="M129.78,314.35c1.51-1.31,3.75-1.31,5.71-.89s4.94,1.53,6.94,1.44c2.87-.12,4.29-2.3,6.63-4s5-3.35,7.83-3.17a7.64,7.64,0,0,1,5.26,2.82,19,19,0,0,0,4.08,3.2l4,18.76c-8.32.92-23.29-3.43-31.3-5.88a41.3,41.3,0,0,1-6.67-3,8,8,0,0,1-3.62-4.11A4.87,4.87,0,0,1,129.78,314.35Z" style="fill:#ffbf9d"></path><path d="M138.92,318.61s-.18.15-.6.23a3.39,3.39,0,0,1-1.73-.23,8,8,0,0,1-2.17-1.39,7.94,7.94,0,0,0-2.5-1.58,2.38,2.38,0,0,0-2.59.52,3.31,3.31,0,0,0-.76,2.17c0,1.39.31,2.27.21,2.29s-.12-.2-.25-.58a6.77,6.77,0,0,1-.33-1.7,3.52,3.52,0,0,1,.77-2.5,2.46,2.46,0,0,1,1.4-.82,3.51,3.51,0,0,1,1.7.12,7.93,7.93,0,0,1,2.66,1.71,8.38,8.38,0,0,0,2,1.42A4.18,4.18,0,0,0,138.92,318.61Z" style="fill:#ff9a6c"></path><path d="M170.37,333.27a1.93,1.93,0,0,1-.12-.36c-.07-.29-.17-.65-.28-1.08-.24-1-.56-2.36-1-4l-3.18-14.05-.06-.25.26,0,5.93-1.07-.2.17a19,19,0,0,1,1.32-3.08,19.37,19.37,0,0,1,8.25-7.89,21.41,21.41,0,0,1,9-2.57,20.89,20.89,0,0,1,6.3.57c.72.19,1.27.36,1.64.5a2.17,2.17,0,0,1,.55.24c0,.05-.79-.23-2.24-.54a22.54,22.54,0,0,0-6.22-.41,21.55,21.55,0,0,0-8.8,2.63,19.19,19.19,0,0,0-8,7.71,20.39,20.39,0,0,0-1.29,3l-.05.15-.15,0-5.94,1,.2-.29c1.21,5.66,2.25,10.54,3,14.09.34,1.69.62,3,.82,4.07.08.43.15.79.2,1.09S170.39,333.27,170.37,333.27Z" style="fill:#263238"></path><g style="opacity:0.30000000000000004"><path d="M239.37,281.58a3,3,0,0,1,2-1.84,7.59,7.59,0,0,1,2.77-.24,17.86,17.86,0,0,1,8.13,2.13c2.45,1.42,3.57,3.9,4.12,6.68l-.92-.93c.21.24.7.69.92.93a19.13,19.13,0,0,0-14.27-4.37,3.49,3.49,0,0,1-1.73,0A1.93,1.93,0,0,1,239.37,281.58Z"></path></g><g style="opacity:0.30000000000000004"><path d="M191.2,269.47a37.84,37.84,0,0,1,7.44,3.74,80.13,80.13,0,0,1,12.62,8.7c3.81,3.41,6.9,7.82,7.29,12.34a87.25,87.25,0,0,0-18.13-14.44c-6.32-3.84-12.75-7.15-17.41-10.5A12.64,12.64,0,0,1,191.2,269.47Z"></path></g><g style="opacity:0.30000000000000004"><path d="M198.08,299.88A5.37,5.37,0,0,0,203,301c-.47-2-2.67-3.15-4.69-3.74a22.33,22.33,0,0,0-15.85,1,17.18,17.18,0,0,0-9.55,12.38,23.44,23.44,0,0,1,23.19-11.36"></path></g><path d="M191,332.85a6.43,6.43,0,0,1-.18-1.26c-.08-.82-.22-2-.43-3.43a61.85,61.85,0,0,0-7.28-21.46c-.71-1.27-1.32-2.29-1.75-3a6.08,6.08,0,0,1-.63-1.11,6.44,6.44,0,0,1,.8,1c.48.66,1.14,1.65,1.9,2.91a54.4,54.4,0,0,1,7.33,21.59c.16,1.46.25,2.64.26,3.46A5.8,5.8,0,0,1,191,332.85Z" style="fill:#fff"></path><path d="M206.12,331.71a7.21,7.21,0,0,1-.27-1.3c-.14-.85-.37-2.06-.66-3.56a91.77,91.77,0,0,0-3.11-11.49,88.8,88.8,0,0,0-4.65-11c-.69-1.37-1.26-2.46-1.67-3.21a6.35,6.35,0,0,1-.59-1.2,7.57,7.57,0,0,1,.76,1.1c.47.72,1.09,1.79,1.83,3.14a73,73,0,0,1,4.81,11,74.32,74.32,0,0,1,3,11.59c.25,1.52.42,2.75.5,3.6A6.07,6.07,0,0,1,206.12,331.71Z" style="fill:#fff"></path><path d="M208.68,298.14a5.86,5.86,0,0,1,1,.83,31.34,31.34,0,0,1,2.41,2.52,42,42,0,0,1,3.13,4.13,46.89,46.89,0,0,1,3.09,5.55,45.63,45.63,0,0,1,2.21,5.94,42.09,42.09,0,0,1,1.12,5.06,32.37,32.37,0,0,1,.36,3.47,7,7,0,0,1,0,1.28c-.1,0-.2-1.81-.73-4.69a44.79,44.79,0,0,0-1.21-5,48.83,48.83,0,0,0-2.23-5.87,49.38,49.38,0,0,0-3-5.5,47.34,47.34,0,0,0-3-4.15C209.93,299.46,208.61,298.21,208.68,298.14Z" style="fill:#fff"></path><path d="M201.71,284.12a1.68,1.68,0,0,1-.51.12l-1.48.26c-1.29.21-3.15.52-5.44.95A68.85,68.85,0,0,0,177,290.74a35.51,35.51,0,0,0-13.78,11.46,26,26,0,0,0-2.65,4.81c-.5,1.19-.73,1.88-.77,1.87a1.78,1.78,0,0,1,.11-.52c.11-.32.22-.82.47-1.43a24.61,24.61,0,0,1,2.53-4.94,34.81,34.81,0,0,1,13.86-11.72,65.37,65.37,0,0,1,17.48-5.19c2.31-.38,4.18-.63,5.48-.78l1.5-.16A1.86,1.86,0,0,1,201.71,284.12Z" style="fill:#fff"></path><path d="M188,272.7a1.72,1.72,0,0,1-.5,0l-1.42,0a20.75,20.75,0,0,0-2.24,0c-.87,0-1.86,0-2.95.16l-1.71.17c-.6.06-1.21.19-1.84.29-1.28.17-2.62.51-4,.84a50.76,50.76,0,0,0-8.82,3.25,51.86,51.86,0,0,0-8,4.94c-1.13.91-2.22,1.75-3.14,2.65-.47.44-.95.84-1.37,1.27l-1.18,1.25a27.19,27.19,0,0,0-2,2.23,18.75,18.75,0,0,0-1.38,1.75l-.86,1.14a2.3,2.3,0,0,1-.32.37s.07-.15.24-.43l.77-1.19a18.14,18.14,0,0,1,1.32-1.83c.55-.68,1.13-1.49,1.9-2.29l1.18-1.28c.41-.44.88-.85,1.35-1.31.92-.92,2-1.78,3.15-2.71a49.46,49.46,0,0,1,8.07-5,50.11,50.11,0,0,1,8.93-3.25c1.43-.31,2.78-.65,4.08-.8.64-.09,1.26-.21,1.86-.26l1.73-.14c1.1-.11,2.11-.07,3-.08a18.82,18.82,0,0,1,2.25.08l1.42.13A2,2,0,0,1,188,272.7Z" style="fill:#fff"></path><path d="M266.67,310.4s-.21-.28-.51-.83a23.32,23.32,0,0,1-1.13-2.41A36.85,36.85,0,0,1,262.39,290a24,24,0,0,1,.36-2.63,4.22,4.22,0,0,1,.23-.95c.09,0-.11,1.39-.22,3.61a42.92,42.92,0,0,0,2.61,17C266.14,309.12,266.75,310.36,266.67,310.4Z" style="fill:#fff"></path><path d="M250.56,316.4a5.38,5.38,0,0,1-.57-1.07,30.38,30.38,0,0,1-1.22-3.07,37.15,37.15,0,0,1-1.27-4.75,42.07,42.07,0,0,1-.72-6,44.66,44.66,0,0,1,.22-6,38.87,38.87,0,0,1,.88-4.83,30.28,30.28,0,0,1,1-3.16,5.41,5.41,0,0,1,.48-1.12c.09,0-.49,1.66-1.09,4.36a45.51,45.51,0,0,0-.76,4.8,47.49,47.49,0,0,0-.18,5.95,46.34,46.34,0,0,0,.67,5.9,43.14,43.14,0,0,0,1.15,4.72C249.93,314.79,250.65,316.37,250.56,316.4Z" style="fill:#fff"></path><path d="M241.66,287c0,.09-1.36.3-3.5.94a31.7,31.7,0,0,0-14.51,9.18c-1.49,1.66-2.27,2.81-2.35,2.76a3.58,3.58,0,0,1,.48-.86,21.07,21.07,0,0,1,1.59-2.14,28.64,28.64,0,0,1,14.69-9.3,20.38,20.38,0,0,1,2.62-.52A3.47,3.47,0,0,1,241.66,287Z" style="fill:#fff"></path><path d="M265,276.78c-.05.09-1.77-.91-4.74-2.08a43.46,43.46,0,0,0-5.32-1.72,47.71,47.71,0,0,0-6.74-1.15,49.46,49.46,0,0,0-6.85-.08,43.48,43.48,0,0,0-5.54.74c-3.13.62-5,1.29-5,1.19a8.54,8.54,0,0,1,1.29-.52c.43-.15,1-.33,1.56-.49s1.31-.39,2.1-.55a39.37,39.37,0,0,1,5.59-.84,43.32,43.32,0,0,1,6.92,0,45.23,45.23,0,0,1,6.82,1.21,40.13,40.13,0,0,1,5.34,1.83c.75.3,1.4.64,2,.91s1.06.54,1.45.77A7.92,7.92,0,0,1,265,276.78Z" style="fill:#fff"></path><path d="M216.61,242.19a12.75,12.75,0,0,1,.19,1.75c.09,1.13.16,2.77.17,4.8a85.2,85.2,0,0,1-5.79,31c-.74,1.89-1.39,3.4-1.89,4.41a11.76,11.76,0,0,1-.81,1.57,11.7,11.7,0,0,1,.62-1.65c.44-1,1-2.56,1.74-4.46a94.54,94.54,0,0,0,5.76-30.86c0-2,0-3.66,0-4.79A10.92,10.92,0,0,1,216.61,242.19Z" style="fill:#fff"></path><path d="M192.58,241.35a6,6,0,0,1,.37,1.27c.21.82.46,2,.72,3.5a75,75,0,0,1,.3,23.55c-.23,1.49-.45,2.7-.63,3.52a5.41,5.41,0,0,1-.34,1.27,7.27,7.27,0,0,1,.14-1.3c.12-.84.29-2.05.46-3.54a89,89,0,0,0-.29-23.44c-.22-1.49-.41-2.69-.56-3.52A7.17,7.17,0,0,1,192.58,241.35Z" style="fill:#fff"></path><path d="M235.82,251.67a10.05,10.05,0,0,1-.44,1.71c-.31,1.09-.81,2.66-1.44,4.58-1.27,3.86-3.16,9.15-5.5,14.89s-4.7,10.84-6.5,14.48c-.89,1.82-1.64,3.28-2.18,4.28a11.1,11.1,0,0,1-.88,1.53,12.52,12.52,0,0,1,.7-1.62c.52-1.1,1.2-2.57,2-4.35,1.71-3.68,4-8.79,6.35-14.52s4.28-11,5.63-14.8c.65-1.86,1.19-3.39,1.6-4.54A13,13,0,0,1,235.82,251.67Z" style="fill:#fff"></path><path d="M169.37,245.19s.14,0,.37.06a10.12,10.12,0,0,1,1,.27,17.36,17.36,0,0,1,3.55,1.61,25.29,25.29,0,0,1,8.81,9.23,48.37,48.37,0,0,1,4.61,12c.4,1.59.69,2.88.87,3.78a8.21,8.21,0,0,1,.23,1.41,8.1,8.1,0,0,1-.43-1.36c-.27-1-.61-2.23-1-3.73a53,53,0,0,0-4.7-11.8,26.23,26.23,0,0,0-8.55-9.17A28.07,28.07,0,0,0,169.37,245.19Z" style="fill:#fff"></path><path d="M151.34,260.25a6.85,6.85,0,0,1,1.43-.25,13.89,13.89,0,0,1,1.7-.18c.67,0,1.42-.12,2.26-.1a40,40,0,0,1,5.88.35,45.14,45.14,0,0,1,7,1.59,45.68,45.68,0,0,1,6.66,2.78,39.75,39.75,0,0,1,5,3.12c.69.47,1.27,1,1.78,1.39a15.06,15.06,0,0,1,1.29,1.12,8.81,8.81,0,0,1,1,1,6.44,6.44,0,0,1-1.16-.88c-.35-.3-.79-.66-1.33-1.05s-1.11-.87-1.81-1.31a44.25,44.25,0,0,0-5-3,49.48,49.48,0,0,0-6.6-2.72,48.93,48.93,0,0,0-6.94-1.6,43.59,43.59,0,0,0-5.81-.46c-.83,0-1.58,0-2.24,0s-1.23.05-1.7.09A9.33,9.33,0,0,1,151.34,260.25Z" style="fill:#fff"></path></g><g id="freepik--Clouds--inject-50"><path d="M465.66,280.4a36.84,36.84,0,0,0-4.39-9.11,12.52,12.52,0,0,0-8.26-5.37c-3.35-.41-7.07,1.4-8.17,4.6-.48-7.21-1.5-14.61-5.11-20.87s-10.34-11.17-17.55-10.73c-6.8.41-12.62,5.46-15.85,11.46S402,263.25,400.92,270c-2.58-3.16-8-2.17-10.71.9s-3.37,7.35-3.94,11.39l83,.81Z" style="fill:#fff"></path><path d="M465.66,280.4s.09,0,.24.15l.67.48,2.73,2,.18.12h-.22c-10.63,0-42.66-.25-83-.62H386l0-.28a43,43,0,0,1,1.11-5.83,14.73,14.73,0,0,1,2.69-5.47,9,9,0,0,1,5.39-3.05,7.38,7.38,0,0,1,3.2.16,5.46,5.46,0,0,1,2.71,1.76l-.46.13c.07-.42.14-.87.21-1.32a84.68,84.68,0,0,1,2.56-11.9,31.11,31.11,0,0,1,5.37-10.5,20.84,20.84,0,0,1,9.14-6.67,15.51,15.51,0,0,1,10.75.14,21.31,21.31,0,0,1,8.37,5.9,26.18,26.18,0,0,1,4.89,8.27c2.2,5.81,2.72,11.57,3.07,16.64l-.34,0a7.3,7.3,0,0,1,5-4.41,8.86,8.86,0,0,1,6,.42,13.1,13.1,0,0,1,4.27,3,17.41,17.41,0,0,1,2.6,3.51,35.86,35.86,0,0,1,2.49,5.46l.53,1.46a4.6,4.6,0,0,1,.16.51s-.07-.16-.2-.49l-.58-1.44a38.41,38.41,0,0,0-2.56-5.4,17.76,17.76,0,0,0-2.61-3.44,12.81,12.81,0,0,0-4.21-2.9,8.48,8.48,0,0,0-5.76-.37,7,7,0,0,0-4.73,4.21l-.28.81-.06-.85c-.38-5.07-.92-10.79-3.11-16.52a25.86,25.86,0,0,0-4.83-8.12,21,21,0,0,0-8.2-5.75A15.13,15.13,0,0,0,418.1,240a20.37,20.37,0,0,0-8.9,6.54,30.5,30.5,0,0,0-5.28,10.32,83.86,83.86,0,0,0-2.53,11.83c-.07.45-.15.9-.21,1.32l-.09.58-.37-.46a5.68,5.68,0,0,0-5.42-1.73,8.36,8.36,0,0,0-5.08,2.86,14.19,14.19,0,0,0-2.6,5.28,43.65,43.65,0,0,0-1.1,5.76l-.25-.29c40.34.41,72.37.8,83,1l0,.13-2.7-2.06-.65-.51Z" style="fill:#263238"></path><path d="M378,338.77a26.07,26.07,0,0,0-3.07-6.35,8.78,8.78,0,0,0-5.77-3.76,5.37,5.37,0,0,0-5.7,3.21c-.34-5-1.05-10.19-3.57-14.56s-7.22-7.81-12.25-7.5c-4.75.29-8.81,3.82-11.07,8s-3,9-3.78,13.69c-1.8-2.21-5.6-1.52-7.47.63s-2.36,5.13-2.76,7.95l58,.57Z" style="fill:#fff"></path><path d="M378,338.77l.16.1.48.34,1.91,1.38.17.13h-.21c-7.42,0-29.79-.13-58-.39h-.29l0-.28a31.63,31.63,0,0,1,.78-4.09,10.17,10.17,0,0,1,1.9-3.84,6.26,6.26,0,0,1,3.81-2.16,4.42,4.42,0,0,1,4.19,1.37l-.45.13c0-.29.09-.61.14-.93a60.15,60.15,0,0,1,1.79-8.31,21.6,21.6,0,0,1,3.77-7.36,14.64,14.64,0,0,1,6.41-4.68,11,11,0,0,1,7.56.1,15.06,15.06,0,0,1,5.87,4.14,18.44,18.44,0,0,1,3.42,5.8,40.21,40.21,0,0,1,2.14,11.64l-.35,0a5.17,5.17,0,0,1,3.51-3.11,6.2,6.2,0,0,1,4.19.3,10.49,10.49,0,0,1,4.81,4.56,24.88,24.88,0,0,1,1.73,3.83l.36,1a3.34,3.34,0,0,1,.11.35,1.38,1.38,0,0,1-.16-.33c-.1-.25-.23-.58-.41-1a25.68,25.68,0,0,0-1.8-3.76,10.29,10.29,0,0,0-4.74-4.4,5.86,5.86,0,0,0-4-.25,4.78,4.78,0,0,0-3.26,2.91l-.28.81-.07-.86a39.5,39.5,0,0,0-2.18-11.51,17.93,17.93,0,0,0-3.36-5.65,14.53,14.53,0,0,0-5.7-4,10.45,10.45,0,0,0-7.23-.08,14.17,14.17,0,0,0-6.18,4.54,21.24,21.24,0,0,0-3.67,7.18,59.15,59.15,0,0,0-1.76,8.25c-.05.31-.1.63-.15.92l-.09.58-.37-.46a3.86,3.86,0,0,0-3.71-1.18,5.78,5.78,0,0,0-3.5,2c-1.77,2.16-2.18,5-2.57,7.67l-.24-.29c28.16.29,50.52.58,57.94.75l0,.12-1.89-1.45-.45-.35C378,338.82,378,338.78,378,338.77Z" style="fill:#263238"></path><path d="M431,432.94a26,26,0,0,0-3.07-6.36,8.74,8.74,0,0,0-5.77-3.75,5.36,5.36,0,0,0-5.7,3.21c-.33-5-1.05-10.2-3.57-14.57s-7.22-7.8-12.25-7.49c-4.75.29-8.81,3.81-11.07,8s-3,9-3.77,13.68c-1.8-2.2-5.6-1.51-7.48.63s-2.36,5.14-2.75,8l57.94.56Z" style="fill:#fff"></path><path d="M431,432.94l.16.1.48.33,1.91,1.39.18.12h-.22c-7.42,0-29.78-.13-57.95-.38h-.29l0-.29a31.48,31.48,0,0,1,.78-4.08,10.32,10.32,0,0,1,1.9-3.84,6.29,6.29,0,0,1,3.81-2.16,4.4,4.4,0,0,1,4.2,1.37l-.46.12c0-.29.09-.6.14-.92a60,60,0,0,1,1.79-8.32,21.64,21.64,0,0,1,3.77-7.35,14.56,14.56,0,0,1,6.41-4.68,11,11,0,0,1,7.56.1,15,15,0,0,1,5.87,4.14,18.21,18.21,0,0,1,3.42,5.79A39.67,39.67,0,0,1,416.62,426l-.34,0a5.11,5.11,0,0,1,3.51-3.1,6.17,6.17,0,0,1,4.18.29,10.4,10.4,0,0,1,4.81,4.57,24.86,24.86,0,0,1,1.73,3.82l.36,1a1.69,1.69,0,0,1,.11.36,1.79,1.79,0,0,1-.15-.34c-.11-.25-.24-.58-.41-1a28.57,28.57,0,0,0-1.8-3.77,10.42,10.42,0,0,0-4.75-4.4,6,6,0,0,0-4-.25,4.83,4.83,0,0,0-3.27,2.92l-.28.81-.06-.86a40.17,40.17,0,0,0-2.18-11.51,18,18,0,0,0-3.37-5.65,14.43,14.43,0,0,0-5.7-4,10.42,10.42,0,0,0-7.22-.09,14.2,14.2,0,0,0-6.19,4.54,21.09,21.09,0,0,0-3.66,7.19,57.92,57.92,0,0,0-1.77,8.24l-.15.92-.09.59-.37-.46a3.88,3.88,0,0,0-3.71-1.19,5.74,5.74,0,0,0-3.49,2c-1.77,2.15-2.19,5-2.57,7.66l-.25-.29c28.16.3,50.52.59,57.94.75l0,.13-1.88-1.45-.45-.36Z" style="fill:#263238"></path><path d="M110.17,100.06a26,26,0,0,0-3.06-6.35A8.8,8.8,0,0,0,101.34,90a5.36,5.36,0,0,0-5.7,3.21c-.34-5-1-10.19-3.57-14.56s-7.22-7.8-12.26-7.5c-4.74.29-8.81,3.82-11.07,8s-3,9-3.77,13.68c-1.8-2.21-5.6-1.51-7.48.63s-2.35,5.13-2.75,8l57.94.57Z" style="fill:#fff"></path><path d="M110.17,100.06l.17.11.47.33,1.92,1.38.17.13h-.22c-7.42,0-29.78-.13-57.94-.38h-.29l0-.28a31.12,31.12,0,0,1,.77-4.08,10.29,10.29,0,0,1,1.9-3.85A6.3,6.3,0,0,1,61,91.26a4.4,4.4,0,0,1,4.2,1.36l-.46.13c.05-.29.1-.61.15-.92a57.2,57.2,0,0,1,1.79-8.32,21.61,21.61,0,0,1,3.76-7.35,14.67,14.67,0,0,1,6.42-4.69,10.88,10.88,0,0,1,7.55.11,14.79,14.79,0,0,1,5.87,4.14,18.1,18.1,0,0,1,3.42,5.79,39.61,39.61,0,0,1,2.14,11.64l-.34,0A5.15,5.15,0,0,1,99,90a6.2,6.2,0,0,1,4.19.3A10.49,10.49,0,0,1,108,94.86a26.1,26.1,0,0,1,1.72,3.83c.16.43.28.77.37,1a2.41,2.41,0,0,1,.1.35,1.82,1.82,0,0,1-.15-.33c-.1-.25-.24-.58-.41-1a28.57,28.57,0,0,0-1.8-3.76,10.26,10.26,0,0,0-4.75-4.4,5.89,5.89,0,0,0-4-.25,4.82,4.82,0,0,0-3.27,2.91l-.28.81-.06-.85a39.84,39.84,0,0,0-2.18-11.52A17.88,17.88,0,0,0,89.92,76a14.53,14.53,0,0,0-5.7-4A10.45,10.45,0,0,0,77,71.94a14.17,14.17,0,0,0-6.18,4.54,21.24,21.24,0,0,0-3.67,7.18,58.05,58.05,0,0,0-1.77,8.25c-.05.31-.1.63-.14.92l-.1.58L64.77,93a3.9,3.9,0,0,0-3.72-1.18,5.79,5.79,0,0,0-3.49,2c-1.77,2.16-2.18,5-2.57,7.67l-.25-.29c28.16.29,50.53.58,57.94.75l0,.12-1.88-1.44-.45-.36C110.21,100.11,110.17,100.07,110.17,100.06Z" style="fill:#263238"></path><path d="M394.21,88.27a26.13,26.13,0,0,0-3.07-6.36,8.73,8.73,0,0,0-5.77-3.75,5.34,5.34,0,0,0-5.7,3.21c-.34-5-1.05-10.2-3.57-14.57s-7.22-7.8-12.25-7.49c-4.75.29-8.81,3.81-11.07,8s-3,9-3.78,13.68c-1.8-2.21-5.6-1.51-7.47.63s-2.36,5.13-2.76,7.95l58,.57Z" style="fill:#fff"></path><path d="M394.21,88.27l.16.1.48.33,1.91,1.38.17.13h-.21c-7.42,0-29.79-.13-58-.38h-.29l0-.29a31.17,31.17,0,0,1,.78-4.08,10.1,10.1,0,0,1,1.9-3.84A6.21,6.21,0,0,1,345,79.46a4.39,4.39,0,0,1,4.19,1.37l-.45.12c0-.29.09-.61.14-.92a60,60,0,0,1,1.79-8.32,21.55,21.55,0,0,1,3.77-7.35,14.66,14.66,0,0,1,6.41-4.69,10.91,10.91,0,0,1,7.56.11,15,15,0,0,1,5.87,4.14,18.28,18.28,0,0,1,3.42,5.79,40.27,40.27,0,0,1,2.14,11.64l-.35,0A5.17,5.17,0,0,1,383,78.2a6.26,6.26,0,0,1,4.19.3A10.49,10.49,0,0,1,392,83.06a25.32,25.32,0,0,1,1.73,3.83l.36,1a3,3,0,0,1,.11.36,2.17,2.17,0,0,1-.16-.34c-.1-.25-.23-.58-.41-1a26.19,26.19,0,0,0-1.8-3.77,10.29,10.29,0,0,0-4.74-4.4,5.92,5.92,0,0,0-4-.25,4.8,4.8,0,0,0-3.26,2.91l-.28.82-.07-.86a39.62,39.62,0,0,0-2.18-11.52A17.88,17.88,0,0,0,374,64.22a14.56,14.56,0,0,0-5.7-4,10.5,10.5,0,0,0-7.23-.08,14.17,14.17,0,0,0-6.18,4.54,21.29,21.29,0,0,0-3.67,7.19,59,59,0,0,0-1.76,8.24c-.05.32-.1.63-.15.92l-.09.58-.37-.45A3.89,3.89,0,0,0,345.09,80a5.8,5.8,0,0,0-3.5,2c-1.77,2.15-2.18,5-2.57,7.66l-.24-.29c28.16.3,50.52.59,57.94.75l0,.13-1.89-1.45-.45-.36Z" style="fill:#263238"></path><path d="M234.08,429.31c-2.86-7.65-5.79-15.41-10.61-22s-11.86-12-20-13-17.1,3.39-19.74,11.12c-1.16-17.42-3.63-35.3-12.35-50.43s-25-27-42.43-25.94c-16.43,1-30.5,13.21-38.32,27.7s-10.5,31.11-13.07,47.37c-6.22-7.64-19.38-5.24-25.88,2.17s-8.15,17.78-9.53,27.55H240.34Z" style="fill:#fff"></path><path d="M234.08,429.31s.5.34,1.53,1.08l4.76,3.41.15.1h-.18l-198.16.2h-.29l0-.29a108.39,108.39,0,0,1,2.66-14A35.09,35.09,0,0,1,51,406.72a21.11,21.11,0,0,1,12.8-7.26,17.26,17.26,0,0,1,7.56.36A12.73,12.73,0,0,1,77.8,404l-.46.12c.3-1.88.62-3.91,1-5.95,1.59-9.62,3.38-19.15,6.44-28.18a86.68,86.68,0,0,1,5.55-13,61.37,61.37,0,0,1,7.88-11.47c6-6.92,13.61-12.46,22.11-15.06a37,37,0,0,1,13-1.58,39.43,39.43,0,0,1,12.41,2.82A51.43,51.43,0,0,1,165.23,346a64.06,64.06,0,0,1,11.42,19.74A93.56,93.56,0,0,1,179.86,376c.83,3.44,1.5,6.83,2,10.17,1.06,6.68,1.63,13.11,2,19.21l-.35-.05a15.7,15.7,0,0,1,4.82-6.82,19.54,19.54,0,0,1,7-3.69,20.07,20.07,0,0,1,7.45-.75,22.94,22.94,0,0,1,6.81,1.71A31.55,31.55,0,0,1,220,403a42.7,42.7,0,0,1,6.31,8.43,90.39,90.39,0,0,1,6.07,13.18l1.32,3.52.42,1.2s-.16-.39-.47-1.18l-1.36-3.51a92.69,92.69,0,0,0-6.15-13.11,42.2,42.2,0,0,0-6.31-8.36,31.15,31.15,0,0,0-10.21-7.07,20.8,20.8,0,0,0-14.06-.91,19,19,0,0,0-6.89,3.64,15.2,15.2,0,0,0-4.7,6.68l-.29.8-.06-.85c-.42-6.09-1-12.51-2.07-19.17-.54-3.32-1.21-6.71-2-10.13a94.87,94.87,0,0,0-3.2-10.28,63.78,63.78,0,0,0-11.37-19.59,51,51,0,0,0-19.43-14.17,39,39,0,0,0-12.26-2.78,36.65,36.65,0,0,0-12.78,1.57c-8.39,2.57-15.9,8.06-21.87,14.93a61.15,61.15,0,0,0-7.82,11.37,87.8,87.8,0,0,0-5.51,12.94c-3,9-4.83,18.48-6.42,28.1-.32,2-.65,4.07-1,5.94l-.09.58-.37-.45a12.21,12.21,0,0,0-6.13-4,16.85,16.85,0,0,0-7.34-.35,20.62,20.62,0,0,0-12.49,7.08,34.66,34.66,0,0,0-6.34,12.88,106.1,106.1,0,0,0-2.66,13.95l-.25-.29,198.16.2,0,.1-4.73-3.46C234.55,429.68,234.08,429.31,234.08,429.31Z" style="fill:#263238"></path><path d="M191,459.4a37.27,37.27,0,0,0-4.38-9.1c-2-2.73-4.91-5-8.27-5.38s-7.07,1.4-8.16,4.6c-.49-7.21-1.51-14.6-5.12-20.86s-10.34-11.18-17.55-10.73c-6.8.41-12.62,5.46-15.85,11.46s-4.35,12.87-5.41,19.6c-2.58-3.17-8-2.17-10.71.89s-3.37,7.36-3.94,11.4h81.75Z" style="fill:#f5f5f5"></path><path d="M228.14,183.78c-1.42-3.79-2.87-7.63-5.25-10.9s-5.88-5.94-9.9-6.43-8.47,1.68-9.77,5.5c-.58-8.62-1.8-17.48-6.12-25s-12.38-13.38-21-12.85c-8.14.5-15.11,6.54-19,13.72s-5.21,15.41-6.48,23.46c-3.08-3.78-9.6-2.59-12.82,1.08s-4,8.8-4.72,13.64l97.6,1.13Z" style="fill:#fff"></path><path d="M228.14,183.78s.22.26.64.81l2,2.53.08.1h-.13c-11.34,0-49.28-.4-97.6-.94h-.29l0-.29a55.66,55.66,0,0,1,1.32-7,17.62,17.62,0,0,1,3.22-6.52,10.6,10.6,0,0,1,6.42-3.64,8.72,8.72,0,0,1,3.8.18,6.41,6.41,0,0,1,3.23,2.1l-.45.12c.15-1,.31-2,.48-3a88,88,0,0,1,3.2-14,35.08,35.08,0,0,1,6.69-12.15,24.25,24.25,0,0,1,11-7.47,18.77,18.77,0,0,1,12.63.64,25.61,25.61,0,0,1,9.74,7.13,32,32,0,0,1,5.66,9.8,52.13,52.13,0,0,1,2.59,10.18c.53,3.31.8,6.49,1,9.51l-.34,0a8.72,8.72,0,0,1,5.92-5.26,10.53,10.53,0,0,1,7.11.49,15.71,15.71,0,0,1,5.11,3.57,21.52,21.52,0,0,1,3.12,4.19,43.39,43.39,0,0,1,3,6.54l.64,1.75c.14.4.2.6.2.6s-.09-.19-.25-.58-.38-1-.68-1.73a47.12,47.12,0,0,0-3.06-6.48,21.08,21.08,0,0,0-3.13-4.12,15.37,15.37,0,0,0-5-3.48,10.24,10.24,0,0,0-6.92-.44,8.4,8.4,0,0,0-5.68,5.06l-.28.83L203,172c-.21-3-.5-6.19-1-9.48a51.76,51.76,0,0,0-2.61-10.09,31.45,31.45,0,0,0-5.61-9.66,25.22,25.22,0,0,0-9.56-7,18.31,18.31,0,0,0-12.32-.61,23.73,23.73,0,0,0-10.77,7.33,34.66,34.66,0,0,0-6.59,12,87.42,87.42,0,0,0-3.18,13.89c-.16,1-.33,2.05-.48,3l-.09.58-.37-.45a5.91,5.91,0,0,0-3-1.93,8.32,8.32,0,0,0-3.58-.17,10.14,10.14,0,0,0-6.11,3.46,17,17,0,0,0-3.11,6.33,53.61,53.61,0,0,0-1.32,6.89l-.24-.28c48.32.58,86.26,1.09,97.59,1.32l-.05.1-1.91-2.58C228.32,184.06,228.14,183.78,228.14,183.78Z" style="fill:#263238"></path></g></svg>