<svg xmlns="http://www.w3.org/2000/svg" viewBox="0 0 500 500"><g id="freepik--background-complete--inject-21"><path d="M405,154.05H326s3.93-5.12,8.26-5.75c0,0,8.42-25.09,22.53-25.26,13.11-.17,18.37,15.42,18.37,15.42s6.07-7,11.88-3.8S396.14,147,396.14,147,402.67,150.53,405,154.05Z" style="fill:#ebebeb"></path><path d="M43.71,132.43h99.94s0-6.38-13.77-7.63c0,0-12.57-27.91-31.76-24.16-12,2.33-18.06,18.74-18.06,18.74S71,106.47,63.81,109s-11.52,16.24-11.52,16.24S44.84,128.82,43.71,132.43Z" style="fill:#ebebeb"></path><path d="M117.92,65.33h68s-6.41-6-9.26-6-11.17-20-21.8-19.19S138.55,56,138.55,56,125.63,51.9,117.92,65.33Z" style="fill:#ebebeb"></path><path d="M237,119.07h58.11s-2.89-3.76-6.08-4.23c0,0-6.19-18.45-16.56-18.58C262.84,96.14,259,107.6,259,107.6s-4.47-5.14-8.74-2.79-6.68,9.08-6.68,9.08S238.76,116.48,237,119.07Z" style="fill:#ebebeb"></path><path d="M398.18,72.7h58.11s-2.89-3.76-6.08-4.23c0,0-6.19-18.44-16.56-18.58-9.65-.12-13.51,11.35-13.51,11.35s-4.47-5.14-8.74-2.79-6.68,9.08-6.68,9.08S399.92,70.12,398.18,72.7Z" style="fill:#ebebeb"></path><path d="M93.88,258.85s24.63,54.87-15.68,54.87S64,257,64,257s-9.33-4.11,1.5-34.71,15.66-30.61,20.15-30.61c5.69,0,11,13.25,7.1,33.59C92.76,225.25,106.94,250.63,93.88,258.85Z" style="fill:#ebebeb"></path><polygon points="74.62 350.11 78.51 267.45 82.39 350.11 74.62 350.11" style="fill:#a6a6a6"></polygon><polygon points="76.93 302.11 91.58 284.99 80.09 304.37 76.93 302.11" style="fill:#a6a6a6"></polygon><path d="M219.74,272.65s-20.91,46.57,13.3,46.57,12-48.15,12-48.15,7.92-3.49-1.26-29.47-13.3-26-17.11-26c-4.82,0-9.31,11.24-6,28.51C220.69,244.14,208.65,265.68,219.74,272.65Z" style="fill:#ebebeb"></path><polygon points="236.08 350.11 232.78 279.95 229.48 350.11 236.08 350.11" style="fill:#a6a6a6"></polygon><polygon points="234.12 309.37 221.69 294.84 231.44 311.29 234.12 309.37" style="fill:#a6a6a6"></polygon><path d="M189.77,267s-11.19-4.45-20.08,11c-9.11,15.85,2.31,26.3,11.37,20.08,0,0,7.11,14.92,21.32,11.37s16.53-14.92,16.53-14.92,12.61.88,13-8.53S223,268.24,223,268.24s-.54-23.45-15.82-23.28S189.77,267,189.77,267Z" style="fill:#dbdbdb"></path><polygon points="200.16 350.11 203.36 280.32 206.56 350.11 200.16 350.11" style="fill:#a6a6a6"></polygon><polygon points="201.99 305.71 192.6 286.97 204.73 304.06 201.99 305.71" style="fill:#a6a6a6"></polygon></g><g id="freepik--Bench--inject-21"><rect x="261.25" y="214.37" width="7.81" height="69.09" style="fill:#a6a6a6"></rect><rect x="402.69" y="214.37" width="7.81" height="69.09" style="fill:#a6a6a6"></rect><rect x="240.83" y="220.66" width="190.09" height="10.21" style="fill:#4D4D4D"></rect><rect x="240.83" y="220.66" width="190.09" height="10.21" style="opacity:0.2"></rect><rect x="240.83" y="236.4" width="190.09" height="10.21" style="fill:#4D4D4D"></rect><rect x="240.83" y="236.4" width="190.09" height="10.21" style="opacity:0.2"></rect><rect x="240.83" y="252.13" width="190.09" height="10.21" style="fill:#4D4D4D"></rect><rect x="240.83" y="252.13" width="190.09" height="10.21" style="opacity:0.2"></rect><rect x="240.83" y="267.87" width="190.09" height="10.21" style="fill:#4D4D4D"></rect><rect x="240.83" y="267.87" width="190.09" height="10.21" style="opacity:0.2"></rect><rect x="224.1" y="283.46" width="226.27" height="15.21" style="fill:#4D4D4D"></rect><rect x="224.1" y="283.46" width="226.27" height="15.21" style="opacity:0.2"></rect><rect x="236.78" y="298.67" width="7.81" height="51.43" style="fill:#a6a6a6"></rect><rect x="429.88" y="298.67" width="7.81" height="51.43" style="fill:#a6a6a6"></rect><g style="opacity:0.2"><circle cx="265.16" cy="225.76" r="0.96"></circle><circle cx="265.16" cy="241.5" r="0.96"></circle><circle cx="265.16" cy="257.24" r="0.96"></circle><circle cx="265.16" cy="272.97" r="0.96"></circle><circle cx="406.59" cy="225.76" r="0.96"></circle><circle cx="406.59" cy="241.5" r="0.96"></circle><circle cx="406.59" cy="257.24" r="0.96"></circle><circle cx="406.59" cy="272.97" r="0.96"></circle></g></g><g id="freepik--fire-hydrant--inject-21"><rect x="50.43" y="292.26" width="31.14" height="57.85" style="fill:#4D4D4D"></rect><rect x="48.36" y="289.98" width="35.28" height="2.28" style="fill:#4D4D4D"></rect><rect x="48.36" y="286.23" width="35.28" height="2.28" style="fill:#4D4D4D"></rect><rect x="50.43" y="288.51" width="31.14" height="1.47" style="fill:#4D4D4D"></rect><rect x="50.43" y="288.51" width="31.14" height="1.47" style="opacity:0.1"></rect><path d="M81.55,286.23H50.46a15.57,15.57,0,0,1,31.09,0Z" style="fill:#4D4D4D"></path><path d="M81.55,286.23H50.46a12.53,12.53,0,0,1,.23-1.94l30.15-2A15.27,15.27,0,0,1,81.55,286.23Z" style="opacity:0.1"></path><polygon points="81.58 292.26 81.58 295.68 50.44 297.14 50.44 292.26 81.58 292.26" style="opacity:0.1"></polygon><rect x="53.9" y="299.97" width="2.68" height="46.58" style="opacity:0.1"></rect><rect x="59.28" y="299.97" width="2.68" height="46.58" style="opacity:0.1"></rect><rect x="64.67" y="299.97" width="2.68" height="46.58" style="opacity:0.1"></rect><rect x="70.05" y="299.97" width="2.68" height="46.58" style="opacity:0.1"></rect><rect x="75.43" y="299.97" width="2.68" height="46.58" style="opacity:0.1"></rect><rect x="44.93" y="303.25" width="5.5" height="14.28" style="fill:#4D4D4D"></rect><rect x="42.83" y="304.47" width="2.1" height="12.23" style="fill:#4D4D4D"></rect><rect x="42.83" y="304.47" width="2.1" height="12.23" style="opacity:0.1"></rect><path d="M42.83,307v6.81a3.41,3.41,0,0,1,0-6.81Z" style="fill:#4D4D4D"></path><polygon points="50.44 303.25 50.44 317.54 49.16 317.54 46.9 303.25 50.44 303.25" style="opacity:0.1"></polygon><rect x="81.58" y="303.25" width="5.5" height="14.28" transform="translate(168.66 620.79) rotate(180)" style="fill:#4D4D4D"></rect><rect x="87.08" y="304.47" width="2.1" height="12.23" transform="translate(176.26 621.16) rotate(180)" style="fill:#4D4D4D"></rect><rect x="87.08" y="304.47" width="2.1" height="12.23" transform="translate(176.26 621.16) rotate(180)" style="opacity:0.1"></rect><path d="M89.18,307v6.81a3.41,3.41,0,0,0,0-6.81Z" style="fill:#4D4D4D"></path><polygon points="81.58 303.25 81.58 317.54 82.86 317.54 85.11 303.25 81.58 303.25" style="opacity:0.1"></polygon><circle cx="66.01" cy="310.39" r="10.76" transform="translate(-113.05 48.4) rotate(-22.35)" style="fill:#4D4D4D"></circle><path d="M73.39,310.39A7.38,7.38,0,1,1,66,303,7.38,7.38,0,0,1,73.39,310.39Z" style="opacity:0.1"></path><rect x="64.96" y="265.59" width="2.1" height="12.23" transform="translate(337.71 205.7) rotate(90)" style="fill:#4D4D4D"></rect><rect x="64.96" y="265.59" width="2.1" height="12.23" transform="translate(337.71 205.7) rotate(90)" style="opacity:0.1"></rect><path d="M69.6,270.66H62.79a3.41,3.41,0,0,1,6.81,0Z" style="fill:#4D4D4D"></path></g><g id="freepik--Shadow--inject-21"><ellipse cx="250" cy="437.72" rx="188.1" ry="17.27" style="fill:#ebebeb"></ellipse></g><g id="freepik--Trees--inject-21"><path d="M113.1,350.18H71.78s.09-6.15,4.15-7.79A5.53,5.53,0,0,1,82.41,344s1.66-11.31,9.23-11.31,11.19,9.75,11.19,9.75a5.81,5.81,0,0,1,5.9-2.4C112.93,340.54,113.1,350.18,113.1,350.18Z" style="fill:#37474f"></path><path d="M285.56,350.18s-1.27-5.91-3.8-6.83-4.07,1.75-4.07,1.75-.59-5.65-4.18-7.34-6.28,1.77-6.28,1.77-2.75-7.17-7.67-7.17-7.4,10.49-7.4,10.49-2.9-3.13-5.88-1.36-3,8.69-3,8.69Z" style="fill:#37474f"></path><path d="M458.92,350.18s-1.27-5.91-3.8-6.83-4.07,1.75-4.07,1.75-.59-5.65-4.18-7.34-6.28,1.77-6.28,1.77-2.75-7.17-7.67-7.17-7.4,10.49-7.4,10.49-2.9-3.13-5.87-1.36-3,8.69-3,8.69Z" style="fill:#37474f"></path><path d="M79.18,350.18H41.08s1.26-5.38,3.78-5.76a3.72,3.72,0,0,1,3.7,2.11s-.11-7.49,4.61-8.76,8.68,5.34,8.68,5.34,2.95-3.78,7-3.53,5,6.47,5,6.47S77.56,343.89,79.18,350.18Z" style="fill:#455a64"></path><path d="M314.48,350.18h-38.1s1.25-5.38,3.78-5.76,3.7,2.11,3.7,2.11-.12-7.49,4.6-8.76,8.68,5.34,8.68,5.34,3-3.78,7-3.53,5.06,6.47,5.06,6.47S312.86,343.89,314.48,350.18Z" style="fill:#455a64"></path><path d="M246,350.18H222.63s.05-3.49,2.36-4.41a3.13,3.13,0,0,1,3.67.88s.93-6.41,5.22-6.41,6.34,5.53,6.34,5.53a3.29,3.29,0,0,1,3.34-1.36C246,344.72,246,350.18,246,350.18Z" style="fill:#455a64"></path><path d="M430,350.18H406.57s.06-3.49,2.36-4.41a3.13,3.13,0,0,1,3.67.88s.94-6.41,5.22-6.41,6.35,5.53,6.35,5.53a3.29,3.29,0,0,1,3.34-1.36C429.89,344.72,430,350.18,430,350.18Z" style="fill:#455a64"></path></g><g id="freepik--Floor--inject-21"><polygon points="35.85 356.24 89.39 355.99 142.93 355.91 250 355.74 357.07 355.9 410.61 355.99 464.15 356.24 410.61 356.48 357.07 356.57 250 356.74 142.93 356.57 89.39 356.48 35.85 356.24" style="fill:#263238"></polygon><rect x="37.94" y="350.17" width="424.12" height="6.01" style="fill:#c7c7c7"></rect><path d="M67.67,350.17a9.11,9.11,0,0,1,0,6,8.31,8.31,0,0,1-.5-3A8.51,8.51,0,0,1,67.67,350.17Z" style="fill:#263238"></path><path d="M100.82,350.17a9.11,9.11,0,0,1,0,6,9.28,9.28,0,0,1,0-6Z" style="fill:#263238"></path><path d="M134,350.17a9.11,9.11,0,0,1,0,6,8.31,8.31,0,0,1-.5-3A8.51,8.51,0,0,1,134,350.17Z" style="fill:#263238"></path><path d="M167.12,350.17a9.11,9.11,0,0,1,0,6,9.28,9.28,0,0,1,0-6Z" style="fill:#263238"></path><path d="M200.27,350.17a9.11,9.11,0,0,1,0,6,9.28,9.28,0,0,1,0-6Z" style="fill:#263238"></path><path d="M233.43,350.17a9.28,9.28,0,0,1,0,6,9.11,9.11,0,0,1,0-6Z" style="fill:#263238"></path><path d="M266.58,350.17a9.28,9.28,0,0,1,0,6,9.11,9.11,0,0,1,0-6Z" style="fill:#263238"></path><path d="M299.73,350.17a9.28,9.28,0,0,1,0,6,9.11,9.11,0,0,1,0-6Z" style="fill:#263238"></path><path d="M332.88,350.17a9.28,9.28,0,0,1,0,6,9.11,9.11,0,0,1,0-6Z" style="fill:#263238"></path><path d="M366,350.17a8.51,8.51,0,0,1,.5,3,8.31,8.31,0,0,1-.5,3,9.11,9.11,0,0,1,0-6Z" style="fill:#263238"></path><path d="M399.18,350.17a8.51,8.51,0,0,1,.5,3,8.31,8.31,0,0,1-.5,3,9.11,9.11,0,0,1,0-6Z" style="fill:#263238"></path><path d="M432.33,350.17a8.51,8.51,0,0,1,.5,3,8.31,8.31,0,0,1-.5,3,9.11,9.11,0,0,1,0-6Z" style="fill:#263238"></path></g><g id="freepik--Character--inject-21"><path d="M165,376.38s-3,41.27-3,41.3c0,8.09.07,15.18.47,18.84a.06.06,0,0,0,0,.06,5.59,5.59,0,0,0,.59,2.5s0,0,0,.05c2.4,1.64,67,3.85,69.27,3.17s.52-7.23-1.92-9.32-26.8-14-26.8-14l2.58-41.26Z" style="fill:#ad6359"></path><path d="M162,409v8.68c0,8.09.07,15.18.47,18.84a.06.06,0,0,0,0,.06,11,11,0,0,0,.59,2.5s0,0,0,.05c2.4,1.64,67,3.85,69.27,3.17s.52-7.23-1.92-9.32-26.8-14-26.8-14l.12-8.81Z" style="fill:#fff"></path><path d="M232.36,442.3c-2.28.68-66.87-1.53-69.27-3.17-.92-.61-1.15-10-1.1-21.45v-.35l41.68,1,0,.7s24.35,11.91,26.8,14S234.65,441.63,232.36,442.3Z" style="fill:#4D4D4D"></path><path d="M231.72,439.77c-10.88-.64-54.82-2.19-65.62-2-.09,0-.09.06,0,.07,10.77.87,54.72,2.07,65.61,2.11C231.94,440,232,439.79,231.72,439.77Z" style="fill:#263238"></path><path d="M207.14,419.24c-4.26-.95-9.52-.47-12.9,2.47-.13.12,0,.3.18.26a59.8,59.8,0,0,1,12.68-2.19A.27.27,0,0,0,207.14,419.24Z" style="fill:#263238"></path><path d="M210.17,421.21c-4.26-.95-9.52-.47-12.9,2.47-.13.12,0,.3.17.26a60,60,0,0,1,12.69-2.19A.27.27,0,0,0,210.17,421.21Z" style="fill:#263238"></path><path d="M213.2,423.18c-4.26-.95-9.52-.47-12.9,2.47-.13.12,0,.3.17.26a60,60,0,0,1,12.69-2.19A.27.27,0,0,0,213.2,423.18Z" style="fill:#263238"></path><path d="M159.5,419.47l45.22-.91s5.51-81.36,4.48-108.48c-1.11-29.47-13.77-117.14-13.77-117.14H157.25s9.76,88,10,117.49C167.41,337.76,159.5,419.47,159.5,419.47Z" style="fill:#455a64"></path><path d="M187.93,193,165,272.3c-2.71-37.55-7.74-79.35-7.74-79.35Z" style="fill:#263238"></path><path d="M164.49,197.27l2.43,26.16,2.24,26.19c1.44,17.46,2.81,34.93,3.85,52.43.25,4.37.41,8.77.34,13.17s-.27,8.76-.49,13.14q-.68,13.14-1.69,26.24t-2.12,26.19L166.61,407l2-26.21q1-13.1,1.84-26.21c.55-8.74,1.15-17.48,1.55-26.22.2-4.38.36-8.75.44-13.12s-.12-8.73-.39-13.1c-.95-17.48-2.33-35-3.6-52.42Z" style="fill:#263238"></path><path d="M202.83,411c-7.06-.06-5-.14-12.09-.13-3.46,0-26.16.09-29.38.66-.07,0-.07.14,0,.15,3.23.49,25.93,0,29.38-.06,7.06-.15,5-.18,12.09-.41C203,411.22,203,411,202.83,411Z" style="fill:#263238"></path><path d="M91.47,354.24s-21.81,35.44-21.82,35.47c-3.55,7.27-6.52,13.7-7.75,17.17a.14.14,0,0,0,0,.06,5.58,5.58,0,0,0-.56,2.51s0,0,0,.06c1.45,2.52,58.69,32.52,61,32.9s3.6-6.29,2.31-9.23S106.61,409,106.61,409l21.44-35.61Z" style="fill:#ad6359"></path><path d="M61.33,409.45a.13.13,0,0,0,0,.06C62.79,412,120,442,122.39,442.41s3.59-6.29,2.31-9.23S106.61,409,106.61,409l3.83-6.36c-9.36-5-26.37-13.74-36.93-19.17-2.3,3.73-3.86,6.28-3.86,6.29-3.55,7.27-6.53,13.7-7.75,17.17a.14.14,0,0,0,0,.06A5.37,5.37,0,0,0,61.33,409.45Z" style="fill:#fff"></path><path d="M122.38,442.41c-2.35-.37-59.59-30.37-61-32.9-.57-.95,3.32-9.55,8.31-19.8l.16-.32L107,408.34l-.34.61s16.77,21.29,18.08,24.24S124.73,442.79,122.38,442.41Z" style="fill:#4D4D4D"></path><path d="M122.9,439.85c-9.53-5.29-48.44-25.75-58.26-30.26-.08,0-.11,0,0,.07,9.32,5.45,48.41,25.59,58.21,30.35C123,440.11,123.1,440,122.9,439.85Z" style="fill:#263238"></path><path d="M109.65,410.69c-3.42-2.7-8.37-4.55-12.69-3.36-.17,0-.1.28,0,.31a60.17,60.17,0,0,1,12.39,3.52A.27.27,0,0,0,109.65,410.69Z" style="fill:#263238"></path><path d="M111.53,413.78c-3.43-2.7-8.38-4.55-12.69-3.36-.17,0-.1.28,0,.3a60.74,60.74,0,0,1,12.38,3.53A.27.27,0,0,0,111.53,413.78Z" style="fill:#263238"></path><path d="M113.41,416.87c-3.43-2.7-8.38-4.55-12.7-3.37-.17.05-.1.29,0,.31a60.2,60.2,0,0,1,12.39,3.53A.27.27,0,0,0,113.41,416.87Z" style="fill:#263238"></path><path d="M191.52,192.91v0c-.16.78-2.83,13.17-5.6,23.81-2,7.78-4.08,14.61-5.27,15.32-1.35.79-7.9,3.7-10.1,4.61,0,0-14.75,73.62-22.54,96.44-7.18,21.07-36.91,77.37-36.91,77.37L68,388.71s33.68-57.14,37.23-67.39c5.49-15.9,26.06-93.51,26.06-93.51s-.16-24.29,8-34.9Z" style="fill:#455a64"></path><path d="M110.46,402.1c-6.16-3.45-4.35-2.55-10.55-5.92-3-1.65-23-12.48-26.08-13.53-.07,0-.13.09-.07.13,2.6,2,22.73,12.47,25.8,14.06,6.26,3.26,4.5,2.25,10.8,5.44A.1.1,0,0,0,110.46,402.1Z" style="fill:#263238"></path><path d="M142.31,221.06c1.18-.31,2.45-.4,3.65-.59,1-.16,1.94-.33,2.91-.54a12.72,12.72,0,0,0,5.12-2.16c1.67-1.3,2.52-3.27,3.32-5.16.48-1.13,1-2.24,1.48-3.36.24-.54.49-1.08.74-1.62a19.06,19.06,0,0,0,.91-1.94c0-.09.18,0,.14.05a13.24,13.24,0,0,0-.41,1.4c-.16.54-.31,1.08-.48,1.62-.3,1-.59,1.94-.91,2.9a22.39,22.39,0,0,1-2.06,5.07c-1.78,2.84-5,4-8.14,4.38-.92.12-1.84.18-2.75.24a20.23,20.23,0,0,1-3.48,0C142.18,221.35,142.13,221.1,142.31,221.06Z" style="fill:#263238"></path><path d="M184.13,230.34a86.44,86.44,0,0,0-13.52,6.29.15.15,0,0,0,.13.28c4.55-1.95,9.19-3.83,13.63-6A.3.3,0,0,0,184.13,230.34Z" style="fill:#263238"></path><path d="M185.5,199.15c0-.16-.29-.19-.29,0,0,5.4-.31,10.16-.76,15.21-.21,2.35-2.1,15.31-6.17,14.36-.68-.16-1-.83-1.13-1.85a16,16,0,0,1,.54-4c.45-2.71.81-5.43,1-8.17a74.19,74.19,0,0,0-.16-15.34.13.13,0,0,0-.26,0,141.18,141.18,0,0,1-1.24,21.16c-.51,3.38-2.21,8.45,1.32,9s5.91-8,6.35-10.3A77.91,77.91,0,0,0,185.5,199.15Z" style="fill:#263238"></path><path d="M178.39,229.05a21.27,21.27,0,0,0-.91,2.69,5.82,5.82,0,0,0-.38,2.21c0,.14.2.15.28.06a7.81,7.81,0,0,0,.94-2.15c.31-.83.64-1.66.92-2.5A.45.45,0,0,0,178.39,229.05Z" style="fill:#263238"></path><path d="M79.6,381.56c6.14-11.56,12.47-23,18.83-34.45,3.13-5.64,6.39-11.22,9.38-16.94a102.43,102.43,0,0,0,6.83-17.65q5.7-18.52,10.79-37.21T135,237.76c.75-3.14,1.57-6.28,2.18-9.45a28.92,28.92,0,0,0,0-9.69,31.27,31.27,0,0,1-.07-9,60.4,60.4,0,0,1,2.11-8.81c.48-1.52,1-3,1.52-4.52a.14.14,0,1,1,.26.08c-1.86,6.08-3.76,12.23-3.36,18.68.19,3.09,1,6.13,1,9.25a43.93,43.93,0,0,1-1.57,9.15q-4.4,19-9.45,37.76t-10.67,37.43c-1.83,6-3.54,12.18-6.14,17.94s-5.9,11.23-9,16.74c-6.41,11.4-12.87,22.77-19.47,34.05q-1.26,2.14-2.53,4.28C79.69,381.74,79.56,381.65,79.6,381.56Z" style="fill:#263238"></path><path d="M171.11,122.62c-5.31-2.85-19.92-4.1-25.81-.15-7.43,5-14.27,33.86-11.24,35.57,5.41,3.05,24.13-13.73,28.21-20.61S171.11,122.62,171.11,122.62Z" style="fill:#4D4D4D"></path><path d="M171.11,122.62s-4.76,7.92-8.84,14.8-22.8,23.67-28.21,20.62c-1.65-.94-.36-10,2.38-18.85l28.71-18.45A22.17,22.17,0,0,1,171.11,122.62Z" style="opacity:0.1"></path><path d="M172.54,143.33c2.57,11.49,13,45.82,24,50.14,7.17,2.83,38.16,6.86,41.57,4.57,2.88-1.94,5-29.12.84-28.92s-31.84-1.77-34.66-3.12-16.67-27.77-23.91-35.47C167.86,117.26,171.16,137.14,172.54,143.33Z" style="fill:#ad6359"></path><path d="M252.1,199.56c-6.07,1.69-19.82.28-23-1.33s-1.58-25.08,1.47-27.12,23.91-6.14,29.81-3.61S258.38,197.81,252.1,199.56Z" style="fill:#ad6359"></path><path d="M382.93,378.07c-.38-.05-38.46-5.05-64.81-45C310.77,322,304.06,291,297,258.15c-9.58-44.21-20.42-94.32-33.71-94.52-9.35-.14-17.09,9-19.18,13.2-2.33,4.68-6.78,11.94-6.83,12l-.85-.52c0-.07,4.48-7.3,6.79-11.94,2.16-4.33,10.13-13.75,19.86-13.75h.23c14.08.21,24.54,48.56,34.66,95.31,7.09,32.73,13.78,63.64,21,74.62C345,372.07,382.67,377,383.05,377.08Z" style="fill:#263238"></path><rect x="229.73" y="177.82" width="23.68" height="6" transform="translate(-36.54 297.9) rotate(-59.65)" style="fill:#4D4D4D"></rect><path d="M250.51,165.44c-2.29,2.43,1.88,3.73,1.88,3.73s-6.46-.43-7.85,3,3.77,4.69,4.13,4.8c-.34,0-6.29-.27-7.33,3.31s4.27,4.24,4.62,4.28c-.33.08-4.66,1.24-4.83,4.14-.3,5,10.84,2.31,14.19,4.56,0,0-3.17,6.11-3.22,6.31,0,0,10.65-2.32,13.44-7a3.49,3.49,0,0,0-.54-4.33s3.51-.37,4.43-3.16c.46-1.43-1.42-3.45-1.42-3.45a4.36,4.36,0,0,0,3.46-2.94c.53-2-1.44-3.73-1.44-3.73s2.51-1.65,2.38-3.88C272.16,166.54,255.41,160.25,250.51,165.44Z" style="fill:#ad6359"></path><path d="M269.76,174.62a0,0,0,1,0,.05-.08,31.07,31.07,0,0,0-17.64-5.46c-.2,0-.27.33,0,.37A63.55,63.55,0,0,1,269.76,174.62Z" style="fill:#263238"></path><path d="M268.11,181.61c.06,0,.11-.07.05-.12a29.11,29.11,0,0,0-19.61-4.76c-.24,0-.43.31-.15.29C253.11,176.69,262.89,179.12,268.11,181.61Z" style="fill:#263238"></path><path d="M245.49,184.79c6.75-.73,13.05.79,19.3,3.27.08,0,.12-.08.06-.13-2.73-2.05-6.87-3.22-10.18-3.85a17.84,17.84,0,0,0-9.2.47C245.35,184.59,245.35,184.8,245.49,184.79Z" style="fill:#263238"></path><path d="M252.39,169.17a19.8,19.8,0,0,0-3.7.44,6.82,6.82,0,0,0-3.24,1.49,2.26,2.26,0,0,0-.71,1.45,3.36,3.36,0,0,0,.3,1.63,4,4,0,0,0,2.62,1.92l2.65.69-2.73.27a11.16,11.16,0,0,0-3.51.91,4,4,0,0,0-2.32,2.3,2.28,2.28,0,0,0,.91,2.73,7,7,0,0,0,3.32,1l3.23.24-3.12.82a10.75,10.75,0,0,0-2.49,1,4.36,4.36,0,0,0-1.8,1.73A2.06,2.06,0,0,0,242,190a4.5,4.5,0,0,0,2.24,1.21,35.86,35.86,0,0,0,5.55.85c.94.1,1.89.2,2.83.35a6.74,6.74,0,0,1,2.71.86,7.33,7.33,0,0,0-2.74-.6c-.94-.08-1.88-.11-2.83-.14A30.88,30.88,0,0,1,244,192a5.32,5.32,0,0,1-2.73-1.38,2.92,2.92,0,0,1-.4-3.18,5.32,5.32,0,0,1,2.17-2.21,11.78,11.78,0,0,1,2.76-1.16l.11,1.07a7.89,7.89,0,0,1-3.93-1.15,3.35,3.35,0,0,1-1.36-1.78,3.73,3.73,0,0,1,0-2.22,5,5,0,0,1,2.94-2.92,12.39,12.39,0,0,1,3.88-.94l-.08,1a4.74,4.74,0,0,1-3.11-2.55,4,4,0,0,1-.27-2,2.91,2.91,0,0,1,1-1.81,7.06,7.06,0,0,1,3.59-1.38A16.9,16.9,0,0,1,252.39,169.17Z" style="fill:#263238"></path><path d="M234,169.79s20.84-16.71,23.38-5.36c.75,3.37-.17,18.11-3.14,18-3.83-.17-4.59-6.4-4.45-10.38,0,0-6.29,6.68-12.24,3.68A6.6,6.6,0,0,1,234,169.79Z" style="fill:#ad6359"></path><path d="M257.1,163.5a13.84,13.84,0,0,1,.77,4,27.92,27.92,0,0,1,0,4.09,46.73,46.73,0,0,1-1.09,8.12,7.93,7.93,0,0,1-.78,2,3,3,0,0,1-.83.92,1.93,1.93,0,0,1-.61.3,2.38,2.38,0,0,1-.68.08,3.44,3.44,0,0,1-2.18-1,6.27,6.27,0,0,1-1.28-1.82,12.71,12.71,0,0,1-1-4.09,28.52,28.52,0,0,1-.09-4.13l.82.33a16.38,16.38,0,0,1-2.43,2,15,15,0,0,1-2.73,1.47,10.52,10.52,0,0,1-3,.74,8.17,8.17,0,0,1-3-.3,9.15,9.15,0,0,0,3,0,10.78,10.78,0,0,0,2.82-.95,15,15,0,0,0,2.53-1.56,15.87,15.87,0,0,0,2.17-2l.81-.91v1.24a30.78,30.78,0,0,0,.22,4,12.16,12.16,0,0,0,1,3.73c.53,1.09,1.43,2.11,2.48,2.15s1.48-1.27,1.82-2.49a38,38,0,0,0,.83-3.9c.24-1.33.45-2.65.6-4A26,26,0,0,0,257.1,163.5Z" style="fill:#263238"></path><path d="M231.67,166.7l-4.32,33.63s-28.85-.54-41.52-10c-5.22-3.91-13.49-39.73-15.19-52.21s3.15-19.92,13.38-3.91,19.87,29.92,21.15,30.06S231.67,166.7,231.67,166.7Z" style="fill:#4D4D4D"></path><path d="M175,148.71a14,14,0,0,0-1.83,3,1,1,0,0,0-.08.18.81.81,0,0,1,.1-.09,15.09,15.09,0,0,0,2.48-2.64,14.44,14.44,0,0,0,1.9-3.22A15.72,15.72,0,0,0,175,148.71Zm41,35.75a14.63,14.63,0,0,0-1.89,3.23,14.72,14.72,0,0,0,2.58-2.71,14.07,14.07,0,0,0,1.9-3.24A15.11,15.11,0,0,0,216,184.46Zm-24.79,5.85a15.65,15.65,0,0,0-3.23-1.92,14.11,14.11,0,0,0,2.71,2.59,15.28,15.28,0,0,0,3.22,1.91A15,15,0,0,0,191.17,190.31Zm32.43-21.24A13.83,13.83,0,0,0,220,170a15.09,15.09,0,0,0,3.74-.09,15.81,15.81,0,0,0,3.64-.92A13.8,13.8,0,0,0,223.6,169.07Zm-41.8,0a14.1,14.1,0,0,0-3.64.92,15.17,15.17,0,0,0,3.75-.09,15.6,15.6,0,0,0,3.63-.92A13.73,13.73,0,0,0,181.8,169.07Zm20.63,1.79a15.19,15.19,0,0,0-1-3.63,17.44,17.44,0,0,0,1,7.39A16.28,16.28,0,0,0,202.43,170.86Z" style="fill:#fff"></path><path d="M224,168.46c-.61,2.29-.89,4.7-1.27,7s-.72,4.88-1,7.32-1.33,12.27-1.57,14.72c0,.11.15.13.17,0,.4-2.44,2-12.09,2.3-14.49s.64-4.8.89-7.21a72.77,72.77,0,0,0,.63-7.37C224.1,168.44,224,168.4,224,168.46Z" style="fill:#263238"></path><path d="M211.59,198.9c-8.84-1.3-19.36-3.81-25.76-8.59-5.22-3.9-13.49-39.74-15.2-52.21-.73-5.4-.24-9.84,1.39-11.87Z" style="opacity:0.1"></path><path d="M131,214.77c.18.17,67.51-4.21,68.1-5,.38-.49-17.9-74.18-24.14-83.24-2.86-4.16-13.71-5.1-18.19-.88-11.23,10.55-19,44.69-20.68,54.92C133.36,197.45,130.38,214.15,131,214.77Z" style="fill:#4D4D4D"></path><path d="M174.34,203.73a15.37,15.37,0,0,0-.94-3.64,15.71,15.71,0,0,0,.09,3.76,13.92,13.92,0,0,0,.95,3.62A16.13,16.13,0,0,0,174.34,203.73Zm-15-42.72a14.91,14.91,0,0,0-.93-3.63,14.17,14.17,0,0,0,.09,3.74,15.1,15.1,0,0,0,.93,3.64A15.12,15.12,0,0,0,159.37,161Zm22.43,8.06a14.1,14.1,0,0,0-3.64.92,15.17,15.17,0,0,0,3.75-.09,15.6,15.6,0,0,0,3.63-.92A13.73,13.73,0,0,0,181.8,169.07Zm-25.21-27A14.23,14.23,0,0,0,153,143a14.79,14.79,0,0,0,3.76-.1,15.33,15.33,0,0,0,3.63-.91A13.42,13.42,0,0,0,156.59,142ZM148.7,178.1a14.66,14.66,0,0,0-3.63.92,14.28,14.28,0,0,0,3.75-.08,15.27,15.27,0,0,0,3.63-.93A14.22,14.22,0,0,0,148.7,178.1Zm-2.48,33.5a15.11,15.11,0,0,0-3.63.92,13.86,13.86,0,0,0,3.75-.08,14.8,14.8,0,0,0,3.63-.93A14.65,14.65,0,0,0,146.22,211.6Zm44.95-21.29a15.65,15.65,0,0,0-3.23-1.92,14.11,14.11,0,0,0,2.71,2.59,15.28,15.28,0,0,0,3.22,1.91A15,15,0,0,0,191.17,190.31Zm-49.73-32.52c-.09.29-.17.58-.25.87a14.45,14.45,0,0,0,3,1.71A14.38,14.38,0,0,0,141.44,157.79Zm10.62,39.88a15.11,15.11,0,0,0-3.23-1.91,13.89,13.89,0,0,0,2.71,2.6,16,16,0,0,0,3.23,1.91A14.18,14.18,0,0,0,152.06,197.67ZM163.3,123.8c-.29-.22-.59-.43-.89-.63-.32,0-.63.11-.94.19.43.39.88.75,1.33,1.11a15,15,0,0,0,3.23,1.91A14.74,14.74,0,0,0,163.3,123.8Zm4.47,59.11a15,15,0,0,0-1.89,3.22,16.4,16.4,0,0,0,4.49-6A15,15,0,0,0,167.77,182.91Zm-35.9,23.52c-.08.57-.17,1.11-.24,1.62l.1-.11a14,14,0,0,0,1.9-3.23A14.32,14.32,0,0,0,131.87,206.43ZM175,148.71a14.11,14.11,0,0,0-1.91,3.23,15.46,15.46,0,0,0,2.58-2.73,14.44,14.44,0,0,0,1.9-3.22A15.72,15.72,0,0,0,175,148.71Z" style="fill:#fff"></path><path d="M171.89,135.48c-3.59.37-9.61-6.27-11.42-10.9-.12-.32.73-3.39,1.6-7.16.51-2.29,1-4.86,1.34-7.23l14.43,5.53a37.82,37.82,0,0,0-2.61,8.94,5.43,5.43,0,0,0,0,1,1,1,0,0,1,0,.17C175.27,127.7,175.37,135.11,171.89,135.48Z" style="fill:#ad6359"></path><path d="M175.2,125.65v.15a9.38,9.38,0,0,1-1.54-.1c-8.59-1.31-9.27-12.12-9.28-15.14L168,112l9.85,3.77a38,38,0,0,0-2.61,8.94A5.52,5.52,0,0,0,175.2,125.65Z" style="fill:#263238"></path><path d="M164.83,92.8c-2.34,5.19-1.48,21.13,1.91,25.1,4.91,5.75,14,7.39,19.09,1.26,5-6,3.5-26.71-.38-30.42C179.73,83.28,168.28,85.15,164.83,92.8Z" style="fill:#ad6359"></path><path d="M178.87,104.53s-.08.06-.07.1c.08,1.07,0,2.31-1,2.72a0,0,0,0,0,0,.06C179,107.18,179.13,105.53,178.87,104.53Z" style="fill:#263238"></path><path d="M177.86,103.45c-1.73,0-1.7,3.43-.09,3.47S179.31,103.49,177.86,103.45Z" style="fill:#263238"></path><path d="M184.85,104.38s.09.05.08.09c0,1.08.13,2.31,1.11,2.66,0,0,0,.07,0,.06C184.84,107,184.66,105.39,184.85,104.38Z" style="fill:#263238"></path><path d="M185.8,103.24c1.73-.14,1.9,3.32.3,3.46S184.35,103.37,185.8,103.24Z" style="fill:#263238"></path><path d="M176.47,101.88a11.86,11.86,0,0,0,1.34-.49,2.33,2.33,0,0,0,1.28-.75.73.73,0,0,0-.13-.89,1.81,1.81,0,0,0-1.84-.17,2.68,2.68,0,0,0-1.53,1.17A.78.78,0,0,0,176.47,101.88Z" style="fill:#263238"></path><path d="M187.13,101.48a12.81,12.81,0,0,1-1.39-.34,2.35,2.35,0,0,1-1.34-.62.75.75,0,0,1,0-.9,1.82,1.82,0,0,1,1.81-.36,2.69,2.69,0,0,1,1.65,1A.78.78,0,0,1,187.13,101.48Z" style="fill:#263238"></path><path d="M177.7,114.3c.26.25.52.59.91.62a2.71,2.71,0,0,0,1.15-.28s.07,0,.05,0a1.44,1.44,0,0,1-1.36.6,1.13,1.13,0,0,1-.85-.94C177.58,114.29,177.66,114.26,177.7,114.3Z" style="fill:#263238"></path><path d="M178.8,111.07a3.65,3.65,0,0,0,2.46,1.6,4.17,4.17,0,0,0,1.32,0,1.07,1.07,0,0,0,.25,0l.23,0a.27.27,0,0,0,.22-.24h0a.41.41,0,0,0,0-.11h0v-.09c0-.83-.07-2.09-.07-2.09.3.15,1.85.83,1.82.4a54.74,54.74,0,0,0-1.53-11.07.1.1,0,0,0-.19,0c.1,3.45.81,6.85,1,10.32a6.64,6.64,0,0,0-1.74-.51c-.11,0,.22,2.43.19,2.8a.1.1,0,0,1,0,0,5.08,5.08,0,0,1-3.8-1.14C178.82,110.91,178.73,111,178.8,111.07Z" style="fill:#263238"></path><path d="M182.11,112.56a4.27,4.27,0,0,1-1.78,1.22,1.94,1.94,0,0,1-1.17,0c-.82-.27-.8-1-.61-1.69a4.57,4.57,0,0,1,.44-1A5.48,5.48,0,0,0,182.11,112.56Z" style="fill:#263238"></path><path d="M180.33,113.78a1.94,1.94,0,0,1-1.17,0c-.82-.27-.8-1-.61-1.69A2,2,0,0,1,180.33,113.78Z" style="fill:#ff98b9"></path><path d="M163.43,104.52c1.16-.54,3.42-4.15,4.43-5.62s1.22-8.9,1.22-11.11c-.23.15-.45.31-.67.48s-.43.34-.64.52a11.24,11.24,0,0,0-1.2,1.19A11.86,11.86,0,0,0,165,92.49C163.8,94.91,163.29,99.68,163.43,104.52Z" style="fill:#263238;opacity:0.2"></path><path d="M183.3,93.83a5.7,5.7,0,0,1-5.2,2,5.83,5.83,0,0,1-4.53-3.42,0,0,0,1,0-.08,0A5.75,5.75,0,0,0,178,96.29a5.88,5.88,0,0,0,5.38-2.36C183.46,93.85,183.36,93.76,183.3,93.83Z" style="fill:#263238"></path><path d="M177.22,79.8a9,9,0,0,0-7.52,4.25,6.39,6.39,0,0,0-.57,4.18c0,.06.13,0,.12,0a7,7,0,0,1,3.25-6.4,9.05,9.05,0,0,1,8-1.06,5.73,5.73,0,0,1,3.11,2.44c.07.12.32,0,.26-.09C183,81.06,180.22,79.69,177.22,79.8Z" style="fill:#263238"></path><path d="M196.54,86.75a7.31,7.31,0,0,0-3.16-3.89c-2-1.23-4.34-1-6.62-.76-.06,0,0,.1,0,.09a10.15,10.15,0,0,1,5.72.58,7.21,7.21,0,0,1,3.36,3.45,7,7,0,0,1-2.8,8.73,7.12,7.12,0,0,1-5.6.64c-.07,0-.12.08,0,.11a7.16,7.16,0,0,0,9.14-9Z" style="fill:#263238"></path><path d="M163.79,96.12s-3.18-5.9-.58-9.35c1.48-2,6.42-1.74,6.42-1.74a8.92,8.92,0,0,1,5.66-3.82c4.14-1,9.07,1.41,9.07,1.41s3.92-2.28,7.61-.2c5.16,2.9,4.57,10.72-.58,13.27-3.62,1.79-8.56-1.39-8.56-1.39-.48.07-5.31,3-9-1.27,0,0-3,2.67-5.65.83A4.34,4.34,0,0,1,163.79,96.12Z" style="fill:#263238"></path><path d="M166.53,105.93s-3-5.43-5.41-4.42-.56,8.62,2,9.91a2.76,2.76,0,0,0,3.83-1.07Z" style="fill:#ad6359"></path><path d="M161.71,103.68s-.06,0,0,.07c1.8,1,2.61,2.82,3.11,4.71a1.53,1.53,0,0,0-2.22-.66c-.05,0,0,.12,0,.11a1.7,1.7,0,0,1,1.79.79,8.43,8.43,0,0,1,.72,1.59c.07.18.39.12.35-.08l0,0C165.77,107.77,164.26,104.2,161.71,103.68Z" style="fill:#263238"></path><polygon points="199.09 157.03 196.44 190.33 178.12 190.33 175.47 157.03 199.09 157.03" style="fill:#c7c7c7"></polygon><rect x="173.74" y="154.02" width="26.93" height="4.86" style="fill:#455a64"></rect><polygon points="198.82 154.02 175.58 154.02 176.94 148.56 197.47 148.56 198.82 154.02" style="fill:#37474f"></polygon><path d="M193.64,174c0,4.33-2.85,7.83-6.36,7.83s-6.36-3.5-6.36-7.83,2.85-7.83,6.36-7.83S193.64,169.65,193.64,174Z" style="fill:#fff"></path><path d="M150.27,131.76c-16,18.88-28.8,52.27-24.17,59.46,5.16,8,23.07-14,22.87-15.4-.15-1.08,6.25-21.57,10-40.25C162.42,118.31,154.23,127.09,150.27,131.76Z" style="fill:#ad6359"></path><path d="M150.27,131.76c-16,18.88-28.8,52.27-24.17,59.46,5.16,8,23.07-14,22.87-15.4-.15-1.08,6.25-21.57,10-40.25C162.42,118.31,154.23,127.09,150.27,131.76Z" style="fill:#4D4D4D"></path><path d="M129.54,185.88a15.21,15.21,0,0,0-1.89,3.22,16.25,16.25,0,0,0,4.49-5.95A15.22,15.22,0,0,0,129.54,185.88Zm11.9-28.09a15.14,15.14,0,0,0-3.23-1.92,14.13,14.13,0,0,0,2.71,2.59,15.11,15.11,0,0,0,3.23,1.91A14.38,14.38,0,0,0,141.44,157.79ZM145.07,179a11,11,0,0,0,1.82.08l.6-.79A12,12,0,0,0,145.07,179Zm11.52-37A14.23,14.23,0,0,0,153,143a14.79,14.79,0,0,0,3.76-.1l.71-.11.18-.84Z" style="fill:#fff"></path><path d="M150.72,168.85c.44-2.23,1-4.45,1.49-6.67s1.1-4.41,1.65-6.62l1.77-6.59c.61-2.2,1.23-4.39,1.88-6.57-.35,2.25-.82,4.48-1.32,6.71s-1.06,4.43-1.61,6.64-1.18,4.39-1.82,6.58S151.46,166.7,150.72,168.85Z" style="fill:#263238"></path><path d="M158.58,144.93a10.39,10.39,0,0,1-1.07,2.91,8.28,8.28,0,0,1-1.91,2.45l.75-1.35.72-1.34C157.56,146.71,158,145.81,158.58,144.93Z" style="fill:#263238"></path><path d="M126.67,191c3.15,3.63,11.58,8.29,39.5,5.27,3.87-.42,6.17-29.15,2-28.91-5.22.29-22.49,3-23.92,3.4C133.57,174,123.52,187.41,126.67,191Z" style="fill:#ad6359"></path><path d="M202.64,165.8a4.48,4.48,0,0,1-1.07,5,6.6,6.6,0,0,1,2.72,3.61c.68,2.65-3.18,4.88-3.18,4.88a8.2,8.2,0,0,1,2.26,4.26c.39,2.61-3.18,5.41-3.18,5.41a7.17,7.17,0,0,1-.38,5c-2.1,4.11-9.12,4.73-13.58,5.16s-17.51-2.51-20.06-2.82l-1.36-28.65s17.77-7.58,23.09-7.35C192.38,160.51,201.17,162.63,202.64,165.8Z" style="fill:#ad6359"></path><path d="M201.33,170.37c-4.71-1.35-9.57-1.24-14.42-1.4a.09.09,0,0,0,0,.17c4.82.1,9.57,1.16,14.38,1.46C201.42,170.61,201.46,170.4,201.33,170.37Z" style="fill:#263238"></path><path d="M201,178.93a12.88,12.88,0,0,0-3.34-.17c-1.18,0-2.36.06-3.55.12-2.37.12-4.73.29-7.09.53-.1,0-.11.17,0,.17q3.54-.18,7.08-.21h3.55a15.52,15.52,0,0,0,3.34-.12A.17.17,0,0,0,201,178.93Z" style="fill:#263238"></path><path d="M200.09,189a9,9,0,0,0-3,0l-3.24.21c-2.15.13-4.31.25-6.47.31-.11,0-.11.17,0,.16,2.19,0,4.39,0,6.58-.11l3.23-.11a8.4,8.4,0,0,0,2.92-.36A.06.06,0,0,0,200.09,189Z" style="fill:#263238"></path><path d="M163.42,166.68,164.49,201s-35.23-1.66-38.71-10,9.87-17.21,15.7-20.12S163.42,166.68,163.42,166.68Z" style="fill:#4D4D4D"></path><path d="M148.7,178.1a14.66,14.66,0,0,0-3.63.92,14.28,14.28,0,0,0,3.75-.08,15.27,15.27,0,0,0,3.63-.93A14.22,14.22,0,0,0,148.7,178.1Zm6,22.1a14.09,14.09,0,0,0-2.65-2.53,15.11,15.11,0,0,0-3.23-1.91,13.89,13.89,0,0,0,2.71,2.6,16,16,0,0,0,3,1.82h0l.18.08Zm-25.17-14.32a15.21,15.21,0,0,0-1.89,3.22,16.25,16.25,0,0,0,4.49-5.95A15.22,15.22,0,0,0,129.54,185.88Z" style="fill:#fff"></path><path d="M163.31,166.68c-2.43.48-4.86.91-7.28,1.35s-4.86.85-7.27,1.36a31.23,31.23,0,0,0-7,2,65.56,65.56,0,0,0-6.62,3.27,39.13,39.13,0,0,1,6.37-3.83,29,29,0,0,1,7.13-2.2c2.44-.45,4.87-.86,7.32-1.18S160.84,166.84,163.31,166.68Z" style="fill:#263238"></path><path d="M133.62,196.09c2.53.66,5.08,1.22,7.64,1.73s5.12,1,7.7,1.34,5.15.76,7.75,1,5.18.49,7.79.73l-.11.1-.06-5.91.26,5.91v.1h-.11a101.37,101.37,0,0,1-15.65-1.21c-2.58-.43-5.16-.89-7.7-1.53A61.9,61.9,0,0,1,133.62,196.09Z" style="fill:#263238"></path><path d="M156.9,169.1a71,71,0,0,0-.19,7.15c0,2.47,0,4.93.09,7.4s.56,12.32.69,14.78c0,.11.17.1.17,0,0-2.46.12-12.25.06-14.67s-.1-4.84-.22-7.25a72.77,72.77,0,0,0-.5-7.39C157,169.06,156.9,169,156.9,169.1Z" style="fill:#263238"></path><path d="M339.7,390.87c-3.59-.64-12.28-2.49-11.46-17.69,0,0-7.4,16.85,5.46,23.41Z" style="fill:#4D4D4D"></path><path d="M375,405.65c-2.22,3.82,3.25,18,3.52,19.54s-5.24,5.88-4.23,7.73,6.39,2.77,8.66,1.85,6-6.89,6.38-9.08a20.62,20.62,0,0,0,0-6.13c-.16-.68,7.84-12.52,7.57-15.13S377.69,401,375,405.65Z" style="fill:#4D4D4D"></path><path d="M375,405.65c-2.22,3.82,3.25,18,3.52,19.54s-5.24,5.88-4.23,7.73,6.39,2.77,8.66,1.85,6-6.89,6.38-9.08a20.62,20.62,0,0,0,0-6.13c-.16-.68,7.84-12.52,7.57-15.13S377.69,401,375,405.65Z" style="opacity:0.2"></path><path d="M334.3,408.42c-.21,1.42,2.58,12.9,4.58,16.21s10.24,9.29,12.12,9.66,6.62,1.72,7.4.56-.26-4-.95-4.48a41.15,41.15,0,0,0-3.87-2.52c-.55-.14-3-6.49-2.93-7.28s7.13-8.83,5.6-12.8S334.3,408.42,334.3,408.42Z" style="fill:#4D4D4D"></path><path d="M334.3,408.42c-.21,1.42,2.58,12.9,4.58,16.21s10.24,9.29,12.12,9.66,6.62,1.72,7.4.56-.26-4-.95-4.48a41.15,41.15,0,0,0-3.87-2.52c-.55-.14-3-6.49-2.93-7.28s7.13-8.83,5.6-12.8S334.3,408.42,334.3,408.42Z" style="opacity:0.2"></path><path d="M432.05,383.6c-6.69,3.69-20.25,4.36-20.37,5s-2.09,14.16-8.39,19.33-21.44,10.21-29,11.47-19.55-2.27-23-2.52a44.32,44.32,0,0,0-8.57.63,89.35,89.35,0,0,0-4.91,7.81c-.77,1.77-7.06,7.56-7.33,9.58s2.15,3,3,4.3-.75,2.64-2,3.14-6.55-1.12-7.68-2.4-.89-18-.12-22.31,5.79-21.61,9.95-25.14,15.77-2.64,24.08-4.54,21.34-6.3,24-10.21,2.81-11.71,4.16-14.23,9.6-8.83,14.44-9.69c2.06-.37,13.41,3.17,15.19,4.95s3.7,8.13,7.09,10.46c.61.43,14.22,1.33,15.29,2.22S436.84,381,432.05,383.6Z" style="fill:#4D4D4D"></path><path d="M376.85,412.62c.74,4.37,12.48,14.8,16.27,17.07s9.2,6.94,10.71,7.94,11,0,12.11-1.76-1-4.79-2.27-5.42-4-1.29-5.3-2.22-5.42-7.87-5.17-9.13,3.72-11.7,3.94-17.13S376.1,408.15,376.85,412.62Z" style="fill:#4D4D4D"></path><path d="M373.26,390.51c-2.75-3.14-14.33-2.84-18.44,1.11s2.78,13.95,9.72,14.52S377.07,394.85,373.26,390.51Z" style="fill:#fff;opacity:0.2"></path><path d="M348.45,393.5c1.41,1.8,0,6.65-3.32,7.37a5.26,5.26,0,0,1-6.52-5.24C338.73,392.06,345.3,389.47,348.45,393.5Z" style="fill:#fff;opacity:0.2"></path><path d="M416.48,368.37c2.19,2.8,0,10.35-5.17,11.48a8.19,8.19,0,0,1-10.16-8.16C401.33,366.12,411.57,362.08,416.48,368.37Z" style="fill:#fff;opacity:0.2"></path><path d="M377.25,393c.26-1.13,2.62-2.13,4-1.05a2.67,2.67,0,0,1,0,4.25C379.79,397.27,376.67,395.51,377.25,393Z" style="fill:#fff;opacity:0.2"></path><path d="M351.64,409.12c-1.33.42-3.8-1.43-3.49-3.49a3.21,3.21,0,0,1,4.41-2.58C354.57,403.89,354.62,408.2,351.64,409.12Z" style="fill:#fff;opacity:0.2"></path><path d="M412.5,369.17c-3,.27-2.28,5.91.51,5.65S415,368.93,412.5,369.17Z" style="fill:#263238"></path><path d="M435.29,375.64c1,0,3.47-2.6,3.43-4.05s-8.29-.87-9,.13C428.81,373,433.76,375.65,435.29,375.64Z" style="fill:#263238"></path><path d="M411.67,388.72c-1.8-.24-9.83-.34-15.5-2.29s-13.05-10.09-13.52-10.7-2.71,2.12-2.91,2.8S387.91,389,395.2,390.8s16.39,2.31,16.78,1.87S412.54,388.84,411.67,388.72Z" style="fill:#455a64"></path><path d="M396.52,355.22c-8.93-.57-34.24,10.65-36.34,18-2.44,8.59,7.44,17.56,14.37,16.71s23.86-24.32,24.78-27.54S399.23,355.39,396.52,355.22Z" style="fill:#4D4D4D"></path><path d="M396.52,355.22c-8.93-.57-34.24,10.65-36.34,18-2.44,8.59,7.44,17.56,14.37,16.71s23.86-24.32,24.78-27.54S399.23,355.39,396.52,355.22Z" style="opacity:0.2"></path></g></svg>