<svg xmlns="http://www.w3.org/2000/svg" viewBox="0 0 500 500"><g id="freepik--background-complete--inject-175"><path d="M61.7,54.15c45.77-.66,96.65-.64,142.45,0-45.81.65-96.67.67-142.45,0Z" style="fill:#ebebeb"></path><path d="M45.57,73.46c47.16-.67,99.58-.65,146.77,0-47.2.64-99.6.66-146.77,0Z" style="fill:#ebebeb"></path><path d="M76.44,54.15a90.33,90.33,0,0,1,0,19.31,91,91,0,0,1,0-19.31Z" style="fill:#ebebeb"></path><path d="M148.29,54.15a90.33,90.33,0,0,1,0,19.31,91,91,0,0,1,0-19.31Z" style="fill:#ebebeb"></path><path d="M112.37,73.37a91,91,0,0,1,0,19.31,90.33,90.33,0,0,1,0-19.31Z" style="fill:#ebebeb"></path><path d="M375.16,54.15c22.87-.67,45.9-.67,68.78,0-22.88.68-45.91.68-68.78,0Z" style="fill:#ebebeb"></path><path d="M351.5,73.46c33.3-.67,70.31-.65,103.63,0-33.32.64-70.33.66-103.63,0Z" style="fill:#ebebeb"></path><path d="M411.08,54.15a91,91,0,0,1,0,19.31,91,91,0,0,1,0-19.31Z" style="fill:#ebebeb"></path><path d="M375.16,73.37a91,91,0,0,1,0,19.31,90.33,90.33,0,0,1,0-19.31Z" style="fill:#ebebeb"></path><path d="M111.5,340.88c45.77-.67,96.65-.65,142.45,0-45.81.65-96.67.66-142.45,0Z" style="fill:#ebebeb"></path><path d="M77.34,360.18c47.16-.66,99.59-.65,146.78,0-47.2.65-99.61.66-146.78,0Z" style="fill:#ebebeb"></path><path d="M248.24,321.71c29.37-.67,62-.65,91.4,0-29.39.65-62,.66-91.4,0Z" style="fill:#ebebeb"></path><path d="M280.59,340.88c29.36-.67,62-.65,91.39,0-29.39.65-62,.66-91.39,0Z" style="fill:#ebebeb"></path><path d="M148.32,340.88a90.23,90.23,0,0,1,0,19.3,90.89,90.89,0,0,1,0-19.3Z" style="fill:#ebebeb"></path><path d="M220.2,340.88a90.23,90.23,0,0,1,0,19.3,90.89,90.89,0,0,1,0-19.3Z" style="fill:#ebebeb"></path><path d="M292.08,340.88a90.23,90.23,0,0,1,0,19.3,90.89,90.89,0,0,1,0-19.3Z" style="fill:#ebebeb"></path><path d="M364,340.88a90.23,90.23,0,0,1,0,19.3,90.89,90.89,0,0,1,0-19.3Z" style="fill:#ebebeb"></path><path d="M112.37,360.1a90.89,90.89,0,0,1,0,19.3,90.23,90.23,0,0,1,0-19.3Z" style="fill:#ebebeb"></path><path d="M184.36,360.1a90.23,90.23,0,0,1,0,19.3,90.89,90.89,0,0,1,0-19.3Z" style="fill:#ebebeb"></path><path d="M328.36,321.17a90.89,90.89,0,0,1,0,19.3,90.23,90.23,0,0,1,0-19.3Z" style="fill:#ebebeb"></path><path d="M248.24,231.89c29.37-.67,62-.65,91.4,0-29.39.65-62,.66-91.4,0Z" style="fill:#ebebeb"></path><path d="M280.59,251.06c29.36-.66,62-.65,91.39,0-29.39.65-62,.66-91.39,0Z" style="fill:#ebebeb"></path><path d="M292.08,251.06a90.23,90.23,0,0,1,0,19.3,90.89,90.89,0,0,1,0-19.3Z" style="fill:#ebebeb"></path><path d="M364,251.06a90.23,90.23,0,0,1,0,19.3,90.89,90.89,0,0,1,0-19.3Z" style="fill:#ebebeb"></path><path d="M328.36,231.35a90.89,90.89,0,0,1,0,19.3,90.23,90.23,0,0,1,0-19.3Z" style="fill:#ebebeb"></path><path d="M117.56,156.7c47.16-.67,99.59-.65,146.78,0-47.2.65-99.61.66-146.78,0Z" style="fill:#ebebeb"></path><path d="M168.38,176c31.69-.66,66.93-.65,98.64,0-31.72.65-66.94.67-98.64,0Z" style="fill:#ebebeb"></path><path d="M220.29,137.4a90.89,90.89,0,0,1,0,19.3,90.23,90.23,0,0,1,0-19.3Z" style="fill:#ebebeb"></path><path d="M184.36,156.7a90.23,90.23,0,0,1,0,19.3,90.89,90.89,0,0,1,0-19.3Z" style="fill:#ebebeb"></path><path d="M351.09,156.7c33.56-.67,70.87-.65,104.46,0-33.59.65-70.89.66-104.46,0Z" style="fill:#ebebeb"></path><path d="M359.58,176c24.59-.67,49.34-.67,73.94,0-24.6.67-49.34.67-73.94,0Z" style="fill:#ebebeb"></path><path d="M411.5,175.78a91,91,0,0,1,0,19.31,89.68,89.68,0,0,1,0-19.31Z" style="fill:#ebebeb"></path><path d="M375.57,156.7a90.23,90.23,0,0,1,0,19.3,90.89,90.89,0,0,1,0-19.3Z" style="fill:#ebebeb"></path><path d="M256.21,156.7a90.23,90.23,0,0,1,0,19.3,90.89,90.89,0,0,1,0-19.3Z" style="fill:#ebebeb"></path><path d="M95.39,231.87c20.31-.67,40.75-.67,61.06,0-20.31.67-40.75.67-61.06,0Z" style="fill:#ebebeb"></path><path d="M81.11,251.17c31.7-.66,66.93-.65,98.65,0-31.72.65-66.95.67-98.65,0Z" style="fill:#ebebeb"></path><path d="M112.4,212.57a90.89,90.89,0,0,1,0,19.3,90.23,90.23,0,0,1,0-19.3Z" style="fill:#ebebeb"></path><path d="M148.32,231.87a90.23,90.23,0,0,1,0,19.3,90.89,90.89,0,0,1,0-19.3Z" style="fill:#ebebeb"></path><circle cx="77.34" cy="177.67" r="8.78" style="fill:#ebebeb"></circle><rect x="63.05" y="97.86" width="28.59" height="85.26" style="fill:#dbdbdb"></rect><rect x="68.16" y="97.86" width="5.88" height="85.26" style="fill:#fff;opacity:0.4"></rect><rect x="75.79" width="3.1" height="97.86" style="fill:#a6a6a6"></rect><rect x="70.2" y="84.51" width="14.3" height="13.35" style="fill:#c7c7c7"></rect><circle cx="125.92" cy="157.67" r="8.78" style="fill:#ebebeb"></circle><rect x="111.63" y="77.86" width="28.59" height="85.26" style="fill:#dbdbdb"></rect><rect x="116.74" y="77.86" width="5.88" height="85.26" style="fill:#fff;opacity:0.4"></rect><rect x="124.37" width="3.1" height="77.86" style="fill:#a6a6a6"></rect><rect x="118.77" y="64.51" width="14.3" height="13.35" style="fill:#c7c7c7"></rect><circle cx="174.5" cy="137.67" r="8.78" style="fill:#ebebeb"></circle><rect x="160.2" y="57.86" width="28.59" height="85.26" style="fill:#dbdbdb"></rect><rect x="165.32" y="57.86" width="5.88" height="85.26" style="fill:#fff;opacity:0.4"></rect><rect x="172.95" width="3.1" height="57.86" style="fill:#a6a6a6"></rect><rect x="167.35" y="44.51" width="14.3" height="13.35" style="fill:#c7c7c7"></rect></g><g id="freepik--Table--inject-175"><path d="M48.8,403c128.9-.61,273.5-.62,402.4,0-128.9.61-273.5.61-402.4,0Z" style="fill:#263238"></path></g><g id="freepik--Shadows--inject-175"><ellipse cx="109.59" cy="449.32" rx="56.44" ry="8.09" style="fill:#ebebeb"></ellipse><ellipse cx="250" cy="441.29" rx="60.61" ry="8.09" style="fill:#ebebeb"></ellipse><ellipse cx="377.93" cy="457.02" rx="60.61" ry="8.09" style="fill:#ebebeb"></ellipse></g><g id="freepik--Character--inject-175"><path d="M214.61,230.41c.2,1.29,2.91,3.28,5.29,4.89a55.87,55.87,0,0,0,6.25,3.62c-.22-7.57.53-15.37,1.1-22.82.67-8.76,1.94-17.3,3.4-25.93,0-.13.22-.1.21,0-.84,8.77-1.37,17.6-2,26.37-.53,7.69-.45,15.49-1,23.18,2.23,1,4.51,1.95,6.81,2.79,0-2.69,0-5.38.05-8.07.13-8.1,1-16.07,1.55-24.14a.14.14,0,1,1,.27,0c-.43,7.86-.19,15.83-.23,23.7,0,3,0,6.07,0,9.11q2.38.8,4.72,1.52c1,.31,2.08.62,3.12.88.14-5.31.59-10.65.87-15.84.46-8.41,1.45-16.75,2-25.15a.21.21,0,1,1,.42,0c-.53,8.36-.51,16.79-.85,25.16-.22,5.38-.21,10.9-.47,16.36A127,127,0,0,0,289,248.83a191.3,191.3,0,0,0,24.64-4.1c2-.44,7-1.75,11.91-3.11.09-2.54.24-5.08.3-7.53.12-5.6.57-11.23.54-16.83a.12.12,0,1,1,.23,0c.21,5.62.76,11.2.8,16.84,0,2.26.08,4.6.07,7,1.76-.49,3.46-1,5-1.43-.41-10.59.43-21.33.64-31.87a.18.18,0,1,1,.35,0c.28,10.36,1.18,20.87.89,31.29a18.11,18.11,0,0,0,3.28-1.23c2.47-1.89,2.92-108.7-2.25-126.23-1.87-6.35-7.84-25.47-30.32-35.47-7.17-3.19-15.75-1.32-23.35-2.72C211.74,60.52,214.26,228.19,214.61,230.41Z" style="fill:#263238"></path><path d="M264.57,239.46C231.79,309,179.25,394.23,153,390.41c-29.27-4.25-6.12-83.31-3.26-86.77,3.21-3.86,44.23-49.86,87.57-83.23C284.82,183.82,272.68,222.26,264.57,239.46Z" style="fill:#c7c7c7"></path><path d="M264.57,239.46C231.79,309,179.25,394.23,153,390.41c-29.27-4.25-6.12-83.31-3.26-86.77,3.21-3.86,44.23-49.86,87.57-83.23C284.82,183.82,272.68,222.26,264.57,239.46Z" style="fill:#ffc4c0"></path><path d="M209.64,236.16l51.08,30.23s12-28.53,15.18-47.59-11.26-23.4-33.24-8.14S209.64,236.16,209.64,236.16Z" style="fill:#4D4D4D"></path><path d="M231,225a3.2,3.2,0,1,0,3.24,3.24A3.23,3.23,0,0,0,231,225Zm0,5.42a2.15,2.15,0,0,1-2.14-2.18,2.17,2.17,0,1,1,4.33,0A2.16,2.16,0,0,1,231,230.41ZM263.4,225a3.2,3.2,0,1,0,3.24,3.24A3.24,3.24,0,0,0,263.4,225Zm0,5.42a2.15,2.15,0,0,1-2.15-2.18,2.17,2.17,0,1,1,4.33,0A2.16,2.16,0,0,1,263.4,230.41Zm-14.57-23.64h0a2.17,2.17,0,0,1-1.2.69h0l-1.4.87a3.12,3.12,0,0,0,1,.15,3.22,3.22,0,0,0,3.17-2.53C249.85,206.21,249.34,206.48,248.83,206.77ZM247.17,249a3.2,3.2,0,0,0,0,6.4,3.2,3.2,0,1,0,0-6.4Zm0,5.39a2.18,2.18,0,0,1-2.15-2.19,2.19,2.19,0,0,1,4.37,0A2.2,2.2,0,0,1,247.17,254.4Z" style="fill:#fff"></path><path d="M261.85,253.13c-16.27-12-35.22-22.15-38.39-24.15-.15-.1-.29.15-.13.24,3.22,1.8,23.59,15.73,38.37,24.17A.15.15,0,0,0,261.85,253.13Z" style="fill:#263238"></path><path d="M275.9,218.8c-3.16,19.06-15.18,47.59-15.18,47.59l-34.6-20.47,44.48-43.36C275.25,204.79,277.3,210.35,275.9,218.8Z" style="opacity:0.1"></path><path d="M206.83,402.76l13.38-75.55s-13.23-21.56-7.5-38.07c6.55-18.88,29.42-64.63,48.63-82.35,24.34-22.46,50-8.56,59.6,5.45,19.23,28,47.15,83.81,62.29,190.55Z" style="fill:#4D4D4D"></path><path d="M376.86,389.66a3.22,3.22,0,0,0-3.16,3.24,3.2,3.2,0,0,0,6.4,0A3.24,3.24,0,0,0,376.86,389.66Zm0,5.43a2.18,2.18,0,0,1-2.15-2.19,2.19,2.19,0,0,1,4.37,0A2.2,2.2,0,0,1,376.86,395.09Zm-32.42-5.43a3.23,3.23,0,0,0-3.17,3.24,3.2,3.2,0,0,0,6.4,0A3.24,3.24,0,0,0,344.44,389.66Zm0,5.43a2.18,2.18,0,0,1-2.15-2.19,2.19,2.19,0,0,1,4.37,0A2.2,2.2,0,0,1,344.44,395.09ZM312,389.66a3.22,3.22,0,0,0-3.16,3.24,3.2,3.2,0,0,0,6.4,0A3.24,3.24,0,0,0,312,389.66Zm0,5.43a2.18,2.18,0,0,1-2.14-2.19,2.19,2.19,0,0,1,4.37,0A2.2,2.2,0,0,1,312,395.09Zm-32.42-5.43a3.22,3.22,0,0,0-3.16,3.24,3.2,3.2,0,0,0,6.4,0A3.24,3.24,0,0,0,279.59,389.66Zm0,5.43a2.18,2.18,0,0,1-2.15-2.19,2.19,2.19,0,0,1,4.37,0A2.2,2.2,0,0,1,279.59,395.09Zm-32.42-5.43A3.23,3.23,0,0,0,244,392.9a3.21,3.21,0,0,0,6.41,0A3.25,3.25,0,0,0,247.17,389.66Zm0,5.43A2.18,2.18,0,0,1,245,392.9a2.19,2.19,0,0,1,4.37,0A2.2,2.2,0,0,1,247.17,395.09Zm-32.43-5.43a3.22,3.22,0,0,0-3.16,3.24,3.2,3.2,0,0,0,6.4,0A3.24,3.24,0,0,0,214.74,389.66Zm0,5.43a2.18,2.18,0,0,1-2.14-2.19,2.19,2.19,0,0,1,4.37,0A2.2,2.2,0,0,1,214.74,395.09Zm129.7-52.31a3.2,3.2,0,1,0,3.23,3.24A3.2,3.2,0,0,0,344.44,342.78Zm0,5.42a2.19,2.19,0,1,1,2.22-2.18A2.18,2.18,0,0,1,344.44,348.2ZM312,342.78a3.2,3.2,0,1,0,3.24,3.24A3.2,3.2,0,0,0,312,342.78Zm0,5.42a2.19,2.19,0,1,1,2.23-2.18A2.18,2.18,0,0,1,312,348.2Zm-32.42-5.42a3.2,3.2,0,1,0,3.24,3.24A3.2,3.2,0,0,0,279.59,342.78Zm0,5.42a2.19,2.19,0,1,1,2.22-2.18A2.18,2.18,0,0,1,279.59,348.2Zm-32.42-5.42a3.2,3.2,0,1,0,3.24,3.24A3.21,3.21,0,0,0,247.17,342.78Zm0,5.42a2.19,2.19,0,1,1,2.22-2.18A2.18,2.18,0,0,1,247.17,348.2ZM217.25,344l-.31,1.73a1.87,1.87,0,0,1,0,.34,2.15,2.15,0,0,1-.27,1h0l-.29,1.66A3.13,3.13,0,0,0,218,346,3.3,3.3,0,0,0,217.25,344Zm143.42,21.73a3.2,3.2,0,1,0,3.24,3.23A3.2,3.2,0,0,0,360.67,365.68Zm0,5.42a2.18,2.18,0,0,1-2.15-2.19,2.19,2.19,0,0,1,4.37,0A2.2,2.2,0,0,1,360.67,371.1Zm-32.43-5.42a3.2,3.2,0,1,0,3.24,3.23A3.24,3.24,0,0,0,328.24,365.68Zm0,5.42a2.15,2.15,0,0,1-2.14-2.19,2.17,2.17,0,1,1,4.33,0A2.16,2.16,0,0,1,328.24,371.1Zm-32.42-5.42a3.2,3.2,0,1,0,3.24,3.23A3.24,3.24,0,0,0,295.82,365.68Zm0,5.42a2.16,2.16,0,0,1-2.15-2.19,2.17,2.17,0,1,1,4.33,0A2.16,2.16,0,0,1,295.82,371.1Zm-32.42-5.42a3.2,3.2,0,1,0,3.24,3.23A3.24,3.24,0,0,0,263.4,365.68Zm0,5.42a2.16,2.16,0,0,1-2.15-2.19,2.17,2.17,0,1,1,4.33,0A2.16,2.16,0,0,1,263.4,371.1ZM231,365.68a3.2,3.2,0,1,0,3.24,3.23A3.23,3.23,0,0,0,231,365.68Zm0,5.42a2.15,2.15,0,0,1-2.14-2.19,2.17,2.17,0,1,1,4.33,0A2.16,2.16,0,0,1,231,371.1Zm113.47-75.2a3.2,3.2,0,1,0,3.23,3.23A3.2,3.2,0,0,0,344.44,295.9Zm0,5.42a2.18,2.18,0,0,1-2.15-2.19,2.19,2.19,0,0,1,4.37,0A2.2,2.2,0,0,1,344.44,301.32ZM312,295.9a3.2,3.2,0,1,0,3.24,3.23A3.2,3.2,0,0,0,312,295.9Zm0,5.42a2.18,2.18,0,0,1-2.14-2.19,2.19,2.19,0,0,1,4.37,0A2.2,2.2,0,0,1,312,301.32Zm-32.42-5.42a3.2,3.2,0,1,0,3.24,3.23A3.2,3.2,0,0,0,279.59,295.9Zm0,5.42a2.18,2.18,0,0,1-2.15-2.19,2.19,2.19,0,0,1,4.37,0A2.2,2.2,0,0,1,279.59,301.32Zm-32.42-5.42a3.2,3.2,0,1,0,3.24,3.23A3.2,3.2,0,0,0,247.17,295.9Zm0,5.42a2.18,2.18,0,0,1-2.15-2.19,2.19,2.19,0,0,1,4.37,0A2.2,2.2,0,0,1,247.17,301.32Zm-32.43-5.42a3.2,3.2,0,1,0,3.24,3.23A3.2,3.2,0,0,0,214.74,295.9Zm0,5.42a2.18,2.18,0,0,1-2.14-2.19,2.19,2.19,0,0,1,4.37,0A2.2,2.2,0,0,1,214.74,301.32Zm145.93,17.47a3.2,3.2,0,1,0,3.24,3.24A3.2,3.2,0,0,0,360.67,318.79Zm0,5.42a2.2,2.2,0,1,1,2.22-2.18A2.2,2.2,0,0,1,360.67,324.21Zm-32.43-5.42a3.2,3.2,0,1,0,3.24,3.24A3.24,3.24,0,0,0,328.24,318.79Zm0,5.42a2.2,2.2,0,1,1,2.19-2.18A2.17,2.17,0,0,1,328.24,324.21Zm-32.42-5.42a3.2,3.2,0,1,0,3.24,3.24A3.24,3.24,0,0,0,295.82,318.79Zm0,5.42A2.2,2.2,0,1,1,298,322,2.18,2.18,0,0,1,295.82,324.21Zm-32.42-5.42a3.2,3.2,0,1,0,3.24,3.24A3.24,3.24,0,0,0,263.4,318.79Zm0,5.42a2.2,2.2,0,1,1,2.18-2.18A2.17,2.17,0,0,1,263.4,324.21ZM231,318.79a3.2,3.2,0,1,0,3.24,3.24A3.23,3.23,0,0,0,231,318.79Zm0,5.42a2.2,2.2,0,1,1,2.19-2.18A2.17,2.17,0,0,1,231,324.21Zm113.12-69.84a2.19,2.19,0,0,1-1.8-2.16,2,2,0,0,1,.32-1.13l-.48-1.05a3.16,3.16,0,0,0-.86,2.18,3.21,3.21,0,0,0,3.17,3.2h.11C344.4,255.06,344.25,254.71,344.09,254.37ZM312,249a3.2,3.2,0,0,0,0,6.4,3.2,3.2,0,1,0,0-6.4Zm0,5.39a2.18,2.18,0,0,1-2.14-2.19,2.19,2.19,0,0,1,4.37,0A2.2,2.2,0,0,1,312,254.4ZM279.59,249a3.2,3.2,0,0,0,0,6.4,3.2,3.2,0,1,0,0-6.4Zm0,5.39a2.18,2.18,0,0,1-2.15-2.19,2.19,2.19,0,0,1,4.37,0A2.2,2.2,0,0,1,279.59,254.4ZM247.17,249a3.2,3.2,0,0,0,0,6.4,3.2,3.2,0,1,0,0-6.4Zm0,5.39a2.18,2.18,0,0,1-2.15-2.19,2.19,2.19,0,0,1,4.37,0A2.2,2.2,0,0,1,247.17,254.4Zm81.07,17.47a3.22,3.22,0,0,0,0,6.44,3.22,3.22,0,1,0,0-6.44Zm0,5.42a2.15,2.15,0,0,1-2.14-2.18,2.17,2.17,0,1,1,4.33,0A2.16,2.16,0,0,1,328.24,277.29Zm-32.42-5.42a3.22,3.22,0,0,0,0,6.44,3.22,3.22,0,1,0,0-6.44Zm0,5.42a2.16,2.16,0,0,1-2.15-2.18,2.17,2.17,0,1,1,4.33,0A2.16,2.16,0,0,1,295.82,277.29Zm-32.42-5.42a3.22,3.22,0,1,0,3.24,3.24A3.27,3.27,0,0,0,263.4,271.87Zm0,5.42a2.15,2.15,0,0,1-2.15-2.18,2.17,2.17,0,1,1,4.33,0A2.16,2.16,0,0,1,263.4,277.29ZM231,271.87a3.22,3.22,0,1,0,3.24,3.24A3.26,3.26,0,0,0,231,271.87Zm0,5.42a2.15,2.15,0,0,1-2.14-2.18,2.17,2.17,0,1,1,4.33,0A2.16,2.16,0,0,1,231,277.29Zm83.21-72.47a2.1,2.1,0,0,1,.06.51,2.19,2.19,0,0,1-4.37,0,2.15,2.15,0,0,1,2.14-2.18h.12c-.39-.3-.79-.59-1.19-.88a3.24,3.24,0,0,0-2.09,3.05,3.2,3.2,0,0,0,6.37.4C314.88,205.42,314.53,205.11,314.18,204.82Zm-34.59-2.73a3.2,3.2,0,1,0,3.24,3.24A3.2,3.2,0,0,0,279.59,202.09Zm0,5.42a2.18,2.18,0,1,1,2.22-2.18A2.17,2.17,0,0,1,279.59,207.51Zm49.54,17.6a3.3,3.3,0,0,0-.89-.12,3.2,3.2,0,0,0,0,6.4,3.25,3.25,0,0,0,3.14-2.4C330.62,227.66,329.87,226.36,329.13,225.11Zm-.89,5.3a2.15,2.15,0,0,1-2.14-2.18,2.17,2.17,0,1,1,4.33,0A2.16,2.16,0,0,1,328.24,230.41ZM295.82,225a3.2,3.2,0,1,0,3.24,3.24A3.24,3.24,0,0,0,295.82,225Zm0,5.42a2.16,2.16,0,0,1-2.15-2.18,2.17,2.17,0,1,1,4.33,0A2.16,2.16,0,0,1,295.82,230.41ZM263.4,225a3.2,3.2,0,1,0,3.24,3.24A3.24,3.24,0,0,0,263.4,225Zm0,5.42a2.15,2.15,0,0,1-2.15-2.18,2.17,2.17,0,1,1,4.33,0A2.16,2.16,0,0,1,263.4,230.41Z" style="fill:#fff"></path><path d="M274.85,320.29a170.74,170.74,0,0,0-25.17,1.22c-4.14.57-8.23,1.32-12.32,2.17-2,.42-4.08.77-6.14,1.11a27.28,27.28,0,0,1-6.5.47.15.15,0,0,0,0,.3,46.91,46.91,0,0,0,6.14.59,45.84,45.84,0,0,0,6-.43c4.21-.54,8.39-1.27,12.59-1.85,8.47-1.17,16.94-2.33,25.49-2.88C275.27,321,275.25,320.29,274.85,320.29Z" style="fill:#263238"></path><path d="M294.56,330A182.4,182.4,0,0,0,274,326.65c-3.45-.36-6.9-.51-10.37-.57-1.66,0-3.32,0-5,0-1.83,0-3.65.29-5.47.28-.19,0-.23.3,0,.3,1.72.06,3.43.4,5.15.55l5.16.46c3.45.31,6.89.66,10.34.94,6.9.55,13.77,1.18,20.66,2C294.88,330.61,294.91,330.08,294.56,330Z" style="fill:#263238"></path><path d="M348.31,345c-2.15-6.73-35.58-89.7-45.17-115.94-8.61-23.56-4.32-33.32,15.5-18.88,36.49,26.6,134.18,138,118.16,164.7C414.56,411.88,348.31,345,348.31,345Z" style="fill:#ffc4c0"></path><path d="M362,239.25l-52.7,27.31s-10.39-29.16-12.48-48.37,12.56-22.73,33.64-6.25S362,239.25,362,239.25Z" style="fill:#4D4D4D"></path><path d="M298,225.79c.23,1.26.49,2.55.76,3.84a2.91,2.91,0,0,0,.35-1.4A3.21,3.21,0,0,0,298,225.79Zm30.29-.8a3.2,3.2,0,1,0,3.24,3.24A3.24,3.24,0,0,0,328.24,225Zm0,5.42a2.15,2.15,0,0,1-2.14-2.18,2.17,2.17,0,1,1,4.33,0A2.16,2.16,0,0,1,328.24,230.41Zm-15-28.07,0,0-.63-.17a2.88,2.88,0,0,0-.59-.06,3.21,3.21,0,1,0,1.27.25ZM312,207.51a2.18,2.18,0,1,1,2.23-2.18A2.17,2.17,0,0,1,312,207.51Zm0,41.5a3.2,3.2,0,0,0,0,6.4,3.2,3.2,0,1,0,0-6.4Zm0,5.39a2.18,2.18,0,0,1-2.14-2.19,2.19,2.19,0,0,1,4.37,0A2.2,2.2,0,0,1,312,254.4Z" style="fill:#fff"></path><path d="M308.91,253.26c16.91-11,36.4-20.13,39.69-21.95.15-.09.28.17.11.25-3.31,1.62-24.43,14.37-39.67,22C308.86,253.62,308.75,253.37,308.91,253.26Z" style="fill:#263238"></path><path d="M315.8,263.19c-2.22,1.43-4.49,2.77-6.76,4.11-.89-2.12-1.73-4.27-2.48-6.44a99.06,99.06,0,0,1-4.68-18.18,106,106,0,0,1,7.9,23.73l-.73-.31c2.24-1,4.47-2,6.75-2.91Z" style="fill:#263238"></path><path d="M300.54,247.16c1.71,3.08,3,6.24,5.41,8.86-3.09-1.82-4.71-5.47-5.41-8.86Z" style="fill:#263238"></path><path d="M435.4,377.13c-12.76,14.3-37.74,15.08-113.5,20.79-10.49.79-36-71.7-24.82-73.12,14.05-1.79,68.95-5.68,73-5.46C404.25,321.21,444.05,367.42,435.4,377.13Z" style="fill:#ffc4c0"></path><path d="M308.93,327.08s-28.82-7.59-45.2-6.89c-21.93.93-40.47,10.77-48,15.36-15.7,9.58-47,43.61-38.82,54.35,7.45,9.72,37.73-26.68,37.73-26.68s-37,32-25.88,42.07,43.86-34.2,43.86-34.2-37.28,33.75-24.17,42.31c9.9,6.46,41.82-31.95,41.82-31.95s-31.84,29.23-21.94,36.32C239.27,425.6,271,392,271,392c28.19,13.78,47.25,8.81,60.39,3.66C334.53,394.41,308.93,327.08,308.93,327.08Z" style="fill:#ffc4c0"></path><path d="M226.73,351.32c-4.49,3.6-9,7.22-13.19,11.21s-8.16,8.13-11.92,12.49c-9.21,10.69-13.31,18.82-13,18.35,7.28-11.23,21.9-25.75,26-29.74s8.08-8.17,12.21-12.16C227,351.37,226.83,351.24,226.73,351.32Z" style="fill:#263238"></path><path d="M241.41,366c-5.53,4.85-11.19,9.46-16.5,14.56s-9.86,10.34-14.78,15.76c-.38.42,0,.49.37.08,5.13-5.22,10.28-9.65,15.48-14.81s10.19-10.52,15.55-15.47C241.62,366.08,241.49,366,241.41,366Z" style="fill:#263238"></path><path d="M256.28,376.39c-8.83,7-16.35,15.58-23.53,24.19-.36.43.1.47.49.05,7.67-8.19,13.63-14.67,23.28-23.93C256.67,376.56,256.46,376.25,256.28,376.39Z" style="fill:#263238"></path><path d="M344.77,320.78c9.86-1.57,19.89-2.65,29.89-1.84,10,1.46,19.12,6.41,27.55,11.73-9.06-3.73-18-8.27-27.77-9.76-8.47-.87-21-.2-29.67-.13Z" style="fill:#263238"></path><path d="M299.73,207.16c-.67,3.42-14.56,24.77-29.94,22-10.82-2-7.64-23.79-7.64-23.79L254.2,175l37.57-25.75S300,205.71,299.73,207.16Z" style="fill:#ffc4c0"></path><path d="M294.64,169.08a59.87,59.87,0,0,1-32.93,34.57L254.19,175l37.58-25.76S293.07,158.21,294.64,169.08Z" style="fill:#263238"></path><path d="M222.53,119.49c-19.3,47.6,7.09,64.53,17.39,68.68,9.34,3.77,41.63,15.41,65.76-30s8.05-69.38-12.86-79.12S241.84,71.87,222.53,119.49Z" style="fill:#ffc4c0"></path><path d="M233.5,117.38a35.27,35.27,0,0,0,3.55.36c1.36.12,2.44.36,3.69-.32a1.84,1.84,0,0,0,.68-2.14c-.69-1.6-2.32-2.16-4-2.38a6.7,6.7,0,0,0-4.72,1A2,2,0,0,0,233.5,117.38Z" style="fill:#263238"></path><path d="M265.73,129.3a33.83,33.83,0,0,1-3.1-1.76c-1.18-.69-2.2-1.12-2.82-2.4a1.81,1.81,0,0,1,.68-2.13c1.49-.91,3.15-.42,4.61.35a6.62,6.62,0,0,1,3.28,3.53A2,2,0,0,1,265.73,129.3Z" style="fill:#263238"></path><path d="M246.25,164.81c-1,.59-2.11,1.49-3.38,1.28a9.34,9.34,0,0,1-3.45-1.79.12.12,0,0,0-.19.14,4.74,4.74,0,0,0,3.86,2.94c1.62.13,2.72-1,3.45-2.33C246.64,164.87,246.4,164.73,246.25,164.81Z" style="fill:#263238"></path><path d="M236,148.29s-2.27,4.79-3,7.15c-.07.22.47.5,1.26.8,0,0,.05,0,.09,0a11.8,11.8,0,0,0,12.24-.75.26.26,0,0,0-.25-.44c-3.84,1.3-7.47.81-11.19-.29,0-.71,4.16-8.07,3.79-8.22-1.26-.51-4.08-.44-5.75-.47,4.44-10.11,10.46-19.42,14.73-29.55.15-.37-.36-.65-.57-.35-7,9.32-12.37,20.84-17.22,31.16C229.53,148.64,235,148.39,236,148.29Z" style="fill:#263238"></path><path d="M236,155.94a12.34,12.34,0,0,0,3.38,5.29,5.53,5.53,0,0,0,3.12,1.34c2.53.22,3.34-1.88,3.57-3.84a13.12,13.12,0,0,0-.05-3.15A16,16,0,0,1,236,155.94Z" style="fill:#263238"></path><path d="M239.42,161.23a5.53,5.53,0,0,0,3.12,1.34c2.53.22,3.34-1.88,3.57-3.84C243.54,158.1,240.49,158.9,239.42,161.23Z" style="fill:#ff9cbd"></path><path d="M260.74,140.29a3.82,3.82,0,0,0,.5,1.12,2.27,2.27,0,0,0,1.59,1c2,.33,3.42-1.48,4.09-3.45.05-.14,0-.25-.12-.17-1.1.8-2.33,1.59-3.42,1.11a4.3,4.3,0,0,1-1.61-1.93A11,11,0,0,1,260.74,140.29Z" style="fill:#263238"></path><path d="M261.89,140a5.28,5.28,0,0,0-.32-2.79,3.81,3.81,0,0,0-2.26-2,3.44,3.44,0,0,0-3.05.52,5.92,5.92,0,0,0-1.75,2.14,12.22,12.22,0,0,0-.62,1.55,7.56,7.56,0,0,0-.31,3.43,11.41,11.41,0,0,1,.89-2.35,16.13,16.13,0,0,1,1.15-1.95c.9-1.26,2.1-2.17,3.19-1.74s1.76,1.59,1.77,3.15a24.66,24.66,0,0,1-.56,4.79A10.94,10.94,0,0,0,261.89,140Z" style="fill:#263238"></path><path d="M230.68,129.76a3.67,3.67,0,0,1-1.08.58,2.21,2.21,0,0,1-1.89-.14c-1.81-1-1.81-3.25-1.15-5.23.05-.14.15-.2.2-.06.39,1.3.88,2.69,2.05,3a4.33,4.33,0,0,0,2.44-.55A11.07,11.07,0,0,0,230.68,129.76Z" style="fill:#263238"></path><path d="M229.92,128.86a5.3,5.3,0,0,1,2-2,3.78,3.78,0,0,1,3-.24,3.45,3.45,0,0,1,2.1,2.26,6.08,6.08,0,0,1,.09,2.77,12.85,12.85,0,0,1-.46,1.61,7.5,7.5,0,0,1-1.83,2.91,11.87,11.87,0,0,0,.72-2.41,14.83,14.83,0,0,0,.27-2.25c0-1.54-.35-3-1.48-3.32s-2.36.2-3.31,1.43a24.23,24.23,0,0,0-2.47,4.14A10.89,10.89,0,0,1,229.92,128.86Z" style="fill:#263238"></path><path d="M301.81,160.31C292.46,159.34,295,138,295,138s-37.2-15.58-33.14-47.88c0,0-13.69,17.38-36.09,21.76,0,0,14.26-37.8,43.23-38.14,0,0,32.65-3.65,47.07,27.78C330.81,133.72,308.09,161,301.81,160.31Z" style="fill:#263238"></path><path d="M262.23,87.74a35.37,35.37,0,0,0-1.62,14.8A36.69,36.69,0,0,0,265,117a30.36,30.36,0,0,0,2,3.22l1.05,1.59c.39.49.81,1,1.22,1.45.84.94,1.64,1.92,2.51,2.83s1.88,1.68,2.83,2.5c.48.4.94.83,1.43,1.22l1.56,1.05,3.1,2.1c2.18,1.2,4.43,2.28,6.66,3.32-2-1.49-4.1-2.75-6.05-4.23l-2.84-2.31L277,128.57c-.44-.42-.85-.87-1.28-1.3-.84-.87-1.69-1.73-2.56-2.57s-1.52-1.87-2.28-2.8l-1.13-1.41-1-1.51a31,31,0,0,1-1.85-3.08,42.09,42.09,0,0,1-4.62-13.58,43.79,43.79,0,0,1-.6-7.25A43.1,43.1,0,0,1,262.23,87.74Z" style="fill:#263238"></path><path d="M295.52,154.88s15.46-12,21.25-6.07S307.65,174.5,298.54,175s-9.78-7.88-9.78-7.88Z" style="fill:#ffc4c0"></path><path d="M312.35,154.36a.12.12,0,0,1,0,.23c-6.45.56-11.1,4.94-14.91,9.79,2.36-1.59,5-2,7.26.86.11.15-.1.34-.25.26-2.2-1.23-4-1.34-6.18.05a25.82,25.82,0,0,0-4.1,3.72c-.42.43-1.27-.13-.89-.66l.09-.12C295.45,161.15,304.28,152.68,312.35,154.36Z" style="fill:#263238"></path><path d="M160.76,387.3C174.55,371.2,185,323.6,180,239.74c-.7-11.61-82.61,2.26-82.5,14.69.13,15.66,4,76.39,4.89,80.8C109.55,372.38,151.41,398.23,160.76,387.3Z" style="fill:#ffc4c0"></path><polygon points="76.92 226.83 74.05 221.45 209.76 151.57 210.4 152.77 76.92 226.83" style="fill:#4D4D4D"></polygon><polygon points="76.92 226.83 74.05 221.45 209.76 151.57 210.4 152.77 76.92 226.83" style="opacity:0.1"></polygon><polygon points="76.92 226.83 92.6 218.14 89.98 213.25 74.05 221.45 76.92 226.83" style="opacity:0.30000000000000004"></polygon><path d="M224.29,158.54c-2.12.45-11.59-.37-19.21-1.07s-19.06,1.59-20.86,1.85-4.25-4.44-3.59-5,14.61-3.38,19.21-3.08,23.37.77,24.36,1.77S225.34,158.32,224.29,158.54Z" style="fill:#4D4D4D"></path><path d="M224.29,158.54c-2.12.45-11.59-.37-19.21-1.07s-19.06,1.59-20.86,1.85-4.25-4.44-3.59-5,14.61-3.38,19.21-3.08,23.37.77,24.36,1.77S225.34,158.32,224.29,158.54Z" style="opacity:0.7000000000000001"></path><polygon points="67.16 206.88 65.02 201.16 208.73 149.7 209.21 150.98 67.16 206.88" style="fill:#4D4D4D"></polygon><polygon points="67.16 206.88 65.02 201.16 208.73 149.7 209.21 150.98 67.16 206.88" style="opacity:0.1"></polygon><polygon points="67.16 206.88 83.84 200.31 81.89 195.12 65.02 201.16 67.16 206.88" style="opacity:0.30000000000000004"></polygon><path d="M99.84,281.33s-1.25-4.82-7.08-31.08c-4-18.15-2.23-64.95,41.15-94.09,16.63-11.17,31.72-4.38,16.51,10.29-10.71,10.32-19,16.56-21.57,20.91,0,0,22.68-2.16,31.3,7.83,3.86,4.47,14.1,16.9,20.69,27.72a52.17,52.17,0,0,1-4.84,4.33,27.74,27.74,0,0,1,1.83,29.51Z" style="fill:#ffc4c0"></path><path d="M91.68,232.31c4.67-8.56,14.87-26.53,28.32-38.33,14.94-13.1,47.26-34.32,56.82-23.19,7,8.16-4.61,17.35-4.61,17.35s15.2-6,19.92,2.8c4.31,8-5.11,14.55-5.11,14.55s9.84-2,12.5,6.46c3.21,10.2-18,12.77-23.64,25.91C174.6,240.81,91.68,232.31,91.68,232.31Z" style="fill:#ffc4c0"></path><path d="M131.22,212.08c5.7-7.33,22.94-20.64,40.6-24.09.4-.07.67.19.32.33a195.49,195.49,0,0,0-40.8,23.9C131.25,212.29,131.15,212.16,131.22,212.08Z" style="fill:#263238"></path><path d="M144.88,226.78c5.58-5.81,24-18.75,42-21.62.4-.07.66.21.31.35C167.34,213,151.7,222.28,145,226.93,144.91,227,144.81,226.86,144.88,226.78Z" style="fill:#263238"></path><path d="M181.29,270.26a207,207,0,0,1,1.16,31.68c-.51,10.54-1.09,21.3-4.41,31.41,1.65-20.66,1.12-42.47,3.25-63.09Z" style="fill:#263238"></path></g><g id="freepik--food-2--inject-175"><path d="M349.79,353.21h0c-.88.3-29.65,10.17-99.77,10.17s-98.89-9.87-99.77-10.17h0s21-8.89,99.79-8.89S349.79,353.21,349.79,353.21Z" style="fill:#263238"></path><path d="M349.79,353.21h0c-.88.3-29.65,10.17-99.77,10.17s-98.89-9.87-99.77-10.17h0s21-8.89,99.79-8.89S349.79,353.21,349.79,353.21Z" style="opacity:0.2"></path><rect x="208.36" y="429.4" width="83.29" height="11.43" style="fill:#263238"></rect><polygon points="291.64 433.31 208.36 434.65 208.36 429.4 291.64 429.4 291.64 433.31" style="opacity:0.2"></polygon><path d="M276.46,347c10.42-2,21-3.7,31.58-2.6,6.31,1.44,11.76,5.18,17.63,7.75l-.05.25a25.67,25.67,0,0,1-6.25-1.37c-3.92-1.23-7.93-2.95-11.83-4.15-6-1.35-12.4-.84-18.53-.64-4.17.19-8.36.45-12.51,1l0-.26Z" style="fill:#4D4D4D"></path><path d="M276.46,347c10.42-2,21-3.7,31.58-2.6,6.31,1.44,11.76,5.18,17.63,7.75l-.05.25a25.67,25.67,0,0,1-6.25-1.37c-3.92-1.23-7.93-2.95-11.83-4.15-6-1.35-12.4-.84-18.53-.64-4.17.19-8.36.45-12.51,1l0-.26Z" style="fill:#fff;opacity:0.7000000000000001"></path><path d="M319,347.54c-7,2.8-14.13,5.37-21.56,5.13-4.5-.92-8.62-4.19-12.92-6.28v-.25A13.36,13.36,0,0,1,289,347c2.83.91,5.75,2.3,8.57,3.17,4.25.86,8.64-.16,12.85-.85a68.92,68.92,0,0,0,8.55-2l0,.25Z" style="fill:#4D4D4D"></path><path d="M319,347.54c-7,2.8-14.13,5.37-21.56,5.13-4.5-.92-8.62-4.19-12.92-6.28v-.25A13.36,13.36,0,0,1,289,347c2.83.91,5.75,2.3,8.57,3.17,4.25.86,8.64-.16,12.85-.85a68.92,68.92,0,0,0,8.55-2l0,.25Z" style="fill:#fff;opacity:0.7000000000000001"></path><path d="M256.9,344.6c6.68-3.65,13.49-7.1,20.9-7.79,4.56.35,9,3.09,13.48,4.63l0,.25a13,13,0,0,1-4.51-.3c-2.91-.55-6-1.56-8.84-2.08-4.32-.32-8.58,1.24-12.69,2.45a70.76,70.76,0,0,0-8.29,3.08l-.07-.24Z" style="fill:#4D4D4D"></path><path d="M256.9,344.6c6.68-3.65,13.49-7.1,20.9-7.79,4.56.35,9,3.09,13.48,4.63l0,.25a13,13,0,0,1-4.51-.3c-2.91-.55-6-1.56-8.84-2.08-4.32-.32-8.58,1.24-12.69,2.45a70.76,70.76,0,0,0-8.29,3.08l-.07-.24Z" style="fill:#fff;opacity:0.7000000000000001"></path><path d="M292.43,351.85c2.89,1.68,6.28.67,9.33.07,9.29-1.79,20.2-5.72,28.94.07l-.1.24c-6.36-1.29-12.62-.48-19-.27-3.21.23-6.38.78-9.61,1.23s-6.85,1-9.65-1.12l.13-.22Z" style="fill:#4D4D4D"></path><path d="M292.43,351.85c2.89,1.68,6.28.67,9.33.07,9.29-1.79,20.2-5.72,28.94.07l-.1.24c-6.36-1.29-12.62-.48-19-.27-3.21.23-6.38.78-9.61,1.23s-6.85,1-9.65-1.12l.13-.22Z" style="fill:#fff;opacity:0.8"></path><path d="M294.39,339.46a170.91,170.91,0,0,0-20.52,4.48c-1.35.51-3.11,1-4.09,2.07a7.11,7.11,0,0,0,2.65,1.44c3.16,1.15,6.68,1.78,10.05,3.06l0,.26a38.13,38.13,0,0,1-10.65-.85c-1.49-.47-3.21-.95-4.09-2.75a3,3,0,0,1,1.72-3.86c4.6-2,9.63-2.45,14.45-3.17,3.5-.39,7-.69,10.5-.93l0,.25Z" style="fill:#4D4D4D"></path><path d="M294.39,339.46a170.91,170.91,0,0,0-20.52,4.48c-1.35.51-3.11,1-4.09,2.07a7.11,7.11,0,0,0,2.65,1.44c3.16,1.15,6.68,1.78,10.05,3.06l0,.26a38.13,38.13,0,0,1-10.65-.85c-1.49-.47-3.21-.95-4.09-2.75a3,3,0,0,1,1.72-3.86c4.6-2,9.63-2.45,14.45-3.17,3.5-.39,7-.69,10.5-.93l0,.25Z" style="fill:#fff;opacity:0.7000000000000001"></path><path d="M260.23,338.82c4.22.22,7.35,4.44,11,5.87,1.82.44,4-.06,5.89-.36,5.15-.9,10.13-2.66,15.34-3.35,3.22-.33,6.51,1.14,9.43,2.27,1.94.72,3.82,1.7,5.86,1.87l0,.26c-4.17.84-8.31-1.19-12.33-1.64s-8,.72-11.94,1.26c-4.19.56-8.41,1.91-12.65.91-2.11-1-3.61-2.58-5.27-3.92a11.3,11.3,0,0,0-5.44-2.92l0-.25Z" style="fill:#4D4D4D"></path><path d="M260.23,338.82c4.22.22,7.35,4.44,11,5.87,1.82.44,4-.06,5.89-.36,5.15-.9,10.13-2.66,15.34-3.35,3.22-.33,6.51,1.14,9.43,2.27,1.94.72,3.82,1.7,5.86,1.87l0,.26c-4.17.84-8.31-1.19-12.33-1.64s-8,.72-11.94,1.26c-4.19.56-8.41,1.91-12.65.91-2.11-1-3.61-2.58-5.27-3.92a11.3,11.3,0,0,0-5.44-2.92l0-.25Z" style="fill:#fff;opacity:0.8"></path><path d="M323.17,351.23c-3-.77-4.91-5.38-7.45-7.28-1.26-.67-2.87-.47-4.25-.41-3.76.21-7.48,1.31-11.27,1.31-2.34-.09-4.57-2-6.58-3.48-1.33-1-2.6-2.2-4.05-2.63v-.26c3.06-.29,5.86,2.27,8.71,3.24s5.77.32,8.65.31c3.06,0,6.19-.79,9.15.76a23.25,23.25,0,0,1,3.46,4.58c1.06,1.57,2.22,3.05,3.67,3.61l0,.25Z" style="fill:#4D4D4D"></path><path d="M323.17,351.23c-3-.77-4.91-5.38-7.45-7.28-1.26-.67-2.87-.47-4.25-.41-3.76.21-7.48,1.31-11.27,1.31-2.34-.09-4.57-2-6.58-3.48-1.33-1-2.6-2.2-4.05-2.63v-.26c3.06-.29,5.86,2.27,8.71,3.24s5.77.32,8.65.31c3.06,0,6.19-.79,9.15.76a23.25,23.25,0,0,1,3.46,4.58c1.06,1.57,2.22,3.05,3.67,3.61l0,.25Z" style="fill:#fff;opacity:0.8"></path><path d="M279.44,333.35a43.35,43.35,0,0,0,6.91,10.29c1.38,1.44,2.86,2.9,4.57,3.12,6.78,1.06,13.94-1.88,20.7.71a18.94,18.94,0,0,1,7.06,6.3l-.16.18c-3.3-2.32-6.64-4.73-10.23-4.78-3.74-.17-7.69-.16-11.64-.22-2.46-.11-5.2,0-7.58-1.14-3.13-1.94-5.17-5.38-7.08-8.6a38.08,38.08,0,0,1-2.77-5.79l.22-.07Z" style="fill:#4D4D4D"></path><path d="M279.44,333.35a43.35,43.35,0,0,0,6.91,10.29c1.38,1.44,2.86,2.9,4.57,3.12,6.78,1.06,13.94-1.88,20.7.71a18.94,18.94,0,0,1,7.06,6.3l-.16.18c-3.3-2.32-6.64-4.73-10.23-4.78-3.74-.17-7.69-.16-11.64-.22-2.46-.11-5.2,0-7.58-1.14-3.13-1.94-5.17-5.38-7.08-8.6a38.08,38.08,0,0,1-2.77-5.79l.22-.07Z" style="fill:#fff;opacity:0.8"></path><path d="M313.1,338.26c-2.46,1.07-5.47,4-7.62,5.77-4.1,3.35-8.59,6.88-13.83,7.75a28.17,28.17,0,0,1-12.91-1.25l0-.26c3.88-.27,7.69-.69,11.52-1a17.07,17.07,0,0,0,6.46-1.44c4.07-1.76,8.23-5,12-7.56A16.2,16.2,0,0,1,313,338l.06.25Z" style="fill:#4D4D4D"></path><path d="M313.1,338.26c-2.46,1.07-5.47,4-7.62,5.77-4.1,3.35-8.59,6.88-13.83,7.75a28.17,28.17,0,0,1-12.91-1.25l0-.26c3.88-.27,7.69-.69,11.52-1a17.07,17.07,0,0,0,6.46-1.44c4.07-1.76,8.23-5,12-7.56A16.2,16.2,0,0,1,313,338l.06.25Z" style="fill:#fff;opacity:0.7000000000000001"></path><path d="M302.61,350.71c-2.6-2.17-6.1-1.78-9.2-1.74-9.42.11-20.77,2-28.54-5.25l.13-.21c6.09,2.41,12.39,2.73,18.75,3.68,3.2.34,6.41.36,9.67.5s6.9.25,9.35,2.83l-.16.19Z" style="fill:#4D4D4D"></path><path d="M302.61,350.71c-2.6-2.17-6.1-1.78-9.2-1.74-9.42.11-20.77,2-28.54-5.25l.13-.21c6.09,2.41,12.39,2.73,18.75,3.68,3.2.34,6.41.36,9.67.5s6.9.25,9.35,2.83l-.16.19Z" style="fill:#fff;opacity:0.8"></path><path d="M172.47,341.24c-4.65.6-8.51,7.85-7.95,11.84s5.28,8.24,9.59,7.87,8.79-5.07,9.63-8.12S180.73,340.17,172.47,341.24Z" style="fill:#455a64"></path><path d="M172.73,342.64c-4,.52-7.3,6.74-6.82,10.17s4.52,7.06,8.22,6.75,7.55-4.35,8.27-7S179.81,341.73,172.73,342.64Z" style="fill:#fff;opacity:0.2"></path><path d="M184.34,336.15c-4.5,1.31-7.18,9.07-6,12.93s6.49,7.32,10.69,6.29,7.91-6.37,8.26-9.52S192.33,333.81,184.34,336.15Z" style="fill:#455a64"></path><path d="M184.81,337.5c-3.86,1.12-6.16,7.78-5.16,11.1s5.56,6.27,9.17,5.39,6.78-5.47,7.09-8.17S191.67,335.49,184.81,337.5Z" style="fill:#fff;opacity:0.2"></path><path d="M192.53,353.22c2.54,3.94,10.74,4.31,14.11,2.09s5.16-8.3,3-12-8.36-5.76-11.48-5.21S188,346.23,192.53,353.22Z" style="fill:#455a64"></path><path d="M193.69,352.39c2.18,3.38,9.22,3.69,12.11,1.78s4.43-7.12,2.56-10.33-7.18-4.94-9.86-4.46S189.81,346.38,193.69,352.39Z" style="fill:#fff;opacity:0.2"></path><path d="M218.65,342.88c1.27-4.51-3.89-10.9-7.79-11.95s-9.64,1.63-11,5.74,1.23,10.08,3.71,12.05S216.41,350.9,218.65,342.88Z" style="fill:#455a64"></path><path d="M217.26,342.57c1.09-3.88-3.34-9.35-6.69-10.26s-8.27,1.4-9.43,4.93,1.06,8.65,3.18,10.34S215.33,349.45,217.26,342.57Z" style="fill:#fff;opacity:0.2"></path><path d="M191.65,356.6c.55-4.66-5.54-10.16-9.55-10.6s-9.27,3.11-10,7.38,2.78,9.77,5.53,11.33S190.67,364.87,191.65,356.6Z" style="fill:#455a64"></path><path d="M190.22,356.51c.47-4-4.75-8.72-8.19-9.1s-8,2.67-8.56,6.33,2.38,8.38,4.75,9.72S189.38,363.6,190.22,356.51Z" style="fill:#fff;opacity:0.2"></path><path d="M231.42,346.64c.55-4.65-5.54-10.16-9.55-10.6s-9.27,3.11-10,7.38,2.78,9.77,5.53,11.33S230.44,354.91,231.42,346.64Z" style="fill:#455a64"></path><path d="M230,346.55c.47-4-4.75-8.72-8.19-9.1s-8,2.67-8.56,6.33,2.38,8.39,4.75,9.73S229.15,353.64,230,346.55Z" style="fill:#fff;opacity:0.2"></path><path d="M192.29,345.82c-4.68,0-9.48,6.63-9.47,10.66s4.11,8.87,8.43,9.09,9.4-3.84,10.65-6.75S200.62,345.87,192.29,345.82Z" style="fill:#455a64"></path><path d="M192.36,347.24c-4,0-8.14,5.69-8.13,9.16s3.53,7.61,7.24,7.79,8.06-3.29,9.13-5.79S199.5,347.29,192.36,347.24Z" style="fill:#fff;opacity:0.2"></path><path d="M207.84,343.39c-4.65.6-8.51,7.85-8,11.84s5.27,8.23,9.59,7.87,8.79-5.07,9.63-8.13S216.1,342.32,207.84,343.39Z" style="fill:#455a64"></path><path d="M208.09,344.79c-4,.52-7.29,6.74-6.82,10.17s4.53,7.06,8.23,6.75,7.55-4.36,8.27-7S215.18,343.87,208.09,344.79Z" style="fill:#fff;opacity:0.2"></path><path d="M242.72,339.82c-11.63.11-42,4.87-40.4,9.9s20.59,4.56,25.94,5.82,17.6,3.77,24.68,2.51,24.68-5.66,33-5.66,11.83-.47,11.79-3.29C297.68,344.71,275.73,339.5,242.72,339.82Z" style="fill:#fff"></path><path d="M242.72,339.82a149.26,149.26,0,0,0-24.65,3.08c-3.26.74-22.48,4.56-12.92,9,6.83,2.47,14.28,2.05,21.43,3,6.08,1.12,12.19,2.59,18.37,2.95a37.2,37.2,0,0,0,12.2-1.09c8.11-1.66,16.21-3.54,24.5-4.47,4.12-.5,8.32,0,12.39-.6a5.64,5.64,0,0,0,2.72-1c1.8-1.72-.39-3.37-2-4.13-4.65-2.24-9.8-3.21-14.86-4.14a217.93,217.93,0,0,0-37.16-2.56Zm0,0a232.65,232.65,0,0,1,37.21,2.25c5.1.86,10.32,1.76,15.06,4,2,.9,4.39,2.92,2.2,5.11a6.44,6.44,0,0,1-3,1.18c-4.18.7-8.35.24-12.42.77-8.2,1-16.28,2.9-24.39,4.6a38.16,38.16,0,0,1-12.47,1c-6.24-.41-12.32-1.86-18.41-3.1-7.15-1-14.65-.7-21.5-3.3-15.06-7.74,33.95-12.95,37.75-12.5Z" style="fill:#263238"></path><path d="M249.29,334.38c-12.21,0-19.33,5-19.33,7.23s9.63,4.57,19.33,4.57,18.63-2.21,18.63-4.88S261.22,334.38,249.29,334.38Z" style="fill:#4D4D4D"></path><path d="M267.92,341.3c0,2.67-8.93,4.89-18.63,4.89S230,343.81,230,341.61a1.41,1.41,0,0,1,.08-.43c.91,1.85,9,3.73,17.17,3.73,8.65,0,16.62-2,16.62-4.36s-5.55-5.9-15.48-6.15c.32,0,.63,0,.94,0C261.22,334.38,267.92,338.62,267.92,341.3Z" style="opacity:0.1"></path><g style="opacity:0.4"><path d="M233.73,339.14c-.3-.75,6.29-3.36,9.51-3.36,1.18,0-1.44,3.09-2.88,3.54S234.16,340.19,233.73,339.14Z" style="fill:#fff"></path><path d="M244.66,335.49c-.08-.6,4.79-.62,5-.2s-1.63,1.2-2.48,1.17S244.74,336.18,244.66,335.49Z" style="fill:#fff"></path></g><path d="M330.42,343.87l1.63-5.23s-18,9.16-34.92,13.58-35.71,1.7-35.71,1.7l1.66,3.83s22.06.68,34.06-2.35C311.81,351.71,330.42,343.87,330.42,343.87Z" style="fill:#4D4D4D"></path><path d="M330.42,343.87l1.63-5.23s-18,9.16-34.92,13.58-35.71,1.7-35.71,1.7l1.66,3.83s22.06.68,34.06-2.35C311.81,351.71,330.42,343.87,330.42,343.87Z" style="opacity:0.2"></path><path d="M275.78,357.91l-3.31-4.22s19.93,1.49,37.16-1,33.84-12.34,33.84-12.34l-.24,4.21s-20.3,9.23-32.51,11.1C295.79,358,275.78,357.91,275.78,357.91Z" style="fill:#4D4D4D"></path><path d="M275.78,357.91l-3.31-4.22s19.93,1.49,37.16-1,33.84-12.34,33.84-12.34l-.24,4.21s-20.3,9.23-32.51,11.1C295.79,358,275.78,357.91,275.78,357.91Z" style="opacity:0.2"></path><path d="M257.75,355.68l-2.16-5s18.88,7,36.11,9.44,35.68-2.46,35.68-2.46l-1.26,4s-21.85,3.24-34.09,1.63C277.06,361.31,257.75,355.68,257.75,355.68Z" style="fill:#4D4D4D"></path><path d="M257.75,355.68l-2.16-5s18.88,7,36.11,9.44,35.68-2.46,35.68-2.46l-1.26,4s-21.85,3.24-34.09,1.63C277.06,361.31,257.75,355.68,257.75,355.68Z" style="opacity:0.2"></path><path d="M270,352.73l-2.26-4.92s19,6.31,36.31,8.1,35.65-3.77,35.65-3.77l-1.18,4s-21.81,4-34.08,2.88C289.38,357.65,270,352.73,270,352.73Z" style="fill:#4D4D4D"></path><path d="M270,352.73l-2.26-4.92s19,6.31,36.31,8.1,35.65-3.77,35.65-3.77l-1.18,4s-21.81,4-34.08,2.88C289.38,357.65,270,352.73,270,352.73Z" style="opacity:0.2"></path><path d="M275.72,361.84,272,358.07s19.95-1.08,36.78-5.74,32.2-16.6,32.2-16.6l.24,4.22s-19.12,11.76-31,15.18C295.6,359.32,275.72,361.84,275.72,361.84Z" style="fill:#4D4D4D"></path><path d="M275.72,361.84,272,358.07s19.95-1.08,36.78-5.74,32.2-16.6,32.2-16.6l.24,4.22s-19.12,11.76-31,15.18C295.6,359.32,275.72,361.84,275.72,361.84Z" style="opacity:0.30000000000000004"></path><path d="M281,357.9l-3.14-4.38s19.85,2.42,37.17.75,34.3-10.76,34.3-10.76l-.4,4.2s-20.66,8.27-32.94,9.57C300.94,358.87,281,357.9,281,357.9Z" style="fill:#4D4D4D"></path><path d="M281,357.9l-3.14-4.38s19.85,2.42,37.17.75,34.3-10.76,34.3-10.76l-.4,4.2s-20.66,8.27-32.94,9.57C300.94,358.87,281,357.9,281,357.9Z" style="opacity:0.30000000000000004"></path><path d="M325.64,355.68l2.2-5s-18.93,6.83-36.18,9.11S256,357,256,357l1.23,4s21.82,3.43,34.08,1.93C306.29,361.14,325.64,355.68,325.64,355.68Z" style="fill:#4D4D4D"></path><path d="M325.64,355.68l2.2-5s-18.93,6.83-36.18,9.11S256,357,256,357l1.23,4s21.82,3.43,34.08,1.93C306.29,361.14,325.64,355.68,325.64,355.68Z" style="opacity:0.30000000000000004"></path><path d="M251.28,365.5,248,361.3s19.93,1.36,37.15-1.22,33.76-12.56,33.76-12.56l-.21,4.22S298.4,361.1,286.2,363C271.29,365.42,251.28,365.5,251.28,365.5Z" style="fill:#4D4D4D"></path><path d="M251.28,365.5,248,361.3s19.93,1.36,37.15-1.22,33.76-12.56,33.76-12.56l-.21,4.22S298.4,361.1,286.2,363C271.29,365.42,251.28,365.5,251.28,365.5Z" style="opacity:0.2"></path><path d="M218,357.43c-.45-.37.82-4.76,1.91-5s16.7,4.61,19.32,5.25,20.93-.1,21.75.58,1.09,4.71.24,5.23-19.35.83-22.91.25S219.51,358.72,218,357.43Z" style="fill:#4D4D4D"></path><path d="M218,357.43c-.45-.37.82-4.76,1.91-5s16.7,4.61,19.32,5.25,20.93-.1,21.75.58,1.09,4.71.24,5.23-19.35.83-22.91.25S219.51,358.72,218,357.43Z" style="opacity:0.7000000000000001"></path><path d="M164.8,352.71c.36-1,2.1-5,3.64-5.63s13,9.75,20.15,11.59,23.39,1.15,27.07,1.8,6.39,4.91,5.74,5.45-19.6.87-25.88.44-18.31-5.74-20.47-6.93S164.29,354.13,164.8,352.71Z" style="fill:#4D4D4D"></path><path d="M164.8,352.71c.36-1,2.1-5,3.64-5.63s13,9.75,20.15,11.59,23.39,1.15,27.07,1.8,6.39,4.91,5.74,5.45-19.6.87-25.88.44-18.31-5.74-20.47-6.93S164.29,354.13,164.8,352.71Z" style="opacity:0.8"></path><path d="M203.24,364.61c-.19-1.07-.66-5.32.26-6.45s14.42,3.62,20.76,2.48,18.54-8.11,21.67-9,7.14,1.89,6.89,2.63-14.71,8.42-19.75,10.49-16.69,2-18.9,1.81S203.49,366.07,203.24,364.61Z" style="fill:#4D4D4D"></path><path d="M203.24,364.61c-.19-1.07-.66-5.32.26-6.45s14.42,3.62,20.76,2.48,18.54-8.11,21.67-9,7.14,1.89,6.89,2.63-14.71,8.42-19.75,10.49-16.69,2-18.9,1.81S203.49,366.07,203.24,364.61Z" style="opacity:0.8"></path><path d="M200.14,352c2.47-.05,13.15,2.5,21.73,4.59s21.92,1.92,24,2,4.25,5.19,3.42,5.67-17.09.68-22.29-.47-26.51-5.05-27.51-6.22S198.92,352,200.14,352Z" style="fill:#4D4D4D"></path><path d="M200.14,352c2.47-.05,13.15,2.5,21.73,4.59s21.92,1.92,24,2,4.25,5.19,3.42,5.67-17.09.68-22.29-.47-26.51-5.05-27.51-6.22S198.92,352,200.14,352Z" style="opacity:0.8"></path><path d="M172.56,357.72c2.7-1,18.1-2.07,24.35-3.15s22.9-5.77,23.5-5.7,6.58,2.59,5.75,3.54-17.93,6.36-27,7.58-28.06,2.91-29.14,2.16S171.12,358.27,172.56,357.72Z" style="fill:#4D4D4D"></path><path d="M172.56,357.72c2.7-1,18.1-2.07,24.35-3.15s22.9-5.77,23.5-5.7,6.58,2.59,5.75,3.54-17.93,6.36-27,7.58-28.06,2.91-29.14,2.16S171.12,358.27,172.56,357.72Z" style="opacity:0.7000000000000001"></path><path d="M198.24,363.43c-.52-.27-.2-4.83.81-5.27s17.3,1,20,1.08,20.44-4.49,21.38-4,2.06,4.37,1.34,5.07-18.75,4.87-22.35,5S200,364.36,198.24,363.43Z" style="fill:#4D4D4D"></path><path d="M198.24,363.43c-.52-.27-.2-4.83.81-5.27s17.3,1,20,1.08,20.44-4.49,21.38-4,2.06,4.37,1.34,5.07-18.75,4.87-22.35,5S200,364.36,198.24,363.43Z" style="opacity:0.7000000000000001"></path><path d="M176.7,344.09c-.16-.57,3.36-3.48,4.37-3s11.23,13.2,13.05,15.2,17.36,11.68,17.66,12.69S210,373.45,209,373.4,192.57,363.21,190,360.73,177.26,346,176.7,344.09Z" style="fill:#4D4D4D"></path><path d="M176.7,344.09c-.16-.57,3.36-3.48,4.37-3s11.23,13.2,13.05,15.2,17.36,11.68,17.66,12.69S210,373.45,209,373.4,192.57,363.21,190,360.73,177.26,346,176.7,344.09Z" style="opacity:0.7000000000000001"></path><path d="M206.37,355.35c-2,.76-11.51,1.41-19.14,1.89s-18.59,4.49-20.33,5-4.88-3.74-4.33-4.44,13.92-5.59,18.52-6,23.21-2.83,24.34-2S207.38,355,206.37,355.35Z" style="fill:#4D4D4D"></path><path d="M206.37,355.35c-2,.76-11.51,1.41-19.14,1.89s-18.59,4.49-20.33,5-4.88-3.74-4.33-4.44,13.92-5.59,18.52-6,23.21-2.83,24.34-2S207.38,355,206.37,355.35Z" style="opacity:0.8"></path><path d="M349.79,353.21s-8.06,52.45-33.14,66.53c-22.1,12.39-45.95,13.67-66.65,13.67s-44.55-1.28-66.65-13.67c-25.08-14.08-33.14-66.53-33.14-66.53s28.55,10.18,99.79,10.18S349.79,353.21,349.79,353.21Z" style="fill:#263238"></path><path d="M349.79,353.21s-8.06,52.45-33.14,66.53c-22.1,12.39-45.95,13.67-66.65,13.67s-44.55-1.28-66.65-13.67c-25.08-14.08-33.14-66.53-33.14-66.53h0c.88.3,29.65,10.17,99.77,10.17s98.89-9.87,99.77-10.17Z" style="fill:#263238"></path><path d="M347,366.5c-.24,1-.52,2.05-.81,3.12-4.07,1-10.09,2.23-18.19,3.5-15.3,2.39-41.24,5.23-78,5.23s-62.68-2.84-78-5.23c-8.1-1.27-14.12-2.52-18.19-3.5-.29-1.07-.57-2.12-.81-3.12,4,1,10.48,2.42,19.56,3.83,15.18,2.37,40.94,5.18,77.42,5.18s62.24-2.81,77.42-5.18C336.5,368.92,343,367.5,347,366.5Z" style="fill:#4D4D4D"></path><path d="M344.39,375.8c-.32,1-.65,2.08-1,3.14-3.87.85-9,1.85-15.4,2.85-15.3,2.39-41.24,5.24-78,5.24s-62.68-2.85-78-5.24c-6.42-1-11.53-2-15.4-2.85-.36-1.06-.69-2.11-1-3.14,4,.92,9.63,2.08,17,3.21,15.18,2.37,40.94,5.18,77.42,5.18s62.24-2.81,77.42-5.18C334.76,377.88,340.39,376.72,344.39,375.8Z" style="fill:#4D4D4D"></path></g><g id="freepik--food-3--inject-175"><rect x="341.63" y="449.33" width="72.6" height="5.92" transform="translate(755.87 904.57) rotate(180)" style="fill:#455a64"></rect><polygon points="303.06 444.62 452.8 444.62 433.28 414.43 322.58 414.43 303.06 444.62" style="fill:#455a64"></polygon><path d="M452.8,444.62H303.06s27.67,7.16,76.14,7.16S452.8,444.62,452.8,444.62Z" style="fill:#37474f"></path><path d="M382.71,393.21a2,2,0,0,1,.39-1.24c.45-.61,1.68-.25,2-.8s.72-2.19,1.46-2.77,2.11,0,3-.6,1-1.53,1.86-2.18,2,.14,3.08-.37,2-2.41,3-2.73,2.52.27,3.38.12,2.39-1.56,3.78-1.22,5.2,3.56,7.7,6.79a25.32,25.32,0,0,1,12,5.41c5.28,4.57,9.1,13.43,9.1,13.43s1,.53,1.05,1.11a2.57,2.57,0,0,1-.42,1.36,2.9,2.9,0,0,1,.51,2.32,5.68,5.68,0,0,1-1.11,1.86s.61,2.18-2.76,5.23-10.09,7.64-11.4,8.07a4,4,0,0,1-2.6-.13s-5,2.83-15.58,1.25a9.43,9.43,0,0,1-4.55-.55s-3.15.15-4.93-1.23a12.31,12.31,0,0,1-6.57-3.24,16.45,16.45,0,0,1-7.29.18c-1.23-.33-6.12-10.1-6.43-11.21,0,0-13.34-5-18.71-13.56-.44-.69,1-1.33,1.68-1.82a17,17,0,0,1,2.83-2.46c.42-.22,2.09.4,3.52-.42s1.85-2.48,2.16-2.61a6.35,6.35,0,0,0,3.1-1.47c1.12-1.18.94-3.09,1.09-3.37s1.91-1.42,2.56-3a10.66,10.66,0,0,0,.47-3.67,18.85,18.85,0,0,0,1.14-1.88,17,17,0,0,1,1.38-2.7c.4-.56,1.14-1.46,1.83-1.28S381.26,384.06,382.71,393.21Z" style="fill:#4D4D4D"></path><path d="M382.71,393.21a2,2,0,0,1,.39-1.24c.45-.61,1.68-.25,2-.8s.72-2.19,1.46-2.77,2.11,0,3-.6,1-1.53,1.86-2.18,2,.14,3.08-.37,2-2.41,3-2.73,2.52.27,3.38.12,2.39-1.56,3.78-1.22,5.2,3.56,7.7,6.79a25.32,25.32,0,0,1,12,5.41c5.28,4.57,9.1,13.43,9.1,13.43s1,.53,1.05,1.11a2.57,2.57,0,0,1-.42,1.36,2.9,2.9,0,0,1,.51,2.32,5.68,5.68,0,0,1-1.11,1.86s.61,2.18-2.76,5.23-10.09,7.64-11.4,8.07a4,4,0,0,1-2.6-.13s-5,2.83-15.58,1.25a9.43,9.43,0,0,1-4.55-.55s-3.15.15-4.93-1.23a12.31,12.31,0,0,1-6.57-3.24,16.45,16.45,0,0,1-7.29.18c-1.23-.33-6.12-10.1-6.43-11.21,0,0-13.34-5-18.71-13.56-.44-.69,1-1.33,1.68-1.82a17,17,0,0,1,2.83-2.46c.42-.22,2.09.4,3.52-.42s1.85-2.48,2.16-2.61a6.35,6.35,0,0,0,3.1-1.47c1.12-1.18.94-3.09,1.09-3.37s1.91-1.42,2.56-3a10.66,10.66,0,0,0,.47-3.67,18.85,18.85,0,0,0,1.14-1.88,17,17,0,0,1,1.38-2.7c.4-.56,1.14-1.46,1.83-1.28S381.26,384.06,382.71,393.21Z" style="opacity:0.1"></path><path d="M382.71,393.21a2,2,0,0,1,.39-1.24c.45-.61,1.68-.25,2-.8s.72-2.19,1.46-2.77,2.11,0,3-.6,1-1.53,1.86-2.18,2,.14,3.08-.37,2-2.41,3-2.73,2.52.27,3.38.12,2.39-1.56,3.78-1.22,5.2,3.56,7.7,6.79a25.32,25.32,0,0,1,12,5.41c5.28,4.57,9.1,13.43,9.1,13.43s1,.53,1.05,1.11a2.57,2.57,0,0,1-.42,1.36,2.9,2.9,0,0,1,.51,2.32,5.68,5.68,0,0,1-1.11,1.86s.61,2.18-2.76,5.23-10.09,7.64-11.4,8.07a4,4,0,0,1-2.6-.13s-5,2.83-15.58,1.25a9.43,9.43,0,0,1-4.55-.55s-3.15.15-4.93-1.23a12.31,12.31,0,0,1-6.57-3.24,16.45,16.45,0,0,1-7.29.18c-1.23-.33-6.12-10.1-6.43-11.21,0,0-13.34-5-18.71-13.56-.44-.69,1-1.33,1.68-1.82a17,17,0,0,1,2.83-2.46c.42-.22,2.09.4,3.52-.42s1.85-2.48,2.16-2.61a6.35,6.35,0,0,0,3.1-1.47c1.12-1.18.94-3.09,1.09-3.37s1.91-1.42,2.56-3a10.66,10.66,0,0,0,.47-3.67,18.85,18.85,0,0,0,1.14-1.88,17,17,0,0,1,1.38-2.7c.4-.56,1.14-1.46,1.83-1.28S381.26,384.06,382.71,393.21Z" style="fill:#fff;opacity:0.2"></path><path d="M389.39,425.75h0l.05,0Z" style="fill:#fff;opacity:0.30000000000000004"></path><path d="M401.6,382.34a1.65,1.65,0,0,1,.3,0c1.36.35,5.11,3.48,7.58,6.61a25.38,25.38,0,0,1,11.8,5.28c5.2,4.45,9,13,9,13s1,.52,1,1.08c.15.89-1.95,2.1-1.95,2.1s2,.74,2.29,1.84c.37,1.43-1.27,2.65-1.27,2.65s.56.88-2.73,3.8-9.87,7.33-11.15,7.75a3.9,3.9,0,0,1-2.54-.15s-4.85,2.72-15.27,1.14a9.33,9.33,0,0,1-4.47-.56,11.06,11.06,0,0,1-1.72-.1,9.9,9.9,0,0,0,4.09.72,9.39,9.39,0,0,0,4.54.55c10.62,1.58,15.59-1.25,15.59-1.25a4.06,4.06,0,0,0,2.6.13c1.31-.43,8-5,11.41-8.07s2.75-5.23,2.75-5.23a5.47,5.47,0,0,0,1.11-1.87,2.93,2.93,0,0,0-.51-2.31,2.64,2.64,0,0,0,.43-1.36c-.09-.58-1.06-1.11-1.06-1.11s-3.82-8.86-9.09-13.42a25.33,25.33,0,0,0-12-5.42c-2.5-3.24-6.31-6.45-7.7-6.79C403.59,381.17,402.46,381.91,401.6,382.34Z" style="fill:#fff;opacity:0.30000000000000004"></path><path d="M372.58,375.07a.18.18,0,0,0-.05.07c1.44,1.68,8,10.11,9.37,18.15,0-.16.33.12.81-.08-1.51-9.51-7.61-19.21-8.29-19.42S373,374.51,372.58,375.07Z" style="fill:#fff;opacity:0.30000000000000004"></path><path d="M352.66,398.52c5.37,8.54,18.72,13.55,18.72,13.55.3,1.12,5.19,10.89,6.42,11.21a16.27,16.27,0,0,0,7.29-.18,12.36,12.36,0,0,0,6.49,3.24l.1,0a18.32,18.32,0,0,1-6.19-4.23s-5.07.77-6.87-.26S372,410.14,372,410.14c-10.81-5.67-15.42-11.65-16.95-14.1a6.29,6.29,0,0,1-.71.65C353.69,397.18,352.22,397.83,352.66,398.52Z" style="opacity:0.1"></path><g style="opacity:0.15"><path d="M434.08,409.52c-1.9-.28-3.79.53-5.48,1.3-2.57,1.12-4.92,2.74-7.58,3.62-.47.15-.73,0-1.1-.29a12.94,12.94,0,0,1-2.9-3,13.63,13.63,0,0,1-1.41-2.43,12.36,12.36,0,0,0,2.94,4.84,4.9,4.9,0,0,0,2,1.41,8.47,8.47,0,0,0,3.28-1.15c1.69-.85,3.32-1.79,5-2.65a11.38,11.38,0,0,1,5.28-1.69Z"></path><path d="M433.48,413.7a3.8,3.8,0,0,1-1.53.69c-1.65.46-3.33.77-5,1.16-1.12.24-2.23.5-3.35.7a7.87,7.87,0,0,1-2.51.15,1.15,1.15,0,0,1-.72-.41,1.15,1.15,0,0,0,.68.54,6.75,6.75,0,0,0,2.61.13,32.81,32.81,0,0,0,3.41-.58,26.17,26.17,0,0,0,5-1.41,3.1,3.1,0,0,0,1.43-1Z"></path><path d="M422.47,423.73c-2.05-.07-4.15-2.43-5.61-3.75-1.59-1.55-3.48-3.17-3.48-5.55-.1-1.54-.12-3.09-.15-4.63a34.36,34.36,0,0,0-.29,4.65c-.13,2.54,1.84,4.33,3.56,5.91,1.52,1.32,3.82,3.59,6,3.37Z"></path><path d="M411.38,400.68c-1.88,3.83-4.4,9.72-3.81,14a9.67,9.67,0,0,0,1.69,3.32c.7,1,1.43,2,2.2,2.92,1.53,1.89,3.16,3.69,4.87,5.42a89.19,89.19,0,0,1-7.58-10.17c-2.23-3.19,1.3-12,2.63-15.5Z"></path><path d="M422.25,401.76a2.26,2.26,0,1,1-4.12.27,2.26,2.26,0,0,1,4.12-.27Zm0,0a2,2,0,1,0-2.44,2.76,2,2,0,0,0,2.44-2.76Z"></path><path d="M423.52,401.1a3.68,3.68,0,1,1-6.75.5,3.69,3.69,0,0,1,6.75-.5Zm0,0a3.4,3.4,0,1,0-4.13,4.78,3.41,3.41,0,0,0,4.13-4.78Z"></path><path d="M425.56,402.26c-.09-6.1-8.19-7.75-10.87-2.36a5.68,5.68,0,0,0,5.49,8.16,5.48,5.48,0,1,1,5.38-5.8Z"></path><path d="M408.08,389.31a25.19,25.19,0,0,0-5.46-5.3,25.41,25.41,0,0,0,5.46,5.3Z"></path><path d="M406.43,389.61a28.34,28.34,0,0,0-5.82-5.65,28.6,28.6,0,0,0,5.82,5.65Z"></path><path d="M404.77,389.9a29.19,29.19,0,0,0-5.88-5.71,29.2,29.2,0,0,0,5.88,5.71Z"></path><path d="M403.11,390.19a28.93,28.93,0,0,0-5.88-5.71,29.19,29.19,0,0,0,5.88,5.71Z"></path><path d="M401.46,390.48a25.23,25.23,0,0,0-5.47-5.3,25.23,25.23,0,0,0,5.47,5.3Z"></path><path d="M399.8,390.78a20.06,20.06,0,0,0-4.89-4.75,20.24,20.24,0,0,0,4.89,4.75Z"></path><path d="M398.14,391.07a22.12,22.12,0,0,0-5.11-5,22.32,22.32,0,0,0,5.11,5Z"></path><path d="M396.49,391.36a21,21,0,0,0-5-4.84,20.85,20.85,0,0,0,5,4.84Z"></path><path d="M394.83,391.66a14.27,14.27,0,0,0-4.12-4,14.53,14.53,0,0,0,4.12,4Z"></path><path d="M393.17,392a11,11,0,0,0-3.59-3.49,11.08,11.08,0,0,0,3.59,3.49Z"></path><path d="M391.52,392.24a12.45,12.45,0,0,0-3.81-3.7,12.23,12.23,0,0,0,3.81,3.7Z"></path><path d="M389.86,392.54a9.4,9.4,0,0,0-3.33-3.24,9.56,9.56,0,0,0,3.33,3.24Z"></path><path d="M388.21,392.83a5.38,5.38,0,0,0-2.49-2.41,5.34,5.34,0,0,0,2.49,2.41Z"></path><path d="M386.55,393.12a2.28,2.28,0,0,0-1.59-1.54,2.28,2.28,0,0,0,1.59,1.54Z"></path><path d="M384.89,393.41a1.61,1.61,0,0,0-1.31-1.27,1.61,1.61,0,0,0,1.31,1.27Z"></path><path d="M376.76,401.16c-3,.1-4.31,4.15-1.74,5.82a3.66,3.66,0,0,1,1.74-5.82Z"></path><path d="M380.32,401.71c-3,.1-4.32,4.15-1.74,5.82a3.66,3.66,0,0,1,1.74-5.82Z"></path><path d="M383.84,402.69c-3,.1-4.31,4.14-1.74,5.82a3.66,3.66,0,0,1,1.74-5.82Z"></path><path d="M379.68,397.55c-3,.1-4.31,4.15-1.74,5.82a3.66,3.66,0,0,1,1.74-5.82Z"></path><path d="M383.29,398.55c-3,.1-4.31,4.15-1.74,5.82a3.66,3.66,0,0,1,1.74-5.82Z"></path><path d="M386.17,395.53c-3,.1-4.31,4.15-1.74,5.82a3.66,3.66,0,0,1,1.74-5.82Z"></path><path d="M377.47,405.06c-3,.1-4.31,4.15-1.74,5.82a3.66,3.66,0,0,1,1.74-5.82Z"></path><path d="M380.88,405.76c-3,.1-4.31,4.15-1.74,5.83a3.66,3.66,0,0,1,1.74-5.83Z"></path><path d="M382.24,413.91c-3,.11-4.31,4.15-1.74,5.83a3.67,3.67,0,0,1,1.74-5.83Z"></path><path d="M385.55,415.21c-3,.34-4,4.48-1.27,5.94a3.66,3.66,0,0,1,1.27-5.94Z"></path><path d="M387.8,408.22c-3,.16-4.24,4.23-1.64,5.86a3.67,3.67,0,0,1,1.64-5.86Z"></path><path d="M390.17,400.73c-3,.12-4.29,4.18-1.7,5.84a3.67,3.67,0,0,1,1.7-5.84Z"></path><path d="M392.48,394.41c-2.82-.08-4.46,3.8-2.25,5.64a3.74,3.74,0,0,1-.52-1.68,4,4,0,0,1,2.77-4Z"></path><path d="M386.77,399.59c-3,.1-4.32,4.15-1.74,5.82a3.66,3.66,0,0,1,1.74-5.82Z"></path><path d="M384.43,406.75c-3,.1-4.31,4.14-1.74,5.82a3.66,3.66,0,0,1,1.74-5.82Z"></path><path d="M378,409.32c-3,.1-4.32,4.15-1.74,5.82a3.66,3.66,0,0,1,1.74-5.82Z"></path><path d="M381.46,410.09c-3,.1-4.31,4.15-1.74,5.82a3.66,3.66,0,0,1,1.74-5.82Z"></path><path d="M387.26,403.93c-3,.1-4.31,4.15-1.74,5.83a3.66,3.66,0,0,1,1.74-5.83Z"></path><path d="M390.68,405c-3,.1-4.32,4.15-1.74,5.82a3.66,3.66,0,0,1,1.74-5.82Z"></path><path d="M394.16,406.11c-3,.1-4.31,4.15-1.73,5.82a3.66,3.66,0,0,1,1.73-5.82Z"></path><path d="M389.7,396.85c-3,0-4.48,4-2,5.75a3.66,3.66,0,0,1,2-5.75Z"></path><path d="M393.09,397.71c-3,0-4.48,4-2,5.74a3.66,3.66,0,0,1,2-5.74Z"></path><path d="M396.49,398.75c-3,0-4.48,4-2,5.75a3.67,3.67,0,0,1,2-5.75Z"></path><path d="M385,411.3c-3,.1-4.32,4.14-1.74,5.82A3.66,3.66,0,0,1,385,411.3Z"></path><path d="M388.45,412.39a3.2,3.2,0,0,0-1.73,5.82,3.66,3.66,0,0,1,1.73-5.82Z"></path><path d="M391.78,413.66a3.21,3.21,0,0,0-1.73,5.83,3.66,3.66,0,0,1,1.73-5.83Z"></path><path d="M396.14,418.83c-3,.11-4.31,4.15-1.73,5.83a3.67,3.67,0,0,1,1.73-5.83Z"></path><path d="M401.68,412.28c-3,.31-4,4.44-1.32,5.93a3.66,3.66,0,0,1,1.32-5.93Z"></path><path d="M405.2,412.76c-3,.39-3.9,4.55-1.17,6a3.65,3.65,0,0,1,1.17-6Z"></path><path d="M403.74,404.37c-3,.31-4,4.44-1.32,5.93a3.66,3.66,0,0,1,1.32-5.93Z"></path><path d="M407.2,405.34c-3,.23-4.13,4.33-1.48,5.9a3.67,3.67,0,0,1,1.48-5.9Z"></path><path d="M403.59,419.76c-3,.32-4,4.44-1.33,5.93a3.66,3.66,0,0,1,1.33-5.93Z"></path><path d="M407,420.15c-2.8,1.08-2.71,5.35.28,6.07a3.66,3.66,0,0,1-.28-6.07Z"></path><path d="M405.79,396.74c-3,.31-4,4.44-1.33,5.93a3.66,3.66,0,0,1,1.33-5.93Z"></path><path d="M409.06,397.49c-3,.43-3.83,4.6-1.08,6a3.66,3.66,0,0,1,1.08-6Z"></path><path d="M395.33,414.78c-3,.1-4.32,4.15-1.74,5.82a3.66,3.66,0,0,1,1.74-5.82Z"></path><path d="M397.71,407.22c-3,.1-4.32,4.15-1.74,5.83a3.66,3.66,0,0,1,1.74-5.83Z"></path><path d="M399.88,399.56c-3,.1-4.31,4.15-1.74,5.82a3.66,3.66,0,0,1,1.74-5.82Z"></path><path d="M403.18,400.36c-3,.1-4.32,4.15-1.74,5.82a3.66,3.66,0,0,1,1.74-5.82Z"></path><path d="M408.58,393.69c-3,.1-4.32,4.15-1.74,5.82a3.66,3.66,0,0,1,1.74-5.82Z"></path><path d="M406.71,401c-3,.1-4.31,4.15-1.73,5.82a3.66,3.66,0,0,1,1.73-5.82Z"></path><path d="M404.42,408.83c-3,.2-4.18,4.29-1.55,5.88a3.66,3.66,0,0,1,1.55-5.88Z"></path><path d="M402.83,416.56c-3,.1-4.31,4.15-1.74,5.83a3.66,3.66,0,0,1,1.74-5.83Z"></path><path d="M406,416.71c-3,.55-3.63,4.76-.83,6a3.66,3.66,0,0,1,.83-6Z"></path><path d="M410.24,401.92c-3,0-4.46,4-1.94,5.76a3.66,3.66,0,0,1,1.94-5.76Z"></path><path d="M412.13,393.56c-3,0-4.46,4-1.94,5.75a3.65,3.65,0,0,1,1.94-5.75Z"></path><path d="M401.21,408.44c-3,.1-4.32,4.15-1.74,5.82a3.66,3.66,0,0,1,1.74-5.82Z"></path><path d="M399,415.93c-3,.11-4.32,4.15-1.74,5.83a3.66,3.66,0,0,1,1.74-5.83Z"></path><path d="M405.4,392.69c-3,.1-4.31,4.15-1.73,5.82a3.66,3.66,0,0,1,1.73-5.82Z"></path><path d="M389,416.71c-3,.1-4.32,4.15-1.74,5.82a3.66,3.66,0,0,1,1.74-5.82Z"></path><path d="M391.21,409.3c-3,.09-4.33,4.12-1.77,5.81a3.66,3.66,0,0,1,1.77-5.81Z"></path><path d="M393.47,402a3.21,3.21,0,0,0-1.68,5.84,3.66,3.66,0,0,1,1.68-5.84Z"></path><path d="M397,402.81c-3,.13-4.27,4.19-1.68,5.84a3.66,3.66,0,0,1,1.68-5.84Z"></path><path d="M399.29,395.11c-3,.13-4.28,4.18-1.69,5.84a3.66,3.66,0,0,1,1.69-5.84Z"></path><path d="M402.59,395.91c-3,.13-4.28,4.19-1.69,5.84a3.66,3.66,0,0,1,1.69-5.84Z"></path><path d="M394.72,410.49c-3,.13-4.28,4.19-1.69,5.84a3.66,3.66,0,0,1,1.69-5.84Z"></path><path d="M398.26,411.61c-3,.12-4.28,4.18-1.69,5.83a3.65,3.65,0,0,1,1.69-5.83Z"></path><path d="M400.25,404c-3,.31-4,4.44-1.32,5.93a3.66,3.66,0,0,1,1.32-5.93Z"></path><path d="M385.09,423.1c-4-2.8-7.95-5.85-10.77-9.91a2.83,2.83,0,0,1-.43-.87,2.69,2.69,0,0,0,.29.95c2.36,4.41,6.48,7.66,10.91,9.83Z"></path><path d="M380.84,394.66a56.2,56.2,0,0,0-3.37-8.38,36.11,36.11,0,0,0-4.86-7.62c3.19,5,5.69,10.64,8.23,16Z"></path><path d="M371.44,409.53a51.78,51.78,0,0,1-15.8-10.06c-.46-.47-.9-1-1.36-1.41,4.06,5.58,10.6,9.53,17.16,11.47Z"></path><path d="M379.29,395.18a56.25,56.25,0,0,0-3.52-7,35.63,35.63,0,0,0-4.58-6.39c2.85,4.29,5.39,9,8.1,13.42Z"></path><path d="M372.15,407.29a74.66,74.66,0,0,1-13.47-8.59c-.61-.45-1.15-1-1.75-1.47a36.91,36.91,0,0,0,15.22,10.06Z"></path><path d="M374.69,400.31a68,68,0,0,0-8.67-9,67.37,67.37,0,0,0,8.67,9Z"></path><path d="M377.56,396.47a43.72,43.72,0,0,0-3.5-6,32.85,32.85,0,0,0-4.47-5.37c2.71,3.71,5.3,7.68,8,11.41Z"></path><path d="M375.94,397.59a38.37,38.37,0,0,0-3.53-4.79,27.87,27.87,0,0,0-4.27-4.14c2.29,2.65,5.4,6.44,7.8,8.93Z"></path><path d="M373.29,401.78c-3.25-2.75-6.87-5.35-10.09-8.13a26.37,26.37,0,0,0,4.69,4.51,40.7,40.7,0,0,0,5.4,3.62Z"></path><path d="M372.28,404.38c-4.15-2.77-8.46-5.63-12.5-8.57a44.35,44.35,0,0,0,12.5,8.57Z"></path></g><path d="M409.14,419.42s-6.52-6.31-9.24-7.27-6.35-2.68-6.5-2.49,1.47,12.69,6.62,16.85c0,0,2.37,1.19,8,0" style="fill:#4D4D4D"></path><path d="M409.14,419.42s-6.52-6.31-9.24-7.27-6.35-2.68-6.5-2.49,1.47,12.69,6.62,16.85c0,0,2.37,1.19,8,0" style="opacity:0.1"></path><path d="M409.14,419.42s-6.52-6.31-9.24-7.27-6.35-2.68-6.5-2.49,1.47,12.69,6.62,16.85c0,0,2.37,1.19,8,0" style="fill:#fff;opacity:0.2"></path><path d="M409.14,419.42a58.61,58.61,0,0,0-7-6.19,15.51,15.51,0,0,0-4.2-2.07l-3.22-1.35a7.54,7.54,0,0,0-1.24-.42.39.39,0,0,0-.25.06c-.1.06-.11.17-.13.27a17.12,17.12,0,0,0,.26,2.14A36.2,36.2,0,0,0,397,423a12.42,12.42,0,0,0,3,3.68,9.64,9.64,0,0,0,4.06.46,22.56,22.56,0,0,0,4-.64l-1,.17-1,.13a13.37,13.37,0,0,1-5.87-.4c-3.94-3.47-5.77-11.23-6.45-16.31,0-.12,0-.23,0-.33a.24.24,0,0,1-.18.17,22.66,22.66,0,0,1,2.15.82c.77.32,2.5,1,3.25,1.3,2.61.78,4.66,2.67,6.76,4.34,1.19,1,2.36,2,3.51,3.05Z" style="opacity:0.15"></path><path d="M347,402.79a2,2,0,0,1-.27-1.28c.1-.75,1.35-1,1.37-1.68s-.43-2.26-.07-3.12,1.86-1,2.3-2,.16-1.84.56-2.81,1.83-.85,2.52-1.81.54-3.07,1.3-3.86,2.34-1,3-1.54,1.32-2.52,2.7-2.9,6.28.59,10,2.2a25.37,25.37,0,0,1,13.13-1.11c6.82,1.43,14.47,7.32,14.47,7.32s1.11,0,1.46.46a2.59,2.59,0,0,1,.29,1.4,2.88,2.88,0,0,1,1.57,1.77,5.63,5.63,0,0,1-.07,2.17s1.6,1.61.14,5.91-5.12,11.58-6.05,12.59a4,4,0,0,1-2.34,1.15s-3,4.89-13,8.66a9.33,9.33,0,0,1-4.24,1.73s-2.68,1.66-4.9,1.32a12.28,12.28,0,0,1-7.32.36,16.46,16.46,0,0,1-6.29,3.7c-1.23.32-10.26-5.85-11.06-6.67,0,0-14.1,2.1-22.95-2.76-.71-.39.26-1.67.59-2.41a17.53,17.53,0,0,1,1.27-3.53c.27-.4,2-.66,2.88-2.08s.41-3.06.61-3.33a6.17,6.17,0,0,0,2-2.79c.41-1.57-.68-3.16-.68-3.47s1-2.17.76-3.9a10.43,10.43,0,0,0-1.37-3.43,17,17,0,0,0,.08-2.21,17.36,17.36,0,0,1-.11-3c.08-.69.29-1.84,1-2S341.3,395.49,347,402.79Z" style="fill:#4D4D4D"></path><path d="M347,402.79a2,2,0,0,1-.27-1.28c.1-.75,1.35-1,1.37-1.68s-.43-2.26-.07-3.12,1.86-1,2.3-2,.16-1.84.56-2.81,1.83-.85,2.52-1.81.54-3.07,1.3-3.86,2.34-1,3-1.54,1.32-2.52,2.7-2.9,6.28.59,10,2.2a25.37,25.37,0,0,1,13.13-1.11c6.82,1.43,14.47,7.32,14.47,7.32s1.11,0,1.46.46a2.59,2.59,0,0,1,.29,1.4,2.88,2.88,0,0,1,1.57,1.77,5.63,5.63,0,0,1-.07,2.17s1.6,1.61.14,5.91-5.12,11.58-6.05,12.59a4,4,0,0,1-2.34,1.15s-3,4.89-13,8.66a9.33,9.33,0,0,1-4.24,1.73s-2.68,1.66-4.9,1.32a12.28,12.28,0,0,1-7.32.36,16.46,16.46,0,0,1-6.29,3.7c-1.23.32-10.26-5.85-11.06-6.67,0,0-14.1,2.1-22.95-2.76-.71-.39.26-1.67.59-2.41a17.53,17.53,0,0,1,1.27-3.53c.27-.4,2-.66,2.88-2.08s.41-3.06.61-3.33a6.17,6.17,0,0,0,2-2.79c.41-1.57-.68-3.16-.68-3.47s1-2.17.76-3.9a10.43,10.43,0,0,0-1.37-3.43,17,17,0,0,0,.08-2.21,17.36,17.36,0,0,1-.11-3c.08-.69.29-1.84,1-2S341.3,395.49,347,402.79Z" style="opacity:0.1"></path><path d="M347,402.79a2,2,0,0,1-.27-1.28c.1-.75,1.35-1,1.37-1.68s-.43-2.26-.07-3.12,1.86-1,2.3-2,.16-1.84.56-2.81,1.83-.85,2.52-1.81.54-3.07,1.3-3.86,2.34-1,3-1.54,1.32-2.52,2.7-2.9,6.28.59,10,2.2a25.37,25.37,0,0,1,13.13-1.11c6.82,1.43,14.47,7.32,14.47,7.32s1.11,0,1.46.46a2.59,2.59,0,0,1,.29,1.4,2.88,2.88,0,0,1,1.57,1.77,5.63,5.63,0,0,1-.07,2.17s1.6,1.61.14,5.91-5.12,11.58-6.05,12.59a4,4,0,0,1-2.34,1.15s-3,4.89-13,8.66a9.33,9.33,0,0,1-4.24,1.73s-2.68,1.66-4.9,1.32a12.28,12.28,0,0,1-7.32.36,16.46,16.46,0,0,1-6.29,3.7c-1.23.32-10.26-5.85-11.06-6.67,0,0-14.1,2.1-22.95-2.76-.71-.39.26-1.67.59-2.41a17.53,17.53,0,0,1,1.27-3.53c.27-.4,2-.66,2.88-2.08s.41-3.06.61-3.33a6.17,6.17,0,0,0,2-2.79c.41-1.57-.68-3.16-.68-3.47s1-2.17.76-3.9a10.43,10.43,0,0,0-1.37-3.43,17,17,0,0,0,.08-2.21,17.36,17.36,0,0,1-.11-3c.08-.69.29-1.84,1-2S341.3,395.49,347,402.79Z" style="fill:#fff;opacity:0.30000000000000004"></path><path d="M368.66,428h0Z" style="fill:#fff;opacity:0.30000000000000004"></path><path d="M358.25,384.11a1,1,0,0,1,.28-.11c1.36-.37,6.15.55,9.83,2.09A25.43,25.43,0,0,1,381.25,385c6.69,1.36,14.18,7,14.18,7s1.09,0,1.44.43c.55.71-.69,2.79-.69,2.79s2.1-.33,2.89.5c1,1.06.18,2.92.18,2.92s.92.5-.53,4.65-5.07,11.2-6,12.19a3.92,3.92,0,0,1-2.29,1.1s-2.92,4.74-12.79,8.42a9.41,9.41,0,0,1-4.18,1.68,12,12,0,0,1-1.55.75,9.87,9.87,0,0,0,3.92-1.36,9.33,9.33,0,0,0,4.24-1.73c10.05-3.77,13-8.66,13-8.66a4,4,0,0,0,2.33-1.14c.94-1,4.58-8.3,6.05-12.61s-.13-5.9-.13-5.9a5.52,5.52,0,0,0,.06-2.17,2.91,2.91,0,0,0-1.57-1.78,2.55,2.55,0,0,0-.29-1.39c-.35-.47-1.46-.46-1.46-.46s-7.64-5.89-14.47-7.32A25.37,25.37,0,0,0,370.49,384c-3.77-1.61-8.66-2.58-10-2.2C359.41,382.11,358.78,383.31,358.25,384.11Z" style="fill:#fff;opacity:0.30000000000000004"></path><path d="M329.35,391.85a.22.22,0,0,0,0,.08c2.07.78,11.92,4.94,17,11.31-.09-.13.34-.05.67-.45-5.95-7.59-16-13.1-16.68-13S329.43,391.16,329.35,391.85Z" style="fill:#fff;opacity:0.30000000000000004"></path><path d="M323.33,422c8.84,4.86,22.94,2.76,22.94,2.76.81.82,9.83,7,11.06,6.67a16.23,16.23,0,0,0,6.29-3.7,12.33,12.33,0,0,0,7.24-.32l.07-.08a18.48,18.48,0,0,1-7.46-.69s-4.06,3.14-6.14,3.11-11.46-7-11.46-7c-12.2.3-19.14-2.7-21.67-4.09a5.85,5.85,0,0,1-.3.92C323.58,420.35,322.61,421.63,323.33,422Z" style="opacity:0.1"></path><g style="opacity:0.15"><path d="M399.84,392.09c-1.79.67-3,2.3-4.16,3.78-1.7,2.24-3,4.8-4.86,6.86a1.14,1.14,0,0,1-1.11.28,13,13,0,0,1-4-1.18,13.71,13.71,0,0,1-2.41-1.44,12.27,12.27,0,0,0,4.91,2.8,4.88,4.88,0,0,0,2.42.27,8.22,8.22,0,0,0,2.31-2.59c1.06-1.57,2-3.18,3.07-4.75s2.12-3.16,3.8-4Z"></path><path d="M401.34,396a3.63,3.63,0,0,1-1,1.34c-1.21,1.21-2.53,2.29-3.81,3.44-.85.76-1.7,1.53-2.58,2.25a7.43,7.43,0,0,1-2.13,1.34,1.06,1.06,0,0,1-.82,0,1.15,1.15,0,0,0,.85.14,6.55,6.55,0,0,0,2.35-1.16c.94-.66,1.83-1.4,2.7-2.15a26.45,26.45,0,0,0,3.67-3.66,3.13,3.13,0,0,0,.77-1.54Z"></path><path d="M396.59,410.14c-1.82.93-4.8-.11-6.72-.55-2.14-.58-4.58-1.07-5.74-3.16-.83-1.3-1.6-2.64-2.38-4a37.49,37.49,0,0,0,2,4.2c1.13,2.29,3.72,2.9,6,3.44,2,.41,5.08,1.28,6.85,0Z"></path><path d="M375.7,395.39c.22,4.25.88,10.62,3.48,14.09a9.57,9.57,0,0,0,3.09,2.08c1.1.53,2.21,1,3.34,1.48q3.39,1.36,6.89,2.38a90.94,90.94,0,0,1-11.56-5.21c-3.5-1.7-4.69-11.12-5.24-14.82Z"></path><path d="M385.73,391a2.26,2.26,0,1,1-3.47,2.24,2.27,2.27,0,0,1,3.47-2.24Zm0,0a2,2,0,1,0-.79,3.6,2,2,0,0,0,.79-3.6Z"></path><path d="M386.52,389.85a3.69,3.69,0,1,1-5.66,3.72,3.7,3.7,0,0,1,5.66-3.72Zm0,0a3.4,3.4,0,1,0-1.29,6.19,3.41,3.41,0,0,0,1.29-6.19Z"></path><path d="M388.86,389.87c-3-5.28-10.92-2.79-10.65,3.23a5.69,5.69,0,0,0,8.77,4.46,5.48,5.48,0,1,1,1.88-7.69Z"></path><path d="M367.3,387.05a25,25,0,0,0-7.36-2,25.49,25.49,0,0,0,7.36,2Z"></path><path d="M366,388.11a28.67,28.67,0,0,0-7.82-2.11,28.67,28.67,0,0,0,7.82,2.11Z"></path><path d="M364.69,389.17a29,29,0,0,0-7.92-2.13,29,29,0,0,0,7.92,2.13Z"></path><path d="M363.38,390.23a28.94,28.94,0,0,0-7.92-2.13,29.13,29.13,0,0,0,7.92,2.13Z"></path><path d="M362.08,391.29a25.4,25.4,0,0,0-7.36-2,25.09,25.09,0,0,0,7.36,2Z"></path><path d="M360.77,392.35a20.27,20.27,0,0,0-6.58-1.77,20.15,20.15,0,0,0,6.58,1.77Z"></path><path d="M359.47,393.42a22,22,0,0,0-6.89-1.86,22.29,22.29,0,0,0,6.89,1.86Z"></path><path d="M358.16,394.48a20.89,20.89,0,0,0-6.71-1.81,21.15,21.15,0,0,0,6.71,1.81Z"></path><path d="M356.86,395.54a14.34,14.34,0,0,0-5.55-1.5,14.34,14.34,0,0,0,5.55,1.5Z"></path><path d="M355.55,396.6a11.08,11.08,0,0,0-4.84-1.31,11.08,11.08,0,0,0,4.84,1.31Z"></path><path d="M354.24,397.66a12.22,12.22,0,0,0-5.12-1.38,12.37,12.37,0,0,0,5.12,1.38Z"></path><path d="M352.94,398.72a9.42,9.42,0,0,0-4.48-1.21,9.48,9.48,0,0,0,4.48,1.21Z"></path><path d="M351.63,399.78a5.33,5.33,0,0,0-3.34-.9,5.36,5.36,0,0,0,3.34.9Z"></path><path d="M350.33,400.84a2.28,2.28,0,0,0-2.14-.58,2.28,2.28,0,0,0,2.14.58Z"></path><path d="M349,401.9a1.62,1.62,0,0,0-1.77-.48,1.61,1.61,0,0,0,1.77.48Z"></path><path d="M345.68,412.62c-2.58,1.55-1.76,5.72,1.31,5.93a3.66,3.66,0,0,1-1.31-5.93Z"></path><path d="M349.05,411.38c-2.58,1.55-1.75,5.72,1.31,5.93a3.66,3.66,0,0,1-1.31-5.93Z"></path><path d="M352.61,410.52c-2.58,1.55-1.76,5.72,1.31,5.93a3.65,3.65,0,0,1-1.31-5.93Z"></path><path d="M346.48,408.05c-2.59,1.55-1.76,5.72,1.31,5.93a3.65,3.65,0,0,1-1.31-5.93Z"></path><path d="M350.12,407.17c-2.59,1.55-1.76,5.72,1.31,5.93a3.65,3.65,0,0,1-1.31-5.93Z"></path><path d="M351.17,403.13c-2.59,1.55-1.76,5.72,1.31,5.93a3.65,3.65,0,0,1-1.31-5.93Z"></path><path d="M348.19,415.68c-2.58,1.56-1.75,5.73,1.31,5.94a3.67,3.67,0,0,1-1.31-5.94Z"></path><path d="M351.51,414.64c-2.58,1.56-1.75,5.73,1.31,5.94a3.67,3.67,0,0,1-1.31-5.94Z"></path><path d="M356.67,421.11c-2.59,1.55-1.76,5.72,1.31,5.93a3.65,3.65,0,0,1-1.31-5.93Z"></path><path d="M360.19,420.63c-2.45,1.75-1.3,5.84,1.77,5.81a3.66,3.66,0,0,1-1.77-5.81Z"></path><path d="M358.76,413.43c-2.56,1.6-1.66,5.75,1.41,5.91a3.66,3.66,0,0,1-1.41-5.91Z"></path><path d="M357.19,405.73c-2.57,1.57-1.72,5.74,1.35,5.93a3.66,3.66,0,0,1-1.35-5.93Z"></path><path d="M356.14,399.08c-2.51,1.31-2.05,5.49.78,6a3.72,3.72,0,0,1-1.28-1.21,4,4,0,0,1,.5-4.82Z"></path><path d="M353.66,406.39c-2.58,1.55-1.75,5.72,1.31,5.93a3.66,3.66,0,0,1-1.31-5.93Z"></path><path d="M355.1,413.78c-2.59,1.55-1.76,5.72,1.31,5.93a3.65,3.65,0,0,1-1.31-5.93Z"></path><path d="M350.73,419.15c-2.59,1.55-1.76,5.73,1.3,5.94a3.66,3.66,0,0,1-1.3-5.94Z"></path><path d="M354.13,418.14a3.21,3.21,0,0,0,1.31,5.94,3.66,3.66,0,0,1-1.31-5.94Z"></path><path d="M356.2,409.94c-2.58,1.56-1.75,5.73,1.31,5.94a3.67,3.67,0,0,1-1.31-5.94Z"></path><path d="M359.71,409.23c-2.58,1.55-1.76,5.72,1.31,5.93a3.66,3.66,0,0,1-1.31-5.93Z"></path><path d="M363.29,408.49c-2.58,1.55-1.75,5.72,1.31,5.94a3.67,3.67,0,0,1-1.31-5.94Z"></path><path d="M354.89,402.57c-2.64,1.44-2,5.64,1.06,6a3.66,3.66,0,0,1-1.06-6Z"></path><path d="M358.27,401.67c-2.64,1.45-2,5.65,1.06,6a3.67,3.67,0,0,1-1.06-6Z"></path><path d="M361.75,400.93c-2.64,1.45-2,5.65,1.07,6a3.67,3.67,0,0,1-1.07-6Z"></path><path d="M357.8,417.48c-2.58,1.55-1.76,5.72,1.31,5.94a3.67,3.67,0,0,1-1.31-5.94Z"></path><path d="M361.35,416.75c-2.58,1.55-1.75,5.73,1.31,5.94a3.67,3.67,0,0,1-1.31-5.94Z"></path><path d="M364.88,416.25c-2.58,1.55-1.75,5.72,1.31,5.94a3.67,3.67,0,0,1-1.31-5.94Z"></path><path d="M371.21,418.65c-2.58,1.55-1.76,5.72,1.31,5.94a3.66,3.66,0,0,1-1.31-5.94Z"></path><path d="M372.86,410.23c-2.46,1.73-1.34,5.84,1.73,5.83a3.66,3.66,0,0,1-1.73-5.83Z"></path><path d="M376.17,409c-2.42,1.79-1.2,5.86,1.87,5.78a3.66,3.66,0,0,1-1.87-5.78Z"></path><path d="M370.82,402.32c-2.47,1.73-1.35,5.83,1.72,5.83a3.66,3.66,0,0,1-1.72-5.83Z"></path><path d="M374.32,401.49c-2.51,1.66-1.51,5.79,1.57,5.87a3.66,3.66,0,0,1-1.57-5.87Z"></path><path d="M378.16,415.85c-2.46,1.73-1.35,5.83,1.73,5.83a3.66,3.66,0,0,1-1.73-5.83Z"></path><path d="M381.33,414.54c-1.93,2.3.23,6,3.19,5.17a3.66,3.66,0,0,1-3.19-5.17Z"></path><path d="M368.9,394.65c-2.47,1.73-1.35,5.83,1.72,5.83a3.66,3.66,0,0,1-1.72-5.83Z"></path><path d="M372.12,393.72c-2.39,1.83-1.11,5.88,2,5.75a3.66,3.66,0,0,1-2-5.75Z"></path><path d="M368.52,415.51c-2.58,1.55-1.75,5.72,1.31,5.93a3.66,3.66,0,0,1-1.31-5.93Z"></path><path d="M366.93,407.75c-2.58,1.55-1.75,5.72,1.31,5.93a3.66,3.66,0,0,1-1.31-5.93Z"></path><path d="M365.11,400c-2.58,1.55-1.75,5.72,1.31,5.94a3.67,3.67,0,0,1-1.31-5.94Z"></path><path d="M368.38,399.09c-2.59,1.55-1.76,5.72,1.31,5.93a3.65,3.65,0,0,1-1.31-5.93Z"></path><path d="M369.86,390.64c-2.58,1.55-1.76,5.72,1.31,5.93a3.65,3.65,0,0,1-1.31-5.93Z"></path><path d="M371.77,397.91c-2.58,1.56-1.75,5.73,1.31,5.94a3.67,3.67,0,0,1-1.31-5.94Z"></path><path d="M373.58,405.89c-2.53,1.63-1.57,5.77,1.5,5.88a3.65,3.65,0,0,1-1.5-5.88Z"></path><path d="M376,413.42c-2.58,1.55-1.76,5.72,1.31,5.93a3.65,3.65,0,0,1-1.31-5.93Z"></path><path d="M378.8,412c-2.31,1.91-.85,5.93,2.2,5.66a3.66,3.66,0,0,1-2.2-5.66Z"></path><path d="M375.31,397c-2.63,1.45-2,5.65,1.1,6a3.66,3.66,0,0,1-1.1-6Z"></path><path d="M372.9,388.79c-2.64,1.46-2,5.66,1.1,6a3.66,3.66,0,0,1-1.1-6Z"></path><path d="M370.58,407.11c-2.58,1.55-1.75,5.72,1.31,5.93a3.66,3.66,0,0,1-1.31-5.93Z"></path><path d="M372.29,414.73c-2.58,1.55-1.76,5.72,1.31,5.94a3.67,3.67,0,0,1-1.31-5.94Z"></path><path d="M366.6,391.3c-2.58,1.55-1.76,5.72,1.31,5.94a3.66,3.66,0,0,1-1.31-5.94Z"></path><path d="M364,420.25c-2.58,1.55-1.75,5.72,1.31,5.93a3.66,3.66,0,0,1-1.31-5.93Z"></path><path d="M362.27,412.72c-2.59,1.53-1.79,5.71,1.27,5.94a3.65,3.65,0,0,1-1.27-5.94Z"></path><path d="M360.68,405.22c-2.56,1.57-1.7,5.73,1.36,5.92a3.66,3.66,0,0,1-1.36-5.92Z"></path><path d="M364.17,404.23c-2.57,1.58-1.71,5.74,1.36,5.93a3.66,3.66,0,0,1-1.36-5.93Z"></path><path d="M362.43,396.39c-2.57,1.57-1.71,5.74,1.36,5.92a3.65,3.65,0,0,1-1.36-5.92Z"></path><path d="M365.7,395.49c-2.57,1.57-1.71,5.73,1.36,5.92a3.66,3.66,0,0,1-1.36-5.92Z"></path><path d="M365.91,412.05c-2.57,1.58-1.71,5.74,1.36,5.93a3.67,3.67,0,0,1-1.36-5.93Z"></path><path d="M369.54,411.31c-2.57,1.57-1.71,5.74,1.36,5.92a3.65,3.65,0,0,1-1.36-5.92Z"></path><path d="M367.59,403.69c-2.46,1.73-1.34,5.83,1.73,5.83a3.66,3.66,0,0,1-1.73-5.83Z"></path><path d="M363.62,427.75c-4.88-.49-9.79-1.25-14.23-3.42a3.2,3.2,0,0,1-.8-.56,2.78,2.78,0,0,0,.72.69c4.2,2.71,9.38,3.55,14.31,3.29Z"></path><path d="M346.09,405a57.23,57.23,0,0,0-7-5.69,36.17,36.17,0,0,0-7.95-4.3c5.21,2.82,10.15,6.54,15,10Z"></path><path d="M345.1,422.52a51.89,51.89,0,0,1-18.71-1.11c-.62-.19-1.24-.4-1.87-.57,6.26,2.9,13.9,3.17,20.58,1.68Z"></path><path d="M345,406.17a54.3,54.3,0,0,0-6.49-4.44,35.46,35.46,0,0,0-7.1-3.36c4.57,2.37,9.1,5.28,13.59,7.8Z"></path><path d="M344.62,420.22a74.64,74.64,0,0,1-15.94-1c-.75-.1-1.49-.31-2.25-.44a36.83,36.83,0,0,0,18.19,1.4Z"></path><path d="M343.46,412.89a67.26,67.26,0,0,0-11.93-3.62,67.84,67.84,0,0,0,11.93,3.62Z"></path><path d="M344.1,408.14a43.79,43.79,0,0,0-6-3.58,33,33,0,0,0-6.51-2.53c4.17,1.93,8.36,4.14,12.51,6.11Z"></path><path d="M343.22,409.9a38.13,38.13,0,0,0-5.4-2.47,27.29,27.29,0,0,0-5.75-1.54c3.29,1.2,7.85,3,11.15,4Z"></path><path d="M343,414.85c-4.18-.82-8.6-1.34-12.78-2.21a26.42,26.42,0,0,0,6.3,1.68,41.35,41.35,0,0,0,6.48.53Z"></path><path d="M343.33,417.62c-5-.41-10.13-.82-15.09-1.42a44.63,44.63,0,0,0,15.09,1.42Z"></path></g><path d="M382.85,412.85s-8.76-2.35-11.61-1.86-6.85.74-6.89,1,7.46,10.37,14,11.51c0,0,2.66-.11,6.94-3.89" style="fill:#4D4D4D"></path><path d="M382.85,412.85s-8.76-2.35-11.61-1.86-6.85.74-6.89,1,7.46,10.37,14,11.51c0,0,2.66-.11,6.94-3.89" style="opacity:0.1"></path><path d="M382.85,412.85s-8.76-2.35-11.61-1.86-6.85.74-6.89,1,7.46,10.37,14,11.51c0,0,2.66-.11,6.94-3.89" style="fill:#fff;opacity:0.30000000000000004"></path><path d="M382.85,412.85a60.22,60.22,0,0,0-9.11-2,16,16,0,0,0-4.67.23l-3.47.39a7.12,7.12,0,0,0-1.29.23.37.37,0,0,0-.19.18.3.3,0,0,0,0,.29,16.6,16.6,0,0,0,1.26,1.76,36.71,36.71,0,0,0,8.53,8,12.69,12.69,0,0,0,4.38,1.78,9.7,9.7,0,0,0,3.78-1.58,21.86,21.86,0,0,0,3.17-2.49l-.78.62-.81.61a13.21,13.21,0,0,1-5.32,2.49c-5.13-1.11-10.5-7-13.57-11.12a2.61,2.61,0,0,1-.17-.28.25.25,0,0,1-.07.24c.5-.13,1.66-.25,2.27-.33.83-.09,2.68-.33,3.48-.44,2.65-.59,5.36.07,8,.51,1.52.28,3,.61,4.55,1Z" style="opacity:0.15"></path><path d="M357.33,415.38a1.91,1.91,0,0,1-.22-1.28c.12-.75,1.37-1,1.42-1.64s-.35-2.27,0-3.12,1.88-.95,2.36-1.89.22-1.83.65-2.79,1.86-.79,2.58-1.73.65-3,1.43-3.81,2.37-.91,3.07-1.44,1.4-2.47,2.8-2.81,6.25.8,10,2.53a25.34,25.34,0,0,1,13.16-.67c6.78,1.65,14.22,7.79,14.22,7.79s1.11,0,1.45.51a2.63,2.63,0,0,1,.24,1.41,2.89,2.89,0,0,1,1.51,1.83,5.63,5.63,0,0,1-.14,2.16s1.55,1.66-.06,5.91-5.5,11.41-6.47,12.39A4,4,0,0,1,403,429.8s-3.12,4.79-13.29,8.22a9.33,9.33,0,0,1-4.3,1.59s-2.73,1.57-4.94,1.16a12.31,12.31,0,0,1-7.33.11,16.34,16.34,0,0,1-6.4,3.49c-1.25.28-10.06-6.19-10.84-7,0,0-14.16,1.62-22.84-3.53-.7-.41.31-1.66.66-2.38a17.25,17.25,0,0,1,1.4-3.49c.28-.39,2-.6,2.94-2s.52-3,.73-3.31a6.3,6.3,0,0,0,2.09-2.72c.45-1.56-.58-3.18-.57-3.5s1.05-2.13.88-3.87a10.43,10.43,0,0,0-1.25-3.47,18.51,18.51,0,0,0,.16-2.21,17,17,0,0,1,0-3c.1-.68.35-1.83,1-2S351.86,407.9,357.33,415.38Z" style="fill:#4D4D4D"></path><path d="M357.33,415.38a1.91,1.91,0,0,1-.22-1.28c.12-.75,1.37-1,1.42-1.64s-.35-2.27,0-3.12,1.88-.95,2.36-1.89.22-1.83.65-2.79,1.86-.79,2.58-1.73.65-3,1.43-3.81,2.37-.91,3.07-1.44,1.4-2.47,2.8-2.81,6.25.8,10,2.53a25.34,25.34,0,0,1,13.16-.67c6.78,1.65,14.22,7.79,14.22,7.79s1.11,0,1.45.51a2.63,2.63,0,0,1,.24,1.41,2.89,2.89,0,0,1,1.51,1.83,5.63,5.63,0,0,1-.14,2.16s1.55,1.66-.06,5.91-5.5,11.41-6.47,12.39A4,4,0,0,1,403,429.8s-3.12,4.79-13.29,8.22a9.33,9.33,0,0,1-4.3,1.59s-2.73,1.57-4.94,1.16a12.31,12.31,0,0,1-7.33.11,16.34,16.34,0,0,1-6.4,3.49c-1.25.28-10.06-6.19-10.84-7,0,0-14.16,1.62-22.84-3.53-.7-.41.31-1.66.66-2.38a17.25,17.25,0,0,1,1.4-3.49c.28-.39,2-.6,2.94-2s.52-3,.73-3.31a6.3,6.3,0,0,0,2.09-2.72c.45-1.56-.58-3.18-.57-3.5s1.05-2.13.88-3.87a10.43,10.43,0,0,0-1.25-3.47,18.51,18.51,0,0,0,.16-2.21,17,17,0,0,1,0-3c.1-.68.35-1.83,1-2S351.86,407.9,357.33,415.38Z" style="opacity:0.1"></path><path d="M357.33,415.38a1.91,1.91,0,0,1-.22-1.28c.12-.75,1.37-1,1.42-1.64s-.35-2.27,0-3.12,1.88-.95,2.36-1.89.22-1.83.65-2.79,1.86-.79,2.58-1.73.65-3,1.43-3.81,2.37-.91,3.07-1.44,1.4-2.47,2.8-2.81,6.25.8,10,2.53a25.34,25.34,0,0,1,13.16-.67c6.78,1.65,14.22,7.79,14.22,7.79s1.11,0,1.45.51a2.63,2.63,0,0,1,.24,1.41,2.89,2.89,0,0,1,1.51,1.83,5.63,5.63,0,0,1-.14,2.16s1.55,1.66-.06,5.91-5.5,11.41-6.47,12.39A4,4,0,0,1,403,429.8s-3.12,4.79-13.29,8.22a9.33,9.33,0,0,1-4.3,1.59s-2.73,1.57-4.94,1.16a12.31,12.31,0,0,1-7.33.11,16.34,16.34,0,0,1-6.4,3.49c-1.25.28-10.06-6.19-10.84-7,0,0-14.16,1.62-22.84-3.53-.7-.41.31-1.66.66-2.38a17.25,17.25,0,0,1,1.4-3.49c.28-.39,2-.6,2.94-2s.52-3,.73-3.31a6.3,6.3,0,0,0,2.09-2.72c.45-1.56-.58-3.18-.57-3.5s1.05-2.13.88-3.87a10.43,10.43,0,0,0-1.25-3.47,18.51,18.51,0,0,0,.16-2.21,17,17,0,0,1,0-3c.1-.68.35-1.83,1-2S351.86,407.9,357.33,415.38Z" style="fill:#fff;opacity:0.4"></path><path d="M378.13,441.28h0Z" style="fill:#fff;opacity:0.30000000000000004"></path><path d="M369.17,397.09a.91.91,0,0,1,.29-.1c1.37-.32,6.13.75,9.76,2.42a25.28,25.28,0,0,1,12.91-.69c6.65,1.57,13.94,7.48,13.94,7.48s1.09,0,1.43.49c.53.72-.79,2.76-.79,2.76s2.12-.26,2.88.59c1,1.1.08,2.93.08,2.93s.91.53-.69,4.63-5.43,11-6.38,12a3.88,3.88,0,0,1-2.33,1s-3.08,4.64-13.07,8a9.35,9.35,0,0,1-4.23,1.54,11,11,0,0,1-1.57.7,10,10,0,0,0,4-1.23,9.33,9.33,0,0,0,4.3-1.59c10.17-3.44,13.3-8.22,13.3-8.22a4.05,4.05,0,0,0,2.37-1.07c1-1,4.85-8.14,6.46-12.39s.07-5.91.07-5.91a5.59,5.59,0,0,0,.13-2.17,2.92,2.92,0,0,0-1.51-1.82,2.63,2.63,0,0,0-.24-1.41c-.34-.48-1.45-.5-1.45-.5s-7.44-6.14-14.22-7.8a25.34,25.34,0,0,0-13.16.67c-3.71-1.74-8.56-2.86-10-2.52C370.4,395.13,369.74,396.3,369.17,397.09Z" style="fill:#fff;opacity:0.30000000000000004"></path><path d="M340,403.86a.27.27,0,0,0,0,.09c2,.84,11.75,5.33,16.61,11.86-.07-.13.35,0,.69-.43-5.69-7.78-15.54-13.62-16.24-13.5S340.14,403.18,340,403.86Z" style="fill:#fff;opacity:0.30000000000000004"></path><path d="M333,433.82c8.68,5.14,22.84,3.51,22.84,3.51.78.86,9.6,7.32,10.84,7a16.25,16.25,0,0,0,6.4-3.49,12.33,12.33,0,0,0,7.25-.08l.07-.08a18.33,18.33,0,0,1-7.43-.94s-4.16,3-6.24,2.91-11.23-7.36-11.23-7.36c-12.2-.11-19-3.33-21.51-4.8a6.3,6.3,0,0,1-.33.9C333.32,432.16,332.31,433.4,333,433.82Z" style="opacity:0.1"></path><g style="opacity:0.15"><path d="M410.48,406.44c-1.82.61-3.13,2.2-4.28,3.65-1.77,2.18-3.13,4.69-5.09,6.69-.36.35-.67.29-1.12.25a13.21,13.21,0,0,1-3.93-1.32,13.74,13.74,0,0,1-2.36-1.52,12.38,12.38,0,0,0,4.82,3,5,5,0,0,0,2.4.36,8.36,8.36,0,0,0,2.4-2.52c1.12-1.53,2.14-3.11,3.23-4.64s2.22-3.1,3.93-3.91Z"></path><path d="M411.85,410.43a3.67,3.67,0,0,1-1.05,1.31c-1.25,1.17-2.6,2.21-3.91,3.31-.89.73-1.76,1.47-2.66,2.16a7.57,7.57,0,0,1-2.17,1.28,1.16,1.16,0,0,1-.82,0,1.11,1.11,0,0,0,.84.16,6.51,6.51,0,0,0,2.38-1.08,33.14,33.14,0,0,0,2.77-2.06A25.87,25.87,0,0,0,411,412a3.09,3.09,0,0,0,.83-1.52Z"></path><path d="M406.63,424.38c-1.85.87-4.8-.27-6.7-.78-2.12-.65-4.54-1.22-5.63-3.34-.79-1.33-1.51-2.7-2.24-4.05a34.13,34.13,0,0,0,1.86,4.26c1.05,2.33,3.62,3,5.86,3.64,2,.48,5,1.45,6.85.27Z"></path><path d="M386.25,408.94c.07,4.26.52,10.65,3,14.2a9.61,9.61,0,0,0,3,2.18c1.08.57,2.18,1.1,3.29,1.59q3.35,1.47,6.81,2.61A91.59,91.59,0,0,1,391,423.93c-3.45-1.82-4.32-11.27-4.74-15Z"></path><path d="M396.41,404.93a2.26,2.26,0,1,1-3.54,2.12,2.27,2.27,0,0,1,3.54-2.12Zm0,0a2,2,0,1,0-.91,3.57,2,2,0,0,0,.91-3.57Z"></path><path d="M397.24,403.76a3.7,3.7,0,0,1-1.41,6.63,3.74,3.74,0,0,1-4.37-3.1,3.7,3.7,0,0,1,5.78-3.53Zm0,0a3.41,3.41,0,1,0-1.5,6.15,3.42,3.42,0,0,0,1.5-6.15Z"></path><path d="M399.58,403.87c-2.86-5.38-10.82-3.16-10.75,2.86a5.68,5.68,0,0,0,8.61,4.76,5.48,5.48,0,1,1,2.14-7.62Z"></path><path d="M378.12,400.33a25.08,25.08,0,0,0-7.28-2.23,25.18,25.18,0,0,0,7.28,2.23Z"></path><path d="M376.78,401.34A28.38,28.38,0,0,0,369,399a28.48,28.48,0,0,0,7.75,2.36Z"></path><path d="M375.44,402.36a29.42,29.42,0,0,0-7.84-2.4,29.17,29.17,0,0,0,7.84,2.4Z"></path><path d="M374.1,403.38a29.06,29.06,0,0,0-7.84-2.4,29.53,29.53,0,0,0,7.84,2.4Z"></path><path d="M372.76,404.39a25.06,25.06,0,0,0-7.28-2.22,25.47,25.47,0,0,0,7.28,2.22Z"></path><path d="M371.42,405.41a20.4,20.4,0,0,0-6.51-2,20.15,20.15,0,0,0,6.51,2Z"></path><path d="M370.08,406.43a22,22,0,0,0-6.82-2.09,22.2,22.2,0,0,0,6.82,2.09Z"></path><path d="M368.74,407.44a21.14,21.14,0,0,0-6.64-2,20.88,20.88,0,0,0,6.64,2Z"></path><path d="M367.4,408.46a14.5,14.5,0,0,0-5.49-1.68,14.21,14.21,0,0,0,5.49,1.68Z"></path><path d="M366.06,409.48a10.9,10.9,0,0,0-4.79-1.47,11,11,0,0,0,4.79,1.47Z"></path><path d="M364.72,410.49a12.39,12.39,0,0,0-5.07-1.55,12.24,12.24,0,0,0,5.07,1.55Z"></path><path d="M363.38,411.51a9.53,9.53,0,0,0-4.44-1.36,9.46,9.46,0,0,0,4.44,1.36Z"></path><path d="M362,412.53a5.24,5.24,0,0,0-3.31-1,5.38,5.38,0,0,0,3.31,1Z"></path><path d="M360.7,413.55a2.26,2.26,0,0,0-2.12-.65,2.33,2.33,0,0,0,2.12.65Z"></path><path d="M359.36,414.56a1.6,1.6,0,0,0-1.75-.53,1.62,1.62,0,0,0,1.75.53Z"></path><path d="M355.67,425.16c-2.64,1.47-1.95,5.66,1.11,6a3.66,3.66,0,0,1-1.11-6Z"></path><path d="M359.08,424c-2.63,1.47-1.95,5.66,1.11,6a3.66,3.66,0,0,1-1.11-6Z"></path><path d="M362.66,423.29c-2.63,1.47-1.94,5.66,1.11,6a3.67,3.67,0,0,1-1.11-6Z"></path><path d="M356.61,420.62c-2.63,1.46-1.94,5.66,1.12,6a3.65,3.65,0,0,1-1.12-6Z"></path><path d="M360.28,419.86c-2.63,1.47-1.94,5.66,1.11,6a3.66,3.66,0,0,1-1.11-6Z"></path><path d="M361.46,415.86c-2.63,1.46-1.94,5.66,1.12,6a3.65,3.65,0,0,1-1.12-6Z"></path><path d="M358.07,428.31c-2.63,1.46-1.94,5.66,1.12,6a3.65,3.65,0,0,1-1.12-6Z"></path><path d="M361.43,427.38c-2.63,1.47-1.94,5.66,1.11,6a3.66,3.66,0,0,1-1.11-6Z"></path><path d="M366.36,434c-2.63,1.46-1.94,5.66,1.12,6a3.65,3.65,0,0,1-1.12-6Z"></path><path d="M369.9,433.65c-2.51,1.67-1.49,5.8,1.58,5.87a3.66,3.66,0,0,1-1.58-5.87Z"></path><path d="M368.71,426.41c-2.61,1.51-1.84,5.69,1.22,5.95a3.66,3.66,0,0,1-1.22-5.95Z"></path><path d="M367.4,418.66c-2.62,1.49-1.91,5.68,1.15,6a3.66,3.66,0,0,1-1.15-6Z"></path><path d="M366.57,412c-2.55,1.22-2.23,5.42.58,6a3.73,3.73,0,0,1-1.24-1.26,4,4,0,0,1,.66-4.79Z"></path><path d="M363.85,419.2c-2.63,1.46-1.94,5.66,1.11,6a3.65,3.65,0,0,1-1.11-6Z"></path><path d="M365,426.63c-2.63,1.47-2,5.66,1.11,6a3.66,3.66,0,0,1-1.11-6Z"></path><path d="M360.49,431.86c-2.63,1.47-1.94,5.66,1.11,6a3.67,3.67,0,0,1-1.11-6Z"></path><path d="M363.92,431c-2.63,1.47-1.94,5.66,1.12,6a3.66,3.66,0,0,1-1.12-6Z"></path><path d="M366.27,422.84c-2.63,1.46-1.94,5.66,1.11,6a3.66,3.66,0,0,1-1.11-6Z"></path><path d="M369.8,422.24c-2.63,1.46-1.94,5.66,1.11,6a3.66,3.66,0,0,1-1.11-6Z"></path><path d="M373.41,421.62c-2.64,1.47-2,5.66,1.11,6a3.66,3.66,0,0,1-1.11-6Z"></path><path d="M365.21,415.42c-2.69,1.36-2.18,5.58.86,6a3.66,3.66,0,0,1-.86-6Z"></path><path d="M368.62,414.64c-2.69,1.35-2.18,5.58.86,6a3.66,3.66,0,0,1-.86-6Z"></path><path d="M372.12,414c-2.69,1.35-2.18,5.57.86,6a3.65,3.65,0,0,1-.86-6Z"></path><path d="M367.62,430.43c-2.63,1.46-1.95,5.66,1.11,6a3.65,3.65,0,0,1-1.11-6Z"></path><path d="M371.19,429.82c-2.63,1.46-1.94,5.66,1.11,6a3.66,3.66,0,0,1-1.11-6Z"></path><path d="M374.74,429.43c-2.63,1.47-1.95,5.66,1.11,6a3.66,3.66,0,0,1-1.11-6Z"></path><path d="M381,432c-2.63,1.47-2,5.66,1.11,6a3.66,3.66,0,0,1-1.11-6Z"></path><path d="M382.92,423.68c-2.53,1.65-1.55,5.79,1.52,5.88a3.66,3.66,0,0,1-1.52-5.88Z"></path><path d="M386.26,422.51c-2.48,1.71-1.39,5.82,1.68,5.84a3.66,3.66,0,0,1-1.68-5.84Z"></path><path d="M381.13,415.7c-2.52,1.65-1.54,5.79,1.53,5.88a3.66,3.66,0,0,1-1.53-5.88Z"></path><path d="M384.66,415c-2.57,1.58-1.7,5.74,1.37,5.92a3.66,3.66,0,0,1-1.37-5.92Z"></path><path d="M388,429.47c-2.52,1.65-1.54,5.78,1.53,5.88a3.66,3.66,0,0,1-1.53-5.88Z"></path><path d="M391.23,428.26c-2,2.24,0,6,3,5.28a3.66,3.66,0,0,1-3-5.28Z"></path><path d="M379.47,408c-2.52,1.65-1.54,5.78,1.53,5.88a3.66,3.66,0,0,1-1.53-5.88Z"></path><path d="M382.72,407.15c-2.45,1.75-1.3,5.85,1.77,5.82a3.67,3.67,0,0,1-1.77-5.82Z"></path><path d="M378.4,428.81c-2.63,1.46-1.94,5.66,1.11,6a3.66,3.66,0,0,1-1.11-6Z"></path><path d="M377.07,421c-2.63,1.46-1.95,5.66,1.11,6a3.65,3.65,0,0,1-1.11-6Z"></path><path d="M375.51,413.19c-2.63,1.46-1.95,5.66,1.11,6a3.65,3.65,0,0,1-1.11-6Z"></path><path d="M378.8,412.39c-2.63,1.47-1.95,5.66,1.11,6a3.66,3.66,0,0,1-1.11-6Z"></path><path d="M380.56,404c-2.63,1.47-1.94,5.66,1.11,6a3.67,3.67,0,0,1-1.11-6Z"></path><path d="M382.23,411.33c-2.63,1.47-1.94,5.66,1.11,6a3.67,3.67,0,0,1-1.11-6Z"></path><path d="M383.77,419.36c-2.58,1.55-1.75,5.72,1.31,5.94a3.67,3.67,0,0,1-1.31-5.94Z"></path><path d="M385.89,427c-2.63,1.46-1.94,5.66,1.11,6a3.65,3.65,0,0,1-1.11-6Z"></path><path d="M388.79,425.64c-2.37,1.84-1.05,5.9,2,5.74a3.67,3.67,0,0,1-2-5.74Z"></path><path d="M385.8,410.56c-2.68,1.37-2.14,5.59.9,6a3.66,3.66,0,0,1-.9-6Z"></path><path d="M383.66,402.25c-2.68,1.38-2.14,5.59.9,6a3.66,3.66,0,0,1-.9-6Z"></path><path d="M380.74,420.48c-2.63,1.47-1.95,5.66,1.11,6a3.66,3.66,0,0,1-1.11-6Z"></path><path d="M382.19,428.16c-2.63,1.46-1.94,5.66,1.11,6a3.66,3.66,0,0,1-1.11-6Z"></path><path d="M377.28,404.55c-2.63,1.47-1.94,5.66,1.11,6a3.67,3.67,0,0,1-1.11-6Z"></path><path d="M373.69,433.39c-2.64,1.47-1.95,5.66,1.11,6a3.66,3.66,0,0,1-1.11-6Z"></path><path d="M372.24,425.81c-2.64,1.45-2,5.65,1.08,6a3.66,3.66,0,0,1-1.08-6Z"></path><path d="M370.91,418.26c-2.62,1.49-1.9,5.68,1.16,6a3.66,3.66,0,0,1-1.16-6Z"></path><path d="M374.42,417.4c-2.62,1.48-1.9,5.67,1.16,6a3.66,3.66,0,0,1-1.16-6Z"></path><path d="M372.94,409.5c-2.62,1.49-1.89,5.68,1.17,6a3.66,3.66,0,0,1-1.17-6Z"></path><path d="M376.25,408.71c-2.62,1.48-1.9,5.67,1.16,6a3.65,3.65,0,0,1-1.16-6Z"></path><path d="M375.9,425.27c-2.62,1.49-1.89,5.68,1.16,6a3.66,3.66,0,0,1-1.16-6Z"></path><path d="M379.56,424.65c-2.62,1.48-1.9,5.67,1.16,6a3.65,3.65,0,0,1-1.16-6Z"></path><path d="M377.86,417c-2.52,1.65-1.53,5.78,1.54,5.88a3.66,3.66,0,0,1-1.54-5.88Z"></path><path d="M373.09,440.88c-4.85-.65-9.74-1.57-14.11-3.89a3.44,3.44,0,0,1-.78-.58,3.14,3.14,0,0,0,.7.71c4.1,2.85,9.26,3.86,14.19,3.76Z"></path><path d="M356.33,417.52a57.41,57.41,0,0,0-6.83-5.92,35.87,35.87,0,0,0-7.8-4.56c5.12,3,9.92,6.87,14.63,10.48Z"></path><path d="M354.75,435a51.69,51.69,0,0,1-18.65-1.74c-.62-.2-1.23-.43-1.85-.63,6.16,3.12,13.78,3.64,20.5,2.37Z"></path><path d="M355.18,418.69a57.5,57.5,0,0,0-6.33-4.65,35.79,35.79,0,0,0-7-3.59c4.48,2.51,8.92,5.58,13.32,8.24Z"></path><path d="M354.36,432.73a74.39,74.39,0,0,1-15.9-1.5c-.76-.12-1.48-.36-2.24-.51a37,37,0,0,0,18.14,2Z"></path><path d="M353.43,425.36a67,67,0,0,0-11.8-4,67.56,67.56,0,0,0,11.8,4Z"></path><path d="M354.23,420.63a43.07,43.07,0,0,0-5.87-3.77,33,33,0,0,0-6.42-2.75c4.1,2.07,8.22,4.42,12.29,6.52Z"></path><path d="M353.3,422.37a36.63,36.63,0,0,0-5.32-2.65,27.1,27.1,0,0,0-5.69-1.74c3.25,1.31,7.74,3.27,11,4.39Z"></path><path d="M352.87,427.3c-4.16-1-8.56-1.62-12.7-2.63a26.37,26.37,0,0,0,6.23,1.88,40.21,40.21,0,0,0,6.47.75Z"></path><path d="M353.15,430.08c-5-.57-10.1-1.15-15-1.92a44.27,44.27,0,0,0,15,1.92Z"></path></g><path d="M392.81,426.62s-8.68-2.63-11.54-2.24-6.87.51-6.92.76,7.1,10.61,13.58,12c0,0,2.66,0,7.07-3.67" style="fill:#4D4D4D"></path><path d="M392.81,426.62s-8.68-2.63-11.54-2.24-6.87.51-6.92.76,7.1,10.61,13.58,12c0,0,2.66,0,7.07-3.67" style="opacity:0.1"></path><path d="M392.81,426.62s-8.68-2.63-11.54-2.24-6.87.51-6.92.76,7.1,10.61,13.58,12c0,0,2.66,0,7.07-3.67" style="fill:#fff;opacity:0.4"></path><path d="M392.81,426.62a61,61,0,0,0-9-2.31,15.7,15.7,0,0,0-4.69.07l-3.48.28a6.48,6.48,0,0,0-1.3.19c-.06,0-.16.08-.19.16a.35.35,0,0,0,0,.3,15.52,15.52,0,0,0,1.2,1.79,36.78,36.78,0,0,0,8.26,8.26,12.68,12.68,0,0,0,4.33,1.92,9.77,9.77,0,0,0,3.82-1.45,22.36,22.36,0,0,0,3.26-2.39l-.81.6-.83.58a13.33,13.33,0,0,1-5.4,2.32c-5.09-1.29-10.25-7.36-13.19-11.57a2.79,2.79,0,0,1-.16-.28.24.24,0,0,1-.08.23c.5-.11,1.67-.2,2.28-.26.83-.06,2.69-.23,3.49-.32,2.67-.5,5.36.25,8,.78,1.51.33,3,.71,4.52,1.1Z" style="opacity:0.15"></path></g><g id="freepik--food-1--inject-175"><rect x="77.88" y="446.52" width="63.42" height="5.92" transform="translate(219.19 898.96) rotate(180)" style="fill:#c7c7c7"></rect><polygon points="44.2 441.81 174.99 441.81 157.94 411.62 61.25 411.62 44.2 441.81" style="fill:#c7c7c7"></polygon><path d="M175,441.81H44.2S68.36,449,110.7,449,175,441.81,175,441.81Z" style="fill:#a6a6a6"></path><path d="M99.07,426a46,46,0,0,0,6.69-.27,16,16,0,0,0,6.1-2.75,20.9,20.9,0,0,0,2.63-4.14,23.43,23.43,0,0,0,3.17-11.1c0-6-5.88-14.22-18.59-14.22s-18.59,8-18.59,14.22,1,11.44,3.9,13.26c1.36.85,5.82,3.9,7.22,4.39C94.19,426.33,99.07,426,99.07,426Z" style="fill:#4D4D4D"></path><path d="M99.07,426a46,46,0,0,0,6.69-.27,16,16,0,0,0,6.1-2.75,20.9,20.9,0,0,0,2.63-4.14,23.43,23.43,0,0,0,3.17-11.1c0-6-5.88-14.22-18.59-14.22s-18.59,8-18.59,14.22,1,11.44,3.9,13.26c1.36.85,5.82,3.9,7.22,4.39C94.19,426.33,99.07,426,99.07,426Z" style="opacity:0.1"></path><path d="M99.07,426a46,46,0,0,0,6.69-.27,16,16,0,0,0,6.1-2.75,20.9,20.9,0,0,0,2.63-4.14,23.43,23.43,0,0,0,3.17-11.1c0-6-5.88-14.22-18.59-14.22s-18.59,8-18.59,14.22,1,11.44,3.9,13.26c1.36.85,5.82,3.9,7.22,4.39C94.19,426.33,99.07,426,99.07,426Z" style="fill:#fff;opacity:0.4"></path><path d="M80.48,407.77c0,6.18,1,11.44,3.9,13.27,1.36.84,5.82,3.89,7.22,4.38,2.58.91,7.47.61,7.47.61a46.15,46.15,0,0,0,6.7-.27,16,16,0,0,0,6.1-2.75,21.92,21.92,0,0,0,2.63-4.14,23.53,23.53,0,0,0,3.16-11.1,8.25,8.25,0,0,0,0-1,10.54,10.54,0,0,1-3.11,6.72,18,18,0,0,1-2.63,3.75,17.47,17.47,0,0,1-6.1,2.34,53.18,53.18,0,0,1-6.7.24s-4.89.25-7.47-.53c-1.4-.41-5.86-3.2-7.22-3.92-2.68-1.41-3.71-3.94-3.88-8.34C80.49,407.3,80.48,407.54,80.48,407.77Z" style="opacity:0.1"></path><path d="M100.24,393.57c11.26.46,16.8,7.52,17.37,13.22a10.15,10.15,0,0,0,0-1.12C117.66,400.69,112.15,394,100.24,393.57Z" style="fill:#fff;opacity:0.4"></path><path d="M83.74,406.6c0,5.59,4.6,11.42,20.47,10.21a7.39,7.39,0,0,0,6-4.35c1.86,0,4.16-3.06,4.16-5.86,0-5.58-5.32-11.6-15.34-11.6S83.74,401,83.74,406.6Z" style="fill:#4D4D4D"></path><path d="M83.74,406.6c0,5.59,4.6,11.42,20.47,10.21a7.39,7.39,0,0,0,6-4.35c1.86,0,4.16-3.06,4.16-5.86,0-5.58-5.32-11.6-15.34-11.6S83.74,401,83.74,406.6Z" style="opacity:0.1"></path><path d="M83.74,406.6c0,5.59,4.6,11.42,20.47,10.21a7.39,7.39,0,0,0,6-4.35c1.86,0,4.16-3.06,4.16-5.86,0-5.58-5.32-11.6-15.34-11.6S83.74,401,83.74,406.6Z" style="fill:#fff;opacity:0.4"></path><path d="M86.42,413a8.18,8.18,0,0,1-2-5.44c0-5.33,5.06-11.05,14.6-11.05s14.6,5.72,14.6,11.05a6.71,6.71,0,0,1-1.37,3.86,7.15,7.15,0,0,0,2.11-4.81c0-5.58-5.31-11.6-15.34-11.6s-15.33,6-15.33,11.6A8.62,8.62,0,0,0,86.42,413Z" style="opacity:0.1"></path><g style="opacity:0.4"><path d="M104.33,412.86c0-.49-4.44-1.68-6.72-1.68-.83,0,1,1.88,2,2.14S104.34,413.38,104.33,412.86Z" style="fill:#fff"></path><path d="M96.72,410.75c.28-.28-1.87-1.6-2.11-1.44s.23,1,.61,1.25S96.4,411.07,96.72,410.75Z" style="fill:#fff"></path></g><g style="opacity:0.2"><path d="M112.53,411.17c4.37-4.69.86-11.83-4.78-14.5a20.86,20.86,0,0,0-17.85.17c-6.15,3.16-8.7,10.87-4.08,15.88,2.13,2.25,5.37,3.4,8.59,3.94a41.73,41.73,0,0,0,9.8.15c-4.83.23-9.93.15-14.3-1.78-8-3.41-7.43-12.94-.65-17.14a17.37,17.37,0,0,1,9-2.6,19.55,19.55,0,0,1,9.29,1.74c5.56,2.55,9.08,9.43,5,14.14Z"></path><path d="M113.16,415.07c0-3.33-6.17-3.32-8.92-3.75a30.38,30.38,0,0,1-7.54-2,12.73,12.73,0,0,1-2.24-1.22c2.52,2.23,6.19,3.2,9.67,3.76,2.74.49,8.51.08,9,3.21Z"></path><path d="M105.29,406.44c-1.73,1.59-3.25,3.38-5.81,4,2.79.15,4.85-2,5.81-4Z"></path><path d="M99.6,410.41c-.51-.76-1.07-1.43-1.48-2.15s-.76-1.51-1.24-2.27a4.93,4.93,0,0,0,2.72,4.42Z"></path></g><g style="opacity:0.4"><path d="M93.05,417c-1.32-.67-3-1.25-4.4-1.82-.48-.21-1-.4-1.48-.63a3.74,3.74,0,0,0,1.13,1.11A8.19,8.19,0,0,0,93.05,417Z" style="fill:#fff"></path><path d="M109.76,415.68c-2.23,1.36-5.07,1.64-7.73,1.81s-5.41-.21-8.16-.2a20.88,20.88,0,0,0,8.22.87c2.7-.25,5.71-.74,7.67-2.48Z" style="fill:#fff"></path></g><path d="M134.86,431a44.59,44.59,0,0,0,6.69-.27,15.87,15.87,0,0,0,6.1-2.74,21.69,21.69,0,0,0,2.63-4.15,23.48,23.48,0,0,0,3.16-11.1c0-6-5.87-14.22-18.58-14.22s-18.59,8-18.59,14.22,1,11.45,3.89,13.27c1.36.84,5.82,3.89,7.22,4.39C130,431.34,134.86,431,134.86,431Z" style="fill:#4D4D4D"></path><path d="M134.86,431a44.59,44.59,0,0,0,6.69-.27,15.87,15.87,0,0,0,6.1-2.74,21.69,21.69,0,0,0,2.63-4.15,23.48,23.48,0,0,0,3.16-11.1c0-6-5.87-14.22-18.58-14.22s-18.59,8-18.59,14.22,1,11.45,3.89,13.27c1.36.84,5.82,3.89,7.22,4.39C130,431.34,134.86,431,134.86,431Z" style="opacity:0.1"></path><path d="M134.86,431a44.59,44.59,0,0,0,6.69-.27,15.87,15.87,0,0,0,6.1-2.74,21.69,21.69,0,0,0,2.63-4.15,23.48,23.48,0,0,0,3.16-11.1c0-6-5.87-14.22-18.58-14.22s-18.59,8-18.59,14.22,1,11.45,3.89,13.27c1.36.84,5.82,3.89,7.22,4.39C130,431.34,134.86,431,134.86,431Z" style="fill:#fff;opacity:0.4"></path><path d="M116.26,412.77c0,6.18,1,11.45,3.9,13.27,1.36.84,5.82,3.9,7.22,4.38,2.59.92,7.47.61,7.47.61a46.15,46.15,0,0,0,6.7-.27,15.66,15.66,0,0,0,6.1-2.75,21.4,21.4,0,0,0,2.63-4.14,23.43,23.43,0,0,0,3.17-11.1c0-.32,0-.64,0-1a10.53,10.53,0,0,1-3.12,6.71,17.9,17.9,0,0,1-2.63,3.76,17.39,17.39,0,0,1-6.1,2.34,54.6,54.6,0,0,1-6.7.23s-4.88.25-7.47-.52c-1.4-.42-5.86-3.21-7.22-3.93-2.68-1.41-3.71-3.93-3.87-8.34Q116.26,412.43,116.26,412.77Z" style="opacity:0.1"></path><path d="M136,398.57c11.26.46,16.81,7.52,17.38,13.23,0-.36,0-.74,0-1.13C153.45,405.7,147.93,399,136,398.57Z" style="fill:#fff;opacity:0.4"></path><path d="M119.52,411.61c0,5.58,4.61,11.41,20.47,10.21a7.41,7.41,0,0,0,6-4.35c1.86-.05,4.15-3.07,4.15-5.86,0-5.59-5.31-11.6-15.33-11.6S119.52,406,119.52,411.61Z" style="fill:#4D4D4D"></path><path d="M119.52,411.61c0,5.58,4.61,11.41,20.47,10.21a7.41,7.41,0,0,0,6-4.35c1.86-.05,4.15-3.07,4.15-5.86,0-5.59-5.31-11.6-15.33-11.6S119.52,406,119.52,411.61Z" style="opacity:0.1"></path><path d="M119.52,411.61c0,5.58,4.61,11.41,20.47,10.21a7.41,7.41,0,0,0,6-4.35c1.86-.05,4.15-3.07,4.15-5.86,0-5.59-5.31-11.6-15.33-11.6S119.52,406,119.52,411.61Z" style="fill:#fff;opacity:0.4"></path><path d="M122.2,418a8.27,8.27,0,0,1-2-5.45c0-5.32,5.06-11.05,14.61-11.05s14.6,5.73,14.6,11.05a6.72,6.72,0,0,1-1.38,3.86,7.1,7.1,0,0,0,2.11-4.8c0-5.59-5.31-11.6-15.33-11.6s-15.34,6-15.34,11.6A8.62,8.62,0,0,0,122.2,418Z" style="opacity:0.1"></path><g style="opacity:0.4"><path d="M140.11,417.86c0-.49-4.44-1.67-6.72-1.67-.83,0,1,1.87,2,2.14S140.12,418.39,140.11,417.86Z" style="fill:#fff"></path><path d="M132.5,415.76c.28-.28-1.87-1.61-2.11-1.44s.23,1,.62,1.25S132.18,416.07,132.5,415.76Z" style="fill:#fff"></path></g><g style="opacity:0.2"><path d="M148.32,416.17c4.36-4.69.85-11.83-4.78-14.5a20.88,20.88,0,0,0-17.86.18c-6.15,3.16-8.69,10.86-4.07,15.87,2.12,2.25,5.36,3.41,8.58,3.94a41.74,41.74,0,0,0,9.8.16c-4.83.22-9.93.15-14.3-1.78-8-3.41-7.43-12.94-.65-17.15a17.52,17.52,0,0,1,9-2.6,19.41,19.41,0,0,1,9.29,1.75c5.56,2.54,9.08,9.43,5,14.13Z"></path><path d="M149,420.08c0-3.33-6.17-3.32-8.93-3.76a30.49,30.49,0,0,1-7.54-2,12.44,12.44,0,0,1-2.24-1.22c2.52,2.24,6.2,3.2,9.67,3.76,2.75.49,8.52.09,9,3.22Z"></path><path d="M141.07,411.44c-1.73,1.59-3.25,3.38-5.8,4,2.79.15,4.85-2,5.8-4Z"></path><path d="M135.38,415.41c-.5-.75-1.06-1.43-1.48-2.14s-.75-1.51-1.24-2.28a4.93,4.93,0,0,0,2.72,4.42Z"></path></g><g style="opacity:0.4"><path d="M128.83,422.05c-1.32-.67-3-1.26-4.4-1.83-.48-.2-1-.4-1.47-.63a3.71,3.71,0,0,0,1.12,1.11,8.14,8.14,0,0,0,4.75,1.35Z" style="fill:#fff"></path><path d="M145.55,420.68c-2.23,1.36-5.08,1.64-7.74,1.81s-5.41-.2-8.16-.2a20.72,20.72,0,0,0,8.22.88c2.7-.26,5.71-.75,7.68-2.49Z" style="fill:#fff"></path></g><path d="M82.66,437a46.15,46.15,0,0,0,6.7-.27,16.09,16.09,0,0,0,6.1-2.75,21.4,21.4,0,0,0,2.63-4.14,23.53,23.53,0,0,0,3.16-11.1c0-6-5.87-14.23-18.59-14.23s-18.59,8.05-18.59,14.23S65,430.22,68,432c1.36.85,5.82,3.9,7.22,4.39C77.78,437.34,82.66,437,82.66,437Z" style="fill:#4D4D4D"></path><path d="M82.66,437a46.15,46.15,0,0,0,6.7-.27,16.09,16.09,0,0,0,6.1-2.75,21.4,21.4,0,0,0,2.63-4.14,23.53,23.53,0,0,0,3.16-11.1c0-6-5.87-14.23-18.59-14.23s-18.59,8.05-18.59,14.23S65,430.22,68,432c1.36.85,5.82,3.9,7.22,4.39C77.78,437.34,82.66,437,82.66,437Z" style="opacity:0.1"></path><path d="M82.66,437a46.15,46.15,0,0,0,6.7-.27,16.09,16.09,0,0,0,6.1-2.75,21.4,21.4,0,0,0,2.63-4.14,23.53,23.53,0,0,0,3.16-11.1c0-6-5.87-14.23-18.59-14.23s-18.59,8.05-18.59,14.23S65,430.22,68,432c1.36.85,5.82,3.9,7.22,4.39C77.78,437.34,82.66,437,82.66,437Z" style="fill:#fff;opacity:0.4"></path><path d="M64.07,418.78c0,6.18,1,11.44,3.9,13.27,1.36.84,5.82,3.89,7.22,4.38,2.58.91,7.47.61,7.47.61a46.15,46.15,0,0,0,6.7-.27,16,16,0,0,0,6.1-2.75,21.92,21.92,0,0,0,2.63-4.14,23.53,23.53,0,0,0,3.16-11.1c0-.32,0-.64,0-1a10.57,10.57,0,0,1-3.12,6.72,18,18,0,0,1-2.63,3.75,17.39,17.39,0,0,1-6.1,2.34,55.24,55.24,0,0,1-6.7.24s-4.89.25-7.47-.53c-1.4-.41-5.86-3.2-7.22-3.92-2.68-1.41-3.71-3.94-3.87-8.34C64.08,418.3,64.07,418.55,64.07,418.78Z" style="opacity:0.1"></path><path d="M83.83,404.58c11.26.46,16.81,7.52,17.38,13.22,0-.36,0-.73,0-1.12C101.25,411.7,95.74,405,83.83,404.58Z" style="fill:#fff;opacity:0.4"></path><path d="M67.33,417.61c0,5.59,4.6,11.42,20.47,10.21a7.42,7.42,0,0,0,6-4.35c1.86-.05,4.15-3.06,4.15-5.86C98,412,92.69,406,82.66,406S67.33,412,67.33,417.61Z" style="fill:#4D4D4D"></path><path d="M67.33,417.61c0,5.59,4.6,11.42,20.47,10.21a7.42,7.42,0,0,0,6-4.35c1.86-.05,4.15-3.06,4.15-5.86C98,412,92.69,406,82.66,406S67.33,412,67.33,417.61Z" style="opacity:0.1"></path><path d="M67.33,417.61c0,5.59,4.6,11.42,20.47,10.21a7.42,7.42,0,0,0,6-4.35c1.86-.05,4.15-3.06,4.15-5.86C98,412,92.69,406,82.66,406S67.33,412,67.33,417.61Z" style="fill:#fff;opacity:0.4"></path><path d="M70,424a8.18,8.18,0,0,1-2-5.45c0-5.32,5.06-11,14.61-11s14.6,5.72,14.6,11a6.75,6.75,0,0,1-1.38,3.87A7.15,7.15,0,0,0,98,417.61C98,412,92.69,406,82.67,406s-15.34,6-15.34,11.6A8.62,8.62,0,0,0,70,424Z" style="opacity:0.1"></path><g style="opacity:0.4"><path d="M87.92,423.87c0-.49-4.44-1.68-6.72-1.68-.83,0,1,1.87,2,2.14S87.93,424.39,87.92,423.87Z" style="fill:#fff"></path><path d="M80.31,421.76c.28-.28-1.87-1.6-2.11-1.44s.23,1,.62,1.25S80,422.08,80.31,421.76Z" style="fill:#fff"></path></g><g style="opacity:0.2"><path d="M96.13,422.18c4.36-4.69.85-11.83-4.78-14.5a20.88,20.88,0,0,0-17.86.17c-6.15,3.16-8.69,10.87-4.07,15.88,2.12,2.25,5.36,3.4,8.58,3.94a41.73,41.73,0,0,0,9.8.15C83,428,77.87,428,73.5,426c-8-3.41-7.43-12.94-.65-17.14a17.5,17.5,0,0,1,9-2.61A19.43,19.43,0,0,1,91.1,408c5.56,2.55,9.08,9.43,5,14.14Z"></path><path d="M96.76,426.08c0-3.33-6.18-3.32-8.93-3.75a30.49,30.49,0,0,1-7.54-2,13.1,13.1,0,0,1-2.24-1.22c2.52,2.23,6.2,3.2,9.67,3.76,2.75.49,8.52.08,9,3.21Z"></path><path d="M88.88,417.45c-1.73,1.59-3.25,3.38-5.8,4,2.79.16,4.85-2,5.8-4Z"></path><path d="M83.19,421.42c-.5-.76-1.06-1.43-1.48-2.15S81,417.76,80.47,417a5,5,0,0,0,2.72,4.42Z"></path></g><g style="opacity:0.4"><path d="M76.64,428.05c-1.32-.67-3-1.25-4.4-1.83-.48-.2-1-.39-1.48-.62a4,4,0,0,0,1.13,1.11,8.21,8.21,0,0,0,4.75,1.34Z" style="fill:#fff"></path><path d="M93.36,426.69c-2.24,1.36-5.08,1.63-7.74,1.81s-5.41-.21-8.16-.2a20.9,20.9,0,0,0,8.22.87c2.7-.25,5.71-.75,7.68-2.48Z" style="fill:#fff"></path></g><path d="M116.49,439.85a44.71,44.71,0,0,0,6.7-.27,15.68,15.68,0,0,0,6.09-2.75,20.9,20.9,0,0,0,2.63-4.14,23.43,23.43,0,0,0,3.17-11.1c0-6-5.87-14.22-18.59-14.22s-18.59,8-18.59,14.22,1,11.45,3.9,13.27c1.36.84,5.82,3.89,7.22,4.39C111.61,440.16,116.49,439.85,116.49,439.85Z" style="fill:#4D4D4D"></path><path d="M116.49,439.85a44.71,44.71,0,0,0,6.7-.27,15.68,15.68,0,0,0,6.09-2.75,20.9,20.9,0,0,0,2.63-4.14,23.43,23.43,0,0,0,3.17-11.1c0-6-5.87-14.22-18.59-14.22s-18.59,8-18.59,14.22,1,11.45,3.9,13.27c1.36.84,5.82,3.89,7.22,4.39C111.61,440.16,116.49,439.85,116.49,439.85Z" style="opacity:0.1"></path><path d="M116.49,439.85a44.71,44.71,0,0,0,6.7-.27,15.68,15.68,0,0,0,6.09-2.75,20.9,20.9,0,0,0,2.63-4.14,23.43,23.43,0,0,0,3.17-11.1c0-6-5.87-14.22-18.59-14.22s-18.59,8-18.59,14.22,1,11.45,3.9,13.27c1.36.84,5.82,3.89,7.22,4.39C111.61,440.16,116.49,439.85,116.49,439.85Z" style="fill:#fff;opacity:0.4"></path><path d="M97.9,421.59c0,6.18,1,11.45,3.9,13.27,1.36.84,5.82,3.9,7.22,4.38,2.58.92,7.47.61,7.47.61a46.15,46.15,0,0,0,6.7-.27,15.72,15.72,0,0,0,6.1-2.75,21.92,21.92,0,0,0,2.63-4.14,23.48,23.48,0,0,0,3.16-11.1c0-.32,0-.64,0-1a10.53,10.53,0,0,1-3.12,6.71,18.3,18.3,0,0,1-2.63,3.76,17.67,17.67,0,0,1-6.1,2.34,54.6,54.6,0,0,1-6.7.23s-4.89.25-7.47-.52c-1.4-.42-5.86-3.21-7.22-3.93-2.68-1.41-3.71-3.93-3.87-8.34Q97.9,421.25,97.9,421.59Z" style="opacity:0.1"></path><path d="M117.66,407.39c11.26.46,16.81,7.52,17.38,13.23,0-.36,0-.74,0-1.13C135.08,414.52,129.57,407.8,117.66,407.39Z" style="fill:#fff;opacity:0.4"></path><path d="M101.16,420.43c0,5.58,4.6,11.41,20.47,10.21a7.44,7.44,0,0,0,6.05-4.36c1.86,0,4.15-3.06,4.15-5.85,0-5.59-5.31-11.6-15.34-11.6S101.16,414.84,101.16,420.43Z" style="fill:#4D4D4D"></path><path d="M101.16,420.43c0,5.58,4.6,11.41,20.47,10.21a7.44,7.44,0,0,0,6.05-4.36c1.86,0,4.15-3.06,4.15-5.85,0-5.59-5.31-11.6-15.34-11.6S101.16,414.84,101.16,420.43Z" style="opacity:0.1"></path><path d="M101.16,420.43c0,5.58,4.6,11.41,20.47,10.21a7.44,7.44,0,0,0,6.05-4.36c1.86,0,4.15-3.06,4.15-5.85,0-5.59-5.31-11.6-15.34-11.6S101.16,414.84,101.16,420.43Z" style="fill:#fff;opacity:0.4"></path><path d="M103.84,426.82a8.22,8.22,0,0,1-2-5.45c0-5.32,5.06-11.05,14.6-11.05s14.61,5.73,14.61,11.05a6.72,6.72,0,0,1-1.38,3.86,7.1,7.1,0,0,0,2.11-4.8c0-5.59-5.31-11.6-15.34-11.6s-15.33,6-15.33,11.6A8.62,8.62,0,0,0,103.84,426.82Z" style="opacity:0.1"></path><g style="opacity:0.4"><path d="M121.75,426.68c0-.49-4.44-1.67-6.72-1.67-.83,0,1,1.87,2,2.14S121.76,427.21,121.75,426.68Z" style="fill:#fff"></path><path d="M114.14,424.57c.28-.27-1.87-1.6-2.11-1.43s.23,1,.62,1.24S113.82,424.89,114.14,424.57Z" style="fill:#fff"></path></g><g style="opacity:0.2"><path d="M130,425c4.37-4.69.86-11.83-4.77-14.5a20.88,20.88,0,0,0-17.86.18c-6.15,3.16-8.69,10.86-4.07,15.87,2.12,2.25,5.36,3.41,8.58,3.94a42.28,42.28,0,0,0,9.8.16c-4.83.22-9.93.14-14.3-1.78-8-3.41-7.43-12.94-.65-17.15a17.37,17.37,0,0,1,9-2.6,19.43,19.43,0,0,1,9.29,1.75c5.56,2.54,9.08,9.43,5,14.13Z"></path><path d="M130.59,428.9c0-3.34-6.18-3.32-8.93-3.76a30.49,30.49,0,0,1-7.54-2,12.44,12.44,0,0,1-2.24-1.22c2.52,2.24,6.19,3.2,9.67,3.76,2.75.49,8.52.09,9,3.22Z"></path><path d="M122.71,420.26c-1.73,1.59-3.25,3.38-5.8,4,2.79.15,4.85-2,5.8-4Z"></path><path d="M117,424.23c-.5-.75-1.06-1.43-1.48-2.15s-.75-1.51-1.24-2.27a4.93,4.93,0,0,0,2.72,4.42Z"></path></g><g style="opacity:0.4"><path d="M110.47,430.87c-1.32-.67-3-1.26-4.4-1.83-.48-.21-1-.4-1.48-.63a3.86,3.86,0,0,0,1.13,1.11,8.2,8.2,0,0,0,4.75,1.35Z" style="fill:#fff"></path><path d="M127.19,429.5c-2.24,1.36-5.08,1.64-7.74,1.81s-5.41-.2-8.16-.2a20.9,20.9,0,0,0,8.22.88c2.7-.26,5.71-.75,7.68-2.49Z" style="fill:#fff"></path></g></g></svg>
