<svg xmlns="http://www.w3.org/2000/svg" viewBox="0 0 500 500"><g id="freepik--background-simple--inject-48"><path d="M456.71,249.7a324.49,324.49,0,0,0-10.44-50.14c-12.79-43.77-39-131.23-45.93-137.17-9.28-8-359.93,64.29-365.89,82.19S41.08,438.89,51.68,447.5s404.34,3.32,416.94-7.95C478.43,430.77,463.69,304.87,456.71,249.7Z" style="fill:#4D4D4D"></path><path d="M456.71,249.7a324.49,324.49,0,0,0-10.44-50.14c-12.79-43.77-39-131.23-45.93-137.17-9.28-8-359.93,64.29-365.89,82.19S41.08,438.89,51.68,447.5s404.34,3.32,416.94-7.95C478.43,430.77,463.69,304.87,456.71,249.7Z" style="fill:#fff;opacity:0.8"></path></g><g id="freepik--Clouds--inject-48"><path d="M457.39,104.58S455,92.05,444.26,90.26s-17.3,12.53-19.09,13.13-3.58-4.18-9.55-1.79a19.52,19.52,0,0,0-8.95,7.76s-2.38-3.58-6.56-3-7.76,4.78-7.76,4.78h84.73s-2.38-6.57-7.75-8.36S457.39,104.58,457.39,104.58Z" style="fill:none;stroke:#263238;stroke-linecap:round;stroke-linejoin:round"></path><path d="M86.26,198.57s-2.08-10.88-11.4-12.43-15,10.88-16.58,11.4S55.17,193.91,50,196a16.88,16.88,0,0,0-7.77,6.74,6.19,6.19,0,0,0-5.7-2.59c-3.62.51-6.73,4.14-6.73,4.14h73.56s-2.07-5.7-6.73-7.25S86.26,198.57,86.26,198.57Z" style="fill:none;stroke:#263238;stroke-linecap:round;stroke-linejoin:round"></path><path d="M193.34,35.61s-1.63-8.54-9-9.76-11.8,8.54-13,8.95-2.44-2.85-6.51-1.22a13.26,13.26,0,0,0-6.1,5.29,4.89,4.89,0,0,0-4.48-2c-2.85.41-5.29,3.26-5.29,3.26h57.78s-1.62-4.48-5.29-5.7S193.34,35.61,193.34,35.61Z" style="fill:none;stroke:#263238;stroke-linecap:round;stroke-linejoin:round"></path></g><g id="freepik--Arrows--inject-48"><path d="M140.47,50.18l-7.41,16.74L141,65a15.38,15.38,0,0,0,3.85,14c6,6.58,18.11,12.35,15.92,20.86s-8,13.72-6.87,23.88,11,18.39,11,18.39l9.34-10.43s-9.34-6-5.77-16.75,6.75-20.56.55-30.74c-4.37-7.18-14.43-5.93-20.59-14.55-3.23-4.52-1.92-6-1.92-6l7.41-2.2Z" style="fill:#d4d4d4"></path><path d="M245.41,51l-12.35,8.79,6,1.64s-6.86,7.42-4.94,16.2,17.29,18.66,18.11,25.25-5.76,16.47-5.76,16.47l11.25,3.84s7.69-15.64,4.67-25-20.31-17.57-21.69-24.71a14.16,14.16,0,0,1,3-11.8l4.67.55Z" style="fill:#263238;stroke:#263238;stroke-linecap:round;stroke-linejoin:round"></path><path d="M298.83,46.07,288,47.53l3.32,3.09s-6.9,2.44-8.64,8.71,4.79,17.8,3.09,22.3-9.25,8.62-9.25,8.62l5.92,6.26s10.2-7.44,11.42-14.44S286.72,64,288.25,58.92a10.23,10.23,0,0,1,5.91-6.55L297,54.3Z" style="fill:#4D4D4D"></path><path d="M93.34,97.07l10.57-3-1.81,4.15s7.29-.5,11.38,4.57,2.68,18.24,6,21.69,11.91,4.23,11.91,4.23l-2.94,8.1s-12.32-2.77-16.22-8.72-.68-19.44-4.09-23.45a10.24,10.24,0,0,0-8-3.66l-1.81,2.88Z" style="fill:#4D4D4D"></path></g><g id="freepik--Hearts--inject-48"><path d="M269.61,34.94s-2.91-4-7.32-2.37a6.76,6.76,0,0,0-3.89,8.86c1.75,4.13,10.39,11.32,10.39,11.32s12-6.23,12.45-14C281.58,32.71,274.3,29.69,269.61,34.94Z" style="fill:#263238"></path><polygon points="274.28 40.27 270.78 40.27 270.78 36.77 267.86 36.77 267.86 40.27 264.36 40.27 264.36 43.19 267.86 43.19 267.86 46.69 270.78 46.69 270.78 43.19 274.28 43.19 274.28 40.27" style="fill:#4D4D4D"></polygon><path d="M78.48,135s-4.88-1-7,3.19a6.75,6.75,0,0,0,3.11,9.16c4.08,1.87,15.3,1.34,15.3,1.34S94.55,136,89.61,130C85.8,125.31,78.4,128,78.48,135Z" style="fill:#263238"></path><polygon points="85.52 135.82 82.94 138.18 80.58 135.6 78.42 137.57 80.79 140.15 78.2 142.51 80.17 144.67 82.76 142.3 85.12 144.89 87.27 142.92 84.91 140.33 87.49 137.97 85.52 135.82" style="fill:#4D4D4D"></polygon><path d="M300.69,195.55s.3-5-4.18-6.45a6.75,6.75,0,0,0-8.61,4.41c-1.25,4.31.92,15.34.92,15.34s13.24,2.74,18.51-3C311.39,201.37,307.64,194.44,300.69,195.55Z" style="fill:#263238"></path><polygon points="300.95 202.64 298.24 200.43 300.45 197.71 298.18 195.87 295.97 198.59 293.26 196.38 291.42 198.64 294.13 200.85 291.92 203.57 294.19 205.41 296.4 202.69 299.11 204.9 300.95 202.64" style="fill:#4D4D4D"></polygon></g><g id="freepik--Plants--inject-48"><path d="M188.62,77.3a11.32,11.32,0,0,0-5.43-2.81c-3.18-.56-6.93-5.24-3.37-8s9.36,3.93,10.11,6l.75,2.06s-1.68-8.24-.75-12.55,7.68-3.74,7.87,1.31a19.88,19.88,0,0,1-2.44,9.56s3.94-4.87,6.93-6,6.74,3,5.25,5.81-10.3,3.93-11.8,4.87A6.18,6.18,0,0,1,188.62,77.3Z" style="fill:#4D4D4D"></path><path d="M188.62,77.3s1.13,3.93,3.19,4.12,3.93-3.93,3.93-3.93S190.12,77.3,188.62,77.3Z" style="fill:#263238;stroke:#263238;stroke-linecap:round;stroke-linejoin:round"></path><path d="M191.81,81.42s-.57,25.09,7.49,50" style="fill:#fff;stroke:#263238;stroke-linecap:round;stroke-linejoin:round"></path><path d="M192.37,95.09s-2.44-2.62-5.06-5.8-7.68-5.44-7.68-5.44-.93,6,3.37,9.37A11.16,11.16,0,0,0,192.37,95.09Z" style="fill:#263238;stroke:#263238;stroke-linecap:round;stroke-linejoin:round"></path><path d="M192.37,95.09s1.12-5.43,3.37-7.86,7.42-5.08,7.42-5.08a34.66,34.66,0,0,1-2.37,9C198.92,95.47,192.37,95.09,192.37,95.09Z" style="fill:#263238;stroke:#263238;stroke-linecap:round;stroke-linejoin:round"></path><path d="M193.68,106s-2.44-2.62-5.06-5.8-7.68-5.43-7.68-5.43-.93,6,3.37,9.36A11.16,11.16,0,0,0,193.68,106Z" style="fill:#263238;stroke:#263238;stroke-linecap:round;stroke-linejoin:round"></path><path d="M193.68,106a13.25,13.25,0,0,1,2.81-6.18,84.86,84.86,0,0,1,8-6.76,26.19,26.19,0,0,1-2,8.64C200.61,106,193.68,106,193.68,106Z" style="fill:#263238;stroke:#263238;stroke-linecap:round;stroke-linejoin:round"></path><path d="M195.93,119.62a30,30,0,0,0-3.38-4.68c-2.62-3.18-9.36-6.55-9.36-6.55s-.75,7.49,3.56,10.86S195.93,119.62,195.93,119.62Z" style="fill:#263238;stroke:#263238;stroke-linecap:round;stroke-linejoin:round"></path><path d="M195.93,119.62a13.3,13.3,0,0,1,2.8-6.18,86.21,86.21,0,0,1,8-6.76,30.63,30.63,0,0,1-2.17,9C202.67,120,195.93,119.62,195.93,119.62Z" style="fill:#263238;stroke:#263238;stroke-linecap:round;stroke-linejoin:round"></path><path d="M259.15,197.08s16.57-16.36,22.28-36.48" style="fill:#fff;stroke:#4D4D4D;stroke-linecap:round;stroke-linejoin:round"></path><path d="M280,165.22a8.54,8.54,0,0,0,4-7.32c-.08-2.94-1.27-7-2.6-6.17s-2.81,3.46-3.32,6.21C277.3,161.8,280,165.22,280,165.22Z" style="fill:#4D4D4D"></path><path d="M276.27,173.17s1.19-5.17-.55-7.54-5.73-5.57-6.34-4.15-.1,5.51,1.08,8S276.27,173.17,276.27,173.17Z" style="fill:#4D4D4D"></path><path d="M290.18,174.3s-3.69-3.81-6.62-3.64-7.8,1.77-6.93,3.05,4.55,3.09,7.32,3.48S290.18,174.3,290.18,174.3Z" style="fill:#4D4D4D"></path><path d="M271.72,180.88s1.19-5.17-.56-7.54-5.73-5.57-6.33-4.14-.11,5.5,1.07,8S271.72,180.88,271.72,180.88Z" style="fill:#4D4D4D"></path><path d="M285.62,182s-3.68-3.81-6.62-3.64-7.79,1.77-6.93,3,4.56,3.09,7.33,3.48S285.62,182,285.62,182Z" style="fill:#4D4D4D"></path><path d="M266.82,187.89s1.18-5.17-.56-7.54-5.73-5.57-6.34-4.14-.1,5.5,1.08,8S266.82,187.89,266.82,187.89Z" style="fill:#4D4D4D"></path><path d="M280.72,189s-3.69-3.81-6.62-3.64-7.79,1.77-6.93,3.05,4.55,3.09,7.32,3.48S280.72,189,280.72,189Z" style="fill:#4D4D4D"></path><path d="M261.48,194.35s1.19-5.17-.56-7.53-5.73-5.57-6.33-4.15-.11,5.5,1.07,8S261.48,194.35,261.48,194.35Z" style="fill:#4D4D4D"></path><path d="M275.38,195.49s-3.68-3.82-6.62-3.65-7.79,1.77-6.93,3,4.56,3.09,7.33,3.49S275.38,195.49,275.38,195.49Z" style="fill:#4D4D4D"></path><path d="M134.1,187.92a9.85,9.85,0,0,0-5,2c-2.2,1.77-7.44,1.54-7.24-2.42s8-3.89,9.76-3.2l1.79.7s-6.39-3.64-8.68-6.73,1.95-7.2,5.39-4.42a17.37,17.37,0,0,1,4.87,7.1s-.93-5.39,0-8,5.85-2.71,6.83-.11-3.34,9-3.58,10.56A5.39,5.39,0,0,1,134.1,187.92Z" style="fill:#4D4D4D"></path><path d="M134.1,187.92s3.23,1.52,4.54.28-.32-4.85-.32-4.85S135,186.93,134.1,187.92Z" style="fill:#263238;stroke:#263238;stroke-linecap:round;stroke-linejoin:round"></path><path d="M138.64,188.2S154.81,203,175.82,212" style="fill:#fff;stroke:#263238;stroke-linecap:round;stroke-linejoin:round"></path><path d="M148,195.69s-3.13.09-6.73,0-8,1.92-8,1.92,3.4,4.06,8.09,3.17A9.75,9.75,0,0,0,148,195.69Z" style="fill:#263238;stroke:#263238;stroke-linecap:round;stroke-linejoin:round"></path><path d="M148,195.69s-2.93-3.86-3.23-6.74.93-7.8.93-7.8a30.33,30.33,0,0,1,4.56,6.74C152,191.6,148,195.69,148,195.69Z" style="fill:#263238;stroke:#263238;stroke-linecap:round;stroke-linejoin:round"></path><path d="M155.84,201.08s-3.12.09-6.72,0-8,1.93-8,1.93,3.4,4.06,8.09,3.17A9.72,9.72,0,0,0,155.84,201.08Z" style="fill:#263238;stroke:#263238;stroke-linecap:round;stroke-linejoin:round"></path><path d="M155.84,201.08a11.49,11.49,0,0,1-2.44-5.4,74.36,74.36,0,0,1,.14-9.14,22.74,22.74,0,0,1,4.53,6.28C159.83,196.53,155.84,201.08,155.84,201.08Z" style="fill:#263238;stroke:#263238;stroke-linecap:round;stroke-linejoin:round"></path><path d="M166.12,207.47a25.88,25.88,0,0,0-5-.48c-3.6-.11-9.69,2.38-9.69,2.38s4.49,4.81,9.19,3.91S166.12,207.47,166.12,207.47Z" style="fill:#263238;stroke:#263238;stroke-linecap:round;stroke-linejoin:round"></path><path d="M166.12,207.47a11.55,11.55,0,0,1-2.44-5.4,74.36,74.36,0,0,1,.14-9.14,26.56,26.56,0,0,1,4.67,6.61C170.25,203.25,166.12,207.47,166.12,207.47Z" style="fill:#263238;stroke:#263238;stroke-linecap:round;stroke-linejoin:round"></path><path d="M224.61,132.35s4.17,33.8-1.2,54.43" style="fill:#fff;stroke:#263238;stroke-linecap:round;stroke-linejoin:round"></path><path d="M224.07,122.58s1.89-7,4.36-6.16,2.93,7.57,2.94,9.63-3.58,3.94-5.29,5.27S224.07,122.58,224.07,122.58Z" style="fill:#4D4D4D"></path><path d="M225.8,150.34s-9-2.39-10.41-7.46,4.2-23.69,6.87-22.33,3.82,10.77,3.82,10.77,4.93-10.72,7.21-10.44,4.31,15.21,2.26,21.39S225.8,150.34,225.8,150.34Z" style="fill:#4D4D4D"></path><path d="M224.38,184.89s1.81-13.38,6.42-19.55,18-22,18-22a212,212,0,0,1-9.68,30.89C233.64,188,224.38,184.89,224.38,184.89Z" style="fill:#263238"></path><path d="M223.62,179.11a49.11,49.11,0,0,0-7.12-17.26,131.92,131.92,0,0,0-14.24-17.77s3.31,23.14,8,29.35S224,185.83,224,185.83Z" style="fill:#263238"></path><path d="M192.76,194.84s-14.15-28.65-37.9-44.8" style="fill:#fff;stroke:#4D4D4D;stroke-linecap:round;stroke-linejoin:round"></path><path d="M160.26,153.94a11.76,11.76,0,0,0-7.82-8.35c-3.87-1.16-9.63-1.35-9.18.73s3.29,5.15,6.66,7C154.63,155.94,160.26,153.94,160.26,153.94Z" style="fill:#4D4D4D"></path><path d="M169,162.19s-6.23-3.78-10.07-2.53-9.73,5.06-8.14,6.47,7.13,2.51,10.94,2.07S169,162.19,169,162.19Z" style="fill:#4D4D4D"></path><path d="M176.49,144.56s-6.56,3.16-7.61,7.06-1.06,10.92,1,10.35,6-4.6,7.71-8S176.49,144.56,176.49,144.56Z" style="fill:#4D4D4D"></path><path d="M177.09,171.46s-6.22-3.78-10.06-2.53-9.74,5.06-8.14,6.46,7.12,2.52,10.94,2.08S177.09,171.46,177.09,171.46Z" style="fill:#4D4D4D"></path><path d="M184.57,153.83S178,157,177,160.89s-1.07,10.92,1,10.35,6-4.6,7.71-8S184.57,153.83,184.57,153.83Z" style="fill:#4D4D4D"></path><path d="M184.1,180.88s-6.22-3.78-10.06-2.53-9.73,5.06-8.14,6.46,7.12,2.52,10.94,2.08S184.1,180.88,184.1,180.88Z" style="fill:#4D4D4D"></path><path d="M191.58,163.25s-6.56,3.15-7.6,7.06-1.07,10.91,1,10.34,6-4.6,7.7-8S191.58,163.25,191.58,163.25Z" style="fill:#4D4D4D"></path><path d="M190.22,190.63s-6.22-3.78-10.06-2.53-9.74,5.06-8.14,6.46,7.12,2.51,10.94,2.08S190.22,190.63,190.22,190.63Z" style="fill:#4D4D4D"></path><path d="M197.7,173s-6.56,3.15-7.6,7.05-1.07,10.92,1,10.35,6-4.6,7.71-8S197.7,173,197.7,173Z" style="fill:#4D4D4D"></path><path d="M269.23,136.69a13.33,13.33,0,0,0-3.26-6.43c-2.66-2.73-3-9.79,2.32-10s6.25,10.21,5.55,12.69l-.7,2.49s4.06-9,7.92-12.52,9.93,1.71,6.62,6.67a23.4,23.4,0,0,1-8.9,7.46s7.11-1.94,10.75-1,4.39,7.52,1,9.17-12.56-3.33-14.64-3.47A7.28,7.28,0,0,1,269.23,136.69Z" style="fill:#263238"></path><path d="M269.23,136.69s-1.63,4.54.21,6.13,6.47-1,6.47-1S270.66,137.72,269.23,136.69Z" style="fill:#4D4D4D"></path><path d="M295.64,110.73s-1-2.37.86-7.33,7.05-5.75,7.05-5.75a11.1,11.1,0,0,1-.52,6.27C301.72,107.05,295.64,110.73,295.64,110.73Z" style="fill:#4D4D4D"></path><path d="M136.55,86.24s-2.55.33-6.87-2.71-3.75-8.29-3.75-8.29a11.07,11.07,0,0,1,5.92,2.11C134.55,79.42,136.55,86.24,136.55,86.24Z" style="fill:#263238;stroke:#263238;stroke-linecap:round;stroke-linejoin:round"></path><path d="M108.51,149.88s1.42-2.13,6.55-3.43,8.72,2.58,8.72,2.58a11.15,11.15,0,0,1-5.47,3.11C115,152.83,108.51,149.88,108.51,149.88Z" style="fill:#4D4D4D"></path><path d="M221.4,46.1s1.46,2.1.77,7.35-5.61,7.15-5.61,7.15a11,11,0,0,1-.87-6.23C216.27,51,221.4,46.1,221.4,46.1Z" style="fill:#4D4D4D"></path></g><g id="freepik--Character--inject-48"><path d="M179.06,201.58s-14.64,11.59-16.77,23.48-1.22,13.42-2.75,17.39S136.06,254,133.62,272.33s13.42,30.81,12.81,36-9.15,16.17-5.8,40.57,48.5,27.44,77.17,26.22,87.53-16.16,97.29-35.37,7.32-36.91,4-44.23S302.28,280.87,298.31,272s3.36-15.56-1.83-32.33-17.38-34.77-28.36-42.39-22.57-10.07-43.31-11S183,199.44,179.06,201.58Z" style="fill:#263238;stroke:#263238;stroke-linecap:round;stroke-linejoin:round"></path><path d="M369.27,221.23s-4.3-73.14-9-87.72-9.46-32.69-9.46-32.69l27.55,1.44s9.45,37,19.3,66.58,13.79,46.87,13.79,46.87S376,222.41,369.27,221.23Z" style="fill:#fff;stroke:#263238;stroke-linecap:round;stroke-linejoin:round"></path><path d="M403.73,187.94l-37.85,9.59c2,13.39,3.39,23.7,3.39,23.7,6.7,1.18,42.15-5.52,42.15-5.52S409.14,205.7,403.73,187.94Z" style="fill:#4D4D4D;stroke:#263238;stroke-linecap:round;stroke-linejoin:round"></path><path d="M202.25,357.53s-44.91.78-61.85,11.42-22.06,32.7-22.85,43.33-.39,61.06-.39,61.06h219s2.76-32.3,4.73-49.63S343.27,402,343.27,402s52.79-52.79,63.42-71.69,16.55-39.79,16.94-44.91-6.57-63.7-9.45-70.91c-1.58-3.94-6.3-5.91-16.55-3.94s-25.6,2.76-29.15,6.31.4,60.27.4,60.27-4.73.39-3.16,2.36a7.63,7.63,0,0,1,1.58,4.33l-26.79,33.49A120.36,120.36,0,0,0,314.91,328c-13.4,7.49-26.79,20.88-26.79,20.88s-10,2.74-14,2.36S202.25,357.53,202.25,357.53Z" style="fill:#4D4D4D;stroke:#263238;stroke-linecap:round;stroke-linejoin:round"></path><path d="M396.52,288.18a39.23,39.23,0,0,0,5.84,0" style="fill:none;stroke:#263238;stroke-linecap:round;stroke-linejoin:round"></path><path d="M371.63,279.92a62.45,62.45,0,0,0,22.36,8" style="fill:none;stroke:#263238;stroke-linecap:round;stroke-linejoin:round"></path><path d="M370.06,285.44s-1.18,8.66,16.94,13.39" style="fill:none;stroke:#263238;stroke-linecap:round;stroke-linejoin:round"></path><line x1="343.27" y1="361.86" x2="343.27" y2="402.04" style="fill:none;stroke:#263238;stroke-linecap:round;stroke-linejoin:round"></line><line x1="346.9" y1="374.76" x2="346.03" y2="381.16" style="fill:none;stroke:#263238;stroke-linecap:round;stroke-linejoin:round"></line><line x1="350.36" y1="349.25" x2="347.34" y2="371.5" style="fill:none;stroke:#263238;stroke-linecap:round;stroke-linejoin:round"></line><path d="M278.27,367.38s-3.94,13.78-19.3,35.05" style="fill:none;stroke:#263238;stroke-linecap:round;stroke-linejoin:round"></path><path d="M260.42,421.62c-1.21,2.31-2.48,4.6-3.81,6.81" style="fill:none;stroke:#263238;stroke-linecap:round;stroke-linejoin:round"></path><path d="M274.33,388.25a237.77,237.77,0,0,1-12.11,29.84" style="fill:none;stroke:#263238;stroke-linecap:round;stroke-linejoin:round"></path><line x1="162.85" y1="472.55" x2="161.67" y2="441.04" style="fill:none;stroke:#263238;stroke-linecap:round;stroke-linejoin:round"></line><path d="M337,97.77a19.2,19.2,0,0,1-13.44,2.55c-7.63-1.46-11.63-.37-9.45,4s10.9,5.82,15.63,6.91,16.71-1.46,16.71-1.46S343.14,94.5,337,97.77Z" style="fill:#fff;stroke:#263238;stroke-linecap:round;stroke-linejoin:round"></path><path d="M373.77,92.28s8.16,17.34,9.42,22.69,1.88,9.43-1.89,11.94S369,125,364.64,122.2a35.77,35.77,0,0,1-7.78-7.21s-1.65,3.12-8.57,1.23-9.71-20.86-9.71-20.86S351.46,76.51,373.77,92.28Z" style="fill:#fff;stroke:#263238;stroke-linecap:round;stroke-linejoin:round"></path><path d="M400.42,181.26c-.23-1.7-4-9.5-8.8-18.9L393,151.69c2.25-5.79,3.53-13.18,0-26.36s-16.63-24.35-31.5-26-34.71-1-46,17.68c-10.56,17.49-.65,33.1,0,37s-1.93,13.18-10.93,12.53S269,155.55,269,155.55l1.93,11.57s6.11,1.28,20.89,9.32,37.29,18.32,37.29,18.32,6.42,13.5,9,16.07,12.86,1,31.5-4.5S401.06,186.08,400.42,181.26ZM383.7,146.55c-8.82-17.27-13.17-24.11-13.17-24.11L322,140.76s-4.78-11.84,1-21.21c6.11-10,20.25-12.54,30.85-12.54s26.36,9,30.86,19S383.7,146.55,383.7,146.55Z" style="fill:#263238;stroke:#263238;stroke-linecap:round;stroke-linejoin:round"></path><polyline points="321.99 140.76 316.85 142.69 321.35 156.83" style="fill:none;stroke:#263238;stroke-linecap:round;stroke-linejoin:round"></polyline><line x1="383.7" y1="146.55" x2="387.56" y2="154.58" style="fill:none;stroke:#263238;stroke-linecap:round;stroke-linejoin:round"></line><path d="M269,155.55s-10-6.75-13.5-8,0,21.21,2.57,26.68,12.86-7.07,12.86-7.07Z" style="fill:#fff;stroke:#263238;stroke-linecap:round;stroke-linejoin:round"></path><path d="M258,174.19a2.16,2.16,0,0,0,1.74,1.36c3.07-12.08-4.31-28-4.31-28C251.93,146.22,255.46,168.72,258,174.19Z" style="fill:#fff;stroke:#263238;stroke-linecap:round;stroke-linejoin:round"></path><path d="M349.84,78.76s-4.8-1.44-6.24-.38-14.76,9.38-15.21,13.35,3.35,13.71,3.32,16.31,4.66,4.38,6.06,2.19.81-14.87.81-14.87l12-5.54S354.53,80.54,349.84,78.76Z" style="fill:#fff;stroke:#263238;stroke-linecap:round;stroke-linejoin:round"></path><path d="M359.64,81.52s-2.68-5.62-6-4.86-11.81,13.08-13.93,17.25.71,10.71,2.44,15.17,3.61,5.46,5.94,3.53,2-12.52,2-12.52l8.63-12.71S361.81,87.42,359.64,81.52Z" style="fill:#fff;stroke:#263238;stroke-linecap:round;stroke-linejoin:round"></path><path d="M367.8,85.48s-2.55-5.34-5.67-4.61-11.2,12.41-13.22,16.37.68,10.17,2.31,14.4,3.43,5.18,5.64,3.35,1.91-11.88,1.91-11.88L367,91S369.86,91.08,367.8,85.48Z" style="fill:#fff;stroke:#263238;stroke-linecap:round;stroke-linejoin:round"></path><path d="M373.77,92.28s-2.11-4.4-4.68-3.81S359.84,98.72,358.17,102s.56,8.4,1.91,11.89,2.83,4.28,4.66,2.77,1.57-9.81,1.57-9.81l6.77-10S375.47,96.9,373.77,92.28Z" style="fill:#fff;stroke:#263238;stroke-linecap:round;stroke-linejoin:round"></path><path d="M247.48,153.77s-10.87-.65-13.13,3.38S241.1,159,247.48,153.77Z" style="fill:#fff;stroke:#263238;stroke-linecap:round;stroke-linejoin:round"></path><path d="M222.21,175s-10.47,2.95-11.28,7.5S217.92,182,222.21,175Z" style="fill:#fff;stroke:#263238;stroke-linecap:round;stroke-linejoin:round"></path><path d="M241.33,174.58s-10.47,2.95-11.28,7.5S237,181.63,241.33,174.58Z" style="fill:#fff;stroke:#263238;stroke-linecap:round;stroke-linejoin:round"></path><path d="M229.08,159.7s-10.85.71-12.59,5S223.42,165.71,229.08,159.7Z" style="fill:#fff;stroke:#263238;stroke-linecap:round;stroke-linejoin:round"></path><path d="M240,164.2s-10.86.71-12.6,5S234.29,170.21,240,164.2Z" style="fill:#fff;stroke:#263238;stroke-linecap:round;stroke-linejoin:round"></path><path d="M256.08,163.07s-10.86.72-12.6,5S250.41,169.08,256.08,163.07Z" style="fill:#fff;stroke:#263238;stroke-linecap:round;stroke-linejoin:round"></path><path d="M210.37,168.74s-10.56,2.63-11.51,7.15S205.86,175.66,210.37,168.74Z" style="fill:#fff;stroke:#263238;stroke-linecap:round;stroke-linejoin:round"></path><path d="M212.54,332.65s-11.68-1.33-13.53.79.26,17,0,20.16-3.19,9-.53,13,18.3,11.94,39,11.67,34.22-10.08,37.4-15.65-.79-10.08-.79-11.4,1.06-11.41-1.59-16.18-19.37-4-19.37-4Z" style="fill:#4D4D4D;stroke:#263238;stroke-linecap:round;stroke-linejoin:round"></path><path d="M210.51,338.37s-9.38-2.54-7.79-3.07" style="fill:none;stroke:#263238;stroke-linecap:round;stroke-linejoin:round"></path><path d="M260.28,338.75s8.76-2.12,8.76-3.18-3.72-.8-3.72-.8" style="fill:none;stroke:#263238;stroke-linecap:round;stroke-linejoin:round"></path><path d="M229.57,360.66c7.67-1.26,20.11-4,27.27-9.44" style="fill:none;stroke:#263238;stroke-linecap:round;stroke-linejoin:round"></path><path d="M222.88,361.56s1.38-.12,3.61-.43" style="fill:none;stroke:#263238;stroke-linecap:round;stroke-linejoin:round"></path><path d="M263.2,352.54s-13,5.84-17.51,7.43" style="fill:none;stroke:#263238;stroke-linecap:round;stroke-linejoin:round"></path><path d="M209.62,316.2l-.27,21s-1.06,2.12,18.31,3.45,32.62-1.86,32.62-1.86l-1.06-17.51Z" style="fill:#fff;stroke:#263238;stroke-linecap:round;stroke-linejoin:round"></path><path d="M276.2,267.66s1.59-6.1,5.31-4.78,5.83,10.88,3.44,17.25-8.22,13.26-8.22,13.26S276.47,275.35,276.2,267.66Z" style="fill:#fff;stroke:#263238;stroke-linecap:round;stroke-linejoin:round"></path><path d="M250.47,225A39,39,0,0,1,230,236.09c-12.73,2.39-17-1.59-23.6,1.86s-9,10.61-8.76,16.45,1.06,14-3.45,17.77l-4.51,3.71s-2.12-8.49-6.1-9.81S172.48,269.25,173,278.8s8,18.83,11.14,20.16a37.46,37.46,0,0,0,8.49,1.86S204.31,317,213.86,323.9s27.59,12.73,36.61,8.22,22.81-15.65,26-26.53-.27-25.46-.27-31.57-.27-17.16-.27-17.16-14-7.36-18.25-13C252.33,236.75,250.47,225,250.47,225Z" style="fill:#fff;stroke:#263238;stroke-linecap:round;stroke-linejoin:round"></path><path d="M240.65,258.37s-1.06,10.88,0,15.39,8.23,11.41,6.9,15.39-6.1,5.57-9.55,4.77l-3.45-.8" style="fill:none;stroke:#263238;stroke-linecap:round;stroke-linejoin:round"></path><path d="M222.35,300.55a24,24,0,0,0,18.3,5.84c10.88-1.33,13.8-7.43,13.8-7.43" style="fill:none;stroke:#263238;stroke-linecap:round;stroke-linejoin:round"></path><path d="M225.27,271.37s-8.49,7.16-17.77,1.06" style="fill:none;stroke:#263238;stroke-linecap:round;stroke-linejoin:round"></path><path d="M264.79,267.39s-8.48,7.17-17.77,1.06" style="fill:none;stroke:#263238;stroke-linecap:round;stroke-linejoin:round"></path><path d="M203.78,261.82a17.39,17.39,0,0,1,9-8.22c6.37-2.39,13.53-1.06,14.06.26s-1.06,1.6-6.1,2.13S207.23,257.84,203.78,261.82Z" style="fill:#263238;stroke:#263238;stroke-linecap:round;stroke-linejoin:round"></path><path d="M267.35,256.22a17.31,17.31,0,0,0-10.62-6c-6.74-.92-13.43,2-13.65,3.37s1.39,1.32,6.42.72S263.1,253.1,267.35,256.22Z" style="fill:#263238;stroke:#263238;stroke-linecap:round;stroke-linejoin:round"></path><path d="M146.24,304.66s3.18,3.81-1.58,9.21-23.18,13.65-24.45,29.53,5.08,26.35,14,34.61,14.29,7,9.21,15.24-8.9,28.26,1.58,39.05,30.48,12.07,39.69,10.8,17.15-7.94,16.19-14-12.38-8.26-9.84-15.88,17.15-19.68,11.75-36.2-9.53-19.36-7.3-28.89,4.76-12.06,2.54-19.37" style="fill:#263238;stroke:#263238;stroke-linecap:round;stroke-linejoin:round"></path></g><g id="freepik--Table--inject-48"><line x1="448.57" y1="473.34" x2="467.55" y2="473.34" style="fill:none;stroke:#263238;stroke-linecap:round;stroke-linejoin:round"></line><line x1="30.75" y1="473.34" x2="443.19" y2="473.34" style="fill:none;stroke:#263238;stroke-linecap:round;stroke-linejoin:round"></line></g></svg>
