<svg xmlns="http://www.w3.org/2000/svg" viewBox="0 0 500 500"><g id="freepik--background-complete--inject-55"><circle cx="47.02" cy="150.52" r="22.7" transform="translate(-80.13 57.25) rotate(-36.39)" style="fill:#ebebeb"></circle><path d="M50,155.25a9.66,9.66,0,0,0,4.79-4.91,5.63,5.63,0,0,0,.11-4.17,3,3,0,0,0-3.31-1.69,4.33,4.33,0,0,0-2.16,1.79,8.2,8.2,0,0,1-1.86,2.15,6.67,6.67,0,0,1-4,.75,7.17,7.17,0,0,0-4,.67A2.58,2.58,0,0,0,38.17,152a3.68,3.68,0,0,0,1.91,3A10.12,10.12,0,0,0,50,155.25Z" style="fill:#fff"></path><path d="M35.67,147a2,2,0,0,0-2.32-.25,1.37,1.37,0,0,0-.56.48l0,0h0a2.24,2.24,0,0,0,0,2.29,2,2,0,0,0,2.88.4A2,2,0,0,0,35.67,147Z" style="fill:#fff"></path><path d="M55.78,139.16a2,2,0,0,0-2.32-.25,1.33,1.33,0,0,0-.57.48v0h0a2.24,2.24,0,0,0,0,2.29,2,2,0,0,0,2.88.4A2.05,2.05,0,0,0,55.78,139.16Z" style="fill:#fff"></path><path d="M365.52,229l.42,2.12-4.21,22.75h0a13.53,13.53,0,0,1-10.49,2.41l-23.8-4.4s-3.78-.85-2.73-5.76c0,0,.19-2.59,2.41-2.76,0,0-4.61-1.88-4.1-5.43s3.12-3.51,3.12-3.51-4.32-1.09-3.87-5.09,2.78-4,2.78-4-5-1.22-3.76-5.65a4.56,4.56,0,0,1,5.57-3.35l16.93,3.13,14.84,2.74A8.6,8.6,0,0,1,365.52,229Z" style="fill:#ebebeb"></path><path d="M361.33,223.19s-5.22-4.72-7.05-9.85a25.36,25.36,0,0,1-1.24-7.92c0-.2.34-2,.59-3.46a2.26,2.26,0,0,0-1.76-2.6,7.44,7.44,0,0,0-8.24,5.45c-2,6.82-.29,11.47-.23,13.55l.06,2.07Z" style="fill:#ebebeb"></path><rect x="361.04" y="224.76" width="16.9" height="34.35" transform="translate(688.86 547) rotate(-169.53)" style="fill:#ebebeb"></rect><path d="M358.06,257.28s1.33-7.57,3.06-16.89,3.15-16.89,3.18-16.88-1.33,7.57-3.05,16.9S358.1,257.29,358.06,257.28Z" style="fill:#e0e0e0"></path><path d="M374.68,260.36s1.34-7.58,3.06-16.9,3.15-16.88,3.19-16.88-1.34,7.58-3.06,16.9S374.72,260.36,374.68,260.36Z" style="fill:#e0e0e0"></path><path d="M368.74,232.33a3.16,3.16,0,1,0,3.69-2.54A3.15,3.15,0,0,0,368.74,232.33Z" style="fill:#fff"></path><path d="M339.9,218.74s1.82.27,4.06.68,4,.78,4,.81-1.82-.27-4.06-.68S339.89,218.77,339.9,218.74Z" style="fill:#e0e0e0"></path><path d="M325.78,234.53s1.17.15,2.6.42a23.56,23.56,0,0,1,2.57.54s-1.17-.15-2.6-.41A24.94,24.94,0,0,1,325.78,234.53Z" style="fill:#e0e0e0"></path><path d="M324.74,225.19s1.66.24,3.69.62,3.66.7,3.66.74-1.66-.24-3.69-.61S324.74,225.23,324.74,225.19Z" style="fill:#e0e0e0"></path><path d="M326.07,243.22s1.66.24,3.68.61,3.67.71,3.67.74-1.66-.23-3.69-.61S326.06,243.25,326.07,243.22Z" style="fill:#e0e0e0"></path><path d="M368.05,225.19s2.33.37,5.2.9,5.18,1,5.17,1-2.33-.36-5.2-.89S368,225.23,368.05,225.19Z" style="fill:#fff"></path><path d="M323.86,231.05a.82.82,0,0,1-.07-.19,2.12,2.12,0,0,1-.11-.55,3.24,3.24,0,0,1,0-.83,4.7,4.7,0,0,1,.21-1,5.25,5.25,0,0,1,.45-.92,4.09,4.09,0,0,1,.52-.64,2.7,2.7,0,0,1,.43-.36c.11-.08.17-.12.18-.11s-.22.19-.54.53a4.06,4.06,0,0,0-.48.65,4.91,4.91,0,0,0-.43.89,5.55,5.55,0,0,0-.22,1,4.52,4.52,0,0,0,0,.81C323.8,230.76,323.89,231,323.86,231.05Z" style="fill:#fff"></path><path d="M323,222a1.25,1.25,0,0,1-.33-.43,2.61,2.61,0,0,1-.3-1.27,2.55,2.55,0,0,1,.35-1.26,1.22,1.22,0,0,1,.34-.41s-.11.17-.26.46a2.79,2.79,0,0,0-.3,1.21,2.93,2.93,0,0,0,.25,1.23A5.26,5.26,0,0,1,323,222Z" style="fill:#fff"></path><path d="M325.1,240.74a1.27,1.27,0,0,1-.46-.42,2.24,2.24,0,0,1,0-2.82,1.22,1.22,0,0,1,.47-.4s-.18.15-.4.46a2.38,2.38,0,0,0-.46,1.35,2.41,2.41,0,0,0,.42,1.36C324.93,240.58,325.12,240.72,325.1,240.74Z" style="fill:#fff"></path><path d="M327,249.38a1.27,1.27,0,0,1-.32-.45,3.08,3.08,0,0,1-.31-1.31,3,3,0,0,1,.3-1.31,1.41,1.41,0,0,1,.32-.45s-.1.19-.23.49a3.36,3.36,0,0,0-.25,1.27,3.16,3.16,0,0,0,.26,1.27C326.9,249.2,327,249.37,327,249.38Z" style="fill:#fff"></path><path d="M343.82,212.71a2.3,2.3,0,0,1-.12-.37c0-.13-.07-.28-.11-.45s-.08-.38-.11-.61a11.44,11.44,0,0,1-.13-1.58,13.57,13.57,0,0,1,.13-1.95,13.35,13.35,0,0,1,.43-1.9,12.61,12.61,0,0,1,.58-1.49c.09-.2.19-.38.28-.54a4.34,4.34,0,0,1,.23-.4,1.84,1.84,0,0,1,.22-.33,3.82,3.82,0,0,1-.18.35l-.21.41c-.07.16-.17.34-.25.55a11.67,11.67,0,0,0-.55,1.48,13.55,13.55,0,0,0-.42,1.89,14.86,14.86,0,0,0-.14,1.93,13.62,13.62,0,0,0,.11,1.57c0,.23.06.43.09.6a3.4,3.4,0,0,0,.08.45C343.8,212.57,343.82,212.71,343.82,212.71Z" style="fill:#fff"></path><path d="M161.3,211.54a7.79,7.79,0,0,0-.44-4.67,7.54,7.54,0,0,0-2.86-3.6,6.06,6.06,0,0,0-7.33.67,6.11,6.11,0,0,0-1-2.45A6.19,6.19,0,0,0,145.5,199a7.48,7.48,0,0,0-4.5.93,7.85,7.85,0,0,0-3.32,3.31,9.5,9.5,0,0,0-.88,5.9,13.51,13.51,0,0,0,2.88,5.65c2.23,2.75,5.2,6.25,5.2,6.25s4-1.22,7.49-1.91a13.42,13.42,0,0,0,5.83-2.51A9.46,9.46,0,0,0,161.3,211.54Z" style="fill:#e0e0e0"></path><path d="M472.58,118.6a4.63,4.63,0,0,0-1.72-2.21,4.43,4.43,0,0,0-2.59-.89,3.63,3.63,0,0,0-2.64,1.16,3.73,3.73,0,0,0-.84,1.52,3.66,3.66,0,0,0-1.3-.9,3.74,3.74,0,0,0-2.88.08,4.51,4.51,0,0,0-2,1.92A4.66,4.66,0,0,0,458,122a5.69,5.69,0,0,0,1.45,3.25,8,8,0,0,0,3.27,1.92c2,.67,4.62,1.48,4.62,1.48s1.63-1.91,3.16-3.37a8.05,8.05,0,0,0,2.13-3.13A5.7,5.7,0,0,0,472.58,118.6Z" style="fill:#e0e0e0"></path><polygon points="87.72 410.1 73.54 403.18 68.83 382.43 64.87 383.36 68.31 402.96 54.71 395.15 51.73 398.05 69.73 407.77 87.72 414.93 87.72 410.1" style="fill:#ebebeb"></polygon><polygon points="93.46 467.74 83.06 467.74 85.76 379.83 96.15 379.83 93.46 467.74" style="fill:#ebebeb"></polygon><path d="M88.12,161.16c0,1.21-27.91,75.89-27.91,75.89l13.95-12-20.1,52.2,13.25-15.66L51.7,327l7.57-6.83L46,366.35,57.37,354.3,46,388.83l89.87-5.62-21.29-65,12.86,12-16.64-47.38,8.51,4-19.39-61,9,5.22Z" style="fill:#e0e0e0"></path><path d="M91.13,294.47a6.25,6.25,0,0,1-.44,1.11l-1.41,3c-1.27,2.65-3,6.26-5,10.45l-.22.46-.28-.44a50,50,0,0,1-3.67-6.92c-.4-.93-.76-1.85-1.08-2.74l.55,0c-2.48,5.37-4.91,10-6.74,13.36-.91,1.66-1.67,3-2.21,3.89-.25.4-.46.74-.63,1s-.24.35-.26.34a11.1,11.1,0,0,1,.7-1.45c.51-1,1.2-2.33,2-3.95,1.73-3.35,4.09-8,6.55-13.4l.3-.66.25.68c.31.87.68,1.79,1.07,2.71a52.06,52.06,0,0,0,3.61,6.87l-.5,0c2.1-4.16,3.9-7.75,5.22-10.39l1.56-3A6.59,6.59,0,0,1,91.13,294.47Z" style="fill:#ebebeb"></path><path d="M100.71,266.59a3.31,3.31,0,0,1-.51-.8l-1.29-2.28c-1.12-1.95-2.75-4.65-4.87-7.68l.52-.06c-.45,1.47-.93,3-1.44,4.69-.31,1-.62,2-.92,3l-.21.67-.33-.63c-1.92-3.62-3.58-6.81-4.74-9.1l-1.35-2.71a4.7,4.7,0,0,1-.42-1,5,5,0,0,1,.61.93l1.5,2.65c1.26,2.25,3,5.41,4.92,9l-.54,0c.3-1,.6-2,.92-3,.51-1.64,1-3.22,1.45-4.69l.18-.56.34.5a76,76,0,0,1,4.7,7.79c.51,1,.9,1.79,1.14,2.34A3.65,3.65,0,0,1,100.71,266.59Z" style="fill:#ebebeb"></path><path d="M88,209.37A18.29,18.29,0,0,1,86.39,212c-1,1.63-2.54,3.89-4.27,6.45l-.39.58-.14-.66c-.16-.74-.32-1.51-.49-2.3l-.8-3.88.51.09c-1.6,2.15-3,4-4,5.3a17.05,17.05,0,0,1-1.68,2,13.27,13.27,0,0,1,1.39-2.18c.92-1.34,2.26-3.22,3.83-5.39l.38-.53.13.61.83,3.87.47,2.3-.53-.08c1.75-2.55,3.31-4.78,4.44-6.36A18.93,18.93,0,0,1,88,209.37Z" style="fill:#ebebeb"></path><polygon points="435.19 400.27 419.15 392.46 413.83 369 409.36 370.04 413.24 392.2 397.87 383.38 394.5 386.66 414.85 397.65 435.19 405.74 435.19 400.27" style="fill:#ebebeb"></polygon><polygon points="441.68 465.44 429.93 465.44 432.97 366.06 444.72 366.06 441.68 465.44" style="fill:#ebebeb"></polygon><path d="M435.64,118.83c0,1.36-31.55,85.8-31.55,85.8L419.86,191l-22.72,59,15-17.7-17.65,74,8.56-7.71-15,52.2,12.83-13.62-12.83,39.05,101.6-6.36-24.07-73.54L480.12,310l-18.81-53.57,9.62,4.54-21.92-69,10.16,5.9Z" style="fill:#e0e0e0"></path><path d="M439.05,269.55a7.4,7.4,0,0,1-.51,1.25c-.4.87-.93,2-1.59,3.43l-5.68,11.82-.25.52-.32-.5a56.34,56.34,0,0,1-4.15-7.82c-.45-1.06-.86-2.1-1.22-3.1l.62,0c-2.8,6.07-5.55,11.35-7.62,15.1-1,1.88-1.89,3.37-2.5,4.4l-.71,1.16c-.17.27-.27.4-.29.39a10.47,10.47,0,0,1,.79-1.64c.58-1.13,1.36-2.63,2.31-4.46,2-3.79,4.63-9.09,7.41-15.16l.34-.74.28.76c.36,1,.77,2,1.22,3.07a58.33,58.33,0,0,0,4.07,7.77l-.56,0,5.91-11.74,1.75-3.37A6.38,6.38,0,0,1,439.05,269.55Z" style="fill:#ebebeb"></path><path d="M449.87,238a4.88,4.88,0,0,1-.57-.91l-1.46-2.58c-1.26-2.19-3.11-5.26-5.5-8.68l.58-.07c-.51,1.66-1.05,3.45-1.62,5.31l-1.05,3.38-.23.75-.38-.71c-2.17-4.09-4-7.7-5.36-10.29l-1.52-3a5.69,5.69,0,0,1-.48-1.14,5.38,5.38,0,0,1,.69,1.06l1.7,3c1.42,2.55,3.37,6.13,5.56,10.21l-.61.05c.34-1.09.68-2.23,1-3.38.57-1.86,1.13-3.64,1.65-5.3l.19-.63.39.56a85.55,85.55,0,0,1,5.31,8.81c.58,1.12,1,2,1.29,2.65A4.13,4.13,0,0,1,449.87,238Z" style="fill:#ebebeb"></path><path d="M435.48,173.34a21,21,0,0,1-1.79,3c-1.19,1.84-2.88,4.4-4.83,7.29l-.45.66-.16-.75c-.17-.84-.36-1.71-.55-2.6-.31-1.53-.62-3-.9-4.38l.58.1c-1.81,2.43-3.39,4.52-4.53,6a17.12,17.12,0,0,1-1.91,2.28,17.53,17.53,0,0,1,1.57-2.46c1.05-1.52,2.56-3.64,4.33-6.1l.44-.59.14.69c.29,1.37.61,2.84.94,4.38.18.89.36,1.76.54,2.6l-.61-.09c2-2.89,3.74-5.41,5-7.2A22.73,22.73,0,0,1,435.48,173.34Z" style="fill:#ebebeb"></path></g><g id="freepik--Floor--inject-55"><path d="M477.51,467.74c0,.14-101.87.26-227.5.26s-227.52-.12-227.52-.26,101.85-.26,227.52-.26S477.51,467.6,477.51,467.74Z" style="fill:#263238"></path></g><g id="freepik--Plants--inject-55"><path d="M58.22,424.15a8.16,8.16,0,0,1,4.23,4.78,14.4,14.4,0,0,1,.56,6.49c-.48,4.21-2.87,8.46-5.45,11.82C54,444.15,53.21,438.75,53,436c-.38-4.37,1.58-12.49,5.26-11.84" style="fill:#4D4D4D"></path><path d="M61.68,454.19a7,7,0,0,1,2.25-6.62,9.31,9.31,0,0,1,6.82-2.13,3.9,3.9,0,0,1,3,1.35,3,3,0,0,1,.05,3,6,6,0,0,1-2.24,2.2c-3.07,1.93-6.39,3.23-9.87,2.19" style="fill:#4D4D4D"></path><path d="M57.14,467.09a5.31,5.31,0,0,1,.13-.86l.42-2.34a24.58,24.58,0,0,1,2.42-7.46,14.87,14.87,0,0,1,5.36-5.7,10.06,10.06,0,0,1,2.18-1c.27-.09.49-.12.63-.16a.61.61,0,0,1,.22,0,16.64,16.64,0,0,0-2.92,1.35,15.46,15.46,0,0,0-5.21,5.65,26.32,26.32,0,0,0-2.46,7.37c-.22,1-.39,1.77-.53,2.31A4,4,0,0,1,57.14,467.09Z" style="fill:#263238"></path><path d="M57.27,430.47a1.61,1.61,0,0,1,0,.37c0,.28,0,.64.06,1.09,0,.94.11,2.31.16,4,.11,3.37.2,8,.17,13.18s-.15,9.82-.28,13.19c-.07,1.68-.14,3-.2,4,0,.44,0,.8-.07,1.08a1.65,1.65,0,0,1,0,.38,2.21,2.21,0,0,1,0-.38c0-.28,0-.64,0-1.09,0-1,.06-2.33.1-4,.08-3.37.17-8,.2-13.18s0-9.8-.09-13.17c0-1.66,0-3-.06-4,0-.44,0-.8,0-1.08A2.79,2.79,0,0,1,57.27,430.47Z" style="fill:#263238"></path><path d="M55.55,456.75a16.25,16.25,0,0,0-8.89-11.92c-1.18-.57-2.73-.94-3.7-.06s-.76,2.47-.28,3.69a13.93,13.93,0,0,0,12.79,8.64" style="fill:#4D4D4D"></path><path d="M47.24,448.82a4.34,4.34,0,0,1,.75.33,7.27,7.27,0,0,1,.85.45,12.25,12.25,0,0,1,1.08.68,12.91,12.91,0,0,1,1.24.93,15.77,15.77,0,0,1,1.32,1.2,18.21,18.21,0,0,1,2.5,3.21,17.47,17.47,0,0,1,1.65,3.73,16.61,16.61,0,0,1,.42,1.73,13.74,13.74,0,0,1,.21,1.54c.06.47,0,.9.06,1.27a9.34,9.34,0,0,1,0,1,4.56,4.56,0,0,1-.09.81c-.07,0,0-1.17-.16-3a13.76,13.76,0,0,0-.24-1.51c-.1-.54-.27-1.1-.44-1.7a18.72,18.72,0,0,0-1.64-3.65,19,19,0,0,0-2.45-3.18c-.43-.43-.85-.85-1.27-1.2s-.83-.66-1.2-.94C48.27,449.36,47.21,448.88,47.24,448.82Z" style="fill:#263238"></path><path d="M133.18,446.78a3.45,3.45,0,0,1,.75.6,23.49,23.49,0,0,1,1.85,1.87,35.23,35.23,0,0,1,8,15.23,25.29,25.29,0,0,1,.49,2.58,3.73,3.73,0,0,1,.07,1c-.09,0-.33-1.34-.92-3.46a40.42,40.42,0,0,0-7.93-15.08C134.09,447.8,133.12,446.84,133.18,446.78Z" style="fill:#263238"></path><path d="M150.52,446.24a26.91,26.91,0,0,1-.44,3.19,77.23,77.23,0,0,0-.78,7.7c-.15,3-.08,5.75,0,7.73a27.22,27.22,0,0,1,.13,3.22,2.59,2.59,0,0,1-.2-.85c-.1-.55-.2-1.35-.3-2.34a53.77,53.77,0,0,1-.17-7.79,52.75,52.75,0,0,1,.94-7.73c.19-1,.37-1.77.52-2.3A3.4,3.4,0,0,1,150.52,446.24Z" style="fill:#263238"></path><path d="M159.17,457.5a22.25,22.25,0,0,0-5.38,10.68,14,14,0,0,1,5.38-10.68Z" style="fill:#263238"></path><path d="M353.46,467.84c-.14.06-1.46-2.55-3.37-5.6s-3.68-5.4-3.56-5.49a24.67,24.67,0,0,1,4,5.21A24.33,24.33,0,0,1,353.46,467.84Z" style="fill:#263238"></path><path d="M356.45,445.54a19.61,19.61,0,0,1,.59,3.25c.29,2,.62,4.81.88,7.91s.4,5.92.45,7.95a19.75,19.75,0,0,1,0,3.3,21.18,21.18,0,0,1-.33-3.28c-.16-2.18-.37-4.91-.6-7.92s-.52-5.74-.72-7.92A20.57,20.57,0,0,1,356.45,445.54Z" style="fill:#263238"></path><path d="M439.57,453.6a65.16,65.16,0,0,1,1.85,13.9,59.19,59.19,0,0,1-1.07-6.93A58.43,58.43,0,0,1,439.57,453.6Z" style="fill:#263238"></path><path d="M448.87,441.38c.15,0,.05,5.91-.22,13.18s-.59,13.17-.74,13.16,0-5.9.22-13.18S448.73,441.37,448.87,441.38Z" style="fill:#263238"></path><path d="M461.49,453.83a58.71,58.71,0,0,1-3.25,7.15,59.84,59.84,0,0,1-3.71,6.92,58.71,58.71,0,0,1,3.25-7.15A58.08,58.08,0,0,1,461.49,453.83Z" style="fill:#263238"></path></g><g id="freepik--Shape--inject-55"><path d="M227.82,257.84c-3-9.4-12.67-14.25-21.62-17.33s-18.81-5.95-24.35-14c-7.72-11.18-3.94-28.15-12.09-39-9-11.9-26.17-9.7-40.37-12.32-19.55-3.59-36.67-19.24-42.81-39.13-3.06-9.89-3.7-20.93-9.44-29.39C66.54,91.1,44.3,91.39,29.25,80.54,19.37,73.4,13.14,61.68,10,49.51S6.36,24.6,6,12H485c-.41,12.62-.84,25.37-4,37.53s-9.41,23.89-19.29,31c-15.05,10.85-37.29,10.56-47.89,26.19-5.74,8.46-6.38,19.5-9.44,29.39-6.13,19.89-23.25,35.54-42.81,39.13-14.2,2.62-31.41.42-40.37,12.32-8.15,10.83-4.37,27.8-12.09,39-5.54,8-15.41,10.87-24.35,14s-18.64,7.93-21.62,17.33" style="fill:#f5f5f5"></path><path d="M485.28,11.6s0,.63,0,1.86-.1,3.07-.18,5.47a181.78,181.78,0,0,1-1.79,21,86.85,86.85,0,0,1-3.58,14.81,60.15,60.15,0,0,1-8.25,16.12,43.86,43.86,0,0,1-6.86,7.44,33.93,33.93,0,0,1-4.27,3.16l-1.13.75-1.19.67c-.81.43-1.59.92-2.43,1.31-6.63,3.34-14.19,5.51-21.83,8.5a57.13,57.13,0,0,0-11.18,5.68l-1.33.9-1.25,1-1.26,1-1.14,1.16-1.15,1.18c-.35.42-.67.86-1,1.3l-1,1.31c-.33.45-.6.94-.91,1.4a45.92,45.92,0,0,0-4.88,12.72c-1.14,4.52-2,9.21-3.31,13.88a58.85,58.85,0,0,1-15.17,25.66A55,55,0,0,1,362.41,175c-5.39,1-10.93,1.35-16.48,1.95s-11.2,1.48-16.34,3.94a22.1,22.1,0,0,0-11.13,12.49c-2,5.46-2.6,11.38-3.57,17.26a60.22,60.22,0,0,1-2,8.79,26.71,26.71,0,0,1-4.21,8.07,26.27,26.27,0,0,1-6.94,6,52,52,0,0,1-8.36,4c-5.76,2.22-11.83,3.76-17.3,6.76a31,31,0,0,0-7.55,5.45,19.81,19.81,0,0,0-4.89,7.87l-.06.19H227.89l-.06-.19a19.81,19.81,0,0,0-4.89-7.87,31,31,0,0,0-7.55-5.45c-5.48-3-11.54-4.54-17.31-6.76a51.88,51.88,0,0,1-8.35-4,24.34,24.34,0,0,1-11.15-14.08,60.22,60.22,0,0,1-2-8.79c-1-5.88-1.53-11.81-3.57-17.26a22.09,22.09,0,0,0-11.14-12.49c-5.15-2.46-10.81-3.33-16.35-3.93s-11.09-.9-16.48-2a54.92,54.92,0,0,1-27.72-15.08,58.68,58.68,0,0,1-15.16-25.66c-1.32-4.67-2.17-9.36-3.31-13.88A45.63,45.63,0,0,0,78,107.64c-.31-.46-.57-1-.91-1.39l-1-1.32c-.34-.43-.66-.88-1-1.3l-1.14-1.17-1.15-1.17-1.25-1-1.25-1-1.33-.9a57.77,57.77,0,0,0-11.19-5.68c-7.63-3-15.19-5.16-21.82-8.5-.84-.39-1.63-.88-2.43-1.31l-1.19-.67-1.13-.75a33.93,33.93,0,0,1-4.27-3.16A44.7,44.7,0,0,1,20,70.82,60.4,60.4,0,0,1,11.79,54.7,87,87,0,0,1,8.21,39.9a181.91,181.91,0,0,1-1.79-21c-.08-2.39-.14-4.22-.17-5.46s0-1.86,0-1.86,0,.63.09,1.86.12,3.06.22,5.46A188.18,188.18,0,0,0,8.41,39.86,86.18,86.18,0,0,0,12,54.62a59.93,59.93,0,0,0,8.24,16A44.51,44.51,0,0,0,27.08,78a35.29,35.29,0,0,0,4.25,3.13l1.12.74,1.19.66c.8.43,1.57.92,2.41,1.3,6.61,3.32,14.15,5.47,21.81,8.46A57.38,57.38,0,0,1,69.13,98l1.35.91,1.26,1L73,101l1.16,1.18,1.17,1.19c.36.42.68.87,1,1.31l1,1.33c.34.45.62,1,.93,1.42a46,46,0,0,1,5,12.82c1.14,4.53,2,9.22,3.31,13.87a58.42,58.42,0,0,0,15.08,25.45,54.51,54.51,0,0,0,27.49,14.94c5.34,1,10.88,1.34,16.45,1.94s11.26,1.47,16.5,4a22.59,22.59,0,0,1,11.4,12.75c2.07,5.54,2.63,11.5,3.6,17.35a60.7,60.7,0,0,0,2,8.72,26.3,26.3,0,0,0,4.12,7.91,25.85,25.85,0,0,0,6.81,5.89,51.87,51.87,0,0,0,8.28,3.92c5.72,2.2,11.82,3.75,17.37,6.78a32,32,0,0,1,7.67,5.54,20.39,20.39,0,0,1,5,8.09l-.25-.18h35.33l-.25.18a20.39,20.39,0,0,1,5-8.09,32,32,0,0,1,7.67-5.54c5.55-3,11.64-4.58,17.37-6.78a50.92,50.92,0,0,0,8.27-3.92,25.81,25.81,0,0,0,6.81-5.88,26.11,26.11,0,0,0,4.13-7.91,62,62,0,0,0,2-8.71c1-5.85,1.52-11.81,3.59-17.35a22.61,22.61,0,0,1,11.38-12.76c5.24-2.51,11-3.37,16.51-4s11.1-.9,16.44-1.94a54.51,54.51,0,0,0,27.5-14.92,58.38,58.38,0,0,0,15.08-25.45c1.31-4.65,2.18-9.33,3.32-13.87a46.3,46.3,0,0,1,4.94-12.82c.31-.47.59-1,.93-1.42l1-1.33c.35-.44.68-.89,1-1.32l1.17-1.19,1.16-1.18,1.27-1,1.26-1,1.35-.91a57.91,57.91,0,0,1,11.26-5.71c7.66-3,15.21-5.14,21.82-8.45.84-.38,1.61-.87,2.41-1.3l1.19-.66,1.12-.74A35.29,35.29,0,0,0,464.4,78a44.51,44.51,0,0,0,6.82-7.38,59.69,59.69,0,0,0,8.25-16,87.21,87.21,0,0,0,3.62-14.76A188,188,0,0,0,485,18.92c.1-2.4.18-4.22.23-5.46S485.28,11.6,485.28,11.6Z" style="fill:#263238"></path></g><g id="freepik--Hearts--inject-55"><path d="M468.55,42.12a7.79,7.79,0,0,0-.44-4.67,7.41,7.41,0,0,0-2.86-3.59,6,6,0,0,0-7.33.66,6,6,0,0,0-5.17-4.93,7.52,7.52,0,0,0-4.49.93,7.88,7.88,0,0,0-3.33,3.31,9.49,9.49,0,0,0-.87,5.9,13.32,13.32,0,0,0,2.88,5.66c2.22,2.74,5.2,6.24,5.2,6.24s4-1.22,7.49-1.91a13.42,13.42,0,0,0,5.83-2.51A9.44,9.44,0,0,0,468.55,42.12Z" style="fill:#e0e0e0"></path><path d="M90.36,26.34a6.14,6.14,0,0,0-2.45-2.79,5.92,5.92,0,0,0-3.5-1A4.92,4.92,0,0,0,81,24.3a4.83,4.83,0,0,0-1,2.09,4.84,4.84,0,0,0-1.8-1.1,4.88,4.88,0,0,0-3.8.33,5.92,5.92,0,0,0-2.46,2.68A6.23,6.23,0,0,0,71.33,32a7.51,7.51,0,0,0,2.18,4.2A10.61,10.61,0,0,0,78,38.47c2.7.73,6.24,1.6,6.24,1.6s2-2.65,3.93-4.7a10.72,10.72,0,0,0,2.58-4.31A7.57,7.57,0,0,0,90.36,26.34Z" style="fill:#e0e0e0"></path><path d="M195.26,35.36A6.2,6.2,0,0,0,193.71,32,5.91,5.91,0,0,0,190.63,30a4.8,4.8,0,0,0-5.31,2.4,4.8,4.8,0,0,0-5.16-2.34A6,6,0,0,0,177,32a6.2,6.2,0,0,0-1.63,3.34,7.64,7.64,0,0,0,.88,4.65,10.89,10.89,0,0,0,3.63,3.48c2.39,1.47,5.52,3.32,5.52,3.32s2.7-2,5.11-3.38a10.54,10.54,0,0,0,3.71-3.4A7.52,7.52,0,0,0,195.26,35.36Z" style="fill:#ebebeb"></path><path d="M228.5,73.64a4,4,0,0,0-1-2.17,3.85,3.85,0,0,0-2-1.24,3.05,3.05,0,0,0-3.4,1.54,3.08,3.08,0,0,0-.9-1,3.12,3.12,0,0,0-2.39-.5,3.8,3.8,0,0,0-2,1.2,3.9,3.9,0,0,0-1,2.13,4.77,4.77,0,0,0,.56,3,6.88,6.88,0,0,0,2.32,2.23c1.52.94,3.53,2.13,3.53,2.13s1.72-1.26,3.27-2.17a6.67,6.67,0,0,0,2.37-2.17A4.83,4.83,0,0,0,228.5,73.64Z" style="fill:#ebebeb"></path></g><g id="freepik--Emoji--inject-55"><circle cx="309.67" cy="56.21" r="22.7" style="fill:#ebebeb"></circle><path d="M310.71,61.71a9.72,9.72,0,0,0,6.26-2.8,5.63,5.63,0,0,0,1.64-3.83,3,3,0,0,0-2.46-2.79,4.17,4.17,0,0,0-2.66.87A8.47,8.47,0,0,1,311,54.47a6.65,6.65,0,0,1-3.95-.76,7.12,7.12,0,0,0-3.95-.84,2.57,2.57,0,0,0-2.16,1.47,3.67,3.67,0,0,0,.68,3.46A10.15,10.15,0,0,0,310.71,61.71Z" style="fill:#fff"></path><path d="M300.4,48.8a2,2,0,0,0-2.07-1.08,1.36,1.36,0,0,0-.7.23h0a2.24,2.24,0,0,0-.83,2.13,2,2,0,0,0,2.53,1.44A2.05,2.05,0,0,0,300.4,48.8Z" style="fill:#fff"></path><path d="M322,48.87a2,2,0,0,0-2.06-1.08,1.33,1.33,0,0,0-.7.23h0a2.2,2.2,0,0,0-.83,2.13,2,2,0,0,0,2.53,1.44A2.06,2.06,0,0,0,322,48.87Z" style="fill:#fff"></path></g><g id="freepik--Target--inject-55"><circle cx="324.78" cy="122.08" r="34.16" style="fill:#4D4D4D"></circle><circle cx="324.78" cy="122.08" r="34.16" style="opacity:0.30000000000000004"></circle><circle cx="323.86" cy="119.89" r="34.16" style="fill:#4D4D4D"></circle><circle cx="323.86" cy="119.89" r="26.58" style="fill:#fff"></circle><circle cx="323.86" cy="119.89" r="18.7" transform="translate(10.08 264.12) rotate(-45)" style="fill:#4D4D4D"></circle><circle cx="323.86" cy="119.89" r="9.87" transform="translate(10.08 264.12) rotate(-45)" style="fill:#fff"></circle><polygon points="350.29 92.22 349.36 84.93 356.78 76.99 357.31 84.86 350.29 92.22" style="fill:#455a64"></polygon><polygon points="366.21 86.42 358.68 85.81 351.14 93.07 358.69 93.87 366.21 86.42" style="fill:#455a64"></polygon><path d="M323.86,120.47l28-20.09a37,37,0,0,0-3.56-4.4l-24,23.23Z" style="opacity:0.30000000000000004"></path><path d="M358.42,83.34l-3.52,3.57-8.45,8.56-10.18,10.32q-4.42,4.47-8.84,9c-1.44,1.45-2.93,2.86-4.31,4.36l-.06.07a.92.92,0,0,0,1.3,1.3l3.52-3.57q4.22-4.29,8.45-8.57L346.51,98l8.85-9c1.43-1.45,2.93-2.86,4.3-4.36l.06-.06a.92.92,0,0,0-1.3-1.3Z" style="fill:#263238"></path></g><g id="freepik--Like--inject-55"><path d="M127.58,83.42h0s.44,1.16,1.16,3.23a15.1,15.1,0,0,1,3.9-4.56h0s7.77-9.43,9.62-18.72a44,44,0,0,0,.11-13.93c-.11-.34-1.09-3.34-1.9-5.8a4,4,0,0,1,2.38-4.92c4.17-1.59,15.53-5,19,2.51,5.13,11.22,0,24.41.41,28,.08.67.15,1.22.2,1.67,3.32-1.13,5.9-2,5.92-1.91h0l21.8-7.46s7.15-3,10.44,4.34-5,10.68-5,10.68,4-.58,5.81,6.18S196,92.49,196,92.49s4.49-.74,6.27,5.24c1.74,5.81-5.28,10.13-5.65,10.36a17,17,0,0,1,1.74-.52,8.06,8.06,0,0,1-1.31.53c3.48.09,4.39,4.14,4.39,4.14,3.06,8.17-3.23,10.59-3.23,10.59l-39.8,13.61a23.54,23.54,0,0,1-12.33.79c.57,1.7.88,2.66.86,2.66h0l-27.8,9.51c-.06,0-4.43-12.6-9.76-28.2S99.72,93,99.78,92.93Z" style="fill:#4D4D4D"></path><g style="opacity:0.30000000000000004"><path d="M127.58,83.42h0s.44,1.16,1.16,3.23a15.1,15.1,0,0,1,3.9-4.56h0s7.77-9.43,9.62-18.72a44,44,0,0,0,.11-13.93c-.11-.34-1.09-3.34-1.9-5.8a4,4,0,0,1,2.38-4.92c4.17-1.59,15.53-5,19,2.51,5.13,11.22,0,24.41.41,28,.08.67.15,1.22.2,1.67,3.32-1.13,5.9-2,5.92-1.91h0l21.8-7.46s7.15-3,10.44,4.34-5,10.68-5,10.68,4-.58,5.81,6.18S196,92.49,196,92.49s4.49-.74,6.27,5.24c1.74,5.81-5.28,10.13-5.65,10.36a17,17,0,0,1,1.74-.52,8.06,8.06,0,0,1-1.31.53c3.48.09,4.39,4.14,4.39,4.14,3.06,8.17-3.23,10.59-3.23,10.59l-39.8,13.61a23.54,23.54,0,0,1-12.33.79c.57,1.7.88,2.66.86,2.66h0l-27.8,9.51c-.06,0-4.43-12.6-9.76-28.2S99.72,93,99.78,92.93Z"></path></g><path d="M133.9,91l-.18,3.76,13,38.05h0a23.55,23.55,0,0,0,18.65,1.46l39.79-13.61s6.29-2.42,3.23-10.59c0,0-1-4.41-4.84-4.14,0,0,7.46-4.4,5.67-10.37S203,90.29,203,90.29s7.15-3,5.36-9.74-5.81-6.18-5.81-6.18,8.33-3.38,5.05-10.68-10.45-4.34-10.45-4.34L168.83,69,144,77.52A15,15,0,0,0,133.9,91Z" style="fill:#4D4D4D"></path><path d="M139.63,79.9s7.76-9.43,9.61-18.72a44,44,0,0,0,.11-13.93l-1.89-5.8a4,4,0,0,1,2.37-4.92c4.17-1.59,12.11-.23,15.55,7.28C170.52,55,168.79,63.45,169.22,67l.43,3.58Z" style="fill:#4D4D4D"></path><rect x="115.67" y="84.36" width="29.38" height="59.69" transform="translate(-29.95 48.34) rotate(-18.89)" style="fill:#4D4D4D"></rect><path d="M153.91,137.69c.06,0-4.21-12.68-9.55-28.27s-9.71-28.22-9.77-28.2,4.22,12.67,9.56,28.27S153.85,137.71,153.91,137.69Z" style="fill:#263238"></path><path d="M126.12,147.2c.06,0-4.22-12.68-9.55-28.27s-9.71-28.23-9.77-28.2S111,103.4,116.35,119,126.06,147.22,126.12,147.2Z" style="fill:#263238"></path><path d="M129.2,97.5a5.5,5.5,0,1,1-7-3.42A5.49,5.49,0,0,1,129.2,97.5Z" style="fill:#fff"></path><path d="M175.34,66.8c0-.06-3.07.93-6.81,2.21s-6.75,2.36-6.73,2.42,3.07-.92,6.81-2.2S175.36,66.86,175.34,66.8Z" style="fill:#263238"></path><path d="M203.63,90.37a44.71,44.71,0,0,0-4.36,1.37c-2.39.82-4.31,1.53-4.29,1.59s2-.56,4.36-1.37S203.65,90.43,203.63,90.37Z" style="fill:#263238"></path><path d="M203,74.05c0-.06-2.79.83-6.18,2s-6.13,2.15-6.11,2.21,2.79-.83,6.18-2S203.06,74.11,203,74.05Z" style="fill:#263238"></path><path d="M205.33,105.37c0-.06-2.78.84-6.17,2s-6.13,2.15-6.11,2.21,2.79-.84,6.18-2S205.35,105.43,205.33,105.37Z" style="fill:#263238"></path><g style="opacity:0.30000000000000004"><path d="M150.37,39.37a3.38,3.38,0,0,0-.32,3.45,21.59,21.59,0,0,0,1.89,3.12,12.38,12.38,0,0,1,1.74,7.74c-.09.82-.22,1.77.36,2.35.82.83,2.23.19,3.08-.62A11.7,11.7,0,0,0,160,43.24a8.27,8.27,0,0,0-3.34-4.33c-1.6-1-4-1.73-6.31.46" style="fill:#fff"></path></g><g style="opacity:0.30000000000000004"><path d="M199.9,60.09a7.05,7.05,0,0,0-3,.62l-16.76,6.1c-1.83.66-5.3,1.44-5.15,3.36h0a2.28,2.28,0,0,0,1.71,2.5,6.1,6.1,0,0,0,3.3-.2c2.27-.6,4.48-1.37,6.7-2.14a88.17,88.17,0,0,0,13-5.35,6.38,6.38,0,0,0,1.7-1.2,2.31,2.31,0,0,0,.67-1.91A2.42,2.42,0,0,0,199.9,60.09Z" style="fill:#fff"></path></g><path d="M128.59,85.06c0-.06-3.93,1.22-8.72,2.86s-8.65,3-8.63,3.07,3.92-1.21,8.71-2.85S128.61,85.12,128.59,85.06Z" style="fill:#fff"></path><path d="M206,83.89a1.5,1.5,0,0,0,.08-.35,5.17,5.17,0,0,0,0-1,6.78,6.78,0,0,0-.2-1.43,8.06,8.06,0,0,0-.62-1.66,7.81,7.81,0,0,0-1-1.46,6.64,6.64,0,0,0-1.06-1,4.79,4.79,0,0,0-.83-.51c-.2-.1-.32-.15-.33-.13s.44.26,1.06.77a7.7,7.7,0,0,1,1,1,8.1,8.1,0,0,1,1,1.43,9,9,0,0,1,.63,1.6,8.46,8.46,0,0,1,.24,1.39C206.07,83.38,206,83.88,206,83.89Z" style="fill:#fff"></path><path d="M205.26,68.18a2.17,2.17,0,0,0,.46-.82A4.55,4.55,0,0,0,205,63a2.16,2.16,0,0,0-.7-.62s.24.26.57.72a5,5,0,0,1,.7,4.19C205.41,67.85,205.22,68.16,205.26,68.18Z" style="fill:#fff"></path><path d="M206.37,100.87a2.49,2.49,0,0,0,.69-.84,3.92,3.92,0,0,0,.46-2.56,4,4,0,0,0-1.25-2.28,2.15,2.15,0,0,0-.91-.57s.34.22.8.68a4.21,4.21,0,0,1,1.14,2.21,4.28,4.28,0,0,1-.38,2.45C206.63,100.54,206.34,100.84,206.37,100.87Z" style="fill:#fff"></path><path d="M205.3,116.21a2.38,2.38,0,0,0,.44-.86,5.22,5.22,0,0,0,.19-2.32,5.07,5.07,0,0,0-.84-2.18,2.37,2.37,0,0,0-.66-.7s.22.29.52.79a5.63,5.63,0,0,1,.63,4.36C205.43,115.87,205.27,116.19,205.3,116.21Z" style="fill:#fff"></path><path d="M167.07,57.44a3.54,3.54,0,0,0,.1-.68,7.22,7.22,0,0,0,.07-.8c0-.31,0-.66,0-1.06a20.48,20.48,0,0,0-.18-2.76,22.82,22.82,0,0,0-.71-3.32,23.13,23.13,0,0,0-1.23-3.16,20.89,20.89,0,0,0-1.37-2.4c-.21-.33-.43-.61-.62-.87s-.35-.46-.5-.63a4.33,4.33,0,0,0-.45-.5,2.87,2.87,0,0,0,.38.56,7.5,7.5,0,0,1,.47.65c.17.26.38.54.58.88A23.17,23.17,0,0,1,165,45.76a25,25,0,0,1,1.2,3.13,23.52,23.52,0,0,1,.72,3.28,22.58,22.58,0,0,1,.22,2.73c0,.39,0,.75,0,1.06s0,.58,0,.8A3.56,3.56,0,0,0,167.07,57.44Z" style="fill:#fff"></path></g><g id="freepik--heart-icon--inject-55"><path d="M443.82,61.3a20.59,20.59,0,0,0-4.94-11.38,19.83,19.83,0,0,0-10.13-6.69,16.26,16.26,0,0,0-12.59,2.05,16.09,16.09,0,0,0-5.29,5.62,16,16,0,0,0-17-8.17,19.85,19.85,0,0,0-10.54,6,20.64,20.64,0,0,0-5.66,11,25.11,25.11,0,0,0,2.63,15.55c2.71,4.85,7.21,8.85,11.87,11.86,7.85,5.08,18.18,11.45,18.18,11.45s9.12-6.37,17.27-10.93c4.85-2.72,9.6-6.41,12.61-11.08A25.07,25.07,0,0,0,443.82,61.3Z" style="fill:#4D4D4D"></path><path d="M400.55,79.26h20.18s-2-7.74-10.21-7.74A9.69,9.69,0,0,0,400.55,79.26Z" style="fill:#fff"></path><path d="M416.16,65a5.54,5.54,0,1,1-5.54-5.54A5.54,5.54,0,0,1,416.16,65Z" style="fill:#fff"></path></g><g id="freepik--Rocket--inject-55"><path d="M396,94.42c-9.35,6.4-13.32,18.36-14,29.68-9.31-9.89-25.51-12.41-37.39-5.82s-18.3,21.67-14.83,34.8a37.62,37.62,0,0,0-49.25,47.07c-14.87-7-33.85-4-45.82,7.29a35.35,35.35,0,0,0-45.3-38.58c3.14-16.15-5.42-33.87-20-41.44s-34-4.37-45.4,7.49a26,26,0,0,0-40-16.87l4.31,21.72c7.09,18,23.18,31.76,41.4,35.11,14.2,2.61,31.41.42,40.36,12.32,8.16,10.83,4.38,27.79,12.1,39,5.54,8,15.41,10.88,24.35,14a51.13,51.13,0,0,1,13.34,6.52l53-.76A54,54,0,0,1,285,240.12c8.94-3.08,18.82-5.94,24.35-14,7.72-11.18,3.95-28.14,12.1-39,8.95-11.9,26.17-9.71,40.37-12.32,19.55-3.6,36.67-19.25,42.81-39.13,3-9.9,3.7-20.93,9.44-29.4a30.83,30.83,0,0,1,9.09-8.67C417.45,89.88,404.33,88.7,396,94.42Z" style="fill:#fff"></path><path d="M425.62,96a38.15,38.15,0,0,0-3.27,2l-1.35.91-1.26,1-1.27,1-1.16,1.18-1.17,1.19c-.35.43-.68.88-1,1.32l-1,1.33c-.34.45-.62.95-.93,1.42a46.3,46.3,0,0,0-4.94,12.82c-1.14,4.54-2,9.22-3.32,13.87a58.38,58.38,0,0,1-15.08,25.45,54.51,54.51,0,0,1-27.5,14.92c-5.34,1-10.88,1.34-16.44,1.94s-11.27,1.47-16.51,4A22.61,22.61,0,0,0,318,193.2c-2.07,5.54-2.63,11.5-3.59,17.35a62,62,0,0,1-2,8.71,26.11,26.11,0,0,1-4.13,7.91,25.81,25.81,0,0,1-6.81,5.88,50.92,50.92,0,0,1-8.27,3.92c-5.73,2.2-11.82,3.75-17.37,6.78a32,32,0,0,0-7.67,5.54,20.36,20.36,0,0,0-4.95,7.91h-35a20.29,20.29,0,0,0-4.95-7.91,32,32,0,0,0-7.67-5.54c-5.55-3-11.65-4.58-17.37-6.78a51.87,51.87,0,0,1-8.28-3.92,25.85,25.85,0,0,1-6.81-5.89,26.3,26.3,0,0,1-4.12-7.91,60.7,60.7,0,0,1-2-8.72c-1-5.85-1.53-11.81-3.6-17.35a22.59,22.59,0,0,0-11.4-12.75c-5.24-2.5-11-3.37-16.5-4s-11.11-.9-16.45-1.94a54.51,54.51,0,0,1-27.49-14.94,58.42,58.42,0,0,1-15.08-25.45c-1.31-4.65-2.17-9.34-3.31-13.87-.12-.48-.25-1-.37-1.43-.12.09-.23.19-.35.27.11.42.22.84.32,1.26,1.14,4.52,2,9.21,3.31,13.88a58.68,58.68,0,0,0,15.16,25.66A54.92,54.92,0,0,0,129.06,175c5.39,1.06,10.93,1.36,16.48,2s11.2,1.47,16.35,3.93A22.09,22.09,0,0,1,173,193.36c2,5.45,2.6,11.38,3.57,17.26a60.22,60.22,0,0,0,2,8.79,24.34,24.34,0,0,0,11.15,14.08,51.88,51.88,0,0,0,8.35,4c5.77,2.22,11.83,3.76,17.31,6.76a31,31,0,0,1,7.55,5.45,19.81,19.81,0,0,1,4.89,7.87l.06.19H263.6l.06-.19a19.81,19.81,0,0,1,4.89-7.87,31,31,0,0,1,7.55-5.45c5.47-3,11.54-4.54,17.3-6.76a52,52,0,0,0,8.36-4,26.27,26.27,0,0,0,6.94-6,26.71,26.71,0,0,0,4.21-8.07,60.22,60.22,0,0,0,2-8.79c1-5.88,1.53-11.8,3.57-17.26a22.1,22.1,0,0,1,11.13-12.49c5.14-2.46,10.81-3.33,16.34-3.94S357,176,362.41,175a55,55,0,0,0,27.73-15.07,58.85,58.85,0,0,0,15.17-25.66c1.31-4.67,2.17-9.36,3.31-13.88a45.92,45.92,0,0,1,4.88-12.72c.31-.46.58-1,.91-1.4l1-1.31c.34-.44.66-.88,1-1.3l1.15-1.18,1.14-1.16,1.26-1,1.25-1,1.33-.9c1.06-.72,2.15-1.38,3.26-2Z" style="fill:#263238"></path><rect x="247.37" y="153.27" width="16.57" height="59.6" style="fill:#fff"></rect><path d="M237.6,76.25a2.36,2.36,0,0,0-3.7-.11A16.3,16.3,0,0,0,230,86.4v56.94h10.45s.65-49.43.65-56.94A17.1,17.1,0,0,0,237.6,76.25Z" style="fill:#4D4D4D"></path><path d="M237.6,76.25s.29.36.78,1.1a17.61,17.61,0,0,1,1.75,3.47,16.25,16.25,0,0,1,1,6.07c0,2.41-.05,5.17-.08,8.21-.13,12.21-.31,29.17-.51,48.25v.1H229.89v-.11c0-20.14,0-38.23,0-51.3,0-1.63,0-3.19,0-4.66,0-.73,0-1.45.06-2.14a12.66,12.66,0,0,1,.3-2,16.69,16.69,0,0,1,2.73-6c.27-.37.53-.71.79-1a2.45,2.45,0,0,1,.88-.71,2.34,2.34,0,0,1,1.75-.09,2.17,2.17,0,0,1,.92.57,2.84,2.84,0,0,1,.24.28s-.08-.1-.26-.27a2.37,2.37,0,0,0-2.62-.43,4.94,4.94,0,0,0-1.63,1.72,16.65,16.65,0,0,0-2.69,6,15.21,15.21,0,0,0-.29,2c-.05.68,0,1.4,0,2.13V92c0,13.07,0,31.16,0,51.3l-.11-.1h10.45l-.11.1c.23-19.07.44-36,.59-48.24,0-3,.08-5.8.11-8.21a16.55,16.55,0,0,0-1-6,18.51,18.51,0,0,0-1.71-3.47c-.24-.38-.43-.66-.56-.84Z" style="fill:#263238"></path><path d="M241,120c0,.06-2.38.11-5.31.11s-5.31,0-5.31-.11,2.38-.11,5.31-.11S241,119.89,241,120Z" style="fill:#263238"></path><path d="M241,126.56c0,.06-2.38.11-5.31.11s-5.31,0-5.31-.11,2.38-.11,5.31-.11S241,126.5,241,126.56Z" style="fill:#263238"></path><path d="M241,86.9c0,.06-2.38.1-5.31.1s-5.31,0-5.31-.1,2.38-.11,5.31-.11S241,86.84,241,86.9Z" style="fill:#263238"></path><path d="M241,93.51c0,.06-2.38.11-5.31.11s-5.31-.05-5.31-.11,2.38-.11,5.31-.11S241,93.45,241,93.51Z" style="fill:#263238"></path><path d="M241,100.12c0,.06-2.38.11-5.31.11s-5.31,0-5.31-.11,2.38-.11,5.31-.11S241,100.06,241,100.12Z" style="fill:#263238"></path><path d="M241,106.73c0,.06-2.38.11-5.31.11s-5.31,0-5.31-.11,2.38-.11,5.31-.11S241,106.67,241,106.73Z" style="fill:#263238"></path><path d="M241,113.34c0,.06-2.38.11-5.31.11s-5.31,0-5.31-.11,2.38-.11,5.31-.11S241,113.28,241,113.34Z" style="fill:#263238"></path><path d="M275.94,76.5a2.35,2.35,0,0,0-3.7-.12,16.35,16.35,0,0,0-3.9,10.26v57h10.45s.65-49.44.65-56.95A17,17,0,0,0,275.94,76.5Z" style="fill:#4D4D4D"></path><path d="M275.94,76.5a10.84,10.84,0,0,1,.78,1.1,17.79,17.79,0,0,1,1.76,3.47,16.37,16.37,0,0,1,1,6.07c0,2.41-.05,5.16-.08,8.21-.13,12.2-.32,29.16-.52,48.24v.1H268.23v-.11c0-20.14,0-38.24,0-51.31V87.62c0-.73,0-1.45.06-2.14a15.34,15.34,0,0,1,.3-2,16.44,16.44,0,0,1,2.74-6c.26-.38.53-.71.78-1a2.5,2.5,0,0,1,.89-.71,2.37,2.37,0,0,1,1.74-.09,2.27,2.27,0,0,1,.92.57,2.21,2.21,0,0,1,.24.29s-.08-.1-.25-.27a2.31,2.31,0,0,0-.92-.55,2.35,2.35,0,0,0-1.71.11,5,5,0,0,0-1.63,1.73,16.6,16.6,0,0,0-2.68,6,13.67,13.67,0,0,0-.29,2c-.06.69,0,1.4,0,2.13,0,1.47,0,3,0,4.66,0,13.07,0,31.17,0,51.31l-.11-.11h10.45l-.11.11c.23-19.08.44-36,.59-48.24,0-3,.08-5.8.11-8.21a16.16,16.16,0,0,0-1-6,18.21,18.21,0,0,0-1.71-3.47c-.23-.38-.43-.65-.56-.84Z" style="fill:#263238"></path><path d="M279.27,87.14c0,.06-2.38.11-5.31.11s-5.31,0-5.31-.11S271,87,274,87,279.27,87.08,279.27,87.14Z" style="fill:#263238"></path><path d="M279.27,93.75c0,.06-2.38.11-5.31.11s-5.31,0-5.31-.11,2.38-.11,5.31-.11S279.27,93.69,279.27,93.75Z" style="fill:#263238"></path><path d="M279.27,100.36c0,.06-2.38.11-5.31.11s-5.31,0-5.31-.11,2.38-.11,5.31-.11S279.27,100.3,279.27,100.36Z" style="fill:#263238"></path><path d="M279.27,107c0,.06-2.38.11-5.31.11s-5.31,0-5.31-.11,2.38-.11,5.31-.11S279.27,106.91,279.27,107Z" style="fill:#263238"></path><path d="M279.27,113.58c0,.06-2.38.11-5.31.11s-5.31,0-5.31-.11,2.38-.11,5.31-.11S279.27,113.52,279.27,113.58Z" style="fill:#263238"></path><path d="M279.27,120.19c0,.06-2.38.11-5.31.11s-5.31,0-5.31-.11,2.38-.11,5.31-.11S279.27,120.13,279.27,120.19Z" style="fill:#263238"></path><path d="M279.27,126.8c0,.06-2.38.11-5.31.11s-5.31,0-5.31-.11,2.38-.11,5.31-.11S279.27,126.74,279.27,126.8Z" style="fill:#263238"></path><path d="M258.66,57.34a6.21,6.21,0,0,0-7.69.43A27.51,27.51,0,0,0,241.1,78v73.56h26s1.63-63,1.63-73.56C268.77,71.59,264.46,61.71,258.66,57.34Z" style="fill:#e0e0e0"></path><path d="M258.66,57.34l.38.3a11.69,11.69,0,0,1,1.09.94,23,23,0,0,1,3.52,4.25,31.92,31.92,0,0,1,2,3.48,31,31,0,0,1,1.83,4.42,27.27,27.27,0,0,1,1.24,5.37c0,.25.06.49.07.74s0,.5,0,.75c0,.51,0,1,0,1.53,0,1,0,2.1,0,3.19-.26,17.42-.85,41.71-1.55,69.24v.1H241v-.11c0-14.72,0-28.64,0-41.25,0-6.3,0-12.28,0-17.86q0-4.19,0-8.07V80.57c0-1.24,0-2.45,0-3.63a25.42,25.42,0,0,1,1.3-6.61,28.23,28.23,0,0,1,2.51-5.45,27.84,27.84,0,0,1,6.21-7.25,6.88,6.88,0,0,1,3.18-1.38,6.2,6.2,0,0,1,2.54.15,6,6,0,0,1,1.43.63l.43.31-.44-.29a5.88,5.88,0,0,0-4-.74,6.71,6.71,0,0,0-3.14,1.38,28.17,28.17,0,0,0-8.64,12.68,25.19,25.19,0,0,0-1.28,6.57v74.6l-.11-.1h26l-.11.1c.7-27.52,1.32-51.82,1.62-69.23,0-1.09,0-2.15,0-3.19,0-.51,0-1,0-1.52,0-.25,0-.5,0-.75s-.05-.49-.08-.73a27.2,27.2,0,0,0-1.21-5.36,32.57,32.57,0,0,0-1.81-4.41,34.84,34.84,0,0,0-2-3.48,23.25,23.25,0,0,0-3.49-4.26,12.27,12.27,0,0,0-1.07-1Z" style="fill:#263238"></path><path d="M253.42,58.31s-10,8-10.1,18.84V105.9h4.29l-.26-25.05s-.55-4.76,2-13.12A50.88,50.88,0,0,1,253.42,58.31Z" style="fill:#fff"></path><path d="M268.26,80.85c0,.06-6,.11-13.34.11s-13.34,0-13.34-.11,6-.11,13.34-.11S268.26,80.79,268.26,80.85Z" style="fill:#263238"></path><path d="M268.26,90.86c0,.06-6,.11-13.34.11s-13.34,0-13.34-.11,6-.11,13.34-.11S268.26,90.8,268.26,90.86Z" style="fill:#263238"></path><path d="M268.26,100.87c0,.06-6,.11-13.34.11s-13.34,0-13.34-.11,6-.11,13.34-.11S268.26,100.81,268.26,100.87Z" style="fill:#263238"></path><path d="M268.26,110.88c0,.06-6,.11-13.34.11s-13.34,0-13.34-.11,6-.11,13.34-.11S268.26,110.82,268.26,110.88Z" style="fill:#263238"></path><rect x="231.06" y="150.82" width="6.83" height="4.43" style="fill:#455a64"></rect><path d="M229.1,157.68h0a2.68,2.68,0,0,1,1-2.09l1-1,6.83.09.6.53a2.88,2.88,0,0,1,1.09,1.94v.1Z" style="fill:#455a64"></path><rect x="228.41" y="157.29" width="12.01" height="1.21" rx="0.33" style="fill:#455a64"></rect><polygon points="222.59 149.93 222.59 137.08 239.97 120.03 247.37 96.84 247.37 153.37 222.59 149.93" style="fill:#e0e0e0"></polygon><polygon points="222.59 145.68 247.37 148.98 247.37 153.37 222.59 149.93 222.59 145.68" style="fill:#4D4D4D"></polygon><path d="M222.59,149.93l.45,0,1.3.17,4.95.67,18.09,2.47-.09.08c0-12.33,0-28.66,0-46.52v-10l.21,0-7.41,23.19v0l0,0-17.39,17,0,0c0,4,0,7.25,0,9.45,0,1.1,0,1.95,0,2.52,0,.29,0,.5,0,.65a2.07,2.07,0,0,1,0,.23v-.21c0-.15,0-.37,0-.65,0-.57,0-1.41,0-2.5,0-2.21,0-5.43,0-9.49v0l0,0L239.9,120l0,0c2.24-7,4.74-14.87,7.39-23.19l.21-.66v10.7c0,17.86,0,34.19,0,46.52v.1h-.09l-18.13-2.57-4.93-.7L223,150Z" style="fill:#263238"></path><rect x="270.76" y="150.82" width="6.83" height="4.43" style="fill:#455a64"></rect><path d="M268.81,157.68h0a2.67,2.67,0,0,1,.95-2.09l1-1,6.83.09.61.53a2.9,2.9,0,0,1,1.08,1.94v.1Z" style="fill:#455a64"></path><rect x="268.11" y="157.29" width="12.01" height="1.21" rx="0.33" style="fill:#455a64"></rect><circle cx="271.43" cy="144.33" r="0.58" style="fill:#ebebeb"></circle><path d="M262.9,90.07c0-3.53-2-6.66-4-9.71a9.15,9.15,0,0,0-2.28-2.53,2.66,2.66,0,0,0-3.09,0,9.22,9.22,0,0,0-2.24,2.52c-2,3-3.92,6.18-4,9.71-.05,4.14,0,63.3,0,63.3H262.9S262.94,94.21,262.9,90.07Z" style="fill:#e0e0e0"></path><path d="M259.48,81a10.89,10.89,0,0,0-2.6-3,2.9,2.9,0,0,0-3.52,0,11,11,0,0,0-2.56,3,29.87,29.87,0,0,0-3.09,6.55l14.83,0A28.44,28.44,0,0,0,259.48,81Z" style="fill:#4D4D4D"></path><path d="M262.54,87.5c0,.06-3.32.12-7.41.13s-7.42,0-7.42-.08,3.32-.12,7.42-.14S262.54,87.44,262.54,87.5Z" style="fill:#263238"></path><path d="M249.74,86.21a.29.29,0,0,1-.28.28.28.28,0,1,1,0-.56A.29.29,0,0,1,249.74,86.21Z" style="fill:#263238"></path><path d="M252.42,86.21a.29.29,0,0,1-.28.28.28.28,0,0,1,0-.56A.29.29,0,0,1,252.42,86.21Z" style="fill:#263238"></path><path d="M255.1,86.21a.29.29,0,0,1-.28.28.28.28,0,1,1,0-.56A.29.29,0,0,1,255.1,86.21Z" style="fill:#263238"></path><path d="M257.78,86.21a.29.29,0,0,1-.28.28.28.28,0,0,1,0-.56A.29.29,0,0,1,257.78,86.21Z" style="fill:#263238"></path><path d="M260.46,86.21a.29.29,0,0,1-.28.28.28.28,0,1,1,0-.56A.29.29,0,0,1,260.46,86.21Z" style="fill:#263238"></path><path d="M262.9,90.07v.31c0,.21,0,.51,0,.91,0,.81,0,2,0,3.53,0,3.08,0,7.56,0,13.19,0,11.26,0,27.08,0,45.36v.11H247.26v-8c0-12,0-23.39,0-33.77,0-5.19,0-10.13,0-14.74q0-3.47,0-6.68a13,13,0,0,1,1.59-5.93c.44-.88.93-1.71,1.42-2.5s1-1.57,1.51-2.28a8,8,0,0,1,1.83-1.83,2.68,2.68,0,0,1,2.37-.29,3,3,0,0,1,1,.59,8.45,8.45,0,0,1,.81.77,11.24,11.24,0,0,1,1.25,1.68c.72,1.12,1.37,2.16,1.89,3.13a15.21,15.21,0,0,1,1.78,4.72c.05.28.09.53.11.75s0,.4,0,.55,0,.45,0,.45,0-.15,0-.45a4.15,4.15,0,0,0-.05-.54c0-.22-.06-.47-.11-.76a15.83,15.83,0,0,0-1.81-4.68c-.53-1-1.18-2-1.9-3.12a11.84,11.84,0,0,0-1.26-1.65,7.23,7.23,0,0,0-.8-.76,3.09,3.09,0,0,0-1-.57,2.57,2.57,0,0,0-2.26.29,7.65,7.65,0,0,0-1.79,1.8c-.53.7-1,1.49-1.49,2.28s-1,1.62-1.41,2.49a12.91,12.91,0,0,0-1.57,5.86q0,3.21,0,6.68c0,4.61,0,9.55,0,14.74,0,10.38,0,21.79,0,33.77v7.92l-.11-.1H262.9l-.11.1c0-18.28,0-34.1,0-45.36,0-5.62,0-10.11,0-13.19,0-1.54,0-2.72,0-3.53,0-.4,0-.7,0-.91S262.9,90.07,262.9,90.07Z" style="fill:#263238"></path><path d="M254.93,93.61a4,4,0,0,0-4,4h8A4,4,0,0,0,254.93,93.61Z" style="fill:#455a64"></path><path d="M246.75,157.6h0a3.67,3.67,0,0,1,1.51-2.93l1.74-1.3h11l1.52,1.2a3.66,3.66,0,0,1,1.42,2.87v.16Z" style="fill:#e0e0e0"></path><path d="M246.75,157.6l.34,0,1,0,3.63,0,12.23,0-.1.11a3.48,3.48,0,0,0-.67-2.19,4.76,4.76,0,0,0-1.07-1l-1.17-.92.07,0-11,0h0l-1.87,1.38a3.76,3.76,0,0,0-1.07,1.35,4.35,4.35,0,0,0-.35,1.43,1.91,1.91,0,0,1,0-.39,3.56,3.56,0,0,1,.28-1.08,3.71,3.71,0,0,1,1.06-1.4l1.86-1.42H250l11,0h0l0,0,1.17.92a4.93,4.93,0,0,1,1.12,1.07,3.69,3.69,0,0,1,.7,2.32v.11h-.11l-12.23,0-3.63,0-1,0A1.3,1.3,0,0,1,246.75,157.6Z" style="fill:#263238"></path><rect x="245.61" y="157.6" width="19.7" height="1.98" rx="0.55" style="fill:#4D4D4D"></rect><path d="M255.27,154.51h-10v-9.89a4.84,4.84,0,0,1,4.84-4.84h.29a4.85,4.85,0,0,1,4.85,4.84Z" style="fill:#ebebeb"></path><path d="M255.27,154.51s0,0,0-.13V154c0-.32,0-.76,0-1.33,0-1.16,0-2.81,0-4.84,0-1,0-2.13,0-3.33a4.68,4.68,0,0,0-1.49-3.35,4.74,4.74,0,0,0-1.73-1,5.24,5.24,0,0,0-2.1-.24,4.74,4.74,0,0,0-4.35,3.73,8.48,8.48,0,0,0-.11,1.67v3.29c0,2.12,0,4.11,0,5.92l-.09-.09,7.22,0,2,0h0l-2,0-7.27,0h-.09v-.09c0-1.81,0-3.8,0-5.92V145.3a7.77,7.77,0,0,1,.11-1.72A4.75,4.75,0,0,1,246,142a5,5,0,0,1,3.87-2.27,5.69,5.69,0,0,1,2.18.26,5,5,0,0,1,1.8,1.1,4.87,4.87,0,0,1,1.53,3.49c0,1.21,0,2.34,0,3.37,0,2,0,3.69,0,4.85,0,.56,0,1,0,1.31v.45Z" style="fill:#263238"></path><polygon points="287.69 149.93 287.69 137.08 270.32 120.03 262.92 96.84 262.92 153.37 287.69 149.93" style="fill:#e0e0e0"></polygon><polygon points="262.89 153.37 262.92 149.53 287.69 146.39 287.69 149.93 262.89 153.37" style="fill:#4D4D4D"></polygon><path d="M287.69,149.93l-.43.07-1.28.19-4.93.7-18.12,2.57h-.1v-.1c0-12.33,0-28.66,0-46.52V96.15l.21.66c2.65,8.32,5.14,16.15,7.39,23.19l0,0L287.74,137v.05c0,4.06,0,7.28,0,9.49,0,1.09,0,1.93,0,2.5,0,.28,0,.5,0,.65a1.66,1.66,0,0,1,0,.21v-.23c0-.15,0-.36,0-.65,0-.57,0-1.42,0-2.52,0-2.2,0-5.4,0-9.45l0,0-17.4-17v0l-7.42-23.19.21,0v10c0,17.86,0,34.19,0,46.52l-.1-.08L281,150.82l5-.67,1.29-.17Z" style="fill:#263238"></path><g style="opacity:0.30000000000000004"><path d="M266.55,152.77v-9s-.29-3.17-2.61-4v-37.1l-1-5.84v56.62Z"></path></g><path d="M265.31,154.51h-10v-9.89a4.85,4.85,0,0,1,4.85-4.84h.29a4.84,4.84,0,0,1,4.84,4.84Z" style="fill:#ebebeb"></path><path d="M265.31,154.51a1,1,0,0,0,0-.13V154c0-.32,0-.76,0-1.33,0-1.16,0-2.81,0-4.84,0-1,0-2.13,0-3.33a4.74,4.74,0,0,0-3.22-4.39,5.26,5.26,0,0,0-2.1-.24,4.74,4.74,0,0,0-4.35,3.73,7.78,7.78,0,0,0-.11,1.67v3.29c0,2.12,0,4.11,0,5.92l-.09-.09,7.22,0,2,0h0l-2,0-7.28,0h-.09v-.09c0-1.81,0-3.8,0-5.92V145.3a7.77,7.77,0,0,1,.11-1.72A4.73,4.73,0,0,1,256,142a5,5,0,0,1,3.88-2.27,5.71,5.71,0,0,1,2.18.26,5.11,5.11,0,0,1,1.8,1.1,4.91,4.91,0,0,1,1.53,3.49c0,1.21,0,2.34,0,3.37,0,2,0,3.69,0,4.85,0,.56,0,1,0,1.31v.34A.5.5,0,0,1,265.31,154.51Z" style="fill:#263238"></path><path d="M262.75,109.62c0,.06-3.41.11-7.62.11s-7.61,0-7.61-.11,3.41-.11,7.61-.11S262.75,109.56,262.75,109.62Z" style="fill:#263238"></path><path d="M262.75,126c0,.06-3.41.11-7.62.11s-7.61,0-7.61-.11,3.41-.11,7.61-.11S262.75,126,262.75,126Z" style="fill:#263238"></path><g style="opacity:0.30000000000000004"><path d="M255.46,93.65l-3.32,4h2.28l2.65-3.38A4.94,4.94,0,0,0,255.46,93.65Z" style="fill:#fff"></path></g></g><g id="freepik--speech-bubble--inject-55"><path d="M352.45,48l5.5,7.86a1.48,1.48,0,0,0,2.46,0l5.32-8.18Z" style="fill:#4D4D4D"></path><rect x="346.63" y="34.8" width="24.1" height="17.52" rx="4.62" style="fill:#4D4D4D"></rect><circle cx="353.07" cy="43.56" r="1.66" style="fill:#fff"></circle><circle cx="358.68" cy="43.56" r="1.66" style="fill:#fff"></circle><circle cx="364.28" cy="43.56" r="1.66" style="fill:#fff"></circle></g><g id="freepik--Lightning--inject-55"><polygon points="276.35 23.04 262.53 42.53 272.59 42.53 265.78 57.33 281.48 36.58 272.01 36.77 276.35 23.04" style="fill:#4D4D4D"></polygon></g><g id="freepik--light-bulb--inject-55"><path d="M62.43,38.94A16.08,16.08,0,1,0,39.09,52.81C39,54.72,39,56.87,39,56.87l14.09.41S53.21,55,53.3,53A16.07,16.07,0,0,0,62.43,38.94Z" style="fill:#4D4D4D"></path><path d="M51,57.21s0-.07,0-.2,0-.33,0-.59c0-.51-.09-1.27-.15-2.25-.11-2-.21-4.81-.15-8.33q0-1.32.09-2.76c0-.48,0-1,.07-1.46A5.34,5.34,0,0,1,51,40.1a1.82,1.82,0,0,1,.44-.66,1,1,0,0,1,.76-.29,1,1,0,0,1,.7.43,1.5,1.5,0,0,1,.27.79,1.87,1.87,0,0,1-.73,1.49,2.85,2.85,0,0,1-1.61.63,3.11,3.11,0,0,1-1.73-.4,3.29,3.29,0,0,1-1.23-1.33,3.85,3.85,0,0,1-.43-1.8,2.76,2.76,0,0,1,.15-.94,1.35,1.35,0,0,1,.59-.76.79.79,0,0,1,.5-.08,1,1,0,0,1,.46.18,1.53,1.53,0,0,1,.59.78,3.53,3.53,0,0,1,.17,1c0,.32,0,.65,0,1A6.81,6.81,0,0,1,49.48,42a3.6,3.6,0,0,1-1.15,1.65,2.74,2.74,0,0,1-.89.48,2.17,2.17,0,0,1-1,.09,2.1,2.1,0,0,1-.93-.4,2.59,2.59,0,0,1-.66-.74,6,6,0,0,1-.71-1.82c-.07-.32-.14-.63-.19-.95a6,6,0,0,1-.1-1,1.62,1.62,0,0,1,.26-.93,1.17,1.17,0,0,1,.37-.33.75.75,0,0,1,.49-.05.85.85,0,0,1,.42.27,2.06,2.06,0,0,1,.25.4,3.09,3.09,0,0,1,.25.9,5.36,5.36,0,0,1-.56,3.49,3.4,3.4,0,0,1-1.22,1.22,2.58,2.58,0,0,1-1.64.36,2.28,2.28,0,0,1-1.41-.81,2.62,2.62,0,0,1-.6-1.47,2.23,2.23,0,0,1,.09-.77A1.16,1.16,0,0,1,41,41a.66.66,0,0,1,.39-.09.58.58,0,0,1,.35.17,1.43,1.43,0,0,1,.35.65,6.29,6.29,0,0,1,.12,1.42l0,1.34c.07,3.52.08,6.36.05,8.33,0,1,0,1.74-.06,2.26,0,.26,0,.45,0,.59s0,.2,0,.2a1,1,0,0,1,0-.2c0-.14,0-.33,0-.59,0-.52,0-1.28,0-2.26,0-2,0-4.81-.08-8.32l0-1.35A5.9,5.9,0,0,0,42,41.8a1.28,1.28,0,0,0-.32-.61.5.5,0,0,0-.63-.07,1.07,1.07,0,0,0-.41.58,2,2,0,0,0-.08.74,2.42,2.42,0,0,0,.58,1.4,2.15,2.15,0,0,0,1.35.78,2.51,2.51,0,0,0,1.57-.35,3.33,3.33,0,0,0,1.18-1.18,5.3,5.3,0,0,0,.54-3.43,3.14,3.14,0,0,0-.24-.86,1,1,0,0,0-.59-.61.69.69,0,0,0-.74.34,1.43,1.43,0,0,0-.25.86,4.92,4.92,0,0,0,.11.93c0,.32.11.63.18.94a6.1,6.1,0,0,0,.69,1.79,2.55,2.55,0,0,0,.64.71,2,2,0,0,0,.88.38,2.45,2.45,0,0,0,1.81-.55A3.57,3.57,0,0,0,49.37,42a6.55,6.55,0,0,0,.38-1.91,5.24,5.24,0,0,0-.16-1.9,1.37,1.37,0,0,0-.54-.73.84.84,0,0,0-.85-.09,1.25,1.25,0,0,0-.53.7,2.79,2.79,0,0,0-.15.9,3.65,3.65,0,0,0,.42,1.75A3.07,3.07,0,0,0,49.13,42a2.94,2.94,0,0,0,1.66.39,2.7,2.7,0,0,0,1.55-.6,1.78,1.78,0,0,0,.7-1.4,1.37,1.37,0,0,0-.25-.74.85.85,0,0,0-.63-.39,1,1,0,0,0-.68.26,1.59,1.59,0,0,0-.42.63,5,5,0,0,0-.23,1.48c0,.5,0,1-.07,1.47,0,1-.08,1.88-.09,2.75-.08,3.52,0,6.36.11,8.32,0,1,.09,1.75.12,2.26l0,.59C51,57.14,51,57.21,51,57.21Z" style="fill:#fff"></path><path d="M40.73,52.34l-.19-.07c-.12-.05-.3-.11-.52-.22a14.55,14.55,0,0,1-1.83-1,14.87,14.87,0,0,1-2.42-1.94,15,15,0,0,1-2.35-3,15.08,15.08,0,0,1-2.07-6.52,13.22,13.22,0,0,1,0-2.09c0-.24,0-.43.05-.56a.55.55,0,0,1,0-.2s0,.07,0,.2,0,.32,0,.56a17.49,17.49,0,0,0,.05,2.08,15.56,15.56,0,0,0,.58,3,15.36,15.36,0,0,0,1.51,3.45,15.15,15.15,0,0,0,2.32,3A15.8,15.8,0,0,0,38.23,51,14.77,14.77,0,0,0,40,52c.21.11.39.18.51.24A.6.6,0,0,1,40.73,52.34Z" style="fill:#263238"></path><path d="M32.19,33.72a3.27,3.27,0,0,1-.17.81,2.83,2.83,0,0,1-.28.79,3.38,3.38,0,0,1,.17-.82A2.84,2.84,0,0,1,32.19,33.72Z" style="fill:#263238"></path><path d="M60.54,42.62l0-.17.11-.47.08-.35c0-.12.05-.26.08-.41s.11-.63.14-1l.05-.6c0-.2,0-.42,0-.64,0-.44,0-.92,0-1.42a17.08,17.08,0,0,0-.58-3.2,17.33,17.33,0,0,0-1.23-3c-.25-.43-.48-.85-.74-1.21q-.18-.28-.36-.54l-.37-.47a9.28,9.28,0,0,0-.66-.77L56.8,28l-.25-.25-.35-.34-.12-.13.13.11.37.33.26.24.29.3c.2.23.45.47.68.77l.37.47c.13.16.24.35.37.53a14.11,14.11,0,0,1,.75,1.22,15.18,15.18,0,0,1,1.82,6.25,14,14,0,0,1,0,1.43c0,.23,0,.44,0,.65s0,.41-.06.6c0,.38-.11.71-.16,1s0,.29-.08.41-.07.24-.09.35l-.13.47C60.56,42.57,60.55,42.62,60.54,42.62Z" style="fill:#263238"></path><g style="opacity:0.2"><path d="M46.07,26.91a2.86,2.86,0,0,0-1.87-1.48,5.07,5.07,0,0,0-3.82.31,12.21,12.21,0,0,0-6.83,7.72,7.48,7.48,0,0,0-.1,4.79A2.61,2.61,0,0,0,35,39.66c1.8.58,3.29-1.14,3.9-2.81s.81-3.32,2-4.51c.95-1,2.33-1.37,3.5-2.08S46.55,28.19,46.07,26.91Z" style="fill:#fff"></path></g><g style="opacity:0.2"><path d="M52.53,26.47a2.55,2.55,0,0,0-2.92-1.14,2.61,2.61,0,0,0-1.47,1.75,2.42,2.42,0,0,0,1,2.49,2.27,2.27,0,0,0,2.66-.18A2.79,2.79,0,0,0,52.53,26.47Z" style="fill:#fff"></path></g><g id="freepik--2ggvdetif--inject-55"><path d="M42.67,65.15a4.42,4.42,0,0,1,.89.84.94.94,0,0,0,.74.38l2.83.08a1,1,0,0,0,.81-.4,1.8,1.8,0,0,1,1-.72Z" style="fill:#455a64"></path></g><path d="M39.82,57.17c0,.06.53,4.5.73,6.2A2.11,2.11,0,0,0,41.68,65a2,2,0,0,0,.8.2l6.2.18s1.62,0,2-1.23S52,57.52,52,57.52Z" style="fill:#263238"></path><rect x="45.4" y="57.41" width="0.65" height="11.42" rx="0.31" transform="translate(-18.5 107.27) rotate(-88.59)" style="fill:#e0e0e0"></rect><path d="M51.12,63.57a.27.27,0,0,0,.21-.09.32.32,0,0,0,.09-.25A.28.28,0,0,0,51.2,63c-.59,0-1.46,0-2.53-.06l-8.34-.19a.25.25,0,0,0-.21.11.31.31,0,0,0,0,.12.57.57,0,0,0,0,.13.23.23,0,0,0,.16.17,2.46,2.46,0,0,0,.28,0l1.18,0,2.21.06,3.75.1,2.53.08.69,0h-.69l-2.53,0-3.75-.09-2.22,0-1.17,0h-.15a.5.5,0,0,1-.16,0A.35.35,0,0,1,40,63.1a.33.33,0,0,1,0-.17.35.35,0,0,1,.06-.17.33.33,0,0,1,.3-.15l8.35.22c1.07,0,1.92.05,2.53.09a.32.32,0,0,1,.24.31.37.37,0,0,1-.11.27A.26.26,0,0,1,51.12,63.57Z" style="fill:#263238"></path><rect x="45.44" y="55.78" width="0.65" height="11.88" rx="0.31" transform="translate(-17.07 105.95) rotate(-88.59)" style="fill:#e0e0e0"></rect><path d="M51.38,62.19a.38.38,0,0,0,.22-.1.3.3,0,0,0,.08-.27.29.29,0,0,0-.25-.26l-2.62-.05-8.67-.2a.27.27,0,0,0-.22.12.28.28,0,0,0,0,.12.57.57,0,0,0,0,.14.28.28,0,0,0,.19.16h.3l1.22,0,2.3.06,3.9.11,2.62.08.72,0h-.72l-2.63,0-3.89-.08-2.3,0-1.22,0c-.11,0-.2,0-.32,0a.34.34,0,0,1-.26-.23.25.25,0,0,1,0-.17.41.41,0,0,1,0-.18.36.36,0,0,1,.31-.16l8.67.23c1.11,0,2,.05,2.63.08a.32.32,0,0,1,.27.3.31.31,0,0,1-.09.28A.31.31,0,0,1,51.38,62.19Z" style="fill:#263238"></path><rect x="45.48" y="54.24" width="0.65" height="12.17" rx="0.31" transform="translate(-15.64 104.63) rotate(-88.59)" style="fill:#e0e0e0"></rect><path d="M51.57,60.8a.39.39,0,0,0,.22-.11.34.34,0,0,0,.08-.27.3.3,0,0,0-.27-.25l-2.69-.05L40,59.91a.28.28,0,0,0-.23.13.5.5,0,0,0,0,.13.27.27,0,0,0,0,.13.32.32,0,0,0,.2.16h.32l1.24,0,2.36.06,4,.11,2.68.08.73,0h-.73l-2.69,0-4-.09-2.35,0-1.25,0H40a.35.35,0,0,1-.28-.22.38.38,0,0,1,0-.18.41.41,0,0,1,0-.18.36.36,0,0,1,.32-.17l8.87.23,2.69.09a.33.33,0,0,1,.3.28.39.39,0,0,1-.09.3A.33.33,0,0,1,51.57,60.8Z" style="fill:#263238"></path><rect x="45.52" y="52.62" width="0.65" height="12.64" rx="0.31" transform="translate(-14.2 103.31) rotate(-88.59)" style="fill:#e0e0e0"></rect><path d="M51.84,59.41a.37.37,0,0,0,.23-.11.34.34,0,0,0,.07-.29.29.29,0,0,0-.31-.23L49,58.73l-9.2-.22a.25.25,0,0,0-.23.14.32.32,0,0,0,0,.27.26.26,0,0,0,.22.14h.33l1.29,0,2.44.06,4.14.12,2.79.08.76,0h-.76l-2.79,0-4.14-.09-2.44-.06-1.29,0h-.33a.38.38,0,0,1-.32-.19.43.43,0,0,1,0-.19.37.37,0,0,1,.05-.18.36.36,0,0,1,.32-.19l9.21.24,2.79.09a.33.33,0,0,1,.33.26.37.37,0,0,1-.08.31.37.37,0,0,1-.18.1Z" style="fill:#263238"></path><path d="M38.36,53.31c0,.11.18,2.83.27,4.22a1.7,1.7,0,0,0,.73,1.28l.62.42,12,.34.64-.39a1.66,1.66,0,0,0,.79-1.24l.48-4.2Z" style="fill:#4D4D4D"></path><g style="opacity:0.30000000000000004"><path d="M40.72,63.29a15.86,15.86,0,0,0,3.56.38c1,0,2,.08,3.14.09.81,0,1.56,0,2.38,0a2.2,2.2,0,0,0,1-.17Z"></path></g><g style="opacity:0.30000000000000004"><path d="M40.33,61.88a18.38,18.38,0,0,0,3.84.39c1.11,0,2.19.08,3.39.09.87,0,1.68,0,2.56,0a2.49,2.49,0,0,0,1-.17Z"></path></g><g style="opacity:0.30000000000000004"><path d="M40.37,60.5a18.39,18.39,0,0,0,3.84.38c1.11,0,2.19.09,3.38.1.88,0,1.69,0,2.57,0a2.62,2.62,0,0,0,1-.18Z"></path></g><g style="opacity:0.30000000000000004"><path d="M40.41,59.11a18.38,18.38,0,0,0,3.84.39c1.1,0,2.19.08,3.38.09.88,0,1.69,0,2.57,0a2.49,2.49,0,0,0,1-.17Z"></path></g><g style="opacity:0.30000000000000004"><path d="M38.36,53.31c0,.11.18,2.83.27,4.22a1.7,1.7,0,0,0,.73,1.28l.62.42,12,.34.64-.39a1.66,1.66,0,0,0,.79-1.24l.48-4.2Z"></path></g><path d="M53.09,58.51s-3.21,0-7.17-.15-7.16-.23-7.16-.26,3.21,0,7.17.15S53.09,58.48,53.09,58.51Z" style="fill:#263238"></path><path d="M53.79,53.66s-3.49,0-7.78-.13-7.78-.21-7.78-.25,3.48,0,7.78.13S53.79,53.63,53.79,53.66Z" style="fill:#263238"></path></g><g id="freepik--ok-icon--inject-55"><rect x="98.15" y="36.25" width="26.2" height="26.2" rx="4.65" style="fill:#4D4D4D"></rect><g style="opacity:0.30000000000000004"><rect x="98.15" y="36.25" width="26.2" height="26.2" rx="4.65"></rect></g><rect x="93.45" y="36.25" width="26.2" height="26.2" rx="4.65" style="fill:#4D4D4D"></rect><polygon points="97.5 49.73 100.14 47.09 105.23 51.61 113.73 43.08 116.18 45.72 104.85 56.7 97.5 49.73" style="fill:#fff"></polygon></g><g id="freepik--musical-notes--inject-55"><path d="M233.72,38.34h0c.05-.43-3-.82-6.08-2.54a12.48,12.48,0,0,1-3.51-2.75,12.32,12.32,0,0,1-.93-1.25c0-.29,0-.46-.06-.48-.33-.11-2,3.55-4,8.19a44,44,0,0,0-1.92,5.58,3.79,3.79,0,0,0-.57-1,3.95,3.95,0,1,0,.85,3c.65-1.47,1.65-4.11,2.9-7.09.6-1.43,1.13-2.8,1.56-4A10.35,10.35,0,0,0,226.43,40a10.48,10.48,0,0,0,5.68,1.15c-.67,1.43-1.5,3.32-2.39,5.42a43.66,43.66,0,0,0-1.91,5.57,4.39,4.39,0,0,0-.57-1,4,4,0,1,0,.84,3c.65-1.47,1.65-4.11,2.9-7.09C232.93,42.43,234.1,38.46,233.72,38.34Zm-6.69.41a34.57,34.57,0,0,1-4.89-3.23c.38-1.07.66-2,.84-2.7a4.75,4.75,0,0,0,.36.77A9.06,9.06,0,0,0,227,37a10.73,10.73,0,0,0,6.55,1.47,13,13,0,0,0-1.18,2.12A28,28,0,0,1,227,38.75Z" style="fill:#263238"></path><path d="M419.6,26.86h0c.12-.28-1.86-1.1-3.67-2.84A8.91,8.91,0,0,1,414,21.5a8.35,8.35,0,0,1-.4-1c.08-.19.1-.3.05-.33-.21-.14-2,2-4.22,4.85a29.15,29.15,0,0,0-2.33,3.44,3,3,0,0,0-.21-.77,2.78,2.78,0,1,0,0,2.2c.72-.88,1.88-2.49,3.28-4.29.67-.87,1.28-1.7,1.8-2.45a7.23,7.23,0,0,0,2.31,3.51A7.42,7.42,0,0,0,418,28.46c-.73.85-1.64,2-2.62,3.25a30,30,0,0,0-2.33,3.44,3,3,0,0,0-.21-.77,2.79,2.79,0,1,0,0,2.21c.72-.89,1.88-2.5,3.28-4.3C418.32,29.5,419.84,27,419.6,26.86ZM415,25.91a24,24,0,0,1-2.73-3.09c.45-.66.81-1.24,1.06-1.69a4.85,4.85,0,0,0,.1.59,6.51,6.51,0,0,0,1.87,3,7.58,7.58,0,0,0,4.19,2.2,8.82,8.82,0,0,0-1.19,1.23A21.11,21.11,0,0,1,415,25.91Z" style="fill:#263238"></path><path d="M86.66,71.18h0c-.22-.34-2.59,1.19-5.82,1.84a11.64,11.64,0,0,1-4.13.16,13.39,13.39,0,0,1-1.41-.33c-.15-.23-.26-.34-.33-.31-.3.13.69,3.73,2.09,8.19a38.89,38.89,0,0,0,2,5.09,3.33,3.33,0,0,0-1-.35,3.65,3.65,0,1,0,2.4,1.62c-.42-1.43-1.29-3.89-2.19-6.75-.43-1.37-.88-2.66-1.3-3.77A10.48,10.48,0,0,0,87.18,74.1c.39,1.43.93,3.26,1.56,5.27a42.61,42.61,0,0,0,2,5.09,3.54,3.54,0,0,0-1-.36,3.63,3.63,0,1,0,2.92,4.23,3.59,3.59,0,0,0-.52-2.6c-.42-1.43-1.29-3.9-2.19-6.75C88.55,74.54,87,71,86.66,71.18Zm-4.49,4.29a32.68,32.68,0,0,1-5.38.65c-.38-1-.73-1.81-1-2.42a5.25,5.25,0,0,0,.71.34,8.58,8.58,0,0,0,4.62.22,10,10,0,0,0,5.51-2.89,11.56,11.56,0,0,0,.45,2.2A25.81,25.81,0,0,1,82.17,75.47Z" style="fill:#263238"></path><path d="M201,154.44a3.82,3.82,0,0,0,.71-3.13c.24-1.61.56-4.16,1.07-7,.31-1.74.55-3.37.73-4.75a5.89,5.89,0,0,0,3.4,1.6c2.49.36,4.32-.84,4.17-1s-1.85.5-4,.17a11.08,11.08,0,0,1-3.48-1.18c.16-1.38.25-2.47.26-3.1a7,7,0,0,0,3.83,1.33c2.57.19,4.46-.93,4.33-1.11s-1.93.45-4.25.27a17.54,17.54,0,0,1-3.92-.84c0-.16,0-.26-.07-.26s-.08.09-.13.26h-.05s0,.05,0,.08c-.31,1-.93,4.4-1.64,8.41a49.94,49.94,0,0,0-.69,6,3.71,3.71,0,0,0-.94-1,3.9,3.9,0,0,0-5.42.78,3.79,3.79,0,0,0,.69,5.37A3.9,3.9,0,0,0,201,154.44Z" style="fill:#263238"></path><path d="M375.65,106.48a3,3,0,0,0-.81-2.4c-.51-1.18-1.35-3-2.2-5.19-.51-1.3-1-2.51-1.47-3.51a4.65,4.65,0,0,0,3-.33c1.83-.79,2.57-2.35,2.4-2.4s-1,1.1-2.66,1.78a8.87,8.87,0,0,1-2.84.65c-.46-1-.85-1.78-1.1-2.21a5.47,5.47,0,0,0,3.13-.68c1.81-.94,2.62-2.47,2.46-2.55s-1.12,1.11-2.76,2a13.52,13.52,0,0,1-3,1c-.08-.1-.14-.16-.16-.15s0,.1,0,.23,0,0,0,0,0,0,0,0c.23.84,1.2,3.36,2.38,6.36a39.26,39.26,0,0,0,2,4.3,3,3,0,0,0-1.07-.31,3.08,3.08,0,0,0-3.33,2.77,3,3,0,0,0,2.69,3.34A3.1,3.1,0,0,0,375.65,106.48Z" style="fill:#263238"></path></g><g id="freepik--Character--inject-55"><rect x="89.75" y="377.27" width="13.83" height="90.35" style="fill:#455a64"></rect><path d="M103.58,467.62s0-.16,0-.47l0-1.35c0-1.21,0-3,0-5.2,0-4.52-.06-11.05-.09-19.16,0-16.22-.08-38.77-.14-64.17l.31.25H89.75l.31-.25c-.08,39.58-.14,73.85-.17,90.35l-.14-.11,10.25.06,2.66,0,.92,0s-.28,0-.87,0l-2.63,0-10.33.07h-.14v-.12c0-16.5-.1-50.77-.17-90.35l.31-.26h14.14v.26c0,25.48-.1,48.09-.13,64.36,0,8.08-.07,14.59-.1,19.1,0,2.21,0,3.94,0,5.13l0,1.32C103.59,467.48,103.58,467.62,103.58,467.62Z" style="fill:#263238"></path><g style="opacity:0.30000000000000004"><rect x="89.75" y="379.99" width="13.83" height="4.57"></rect></g><rect x="383.93" y="377.27" width="13.83" height="90.35" style="fill:#455a64"></rect><path d="M397.77,467.62a4.24,4.24,0,0,1,0-.47l0-1.35c0-1.21,0-3-.05-5.2,0-4.52-.05-11.05-.09-19.16,0-16.22-.08-38.77-.13-64.17l.31.25H383.93l.31-.25c-.07,39.58-.13,73.85-.17,90.35l-.14-.11,10.26.06,2.66,0,.92,0-.87,0-2.63,0-10.34.07h-.14v-.12c0-16.5-.09-50.77-.17-90.35l.31-.26h14.15v.26c-.06,25.48-.1,48.09-.14,64.36,0,8.08-.07,14.59-.09,19.1,0,2.21,0,3.94,0,5.13,0,.57,0,1,0,1.32S397.77,467.62,397.77,467.62Z" style="fill:#263238"></path><rect x="362.26" y="281.16" width="13.83" height="91.51" style="fill:#455a64"></rect><path d="M376.1,372.67a2.68,2.68,0,0,1,0-.48c0-.34,0-.79,0-1.37,0-1.23,0-3-.05-5.25,0-4.58-.05-11.18-.09-19.38,0-16.41-.08-39.23-.13-65l.31.31H362.27c.61-.62.17-.16.3-.29V295.7q0,7.13,0,13.93c0,9.05,0,17.6,0,25.47,0,15.72-.09,28.72-.11,37.57l-.16-.16,10.24.09,2.67,0,.93,0s-.29,0-.88,0l-2.63,0-10.33.09h-.15v-.15c0-8.85-.06-21.85-.11-37.57,0-7.87,0-16.42,0-25.47q0-6.79,0-13.93,0-3.57,0-7.2v-7.32c.14-.14-.31.29.32-.33h14.14v.31c-.06,25.88-.11,48.79-.14,65.25,0,8.17-.07,14.74-.09,19.3,0,2.24,0,4,0,5.19,0,.56,0,1,0,1.33S376.1,372.67,376.1,372.67Z" style="fill:#263238"></path><rect x="116.22" y="281.16" width="13.83" height="91.51" style="fill:#455a64"></rect><path d="M130.06,372.67a3.23,3.23,0,0,1,0-.48c0-.34,0-.79,0-1.37,0-1.23,0-3,0-5.25,0-4.58-.05-11.18-.09-19.38,0-16.41-.08-39.23-.13-65l.3.31H116.23c.61-.62.17-.16.3-.29V295.7q0,7.13,0,13.93c0,9.05,0,17.6,0,25.47,0,15.72-.09,28.72-.12,37.57l-.15-.16,10.23.09,2.68,0,.93,0s-.29,0-.88,0l-2.64,0-10.32.09h-.15v-.15c0-8.85-.07-21.85-.12-37.57,0-7.87,0-16.42,0-25.47q0-6.79,0-13.93V281.18c.14-.14-.31.29.32-.33h14.13v.31c-.05,25.88-.1,48.79-.13,65.25,0,8.17-.07,14.74-.09,19.3,0,2.24,0,4,0,5.19,0,.56,0,1,0,1.33S130.06,372.67,130.06,372.67Z" style="fill:#263238"></path><rect x="88.93" y="270.72" width="313.85" height="14.65" style="fill:#455a64"></rect><path d="M402.78,285.37s0-.3,0-.89,0-1.5,0-2.7c0-2.41,0-6.06-.05-11.06l.08.09L89,271h0l.31-.31v14.65l-.31-.31,222.37.13,66.95.09,18.18,0,4.73,0c1.07,0,1.62,0,1.62,0l-1.58,0-4.69,0-18.1,0-66.88.09-222.6.13h-.31V270.41H89l313.83.22h.09v.09c0,5,0,8.69-.05,11.11,0,1.19,0,2.08,0,2.68S402.78,285.37,402.78,285.37Z" style="fill:#263238"></path><rect x="89.75" y="292.69" width="313.85" height="14.65" style="fill:#455a64"></rect><path d="M403.6,307.34s0-.3,0-.89,0-1.5,0-2.7c0-2.41,0-6.06-.05-11.06l.09.09L89.76,293h0l.31-.31v14.65l-.31-.31,222.37.13,66.94.09,18.18.05,4.73,0c1.07,0,1.63,0,1.63,0l-1.59,0-4.69,0-18.1.05-66.87.09-222.6.13h-.31V292.38h.32l313.84.22h.08v.09c0,5,0,8.69-.05,11.11,0,1.2,0,2.08,0,2.68S403.6,307.34,403.6,307.34Z" style="fill:#263238"></path><rect x="89.75" y="315.48" width="313.85" height="14.65" style="fill:#455a64"></rect><path d="M403.6,330.12s0-.29,0-.89,0-1.49,0-2.69c0-2.41,0-6.06-.05-11.06l.09.08-313.84.23h0l.31-.31v14.64l-.31-.3,222.37.12,66.94.1,18.18,0,4.73,0,1.63,0-1.59,0-4.69,0-18.1,0-66.87.1-222.6.12h-.31V315.17h.32l313.84.22h.08v.09c0,5,0,8.69-.05,11.11,0,1.19,0,2.08,0,2.67S403.6,330.12,403.6,330.12Z" style="fill:#263238"></path><rect x="89.75" y="338.26" width="313.85" height="14.65" style="fill:#455a64"></rect><path d="M403.6,352.91s0-.3,0-.89,0-1.49,0-2.69c0-2.42,0-6.07-.05-11.07l.09.09-313.84.22h0l.31-.31v14.65l-.31-.31,222.37.13,66.94.09,18.18.05,4.73,0,1.63,0s-.53,0-1.59,0l-4.69,0-18.1.05-66.87.09-222.6.13h-.31V338h.32l313.84.23h.08v.08c0,5,0,8.69-.05,11.12,0,1.19,0,2.07,0,2.67S403.6,352.91,403.6,352.91Z" style="fill:#263238"></path><rect x="76.11" y="365.34" width="333.19" height="14.65" style="fill:#455a64"></rect><path d="M409.3,380s0-.3,0-.89,0-1.49,0-2.69c0-2.41,0-6.06,0-11.07l.08.09-333.17.22h0l.31-.31V380l-.31-.31,236.05.13,71.09.09,19.3.05,5,0,1.72,0s-.56,0-1.68,0l-5,0-19.23.05-71,.09-236.28.13H75.8V365h.33l333.17.23h.09v.08c0,5,0,8.7-.05,11.12,0,1.19,0,2.07,0,2.67S409.3,380,409.3,380Z" style="fill:#263238"></path><g style="opacity:0.30000000000000004"><rect x="383.93" y="379.99" width="13.83" height="4.57"></rect></g><path d="M209.42,309s-12.62,11.34-15.25,24.1c-3.87,18.77,6.2,33.42,6.2,33.42,19.45,1,36.66,2.11,69.86,0l.56-48.73Z" style="fill:#263238"></path><path d="M240.5,283.85c-.15-.54-4.64-16.28-4.64-16.28l18.59-10.35,5.23,20.65Z" style="fill:#4D4D4D"></path><path d="M289.36,245.47c-1.89-4.24-5-6.93-9.86-8.63l-14.79-4.22H230.28s-15.86.59-21.55,8.68l3.13,47.25s.86,8.32-8.16,26.54c0,0,6.83,8.83,17.9,8.83s48.8-4.79,48.8-4.79l3.77-20.67s9.41-20.92,11.2-24.92a78.15,78.15,0,0,0,5.23-16.61A19.8,19.8,0,0,0,289.36,245.47Z" style="fill:#4D4D4D"></path><path d="M244.38,297.45a3.78,3.78,0,0,1-.19-.55c-.13-.4-.29-.93-.5-1.61l-1.81-6.11c-1.53-5.29-3.69-12.74-6.25-21.55l0-.18.16-.08L254.32,257l.29-.16.08.32c.15.56.3,1.16.45,1.77,1.69,6.67,3.3,13.06,4.77,18.88l-.45,0,10.44-22.7c1.29-2.75,2.31-4.95,3-6.49.35-.73.62-1.3.83-1.72a3.71,3.71,0,0,1,.31-.59,4.18,4.18,0,0,1-.24.62l-.76,1.75c-.69,1.56-1.67,3.77-2.91,6.55-2.53,5.63-6.1,13.53-10.27,22.78l-.27.61-.17-.65-4.8-18.88-.45-1.77.37.16L236,267.77l.11-.27c2.48,8.83,4.57,16.3,6.06,21.6.72,2.61,1.29,4.69,1.69,6.15.18.68.32,1.23.43,1.63A3.68,3.68,0,0,1,244.38,297.45Z" style="fill:#263238"></path><path d="M210.53,239.26a19.37,19.37,0,0,0-6.82,15c.23,9.57,10.87,58.41,18.19,62.51,7.67,4.31,11.41,3.16,15.77,3.17s36.5-2.77,36.5-2.77l-.11-20.66-35.6,1.14-12.6-45.06Z" style="fill:#4D4D4D"></path><path d="M206.25,270.68s.06.17.15.51.22.85.38,1.49l1.46,5.76c1.27,5,3.08,12.24,5.63,21.1.64,2.21,1.34,4.52,2.15,6.9a26.07,26.07,0,0,0,3.42,7,14.61,14.61,0,0,0,6.43,5,21,21,0,0,0,8.67,1.21c6.09-.24,12.48-.71,19.11-1.18l20.5-1.58-.23.26v-.53c0-6.9-.08-13.64-.11-20.13l.26.24-35.6,1.11h-.17l-.05-.16c-3.75-13.58-6.87-24.85-9.05-32.74-1.07-3.93-1.92-7-2.5-9.14-.27-1-.49-1.84-.64-2.41s-.2-.83-.2-.83.1.27.27.81.39,1.36.7,2.39c.6,2.12,1.48,5.2,2.6,9.11l9.24,32.69-.22-.16,35.6-1.17h.26v.25c0,6.5.07,13.23.11,20.13,0,.18,0,.37,0,.53v.24l-.24,0L253.68,319c-6.63.47-13,.93-19.12,1.15a21,21,0,0,1-8.85-1.26,14.9,14.9,0,0,1-6.61-5.21,26,26,0,0,1-3.45-7.08c-.8-2.4-1.5-4.71-2.12-6.93-2.51-8.89-4.27-16.14-5.49-21.15-.58-2.5-1-4.44-1.36-5.78l-.33-1.51A4.93,4.93,0,0,1,206.25,270.68Z" style="fill:#263238"></path><g style="opacity:0.30000000000000004"><path d="M224.74,318.42a11.54,11.54,0,0,1-5.14-4.5c-4-5.89-6.15-14.46-7.53-20.61l-.49-.63a77.73,77.73,0,0,0,3.53,17.78c1.06,3,2.4,6.1,4.89,8.11a13.2,13.2,0,0,0,8.18,2.6,39.62,39.62,0,0,0,8.64-1.2C234.38,319.93,228.54,320.11,224.74,318.42Z"></path></g><g style="opacity:0.30000000000000004"><polygon points="227.79 259.46 240.86 295.01 271.65 296.57 238.46 297.64 227.79 259.46"></polygon></g><path d="M303.8,405.37l3.27,23.75s25.23,4.65,26.26,9l-45.81,8-6.61-36.79Z" style="fill:#4D4D4D"></path><path d="M292.56,429.6a1.9,1.9,0,0,0-.93,2.36,1.84,1.84,0,0,0,2.34.94,2,2,0,0,0,1-2.51,1.89,1.89,0,0,0-2.53-.7" style="fill:#e0e0e0"></path><path d="M287.66,447.06,287,443.5l44.11-7.41s2.19.53,2.21,2Z" style="fill:#e0e0e0"></path><path d="M307.77,428.75c0,.23-1.07.52-2,1.44s-1.4,1.95-1.62,1.9-.12-1.41,1.08-2.49S307.78,428.54,307.77,428.75Z" style="fill:#263238"></path><path d="M312.92,429.9c.09.21-.81.76-1.41,1.84s-.64,2.12-.86,2.14-.59-1.21.18-2.53S312.88,429.69,312.92,429.9Z" style="fill:#263238"></path><path d="M316.65,435.18c-.19.08-.7-1-.34-2.31s1.33-2,1.45-1.82-.4.93-.68,2S316.87,435.12,316.65,435.18Z" style="fill:#263238"></path><path d="M306.42,423.42c-.05.22-1.13.09-2.38.4s-2.17.88-2.32.71.66-1.14,2.14-1.48S306.5,423.23,306.42,423.42Z" style="fill:#263238"></path><path d="M271.94,221.4c-.58-2.78,0-5.64.49-8.44s.73-5.79-.45-8.37c-1.49-3.24-4.92-5.11-7.06-8s-2.85-6.52-3.7-10-2.05-7.12-4.81-9.4c-3.49-2.89-11.33-2.25-14.56.92,2.63,20.13,1.13,41.18,8.55,60.08A54,54,0,0,0,277.51,227C274.68,226.86,272.51,224.17,271.94,221.4Z" style="fill:#263238"></path><path d="M233.64,239.66l-13-47a4.34,4.34,0,0,1,3-5.05l21.57-10c7.11-2.14,13.62,5.88,15.46,13.07,2,8,4.21,17.83,4.39,24.05.37,12.5-8.64,15.8-8.64,15.8l1.73,13.21L254.41,257l-11.56,6.35Z" style="fill:#ffbf9d"></path><path d="M257.68,201.21a1.57,1.57,0,0,1-1.2,1.85,1.51,1.51,0,0,1-1.87-1.1,1.58,1.58,0,0,1,1.2-1.85A1.51,1.51,0,0,1,257.68,201.21Z" style="fill:#263238"></path><path d="M259.22,195.67c-.15.24-1.49-.41-3.17-.09s-2.74,1.39-3,1.22,0-.48.48-1a4.29,4.29,0,0,1,2.33-1.23,4.16,4.16,0,0,1,2.57.33C259.06,195.22,259.3,195.56,259.22,195.67Z" style="fill:#263238"></path><path d="M243.15,205.05a1.59,1.59,0,0,1-1.21,1.85,1.52,1.52,0,0,1-1.87-1.1,1.59,1.59,0,0,1,1.21-1.85A1.51,1.51,0,0,1,243.15,205.05Z" style="fill:#263238"></path><path d="M244,199.7c-.15.24-1.5-.41-3.17-.09s-2.74,1.39-3,1.22,0-.48.48-1a4.43,4.43,0,0,1,2.32-1.23,4.18,4.18,0,0,1,2.58.33C243.79,199.26,244,199.59,244,199.7Z" style="fill:#263238"></path><path d="M251.58,211a11.76,11.76,0,0,1,2.63-1c.42-.13.81-.29.83-.6a2.28,2.28,0,0,0-.53-1.21l-1.88-3c-2.63-4.3-4.62-7.87-4.45-8s2.45,3.3,5.08,7.61l1.83,3a2.49,2.49,0,0,1,.54,1.64,1.09,1.09,0,0,1-.58.76,3.71,3.71,0,0,1-.71.24A11.24,11.24,0,0,1,251.58,211Z" style="fill:#263238"></path><path d="M256.49,230.57a31.43,31.43,0,0,1-17.07-1.26s5.71,7.88,17.64,4.44Z" style="fill:#ff9a6c"></path><path d="M242.59,192.67c-.07.48-1.79.58-3.71,1.19s-3.41,1.45-3.74,1.09c-.16-.18,0-.66.6-1.22a6.38,6.38,0,0,1,2.64-1.52,6.46,6.46,0,0,1,3-.22C242.19,192.15,242.62,192.44,242.59,192.67Z" style="fill:#e0e0e0"></path><path d="M257.88,190.62c-.22.44-1.45.26-2.84.51s-2.51.74-2.86.39c-.16-.17,0-.59.4-1a4.21,4.21,0,0,1,4.6-.73C257.74,190.05,258,190.41,257.88,190.62Z" style="fill:#263238"></path><path d="M247.92,176.9c-2.94-5-7.55-4.73-12.49-4.51s-11.81,3.51-15.37,6.94c-2.78,2.68-5.86,6-7.62,9.43s-2.1,6.83-2.89,10.44c-1.23,5.64-.17,11.47.45,17.2a109.94,109.94,0,0,1,.17,21.69c-.24,2.58-.41,5.65,3.12,6.55a7.15,7.15,0,0,0,2,.19c5.24-.16,10.49.82,16.26.29l3.53-.57c4.46-.72,6.26-4.13,5.49-8-2.33-11.63-10.78-30-12-33.58C228.62,203,222.63,177.39,247.92,176.9Z" style="fill:#263238"></path><path d="M246.32,177.28a7.27,7.27,0,0,0-1.76,5.44c.05,2,.47,3.91.42,5.87a12.29,12.29,0,0,1-5.58,9.84c-1.06.67-2.58,1.12-3.45.22a6.77,6.77,0,0,1-3,7c-1.69,1-3.74,1.23-5.57,2s-3.62,2.36-3.4,4.32l-3-13.41L222.86,186l10.58-8.83Z" style="fill:#263238"></path><path d="M229.16,202.9a8.55,8.55,0,0,0,1-1.08,8.36,8.36,0,0,0,1.3-3.71,28.18,28.18,0,0,0-.11-5.89A48.3,48.3,0,0,1,231,185a13.74,13.74,0,0,1,2.17-6.9,8.15,8.15,0,0,1,2.26-2.24,7.77,7.77,0,0,1,2.56-1.08,6.39,6.39,0,0,1,4,.29,4.79,4.79,0,0,1,.56.29,2.2,2.2,0,0,1,.39.25l.29.24a9,9,0,0,0-1.28-.69,6.38,6.38,0,0,0-3.88-.22,7.73,7.73,0,0,0-4.68,3.29,13.62,13.62,0,0,0-2.11,6.79,48,48,0,0,0,.29,7.23,27.5,27.5,0,0,1,.05,5.93,8,8,0,0,1-1.39,3.74A4.18,4.18,0,0,1,229.16,202.9Z" style="fill:#455a64"></path><path d="M218.73,202.89a7,7,0,0,0,1.72-.73,9.42,9.42,0,0,0,3.21-3.88,18,18,0,0,0,1.23-3.29,13.74,13.74,0,0,0,.34-4c0-1.43-.23-2.92-.32-4.49a23.81,23.81,0,0,1,0-2.39,12.44,12.44,0,0,1,5.94-9.78,12,12,0,0,1,7.35-1.69,12.25,12.25,0,0,1,4.91,1.48,8.86,8.86,0,0,1,1.56,1l-.11-.06-.3-.2c-.13-.09-.29-.2-.5-.32s-.42-.26-.69-.39a12.45,12.45,0,0,0-4.88-1.39,11.91,11.91,0,0,0-7.23,1.7,12.57,12.57,0,0,0-5.42,7.23,12.28,12.28,0,0,0-.39,2.39,20.66,20.66,0,0,0,0,2.36c.08,1.55.26,3.05.31,4.49a13.82,13.82,0,0,1-.37,4.07,18.09,18.09,0,0,1-1.27,3.32,9.38,9.38,0,0,1-3.31,3.88,5.28,5.28,0,0,1-1.29.55l-.36.09C218.77,202.89,218.73,202.9,218.73,202.89Z" style="fill:#455a64"></path><path d="M236,198.65s0,0,0,.11,0,.2,0,.34,0,.34,0,.56,0,.48,0,.77a8.19,8.19,0,0,1-.47,2,6.74,6.74,0,0,1-1.52,2.37,11,11,0,0,1-6.74,2.86,20.73,20.73,0,0,1-4.46,0,18.14,18.14,0,0,1-4.72-1.07l-.3-.12.31-.1a17.32,17.32,0,0,0,4.84-2.39L223,204l.11.21a16.4,16.4,0,0,1-10.85-.21l-.23-.08.22-.12a20.24,20.24,0,0,0,5.75-4.16,10.22,10.22,0,0,0,2.57-4.86,10.36,10.36,0,0,0,0-3.62l-.22-1c0-.09,0-.17-.06-.24a.6.6,0,0,1,0-.08l0,.07.07.24c.06.23.15.54.26.94a10.07,10.07,0,0,1,.09,3.66,10.3,10.3,0,0,1-2.56,5,20.43,20.43,0,0,1-5.79,4.24v-.2A16.31,16.31,0,0,0,223,204l.77-.26-.66.46-.08.06a17.4,17.4,0,0,1-4.91,2.42v-.22a17.45,17.45,0,0,0,4.66,1.07,21,21,0,0,0,4.41,0,11,11,0,0,0,6.66-2.76,6.79,6.79,0,0,0,1.51-2.31,8.57,8.57,0,0,0,.5-2c0-.29,0-.54,0-.76s0-.41,0-.56v-.45Z" style="fill:#455a64"></path><path d="M216.85,239.66c-.07,0-.44-7-.82-15.73s-.65-15.73-.59-15.74.43,7,.82,15.73S216.91,239.66,216.85,239.66Z" style="fill:#455a64"></path><path d="M224,240.24a1.32,1.32,0,0,1-.09-.29c-.05-.21-.12-.48-.21-.82-.17-.72-.41-1.76-.69-3-.56-2.59-1.25-6.18-1.88-10.16s-1.06-7.62-1.32-10.25c-.13-1.31-.23-2.38-.28-3.12,0-.35,0-.63-.05-.85a1.59,1.59,0,0,1,0-.29,1,1,0,0,1,0,.29l.1.85c.09.76.21,1.81.35,3.1.31,2.63.77,6.25,1.39,10.23s1.3,7.57,1.81,10.16l.62,3.07c.07.34.12.62.17.83A1.73,1.73,0,0,1,224,240.24Z" style="fill:#455a64"></path><path d="M252.54,214.13a2.46,2.46,0,0,0-.84-.42h.05a2.19,2.19,0,0,0-2.46.3,2.29,2.29,0,0,0-.67,1.38,2.22,2.22,0,0,0,.26,1.58,2.05,2.05,0,0,0,1.27.85,3.73,3.73,0,0,0,1.56,0,2.28,2.28,0,0,0,1.32-.63,1.84,1.84,0,0,0,.4-1.11A2.46,2.46,0,0,0,252.54,214.13Z" style="fill:#ff9a6c"></path><path d="M254.45,215.46c.05.09-.26.39-.89.63a4.58,4.58,0,0,1-2.62.18,4.69,4.69,0,0,1-2.31-1.25c-.47-.49-.63-.89-.54-1s1.26,1,3,1.39S254.35,215.24,254.45,215.46Z" style="fill:#263238"></path><path d="M246.91,209.78a9,9,0,0,1-1.31-.42,7,7,0,0,0-3.19-.22,7.24,7.24,0,0,0-2.94,1.24c-.68.49-1,.88-1.1.83s.21-.52.87-1.11a6.17,6.17,0,0,1,6.48-1.09C246.54,209.35,246.94,209.73,246.91,209.78Z" style="fill:#ff9a6c"></path><path d="M244.86,231.59s-3.94,1.89-3.94,5-.65,28.11-.65,28.11l14.11-7.93-2.3-16.61,15.26-9.36s3-5.2,2.65-6.84-3.3-4.81-4.78-4.65a3.44,3.44,0,0,0-2.3,1.48l-4.59,1s.33,2.95,2.3,2.79l1.31-.17-.17,1.15-2.29,1.64Z" style="fill:#ffbf9d"></path><path d="M244.86,231.59l.24-.09.74-.25,2.85-.91L259.42,227l-.05,0,2.29-1.65-.07.12c.05-.35.11-.75.16-1.15l.2.2-1.27.16a1.85,1.85,0,0,1-1.37-.39,4.16,4.16,0,0,1-1.19-2.55l0-.18.19,0,4.59-1-.14.1a3.87,3.87,0,0,1,1.59-1.35,2.66,2.66,0,0,1,1.07-.23,2.5,2.5,0,0,1,1.06.34,9.76,9.76,0,0,1,3.08,3,6.22,6.22,0,0,1,.53,1,2.07,2.07,0,0,1,.16,1.18,9.55,9.55,0,0,1-.65,2.19,39.24,39.24,0,0,1-2,4.13l0,.06-.06,0-15.26,9.36.12-.25c.08.53.15,1.09.23,1.66.71,5.16,1.41,10.17,2.07,14.95l0,.17-.15.08-14.12,7.92-.34.19v-.39c.28-10.36.51-19,.67-25.17,0-.76.05-1.48.07-2.16a6.62,6.62,0,0,1,.21-1.92,5.78,5.78,0,0,1,1.75-2.46,7.66,7.66,0,0,1,2.11-1.37s0,0-.14.09l-.4.25a10.4,10.4,0,0,0-1.48,1.13,5.71,5.71,0,0,0-1.65,2.42,6.85,6.85,0,0,0-.17,1.86c0,.68,0,1.4,0,2.16-.11,6.13-.28,14.81-.48,25.18l-.34-.2,14.1-8-.12.25c-.67-4.78-1.36-9.79-2.08-14.95-.08-.57-.16-1.13-.23-1.66l0-.16.14-.09,15.27-9.34-.09.08a37.34,37.34,0,0,0,2-4.07,9,9,0,0,0,.62-2.06,2.75,2.75,0,0,0-.61-1.87,9.16,9.16,0,0,0-2.9-2.85,2,2,0,0,0-.87-.29,2,2,0,0,0-.88.19,3.47,3.47,0,0,0-1.4,1.17l0,.08-.08,0-4.6,1,.15-.22a3.81,3.81,0,0,0,1,2.31,1.53,1.53,0,0,0,1.09.32l1.27-.16.23,0,0,.23-.17,1.14v.08l-.06,0-2.31,1.63,0,0h0l-10.76,3.18-2.88.83-.75.21Z" style="fill:#ff9a6c"></path><path d="M263.81,228.65c-.05-.06.43-.48,1.11-1.21a6,6,0,0,0,1-1.4,3.73,3.73,0,0,0,.3-2,10.45,10.45,0,0,0-.39-2.07,1.2,1.2,0,0,0-1.2-.8,5.47,5.47,0,0,1-1.22-.13c-.29-.1-.4-.23-.39-.25s.17,0,.44.06a11.05,11.05,0,0,0,1.18,0,1.93,1.93,0,0,1,.9.17,1.61,1.61,0,0,1,.72.8,9.12,9.12,0,0,1,.46,2.21,3.9,3.9,0,0,1-.38,2.25,5.21,5.21,0,0,1-1.15,1.45A4,4,0,0,1,263.81,228.65Z" style="fill:#ff9a6c"></path><path d="M248.46,427.79l2.65,31.76L246,485.27a3.27,3.27,0,0,0,2.78,3.88h0a3.25,3.25,0,0,0,2.81-1c4.58-4.95,21.3-23.24,21-25.55-.38-2.68-.58-33.68-.58-33.68Z" style="fill:#4D4D4D"></path><path d="M248.75,489.15l23.66-28.72.08,1.35a4.92,4.92,0,0,1-1,3.25c-1.88,2.5-7.21,9.27-19.86,23.1a3.3,3.3,0,0,1-2.91,1Z" style="fill:#e0e0e0"></path><path d="M255.18,474.81c-.17.1-1-1.53-2.94-2.31s-3.65-.28-3.7-.48.35-.34,1.09-.49a5,5,0,0,1,2.88.33,5.12,5.12,0,0,1,2.26,1.82C255.18,474.31,255.26,474.78,255.18,474.81Z" style="fill:#263238"></path><path d="M253.17,479.2c-.14.15-1.22-.82-2.9-1.19s-3.07,0-3.13-.22,1.39-.92,3.29-.46S253.33,479.11,253.17,479.2Z" style="fill:#263238"></path><path d="M259.07,469.09c-.14.16-1.8-1.34-4.35-2.15s-4.77-.6-4.79-.81,2.27-.75,5,.15S259.21,469,259.07,469.09Z" style="fill:#263238"></path><path d="M259.07,459.37c-.08.2-1.88-.43-4.17-.37s-4.07.71-4.15.52,1.67-1.19,4.14-1.22S259.16,459.22,259.07,459.37Z" style="fill:#263238"></path><path d="M258.52,450c-.08.19-1.92-.76-4.32-.51s-4,1.49-4.16,1.32.27-.48,1-.95a6.88,6.88,0,0,1,3.11-1.06,7,7,0,0,1,3.26.45C258.17,449.61,258.57,450,258.52,450Z" style="fill:#263238"></path><path d="M263.22,342c-6.28-7.78-19.62-8.49-26.46-1.06-2.14,2.32-4.59,5.66-4.28,9.5,1.37,17.45,5.26,48.15,6.58,60.5,1.57,14.78,4.72,39.2,4.72,39.2l33.69-2.54s-7.15-72.91-8.46-82.09a157.25,157.25,0,0,0-4.21-19Z" style="fill:#263238"></path><path d="M219.91,327.91c.82-.54,38.1-14.41,44.6-15.76s12.59-2.1,19.9,4.67C293.33,325.09,309.59,424,309.59,424s-27.49,4.65-27.49,4.11-18.8-81-18.8-81l-33,21.12-18.41-27.34Z" style="fill:#263238"></path><path d="M271.25,378.71a1,1,0,0,1-.07-.25l-.15-.74c-.12-.69-.29-1.64-.5-2.85-.41-2.52-1-6.09-1.71-10.5a155.32,155.32,0,0,0-3.24-15.43,27.8,27.8,0,0,0-3.75-8.51,17,17,0,0,0-8-6.26,16.32,16.32,0,0,0-10.45,0,17.56,17.56,0,0,0-8,5.23,13.67,13.67,0,0,0-2.78,7.76,68.13,68.13,0,0,0,0,7.3c.3,4.46,1,8.05,1.19,10.55.12,1.25.16,2.22.19,2.88v.76a.93.93,0,0,1,0,.25.61.61,0,0,1,0-.25l-.06-.75c-.06-.66-.14-1.63-.3-2.87-.26-2.49-1-6.06-1.36-10.55a68.07,68.07,0,0,1-.08-7.35,14,14,0,0,1,2.83-8,17.91,17.91,0,0,1,8.25-5.42,16.87,16.87,0,0,1,10.83,0,17.32,17.32,0,0,1,8.26,6.47,27.68,27.68,0,0,1,3.79,8.66,148.33,148.33,0,0,1,3.14,15.49c.64,4.41,1.16,8,1.53,10.53.17,1.21.31,2.16.4,2.86l.1.74A1.28,1.28,0,0,1,271.25,378.71Z" style="fill:#455a64"></path><path d="M248.24,317.49s-.14.09-.43.22l-1.29.53c-1.12.45-2.75,1.08-4.76,1.85-4,1.54-9.63,3.59-15.81,5.85s-11.75,4.37-15.76,6l-4.73,1.91-1.29.51a2.41,2.41,0,0,1-.47.15s.14-.1.42-.24l1.26-.61c1.09-.51,2.69-1.22,4.68-2.06,4-1.68,9.53-3.84,15.71-6.11s11.8-4.26,15.86-5.7l4.82-1.7,1.32-.45A2.64,2.64,0,0,1,248.24,317.49Z" style="fill:#455a64"></path><path d="M274.31,297.64s11.71.07,14.66,1.21,17.86,8.35,19.49,11.47,5.57,8.68,6.06,11.46,1,11.14,1,11.14a4,4,0,0,1-3.77-3.77l-1.15,3.77s-3.11.82-3.6-1.31c0,0-1.8,2.29-2.62-2.95a55.38,55.38,0,0,1-.82-6.88l-2.46-3.6L302.4,323l-.65,7.31s-2.62,0-2.79-2.29a22.33,22.33,0,0,0-1.14-5l-3.28-5.14s-8.28-4.31-10.13-6.39a10.14,10.14,0,0,1-2.07-2.81l-8.17,2.73Z" style="fill:#ffbf9d"></path><path d="M298.54,314.48a4.72,4.72,0,0,1,2.72,4.82c-.15,0-.27-1.27-1-2.59S298.45,314.61,298.54,314.48Z" style="fill:#ff9a6c"></path><path d="M304.74,314.11a9.8,9.8,0,0,1,1.25,2.38,25.65,25.65,0,0,1,1.77,12.77,9.61,9.61,0,0,1-.56,2.64,25.39,25.39,0,0,1,.19-2.67,31.23,31.23,0,0,0-1.74-12.61A23.24,23.24,0,0,1,304.74,314.11Z" style="fill:#ff9a6c"></path><path d="M309.94,314.23a10.54,10.54,0,0,1,1.12,2.59,25,25,0,0,1,.51,13.48,10.42,10.42,0,0,1-.92,2.67c-.08,0,.23-1.06.56-2.75a30.24,30.24,0,0,0,.51-6.68,29.39,29.39,0,0,0-1-6.61C310.25,315.26,309.86,314.26,309.94,314.23Z" style="fill:#ff9a6c"></path></g></svg>