<svg xmlns="http://www.w3.org/2000/svg" viewBox="0 0 500 500"><g id="freepik--Floor--inject-45"><path id="freepik--floor--inject-45" d="M79.27,237C-15,291.48-15,379.74,79.27,434.18s247.17,54.44,341.46,0,94.29-142.7,0-197.14S173.56,182.6,79.27,237Z" style="fill:#fafafa"></path></g><g id="freepik--Shadows--inject-45"><path id="freepik--Shadow--inject-45" d="M201.84,460.93,453.32,315.74c1.68-1,1.68-2.55,0-3.53L316.94,233.43a6.76,6.76,0,0,0-6.1,0L59.37,378.62c-1.69,1-1.69,2.55,0,3.53l136.37,78.78A6.76,6.76,0,0,0,201.84,460.93Z" style="fill:#e6e6e6"></path><path id="freepik--shadow--inject-45" d="M386.43,288.6,337.5,260.4a1.26,1.26,0,0,1,0-2.38l68-39.36a4.56,4.56,0,0,1,4.12,0l48.93,28.2a1.26,1.26,0,0,1,0,2.38l-68,39.36A4.53,4.53,0,0,1,386.43,288.6Z" style="fill:#e0e0e0"></path><path id="freepik--shadow--inject-45" d="M316.1,212.06c-9.37,5.41-9.37,14.18,0,19.59s24.56,5.41,33.93,0,9.37-14.18,0-19.59S325.47,206.65,316.1,212.06Z" style="fill:#e0e0e0"></path><path id="freepik--shadow--inject-45" d="M101.56,405.83c13.39,7.82,13.39,20.5,0,28.32s-35.11,7.82-48.5,0-13.39-20.5,0-28.31S88.16,398,101.56,405.83Z" style="fill:#e0e0e0"></path><g id="freepik--shadow--inject-45"><path d="M290.71,388.73c-6.1,2.95-4.76,7.14,0,11.11s12.19,6,15.62,9.84,8.36,11,19.63,11,20.75-4.38,15.83-9.93-10.27-7.22-18.53-10.71-13.1-7.61-18.46-10.37C300.27,387.31,296,386.19,290.71,388.73Z" style="fill:#e6e6e6"></path><path d="M323.07,377.51c5.13-3.52,12.38-2.75,19.25,0s10.45,7,17.05,9,14.07,3.6,16.28,10.93c1.88,6.23-6.34,12.07-14.37,10.34-6.93-1.5-12.63-6.73-18.68-11.5s-13.18-7.56-18-10.66C320.62,383,318.67,380.54,323.07,377.51Z" style="fill:#e6e6e6"></path></g></g><g id="freepik--Shelves--inject-45"><g id="freepik--shelves--inject-45"><g id="freepik--Shelf--inject-45"><polygon points="140.81 160.7 110.74 143.33 31.54 189.01 31.54 192.31 61.61 209.68 140.81 164 140.81 160.7" style="fill:#ebebeb"></polygon><polygon points="61.61 206.38 140.81 160.7 110.74 143.33 31.54 189.01 61.61 206.38" style="fill:#fafafa"></polygon><polygon points="61.61 206.38 61.61 209.68 31.54 192.31 31.54 189.01 61.61 206.38" style="fill:#e6e6e6"></polygon><polygon points="119.78 114.71 137.43 124.9 137.43 158.47 119.78 148.28 119.78 114.71" style="fill:#ebebeb"></polygon><path d="M136.86,125.46l-17.08-9.8a7.06,7.06,0,0,1-3.9,2.13l16.93,9.76A16.65,16.65,0,0,0,136.86,125.46Z" style="fill:#fff"></path><path d="M131.17,127.49a3.64,3.64,0,0,0,3.28,0l2.88-1.65a1,1,0,0,0,0-1.88L120.5,114.3l-.72.41,16.56,9.56a.6.6,0,0,1,0,1.13l-2.67,1.51a2.17,2.17,0,0,1-2,0l-16.55-9.54-.81.46Z" style="fill:#fafafa"></path><path d="M114.34,117.83V151.4l16.83,9.66a3.64,3.64,0,0,0,3.28,0l2.88-1.65a1.15,1.15,0,0,0,.68-.94V124.9a1.15,1.15,0,0,1-.68.94l-2.88,1.66a3.64,3.64,0,0,1-3.28,0Z" style="fill:#e0e0e0"></path><path d="M132.81,127.89a3.34,3.34,0,0,0,1.64-.39l2.88-1.66a1.15,1.15,0,0,0,.68-.94v33.57a1.15,1.15,0,0,1-.68.94l-2.88,1.65a3.34,3.34,0,0,1-1.64.39Z" style="fill:#f0f0f0"></path><polygon points="112.39 119.79 130.03 129.99 124.55 164.57 106.91 154.38 112.39 119.79" style="fill:#ebebeb"></polygon><path d="M129.33,130.47l-17.08-9.81a9.33,9.33,0,0,1-4.55,1.77l16.94,9.76A22.51,22.51,0,0,0,129.33,130.47Z" style="fill:#fff"></path><path d="M122.87,132.05a4.56,4.56,0,0,0,3.56.16l3.35-1.37c1.06-.43,1.18-1.2.28-1.72l-16.84-9.67-.83.34,16.55,9.56c.54.31.47.78-.17,1l-3.11,1.25a2.77,2.77,0,0,1-2.14-.09L107,122l-.94.38Z" style="fill:#fafafa"></path><path d="M106,122.39,100.55,157l16.84,9.67a4.58,4.58,0,0,0,3.55.16l3.36-1.37c.53-.22.83-.52.88-.83L130.66,130c0,.32-.35.61-.88.83l-3.36,1.38a4.58,4.58,0,0,1-3.55-.16Z" style="fill:#e0e0e0"></path><path d="M124.59,132.49a4.52,4.52,0,0,0,1.83-.27l3.36-1.38c.53-.22.83-.51.88-.83l-5.48,34.59c-.05.31-.35.61-.88.83l-3.36,1.37a4.52,4.52,0,0,1-1.83.27Z" style="fill:#f0f0f0"></path><g id="freepik--Pot--inject-45"><path id="freepik--shadow--inject-45" d="M106,164c4.15,2.4,4.15,6.29,0,8.68a16.61,16.61,0,0,1-15,0c-4.15-2.39-4.15-6.28,0-8.68A16.67,16.67,0,0,1,106,164Z" style="opacity:0.05"></path><path d="M91.67,170.05c-3.62-3.69-5.74-12.9-2.21-15.83H107.4c3.53,2.93,1.4,12.13-2.21,15.83l-.1.1-.12.12a3.11,3.11,0,0,1-.33.29l-.09.07a1.89,1.89,0,0,1-.27.2,3.38,3.38,0,0,1-.47.3,11.88,11.88,0,0,1-10.77,0h0c-.16-.09-.31-.19-.47-.3l-.25-.19-.11-.08-.31-.28-.15-.14Z" style="fill:#f5f5f5"></path><path d="M105.84,152.82c4.1,2.36,4.1,6.19,0,8.56a16.4,16.4,0,0,1-14.82,0c-4.1-2.36-4.1-6.2,0-8.56A16.33,16.33,0,0,1,105.84,152.82Z" style="fill:#fff"></path><path d="M102.94,154.49c2.49,1.44,2.49,3.77,0,5.21a10,10,0,0,1-9,0c-2.49-1.44-2.49-3.77,0-5.21A10,10,0,0,1,102.94,154.49Z" style="fill:#ebebeb"></path><path d="M93.92,157a10,10,0,0,1,9,0,4.24,4.24,0,0,1,1.49,1.36,4.17,4.17,0,0,1-1.49,1.37,10,10,0,0,1-9,0,4.08,4.08,0,0,1-1.49-1.37A4.15,4.15,0,0,1,93.92,157Z" style="fill:#e0e0e0"></path><path d="M102.39,158.33a20.21,20.21,0,0,0,3.26-4.33c1.51-2.67,1.79-6.24,1-6.68s-4,3.12-4,3.12a18.92,18.92,0,0,0,.33-4.54c-.13-2.38-.71-4.53-1.39-5s-2.2,2.56-2.85,4.73-1,4-1,4a34.18,34.18,0,0,0-1.17-5c-.79-2.25-1.51-2.76-2.07-2.54s-.92,1.27-1.08,4.27a29.19,29.19,0,0,0,.13,4.3s-1.12-1.23-2.36-2.43-1.94-1.48-2.33-1.23-.5,2.28,1.61,6.1a21.05,21.05,0,0,0,4,5.24S97.4,160.22,102.39,158.33Z" style="fill:#ebebeb"></path></g><polygon points="70.43 140.17 88.08 150.37 88.08 183.94 70.43 173.75 70.43 140.17" style="fill:#e0e0e0"></polygon><path d="M87.51,150.92l-17.08-9.8a7.16,7.16,0,0,1-3.9,2.14L83.46,153A17.35,17.35,0,0,0,87.51,150.92Z" style="fill:#fff"></path><path d="M81.82,153a3.64,3.64,0,0,0,3.28,0L88,151.31a1,1,0,0,0,0-1.88l-16.83-9.66-.72.4L87,149.73c.54.32.54.82,0,1.13l-2.67,1.52a2.2,2.2,0,0,1-2,0L65.8,142.84l-.81.46Z" style="fill:#fafafa"></path><path d="M65,143.3v33.57l16.83,9.66a3.64,3.64,0,0,0,3.28,0L88,184.88a1.15,1.15,0,0,0,.68-.94V150.37a1.15,1.15,0,0,1-.68.94L85.1,153a3.64,3.64,0,0,1-3.28,0Z" style="fill:#e0e0e0"></path><path d="M83.46,153.35A3.37,3.37,0,0,0,85.1,153L88,151.31a1.15,1.15,0,0,0,.68-.94v33.57a1.15,1.15,0,0,1-.68.94l-2.88,1.65a3.37,3.37,0,0,1-1.64.39Z" style="fill:#f0f0f0"></path><polygon points="63.22 144.32 80.86 154.51 80.86 188.08 63.22 177.89 63.22 144.32" style="fill:#ebebeb"></polygon><path d="M80.29,155.07l-17.07-9.8a7.25,7.25,0,0,1-3.91,2.13l16.93,9.76A17.21,17.21,0,0,0,80.29,155.07Z" style="fill:#fff"></path><path d="M74.6,157.1a3.64,3.64,0,0,0,3.28,0l2.88-1.65a1,1,0,0,0,0-1.88l-16.83-9.66-.71.41,16.55,9.56c.54.31.54.81,0,1.13l-2.67,1.51a2.2,2.2,0,0,1-2,0L58.58,147l-.81.46Z" style="fill:#fafafa"></path><path d="M57.77,147.44V181l16.83,9.66a3.64,3.64,0,0,0,3.28,0L80.76,189a1.15,1.15,0,0,0,.68-.94V154.51a1.15,1.15,0,0,1-.68.94l-2.88,1.65a3.64,3.64,0,0,1-3.28,0Z" style="fill:#e0e0e0"></path><path d="M76.24,157.49a3.34,3.34,0,0,0,1.64-.39l2.88-1.65a1.15,1.15,0,0,0,.68-.94v33.57a1.15,1.15,0,0,1-.68.94l-2.88,1.65a3.34,3.34,0,0,1-1.64.39Z" style="fill:#f0f0f0"></path><polygon points="56.09 151.44 73.73 161.63 68.25 196.21 50.61 186.02 56.09 151.44" style="fill:#ebebeb"></polygon><path d="M73,162.11,56,152.31a9.33,9.33,0,0,1-4.54,1.76l16.93,9.76A22.4,22.4,0,0,0,73,162.11Z" style="fill:#fff"></path><path d="M66.57,163.7a4.61,4.61,0,0,0,3.56.16l3.36-1.37c1.06-.43,1.18-1.21.27-1.73L56.92,151.1l-.83.34L72.64,161c.55.31.47.77-.16,1l-3.12,1.26a2.73,2.73,0,0,1-2.14-.1l-16.55-9.54-.94.39Z" style="fill:#fafafa"></path><path d="M49.73,154l-5.48,34.59,16.84,9.66a4.61,4.61,0,0,0,3.56.16L68,197.07c.52-.22.82-.51.87-.83l5.48-34.58c0,.31-.34.61-.87.83l-3.36,1.37a4.61,4.61,0,0,1-3.56-.16Z" style="fill:#e0e0e0"></path><path d="M68.29,164.14a4.4,4.4,0,0,0,1.84-.28l3.36-1.37c.53-.22.82-.52.87-.83l-5.48,34.58c0,.32-.35.61-.87.83l-3.36,1.37a4.4,4.4,0,0,1-1.84.28Z" style="fill:#f0f0f0"></path></g><g id="freepik--shelf--inject-45"><polygon points="140.81 95.55 110.74 78.18 31.54 123.86 31.54 127.16 61.61 144.53 140.81 98.85 140.81 95.55" style="fill:#ebebeb"></polygon><polygon points="61.61 141.23 140.81 95.55 110.74 78.18 31.54 123.86 61.61 141.23" style="fill:#fafafa"></polygon><polygon points="61.61 141.23 61.61 144.53 31.54 127.16 31.54 123.86 61.61 141.23" style="fill:#e6e6e6"></polygon><polygon points="63.47 75.48 82.98 86.75 82.98 123.85 63.47 112.59 63.47 75.48" style="fill:#ebebeb"></polygon><path d="M82.35,87.36,63.47,76.53a7.93,7.93,0,0,1-4.31,2.36L77.87,89.68A19.26,19.26,0,0,0,82.35,87.36Z" style="fill:#fff"></path><path d="M76.06,89.61a4,4,0,0,0,3.63,0l3.17-1.82c1-.58,1-1.51,0-2.08L64.26,75l-.79.45,18.3,10.57a.65.65,0,0,1,0,1.24l-3,1.68a2.46,2.46,0,0,1-2.18,0L58.35,78.42l-.89.52Z" style="fill:#fafafa"></path><path d="M57.46,78.93V116l18.6,10.67a4,4,0,0,0,3.63,0l3.18-1.82a1.27,1.27,0,0,0,.74-1V86.75a1.28,1.28,0,0,1-.74,1l-3.18,1.82a4,4,0,0,1-3.63,0Z" style="fill:#e0e0e0"></path><path d="M77.87,90a3.71,3.71,0,0,0,1.82-.43l3.18-1.82a1.28,1.28,0,0,0,.74-1v37.1a1.27,1.27,0,0,1-.74,1l-3.18,1.82a3.71,3.71,0,0,1-1.82.43Z" style="fill:#f0f0f0"></path><polygon points="55.9 81.92 75.4 93.19 69.34 131.42 49.84 120.15 55.9 81.92" style="fill:#ebebeb"></polygon><path d="M74.63,93.72,55.75,82.89a10.38,10.38,0,0,1-5,2L69.44,95.63A24.86,24.86,0,0,0,74.63,93.72Z" style="fill:#fff"></path><path d="M67.48,95.48a5.11,5.11,0,0,0,3.94.17l3.71-1.51c1.17-.48,1.3-1.33.3-1.91L56.82,81.55l-.92.37L74.19,92.49c.61.35.52.86-.18,1.14L70.57,95a3.09,3.09,0,0,1-2.36-.11L49.91,84.37l-1,.43Z" style="fill:#fafafa"></path><path d="M48.87,84.8l-6,38.22L61.43,133.7a5,5,0,0,0,3.93.18l3.71-1.52c.58-.24.91-.57,1-.91l6-38.23c0,.35-.38.68-1,.92l-3.71,1.52a5.11,5.11,0,0,1-3.94-.18Z" style="fill:#e0e0e0"></path><path d="M69.39,96a5,5,0,0,0,2-.3l3.71-1.52c.58-.24.91-.57,1-.92l-6,38.23c-.06.34-.39.67-1,.91l-3.71,1.52a5,5,0,0,1-2,.31Z" style="fill:#f0f0f0"></path><g id="freepik--Picture--inject-45"><g id="freepik--Frame--inject-45"><polygon points="92.79 112.16 94.17 112.82 119.76 98.05 118.38 97.38 92.79 112.16" style="fill:#fafafa"></polygon><polygon points="118.38 97.38 94.04 111.43 90.5 75.02 114.84 60.98 118.38 97.38" style="fill:#fff"></polygon><path d="M118.19,56.32,87.9,73.81l4.17,42.94,30.3-17.49Zm1.57,41.73L94.18,112.82,90.5,75l25.59-14.77Z" style="fill:#f0f0f0"></path><polygon points="119.76 98.05 118.38 97.38 114.84 60.98 116.09 60.25 119.76 98.05" style="fill:#e0e0e0"></polygon><polygon points="118.19 56.32 116.79 55.67 86.5 73.16 87.9 73.81 118.19 56.32" style="fill:#fafafa"></polygon><polygon points="86.5 73.16 87.9 73.81 92.07 116.75 90.67 116.11 86.5 73.16" style="fill:#e0e0e0"></polygon></g><g id="freepik--Land--inject-45"><polygon points="117.31 96.69 94.87 109.65 94.27 103.51 98.45 85.49 102.43 91.64 101.6 96.82 108.24 77.7 116.72 90.56 117.31 96.69" style="fill:#f0f0f0"></polygon><path d="M98.1,77.91a3.16,3.16,0,0,0-1.48,2.77c.1,1,.92,1.39,1.84.86a3.17,3.17,0,0,0,1.48-2.78C99.84,77.76,99,77.38,98.1,77.91Z" style="fill:#f0f0f0"></path></g></g></g></g></g><g id="freepik--Pictures--inject-45"><g id="freepik--picture--inject-45"><g id="freepik--frame--inject-45"><polygon points="175.82 120.42 177.61 121.48 214.22 100.34 212.44 99.28 175.82 120.42" style="fill:#fafafa"></polygon><polygon points="212.44 99.28 177.61 119.38 177.61 82.91 212.44 62.82 212.44 99.28" style="fill:#fff"></polygon><path d="M217.59,55.94,174.24,81v46.34l43.35-25Zm-3.37,44.4-36.61,21.14V82.91l36.61-21.14Z" style="fill:#f0f0f0"></path><polygon points="214.22 100.34 212.44 99.28 212.44 62.82 214.22 61.77 214.22 100.34" style="fill:#e0e0e0"></polygon><polygon points="217.59 55.94 215.77 54.91 172.43 79.93 174.24 80.97 217.59 55.94" style="fill:#fafafa"></polygon><polygon points="172.43 79.93 174.24 80.97 174.24 127.31 172.43 126.27 172.43 79.93" style="fill:#e0e0e0"></polygon></g><g id="freepik--land--inject-45"><polygon points="211.07 98.19 178.97 116.73 178.97 107.46 187 88.92 192 93.55 190.2 101.32 201.28 77.61 211.07 88.92 211.07 98.19" style="fill:#f0f0f0"></polygon><path d="M191.69,80a5.25,5.25,0,0,0-2.37,4.11c0,1.52,1.06,2.13,2.37,1.37a5.22,5.22,0,0,0,2.38-4.11C194.07,79.83,193,79.21,191.69,80Z" style="fill:#f0f0f0"></path></g></g><g id="freepik--picture--inject-45"><g id="freepik--frame--inject-45"><polygon points="231.1 111.27 232.88 112.33 269.49 91.2 267.71 90.13 231.1 111.27" style="fill:#fafafa"></polygon><polygon points="267.71 90.13 232.88 110.24 232.88 73.77 267.71 53.68 267.71 90.13" style="fill:#fff"></polygon><path d="M272.86,46.8l-43.34,25v46.35l43.34-25Zm-3.37,44.4-36.61,21.13V73.77l36.61-21.14Z" style="fill:#f0f0f0"></path><polygon points="269.49 91.2 267.71 90.13 267.71 53.68 269.49 52.63 269.49 91.2" style="fill:#e0e0e0"></polygon><polygon points="272.86 46.8 271.05 45.76 227.7 70.79 229.52 71.82 272.86 46.8" style="fill:#fafafa"></polygon><polygon points="227.7 70.79 229.52 71.82 229.52 118.17 227.7 117.13 227.7 70.79" style="fill:#e0e0e0"></polygon></g><g id="freepik--land--inject-45"><polygon points="266.35 89.04 234.24 107.58 234.24 98.31 242.27 79.78 247.27 84.41 245.47 92.18 256.56 68.47 266.35 79.78 266.35 89.04" style="fill:#f0f0f0"></polygon><path d="M247,70.82a5.27,5.27,0,0,0-2.38,4.12c0,1.51,1.07,2.13,2.38,1.37a5.25,5.25,0,0,0,2.37-4.11C249.34,70.68,248.28,70.07,247,70.82Z" style="fill:#f0f0f0"></path></g></g></g><g id="freepik--Lamp--inject-45"><g id="freepik--lamp--inject-45"><path d="M352.18,217.62h0c0-2.82-1.85-5.65-5.59-7.8-7.46-4.31-19.57-4.31-27,0-3.73,2.15-5.58,5-5.58,7.8h0v2.64h0c.05,2.79,1.92,5.57,5.6,7.7,7.47,4.31,19.58,4.31,27,0,3.69-2.13,5.56-4.91,5.6-7.7h0Z" style="fill:#ebebeb"></path><path d="M319.54,209.82c-7.47,4.31-7.47,11.3,0,15.61s19.58,4.31,27,0,7.47-11.3,0-15.61S327,205.51,319.54,209.82Z" style="fill:#f5f5f5"></path><path d="M335.12,92.42H331v124h0a1,1,0,0,0,.59.94,3.24,3.24,0,0,0,2.91,0,1,1,0,0,0,.58-.94h0Z" style="fill:#e0e0e0"></path><path d="M357.7,81.75h0L348.52,47.6h-31l-9.07,34.15h0c-1.66,4.51.61,9.39,6.83,12.9,9.83,5.54,25.77,5.54,35.6,0C357.08,91.14,359.35,86.26,357.7,81.75Z" style="fill:#ebebeb"></path><path d="M322,54.89c6.09,3.43,16,3.43,22,0s6.09-9,0-12.42-15.95-3.43-22,0S316,51.46,322,54.89Z" style="fill:#f5f5f5"></path><path d="M333.06,55.3a19.81,19.81,0,0,1-9.54-2.2c-2.23-1.26-3.46-2.82-3.46-4.42s1.23-3.16,3.46-4.42a21.81,21.81,0,0,1,19.09,0c2.23,1.26,3.45,2.83,3.45,4.42s-1.22,3.16-3.45,4.42A19.82,19.82,0,0,1,333.06,55.3Z" style="fill:#e0e0e0"></path></g></g><g id="freepik--Furniture--inject-45"><g id="freepik--Drawer--inject-45"><g id="freepik--drawer--inject-45"><polygon points="396.81 260.61 392.4 282.49 388.12 284.96 383.87 282.51 379.42 260.61 388.12 255.59 396.81 260.61" style="fill:#e0e0e0"></polygon><polygon points="396.81 260.61 392.4 282.49 388.12 284.96 383.87 282.51 379.42 260.61 388.12 255.59 396.81 260.61" style="fill:#263238"></polygon><polygon points="388.12 284.96 388.12 265.63 396.81 260.61 392.4 282.49 388.12 284.96" style="fill:#455a64"></polygon><polygon points="396.81 260.61 393.96 274.74 388.12 278.12 382.29 274.75 379.42 260.61 388.12 255.59 396.81 260.61" style="opacity:0.05"></polygon><polygon points="358.58 238.54 354.17 260.41 349.88 262.89 345.63 260.43 341.19 238.54 349.88 233.52 358.58 238.54" style="fill:#e0e0e0"></polygon><polygon points="358.58 238.54 354.17 260.41 349.88 262.89 345.63 260.43 341.19 238.54 349.88 233.52 358.58 238.54" style="fill:#263238"></polygon><polygon points="349.88 262.89 349.88 243.56 358.58 238.54 354.17 260.41 349.88 262.89" style="fill:#455a64"></polygon><polygon points="358.58 238.54 355.73 252.66 349.88 256.04 344.06 252.68 341.19 238.54 349.88 233.52 358.58 238.54" style="opacity:0.05"></polygon><polygon points="457 225.81 452.59 247.68 448.31 250.15 444.06 247.7 439.61 225.81 448.31 220.78 457 225.81" style="fill:#e0e0e0"></polygon><polygon points="457 225.81 452.59 247.68 448.31 250.15 444.06 247.7 439.61 225.81 448.31 220.78 457 225.81" style="fill:#263238"></polygon><polygon points="448.31 250.15 448.31 230.82 457 225.81 452.59 247.68 448.31 250.15" style="fill:#455a64"></polygon><polygon points="457 225.81 454.15 239.93 448.31 243.31 442.48 239.94 439.61 225.81 448.31 220.78 457 225.81" style="opacity:0.05"></polygon><g id="freepik--Cabinet--inject-45"><g id="freepik--cabinet--inject-45"><polygon points="388.12 274.58 340.73 247.23 340.73 163.6 388.12 190.96 388.12 274.58" style="fill:#263238"></polygon><polygon points="388.12 190.96 459.47 149.71 459.47 233.34 388.12 274.58 388.12 190.96" style="fill:#37474f"></polygon><polygon points="459.47 149.71 388.12 190.96 340.73 163.6 412.08 122.35 459.47 149.71" style="fill:#455a64"></polygon><polygon points="394.88 232.3 452.7 198.86 453.94 199.58 453.94 227.76 396.13 261.19 394.88 260.47 394.88 232.3" style="fill:#263238"></polygon><polygon points="396.13 233.02 453.94 199.58 453.94 227.76 396.13 261.19 396.13 233.02" style="fill:#455a64"></polygon><path d="M419.81,226.83l9.21-5.32c1.19-.69,2.16-.37,2.16.71a4.33,4.33,0,0,1-2.16,3.2l-9.21,5.32c-1.2.69-2.17.37-2.17-.71A4.32,4.32,0,0,1,419.81,226.83Z" style="fill:#37474f"></path><polygon points="394.88 196.32 452.7 162.88 453.94 163.6 453.94 191.78 396.13 225.21 394.88 224.49 394.88 196.32" style="fill:#263238"></polygon><polygon points="396.13 197.04 453.94 163.6 453.94 191.78 396.13 225.21 396.13 197.04" style="fill:#455a64"></polygon><path d="M419.81,190.85l9.21-5.32c1.19-.69,2.16-.37,2.16.71a4.35,4.35,0,0,1-2.16,3.2l-9.21,5.32c-1.2.69-2.17.37-2.17-.71A4.32,4.32,0,0,1,419.81,190.85Z" style="fill:#37474f"></path></g></g></g><g id="freepik--Book--inject-45"><path d="M443.09,92.69v1.09s-.43-.38-.45-.66S443.09,92.69,443.09,92.69Z"></path><path d="M442.25,92.43a1.15,1.15,0,0,0,.85,1.46c1.19.37,1.94,0,2.11.33s-5.65,3.7-5.65,3.7l1.11-4.83Z" style="fill:#4D4D4D"></path><path d="M442.25,92.43a1.15,1.15,0,0,0,.85,1.46c1.19.37,1.94,0,2.11.33s-5.65,3.7-5.65,3.7l1.11-4.83Z" style="opacity:0.30000000000000004"></path><path d="M441.66,144.93V145l-.58-.34-24.41-14V79.49c0-.69.38-1,.85-.76l.85.49,23.38,13.49,0,.21Z" style="fill:#4D4D4D"></path><path d="M441.66,144.93V145l-.58-.34-24.41-14V79.49c0-.69.38-1,.85-.76l.85.49,23.38,13.49,0,.21Z" style="opacity:0.2"></path><path d="M436.66,99.26l-1.23-1.39,6.28-3.62c1,.71,1.67,1.1,2.52.74Z" style="fill:#455a64"></path><path d="M441.39,93.51,418.23,80.14a1.61,1.61,0,0,0-1.45,0l-6.19,3.57,23.48,13.44a2.16,2.16,0,0,1,1.71.3c.69.55.65-.15.65-.15l5.28-3C441.28,93.67,441.39,93.51,441.39,93.51Z" style="fill:#f5f5f5"></path><path d="M436.2,99c-.23-.14-.34-.3-.22-.37l.19-.11c.22-.13,0-.45-.45-.72a1.61,1.61,0,0,0-1.26-.27l-.19.11c-.12.07-.53-.07-.93-.3l.15,51.5.58.33a.5.5,0,0,0,.34,0l.2-.11a1.6,1.6,0,0,1,1.25.26c.47.28.67.6.46.73l-.2.11c-.11.07,0,.23.23.36Z" style="fill:#4D4D4D"></path><path d="M436.2,99c-.23-.14-.34-.3-.22-.37l.19-.11c.22-.13,0-.45-.45-.72a1.61,1.61,0,0,0-1.26-.27l-.19.11c-.12.07-.53-.07-.93-.3l.15,51.5.58.33a.5.5,0,0,0,.34,0l.2-.11a1.6,1.6,0,0,1,1.25.26c.47.28.67.6.46.73l-.2.11c-.11.07,0,.23.23.36Z" style="opacity:0.4"></path><path d="M434.07,149.08v.06l-.58-.33-25-14.44V84.22c0-.7.38-1,.85-.77l.85.49,23.89,13.21Z" style="fill:#4D4D4D"></path><path d="M434.07,149.08v.06l-.58-.33-25-14.44V84.22c0-.7.38-1,.85-.77l.85.49,23.89,13.21Z" style="opacity:0.2"></path><path d="M435.93,150.22V98.67l1.55.63v51.4a1.41,1.41,0,0,1-.85-.08Z" style="fill:#4D4D4D"></path><path d="M435.93,150.22V98.67l1.55.63v51.4a1.41,1.41,0,0,1-.85-.08Z" style="opacity:0.2"></path><path d="M445.84,145.71a.22.22,0,0,1,0,.08.13.13,0,0,1,0,.06.37.37,0,0,1-.05.11l0,.06a.8.8,0,0,1-.13.19,1.54,1.54,0,0,1-.17.19l-.22.19-.14.1-.12.08-.27.18-5.39,3.11a4.86,4.86,0,0,1-1.82.64V99.3l8.36-5v51.42Z" style="fill:#4D4D4D"></path><path d="M437.48,105.32v5.22a21.26,21.26,0,0,0,8.36-4.83v-5.22A21.38,21.38,0,0,1,437.48,105.32Z" style="fill:#4D4D4D"></path><path d="M437.48,105.32v5.22a21.26,21.26,0,0,0,8.36-4.83v-5.22A21.38,21.38,0,0,1,437.48,105.32Z" style="fill:#fff;opacity:0.4"></path><path d="M437.48,112.48v1.94a21.24,21.24,0,0,0,8.36-4.82v-1.95A21.38,21.38,0,0,1,437.48,112.48Z" style="fill:#4D4D4D"></path><path d="M437.48,112.48v1.94a21.24,21.24,0,0,0,8.36-4.82v-1.95A21.38,21.38,0,0,1,437.48,112.48Z" style="fill:#fff;opacity:0.4"></path><path d="M439.3,98.65l-.42-.73a3.79,3.79,0,0,1-1.79.57,1.15,1.15,0,0,0-.15-.71,2.25,2.25,0,0,0-.81-.74,3.11,3.11,0,0,0-1.22-.42h-.09a1.35,1.35,0,0,0-.75.14L411.89,84l-.75-.43-1-.56a.49.49,0,0,0-.52,0l-.85.49a.51.51,0,0,1,.53,0h0l2.54,1.47,21.45,12.38c.4.23.82.37.93.3l.2-.11a.75.75,0,0,1,.44,0,2.51,2.51,0,0,1,.8.29c.48.28.68.6.46.73l-.19.11c-.12.07,0,.23.22.37l.43.24A3.45,3.45,0,0,0,439.3,98.65Z" style="fill:#4D4D4D"></path><path d="M439.3,98.65l-.42-.73a3.79,3.79,0,0,1-1.79.57,1.15,1.15,0,0,0-.15-.71,2.25,2.25,0,0,0-.81-.74,3.11,3.11,0,0,0-1.22-.42h-.09a1.35,1.35,0,0,0-.75.14L411.89,84l-.75-.43-1-.56a.49.49,0,0,0-.52,0l-.85.49a.51.51,0,0,1,.53,0h0l2.54,1.47,21.45,12.38c.4.23.82.37.93.3l.2-.11a.75.75,0,0,1,.44,0,2.51,2.51,0,0,1,.8.29c.48.28.68.6.46.73l-.19.11c-.12.07,0,.23.22.37l.43.24A3.45,3.45,0,0,0,439.3,98.65Z" style="opacity:0.30000000000000004"></path><path d="M438.88,97.92l5.39-3.11.22-.13.17-.13h0a2.43,2.43,0,0,1-2-.31,2.06,2.06,0,0,1-.78-.73,1.12,1.12,0,0,1-.14-.79l-.07,0-.15-.08L420.07,80.2l-1.23-.71-.35-.2-1-.6a.5.5,0,0,0-.46,0l.23-.13.62-.36a.46.46,0,0,1,.43,0h0l.39.22.24.14.41.23.26.15.18.11.31.18,17,9.84,5.44,3.14c.39.22.62.45.52.53l0,0-.19.11c-.24.14,0,.47.43.74a1.12,1.12,0,0,0,1.08.15l.23-.13a.4.4,0,0,1,.34,0l.12.07.27.16.33.19a.32.32,0,0,1,.18.38.07.07,0,0,1,0,.06.31.31,0,0,1-.05.12h0a.33.33,0,0,1,0,.06.75.75,0,0,1-.13.18,1.54,1.54,0,0,1-.17.19l-.22.19-.14.11-.11.08-.28.17-5.39,3.11Z" style="fill:#4D4D4D"></path><path d="M438.88,97.92l5.39-3.11.22-.13.17-.13h0a2.43,2.43,0,0,1-2-.31,2.06,2.06,0,0,1-.78-.73,1.12,1.12,0,0,1-.14-.79l-.07,0-.15-.08L420.07,80.2l-1.23-.71-.35-.2-1-.6a.5.5,0,0,0-.46,0l.23-.13.62-.36a.46.46,0,0,1,.43,0h0l.39.22.24.14.41.23.26.15.18.11.31.18,17,9.84,5.44,3.14c.39.22.62.45.52.53l0,0-.19.11c-.24.14,0,.47.43.74a1.12,1.12,0,0,0,1.08.15l.23-.13a.4.4,0,0,1,.34,0l.12.07.27.16.33.19a.32.32,0,0,1,.18.38.07.07,0,0,1,0,.06.31.31,0,0,1-.05.12h0a.33.33,0,0,1,0,.06.75.75,0,0,1-.13.18,1.54,1.54,0,0,1-.17.19l-.22.19-.14.11-.11.08-.28.17-5.39,3.11Z" style="opacity:0.30000000000000004"></path></g><g id="freepik--book--inject-45"><path d="M430.69,103.78v1.1s-.42-.39-.45-.66S430.69,103.78,430.69,103.78Z"></path><path d="M429.85,103.52a1.15,1.15,0,0,0,.85,1.46c1.19.37,1.94,0,2.11.33s-4.13,2.82-4.13,2.82l-.41-3.95Z" style="fill:#4D4D4D"></path><path d="M429.85,103.52a1.15,1.15,0,0,0,.85,1.46c1.19.37,1.94,0,2.11.33s-4.13,2.82-4.13,2.82l-.41-3.95Z" style="opacity:0.30000000000000004"></path><path d="M429.26,150.78v.07l-.58-.34-24.42-14.09V90.58c0-.69.38-1,.85-.76l.85.49,23.38,13.5,0,.2Z" style="fill:#4D4D4D"></path><path d="M429.26,150.78v.07l-.58-.34-24.42-14.09V90.58c0-.69.38-1,.85-.76l.85.49,23.38,13.5,0,.2Z" style="opacity:0.2"></path><path d="M425.77,109.47l-1.22-1.38,4.76-2.75c.95.72,1.67,1.1,2.52.74Z" style="fill:#455a64"></path><path d="M430.51,103.73,407.35,90.36c-1.92.64-2.57.64-3,.87l-4.68,2.7,23.49,13.44a2.16,2.16,0,0,1,1.7.29c.7.56.66-.15.66-.15l3.76-2.17C428.88,104.76,430.51,103.73,430.51,103.73Z" style="fill:#f5f5f5"></path><path d="M425.32,109.19c-.24-.14-.34-.3-.23-.37l.2-.11c.22-.13,0-.45-.46-.73a1.6,1.6,0,0,0-1.25-.26l-.19.11a1.59,1.59,0,0,1-.93-.3l.14,47.88.59.33a.51.51,0,0,0,.34,0l.2-.11a1.61,1.61,0,0,1,1.25.26c.47.27.67.6.45.72l-.19.12c-.12.06,0,.22.23.36Z" style="fill:#4D4D4D"></path><path d="M425.32,109.19c-.24-.14-.34-.3-.23-.37l.2-.11c.22-.13,0-.45-.46-.73a1.6,1.6,0,0,0-1.25-.26l-.19.11a1.59,1.59,0,0,1-.93-.3l.14,47.88.59.33a.51.51,0,0,0,.34,0l.2-.11a1.61,1.61,0,0,1,1.25.26c.47.27.67.6.45.72l-.19.12c-.12.06,0,.22.23.36Z" style="fill:#fff;opacity:0.25"></path><path d="M423.19,155.67v.07l-.58-.34L397.6,141V94.43c0-.69.38-1,.85-.76l.85.49,23.89,13.21Z" style="fill:#4D4D4D"></path><path d="M423.19,155.67v.07l-.58-.34L397.6,141V94.43c0-.69.38-1,.85-.76l.85.49,23.89,13.21Z" style="fill:#fff;opacity:0.4"></path><path d="M425.05,156.82V108.89l1.55.63V157.3a1.54,1.54,0,0,1-.86-.08Z" style="fill:#4D4D4D"></path><path d="M425.05,156.82V108.89l1.55.63V157.3a1.54,1.54,0,0,1-.86-.08Z" style="fill:#fff;opacity:0.4"></path><path d="M433.44,153.18a.22.22,0,0,1,0,.08.13.13,0,0,1,0,.06.37.37,0,0,1-.05.11s0,0,0,.06a.8.8,0,0,1-.13.19,1.54,1.54,0,0,1-.17.19l-.22.19a.71.71,0,0,1-.14.1.5.5,0,0,1-.12.08l-.27.18-3.87,2.24a5.38,5.38,0,0,1-1.82.64V109.52l6.84-4.14v47.79Z" style="fill:#4D4D4D"></path><g style="opacity:0.7000000000000001"><path d="M433.44,153.18a.22.22,0,0,1,0,.08.13.13,0,0,1,0,.06.37.37,0,0,1-.05.11s0,0,0,.06a.8.8,0,0,1-.13.19,1.54,1.54,0,0,1-.17.19l-.22.19a.71.71,0,0,1-.14.1.5.5,0,0,1-.12.08l-.27.18-3.87,2.24a5.38,5.38,0,0,1-1.82.64V109.52l6.84-4.14v47.79Z" style="fill:#fff"></path></g><path d="M426.6,113.11v5.22c3.34-1.13,4.69-1.8,6.84-4v-5.22C431.29,111.31,429.94,112,426.6,113.11Z" style="fill:#fafafa"></path><path d="M426.6,146.66v5.22c3.34-1.13,4.69-1.8,6.84-3.95v-5.22C431.29,144.86,429.94,145.52,426.6,146.66Z" style="fill:#fafafa"></path><path d="M428.42,108.87l-.42-.73a4,4,0,0,1-1.79.57,1.15,1.15,0,0,0-.15-.71,2.25,2.25,0,0,0-.81-.74,3.11,3.11,0,0,0-1.22-.42s-.07,0-.09,0a1.35,1.35,0,0,0-.75.14L401,94.17l-.76-.43-1-.56a.52.52,0,0,0-.52,0l-.85.5a.51.51,0,0,1,.53,0h0L401,95.15l21.45,12.38c.4.23.81.37.93.3l.19-.11a.65.65,0,0,1,.45,0,2.36,2.36,0,0,1,.8.29c.48.28.68.6.46.73l-.2.11c-.11.07,0,.23.23.36l.43.25A3.46,3.46,0,0,0,428.42,108.87Z" style="fill:#4D4D4D"></path><path d="M428.42,108.87l-.42-.73a4,4,0,0,1-1.79.57,1.15,1.15,0,0,0-.15-.71,2.25,2.25,0,0,0-.81-.74,3.11,3.11,0,0,0-1.22-.42s-.07,0-.09,0a1.35,1.35,0,0,0-.75.14L401,94.17l-.76-.43-1-.56a.52.52,0,0,0-.52,0l-.85.5a.51.51,0,0,1,.53,0h0L401,95.15l21.45,12.38c.4.23.81.37.93.3l.19-.11a.65.65,0,0,1,.45,0,2.36,2.36,0,0,1,.8.29c.48.28.68.6.46.73l-.2.11c-.11.07,0,.23.23.36l.43.25A3.46,3.46,0,0,0,428.42,108.87Z" style="fill:#fff;opacity:0.6000000000000001"></path><path d="M428,108.14l3.87-2.23.22-.14.17-.12,0,0a2.37,2.37,0,0,1-2-.31,2,2,0,0,1-.79-.72,1.13,1.13,0,0,1-.14-.79l-.07,0-.15-.08L407.67,91.29l-1.23-.71-.35-.2-1-.6a.5.5,0,0,0-.46,0l.23-.13.62-.36a.46.46,0,0,1,.43,0h0l.39.22.24.14.41.24.26.15.18.1.31.18,17,9.84,5.44,3.14c.39.22.62.45.52.53l0,0-.19.11c-.23.13,0,.46.43.73a1.15,1.15,0,0,0,1.08.16l.23-.14a.4.4,0,0,1,.34,0l.12.08.27.15.34.19a.33.33,0,0,1,.17.39s0,0,0,0a.31.31,0,0,1-.05.12h0s0,0,0,.06l-.14.19-.17.19-.22.18-.14.11-.11.08a2.61,2.61,0,0,1-.28.17l-3.87,2.24Z" style="fill:#4D4D4D"></path><path d="M428,108.14l3.87-2.23.22-.14.17-.12,0,0a2.37,2.37,0,0,1-2-.31,2,2,0,0,1-.79-.72,1.13,1.13,0,0,1-.14-.79l-.07,0-.15-.08L407.67,91.29l-1.23-.71-.35-.2-1-.6a.5.5,0,0,0-.46,0l.23-.13.62-.36a.46.46,0,0,1,.43,0h0l.39.22.24.14.41.24.26.15.18.1.31.18,17,9.84,5.44,3.14c.39.22.62.45.52.53l0,0-.19.11c-.23.13,0,.46.43.73a1.15,1.15,0,0,0,1.08.16l.23-.14a.4.4,0,0,1,.34,0l.12.08.27.15.34.19a.33.33,0,0,1,.17.39s0,0,0,0a.31.31,0,0,1-.05.12h0s0,0,0,.06l-.14.19-.17.19-.22.18-.14.11-.11.08a2.61,2.61,0,0,1-.28.17l-3.87,2.24Z" style="fill:#fff;opacity:0.6000000000000001"></path></g><g id="freepik--pot--inject-45"><path id="freepik--shadow--inject-45" d="M402.77,149.92c5.67,3.27,5.67,8.58,0,11.86s-14.87,3.27-20.54,0-5.68-8.59,0-11.86S397.1,146.64,402.77,149.92Z" style="fill:#37474f"></path><path d="M383.26,158.18c-4.94-5-7.84-17.63-3-21.63h24.52c4.81,4,1.91,16.58-3,21.62l-.14.14-.17.17c-.14.13-.29.27-.44.39l-.12.1c-.12.09-.24.19-.38.28a7.49,7.49,0,0,1-.63.41,16.31,16.31,0,0,1-14.72,0h0a6.29,6.29,0,0,1-.64-.41c-.13-.09-.24-.18-.35-.27l-.15-.11-.43-.38-.19-.2Z" style="fill:#f5f5f5"></path><path d="M402.63,134.63c5.59,3.23,5.59,8.47,0,11.7s-14.67,3.23-20.26,0-5.6-8.47,0-11.7S397,131.4,402.63,134.63Z" style="fill:#fff"></path><path d="M398.66,136.92c3.4,2,3.4,5.15,0,7.12a13.64,13.64,0,0,1-12.32,0c-3.41-2-3.41-5.15,0-7.12A13.64,13.64,0,0,1,398.66,136.92Z" style="fill:#ebebeb"></path><path d="M386.34,140.3a13.64,13.64,0,0,1,12.32,0,5.67,5.67,0,0,1,2,1.87,5.67,5.67,0,0,1-2,1.87,13.64,13.64,0,0,1-12.32,0,5.67,5.67,0,0,1-2-1.87A5.67,5.67,0,0,1,386.34,140.3Z" style="fill:#e0e0e0"></path><path d="M397.91,142.17a28.08,28.08,0,0,0,4.46-5.93c2.06-3.64,2.44-8.51,1.37-9.11s-5.39,4.26-5.39,4.26a26.69,26.69,0,0,0,.45-6.22c-.18-3.24-1-6.18-1.9-6.78s-3,3.5-3.9,6.46-1.42,5.4-1.42,5.4a46.05,46.05,0,0,0-1.6-6.82c-1.08-3.08-2.06-3.77-2.82-3.47s-1.26,1.74-1.48,5.84a40.23,40.23,0,0,0,.18,5.87s-1.53-1.68-3.22-3.31c-1.86-1.79-2.66-2-3.19-1.7s-.68,3.13,2.2,8.34a29.09,29.09,0,0,0,5.45,7.17S391.09,144.74,397.91,142.17Z" style="fill:#4D4D4D"></path></g></g></g><g id="freepik--Shoes--inject-45"><g id="freepik--Slippers--inject-45"><path d="M341.79,404.37c-4.92-5.55-10.27-7.21-18.53-10.71s-13.1-7.61-18.46-10.36c-4.53-2.32-8.85-3.45-14.09-.91-2.85,1.38-4.07,3-4.07,4.81,0,.52,0,2.64,0,3.19.07,2,1.61,4.08,4.07,6.13,4.77,4,12.19,6,15.62,9.84s8.36,11,19.63,11c9.15,0,17.12-2.89,17.16-6.95v-3A4.52,4.52,0,0,0,341.79,404.37Z" style="fill:#37474f"></path><path d="M290.71,382.39c-6.1,3-4.76,7.15,0,11.11s12.19,6,15.62,9.85S314.69,414.3,326,414.3s20.75-4.37,15.83-9.93-10.27-7.21-18.53-10.71-13.1-7.61-18.46-10.36C300.27,381,296,379.85,290.71,382.39Z" style="fill:#455a64"></path><path d="M375.65,391.13c-2.21-7.34-9.68-8.95-16.28-10.94s-10.17-6.26-17.05-9-14.12-3.53-19.25,0c-1.82,1.25-2.55,2.42-2.49,3.54,0,.47,0,2.46,0,3,.05,1.59,1.69,3.09,4.06,4.63,4.78,3.1,11.91,5.9,18,10.66s11.75,10,18.68,11.5c7.26,1.57,14.67-3.07,14.62-8.58,0-.47,0-2.61,0-3.23A6,6,0,0,0,375.65,391.13Z" style="fill:#37474f"></path><path d="M323.07,371.18c5.13-3.53,12.38-2.75,19.25,0s10.45,7,17.05,9,14.07,3.6,16.28,10.94c1.88,6.23-6.34,12.07-14.37,10.34-6.93-1.5-12.63-6.73-18.68-11.5s-13.18-7.57-18-10.66C320.62,376.7,318.67,374.2,323.07,371.18Z" style="fill:#455a64"></path><path d="M344.78,390.85c-.58-10.13,10-18.11,16.28-14.66,8.22,4.54,13.14,8.38,13.81,12.49s0,6.05-.09,6.34c-1.13,2-5.51,7.05-13.43,5.49S348.39,393.4,344.78,390.85Z" style="fill:#4D4D4D"></path><path d="M309.36,405.43c-.57-10.14,10.91-18.47,17.22-15,8.22,4.54,14.79,8.65,15.46,12.76s.43,4.64.3,4.94c-2.13,3.75-10.86,5.91-18.89,5.15S312.18,408.44,309.36,405.43Z" style="fill:#4D4D4D"></path></g></g><g id="freepik--Character--inject-45"><g id="freepik--Sofa--inject-45"><path d="M196.07,455a2.25,2.25,0,0,1-2.25-2.1l-3.3-47c-.18-2.44-1.47-4.75-2.56-5.38L91.13,344.58l0,0a3.3,3.3,0,0,0-.27,1.17l-3.31,43.19a2.25,2.25,0,0,1-4.49-.35l3.31-43.18c.18-2.35,1.14-4.1,2.71-4.93a4.42,4.42,0,0,1,4.34.21l96.82,55.91c2.56,1.48,4.53,5.17,4.8,9l3.31,47a2.25,2.25,0,0,1-2.09,2.4Z" style="fill:#263238"></path><path d="M393.38,340.84a2.26,2.26,0,0,1-2.25-2.1l-3.3-47c-.18-2.44-1.46-4.75-2.56-5.38l-96.83-55.91,0,0a3.25,3.25,0,0,0-.28,1.17l-3.3,43.19c-.1,1.24,13.7,9.76,12.45,9.68s-17-8.79-17-10l3.31-43.18c.18-2.35,1.14-4.11,2.71-4.94a4.42,4.42,0,0,1,4.34.23l96.82,55.9c2.56,1.48,4.54,5.17,4.8,9l3.31,47a2.24,2.24,0,0,1-2.09,2.4Z" style="fill:#263238"></path><path d="M188.12,400.87,90.33,344.41c-2.62-1.51-4.12-3.75-4.12-6.15s1.5-4.64,4.12-6.15L296.94,212.83a17.92,17.92,0,0,1,16.45,0l97.79,56.46c2.62,1.51,4.12,3.76,4.12,6.16s-1.5,4.64-4.12,6.15L204.57,400.87a17.91,17.91,0,0,1-16.45,0ZM299.36,217,92.76,336.32c-1,.6-1.69,1.34-1.69,1.94s.65,1.34,1.69,1.95l97.79,56.46a13,13,0,0,0,11.59,0L408.75,277.38c1-.6,1.69-1.35,1.69-1.94s-.65-1.35-1.69-1.95L311,217h0a13,13,0,0,0-11.6,0Zm12.8-2.1h0Z" style="fill:#455a64"></path><path d="M368.9,250.11a2.31,2.31,0,0,0,2.26-1.83l9.41-43.07a2.31,2.31,0,1,0-4.52-1l-9.41,43.07a2.31,2.31,0,0,0,1.77,2.76A2.05,2.05,0,0,0,368.9,250.11Z" style="fill:#37474f"></path><path d="M344.69,236.13a2.31,2.31,0,0,0,2.26-1.82l9.42-43.08a2.32,2.32,0,0,0-4.53-1l-9.41,43.08a2.31,2.31,0,0,0,1.77,2.75A2.05,2.05,0,0,0,344.69,236.13Z" style="fill:#37474f"></path><path d="M316.09,179a2.36,2.36,0,0,1,1.39-1.93l12.13-7a7.43,7.43,0,0,1,6.69,0L404,209.17a2.34,2.34,0,0,1,1.38,1.93v3.62a2.34,2.34,0,0,1-1.38,1.93l-12.14,7a7.35,7.35,0,0,1-6.68,0l-67.71-39.09a2.36,2.36,0,0,1-1.39-1.93Z" style="fill:#37474f"></path><path d="M317.48,177.09l12.13-7a7.43,7.43,0,0,1,6.69,0l52.23,30.16v24.22a6.85,6.85,0,0,1-3.34-.8l-67.71-39.09a2.36,2.36,0,0,1-1.39-1.93V179A2.36,2.36,0,0,1,317.48,177.09Z" style="fill:#263238"></path><path d="M336.3,170.08,404,209.17a2,2,0,0,1,0,3.86l-12.14,7a7.41,7.41,0,0,1-6.68,0L317.48,181a2,2,0,0,1,0-3.86l12.13-7A7.43,7.43,0,0,1,336.3,170.08Z" style="fill:#455a64"></path><path d="M96.57,318.5,307,197a2.48,2.48,0,0,1,2.48.25l95.15,54.95a7.77,7.77,0,0,1,3.5,6.07V272.9a2.46,2.46,0,0,1-1,2.27L196.68,396.71a2.48,2.48,0,0,1-2.48-.25L99.05,341.51a7.75,7.75,0,0,1-3.51-6.07V320.77A2.44,2.44,0,0,1,96.57,318.5Z" style="fill:#4D4D4D"></path><path d="M196.68,396.7,407.14,275.17a2.47,2.47,0,0,0,1-2.26V258.24a7.39,7.39,0,0,0-1.18-3.7L196.53,376.07a7.27,7.27,0,0,1,1.17,3.69v14.67A2.46,2.46,0,0,1,196.68,396.7Z" style="opacity:0.15"></path><path d="M197.7,394.44V379.77a7.77,7.77,0,0,0-3.5-6.08L99,318.74a2.14,2.14,0,0,0-3.5,2v14.67a7.75,7.75,0,0,0,3.51,6.07l95.15,54.95a2.13,2.13,0,0,0,3.5-2Z" style="opacity:0.25"></path><path d="M90.27,238.68,287.59,124.76a2.27,2.27,0,0,1,2.2.32l12.72,7.34a9.83,9.83,0,0,1,4.19,6l11.77,68c.2,1.16-.05,1.95-.61,2.28L120.54,322.6a2.24,2.24,0,0,1-2.2-.31l-12.72-7.35a9.8,9.8,0,0,1-4.19-6L89.65,241C89.45,239.8,89.71,239,90.27,238.68Z" style="fill:#4D4D4D"></path><path d="M121.16,320.32c.19,1.17,0,1.95-.62,2.29L317.86,208.67c.57-.32.81-1.11.62-2.26l-11.77-68a9.09,9.09,0,0,0-1.58-3.48L107.82,248.87a9,9,0,0,1,1.57,3.48Z" style="opacity:0.15"></path><path d="M118.34,322.29l-12.72-7.35a9.8,9.8,0,0,1-4.19-6L89.65,241c-.2-1.16.06-2,.62-2.28a2.27,2.27,0,0,1,2.2.32l12.72,7.34a9.84,9.84,0,0,1,4.2,6l11.77,68c.2,1.16-.06,1.95-.62,2.28A2.24,2.24,0,0,1,118.34,322.29Z" style="opacity:0.25"></path><path d="M148.13,377.44a2.38,2.38,0,0,0,.65-.1,2.31,2.31,0,0,0,1.58-2.87l-9.42-32.22a2.32,2.32,0,1,0-4.45,1.3l9.42,32.22A2.32,2.32,0,0,0,148.13,377.44Z" style="fill:#37474f"></path><path d="M123.91,363.45a2.37,2.37,0,0,0,.65-.09,2.32,2.32,0,0,0,1.58-2.88l-9.42-32.22a2.32,2.32,0,0,0-4.45,1.3l9.42,32.22A2.32,2.32,0,0,0,123.91,363.45Z" style="fill:#37474f"></path><path d="M86.18,311.59a2.34,2.34,0,0,1,1.38-1.93l12.14-7a7.43,7.43,0,0,1,6.69,0l67.73,39.11a2.36,2.36,0,0,1,1.39,1.93v3.62a2.36,2.36,0,0,1-1.39,1.93l-12.14,7a7.37,7.37,0,0,1-6.69,0l-67.73-39.1a2.37,2.37,0,0,1-1.38-1.93Z" style="fill:#37474f"></path><path d="M87.56,309.66l12.14-7a7.43,7.43,0,0,1,6.69,0l52.25,30.17v24.23a6.91,6.91,0,0,1-3.35-.8l-67.73-39.1a2.37,2.37,0,0,1-1.38-1.93v-3.63A2.34,2.34,0,0,1,87.56,309.66Z" style="fill:#263238"></path><path d="M106.39,302.65l67.73,39.11a2,2,0,0,1,0,3.86l-12.14,7a7.43,7.43,0,0,1-6.69,0L87.56,313.52a2,2,0,0,1,0-3.86l12.14-7A7.43,7.43,0,0,1,106.39,302.65Z" style="fill:#455a64"></path></g><g id="freepik--character--inject-45"><path d="M372.05,246.83a70.37,70.37,0,0,0-37.18,4.68,134.87,134.87,0,0,0-14.73,7.6,198.31,198.31,0,0,0-18.43,11.42c-8.32,6-15.76,13.21-24.39,18.81-7.92,5.12-17.89,10.31-27.3,6.39-7.08-3-12.78-10.22-18.54-15-3.75-3.13-6.73-8.16-9.7-12-3.15-4.08-14.73-43.26-25.77-57.21-6.42-8.12-25.57-19.07-25.57-19.07L122.2,220.25l9,6.91a14.76,14.76,0,0,1,3.33,3.17c1.49,2.18,1.71,5,1.88,7.6q1.78,26.93,5,53.74c.49,4.08,1.27,8.14,1.74,12.23a20.46,20.46,0,0,0,2.25,8.18,14,14,0,0,0,1.25,1.81,27.89,27.89,0,0,0,3.32,3.29,138.46,138.46,0,0,0,20.1,14.59,251,251,0,0,0,22.35,11.72c6.72,3.14,13.56,6.19,20.82,7.71,9.38,2,20,1,28-4.48a55.73,55.73,0,0,0,8.43-6.89c2-2.13,3.14-4.87,5.07-7.06,3.7-4.2,8.75-4.23,14-4.94,19-2.6,31.29-16.13,44.74-28.27a81.27,81.27,0,0,1,16.67-11.71c4.05-2.13,8.31-3.92,12.06-6.55s7-6.25,8.12-10.7c.42-1.75.51-3.64,1.42-5.2,1.52-2.6,4.77-3.47,7.61-4.43a41.5,41.5,0,0,0,15.43-9.36,3.35,3.35,0,0,0,1.09-1.58C376.29,248.2,373.91,247.11,372.05,246.83Z" style="opacity:0.2"></path><g id="freepik--Bottom--inject-45"><path d="M341.35,270.9l-.32.19a56.92,56.92,0,0,1-7.21,3.69A30,30,0,0,0,327.3,278c-9.95,7.49-17,10.1-27.62,24.79,0,0-15.28-12-16.71-13.07,0,0,7.92-4.83,7.46-8.6a9.24,9.24,0,0,1,1.81-6.63c1.38-1.63,3.59-2.53,6.71-3.61a54.15,54.15,0,0,0,7.89-3.12,22.77,22.77,0,0,0,3.65-2.44,31.63,31.63,0,0,1,9.89-5.75,22.36,22.36,0,0,1,8.77-.81,30.27,30.27,0,0,1,5.27.83c1.38.34,3.36.62,4.25,1.83a3.42,3.42,0,0,0,.4.52,2.31,2.31,0,0,0,1.38.37,5.54,5.54,0,0,1,2.91,1.06,3.75,3.75,0,0,1,1.49,2.66,4.23,4.23,0,0,1-1.18,3A10,10,0,0,1,341.35,270.9Z" style="fill:#f28f8f"></path><path d="M217.2,255c5.82,4.09,19,9.22,28.77,14.35,16.32,8.56,31.75,16.66,38.9,24.67,6.19,6.95,12,20-5.37,24.85-9.9,2.76-34.17-.84-45.12-5.33l-25.52-15.72Z" style="fill:#37474f"></path><path d="M366.71,249.84l-.34.15a59.09,59.09,0,0,1-7.63,2.7,29.19,29.19,0,0,0-6.89,2.34c-10.86,6.09-18.19,7.75-30.68,20.89,0,0-13.55-13.91-14.82-15.18,0,0,8.48-3.72,8.54-7.52a9.18,9.18,0,0,1,2.67-6.33c1.58-1.44,3.89-2,7.13-2.7a52.65,52.65,0,0,0,8.23-2,22.88,22.88,0,0,0,3.95-1.92,31.56,31.56,0,0,1,10.56-4.39,22.56,22.56,0,0,1,8.81.36,30.62,30.62,0,0,1,5.11,1.53c1.32.52,3.24,1.06,4,2.38a3.25,3.25,0,0,0,.33.57,2.35,2.35,0,0,0,1.31.55,5.53,5.53,0,0,1,2.75,1.43,3.8,3.8,0,0,1,1.12,2.84,4.23,4.23,0,0,1-1.57,2.84A9.89,9.89,0,0,1,366.71,249.84Z" style="fill:#ffa8a7"></path><path d="M286.86,315.49c10.05-7.1,36-40.71,36-40.71,1-4.53-1.66-8.67-4.79-11.63-5.22-4.94-9.54-3.95-9.54-3.95-3.66,2.37-7.24,3.78-16.74,8.27-8,3.77-20.59,10.15-25.58,18.87S286.86,315.49,286.86,315.49Z" style="fill:#37474f"></path><path d="M269.28,282.17C278.48,287,282,292,282,292s-3.25-8.89-10.73-11.74A21.14,21.14,0,0,0,269.28,282.17Z" style="fill:#263238"></path><path d="M147.74,274.62c-4.52,24,6,40.19,22.63,49.81,20.55,11.87,30.2,15.19,43.35,18.66,13.86,3.65,31.79,2.18,39.47-5.31,7.14-6.95,1.11-14.56-.88-18.89-4.87-10.6-41.9-28.64-41.9-28.64,4.89-13.09,7.72-22.78,6.32-33.44Z" style="fill:#455a64"></path><path d="M250,340.21c9.13-5.41,26.08-20.66,26.08-20.66-4.2-.08-6.79-2.08-12.22-5.5-6.45-4.06-10.42-5.72-20.28-4.18C243.6,309.87,242.58,344.62,250,340.21Z" style="fill:#455a64"></path><path d="M243.6,309.87a22.54,22.54,0,0,1,6.34,5.8c-1.27-3.81-2.42-5-5.09-6.95Z" style="fill:#37474f"></path><path d="M217.82,294.05C209,289,195.67,289,185.36,292.47c2.41-4.11,15.21-7.47,27.34-5.3A17,17,0,0,1,217.82,294.05Z" style="fill:#37474f"></path><path d="M155.87,282.74l1.61-.16c1.63,16.63,4.92,25.53,12.79,33.2,6.53-4.51,5.4-12,3.24-17.64a71.24,71.24,0,0,1-4.14-17.9l1.61-.13a71.4,71.4,0,0,0,4,17.45c3.28,8.49,2,15.31-3.53,19.35.86.78,1.75,1.56,2.71,2.32,9.35,7.45,32.62,21.86,56.5,25.74a62.35,62.35,0,0,1-10-.54c-20.57-5.62-39.29-17.41-47.48-23.93C162,311.59,157.8,302.42,155.87,282.74Z" style="fill:#37474f"></path></g><g id="freepik--Top--inject-45"><path d="M159,135.12c-5.13,1.22-10,8.72-9.78,17.92.3,11.08-4.94,15.1-5.62,21.33-1.08,9.73,3.23,13,9.39,14.36-2.68-5.16-.1-8.25-.1-8.25s-1,6.89,4,9.56,13,1.78,16.59.68c6.83-2.09,9-4.73,9-4.73s5.21,4.24,14.41,1.5,13-12.7,7.78-18.66-21-36.16-21-36.16Z" style="fill:#263238"></path><path d="M192.1,183.93c9.76.69,15.07,2.8,26.94,20.64,7.7,11.58,24.67,37.89,24.67,37.89l-19.22,12.61L196,214.45Z" style="fill:#ffa8a7"></path><g id="freepik--Chest--inject-45"><path d="M215.71,234c8-10.33,2.47-21.89-.43-26.38-9-13.92-23.18-23.65-23.18-23.65A118.52,118.52,0,0,0,177,185.14c-7,1-25.85,7.87-25.85,7.87,5.6,5.66,7.34,11.6,7,17.64a27.53,27.53,0,0,1-10.81,21s3.92,13.81,4.84,17.4c.62,2.43-.55,7.43-1.84,12a113.35,113.35,0,0,0-3.81,19.44c14.17,12.7,73.52-6.31,73-23.43,0-3-2.83-5.44-3.82-9.14S215.17,239.92,215.71,234Z" style="fill:#fafafa"></path><path d="M195.17,236.46s-5.53,6.92-17.45,4.94-14.27-11-14.27-11S162.75,242,177,244.31C191,246.59,195.17,236.46,195.17,236.46Z" style="fill:#e0e0e0"></path></g><path d="M164,179.38s36.6-19.84,38.68-21.21c1.87-1.22,3.71-2.24,4.84-4.17,2.24-3.82,2-7.8.7-12a20.93,20.93,0,0,0-3.5-6.16c-3.74-4.81-6.85-7-12.61-8.92-9.58-3.26-21.49-2.2-29.4,4.11-7,5.57-10.28,13.58-10.26,19.86C152.52,166.49,163.22,174.18,164,179.38Z" style="fill:#263238"></path><path d="M198.1,140.19c2.47,1.22,7.32,11,5.33,27.83-1.56,13.15-6.61,15.77-9.21,16.47a21.63,21.63,0,0,1-9,.34l-.56,5.2c7.59,7.71-9.31,13.76-22.58-.12l1.41-17.18a6,6,0,0,1-7.36-1.38c-2.75-2.93-4.82-8.77-2.13-13.28a6.83,6.83,0,0,1,6.3-3c2.73.17,5.27,2,5.54,4.64.4,2.86,3.12,3.61,4.65,1.48a14.6,14.6,0,0,0,2.18-9C182.37,153,195.23,148.75,198.1,140.19Z" style="fill:#ffa8a7"></path><path d="M188,174.16a1.85,1.85,0,1,1-3.62-.79c.22-1,1-.58,2-.36S188.2,173.16,188,174.16Z" style="fill:#b16668"></path><path d="M185.25,184.83c-9.42-2.08-17.27-7.43-18.22-11.57a10.27,10.27,0,0,0,2,7c3.52,4.27,15.84,7.75,15.84,7.75Z" style="fill:#f28f8f"></path><path d="M185.35,159.6a2.18,2.18,0,1,1-4.12,1.39,1.81,1.81,0,0,1,1.29-2.46A2.09,2.09,0,0,1,185.35,159.6Z" style="fill:#263238"></path><path d="M200.35,160.36a2.18,2.18,0,1,1-4.32-.49c.13-1.24,1.19-1.7,2.38-1.56S200.48,159.12,200.35,160.36Z" style="fill:#263238"></path><path d="M189.11,157.53l.62,12.14,7.28-1.62C196.2,165.1,191.21,158.74,189.11,157.53Z" style="fill:#f28f8f"></path><path d="M200.93,156.05l-4.63-1.91a2.4,2.4,0,0,1,3.19-1.41A2.63,2.63,0,0,1,200.93,156.05Z" style="fill:#263238"></path><path d="M179.58,156.46l4.7-1.73a2.41,2.41,0,0,0-3.13-1.54A2.64,2.64,0,0,0,179.58,156.46Z" style="fill:#263238"></path><path d="M249,233.83s.06-2,2.84-3.6,6.28-2.82,7.86-7.43l3.33,2.41-7,9.42Z" style="fill:#4D4D4D"></path><path d="M249,233.83s.06-2,2.84-3.6,6.28-2.82,7.86-7.43l3.33,2.41-7,9.42Z" style="fill:#fff;opacity:0.75"></path><path d="M249,233.83s-3.68-2.34-12.34-1.46-15.83,2.44-32.09.41l4,2.87,42.57,1.89Z" style="fill:#4D4D4D"></path><path d="M249,233.83s-3.68-2.34-12.34-1.46-15.83,2.44-32.09.41l4,2.87,42.57,1.89Z" style="fill:#fff;opacity:0.75"></path><polygon points="204.6 232.78 184.48 279.92 188.45 282.79 208.58 235.66 204.6 232.78" style="fill:#4D4D4D"></polygon><polygon points="204.6 232.78 184.48 279.92 188.45 282.79 208.58 235.66 204.6 232.78" style="fill:#fff;opacity:0.8"></polygon><polygon points="204.6 232.78 184.48 279.92 188.45 282.79 208.58 235.66 204.6 232.78" style="opacity:0.1"></polygon><g style="opacity:0.1"><path d="M259.46,225.41a8.59,8.59,0,0,1-2,2.57,26.46,26.46,0,0,1-2.65,1.94,16.18,16.18,0,0,0-2.6,1.92,6,6,0,0,0-1,1.23,3.23,3.23,0,0,0-.45,1.41l-.52,0a3.41,3.41,0,0,1,.58-1.66,6.48,6.48,0,0,1,1.1-1.29,16.82,16.82,0,0,1,2.73-1.85,26.16,26.16,0,0,0,2.71-1.82A8.5,8.5,0,0,0,259.46,225.41Z"></path><path d="M258.5,228.09a7.94,7.94,0,0,1-1.48,1.53c-.54.47-1.09.91-1.61,1.38a10.87,10.87,0,0,0-1.45,1.51,4.32,4.32,0,0,0-.86,1.81l-.51-.11a4.8,4.8,0,0,1,1.07-1.94,10.44,10.44,0,0,1,1.58-1.47c.56-.44,1.14-.85,1.7-1.28A8.47,8.47,0,0,0,258.5,228.09Z"></path><path d="M220.86,234.81a63.13,63.13,0,0,0,7-.31c2.32-.22,4.64-.55,7-.85a31.85,31.85,0,0,1,7-.19,24.58,24.58,0,0,1,3.5.5,10.47,10.47,0,0,1,1.71.51,4.29,4.29,0,0,1,1.58,1l-.4.34a3.9,3.9,0,0,0-1.36-.88,11.58,11.58,0,0,0-1.64-.52,24.51,24.51,0,0,0-3.43-.55,31.86,31.86,0,0,0-7,.06c-2.32.25-4.65.54-7,.72A63.29,63.29,0,0,1,220.86,234.81Z"></path><path d="M232.07,235.75c1.33-.05,2.65-.19,4-.3s2.66-.22,4-.26a26.89,26.89,0,0,1,4,.14,11.29,11.29,0,0,1,3.9,1.14l-.26.46a10.69,10.69,0,0,0-3.69-1.21,24.86,24.86,0,0,0-4-.27c-1.32,0-2.65.06-4,.13S233.4,235.75,232.07,235.75Z"></path></g><polygon points="263.32 222.77 255.13 233.95 233.54 284.5 235.53 285.93 243.99 272.07 265.3 224.2 263.32 222.77" style="fill:#4D4D4D"></polygon><polygon points="257.12 235.39 265.3 224.2 243.99 272.07 235.53 285.93 257.12 235.39" style="fill:#fff;opacity:0.6000000000000001"></polygon><polygon points="247.76 237.25 205.75 235.65 184.16 286.19 186.15 287.63 228.16 289.23 249.75 238.69 247.76 237.25" style="fill:#4D4D4D"></polygon><polygon points="207.74 237.09 186.15 287.63 228.16 289.23 249.75 238.69 207.74 237.09" style="fill:#fff;opacity:0.6000000000000001"></polygon><polygon points="205.75 235.65 207.74 237.09 186.15 287.63 184.16 286.19 205.75 235.65" style="fill:#fff;opacity:0.4"></polygon><path d="M249.75,238.69l7.37-3.3-21.59,50.54c-1.37,2.71-3.88,3.72-7.37,3.3Z" style="fill:#4D4D4D"></path><path d="M249.75,238.69l7.37-3.3-21.59,50.54c-1.52,2.86-4.09,3.74-7.37,3.3Z" style="fill:#fff;opacity:0.4"></path><path d="M254.91,233.79c-1.22-.89-3.85-.87-5.88,0s-2.7,2.37-1.48,3.26l2.2,1.6,7.37-3.3s-.88-.62-2-1.44Z" style="fill:#455a64"></path><path d="M255.13,234c-.62,2-3.31,3-7.37,3.3l2,1.44c3.46,0,5.87-1.19,7.37-3.3Z" style="fill:#4D4D4D"></path><path d="M252.91,252.05a28.75,28.75,0,0,1-3.5,4.95c-1,1.26-1.08,2.87-.22,3.39l-3.71,8.35s1.2.31,4.15-2.28,5.46-7.86,6.37-10.77,2-8.19-.34-9.82Z" style="fill:#ffa8a7"></path><path d="M195.73,253.55s-1.4,3.33-1.42,3.33c-.41,0,2.32.14,2.73.18.77.07,1.55.16,2.31.27,4.68.69,8.22,1.29,12.37,3.56.79.43,1.75,1.15,2.73,1.83.74.5-.15,1.32-.63,1.58a5.21,5.21,0,0,1-2,.55,10.93,10.93,0,0,1-2.83-.32,1.27,1.27,0,0,0-.75,0,1,1,0,0,0-.44.57,4.33,4.33,0,0,0-.12.72,3.92,3.92,0,0,1-2,2.83c-.44.23-.93.37-1.38.59a4.48,4.48,0,0,0-1.4,1.23c-.53.57-1,1.17-1.58,1.73-1.86,1.92-2.62,2-6.18,2.53s-6-.88-11-1-30.08,1.55-38.15,1.06c-15-.89-15.36-5.57-15-16,.2-5.79,2.28-22.15,4.92-37.16,3.63-20.67,5.32-24.18,15.36-28.68,8.5,5.63,11,15.17,7.23,38.08l-4,24.15a76.12,76.12,0,0,0,20.79,2.85,29.53,29.53,0,0,0,5.4-.26,38.74,38.74,0,0,0,7.54-2.69A17.39,17.39,0,0,1,195.73,253.55Z" style="fill:#ffa8a7"></path><path d="M154.46,255.24c-5.94-1.65-12.43-2-16.47.43,6.82-6.13,16.82-2.55,16.82-2.55Z" style="fill:#f28f8f"></path></g></g></g><g id="freepik--Plant--inject-45"><g id="freepik--plant--inject-45"><g id="freepik--pot--inject-45"><path d="M57.45,420.31c-10.62-11-16.86-38.51-6.5-47.2h52.71c10.35,8.69,4.12,36.23-6.49,47.19l-.29.3-.37.37c-.3.29-.62.58-1,.86l-.25.2c-.27.21-.52.41-.81.61a13.88,13.88,0,0,1-1.37.89c-8.74,5.1-22.9,5.1-31.64,0h0c-.46-.26-.92-.57-1.38-.89l-.75-.57-.31-.25c-.33-.28-.64-.55-.93-.84l-.42-.41C57.61,420.48,57.52,420.4,57.45,420.31Z" style="fill:#37474f"></path><path d="M99.08,369.61c12,7,12,18.41,0,25.43s-31.53,7-43.55,0-12-18.41,0-25.43S87.05,362.59,99.08,369.61Z" style="fill:#455a64"></path><path d="M93.29,373c8.84,5.16,8.84,13.52,0,18.67s-23.15,5.16-32,0-8.83-13.51,0-18.67S84.46,367.83,93.29,373Z" style="fill:#263238"></path><path d="M61.31,381.85c8.83-5.16,23.15-5.16,32,0a14.66,14.66,0,0,1,5.29,4.91,14.64,14.64,0,0,1-5.29,4.9c-8.83,5.16-23.15,5.16-32,0a14.72,14.72,0,0,1-5.29-4.9A14.74,14.74,0,0,1,61.31,381.85Z" style="fill:#fafafa"></path></g><path d="M73.57,337.54c-4,4.38-15.27,5.59-19.92-6.24-4.35-11.09-9.06-21.61-10.4-25.68s2.68-5.41,2.68-5.41.32-6.09,10.65-2,17.61,10.4,22.11,20.54S80.48,336.18,73.57,337.54Z" style="fill:#4D4D4D"></path><path d="M73.57,337.54c-4,4.38-15.27,5.59-19.92-6.24-4.35-11.09-9.06-21.61-10.4-25.68s2.68-5.41,2.68-5.41.32-6.09,10.65-2,17.61,10.4,22.11,20.54S80.48,336.18,73.57,337.54Z" style="fill:#fff;opacity:0.45"></path><path d="M78,353.18a55.92,55.92,0,0,0-.9-6.17,84.66,84.66,0,0,0-3.42-11.9,87.7,87.7,0,0,0-12-22.09,76.31,76.31,0,0,0-9.4-10.67c-.11-.09-.19.14-.12.22A94,94,0,0,1,67,322.92,94.6,94.6,0,0,1,75.48,346c.51,2.25,1,4.51,1.4,6.77s.66,4.63,1.05,6.94c0,.23.4.37.42.05A43.88,43.88,0,0,0,78,353.18Z" style="fill:#4D4D4D"></path><path d="M78,353.18a55.92,55.92,0,0,0-.9-6.17,84.66,84.66,0,0,0-3.42-11.9,87.7,87.7,0,0,0-12-22.09,76.31,76.31,0,0,0-9.4-10.67c-.11-.09-.19.14-.12.22A94,94,0,0,1,67,322.92,94.6,94.6,0,0,1,75.48,346c.51,2.25,1,4.51,1.4,6.77s.66,4.63,1.05,6.94c0,.23.4.37.42.05A43.88,43.88,0,0,0,78,353.18Z" style="opacity:0.30000000000000004"></path><path d="M81.49,334.48c-9.28,2.87-16.17-4.37-13.78-15.73S82,294.8,86.52,298.18c2.82-2.81,9-1.8,11.93,7.42S98.72,338.5,81.49,334.48Z" style="fill:#4D4D4D"></path><path d="M81.49,334.48c-9.28,2.87-16.17-4.37-13.78-15.73S82,294.8,86.52,298.18c2.82-2.81,9-1.8,11.93,7.42S98.72,338.5,81.49,334.48Z" style="fill:#fff;opacity:0.25"></path><path d="M86.93,305.09a124.6,124.6,0,0,0-6.17,20.4,200.37,200.37,0,0,0-3.58,21.36,336.23,336.23,0,0,0-1.86,41.86c0,.43,0,.77,0,1A1.24,1.24,0,0,0,76.58,391h0a1.24,1.24,0,0,0,1.24-1.26c0-6.42,0-12.85.14-19.28a289.9,289.9,0,0,1,3.76-41.81c.66-3.84,1.39-7.69,2.29-11.49.94-4,2.1-7.94,3.15-11.91C87.2,305.08,87,304.88,86.93,305.09Z" style="fill:#4D4D4D"></path><path d="M86.93,305.09a124.6,124.6,0,0,0-6.17,20.4,200.37,200.37,0,0,0-3.58,21.36,336.23,336.23,0,0,0-1.86,41.86c0,.43,0,.77,0,1A1.24,1.24,0,0,0,76.58,391h0a1.24,1.24,0,0,0,1.24-1.26c0-6.42,0-12.85.14-19.28a289.9,289.9,0,0,1,3.76-41.81c.66-3.84,1.39-7.69,2.29-11.49.94-4,2.1-7.94,3.15-11.91C87.2,305.08,87,304.88,86.93,305.09Z" style="opacity:0.30000000000000004"></path><path d="M64.32,351.67c-3.2,5.22-12.42,6.43-20-.56s-16.55-36.66-7.58-36.24C37.89,310.5,63.45,316,70,335.28,74.73,349.27,64.32,351.67,64.32,351.67Z" style="fill:#4D4D4D"></path><path d="M64.32,351.67c-3.2,5.22-12.42,6.43-20-.56s-16.55-36.66-7.58-36.24C37.89,310.5,63.45,316,70,335.28,74.73,349.27,64.32,351.67,64.32,351.67Z" style="fill:#fff;opacity:0.25"></path><path d="M74,364.75a42.35,42.35,0,0,0-2.14-5.33,116.07,116.07,0,0,0-5.48-10.34A117.6,117.6,0,0,0,52,330a105.55,105.55,0,0,0-9.44-9.36c-.1-.08-.13.14-.08.2,2.68,2.73,5.38,5.42,7.86,8.33s5,6.2,7.24,9.45a147.58,147.58,0,0,1,11.57,19.73c.94,1.95,1.79,3.95,2.75,5.89s2.16,4,3.08,6c.13.3.55.34.43-.07C74.92,368.4,74.53,366.55,74,364.75Z" style="fill:#4D4D4D"></path><path d="M74,364.75a42.35,42.35,0,0,0-2.14-5.33,116.07,116.07,0,0,0-5.48-10.34A117.6,117.6,0,0,0,52,330a105.55,105.55,0,0,0-9.44-9.36c-.1-.08-.13.14-.08.2,2.68,2.73,5.38,5.42,7.86,8.33s5,6.2,7.24,9.45a147.58,147.58,0,0,1,11.57,19.73c.94,1.95,1.79,3.95,2.75,5.89s2.16,4,3.08,6c.13.3.55.34.43-.07C74.92,368.4,74.53,366.55,74,364.75Z" style="opacity:0.30000000000000004"></path><path d="M85,378.7c-6.06,5.1-.36,12.44,8.52,16.53s19.16,2.59,23.73.73,5.57-2.9,5.57-2.9-1.59-7.43-3.8-11.54a23.49,23.49,0,0,0-22.23-12.36C84.93,369.75,83.6,374.54,85,378.7Z" style="fill:#4D4D4D"></path><path d="M85,378.7c-6.06,5.1-.36,12.44,8.52,16.53s19.16,2.59,23.73.73,5.57-2.9,5.57-2.9-1.59-7.43-3.8-11.54a23.49,23.49,0,0,0-22.23-12.36C84.93,369.75,83.6,374.54,85,378.7Z" style="fill:#fff;opacity:0.45"></path><path d="M108.28,384.68c-4.41-2.56-9-5.06-13.91-6.41s-10.86-1.83-15.09,1.36c-1.65,1.23-3.92,4-2.83,6.18.11.22.7.65.87.25a19.36,19.36,0,0,1,1.56-3.76,7.85,7.85,0,0,1,3.28-2.64,18.25,18.25,0,0,1,10.52-1c5.54,1,10.61,3.61,15.58,6.11C108.32,384.83,108.32,384.7,108.28,384.68Z" style="fill:#4D4D4D"></path><path d="M108.28,384.68c-4.41-2.56-9-5.06-13.91-6.41s-10.86-1.83-15.09,1.36c-1.65,1.23-3.92,4-2.83,6.18.11.22.7.65.87.25a19.36,19.36,0,0,1,1.56-3.76,7.85,7.85,0,0,1,3.28-2.64,18.25,18.25,0,0,1,10.52-1c5.54,1,10.61,3.61,15.58,6.11C108.32,384.83,108.32,384.7,108.28,384.68Z" style="opacity:0.30000000000000004"></path><path d="M58.06,349.06c.09-2.94-5.18-9-18.17-8.07S18.3,349,16.8,351.83s-2,5.58.42,5.82,10.53-.38,16.19,1.11,17.54,6.75,24.43,3.36S62.17,351.24,58.06,349.06Z" style="fill:#4D4D4D"></path><path d="M58.06,349.06c.09-2.94-5.18-9-18.17-8.07S18.3,349,16.8,351.83s-2,5.58.42,5.82,10.53-.38,16.19,1.11,17.54,6.75,24.43,3.36S62.17,351.24,58.06,349.06Z" style="fill:#fff;opacity:0.45"></path><path d="M69.49,357.24c-7.33-10.17-21.79-11.13-33.11-9.08a44.93,44.93,0,0,0-10.81,3.37s0,.15,0,.13A59.5,59.5,0,0,1,44,348.23c6.19-.07,12.43.76,18,3.55a23.3,23.3,0,0,1,7.22,5.71C69.48,357.73,69.64,357.44,69.49,357.24Z" style="fill:#4D4D4D"></path><path d="M69.49,357.24c-7.33-10.17-21.79-11.13-33.11-9.08a44.93,44.93,0,0,0-10.81,3.37s0,.15,0,.13A59.5,59.5,0,0,1,44,348.23c6.19-.07,12.43.76,18,3.55a23.3,23.3,0,0,1,7.22,5.71C69.48,357.73,69.64,357.44,69.49,357.24Z" style="opacity:0.30000000000000004"></path><path d="M89.13,349.27c-.19,5.26,7.22,8.32,14.39,3.77s14.69-9,21.33-10.71,9.79-7.13,7.69-9.76-5.43-9.24-22.9-7.08-23.66,10-26,15.59S86.5,350.78,89.13,349.27Z" style="fill:#4D4D4D"></path><path d="M89.13,349.27c-.19,5.26,7.22,8.32,14.39,3.77s14.69-9,21.33-10.71,9.79-7.13,7.69-9.76-5.43-9.24-22.9-7.08-23.66,10-26,15.59S86.5,350.78,89.13,349.27Z" style="fill:#fff;opacity:0.45"></path><path d="M117.56,332.55a18.86,18.86,0,0,0-7.49.79,37.35,37.35,0,0,0-6.41,2.29,35.67,35.67,0,0,0-10.93,7.92,28.09,28.09,0,0,0-2.46,3,12.44,12.44,0,0,0-1.87,3.05c-.12.35.39.91.7.56.86-1,1.51-2.22,2.32-3.27a35.79,35.79,0,0,1,2.81-3.22,36.3,36.3,0,0,1,6.73-5.3,41.47,41.47,0,0,1,7.46-3.63,44.31,44.31,0,0,1,4.35-1.3,14.75,14.75,0,0,1,4.75-.66C117.6,332.75,117.65,332.57,117.56,332.55Z" style="fill:#4D4D4D"></path><path d="M117.56,332.55a18.86,18.86,0,0,0-7.49.79,37.35,37.35,0,0,0-6.41,2.29,35.67,35.67,0,0,0-10.93,7.92,28.09,28.09,0,0,0-2.46,3,12.44,12.44,0,0,0-1.87,3.05c-.12.35.39.91.7.56.86-1,1.51-2.22,2.32-3.27a35.79,35.79,0,0,1,2.81-3.22,36.3,36.3,0,0,1,6.73-5.3,41.47,41.47,0,0,1,7.46-3.63,44.31,44.31,0,0,1,4.35-1.3,14.75,14.75,0,0,1,4.75-.66C117.6,332.75,117.65,332.57,117.56,332.55Z" style="opacity:0.30000000000000004"></path><path d="M80.29,354.57c-2.45-2.45-9.1-1.88-12.24,5.36s3.45,15.14,4.19,17.37c3-1.75,5.4-.71,10.74-1.75a13.33,13.33,0,0,0,10.24-13.3C92.87,355.62,90.08,351.25,80.29,354.57Z" style="fill:#4D4D4D"></path><path d="M80.29,354.57c-2.45-2.45-9.1-1.88-12.24,5.36s3.45,15.14,4.19,17.37c3-1.75,5.4-.71,10.74-1.75a13.33,13.33,0,0,0,10.24-13.3C92.87,355.62,90.08,351.25,80.29,354.57Z" style="fill:#fff;opacity:0.45"></path><path d="M80.19,353.84A10.11,10.11,0,0,0,77,357.2a18.83,18.83,0,0,0-2.1,4.06,17.24,17.24,0,0,0-.93,9.21c0,.11.12,0,.12-.07a18.92,18.92,0,0,1,1.55-9.1,18.62,18.62,0,0,1,2.2-3.66,18.39,18.39,0,0,1,1.48-1.7,9.75,9.75,0,0,0,1.4-1.4C80.85,354.26,80.57,353.66,80.19,353.84Z" style="fill:#4D4D4D"></path><path d="M80.19,353.84A10.11,10.11,0,0,0,77,357.2a18.83,18.83,0,0,0-2.1,4.06,17.24,17.24,0,0,0-.93,9.21c0,.11.12,0,.12-.07a18.92,18.92,0,0,1,1.55-9.1,18.62,18.62,0,0,1,2.2-3.66,18.39,18.39,0,0,1,1.48-1.7,9.75,9.75,0,0,0,1.4-1.4C80.85,354.26,80.57,353.66,80.19,353.84Z" style="opacity:0.30000000000000004"></path><path d="M69,369.65c-1.2-4.62-7.05-7.21-14.7-7.78a20,20,0,0,0-19,9.75c-4,6.84-5.67,12.29-3.23,13.18s12.7,2.32,19.33,2.91,14.92-.6,20.33-5.64S75.35,370.71,69,369.65Z" style="fill:#4D4D4D"></path><path d="M69,369.65c-1.2-4.62-7.05-7.21-14.7-7.78a20,20,0,0,0-19,9.75c-4,6.84-5.67,12.29-3.23,13.18s12.7,2.32,19.33,2.91,14.92-.6,20.33-5.64S75.35,370.71,69,369.65Z" style="fill:#fff;opacity:0.25"></path><path d="M69.3,369a20.16,20.16,0,0,0-8.26-.39,37.15,37.15,0,0,0-7.79,1.79,50.08,50.08,0,0,0-7.73,3.48c-1.29.7-2.56,1.46-3.81,2.25a28.84,28.84,0,0,0-3.42,2.36s0,.2,0,.16a41.54,41.54,0,0,0,3.63-2c1.3-.72,2.6-1.44,3.93-2.11a55.35,55.35,0,0,1,7.65-3.24,36.3,36.3,0,0,1,8.11-1.73,48.83,48.83,0,0,1,7.74.19C69.92,369.81,69.62,369.14,69.3,369Z" style="fill:#4D4D4D"></path><path d="M69.3,369a20.16,20.16,0,0,0-8.26-.39,37.15,37.15,0,0,0-7.79,1.79,50.08,50.08,0,0,0-7.73,3.48c-1.29.7-2.56,1.46-3.81,2.25a28.84,28.84,0,0,0-3.42,2.36s0,.2,0,.16a41.54,41.54,0,0,0,3.63-2c1.3-.72,2.6-1.44,3.93-2.11a55.35,55.35,0,0,1,7.65-3.24,36.3,36.3,0,0,1,8.11-1.73,48.83,48.83,0,0,1,7.74.19C69.92,369.81,69.62,369.14,69.3,369Z" style="opacity:0.30000000000000004"></path><path d="M85.9,361.21c-5.94-4.71-4-16,16.81-16.63s35.61,4.81,35,11.5c3.34,3.34,1.65,12.71-15.17,15.63S81.61,373.18,85.9,361.21Z" style="fill:#4D4D4D"></path><path d="M85.9,361.21c-5.94-4.71-4-16,16.81-16.63s35.61,4.81,35,11.5c3.34,3.34,1.65,12.71-15.17,15.63S81.61,373.18,85.9,361.21Z" style="fill:#fff;opacity:0.25"></path><path d="M127.89,356.15a88.7,88.7,0,0,0-18.56-1.08c-5.7.16-11.61.43-17.13,2A26.25,26.25,0,0,0,88,358.59c-.62.3-1.23.62-1.82,1s-1,.53-1.17,1.08a.57.57,0,0,0,.62.66c1.26-.29,2.44-1.27,3.63-1.8a31,31,0,0,1,3.6-1.31,46.32,46.32,0,0,1,7.22-1.42,128.33,128.33,0,0,1,17.53-1c3.41,0,6.81.3,10.22.57C128,356.4,128,356.17,127.89,356.15Z" style="fill:#4D4D4D"></path><path d="M127.89,356.15a88.7,88.7,0,0,0-18.56-1.08c-5.7.16-11.61.43-17.13,2A26.25,26.25,0,0,0,88,358.59c-.62.3-1.23.62-1.82,1s-1,.53-1.17,1.08a.57.57,0,0,0,.62.66c1.26-.29,2.44-1.27,3.63-1.8a31,31,0,0,1,3.6-1.31,46.32,46.32,0,0,1,7.22-1.42,128.33,128.33,0,0,1,17.53-1c3.41,0,6.81.3,10.22.57C128,356.4,128,356.17,127.89,356.15Z" style="opacity:0.30000000000000004"></path></g></g><g id="freepik--speech-bubble--inject-45"><g id="freepik--speech-bubble--inject-45"><g id="freepik--speech-bubble--inject-45"><path d="M269.15,147.15a28.76,28.76,0,0,1-19.59,8.14l-3.3-.13a28.86,28.86,0,0,1,.84-57.53l3.31,0a28.87,28.87,0,0,1,18.74,49.56Z" style="fill:#fff"></path><path d="M271.51,104.59a31.34,31.34,0,0,0-48.28,39.62l-4.06,8.85a1.82,1.82,0,0,0,2.37,2.43l9-3.8a31.33,31.33,0,0,0,41-47.1Zm-2.36,42.56a28.76,28.76,0,0,1-19.59,8.14l-3.3-.13a28.86,28.86,0,0,1,.84-57.53l3.31,0a28.87,28.87,0,0,1,18.74,49.56Z" style="fill:#455a64"></path></g><path id="freepik--Heart--inject-45" d="M249.39,143.18C229,132.36,227.31,120.72,233.22,115c5.3-5.12,15-1.78,16.11,5.52,1.07-7.3,10.77-10.69,16.09-5.6C271.36,120.62,269.74,132.27,249.39,143.18Z" style="fill:#4D4D4D"></path></g></g></svg>