<?xml version="1.0" encoding="utf-8"?>
<!-- Generator: Adobe Illustrator 27.5.0, SVG Export Plug-In . SVG Version: 6.00 Build 0)  -->
<svg version="1.1" id="_x2018_ëîé_x5F_1" xmlns="http://www.w3.org/2000/svg" xmlns:xlink="http://www.w3.org/1999/xlink"
  x="0px" y="0px" viewBox="0 0 5120 2160" style="enable-background:new 0 0 5120 2160;" xml:space="preserve">
  <g>
    <rect x="0.001" style="fill:#FFFFFF;" width="5120" height="2160" />
    <g>
      <circle style="fill:#FFFBDE;" cx="1239.247" cy="517.561" r="460.932" />
      <g>
        <g>
          <g>
            <path style="fill:#FFB290;" d="M1281.081,328.749c11.386,8.227,19.761,20.296,23.75,33.745
						c1.126,3.798,1.873,7.685,2.251,11.628c0.202,2.11,3.793,1.461,3.606-0.495c-1.399-14.601-7.811-28.625-17.88-39.288
						c-2.838-3.005-5.959-5.749-9.309-8.169C1281.918,325.028,1279.272,327.443,1281.081,328.749L1281.081,328.749z" />
          </g>
          <g>
            <path style="fill:#FFB290;" d="M1220.69,428.021c10.533,11.907,21.065,23.814,31.598,35.721
						c2.998,3.389,5.995,6.778,8.993,10.167c0.615,0.695,1.684,0.875,2.521,0.482c0.699-0.328,1.252-1.252,0.64-1.944
						c-10.533-11.907-21.065-23.814-31.598-35.721c-2.998-3.389-5.995-6.778-8.993-10.167c-0.615-0.695-1.684-0.875-2.521-0.482
						C1220.63,426.405,1220.078,427.329,1220.69,428.021L1220.69,428.021z" />
          </g>
          <g>
            <path style="fill:#FFB290;" d="M1396.286,501.65c0.503,0-0.245-1.176-0.341-1.331c-0.23-0.372-0.974-1.688-1.531-1.688
						c-0.503,0,0.245,1.176,0.341,1.331C1394.985,500.334,1395.729,501.65,1396.286,501.65L1396.286,501.65z" />
          </g>
          <g>
            <path style="fill:#FFB290;" d="M1327.384,572.665c-7.447,8.466-12.159,19.205-13.43,30.404c-0.358,3.156-0.441,6.34-0.255,9.51
						c0.056,0.952,3.442,2.057,3.387,1.107c-0.651-11.14,2.238-22.395,8.043-31.916c1.648-2.704,3.533-5.254,5.625-7.631
						C1331.176,573.659,1328.127,571.82,1327.384,572.665L1327.384,572.665z" />
          </g>
          <g>
            <path style="fill:#FFB290;" d="M1196.474,548.191c0.849,0,1.363-0.742,1.109-1.54c-0.272-0.856-1.217-1.52-2.11-1.52
						c-0.849,0-1.363,0.742-1.109,1.54C1194.637,547.527,1195.582,548.191,1196.474,548.191L1196.474,548.191z" />
          </g>
          <g>
            <path style="fill:#FFB290;" d="M1041.737,381.48c4.431,2.215,8.861,4.431,13.292,6.646c0.792,0.396,1.822,0.228,2.533-0.276
						c0.505-0.358,1.027-1.256,0.231-1.653c-4.431-2.215-8.861-4.431-13.292-6.646c-0.791-0.396-1.822-0.228-2.533,0.276
						C1041.464,380.184,1040.942,381.082,1041.737,381.48L1041.737,381.48z" />
          </g>
          <g>
            <path style="fill:#FFB290;" d="M1227.6,301.13c2.215,2.215,4.43,4.431,6.646,6.646c0.251,0.251,0.755,0.378,1.083,0.434
						c0.44,0.076,0.983,0.086,1.419-0.029c0.548-0.144,1.294-0.547,0.705-1.135c-2.215-2.215-4.43-4.431-6.646-6.646
						c-0.251-0.251-0.755-0.378-1.083-0.434c-0.44-0.076-0.983-0.086-1.419,0.029C1227.758,300.138,1227.011,300.542,1227.6,301.13
						L1227.6,301.13z" />
          </g>
          <g>
            <path style="fill:#FFB290;" d="M1374.142,413.523c9.206,6.742,14.361,18.398,13.906,29.721
						c-0.13,3.228-0.719,6.419-1.761,9.476c-0.258,0.758,3.193,2.024,3.435,1.314c3.819-11.197,1.325-23.974-5.779-33.328
						c-2.013-2.651-4.418-4.996-7.102-6.962c-0.671-0.492-1.589-0.89-2.429-0.929
						C1373.785,412.787,1373.56,413.097,1374.142,413.523L1374.142,413.523z" />
          </g>
          <g>
            <path style="fill:#FFB290;" d="M1161.74,606.992c2.224,4.426,4.447,8.853,6.671,13.279c0.173,0.345,3.461-1.303,3.276-1.671
						c-2.224-4.426-4.447-8.853-6.671-13.279C1164.842,604.976,1161.555,606.624,1161.74,606.992L1161.74,606.992z" />
          </g>
          <g>
            <path style="fill:#FFB290;" d="M1054.239,548.548c10.274,7.01,20.547,14.02,30.821,21.031c2.921,1.993,5.842,3.986,8.763,5.979
						c0.704,0.48,1.693,0.221,2.369-0.199c0.397-0.247,1.395-1.202,0.686-1.686c-10.274-7.01-20.547-14.021-30.821-21.031
						c-2.921-1.993-5.842-3.986-8.763-5.979c-0.704-0.48-1.693-0.221-2.369,0.199
						C1054.527,547.109,1053.53,548.064,1054.239,548.548L1054.239,548.548z" />
          </g>
          <g>
            <path style="fill:#FFB290;" d="M1128.429,486.791c2.215,2.215,4.431,4.431,6.646,6.646c0.549,0.549,1.389,1.215,2.207,1.231
						c0.801,0.015,0.251-0.831-0.034-1.116c-2.215-2.215-4.431-4.431-6.646-6.646c-0.549-0.549-1.389-1.215-2.207-1.231
						C1127.594,485.66,1128.145,486.507,1128.429,486.791L1128.429,486.791z" />
          </g>
          <g>
            <path style="fill:#FFB290;" d="M1142.07,339.422c7.01,10.274,14.021,20.548,21.031,30.821c1.993,2.921,3.986,5.842,5.979,8.763
						c0.398,0.584,1.356,0.889,1.992,1.105c0.134,0.045,1.611,0.393,1.37,0.041c-7.01-10.274-14.021-20.547-21.031-30.821
						c-1.993-2.921-3.986-5.842-5.979-8.763c-0.398-0.584-1.356-0.889-1.993-1.105C1143.306,339.418,1141.83,339.07,1142.07,339.422
						L1142.07,339.422z" />
          </g>
          <g>
            <path style="fill:#FFB290;" d="M1367.47,148.093c9.096,11.596,15.319,25.322,18.145,39.783
						c0.798,4.083,1.331,8.222,1.569,12.375c0.048,0.841,0.731,1.491,1.452,1.86c0.324,0.166,1.781,0.618,1.732-0.218
						c-0.874-15.224-5.37-30.164-13.099-43.318c-2.2-3.744-4.645-7.341-7.325-10.758c-0.472-0.601-1.426-1.33-2.249-1.179
						C1366.885,146.787,1367.079,147.594,1367.47,148.093L1367.47,148.093z" />
          </g>
          <g>
            <path style="fill:#FFB290;" d="M1399.538,376.003c8.718,10.26,17.436,20.519,26.153,30.779c2.485,2.925,4.97,5.849,7.455,8.774
						c0.59,0.694,1.904,0.241,2.457-0.249c0.679-0.602,0.857-1.45,0.261-2.151c-8.718-10.259-17.436-20.519-26.153-30.779
						c-2.485-2.925-4.97-5.849-7.455-8.774c-0.59-0.694-1.904-0.241-2.457,0.249C1399.12,374.454,1398.942,375.302,1399.538,376.003
						L1399.538,376.003z" />
          </g>
          <g>
            <path style="fill:#FFB290;" d="M1067.643,639.437c4.474,8.08-3.137,19.657-12.329,18.751c-0.841-0.083-0.232,0.922,0.013,1.181
						c0.581,0.613,1.398,1.084,2.244,1.167c7.681,0.757,14.264-6.443,14.566-13.812c0.087-2.133-0.408-4.278-1.442-6.146
						c-0.412-0.744-1.167-1.306-1.961-1.597C1068.397,638.858,1067.227,638.686,1067.643,639.437L1067.643,639.437z" />
          </g>
          <g>
            <path style="fill:#FFB290;" d="M950.526,348.573c0.708,0,1.497-0.339,1.24-1.184c-0.24-0.79-1.355-1.391-2.137-1.391
						c-0.708,0-1.497,0.339-1.24,1.184C948.628,347.972,949.743,348.573,950.526,348.573L950.526,348.573z" />
          </g>
          <g>
            <path style="fill:#FFB290;" d="M1034.699,247.712c2.215,2.215,4.431,4.431,6.646,6.646c0.196,0.196,0.592,0.27,0.842,0.315
						c0.453,0.082,0.958,0.105,1.416,0.068c0.17-0.014,1.699-0.205,1.292-0.612c-2.215-2.215-4.431-4.431-6.646-6.646
						c-0.196-0.196-0.592-0.27-0.841-0.315c-0.453-0.082-0.958-0.105-1.416-0.068
						C1035.821,247.114,1034.291,247.305,1034.699,247.712L1034.699,247.712z" />
          </g>
          <g>
            <path style="fill:#FFB290;" d="M1181.41,183.7c1.515,0.793,2.563,1.434,4.011,2.477c1.283,0.924,2.582,2.003,3.564,2.945
						c2.324,2.232,4.263,4.663,5.893,7.328c3.393,5.549,5.376,11.808,6.2,18.257c0.838,6.56,0.392,13.314-1.177,19.733
						c-1.522,6.225-4.249,12.317-8.162,17.411c-3.937,5.126-9.042,9.256-15.026,11.746c-0.793,0.33-1.598,0.629-2.411,0.904
						c-0.86,0.291-0.643,1.414-0.182,1.936c0.632,0.716,1.602,0.934,2.481,0.638c6.44-2.176,12.185-6.153,16.609-11.302
						c4.455-5.185,7.635-11.387,9.53-17.939c1.941-6.71,2.636-13.71,2.032-20.669c-0.592-6.823-2.441-13.568-5.738-19.591
						c-3.302-6.034-8.093-11.295-13.99-14.874c-0.818-0.497-1.647-0.973-2.495-1.418c-0.684-0.358-1.845-0.364-2.233,0.426
						C1179.906,182.542,1180.755,183.357,1181.41,183.7L1181.41,183.7z" />
          </g>
          <g>
            <path style="fill:#FFB290;" d="M968.464,519.416c2.216,8.861,4.432,17.722,6.647,26.583c0.2,0.802,0.788,1.693,1.51,2.117
						c0.589,0.347,1.035,0.114,0.854-0.609c-2.216-8.861-4.431-17.722-6.647-26.583c-0.2-0.801-0.788-1.693-1.51-2.117
						C968.728,518.46,968.283,518.693,968.464,519.416L968.464,519.416z" />
          </g>
          <g>
            <path style="fill:#FFB290;" d="M1248.701,693.052c7.01,10.274,14.021,20.547,21.031,30.821
						c1.993,2.921,3.986,5.842,5.979,8.763c0.507,0.744,1.619,1.156,2.432,0.666c0.828-0.498,0.836-1.588,0.338-2.319
						c-7.01-10.274-14.021-20.548-21.031-30.821c-1.993-2.921-3.986-5.842-5.979-8.763c-0.507-0.744-1.618-1.156-2.431-0.666
						C1248.211,691.232,1248.202,692.322,1248.701,693.052L1248.701,693.052z" />
          </g>
        </g>
        <g>
          <g>
            <path style="fill:#FFB290;" d="M1462.403,470.12c11.386,8.227,19.761,20.296,23.75,33.745
						c1.127,3.798,1.874,7.685,2.251,11.628c0.202,2.11,3.793,1.461,3.606-0.495c-1.399-14.601-7.811-28.625-17.88-39.288
						c-2.838-3.005-5.959-5.749-9.309-8.169C1463.24,466.399,1460.594,468.813,1462.403,470.12L1462.403,470.12z" />
          </g>
          <g>
            <path style="fill:#FFB290;" d="M1402.012,569.392c10.533,11.907,21.065,23.814,31.598,35.721
						c2.998,3.389,5.995,6.778,8.993,10.167c0.615,0.695,1.684,0.875,2.521,0.482c0.699-0.328,1.252-1.252,0.64-1.944
						c-10.533-11.907-21.065-23.814-31.598-35.721c-2.998-3.389-5.995-6.778-8.993-10.167c-0.615-0.695-1.684-0.875-2.521-0.482
						C1401.952,567.776,1401.4,568.7,1402.012,569.392L1402.012,569.392z" />
          </g>
          <g>
            <path style="fill:#FFB290;" d="M1577.608,643.021c0.503,0-0.245-1.176-0.341-1.331c-0.23-0.372-0.974-1.688-1.531-1.688
						c-0.503,0,0.245,1.176,0.341,1.331C1576.306,641.705,1577.051,643.021,1577.608,643.021L1577.608,643.021z" />
          </g>
          <g>
            <path style="fill:#FFB290;" d="M1508.706,714.035c-7.447,8.466-12.159,19.205-13.43,30.404c-0.358,3.156-0.441,6.34-0.255,9.51
						c0.056,0.952,3.442,2.057,3.387,1.107c-0.651-11.14,2.238-22.395,8.043-31.916c1.648-2.704,3.533-5.254,5.625-7.631
						C1512.497,715.03,1509.448,713.191,1508.706,714.035L1508.706,714.035z" />
          </g>
          <g>
            <path style="fill:#FFB290;" d="M1377.796,689.562c0.848,0,1.363-0.742,1.109-1.54c-0.272-0.856-1.217-1.52-2.11-1.52
						c-0.848,0-1.363,0.742-1.109,1.54C1375.958,688.898,1376.903,689.562,1377.796,689.562L1377.796,689.562z" />
          </g>
          <g>
            <path style="fill:#FFB290;" d="M1223.059,522.851c4.431,2.215,8.861,4.431,13.292,6.646c0.792,0.396,1.822,0.228,2.533-0.276
						c0.505-0.358,1.027-1.256,0.231-1.653c-4.431-2.215-8.861-4.43-13.292-6.646c-0.792-0.396-1.822-0.228-2.533,0.276
						C1222.785,521.555,1222.263,522.453,1223.059,522.851L1223.059,522.851z" />
          </g>
          <g>
            <path style="fill:#FFB290;" d="M1408.921,442.501c2.215,2.215,4.431,4.431,6.646,6.646c0.251,0.251,0.755,0.378,1.082,0.434
						c0.44,0.076,0.983,0.086,1.419-0.029c0.548-0.144,1.294-0.547,0.706-1.135c-2.215-2.215-4.431-4.431-6.646-6.646
						c-0.251-0.251-0.755-0.378-1.083-0.434c-0.44-0.076-0.983-0.085-1.419,0.029
						C1409.079,441.509,1408.333,441.912,1408.921,442.501L1408.921,442.501z" />
          </g>
          <g>
            <path style="fill:#FFB290;" d="M1555.464,554.894c9.206,6.742,14.361,18.398,13.906,29.721
						c-0.13,3.228-0.719,6.419-1.761,9.476c-0.258,0.758,3.193,2.024,3.435,1.314c3.819-11.197,1.325-23.974-5.778-33.328
						c-2.013-2.651-4.418-4.996-7.102-6.962c-0.672-0.492-1.589-0.89-2.429-0.929
						C1555.106,554.158,1554.882,554.468,1555.464,554.894L1555.464,554.894z" />
          </g>
          <g>
            <path style="fill:#FFB290;" d="M1343.061,748.363c2.224,4.426,4.447,8.853,6.671,13.279c0.173,0.345,3.461-1.303,3.276-1.671
						c-2.224-4.426-4.447-8.853-6.671-13.279C1346.164,746.346,1342.876,747.995,1343.061,748.363L1343.061,748.363z" />
          </g>
          <g>
            <path style="fill:#FFB290;" d="M1235.561,689.919c10.274,7.01,20.547,14.02,30.821,21.031c2.921,1.993,5.842,3.986,8.763,5.979
						c0.703,0.48,1.693,0.221,2.369-0.199c0.397-0.247,1.395-1.202,0.686-1.686c-10.274-7.01-20.547-14.02-30.821-21.031
						c-2.921-1.993-5.842-3.986-8.763-5.979c-0.703-0.48-1.693-0.221-2.369,0.199
						C1235.849,688.48,1234.851,689.435,1235.561,689.919L1235.561,689.919z" />
          </g>
          <g>
            <path style="fill:#FFB290;" d="M1309.75,628.162c2.215,2.215,4.431,4.431,6.646,6.646c0.549,0.549,1.389,1.215,2.207,1.231
						c0.801,0.015,0.251-0.831-0.034-1.116c-2.215-2.215-4.43-4.431-6.646-6.646c-0.549-0.549-1.389-1.215-2.207-1.231
						C1308.916,627.031,1309.466,627.878,1309.75,628.162L1309.75,628.162z" />
          </g>
          <g>
            <path style="fill:#FFB290;" d="M1323.392,480.793c7.01,10.274,14.02,20.547,21.031,30.821c1.993,2.921,3.986,5.842,5.979,8.763
						c0.398,0.584,1.356,0.889,1.993,1.105c0.134,0.045,1.611,0.393,1.37,0.041c-7.01-10.274-14.021-20.548-21.031-30.821
						c-1.993-2.921-3.986-5.842-5.979-8.763c-0.398-0.584-1.356-0.889-1.993-1.105
						C1324.628,480.789,1323.151,480.441,1323.392,480.793L1323.392,480.793z" />
          </g>
          <g>
            <path style="fill:#FFB290;" d="M1548.792,289.464c9.096,11.596,15.319,25.322,18.145,39.783
						c0.798,4.083,1.331,8.222,1.569,12.375c0.048,0.841,0.731,1.491,1.452,1.86c0.324,0.166,1.781,0.618,1.733-0.218
						c-0.874-15.224-5.37-30.164-13.099-43.317c-2.2-3.744-4.645-7.341-7.325-10.758c-0.472-0.602-1.426-1.33-2.249-1.179
						C1548.207,288.158,1548.401,288.965,1548.792,289.464L1548.792,289.464z" />
          </g>
          <g>
            <path style="fill:#FFB290;" d="M1580.859,517.373c8.718,10.26,17.436,20.519,26.153,30.779c2.485,2.925,4.97,5.849,7.455,8.774
						c0.59,0.694,1.904,0.241,2.457-0.249c0.679-0.602,0.857-1.45,0.261-2.151c-8.718-10.259-17.436-20.519-26.153-30.779
						c-2.485-2.925-4.97-5.849-7.456-8.774c-0.59-0.694-1.904-0.241-2.457,0.249
						C1580.441,515.825,1580.264,516.673,1580.859,517.373L1580.859,517.373z" />
          </g>
          <g>
            <path style="fill:#FFB290;" d="M1248.964,780.808c4.474,8.08-3.137,19.656-12.329,18.751c-0.841-0.083-0.232,0.922,0.013,1.181
						c0.581,0.613,1.398,1.084,2.244,1.167c7.681,0.757,14.264-6.443,14.566-13.812c0.087-2.134-0.408-4.278-1.442-6.146
						c-0.412-0.744-1.167-1.306-1.961-1.597C1249.719,780.229,1248.548,780.057,1248.964,780.808L1248.964,780.808z" />
          </g>
          <g>
            <path style="fill:#FFB290;" d="M1131.847,489.944c0.708,0,1.497-0.339,1.24-1.184c-0.24-0.79-1.355-1.391-2.137-1.391
						c-0.708,0-1.497,0.339-1.24,1.184C1129.95,489.343,1131.065,489.944,1131.847,489.944L1131.847,489.944z" />
          </g>
          <g>
            <path style="fill:#FFB290;" d="M1216.02,389.083c2.215,2.215,4.431,4.431,6.646,6.646c0.196,0.196,0.592,0.27,0.841,0.315
						c0.453,0.082,0.958,0.105,1.416,0.068c0.17-0.014,1.699-0.205,1.292-0.612c-2.215-2.215-4.431-4.431-6.646-6.646
						c-0.196-0.196-0.592-0.27-0.841-0.315c-0.453-0.082-0.958-0.105-1.416-0.068
						C1217.142,388.484,1215.613,388.676,1216.02,389.083L1216.02,389.083z" />
          </g>
          <g>
            <path style="fill:#FFB290;" d="M1362.732,325.071c1.515,0.793,2.563,1.434,4.011,2.477c1.283,0.924,2.582,2.003,3.564,2.946
						c2.324,2.232,4.263,4.663,5.893,7.328c3.393,5.549,5.376,11.808,6.2,18.257c0.838,6.56,0.392,13.314-1.177,19.733
						c-1.522,6.225-4.249,12.317-8.162,17.411c-3.937,5.126-9.042,9.256-15.026,11.746c-0.793,0.33-1.598,0.629-2.412,0.904
						c-0.86,0.291-0.643,1.414-0.182,1.935c0.632,0.716,1.602,0.935,2.481,0.638c6.439-2.176,12.185-6.153,16.609-11.302
						c4.455-5.185,7.634-11.387,9.53-17.939c1.941-6.71,2.636-13.71,2.032-20.669c-0.592-6.823-2.441-13.568-5.738-19.591
						c-3.302-6.034-8.093-11.295-13.99-14.874c-0.818-0.497-1.647-0.974-2.495-1.418c-0.684-0.358-1.845-0.364-2.233,0.426
						C1361.228,323.913,1362.077,324.728,1362.732,325.071L1362.732,325.071z" />
          </g>
          <g>
            <path style="fill:#FFB290;" d="M1149.786,660.787c2.216,8.861,4.431,17.722,6.647,26.583c0.2,0.802,0.788,1.693,1.51,2.117
						c0.589,0.347,1.035,0.114,0.854-0.609c-2.216-8.861-4.431-17.722-6.647-26.583c-0.2-0.802-0.788-1.693-1.51-2.117
						C1150.05,659.831,1149.605,660.064,1149.786,660.787L1149.786,660.787z" />
          </g>
          <g>
            <path style="fill:#FFB290;" d="M1430.022,834.423c7.01,10.274,14.021,20.547,21.031,30.821
						c1.993,2.921,3.986,5.842,5.979,8.763c0.507,0.744,1.618,1.156,2.431,0.666c0.828-0.498,0.836-1.588,0.338-2.319
						c-7.01-10.274-14.021-20.547-21.031-30.821c-1.993-2.921-3.986-5.842-5.979-8.763c-0.507-0.744-1.618-1.156-2.432-0.666
						C1429.533,832.603,1429.524,833.693,1430.022,834.423L1430.022,834.423z" />
          </g>
        </g>
      </g>
    </g>
    <path style="fill:#FFE3FC;" d="M2947.99,1725.61c-1.35,14.92-117.74,26.58-304.27,33.62c-31.42,1.19-64.83,2.24-100.01,3.16
		c-214.06,5.57-493.82,6.04-790.92-0.05c-161.16-3.32-327.42-8.56-491.07-15.97C717.92,1721.74,202.96,1673.17,0,1592.03V793.86
		c146.11-25.07,322.96-55.08,501.69-40.78c248.56,19.88,518.26,367.54,697.98,448.19c166.11,74.54,847.06,113.28,1036.8,162.9
		c93.34,24.4,268.67,94.09,421.92,167.54c47.87,22.94,93.59,46.25,133.97,68.66c26.06,14.45,49.9,28.54,70.67,41.91
		C2916.55,1676.72,2949.72,1706.43,2947.99,1725.61z" />
    <path style="fill:#FFB290;" d="M5120,600.58v1392.3c-143.91,70.91-313.38,125-493.3,150.46
		c-354.62,50.18-1108.18-65.04-1600.71-219.88c-17.03-5.35-33.74-10.76-50.13-16.21c-298.55-99.22-484.33-212.47-392.09-308.24
		c8.01-8.32,15.98-16.24,23.91-23.77c11.26-10.7,22.45-20.64,33.59-29.87c219.74-182.02,420.64-89.73,774.3-181.21
		c384.22-99.39,590.43-535.93,880.94-702.56C4519.89,533.48,4938.47,574.69,5120,600.58z" />
    <path style="fill:#FFCCBE;"
      d="M5120,945.53V2160H2084.41c-33.98-130.82,49.33-200.36,150.07-247.37
		c19.42-9.07,39.5-17.3,59.5-24.97c45.75-17.55,91.15-32.17,127.63-47.19c20.61-8.49,39.37-17.9,57.12-28.25
		c46.39-27.05,75.52-61.09,113.1-96.2c36.44-34.03,80.82-69.05,156.59-99.65c39.05-15.77,86.44-30.36,145.36-43.04
		c363.67-78.23,463.06-173.1,716.05-173.1c252.98,0,431.43-284.61,804.14-467.58C4575.92,853.15,4804.74,704.51,5120,945.53z" />
    <path style="fill:#FFADBA;"
      d="M5120,986.67V2160H0v-850.95c184.87-29.98,416.83-149.15,637.22-85.01
		c813.04,236.6,1088.75,548.34,1287.53,439.92c170.93-93.24,493.67-138.22,682.93-88.72c30.82,8.05,58.77,16.18,82.81,23.77
		c19.51,6.16,38.67,11.97,57.93,17.36c36.79,10.31,73.94,19.09,114.61,25.91c7.38,1.23,14.86,2.4,22.49,3.5
		c122,17.6,287.64-86.06,545.86-10.63c715.38,208.99,885.45-71.25,1183.62-215.81C4815.99,1321.88,4957.85,1093.31,5120,986.67z" />
    <path style="opacity:0.59;fill:#FFFFFF;"
      d="M5120,1663.96V2160H0v-355.49c88.39-18.53,184.73-20.77,287.11,47.48
		c216.84,144.57,298.16,171.67,668.61,72.29c370.44-99.39,162.63-343.16,912.56-130.92c159.82,45.23,300.75,75.07,425.7,94.3
		c312.03,48.01,524.34,29.81,681.88,19.59c19.73-1.27,38.6-2.43,56.7-3.31c51.08-2.49,96.02-2.83,136.8,2.27
		c216.85,27.1,388.52-29.55,623.43-59.95c234.92-30.41,1048.09,68.98,1219.77-84.62C5061.49,1717.86,5095,1685.37,5120,1663.96z" />
    <g>
      <g>
        <path style="fill:#FFFBDE;" d="M2528.649,1816.691c-20.888,0-41.785-0.479-62.715-1.504
				c-172.497-8.446-337.886-48.661-520.733-96.414c-54.137-14.139-109.056-29.075-162.167-43.521
				c-131.267-35.7-267.003-72.617-402.456-100.632c-191.546-39.616-348.969-49.114-495.418-29.896
				c-130.188,17.087-256.453,58.278-378.562,98.113c-9.581,3.125-19.163,6.251-28.749,9.367
				c-180.985,58.823-332.822,86.653-477.84,87.583l-0.02-3.072c144.693-0.927,296.235-28.709,476.91-87.433
				c9.586-3.115,19.166-6.241,28.747-9.366c122.241-39.878,248.645-81.115,379.115-98.237c146.8-19.268,304.546-9.755,496.44,29.934
				c135.545,28.033,271.328,64.962,402.64,100.676c53.104,14.442,108.015,29.377,162.137,43.512
				c182.679,47.709,347.904,87.887,520.107,96.318c156.137,7.644,311.868-15.144,456.898-40.908
				c86.345-15.339,173.969-33.552,258.708-51.165c239.394-49.76,486.955-101.216,736.668-94.535
				c192.714,5.153,386.417,33.189,573.742,60.303c204.911,29.659,416.8,60.328,627.904,61.096l-0.012,3.072
				c-211.319-0.769-423.316-31.453-628.333-61.127c-187.237-27.101-380.85-55.124-573.384-60.273
				c-14.748-0.395-29.535-0.586-44.269-0.586c-234.381,0-466.618,48.275-691.692,95.058
				c-84.76,17.618-172.407,35.837-258.796,51.184C2797.74,1796.581,2663.886,1816.688,2528.649,1816.691z" />
      </g>
      <g>
        <path style="fill:#FFFBDE;" d="M2454.813,1870.707c-19.444,0-38.626-0.415-57.617-1.237
				c-121.064-5.247-246.776-30.162-407.611-80.786c-37.641-11.847-75.738-24.479-112.58-36.693
				c-92.172-30.561-187.484-62.161-283.826-84.192c-138.792-31.737-289.626-40.269-461.123-26.08
				c-159.796,13.221-320.624,41.071-476.156,68.006c-213.642,36.997-434.557,75.254-655.893,76.112l-0.013-3.072
				c221.079-0.857,441.864-39.092,655.381-76.067c155.599-26.945,316.495-54.809,476.427-68.041
				c171.818-14.214,322.958-5.661,462.062,26.147c96.485,22.064,191.867,53.688,284.108,84.271
				c36.832,12.211,74.917,24.839,112.536,36.68c160.569,50.54,286.038,75.412,406.822,80.646
				c124.306,5.383,256.891-6.763,417.247-38.231c72.915-14.311,146.445-31.669,217.554-48.456
				c62.2-14.685,126.518-29.868,190.197-42.959c160.486-32.992,310.894-47.529,459.818-44.438
				c227.924,4.731,458.608,27.688,681.698,49.889c247.415,24.621,503.254,50.081,756.161,50.751l-0.008,3.072
				c-253.057-0.67-508.97-26.138-756.457-50.767c-223.031-22.195-453.655-45.145-681.458-49.874
				c-148.708-3.083-298.876,11.43-459.136,44.376c-63.637,13.081-127.933,28.26-190.11,42.938
				c-71.137,16.794-144.695,34.159-217.668,48.48C2679.054,1857.896,2562.898,1870.707,2454.813,1870.707z" />
      </g>
      <g>
        <path style="fill:#FFFBDE;" d="M2387.154,1926.249c-133.525,0.003-252.39-22.921-355.469-68.722
				c-21.5-9.552-43.013-19.805-63.818-29.719c-54.196-25.828-110.238-52.535-169.923-68.594
				c-135.763-36.529-279.662-29.591-418.823-22.881l-9.681,0.466c-189.1,9.086-381.059,27.035-566.697,44.393
				c-262.767,24.569-534.48,49.975-802.739,50.691l-0.009-3.072c268.121-0.716,539.763-26.115,802.462-50.678
				c185.672-17.361,377.666-35.313,566.836-44.402l9.679-0.466c139.398-6.721,283.541-13.671,419.77,22.982
				c59.955,16.132,116.125,42.899,170.446,68.786c20.786,9.906,42.281,20.149,63.743,29.687
				c179.645,79.818,407.63,89.892,677.623,29.938c58.182-12.921,116.549-29.181,172.995-44.905
				c49.535-13.799,100.756-28.068,151.688-40.036c128.949-30.301,266.344-43.848,420.019-41.402
				c261.669,4.154,527.224,22.33,784.035,39.907c288.46,19.743,586.74,40.158,880.711,40.782l-0.006,3.072
				c-294.073-0.624-592.405-21.043-880.915-40.79c-256.771-17.574-522.286-35.746-783.874-39.901
				c-153.431-2.442-290.568,11.079-419.267,41.322c-50.871,11.954-102.062,26.215-151.566,40.005
				c-56.484,15.735-114.893,32.007-173.153,44.944C2595.341,1913.39,2487.131,1926.246,2387.154,1926.249z" />
      </g>
      <g>
        <path style="fill:#FFFBDE;" d="M2267.408,1958.653c-19.359,0-38.679-0.317-57.982-0.994
				c-116.343-4.08-241.096-25.077-381.386-64.192c-33.658-9.384-67.737-19.421-100.696-29.126
				c-83.244-24.515-169.323-49.865-256.029-66.889c-129.559-25.438-270.813-32.237-444.536-21.399
				c-146.172,9.118-293.619,29.047-436.212,48.319c-192.678,26.042-391.916,52.97-590.563,53.559l-0.009-3.072
				c198.444-0.588,397.581-27.502,590.161-53.531c142.646-19.279,290.149-39.215,436.432-48.341
				c173.991-10.854,315.495-4.039,445.32,21.452c86.845,17.051,172.993,42.42,256.305,66.955
				c32.947,9.703,67.016,19.736,100.653,29.114c140.053,39.049,264.57,60.01,380.668,64.081
				c163.62,5.731,330.108-14.359,486.608-35.434c98.892-13.317,199.592-29.364,296.978-44.883
				c264.568-42.16,538.134-85.754,809.896-80.478c209.587,4.07,421.63,25.022,626.693,45.284
				c225.834,22.314,459.356,45.389,690.296,45.973l-0.008,3.072c-231.087-0.585-464.685-23.666-690.591-45.987
				c-205.003-20.257-416.985-41.203-626.451-45.271c-271.483-5.257-544.917,38.302-809.353,80.441
				c-97.402,15.521-198.121,31.571-297.05,44.894C2558.372,1940.808,2412.387,1958.651,2267.408,1958.653z" />
      </g>
      <g>
        <path style="fill:#FFFBDE;" d="M2159.196,1993.208c-23.214,0-46.384-0.35-69.502-1.104
				c-158.466-5.173-315.924-33.15-462.477-62.612c-40.927-8.228-82.528-16.879-122.76-25.245
				c-132.501-27.556-269.514-56.048-405.265-74.168c-152.229-20.318-286.615-25.124-410.836-14.689
				c-103.104,8.66-200.028,33.254-298.495,59.854c-119.719,32.341-247.243,48.282-389.857,48.735l-0.01-3.072
				c142.343-0.451,269.607-16.358,389.065-48.629c98.608-26.639,195.68-51.269,299.04-59.951
				c124.442-10.453,259.046-5.642,411.499,14.707c135.862,18.135,272.93,46.639,405.484,74.204
				c40.227,8.366,81.824,17.017,122.741,25.242c146.422,29.437,303.729,57.388,461.971,62.554
				c175.48,5.724,354.432-11.898,527.491-28.943c21.383-2.105,42.733-4.209,64.049-6.267
				c144.773-13.975,291.828-29.608,434.041-44.729c123.164-13.095,250.521-26.635,375.878-39.042
				c17.389-1.722,34.791-3.46,52.207-5.2c197.513-19.733,401.749-40.134,602.796-35.441c160.684,3.757,319.542,27.37,453.747,49.975
				c268.918,45.294,419.157,51.429,520.001,51.713l-0.008,3.072c-192.203-0.542-379.128-27.943-520.503-51.756
				c-134.098-22.586-292.82-46.181-453.31-49.933c-200.849-4.688-404.999,15.702-602.418,35.427c-17.417,1.74-34.82,3.479-52.21,5.2
				c-125.346,12.406-252.697,25.946-375.856,39.04c-142.22,15.121-289.281,30.756-434.07,44.732
				c-21.313,2.058-42.663,4.159-64.043,6.266C2467.215,1977.959,2312.391,1993.208,2159.196,1993.208z" />
      </g>
      <g>
        <path style="fill:#FFFBDE;" d="M2544.623,2026.186c-17.057,0.001-34.135-0.212-51.239-0.663
				c-150.703-3.971-298.583-23.167-474.258-50.77c-47.32-7.436-95.387-15.322-141.871-22.951
				c-115.902-19.02-235.751-38.686-354.333-53.026c-161.47-19.526-324.412-25.099-484.303-16.563
				c-147.538,7.879-296.708,25.033-440.966,41.624c-195.242,22.454-397.132,45.672-597.648,46.189l-0.008-3.072
				c200.344-0.517,402.146-23.726,597.305-46.17c144.304-16.596,293.521-33.756,441.153-41.639
				c160.065-8.545,323.188-2.968,484.835,16.58c118.646,14.348,238.527,34.021,354.462,53.045
				c46.479,7.627,94.54,15.514,141.851,22.947c175.558,27.584,323.325,46.768,473.862,50.734
				c163.476,4.303,326.124-13.133,463.669-30.761c89.678-11.494,180.842-25.221,269.004-38.496
				c245.691-36.995,499.739-75.255,752.632-69.996c183.033,3.802,367.603,25.607,546.095,46.695
				c194.463,22.975,395.548,46.73,595.14,47.252l-0.008,3.072c-199.77-0.521-400.942-24.289-595.492-47.273
				c-178.42-21.079-362.914-42.876-545.798-46.675c-252.615-5.242-506.546,32.987-752.11,69.963
				c-88.179,13.277-179.36,27.008-269.071,38.505C2834.248,2010.537,2690.799,2026.185,2544.623,2026.186z" />
      </g>
      <g>
        <path style="fill:#FFFBDE;" d="M2958.483,2059.384c-19.129,0-37.787-0.242-55.88-0.6c-168.588-3.33-339.37-21.754-486.212-38.762
				c-49.094-5.686-98.983-11.714-147.23-17.544c-120.127-14.516-244.342-29.525-366.902-40.531
				c-161.786-14.53-328.277-18.671-508.989-12.65c-192.04,6.396-387.16,18.984-575.856,31.159
				c-267.751,17.274-544.619,35.138-817.413,35.617l-0.005-3.072c272.697-0.479,549.516-18.339,817.22-35.611
				c188.719-12.175,383.863-24.766,575.952-31.163c180.836-6.023,347.453-1.881,509.365,12.66
				c122.606,11.011,246.846,26.024,366.995,40.542c48.243,5.829,98.129,11.857,147.215,17.543
				c146.772,16.999,317.468,35.413,485.92,38.741c100.201,1.984,218.147,0.411,333.306-26.222
				c38.094-8.811,75.909-20.978,112.48-32.744c32.246-10.375,65.589-21.104,99.049-29.51
				c119.847-30.115,244.609-32.287,361.58-30.149c208.618,3.813,419.777,23.599,623.984,42.733
				c224.775,21.063,457.203,42.842,686.94,43.373l-0.008,3.072c-229.877-0.532-462.375-22.317-687.219-43.387
				c-204.15-19.129-415.252-38.91-623.755-42.72c-116.761-2.134-241.276,0.029-360.775,30.057
				c-33.361,8.382-66.657,19.095-98.855,29.454c-36.632,11.787-74.511,23.975-112.729,32.813
				C3141.99,2054.379,3045.489,2059.383,2958.483,2059.384z" />
      </g>
      <g>
        <path style="fill:#FFFBDE;" d="M2787.195,2103.933c-15.925,0-31.768-0.171-47.556-0.513
				c-188.625-4.088-382.055-25.165-552.714-43.763c-65.421-7.128-132.019-14.88-196.424-22.376
				c-306.302-35.649-623.031-72.51-935.975-57.1c-149.549,7.366-300.905,23.356-447.277,38.821
				c-198.489,20.97-403.735,42.654-607.247,43.118l-0.008-3.072c203.354-0.463,408.521-22.14,606.932-43.102
				c146.414-15.469,297.813-31.464,447.449-38.834c313.194-15.429,630.053,21.452,936.48,57.117
				c64.399,7.495,130.992,15.245,196.402,22.373c170.597,18.59,363.956,39.66,552.447,43.745
				c130.28,2.818,264.779-5.99,411.203-26.941c69.409-9.932,139.653-22.114,207.585-33.896
				c59.467-10.313,120.958-20.979,181.67-30.096c157.961-23.72,304.596-33.843,448.302-30.964
				c181.507,3.644,364.596,24.734,541.655,45.131c192.769,22.206,392.101,45.168,589.883,45.658l-0.008,3.072
				c-197.955-0.491-397.374-23.463-590.227-45.679c-176.989-20.389-360.004-41.471-541.366-45.111
				c-143.521-2.883-289.995,7.236-447.783,30.931c-60.678,9.112-122.151,19.773-181.601,30.084
				c-67.954,11.786-138.221,23.972-207.675,33.91C3022.495,2094.885,2902.849,2103.933,2787.195,2103.933z" />
      </g>
      <g>
        <path style="fill:#FFFBDE;" d="M2623.992,2148.624c-18.144,0.001-36.268-0.201-54.396-0.631
				c-197.135-4.672-396.876-25.498-590.04-45.639l-32.046-3.339c-69.294-7.208-139.727-14.784-207.839-22.112
				c-166.804-17.945-339.287-36.501-509.263-51.167c-179.367-15.476-354.726-28.291-528.074-15.279
				c-103.989,7.804-204.395,29.924-306.663,53.847c-124.299,29.077-253.723,43.426-395.667,43.865l-0.01-3.072
				c141.708-0.438,270.907-14.762,394.978-43.785c102.389-23.951,202.924-46.098,307.132-53.919
				c173.576-13.027,349.07-0.204,528.567,15.283c170.009,14.668,342.509,33.226,509.328,51.173
				c68.111,7.327,138.54,14.904,207.828,22.111l32.047,3.339c193.104,20.135,392.783,40.954,589.794,45.623
				c171.016,4.054,344.139-12.153,492.994-27.661c101.363-10.56,204.686-23.535,304.605-36.083
				c264.481-33.214,537.959-67.564,807.902-61.553c159.304,3.543,311.619,25.753,439.604,47.013
				c200.111,33.239,355.93,48.244,505.229,48.651l-0.008,3.072c-149.472-0.408-305.443-15.426-505.725-48.693
				c-127.878-21.241-280.058-43.434-439.169-46.972c-269.705-6.001-543.079,28.33-807.45,61.529
				c-99.937,12.551-203.275,25.528-304.671,36.091C2929.805,2134.19,2777.178,2148.623,2623.992,2148.624z" />
      </g>
    </g>
    <path style="fill:#1D1D1B;" d="M1838.161,584.49c7.636-2.557,15.82-0.144,22.505,3.852c13.66,8.093,20.874,23.377,26.094,37.694
		c2.537,7.238,4.49,14.643,5.809,22.161c3.849-5.475,8.426-10.387,13.286-14.994c9.799-9.199,21.482-16.971,34.882-19.527
		c6.623-1.312,13.702-1.066,19.827,1.992c0,0-0.459,0.888-0.459,0.888c-8.893-4.745-19.57-2.073-27.941,2.553
		c-14.443,7.911-27.107,18.371-39.594,29.087c-3.025-7.013-5.911-14.004-9.109-20.81c-4.752-10.161-10.175-19.839-17.116-28.551
		c-4.481-5.685-9.825-11.228-16.959-13.357c-3.466-0.991-7.418-1.3-10.832-0.069C1838.555,585.41,1838.161,584.49,1838.161,584.49
		L1838.161,584.49z" />
    <path style="fill:#1D1D1B;" d="M2076.494,584.49c7.636-2.557,15.82-0.144,22.506,3.852c13.66,8.093,20.874,23.377,26.094,37.694
		c2.538,7.238,4.49,14.643,5.809,22.161c3.849-5.475,8.426-10.387,13.286-14.994c9.799-9.199,21.482-16.971,34.882-19.527
		c6.623-1.312,13.701-1.066,19.827,1.992c0,0-0.459,0.888-0.459,0.888c-8.893-4.745-19.57-2.073-27.941,2.553
		c-14.443,7.911-27.107,18.371-39.594,29.087c-3.025-7.013-5.911-14.004-9.108-20.81c-4.752-10.161-10.175-19.839-17.116-28.551
		c-4.481-5.685-9.825-11.228-16.959-13.357c-3.466-0.991-7.418-1.3-10.832-0.069C2076.888,585.41,2076.494,584.49,2076.494,584.49
		L2076.494,584.49z" />
    <path style="fill:#1D1D1B;" d="M2402.391,277.829c3.809-1.277,7.923-0.047,11.238,1.949c9.638,5.819,13.861,19.469,15.969,29.901
		c7.015-9.623,21.435-21.676,33.995-16.262c0,0-0.23,0.444-0.23,0.444c-2.895-1.544-6.392-1.547-9.481-0.608
		c-3.13,0.919-5.952,2.622-8.674,4.381c-5.497,3.496-10.557,7.706-15.61,12.045c-1.229-2.545-2.189-5.273-3.405-7.823
		c-3.445-7.54-7.309-15.182-13.448-20.827c-2.689-2.36-6.629-3.915-10.157-2.741L2402.391,277.829L2402.391,277.829z" />
    <path style="fill:#1D1D1B;" d="M2202.387,382.654c7.636-2.557,15.82-0.144,22.505,3.852c13.661,8.093,20.874,23.377,26.094,37.694
		c2.537,7.238,4.49,14.642,5.809,22.161c3.849-5.475,8.426-10.387,13.285-14.994c9.799-9.199,21.482-16.971,34.882-19.527
		c6.623-1.312,13.702-1.066,19.827,1.992l-0.459,0.888c-8.893-4.745-19.57-2.073-27.941,2.553
		c-14.443,7.911-27.107,18.371-39.594,29.087c-3.025-7.013-5.911-14.004-9.108-20.81c-4.752-10.161-10.175-19.839-17.116-28.551
		c-4.481-5.685-9.825-11.228-16.958-13.357c-3.466-0.991-7.418-1.3-10.832-0.069
		C2202.781,383.573,2202.387,382.654,2202.387,382.654L2202.387,382.654z" />
    <path style="fill:#1D1D1B;" d="M2642.956,261.786c3.809-1.277,7.924-0.047,11.238,1.949c9.639,5.82,13.86,19.467,15.969,29.901
		c7.014-9.623,21.435-21.676,33.994-16.262c0,0-0.23,0.444-0.23,0.444c-2.895-1.544-6.392-1.547-9.481-0.608
		c-3.13,0.919-5.952,2.621-8.674,4.381c-5.497,3.496-10.557,7.706-15.61,12.045c-1.23-2.545-2.189-5.273-3.406-7.823
		c-3.445-7.54-7.309-15.182-13.448-20.827c-2.689-2.36-6.629-3.915-10.157-2.741L2642.956,261.786L2642.956,261.786z" />
    <path style="fill:#1D1D1B;" d="M2473.544,446.9c3.809-1.277,7.924-0.047,11.238,1.949c9.639,5.82,13.86,19.467,15.969,29.901
		c7.014-9.623,21.435-21.676,33.994-16.262c0,0-0.23,0.444-0.23,0.444c-2.895-1.544-6.392-1.547-9.481-0.608
		c-3.13,0.919-5.951,2.621-8.674,4.381c-5.497,3.496-10.557,7.706-15.609,12.045c-1.23-2.545-2.189-5.273-3.406-7.823
		c-3.445-7.54-7.309-15.182-13.448-20.827c-2.689-2.36-6.629-3.915-10.157-2.741L2473.544,446.9L2473.544,446.9z" />
    <path style="fill:#1D1D1B;" d="M1732.651,798.142c3.809-1.277,7.924-0.047,11.238,1.949c9.639,5.82,13.86,19.467,15.969,29.901
		c7.014-9.623,21.435-21.677,33.994-16.262c0,0-0.23,0.444-0.23,0.444c-2.895-1.545-6.392-1.547-9.481-0.608
		c-3.13,0.919-5.951,2.622-8.674,4.381c-5.497,3.496-10.557,7.706-15.61,12.045c-1.23-2.545-2.189-5.273-3.406-7.823
		c-3.445-7.54-7.309-15.182-13.448-20.827c-2.689-2.36-6.629-3.915-10.157-2.741L1732.651,798.142L1732.651,798.142z" />
  </g>
</svg>