<?xml version="1.0" encoding="utf-8"?>
<!DOCTYPE svg PUBLIC "-//W3C//DTD SVG 1.0//EN" "http://www.w3.org/TR/2001/REC-SVG-20010904/DTD/svg10.dtd">
<svg version="1.0" xmlns="http://www.w3.org/2000/svg" width="5334px" height="3334px" viewBox="0 0 5334 3334"
    preserveAspectRatio="xMidYMid meet">
    <g fill="#fffff3">
        <path
            d="M0 1352 l0 -1352 2667 0 2667 0 0 1352 c0 1200.40 -0.40 1352 -3 1352 -2.60 0 -3 -42.40 -3 -370 0 -203.40 -0.80 -370 -1.80 -370 -0.80 0 -2.20 -7.20 -2.80 -16 -2.80 -36.40 -17.40 -86 -37.40 -127 -19.80 -40.80 -42.80 -71.80 -78.20 -106 -65.80 -63.20 -149.80 -97.40 -238.20 -97.20 l-29.40 0 -0.80 -141.40 c-0.80 -153.20 -0.80 -154.60 -12.80 -205.40 -12.20 -52 -37.80 -111.80 -66.60 -156 -88 -134.60 -231.60 -215.40 -383 -215.60 -116.40 -0.20 -231.80 49.40 -319 136.80 -78.20 78.60 -128.80 184.20 -140.20 292.20 -3.40 32.60 -2.20 30.20 -15.40 29 -6.20 -0.40 -22.20 -3 -35.40 -5.40 -31.60 -6.20 -97 -6.80 -128 -1.40 -147.60 25.80 -269.40 118 -336 254.40 -21.80 44.20 -34.20 82.60 -43.60 134 l-4.40 24 -0.60 470.60 -0.40 470.40 -910 0 -909.80 0 -0.80 -324.40 c-0.60 -318.40 -0.80 -325 -4.80 -346.60 -17.80 -94.80 -55.20 -169 -117.40 -232.80 -25.60 -26 -44.20 -41.60 -71.60 -59.60 -92.60 -61 -203.40 -79.80 -305.60 -52.20 -12.60 3.40 -27.60 6.60 -33 7 l-10 1 -2.80 -14.80 c-15 -81.80 -63.60 -171.20 -124 -228.20 -72 -68 -153.80 -105 -250 -113.40 -74.60 -6.40 -164.60 18 -234.20 63.60 -29 18.80 -47.20 34 -73 60.60 -64 66 -102.20 143.20 -118.40 239.20 -2.60 15.60 -3.40 40.80 -4.40 123.20 l-1.20 103.60 -19.20 8.60 c-85 38.20 -159.20 110 -201.60 194.80 -22.40 44.60 -35.20 85.20 -43.60 136.60 -2.80 18.20 -3.40 46.60 -4 227.40 l-0.80 206.40 -7 0 -6.80 0 0 -1352z m955.20 -506.20 c63 -8.80 126.40 -39.80 168.80 -82.60 8.40 -8.60 14.40 -13.20 17.40 -13.20 3.60 0 4.60 -1.20 4.60 -5 0 -2.80 3.80 -10 9 -16.40 12.80 -16.80 28 -43 36.20 -63 l7.40 -17.60 7.40 0 c8.80 0 29.60 8.20 41.20 16.20 10.60 7.20 22.40 9.80 37.80 8.40 6.60 -0.60 15.60 0 20 1.20 l8 2.20 -6.40 -5.20 c-5.80 -4.40 -6.60 -6.40 -6.60 -14.20 0 -6.80 1.40 -10.80 5.80 -16.40 8.80 -11.20 10 -14.60 15.20 -39.40 2.60 -12.80 6.60 -26.80 8.80 -31 l4.20 -7.80 -5 0 c-3.60 0 -5 -1 -5 -4 0 -2.20 -0.80 -4 -2 -4 -1 0 -2 -1 -2 -2.20 0 -3.40 -5.40 -7.80 -9.80 -7.80 -3 0 -5.80 3 -9.80 10.20 -13.80 25.80 -23 33.80 -38.80 33.80 -9 0 -9.60 -0.40 -9.60 -5 0 -2.80 -0.80 -5 -1.80 -5 -1.20 0 -2.20 -3 -2.60 -6.40 -0.60 -6 -1.20 -5.40 -5 6.80 -2.40 7.60 -5.80 16 -7.20 19 -2.60 4.60 -2.40 6.20 0.80 13.40 2 4.60 3.80 12.40 3.80 17.60 0 12.60 -4.20 15.60 -22.40 15.60 l-13.60 0 0 -7.60 c0 -4 1 -10.60 2 -14.40 8.40 -29 10.60 -78.80 5 -111 -11.60 -67 -42 -123.40 -91.20 -169.80 -39.60 -37.40 -85.60 -61.60 -140.80 -74.40 -21 -4.80 -28.20 -5.60 -57 -5.60 -37.20 0 -55.40 2.80 -88.80 13.60 -25.40 8.40 -52.60 22 -76.20 37.80 -25.20 17.20 -62.80 55 -79.60 80.60 -51.60 78 -63.80 168 -34.20 253 37.80 108.40 133.20 185.60 247.80 200.40 13.20 1.80 49.60 1.20 64.20 -0.80z" />
    </g>
    <g fill="#d0e6de">
        <path
            d="M2 2701 c0 -1.60 1.40 -3 3 -3 2.60 0 3 -22.80 3 -192.40 0 -106 0.60 -197.60 1 -203.60 4.20 -46 9.20 -73 19 -104.80 21.40 -69.20 57 -128.20 108 -179.40 36 -36.20 77.40 -65 121.80 -85 14.60 -6.60 19.40 -9.80 20.20 -13.20 1 -3.60 4.40 -5.60 19 -10 10 -3.20 29.80 -8 44 -11 24.20 -5 29.60 -5.20 79 -5.40 50.40 0 54.20 0.20 79 5.40 83 17.80 147.80 51.60 206.80 108.40 48.60 46.80 86.60 106.60 108 170.20 l8.20 24 0 251.40 0 251.40 -96 0 -95.80 0 -0.60 -203.40 -0.60 -203.60 -5.40 -19.60 c-23 -83.60 -88 -145.80 -169.60 -162.40 -22.20 -4.60 -58 -3.20 -81 3 -19.20 5.20 -47.80 18.40 -64.80 30 -50.40 34 -87.40 94.60 -96 156.80 -1.40 10.20 -2.20 81.80 -2.20 207.40 l0 191.80 -104 0 c-91.20 0 -104 -0.40 -104 -3z" />
        <path
            d="M4608.60 2320.60 c0.60 -383 0.60 -383.60 5 -405.60 16.40 -83.80 49 -147.60 104.40 -203.20 53.40 -53.80 113 -86.40 182.40 -99.60 31.40 -6 45.60 -7.20 45.60 -3.80 0 2.20 5.60 2.80 29.60 3 72 0.60 138.40 22 198.80 64.60 21 14.80 54.60 46.20 71.80 67.20 46.60 57.20 77 131 83.80 204.80 1.40 15.20 2.20 148 2.60 389.60 l0.40 366.40 -88.40 0 -88.60 0 -0.60 -370.40 c-0.60 -411.20 0.60 -376.20 -13.80 -412.40 -25.20 -64.20 -79.40 -109.60 -144.40 -121 -56.60 -10 -122.60 17.80 -163.20 68.80 -18 22.80 -29.20 45.40 -38.40 78 l-4.60 16 -0.60 370.60 -0.40 370.40 -91 0 -91.20 0 0.80 -383.40z" />
        <path
            d="M3448 1779.60 c0 -7.80 2.40 -13.60 5.20 -13.60 2 0 2.80 2.60 2.80 9 0 7.60 -0.60 9 -4 9 -2.80 0 -4 -1.40 -4 -4.40z" />
        <path
            d="M3450 1759.60 c0 -7 8.40 -53 12.80 -69.60 9.40 -36 28.60 -86 33.20 -86 3.20 0 2.40 13.40 -1 16.80 -1.60 1.60 -3 4.80 -3 7 0 2.20 -1.40 5.20 -3 7 -1.60 1.60 -3 4 -3 5.40 0 4.60 -8.80 29.80 -10.40 29.80 -0.80 0 -1.60 2 -1.60 4.60 0 2.40 -1.80 10.80 -3.80 18.40 -4.80 17.20 -12.20 56 -12.20 63.60 0 4 -1 5.40 -4 5.40 -2.20 0 -4 -1.20 -4 -2.40z" />
        <path
            d="M278 1744.60 c0 -10.60 2 -16.60 5.20 -16.60 2 0 2.80 3.20 2.80 12 0 10.60 -0.40 12 -4 12 -3.20 0 -4 -1.40 -4 -7.40z" />
        <path
            d="M281 1710.60 c4.40 -38.80 20 -94.80 35.60 -129 7.60 -16.40 11.40 -19.60 11.40 -9.60 0 6.40 -3.80 16 -6.40 16 -0.80 0 -1.60 2.20 -1.60 4.80 0 2.80 -1.20 6.20 -2.60 7.60 -1.40 1.40 -3.60 7 -5 12.60 -1.40 5.40 -3.40 10.40 -4.20 11 -1 0.60 -2.20 3.80 -2.80 7 -0.60 3.40 -3.80 16.80 -7.20 30 -3.60 13.20 -7.40 32.20 -8.60 42.40 -2 16 -3 18.60 -6.20 18.60 -3.40 0 -3.60 -1.20 -2.40 -11.40z" />
        <path
            d="M1089 1688.60 c-0.80 -5.40 -3.60 -18.20 -6.20 -28.60 -2.60 -10.40 -4.80 -20.80 -4.80 -23.20 0 -2.40 -1 -4.80 -2.20 -5.20 -3 -1 -5 -19.60 -2.20 -19.60 1.20 0 3 1.60 4.20 3.60 2.80 5.60 13.40 44.20 16.40 60 2.20 11.40 3.40 14.40 6.20 14.40 2.20 0 3.60 1.40 3.60 4 0 3.20 -1.40 4 -6.80 4 -6.60 0 -6.80 -0.40 -8.20 -9.40z" />
        <path
            d="M1066 1605 c0 -2.80 -0.80 -5 -2 -5 -1 0 -2 -3.20 -2 -7 0 -4.40 -1 -7 -2.60 -7 -3 0 -17.40 -28.20 -17.40 -34 0 -2.20 -1.40 -4 -3 -4 -1.60 0 -3.40 -2.20 -4.20 -5 -0.60 -2.80 -2 -5 -3 -5 -1 0 -1.80 -2.20 -1.80 -5 0 -3.20 -1.20 -5 -3 -5 -1.60 0 -3 -1.40 -3 -3 0 -1.60 -0.80 -3 -2 -3 -1 0 -2 -1.80 -2 -4 0 -2.20 -1.40 -4 -3 -4 -1.60 0 -3 -1.40 -3 -3 0 -1.60 -0.80 -3 -2 -3 -1 0 -2 -1.60 -2 -3.80 0 -2 -1.80 -4.20 -4 -4.80 -2.20 -0.60 -4 -2.80 -4 -5 0 -2.20 -1.80 -4.40 -4 -5 -3 -0.80 -4 -2.80 -4 -7.20 0 -5.20 -0.80 -6.20 -4.60 -6.20 -6.60 0 -9.40 -3.60 -9.40 -11.80 l0.20 -7.20 10 11 c32.40 35.60 64 86.60 81.60 131.60 l4.20 10.40 -5 0 c-4 0 -5 -1 -5 -5z" />
        <path
            d="M3504 1584.60 c0 -0.80 5.60 -10.80 12.60 -22.20 13.60 -22.60 37.40 -55 53.20 -72.40 l10 -11 0.20 7.20 c0 8.40 -2.80 11.80 -10.40 11.80 -5 0 -5.60 0.60 -5.60 7 0 5.60 -0.80 7 -4 7 -3 0 -4 1.40 -4 5 0 3.20 -1.20 5 -3 5 -1.60 0 -3 1.80 -3 4 0 2.20 -1.40 4 -3 4 -1.60 0 -3 1.80 -3 4 0 2.20 -0.80 4 -2 4 -1 0 -2 1.40 -2 3 0 1.60 -1.80 3 -4 3 -3.20 0 -4 1.40 -4 6 0 3.40 -0.80 6 -2 6 -1 0 -2 1.40 -2 3 0 1.60 -1.40 3 -3 3 -1.80 0 -3 1.80 -3 5 0 3.20 -1.20 5 -3 5 -1.60 0 -3 1.80 -3 3.80 0 7 -2.40 10.20 -7.20 10.20 -2.60 0 -4.80 -0.60 -4.80 -1.40z" />
        <path
            d="M326 1562.40 c0 -4.60 38.80 -65.20 45.20 -70.60 2.40 -1.80 2.80 -1 2.80 5 0 5 -0.80 7.20 -3 7.20 -1.60 0 -3 1.80 -3 4 0 2.20 -0.80 4 -2 4 -1 0 -2 1.40 -2 3 0 1.60 -0.80 3 -2 3 -1 0 -2 1.40 -2 3 0 1.60 -0.80 3 -2 3 -1 0 -2 1.40 -2 3 0 1.60 -0.80 3 -2 3 -1 0 -2 1.40 -2 3 0 1.60 -1.40 3 -3 3 -1.80 0 -3 1.80 -3 5 0 3.20 -1.20 5 -3 5 -1.60 0 -3 1.80 -3 4 0 7.40 -4.40 14 -9.40 14 -2.40 0 -4.60 -0.80 -4.60 -1.60z" />
        <path d="M382 1478 c6.20 -8.80 8 -9 8 -1.20 0 6.60 -0.40 7.20 -6.20 7.20 l-6 0 4.20 -6z" />
        <path
            d="M3598 1461.40 c0 -3.20 62.20 -51.40 66.20 -51.40 1 0 1.80 2.20 1.80 5 0 3.20 -1.20 5 -3 5 -1.60 0 -3 1 -3 2 0 1.20 -1.80 2 -4 2 -2.20 0 -4 1.40 -4 3 0 1.60 -1.40 3 -3 3 -1.60 0 -3 1 -3 2 0 1.20 -1.80 2 -4 2 -2.20 0 -4 1.40 -4 3 0 1.80 -1.80 3 -5 3 -3.60 0 -5 1 -5 4 0 3.20 -1.40 4 -6.80 4 -6.40 0 -7 0.60 -7.60 6.60 -0.60 5.80 -1.20 6.40 -8 7 -4.20 0.40 -7.60 0.20 -7.60 -0.20z" />
        <path
            d="M955.40 1446.60 c-0.80 -0.60 -1.40 -3.80 -1.40 -7 0 -5 -0.60 -5.60 -7 -5.60 -5.60 0 -7 -0.80 -7 -4 0 -3 -1.40 -4 -5 -4 -4.20 0 -5 -1 -5 -6.20 0 -5.60 0.40 -6 3.60 -3.60 8.40 6.40 36.40 30.40 36.40 31 0 1.40 -13.20 0.80 -14.60 -0.60z" />
        <path
            d="M422 1437.20 c0 -0.40 7 -6.60 15.60 -13.40 32 -25.80 76 -51.60 111 -64.60 l13.40 -5.20 0 5 c0 4 -1.20 5 -7.40 6.20 -4.20 0.80 -8.80 2.60 -10.20 4.20 -1.40 1.40 -5.80 2.60 -9.60 2.60 -4.20 0 -6.80 1 -6.80 2.60 0 3.60 -16.60 11.40 -24 11.40 -4.60 0 -6 0.80 -6 4 0 3 -1.40 4 -5 4 -3.20 0 -5 1.20 -5 3 0 1.60 -1.40 3 -3 3 -1.60 0 -3 1 -3 2 0 1.20 -2.60 2 -6 2 -4.60 0 -6 0.80 -6 4 0 2.20 -1.40 4 -3 4 -1.60 0 -3 1 -3 2 0 1.20 -1.80 2 -4 2 -2.20 0 -4 1.40 -4 3 0 1.60 -1.80 3 -4 3 -2.20 0 -4 1.40 -4 3 0 2 -2 3 -6 3 -5 0 -6 0.80 -6 5 0 4.40 -0.80 5 -7 5 -3.80 0 -7 -0.40 -7 -0.80z" />
        <path
            d="M914 1410 c0 -3.20 -1.40 -4 -6 -4 -3.20 0 -6 -0.80 -6 -2 0 -1 -1.40 -2 -3 -2 -1.60 0 -3 -0.80 -3 -2 0 -1 -1.40 -2 -3 -2 -1.60 0 -3 -1.80 -3 -4 0 -3 -1.40 -4 -6 -4 -9.20 0 -16 -4 -16 -9.40 0 -2.40 0.60 -4.60 1.40 -4.60 4.20 0 54.80 31.60 57.60 36 0.80 1.20 -1.60 2 -5.80 2 -5.80 0 -7.20 -0.80 -7.20 -4z" />
        <path
            d="M3668 1408.40 c0 -1.60 24.20 -16.40 26.60 -16.40 0.80 0 1.40 2.20 1.40 4.80 0 4.80 -3.20 7.20 -10.20 7.20 -2 0 -3.80 1.40 -3.80 3 0 2 -2.20 3 -7 3 -3.80 0 -7 -0.80 -7 -1.60z" />
        <path
            d="M3714 1383.80 c0 -4.20 47.40 -22.60 79.60 -30.60 18.60 -4.80 53.60 -11.20 61 -11.20 2 0 3.40 1.60 3.40 4 0 3.20 -1.40 4 -6.20 4 -10 0 -54.20 9.40 -74.60 16 -10.20 3.40 -20 6 -21.80 6 -1.60 0 -3.40 1 -3.80 2.20 -0.40 1.20 -5 2.60 -10.20 3.20 -5.60 0.60 -9.40 2.20 -9.40 3.60 0 1.40 -1.40 3.20 -3.20 3.80 -5.20 2 -14.80 1.40 -14.80 -1z" />
        <path
            d="M846.60 1374.60 c-1.40 -0.40 -2.60 -2 -2.60 -3.60 0 -1.40 -3.60 -2.80 -9.20 -3.60 -5.20 -0.40 -9.80 -1.80 -10.60 -2.80 -0.60 -0.80 -5.60 -2.80 -11.20 -4.20 -5.40 -1.40 -10.40 -3.40 -11 -4.20 -0.60 -1 -4.20 -2.20 -8 -2.60 -3.80 -0.60 -17.60 -3.20 -30.40 -5.80 -19.20 -4 -23.60 -5.40 -23.60 -8.20 0 -4.40 -1 -4.20 19.80 -0.60 38.40 6.80 102.20 28.60 102.20 34.80 0 2.20 -10.80 2.80 -15.40 0.80z" />
        <path
            d="M3990 1357 c-6 -1.60 -18.80 -3.80 -28.40 -5.20 -15 -2.20 -17.60 -3.20 -17.60 -6.40 0 -3.40 1 -3.60 10.60 -2.40 5.60 0.80 19.80 3.20 31.20 5.40 18.80 3.40 21 3.60 22.60 0.80 3 -5.40 5.60 -3.60 5.60 3.80 0 6.60 -0.40 7 -6.40 6.80 -3.60 0 -11.60 -1.40 -17.60 -2.80z" />
        <path
            d="M566 1355.60 c0 -5 43.80 -16 81.60 -20.60 9.40 -1.20 10.40 -1 10.40 2.60 0 3.20 -2 4 -13.40 5.20 -7.60 0.80 -21.40 3.20 -31 5.40 -9.60 2 -19.80 3.80 -22.40 3.80 -2.60 0 -5.20 1 -5.60 2.20 -0.40 1.20 -5 2.60 -10.20 3.20 -7.40 1 -9.40 0.60 -9.40 -1.80z" />
        <path
            d="M3860 1345.20 c0 -3 6 -5.20 14.60 -5.20 4 0 5.40 1 5.40 4 0 3.40 -1.40 4 -10 4 -7.20 0 -10 -0.80 -10 -2.80z" />
        <path
            d="M3920 1344 c0 -3 1.40 -4 5.60 -4 8.40 0 14.40 2.20 14.40 5.20 0 2 -2.80 2.80 -10 2.80 -8.60 0 -10 -0.60 -10 -4z" />
        <path d="M722 1338 c0 -4.20 3.20 -5 11.60 -2.80 7.80 2.20 5.40 6.80 -3.60 6.80 -6.60 0 -8 -0.60 -8 -4z" />
        <path
            d="M670 1337.20 c0 -3.60 6.20 -5.20 21 -5.20 14.80 0 21 1.60 21 5.20 0 2.20 -4.40 2.80 -21 2.80 -16.60 0 -21 -0.60 -21 -2.80z" />
        <path
            d="M1248.60 674.80 c-8.60 -4.20 -8.40 -6.80 0.40 -6.80 6.20 0 7 0.60 7 5 0 2.80 -0.20 5 -0.40 5 -0.40 0 -3.60 -1.60 -7 -3.20z" />
    </g>
    <g fill="#c4d5da">
        <path
            d="M1631.40 2082.60 c-0.80 -7.60 -2.20 -13.80 -3.40 -14.20 -2.60 -1 -2.60 -19.80 -0.20 -20.80 3.40 -1.20 -10.60 -69.60 -14.20 -69.60 -0.80 0 -1.60 -2.80 -1.60 -6 0 -4 -1.20 -6.60 -3.40 -7.40 -5.40 -2 -6.60 -4.80 -6.40 -14.60 0.20 -9.20 -6.80 -28 -10.20 -28 -1.20 0 -2 -2.20 -2 -5 0 -2.80 -0.80 -5 -2 -5 -1 0 -2 -1.40 -2 -3 0 -1.60 -0.80 -3 -2 -3 -1 0 -2 -1.40 -2 -3 0 -1.60 -0.80 -3 -2 -3 -1 0 -2 -3.20 -2 -7 0 -4.80 -1 -7 -3 -7 -1.60 0 -3 -1.80 -3 -4 0 -2.60 -1.40 -4 -4 -4 -3 0 -4 -1.40 -4 -5.20 0 -5 -5.60 -17.20 -8.40 -18.40 -1 -0.40 -1.60 -1.60 -1.60 -2.60 0 -3.40 -8 -9.80 -12 -9.80 -3 0 -4 -1.40 -4 -5.80 0 -3.40 -0.80 -6.60 -2 -7.20 -1 -0.60 -2 -3 -2 -5.20 0 -2 -1.20 -3.80 -2.80 -3.80 -1.40 0 -3.80 -1.40 -5.20 -3 -1.40 -1.60 -4.20 -3 -6.20 -3 -2.80 0 -3.80 -1.40 -3.80 -5 0 -3.60 -1 -5 -4 -5 -3.20 0 -4 -1.40 -4 -7 0 -4.60 1 -7 2.80 -7 3.80 0 27.20 25.20 43 46.60 51 69 80.20 150.20 85.40 237 1.40 21.60 1.20 22.40 -2.60 22.40 -3.60 0 -4.20 -1.80 -5.20 -13.40z" />
        <path
            d="M813.20 2065.40 c-0.80 -4.80 -0.80 -12.60 0 -17 1.20 -7.80 1.80 -8.40 7.80 -8.40 l6.60 0 0.20 17 0 17 -6.60 0 c-6.40 0 -6.80 -0.40 -8 -8.60z" />
        <path d="M816 2027 c0 -6.60 0.40 -7 7 -7 6.60 0 7 0.40 7 7 0 6.60 -0.40 7 -7 7 -6.60 0 -7 -0.40 -7 -7z" />
        <path
            d="M820.60 2007.60 c1.60 -15.20 5.80 -33.60 7.60 -33.60 0.80 0 2.20 -4.40 3 -10 1.20 -9.80 1.40 -10 8 -10 l6.80 0 0 13 c0 9.60 -0.80 13 -2.60 13 -2.60 0 -5 8.20 -8.60 28.60 -1.20 6.80 -1.80 7.40 -8.20 7.40 l-7 0 1 -8.40z" />
        <path d="M4608 1961 c0 -7.60 0.60 -9 4 -9 4.20 0 5.20 4.60 2.80 13.60 -2.20 8.20 -6.80 5.20 -6.80 -4.60z" />
        <path
            d="M838.40 1943.60 c0.60 -4.80 3 -12.80 5.60 -18 4 -8.60 5 -9.60 11.20 -9.60 7.60 0 7.80 0.60 5.60 16.80 -0.80 5.80 -2.40 9.20 -4 9.20 -1.60 0 -3.20 2.20 -4 5 -1 4.20 -2.40 5 -8.20 5 l-7.20 0 1 -8.40z" />
        <path
            d="M4610.80 1932.40 c1.40 -14.80 5.40 -34.80 10.40 -53.80 2.60 -9.80 4.20 -12.60 7 -12.60 4.80 0 4.80 0 -1 22.40 -2.80 10.20 -6 24.40 -7.20 31.60 -1 7.20 -2.60 16 -3.20 19.60 -0.60 4 -2.20 6.40 -4.20 6.40 -2.60 0 -3 -2 -1.80 -13.60z" />
        <path
            d="M278 1836.60 c0 -48.20 0.60 -89.60 1.20 -92 0.80 -2.60 2.40 -4.60 4 -4.60 4.20 0 5 177.80 1 181.60 -1.60 1.20 -3.60 2.40 -4.60 2.40 -0.80 0 -1.60 -39.40 -1.60 -87.40z" />
        <path
            d="M304 1910.20 c0 -3.40 1.20 -4.20 7 -4.20 3.80 0 7 -0.80 7 -1.60 0 -1.80 27.20 -7.60 45.60 -9.80 8.60 -1 10.40 -0.60 10.40 2 0 2.20 -2.60 3.60 -7.40 4.60 -6.80 1 -46.80 9.60 -58 12.20 -3.60 0.80 -4.60 0.20 -4.60 -3.20z" />
        <path d="M469.60 1900.60 c-6.60 -1.60 -4 -6.60 3.40 -6.60 5.60 0 7 0.80 7 4 0 4 -2.80 4.60 -10.40 2.60z" />
        <path
            d="M860 1896 c0 -8.60 5.20 -18 10 -18 3.20 0 4 -1.40 4 -7 0 -3.80 0.80 -7 2 -7 1 0 2.40 -2.20 3.20 -5 1 -4.20 2.40 -5 8 -5 6.60 0 6.80 -0.20 6.80 -8 0 -6.60 0.60 -8 4 -8 2.80 0 4 -1.40 4 -4.80 0 -7 2 -11.20 5.20 -11.20 1.60 0 2.80 -1.40 2.80 -3 0 -1.60 1.40 -3 3 -3 1.60 0 3 -1.80 3 -4 0 -2.20 1.40 -4 3 -4 1.60 0 3 -1.80 3 -3.80 0 -2.20 1.80 -4.60 4 -5.20 2.20 -0.60 4 -2 4 -3.20 0 -2.80 6.60 -9.80 9.40 -9.80 1.40 0 2.60 -1 2.60 -2.20 0 -2.60 7.60 -9.80 10.40 -9.80 0.80 0 1.60 -1.40 1.60 -3 0 -2 2.20 -3 7 -3 6.60 0 7 0.40 7 7 0 3.80 -0.80 7 -2 7 -1 0 -2 1.20 -2 2.80 0 1.60 -1.80 3.60 -4 4.20 -2.20 0.60 -4 2.20 -4 3.20 0 1 -1.40 1.80 -3 1.80 -1.60 0 -3 1.20 -3 2.80 0 1.40 -2.20 4.40 -5 6.40 -2.80 2 -5 4.80 -5 6.20 0 1.40 -2.20 3 -5 3.80 -3.20 0.80 -5 2.60 -5 5 0 2 -1.40 3.80 -3 3.80 -1.60 0 -3 1.80 -3 4 0 2.20 -1.20 4 -2.80 4 -2 0 -3.20 2.60 -3.60 7.60 -0.40 6 -1.40 7.60 -5 8 -3 0.40 -4.60 2 -4.60 4.60 0 3 -1.40 3.80 -6.80 3.80 -6.40 0 -6.80 0.40 -7.60 8.80 -0.60 5 -2.60 10.40 -4.40 12.20 -1.80 1.80 -3.20 6.40 -3.20 10.20 0 5.40 -0.80 6.80 -4 6.80 -2.40 0 -5 2 -6.40 5 -1.80 3.80 -3.80 5 -9 5 -6 0 -6.60 -0.60 -6.60 -6z" />
        <path
            d="M378 1896 c0 -3.40 1.40 -4 10 -4 7.20 0 10 0.80 10 2.80 0 3 -6 5.20 -14.40 5.20 -4.20 0 -5.60 -1 -5.60 -4z" />
        <path d="M449.60 1898.60 c-7.20 -1.80 -4 -6.60 4.40 -6.60 6.60 0 8 0.60 8 4 0 4 -4 4.80 -12.40 2.60z" />
        <path
            d="M4632 1850.40 c0 -7.20 3.80 -18.40 6.20 -18.40 1 0 1.80 -2 1.80 -4.40 0 -6.60 2.80 -10 7.60 -9.20 3.80 0.60 3.80 1.40 -3.40 18.40 -7.80 18.80 -12.20 23.80 -12.20 13.60z" />
        <path
            d="M4654 1802.20 c0 -7.80 1.80 -12.20 5.20 -12.20 1.60 0 2.80 -2 2.80 -5 0 -4 1 -5 5 -5 2.80 0 5 0.40 5 1 0 2.40 -15 27 -16.40 27 -0.80 0 -1.60 -2.60 -1.60 -5.80z" />
        <path
            d="M3448 1787.60 c0 -9.60 2 -15.60 5.20 -15.60 2 0 2.80 3 2.80 11 0 9.60 -0.40 11 -4 11 -3.20 0 -4 -1.40 -4 -6.40z" />
        <path
            d="M1490 1784.40 c0 -2.20 -1.80 -5.40 -4 -7.40 -2.20 -2 -4 -4.80 -4 -6 0 -1.40 -3.20 -3.20 -7 -3.80 -3.80 -0.80 -7 -2.20 -7 -3.20 0 -2.40 -7.40 -10 -9.80 -10 -0.80 0 -4 -2.20 -7 -5 -3 -2.80 -6.20 -5 -7.40 -5 -1 0 -1.80 -0.80 -1.80 -1.80 0 -1 -2 -2.20 -4.60 -3 -2.40 -0.60 -6.40 -2.60 -8.60 -4.60 -8.60 -7.60 -33.60 -18.60 -42.20 -18.60 -7 0 -8.40 -0.60 -9 -4.20 -1 -6.60 -32.60 -18.40 -48 -18 -9 0 -11.60 -0.60 -11.60 -2.80 0 -1.60 -3.20 -3.80 -7.40 -4.80 -11.40 -3 -44.60 -8.20 -53 -8.20 -6.20 0 -7.60 -0.80 -7.60 -4 0 -5 4.80 -5.20 33.80 -0.80 74 10.80 147.80 44.20 203.20 92.20 18.60 16 21.60 22.60 10.20 22.60 -5.60 0 -7.20 -0.80 -7.20 -3.60z" />
        <path
            d="M4672 1771 c0 -4.80 1 -7 3 -7 1.60 0 3 -1.80 3 -4 0 -2.20 1 -4 2 -4 1.20 0 2 -1.40 2 -3 0 -1.60 1.40 -3 3 -3 1.60 0 3 -1.80 3 -4 0 -3 1.40 -4 5 -4 4.20 0 5 -1 5 -6 0 -6.40 3 -8.80 10 -7.60 3.80 0.60 3.20 1.60 -5.60 12.20 -5.60 6.40 -13.80 17.40 -18.60 24.40 -4.80 7.20 -9.40 13 -10.20 13 -1 0 -1.60 -3.20 -1.60 -7z" />
        <path
            d="M3450.80 1756.60 c3.20 -27 16 -85.80 20.20 -92.60 2.40 -4 5 -2 5 3.80 0 3.20 -2.20 14.40 -5 24.60 -6 21.80 -13 59.40 -13 69 0 5.40 -0.80 6.60 -4.20 6.60 -4 0 -4.20 -0.80 -3 -11.40z" />
        <path
            d="M982 1751.20 c0 -7 3 -9.20 13.60 -9.20 3.40 0 4.40 -1.20 4.40 -5 0 -4.40 0.80 -5 7 -5 6.60 0 7 0.40 7 7 0 5.60 -0.80 7 -4 7 -3.20 0 -4 1.40 -4 6 l0 6 -12 0 -12 0 0 -6.80z" />
        <path d="M1022 1725 c0 -7 0 -7 9 -7 9 0 9 0 9 7 0 7 0 7 -9 7 -9 0 -9 0 -9 -7z" />
        <path
            d="M280 1725 c0 -16.20 12.20 -76.20 20.40 -99.80 3.60 -10.60 7.60 -11.80 7.60 -2.40 0 4 -0.80 7.20 -2 7.20 -1 0 -2 2.20 -2 5 0 2.80 -1.80 11.60 -4 19.60 -4.80 17.20 -12 57.20 -12 66.60 0 5.40 -0.80 6.80 -4 6.80 -2.20 0 -4 -1.40 -4 -3z" />
        <path
            d="M4716 1717.80 c0 -8.60 8.40 -17.80 16.40 -17.80 4.60 0 5.60 -0.80 5.60 -4.60 0 -4.80 5.40 -11.40 9.40 -11.40 1.20 0 2.60 -1.40 3.40 -3 0.60 -1.60 2.40 -3 4 -3 1.40 0 3.20 -1.40 4 -3 0.60 -1.60 2.40 -3 4 -3 1.40 0 3.20 -1.40 4 -3 0.60 -1.60 2.40 -3 4.20 -3 1.60 0 3 -0.80 3 -1.60 0 -1 3.40 -3.40 7.60 -5.60 4 -2 7.80 -4.20 8.40 -4.80 2.80 -3 12.20 -8 15 -8 1.60 0 3 -0.80 3 -1.60 0 -1.60 19.60 -10.80 40.60 -19.20 4 -1.60 7.40 -4 7.40 -5 0 -1.20 3.20 -2.20 7.20 -2.20 4 0 12.80 -1.40 19.40 -3.20 32.80 -8.40 63.40 -11.20 63.40 -5.80 0 1.60 -2.60 3.20 -6.40 3.80 -3.60 0.40 -15.40 2.40 -26.20 4.20 -66.20 10.80 -130.40 43.60 -181.80 92.80 l-15.60 14.80 0 -6.80z" />
        <path
            d="M1062 1707 c0 -6.20 0.60 -7 5 -7 3.20 0 5 -1.20 5 -3 0 -2 2.20 -3 7 -3 6.60 0 7 0.40 7 7 0 5.60 -0.80 7 -4 7 -2.20 0 -4 1.40 -4 3 0 2.20 -2.20 3 -8 3 -7.80 0 -8 -0.20 -8 -7z" />
        <path
            d="M1093.40 1700.60 c-0.80 -0.60 -1.40 -3.20 -1.40 -5.80 0 -2.40 -0.80 -4.80 -1.60 -5.20 -0.80 -0.20 -3.20 -8.20 -5.20 -17.60 -2 -9.40 -7.60 -29 -12.40 -43.60 -4.80 -14.60 -8.80 -27.40 -8.80 -28.60 0 -1.20 -1.40 -3.40 -3 -5 -3.40 -3.40 -4.20 -16.80 -0.80 -16.80 5 0 25 56.60 32.20 91.80 l4.40 21.80 8.20 -3 c22.20 -7.80 77 -18.60 94.80 -18.60 4.80 0 6.20 0.80 6.20 4 0 3.20 -1.40 4 -7.40 4 -8.60 0 -41.80 5.20 -53 8.20 -4.80 1.20 -7.60 3.20 -7.60 5 0 2.60 -1.80 3 -8.40 2.40 -10.80 -1.20 -21.60 1.60 -21.60 5.40 0 3 -12 4.40 -14.60 1.60z" />
        <path
            d="M3477.80 1643.60 c20 -58 62 -123.40 110.20 -171.60 71.60 -71.80 165.60 -117.80 262.60 -129 10.40 -1.20 11.40 -1 11.40 2.60 0 3.20 -2 4 -13.40 5.20 -18.60 1.80 -54.40 10 -75.80 17.20 -9.60 3.40 -19.20 6 -21.20 6 -2 0 -3.60 0.80 -3.60 1.60 0 2.20 -12.20 6.40 -18.60 6.40 -3 0 -5.40 1.20 -5.40 2.60 0 3.60 -24.80 15.40 -32 15.40 -4.60 0 -6 0.80 -6 4 0 3 -1.40 4 -5 4 -3.20 0 -5 1.20 -5 3 0 1.60 -1.40 3 -3 3 -1.60 0 -3 1 -3 2 0 1.20 -1.40 2 -3 2 -1.60 0 -3 1 -3 2 0 1.20 -1.40 2 -3 2 -1.60 0 -3 1 -3 2 0 1.20 -1.80 2 -4 2 -2.20 0 -4 1.40 -4 3 0 1.60 -1.40 3 -3 3 -1.60 0 -3 1 -3 2 0 1.20 -1.60 2 -3.80 2 -2 0 -4.20 1.80 -4.80 4 -0.60 2.20 -2.60 4 -4.80 4 -2 0 -4.60 2 -5.60 4.60 -1.40 3 -4 4.60 -8.40 5 -5.40 0.60 -6.60 1.60 -6.60 5.20 0 6.40 -8 13.20 -15.60 13.20 -6 0 -6.40 0.60 -6.40 6.60 0 8 -5 13.40 -12.60 13.40 -4.60 0 -5.20 1 -5.80 7.60 -0.40 5.40 -1.80 8 -5 9.40 -2.60 1 -4.60 3.60 -4.60 5.60 0 2.20 -1.80 4.20 -4 4.80 -2.20 0.60 -4 2.80 -4 4.80 0 2.20 -1.40 3.80 -3 3.80 -1.60 0 -3 1.80 -3 4 0 2.20 -0.80 4 -2 4 -1 0 -2 1.40 -2 3 0 1.60 -1.40 3 -3 3 -1.60 0 -3 1.80 -3 4 0 2.20 -1.40 4 -3 4 -1.80 0 -3 1.80 -3 5 0 2.80 -0.80 5 -2 5 -1 0 -2 1.40 -2 3 0 1.60 -1.40 3 -3 3 -1.60 0 -3 1.80 -3 3.80 0 6 -2.20 10.20 -5.20 10.20 -1.60 0 -2.80 1.80 -2.80 4 0 4.60 -11.60 28.60 -14.20 29.60 -1 0.40 -1.80 2.80 -1.80 5.40 0 2.60 -1.40 6 -3 7.80 -1.60 1.60 -3 4 -3 5.20 0 1.40 -1.60 6.80 -3.40 12.20 -2.80 7.80 -4.40 9.80 -8 9.80 l-4.40 0 3.60 -10.40z" />
        <path
            d="M306.80 1606.60 c9.20 -25.60 15.20 -33.20 15.20 -19.60 0 3.80 -0.80 7 -2 7 -1 0 -2 1.60 -2 3.40 0 1.80 -1 6.40 -2.40 10 -1.80 4.80 -3.60 6.60 -7 6.60 -4.20 0 -4.40 -0.20 -1.80 -7.40z" />
        <path
            d="M321.40 1572.60 c2.40 -7 25.40 -46.60 27 -46.60 0.80 0 1.60 3.20 1.60 7 0 4.80 -1 7 -3 7 -1.60 0 -3 1.80 -3 3.80 0 6.60 -2.20 10.20 -6.20 10.20 -2.80 0 -3.80 1.40 -3.80 6 0 9.20 -4 16 -9.20 16 -3.60 0 -4.40 -0.80 -3.40 -3.40z" />
        <path
            d="M1039.20 1552.80 c-0.60 -1.80 -1.20 -4.80 -1.20 -7 0 -2 -1.40 -3.80 -3 -3.80 -1.80 0 -3 -1.80 -3 -5 0 -3.20 -1.20 -5 -3 -5 -1.60 0 -3 -1.40 -3 -3 0 -1.60 -0.80 -3 -2 -3 -1 0 -2 -1.40 -2 -3 0 -1.60 -0.80 -3 -2 -3 -1 0 -2 -3.20 -2 -7 0 -6.20 -0.60 -7 -5 -7 -4 0 -5 -1 -5 -5 0 -3.60 -1 -5 -4 -5 -3 0 -4 -1.40 -4 -4.80 0 -3.60 -1.20 -5 -4.40 -5.60 -3.80 -0.40 -4.80 -2 -5.20 -8 -0.60 -6.80 -1.20 -7.60 -6 -7.60 -7.60 0 -26.40 -18.80 -26.40 -26.40 0 -4.80 -0.80 -5.40 -7.40 -6 -6.20 -0.40 -7.80 -1.40 -8.20 -5 -0.60 -3.40 -2 -4.60 -5.60 -4.60 -3.40 0 -4.80 -1 -4.80 -4 0 -3 -1.40 -4 -5 -4 -2.80 0 -5 -0.80 -5 -2 0 -1 -1.40 -2 -3 -2 -1.60 0 -3 -1.40 -3 -3 0 -1.60 -1.80 -3 -4 -3 -3 0 -4 -1.40 -4 -5 0 -2.80 0.80 -5 1.60 -5 2.60 0 27.40 18.80 46.40 35 18 15.20 41.60 40.80 59.40 64.60 11.40 15.20 34.60 52 34.60 54.80 0 3 -9.60 1.60 -10.80 -1.60z" />
        <path
            d="M362.20 1503.80 c4.80 -6.60 14.60 -19 21.80 -27.40 l13 -15.40 0.60 6.60 c0.80 7 -3.80 14.40 -8.80 14.40 -1.40 0 -2.80 2 -3.20 4.60 -0.40 2.40 -2.60 5.20 -5 6.40 -2.60 1 -4.60 3.60 -4.60 5.40 0 2 -1.40 3.60 -3 3.60 -1.60 0 -3 1.80 -3 4 0 2.20 -0.80 4 -2 4 -1 0 -2 1.40 -2 3 0 2 -2 3 -6.20 3 l-6 0 8.40 -12.20z" />
        <path
            d="M424 1435.60 c10.80 -9.80 48 -37.60 50.40 -37.60 0.80 0 1.60 2.20 1.60 5 0 4.40 -0.80 5 -7 5 -6.20 0 -7 0.60 -7 5 0 3.60 -1 5 -4 5 -2.20 0 -4 1.40 -4 3 0 1.60 -1.60 3 -3.80 3 -2 0 -4.20 1.80 -4.80 4 -0.60 2.80 -2.80 4 -6.20 4 -3.60 0 -5.20 1 -5.20 3.60 0 5.60 -4.20 8.40 -11.80 8.40 l-7.20 -0.20 9 -8.20z" />
        <path
            d="M892 1398.40 c0 -0.80 -3.20 -2.80 -7 -4.20 -4.80 -1.60 -7 -3.80 -7 -6.40 0 -2.80 -1.40 -3.80 -6 -3.80 -7.40 0 -20 -5.80 -20 -9.40 0 -1.40 -2.20 -2.60 -5.40 -2.60 -6.40 0 -18.60 -4.20 -18.60 -6.40 0 -0.80 -1.60 -1.60 -3.60 -1.60 -2 0 -10.20 -2.20 -18.20 -5 -16.60 -5.60 -57.20 -15 -65 -15 -3.80 0 -5.20 -1 -5.20 -4 0 -2.40 1.40 -4 3.20 -4 9.20 0 56.80 11.20 77.80 18.20 32 10.80 89 39.20 89 44.20 0 0.80 -3.20 1.60 -7 1.60 -3.80 0 -7 -0.80 -7 -1.60z" />
        <path
            d="M478 1396.40 c0 -1.60 24.20 -16.40 26.60 -16.40 0.80 0 1.40 2.20 1.40 4.80 0 4.80 -3.20 7.20 -10.20 7.20 -2 0 -3.80 1.40 -3.80 3 0 2 -2.20 3 -7 3 -3.80 0 -7 -0.80 -7 -1.60z" />
        <path
            d="M4095.60 1392.60 c-2 -0.40 -3.60 -2.20 -3.60 -3.80 0 -1.60 -0.80 -2.80 -2 -2.80 -1 0 -2 -3.20 -2 -7 0 -6.60 0.40 -7 7 -7 4.60 0 7 1 7 2.80 0 3.20 4.20 5.20 11.20 5.20 4.20 0 4.80 1 4.80 7 l0 7 -9.40 -0.20 c-5.40 -0.20 -11.20 -0.60 -13 -1.20z" />
        <path
            d="M520 1374 c0 -4.60 47.80 -22.60 80 -30.20 16 -3.80 52.80 -9.60 60.60 -9.80 2 0 3.40 1.40 3.40 3.60 0 3 -3 4 -20.40 6 -11.40 1.40 -29.60 4.60 -40.60 7.40 -11 2.80 -22 5 -24.40 5 -2.60 0 -4.60 0.80 -4.60 2 0 1 -3.40 2.40 -7.40 3.20 -4.20 0.80 -8 2 -8.60 2.60 -1.60 2 -11.80 6.20 -15.20 6.20 -1.80 0 -4.40 1.40 -6 3 -3.40 3.40 -16.80 4.20 -16.80 1z" />
        <path d="M4048 1361 c0 -6.60 0.40 -7 7 -7 6.60 0 7 0.40 7 7 0 6.60 -0.40 7 -7 7 -6.60 0 -7 -0.40 -7 -7z" />
        <path
            d="M4938 1353.20 c0 -11 -0.80 -15.80 -3.20 -18.20 -2.60 -2.40 -3 -5.40 -2 -13 1.40 -10.40 -4.20 -46 -7.20 -46 -0.80 0 -1.60 -2.80 -1.60 -6.20 0 -9.20 -4.20 -24 -7.20 -25.20 -1.80 -0.60 -2.80 -4.20 -2.80 -9.80 0 -4.80 -0.80 -8.80 -2 -8.80 -1 0 -2 -2.20 -2 -4.80 0 -6.20 -17.20 -47.60 -20.80 -50.40 -1.60 -1 -3.60 -4.40 -4.20 -7.40 -1 -4 -2.60 -5.40 -6.20 -5.40 -4.40 0 -4.80 -0.80 -4.80 -10 0 -5.80 -1 -10.40 -2.60 -11.40 -1.40 -0.80 -3.80 -5.40 -5.40 -10 -2.40 -7.80 -3.20 -8.60 -9.40 -8.60 -6.40 0 -6.60 -0.20 -6.60 -8 0 -5.40 -0.80 -8 -2.80 -8 -1.60 0 -3.20 -3 -3.80 -7.40 -0.80 -4.60 -3 -8.60 -5.40 -10.20 -2.20 -1.40 -4 -3.60 -4 -5 0 -1.40 -1.80 -3.60 -4 -5 -2.20 -1.40 -4 -3.40 -4 -4.60 0 -1.20 -2.60 -4.40 -6 -7.20 -3.20 -2.60 -6 -6.20 -6 -7.80 0 -1.60 -2 -2.80 -5 -2.80 -3.20 0 -5 -1.20 -5 -3.20 0 -1.80 -5 -8.20 -11 -14.40 -6 -6.20 -11 -12.40 -11 -13.80 0 -1.40 -2.20 -2.60 -5 -2.60 -2.80 0 -5 -0.80 -5 -2 0 -1 -2.20 -2 -5 -2 -3.60 0 -5 -1 -5 -4 0 -2.20 -1.20 -4 -2.80 -4 -1.60 0 -3.40 -2.20 -4 -5 -1 -4.20 -2.40 -5 -9.20 -5 -7.60 0 -8 -0.40 -8 -6 0 -3.20 -1 -6 -2.20 -6 -1.20 0 -4.60 -1.80 -7.60 -3.80 -3 -2.20 -8.60 -4.40 -12.80 -5.20 -5.20 -1 -7.40 -2.40 -7.40 -5 0 -1.80 -3.20 -5 -7 -7.20 -3.80 -2 -7 -4.40 -7 -5.20 0 -0.80 -4.40 -0.80 -10 -0.20 -9.60 1.20 -10 1 -10 -3.60 0 -4.60 -0.60 -4.80 -8 -4.20 -7 0.80 -8 0.40 -8 -3.40 0 -2.80 -1.20 -4.20 -4 -4.20 -2.20 0 -4 -1.20 -4 -2.80 0 -3.60 -4.40 -5.20 -14.20 -5.20 -5.60 0 -7.80 -0.80 -7.80 -3 0 -4 -8 -7 -18.20 -7 -5.40 0 -7.80 -0.80 -7.80 -2.80 0 -3.40 -10 -6 -21.40 -5.40 -6.60 0.20 -8.60 -0.40 -8.60 -2.80 0 -1.60 -0.40 -3 -0.80 -3 -0.60 0 -11.60 -1.80 -24.60 -4 -13 -2.20 -27 -4 -31 -4 -6.20 0 -7.60 -0.80 -7.60 -4 0 -5 2.60 -5 32.40 -0.80 95.20 13.20 188 59.80 258.40 129.60 86.40 85.80 138 198.80 146.40 321.80 1.40 19 1.20 19.40 -3 19.40 -4 0 -4.20 -1 -4.20 -14.80z" />
        <path
            d="M4021.60 1364.60 c-2.60 -0.60 -3.60 -3 -3.60 -7.80 0 -6 0.60 -6.80 5.60 -6.80 11.40 0 14.40 2 14.40 9.20 0 6.40 -0.40 6.80 -6.40 6.60 -3.60 -0.20 -8.20 -0.60 -10 -1.20z" />
        <path
            d="M3982 1355.80 c-9.40 -2 -22.60 -4.20 -29.40 -5 -10.40 -1.20 -12.60 -2 -12.60 -5 0 -2.20 1.20 -3.80 2.60 -3.80 3.60 0 49 7.60 57.80 9.80 8.60 2 7.60 4.80 11.60 -30.80 19.40 -177.20 138 -333 302.80 -397.80 28 -11.20 67.60 -21.60 98.60 -26 29.20 -4.20 32.60 -4.20 32.60 0.60 0 3.20 -2.20 3.80 -15.40 5 -28.20 2.60 -74.60 13.40 -74.60 17.20 0 1.20 -2.80 2 -6.20 2 -8.80 0 -22 4.20 -23.20 7.40 -0.60 1.40 -3.60 2.60 -6.80 2.60 -7.20 0 -45.80 17.80 -45.80 21 0 1.40 -4 3.60 -9 4.80 -5 1.20 -9 3.20 -9 4.20 0 1.20 -1.40 2 -3 2 -1.80 0 -5.20 2.20 -7.60 4.80 -2.40 2.60 -7.40 5.40 -10.80 6 -3.60 0.80 -6.60 2.40 -6.60 3.40 0 1 -1.20 1.80 -2.80 1.80 -1.60 0 -3.20 2 -3.60 4.60 -0.40 2.80 -2.20 4.60 -5 5 -2.60 0.40 -4.60 2 -4.60 3.60 0 1.60 -1.40 3.40 -3 4 -1.60 0.80 -3 2.40 -3 4 0 1.60 -2 2.80 -4.40 2.80 -8.60 0 -13.60 2.40 -13.60 6.20 0 2.20 -1.40 3.80 -3 3.80 -1.80 0 -3.60 1.40 -4.20 3 -0.80 1.80 -3.80 3 -8 3 -5.80 0 -6.80 0.60 -6.80 4.60 0 2.60 -2.20 6.80 -5 9.40 -2.80 2.60 -5 5.80 -5 7.40 0 1.40 -1.40 2.60 -3 2.60 -1.60 0 -3 1.40 -3 3 0 1.80 -1.80 3 -5 3 -3.60 0 -5 1 -5 3.60 0 4.20 -5.80 10.40 -9.60 10.40 -1.40 0 -2.40 1.60 -2.40 3.60 0 2 -3 7 -6.80 11 -3.80 4.20 -7.40 8.80 -8 10.40 -0.60 1.60 -2 3 -3.20 3 -1 0 -2 1.80 -2 3.80 0 5.60 -2.20 10.20 -4.80 10.20 -2.40 0 -3.40 1.20 -17.60 24.80 -5.20 8.80 -9.60 18 -9.60 20.60 0 2.80 -1.20 4.60 -3 4.60 -2.20 0 -3 2.20 -3 8 0 6.40 -0.80 8 -3.60 8 -4.60 0 -14.40 22.20 -14.40 32.40 0 5.20 -1.20 8 -3.80 9.40 -4 2.20 -7.20 10.20 -4 10.20 1 0 1.80 3.20 1.80 7 0 5.60 -0.80 7 -3.80 7 -5.40 0 -6.80 3 -6.40 14.40 0.20 7 -0.40 9.60 -2.60 9.60 -3.40 0 -5.20 6 -5.20 17.60 0 4.60 -0.80 8.40 -1.80 8.40 -2.40 0 -5.20 18.80 -4.40 30.60 0.40 5.40 -0.20 9.40 -1.40 9.40 -1.20 0 -2.80 7.20 -3.60 16 l-1.40 16 -8.20 -0.20 c-4.40 -0.20 -15.80 -2 -25.20 -4z" />
        <path
            d="M3868 1345.20 c0 -3.20 6 -5.20 15.60 -5.20 5 0 6.40 0.80 6.40 4 0 3.60 -1.40 4 -11 4 -8 0 -11 -0.80 -11 -2.80z" />
        <path
            d="M3910 1344 c0 -3.20 1.40 -4 6.60 -4 9.40 0 15.40 2 15.40 5.20 0 2 -3 2.80 -11 2.80 -9.60 0 -11 -0.40 -11 -4z" />
        <path d="M716 1338 c0 -4.20 4.60 -5.20 13.60 -2.80 8.20 2.20 5.20 6.80 -4.60 6.80 -7.60 0 -9 -0.60 -9 -4z" />
        <path
            d="M4466.60 900.60 c-12.20 -0.60 -16.60 -1.40 -16.60 -3.40 0 -3.80 6.60 -5.20 26 -5.20 19.20 0 26 1.40 26 5 0 3 -6.80 5.20 -14 4.60 -2.80 -0.20 -12.40 -0.80 -21.40 -1z" />
        <path
            d="M1144 752.60 c0 -3.60 1.80 -4.20 16.60 -5.40 9 -0.60 18.80 -1.80 22 -2.40 4 -1 5.40 -0.40 5.40 1.60 0 2.20 -4.20 3.80 -15.40 5.40 -8.60 1.40 -18.60 3 -22 3.60 -5.60 0.80 -6.60 0.40 -6.60 -2.80z" />
        <path
            d="M1200 745.20 c0 -2.60 5.80 -5.20 12 -5.20 3.60 0 0.60 2.60 -6.40 5.60 -4.60 1.80 -5.60 1.80 -5.60 -0.40z" />
        <path
            d="M1348 697.20 c-6 -2.40 -20.80 -7.80 -32.60 -12 -17.80 -6 -23.20 -7.20 -30.60 -6 -11 1.60 -29.20 -0.60 -34 -4.20 -2.20 -1.40 -3.40 -3.20 -2.80 -3.80 0.60 -0.60 14.80 -0.20 31.80 0.60 22.80 1.20 31 2.20 32.40 4.40 1.40 2.20 1.80 1.80 1.80 -1.60 0 -3.40 -1.40 -4.40 -6.40 -5 -6 -0.60 -6.60 -1.20 -7.20 -8 -0.40 -4.40 0.20 -7.60 1.40 -7.60 1.20 0 2.20 -3.20 2.20 -7 0 -6.60 0.40 -7 6.20 -7 l6.20 0 -5.20 6.80 c-2.80 3.80 -5.20 8 -5.20 9.40 0 1.40 3.80 6.20 8.60 10.80 4.60 4.40 9.40 9.60 10.40 11.40 1.20 2 11.60 7.60 23.40 12.20 11.80 4.80 21 9.40 20.20 10 -2.40 2.40 -9.40 1.20 -20.60 -3.40z" />
        <path
            d="M1220.20 659.40 c-13.20 -5.40 -15.40 -9.40 -5.40 -9.40 4 0 7.20 1 7.20 2 0 1.20 2.20 2 5 2 4 0 5 1 5 5 0 2.80 -0.20 5 -0.40 5 -0.40 -0.20 -5.40 -2.20 -11.40 -4.60z" />
        <path
            d="M1204 639 c0 -4.80 1 -7 3 -7 1.60 0 3 1.40 3 3 0 4.60 14.40 4 20.20 -0.80 l4.80 -3.80 -3.60 -9.80 c-6.20 -16.20 -6.40 -18.60 -1.60 -18.60 3.40 0 4.20 1.20 4.20 7 0 5.20 0.80 7 3.20 7 2.80 0 3.20 1.80 2 12.40 -0.80 7 -1.80 13 -2.20 13.40 -1.40 1.40 -17.80 4 -25.40 4.20 -7.40 0 -7.60 -0.20 -7.60 -7z" />
        <path
            d="M1314 633 c0 -2.80 1 -9 2.40 -14 1.80 -6.60 3.40 -9 6.20 -9 3.40 0 3.60 1 2.40 7.60 -3 16.20 -11 27.40 -11 15.40z" />
        <path
            d="M1322 596.80 c0 -7.40 4.20 -22.80 6.20 -22.80 1 0 1.80 -1.80 1.80 -4 0 -3 1.40 -4 5 -4 5.80 0 6.20 1.40 2 7.20 -1.60 2.40 -4.40 9.80 -6.20 16.60 -3.60 12.40 -8.80 16.80 -8.80 7z" />
        <path
            d="M1260 585.20 c0 -1.40 1.60 -3.20 3.60 -3.80 1.80 -0.40 5 -1.60 7 -2.40 2.80 -1.20 3.40 -0.40 3.40 3.80 0 4.60 -0.80 5.20 -7 5.20 -4.60 0 -7 -1 -7 -2.80z" />
        <path
            d="M1234 581.20 c0 -4.80 6 -20.20 8.60 -22.20 1.40 -1 3.20 -3.60 4 -5.40 0.60 -2 2.60 -3.60 4.40 -3.60 3 0 4.20 5.20 3.40 16.60 -0.40 4.20 0.40 5.40 3.80 5.40 2.80 0 3.80 1 3.40 3.40 -1 5.20 -7.60 5.80 -7.60 0.80 0 -2.40 -1.20 -4.20 -2.80 -4.20 -1.60 0 -3.40 -2 -3.80 -4.40 l-0.80 -4.60 -0.40 4.60 c0 2.40 -1 4.40 -2.20 4.40 -1 0 -2 2.80 -2 6 0 4.60 -0.80 6 -4 6 -2.20 0 -4 -1.20 -4 -2.80z" />
        <path
            d="M1284.60 564.60 c2.80 -4.20 7.20 -11.80 10.20 -17 6.20 -11.20 14.20 -21 19.40 -23.80 3.20 -1.60 3.80 -1.20 3.80 2.20 0 2.60 -1.40 4 -4 4 -3.20 0 -4 1.40 -4 6 0 4.60 -0.80 6 -4 6 -3 0 -4 1.40 -4 5 0 5.60 -6 19 -8.40 19 -0.80 0 -1.60 1.40 -1.60 3 0 2 -2 3 -6 3 l-6 0 4.60 -7.40z" />
        <path
            d="M1338 557.20 c0 -3.40 9.80 -6.20 12.60 -3.40 3 3 -0.40 6.20 -6.80 6.20 -3.60 0 -5.80 -1 -5.80 -2.80z" />
        <path
            d="M1330 550.20 c0 -3.20 9 -7 13.20 -5.40 4.60 1.80 1.40 4.80 -6.80 6.40 -4.20 0.80 -6.40 0.60 -6.40 -1z" />
        <path
            d="M1314.40 541.40 c0.40 -5.80 1 -6.60 6.40 -7 4.80 -0.40 5.60 0 3.60 2 -4.40 4.40 -2.60 5.80 3.80 2.60 3.40 -1.80 7.60 -3 9.40 -2.60 5 1 -12.20 11.60 -18.60 11.60 -4.60 0 -5 -0.80 -4.60 -6.60z" />
    </g>
    <g fill="#b3cddb">
        <path
            d="M810 2701 c0 -1.60 1.40 -3 3 -3 2.60 0 3 -28.60 3 -244.60 0 -218.60 -0.40 -245.80 -3.20 -255.40 -4.40 -15.20 -3 -138.40 2 -170 4.60 -28.40 13.80 -64.60 22.60 -87.80 9.20 -24.60 24.60 -58.20 26.80 -58.20 1 0 1.80 -1.20 1.80 -2.60 0 -4 19.40 -34.40 36 -56.40 18 -23.80 50.40 -56.40 75 -75 21.80 -16.60 21 -14.80 15.20 -43.40 -9.20 -44.60 -30.40 -93.80 -55.40 -128.80 -58.40 -81.60 -152.40 -132.20 -246 -132.20 -135.40 0.20 -259.20 99.80 -297 239.20 -9.20 34.40 -10.20 44.80 -11.20 128.80 l-1 80.40 4.20 0 c6.80 0 5 5.80 -2.40 6.80 -3.40 0.60 -13.60 2 -22.40 3.20 -18.40 2.60 -48.60 9.80 -65.80 15.80 -6.60 2.40 -12.60 4.20 -13.60 4.20 -1.20 0 -1.60 -43.60 -1.20 -106.40 0.80 -117.60 1.40 -124 15.40 -174 35.60 -126.40 127.80 -230.80 246.60 -278.80 196.40 -79.40 417.60 9.20 514.60 206.20 14.60 29.40 28.60 70 35 101 2.40 11.60 5.80 22.40 7.60 24 1.60 1.60 2.40 2 1.60 0.60 -0.80 -1.40 0.20 -3.20 2.20 -4.20 6 -3 42.20 -12 63.60 -15.80 27.80 -4.80 94.20 -4.80 122 0 64.80 11.20 118 33.20 171.40 71 8.60 6 15 12 14.20 13 -0.60 1.20 -0.20 1.40 0.80 0.80 2.80 -1.80 33.80 25.80 50.80 44.80 24 27.20 52.40 66.80 52.40 73.20 0 1.40 0.80 2.60 1.60 2.60 2.80 0 10 16 8.60 18.40 -0.80 1.40 -0.60 1.60 0.80 0.80 2.20 -1.20 2.60 -0.40 2.40 3.80 -0.20 0.60 1.20 2.60 3 4.40 1.80 1.60 2.80 4.40 2.20 6 -0.60 1.60 -0.40 2.40 0.40 1.80 2.80 -1.80 23.40 51.40 21.40 54.80 -0.60 1 -0.20 2 0.60 2.40 4 1.40 15.40 57 18 86.60 0.60 8.80 1.60 156.20 1.80 327.60 0.60 272.60 1 311.40 3.60 311.40 1.60 0 3 1.40 3 3 0 2.60 -12.80 3 -104 3 l-104 0 0 -306.40 c0 -333.60 0.20 -323.40 -11.20 -360 -14.60 -46.40 -47.60 -91 -87 -117.60 -17.20 -11.80 -45.60 -24.80 -65.80 -30.20 -24.40 -6.60 -67.60 -6.60 -92 0 -70.60 19 -127.80 73.80 -151.80 145.40 -12.60 37.40 -12.20 25.60 -12.20 362.40 l0 306.40 -104 0 c-91.20 0 -104 -0.40 -104 -3z" />
        <path
            d="M3442 2701 c0 -1.60 1.40 -3 3 -3 2.60 0 3 -51.40 3 -450.40 0 -291.40 0.80 -459 2 -474.60 19.20 -224 183 -400.80 398 -429.20 23.80 -3.20 83.40 -3.20 106 0 9.40 1.40 25.40 4.20 35.80 6.40 10.40 2 19 3.60 19.20 3.40 0.20 -0.40 1.40 -11 2.80 -23.60 3.20 -29.80 6.60 -50 8.40 -48.80 0.80 0.40 1 -0.80 0.60 -2.60 -1.60 -6.40 20.20 -81.60 23 -79.60 0.60 0.20 1.40 -1.40 1.40 -4 0.80 -12.20 48.60 -98.60 53 -96 1 0.80 1.20 -0.40 0.40 -2.20 -1 -2.60 -0.60 -3 1.40 -1.80 1.60 1 2.20 0.80 1.40 -0.40 -2.20 -3.60 37.80 -53.40 41.20 -51.20 1.20 0.60 1.40 0.20 0.80 -0.80 -1.60 -2.60 3.40 -7.20 5.60 -5 1 0.80 1 0.40 0.40 -0.80 -0.60 -1.20 4.20 -7.40 10.60 -13.80 6.60 -6.60 12 -11 12 -10 0 1 1.40 -0.20 3.20 -2.60 1.60 -2.40 4 -4 5 -3.20 1 0.60 1.60 0.20 1.40 -1 -0.40 -1.20 6.20 -7.60 14.40 -14.20 14.20 -11.40 20 -14.80 16.80 -9.60 -0.80 1.40 -0.60 1.60 1 0.80 1.20 -0.80 1.80 -2.20 1.20 -3.20 -1.40 -2.20 16.40 -14.60 18.80 -13 1 0.60 2.60 0 3.40 -1.20 0.80 -1.60 0.60 -1.80 -0.80 -1 -1.40 0.80 -2.40 1 -2.40 0.40 0 -1.40 11.40 -7.40 13.20 -7 0.80 0 2 -0.60 2.60 -1.60 2.40 -3.40 12.80 -9.20 11.20 -6.40 -0.60 1.60 0 1.20 1.60 -0.80 3.80 -4.60 45 -24 51.80 -24.20 2.80 -0.20 4.80 -0.80 4.40 -1.60 -1.60 -2.60 47.80 -17.20 76.60 -22.60 46.60 -8.60 112 -9 157.40 -1.20 25.80 4.60 28 5.40 25.80 8.80 -1 1.80 -0.60 1.80 1.60 0 2.40 -2 6.20 -1.60 18.40 1.60 8.40 2.40 15.40 5.20 15.40 6.20 0 1 0.80 1.40 1.80 0.80 6.60 -4.20 106.60 43.40 103 49 -0.60 1 0.60 1.20 2.40 0.40 2 -0.80 3 -0.40 2.20 0.80 -0.60 1 0 2 1.40 2 4 0 21.40 12.60 20.20 14.80 -0.60 1 0.20 1.20 1.80 0.60 1.80 -0.80 3.60 0.20 4.40 2 0.60 1.80 2.40 3.20 3.80 3.20 3.20 0 9.40 7 7.60 8.80 -0.80 0.80 0 0.80 1.60 0.20 2.20 -0.80 5.40 1.20 9.40 5.80 3.20 3.80 6.40 6.60 6.80 6.20 1.40 -1.40 42 41.20 57.20 60 8.40 10.40 14.20 19.40 13.80 21.20 -0.60 2 0.40 3.20 2.40 3 1.80 -0.20 3 1.20 3 3.20 -0.20 2 0.40 3.20 1.20 2.60 2.40 -1.40 18.40 24.80 16.80 27.40 -0.80 1.20 -0.60 1.60 0.60 1 2 -1.20 4.60 2.60 4.40 5.80 0 0.80 0.80 2 1.80 2.60 3 1.80 10.40 17.60 9 19 -0.80 0.60 -0.20 1.20 1.20 1.20 1.60 0 2.20 1.20 1.40 3.20 -0.60 1.60 -0.40 2.60 0.60 2 2.80 -1.80 25.20 51.60 23.20 55 -0.80 1 -0.40 1.80 0.60 1.80 2.40 0 15 45.20 13.40 48 -0.60 1 -0.40 2 0.60 2 1.60 0 6.40 23.20 10.80 52 1.20 9.20 2.40 67.60 3 152.60 l1 137.40 -6.80 0 c-16 0 -63.60 11 -87.60 20.20 -46 17.60 -90.80 46.60 -125 81.20 l-17 17 0 -7 c0 -5 1.20 -8 4.20 -10 4 -3 4 -3.20 3.40 -176.60 -0.80 -171.40 -0.80 -174 -5.20 -195.40 -21 -100.80 -91.40 -175.60 -188 -200 -14.40 -3.60 -22.80 -4.20 -48.40 -4.20 -26.80 0.20 -33.60 0.80 -50.60 5.40 -43.60 11.60 -78.40 32 -111.60 65.20 -30.80 30.60 -49.40 60.60 -62.80 100.80 -11.40 34 -13 48.60 -13 116.20 l0 60.20 12 14.60 c52 63.80 85.80 137 101.40 220.40 l5.40 29 0.60 477.60 0.60 477.40 -59 0 -59 0 -0.60 -463.40 c-0.80 -502.80 0 -468.40 -11.20 -512 -37.60 -146 -156.40 -251.40 -301.20 -266.80 -60.80 -6.40 -133.80 11 -191.60 46 -86 51.80 -145.80 138 -167.80 241.20 l-4.60 22 -0.60 466.60 -0.40 466.40 -60 0 c-52 0 -60 -0.40 -60 -3z" />
        <path d="M4608 1955 c0 -7.60 0.60 -9 4 -9 4.20 0 5.20 4.60 2.80 13.60 -2.20 8.20 -6.80 5.20 -6.80 -4.60z" />
        <path
            d="M4610 1938.60 c0 -2 0.60 -8.40 1.20 -14 1.20 -8.80 2 -10.60 5.20 -10.60 4 0 4.20 2.60 0.40 22.60 -1.20 6 -6.80 7.60 -6.80 2z" />
        <path d="M4616 1901 c0 -5.60 0.80 -7 4 -7 4.20 0 4.80 2 2.80 9.60 -2 7.20 -6.80 5.40 -6.80 -2.60z" />
        <path d="M453.60 1898.60 c-6.60 -1.60 -4 -6.60 3.40 -6.60 5.60 0 7 0.80 7 4 0 4 -2.80 4.60 -10.40 2.60z" />
        <path
            d="M4620 1886.60 c0 -3.20 2.40 -13.40 5.20 -23 4.80 -15.20 6 -17.60 9.80 -17.60 4.40 0 4.40 0.20 -2.80 23 -7 22 -12.20 29.60 -12.20 17.60z" />
        <path d="M4636 1837.60 c0 -8.60 2.40 -12.20 7.60 -11.20 l4.20 0.60 -3.80 8.60 c-4.60 10 -8 10.80 -8 2z" />
        <path
            d="M4658 1793 c0 -4.80 1 -7 3 -7 1.80 0 3 -1.80 3 -5 0 -2.80 1 -5 2 -5 1.20 0 2 -1.40 2 -3 0 -1.60 1.80 -3 4 -3 3.20 0 4 -1.40 4 -6 0 -3.20 1 -6 2 -6 1.20 0 2 -1.40 2 -3 0 -1.60 1.40 -3 3 -3 1.60 0 3 -1.80 3 -4 0 -2.60 1.40 -4 3.80 -4 2.80 0 4.20 -1.60 4.60 -5.40 0.60 -4.80 1.60 -5.80 7.40 -6.20 l6.80 -0.60 -3.80 4.80 c-14.40 18.40 -27.40 36.40 -35 48.80 -4.80 8 -9.40 14.60 -10.20 14.60 -1 0 -1.60 -3.20 -1.60 -7z" />
    </g>
    <g fill="#abc9bd">
        <path
            d="M3442 2702 c0 -4 1.40 -4 56.80 -4 52.60 0 57 -0.20 57.80 -3.40 0.60 -2 1 -0.20 1.20 4 l0.20 7.40 -58 0 c-56.60 0 -58 0 -58 -4z" />
        <path d="M3650 2699 c0 -6.60 0.40 -7 7 -7 6.60 0 7 0.40 7 7 0 6.60 -0.40 7 -7 7 -6.60 0 -7 -0.40 -7 -7z" />
        <path d="M4136 2699 c0 -6.60 0.40 -7 7 -7 6.60 0 7 0.40 7 7 0 6.60 -0.40 7 -7 7 -6.60 0 -7 -0.40 -7 -7z" />
        <path
            d="M4242 2699 c0 -3.80 1 -7 2 -7 1.20 0 2 1.40 2 3 0 2.60 7.20 3 53 3 45.80 0 53 -0.40 53 -3 0 -1.60 1.40 -3 3 -3 2 0 3 2.20 3 7 l0 7 -58 0 -58 0 0 -7z" />
        <path
            d="M198 2701 c0 -1.60 1.40 -3 3 -3 2.60 0 3 -22.60 3 -191.80 0 -125.60 0.80 -197.20 2.20 -207.40 8.60 -62.20 45.60 -122.80 96 -156.80 16.80 -11.60 45.40 -24.80 64.80 -30 22.80 -6.40 69.40 -7.80 93 -3 43.40 8.80 78.80 28 110.60 60 27.60 27.80 48.40 63.80 59 102.40 l5.40 19.60 0.60 203.60 c0.40 177.60 0.80 203.40 3.40 203.40 1.60 0 3 1.40 3 3 0 2.60 -7.40 3 -55 3 l-55 0 0 -191.40 c0 -214.40 0.60 -204.40 -14.40 -233.40 -19.20 -36.80 -60 -63.20 -97.60 -63.20 -44.80 0.20 -90.20 36.40 -106.40 85 l-4.60 14 -0.60 194.60 -0.60 194.40 -54.80 0 c-47.60 0 -55 -0.40 -55 -3z" />
        <path
            d="M4778 2701 c0 -1.60 1.40 -3 3 -3 2.60 0 3 -45 3.40 -370.40 l0.60 -370.60 4.60 -16 c9.20 -32.60 20.40 -55.20 38.40 -78 48.60 -61 127.80 -85.80 200 -62.60 54.20 17.40 97.80 59.20 119.60 114.80 14.40 36.20 13.20 1.20 13.80 412.40 0.60 325 1 370.40 3.60 370.40 1.60 0 3 1.40 3 3 0 2.60 -6.80 3 -49 3 l-49 0 0 -360.40 c0 -310.80 -0.40 -362.40 -3 -373.20 -10.80 -45.40 -52 -80.80 -94 -80.80 -42.20 0.20 -83.20 35.40 -94 80.80 -2.60 10.80 -3 62.40 -3 373.20 l0 360.40 -49 0 c-42.20 0 -49 -0.40 -49 -3z" />
        <path
            d="M814.40 2203 c-0.60 -4.20 -15.20 -44.20 -21.20 -57.40 -3.20 -7.60 -3.20 -7.60 1.40 -7.60 5 0 9.40 6.60 9.40 14 0 2.20 0.80 4 1.60 4 1 0 3.60 5.80 6.20 12.60 3.20 9.60 4.20 16 3.60 25.60 -0.40 7 -0.80 11 -1 8.80z" />
        <path
            d="M770.60 2102.40 c-8.40 -14.60 -25.60 -38.60 -45.20 -63.80 l-3.80 -4.60 6.20 0 c5.60 0 6.20 0.60 6.20 6 0 5 0.80 6 5 6 3.60 0 5 1 5 4 0 2.40 1.40 4 3.20 4 1.80 0 3.60 1.80 4.20 4 0.60 2.20 1.80 4 2.80 4 1 0 1.80 3.20 1.80 7 0 6.20 0.60 7 5 7 3.20 0 5 1.20 5 3 0 1.60 1 3 2 3 1.20 0 2 2.20 2 5 0 3.20 1.20 5 3 5 1.80 0 3 1.80 3 5 0 3 1.20 5 2.80 5 1.60 0 3.40 1.40 4 3.20 1.80 4.40 1.40 14.80 -0.40 14.80 -0.80 0 -6 -8 -11.80 -17.60z" />
        <path d="M704 2017.20 l-8.80 -9.20 7.20 0 c8.60 0 12 3.60 11.20 12 l-0.60 6.20 -9 -9z" />
        <path
            d="M669.80 1986.40 c-10.80 -8.40 -29 -21.20 -40.60 -28.40 -11.60 -7.20 -21.20 -13.60 -21.20 -14.40 0 -1 3.20 -1.60 7 -1.60 4.80 0 7 1 7 3 0 1.80 1.80 3 4.80 3 2.80 0 6.20 1.40 8 3 1.60 1.60 3.80 3 5 3 1.20 0 2.20 1 2.20 2 0 1.20 1.40 2 3 2 1.60 0 3 1 3 2 0 1.20 1.40 2 3 2 1.80 0 3 1.80 3 5 0 4.40 0.80 5 7 5 4.80 0 7 1 7 2.80 0 1.60 2 3.20 4.60 3.60 2.80 0.40 4.60 2.20 5 5.20 0.60 3.20 2 4.40 5.60 4.40 5.40 0 7.60 3.40 6.40 9.80 -0.60 3.40 -3.20 1.80 -19.80 -11.40z" />
        <path
            d="M575 1929.80 c-20.80 -9 -47.20 -17.40 -72.40 -23 -12.40 -2.60 -23 -4.80 -23.60 -4.80 -0.60 0 -1 -1.40 -1 -3 0 -3.80 7.60 -3.80 26.40 0 22.40 4.80 51.60 13.40 51.60 15.20 0 1 1.80 1.80 4 1.80 2.20 0 9.80 2.40 17 5.20 11 4.40 13 6 13 10 0 2.60 -0.20 4.80 -0.40 4.80 -0.40 -0.20 -6.80 -2.80 -14.60 -6.20z" />
        <path d="M1320 605 c0 -5.60 0.80 -7 4 -7 4.20 0 4.80 2 2.80 9.60 -2 7.20 -6.80 5.40 -6.80 -2.60z" />
    </g>
    <g fill="#a1bfcc">
        <path
            d="M3550 2702 c0 -1 1.40 -2.60 3 -3.40 2.60 -1.60 3 -58 3.40 -467.60 l0.60 -466 4.60 -22 c9 -42.20 26 -86 46.60 -120 36.80 -61 95 -112.60 158 -140.40 193 -84.80 413.40 28.20 468 240 11.20 43.60 10.40 9.20 11.20 512 0.60 406.60 1 463.60 3.60 464.60 9.60 3.80 -3 4.80 -57 4.80 l-60 0 0 -451.40 c0 -485.80 0.40 -464.60 -10 -502.60 -5.80 -21 -25.60 -60.60 -39.80 -79.20 -39.80 -53 -96.60 -86.60 -160.20 -94.80 -36.40 -4.80 -78.20 3 -115 21.40 -69.40 34.60 -114.20 92.60 -133.60 173.60 l-4.20 18 -0.60 457.60 -0.60 457.40 -59 0 c-36 0 -59 -0.80 -59 -2z" />
        <path
            d="M4346 2702 c0 -1 1.40 -2 3 -2 2.60 0 3 -52.40 3 -459 0 -457.60 0 -459 4 -459 4 0 4 1.40 4 461 l0 461 -7 0 c-3.80 0 -7 -0.80 -7 -2z" />
        <path
            d="M1436 2085.20 c0 -7 -1 -12 -3 -14 -2 -1.80 -3 -6.20 -2.80 -11.60 0.40 -9.60 -8.80 -39.80 -13.40 -44.40 -3.80 -4 -3.80 -15.20 0.20 -15.20 6.20 0 18.80 35 24 66.60 4 25.20 4 29.40 -1 29.40 -3.60 0 -4 -1.40 -4 -10.80z" />
        <path
            d="M1012.80 2081.60 c2.40 -20.80 7.20 -41.60 13.80 -59.40 8 -21.20 11.40 -23 11.40 -6.40 0 9 -0.80 12.20 -2.80 12.20 -3 0 -5.20 6 -5.20 14.60 0 3.20 -1.20 7 -2.80 8.40 -1.60 1.60 -3.40 7.40 -4 13 -0.60 5.40 -1.80 14.60 -2.40 20 -1 8.40 -1.80 10 -5.20 10 -3.80 0 -4 -0.80 -2.80 -12.40z" />
        <path d="M1104 2079 c0 -6.60 0.40 -7 7 -7 6.60 0 7 0.40 7 7 0 6.60 -0.40 7 -7 7 -6.60 0 -7 -0.40 -7 -7z" />
        <path d="M1338 2079 c0 -6.60 0.40 -7 7 -7 6.60 0 7 0.40 7 7 0 6.60 -0.40 7 -7 7 -6.60 0 -7 -0.40 -7 -7z" />
        <path d="M755.60 2078 l-5.60 -7 5.20 -0.60 c6.60 -0.80 7.20 -0.20 6.40 7.80 l-0.60 6.80 -5.40 -7z" />
        <path
            d="M810 2068 c0 -8.60 0.60 -10 4 -10 3 0 4 1.40 4 5.60 0 8.40 -2.20 14.40 -5.20 14.40 -2 0 -2.80 -2.80 -2.80 -10z" />
        <path
            d="M1112 2053 c0 -3.80 1 -7 2 -7 1.20 0 2 -1.80 2 -4 0 -3.20 1.40 -4 7 -4 6.60 0 7 0.40 7 7 0 3.80 -0.80 7 -2 7 -1 0 -2 1.80 -2 4 0 3.20 -1.40 4 -7 4 -6.60 0 -7 -0.40 -7 -7z" />
        <path
            d="M1330 2056 c0 -2.20 -0.80 -4 -2 -4 -1 0 -2 -1.80 -2 -4 0 -2.20 -0.80 -4 -2 -4 -1 0 -2 -3.20 -2 -7 0 -6.60 0.40 -7 7 -7 5.60 0 7 0.80 7 4 0 2.20 1 4 2 4 1.20 0 2 1.80 2 4 0 2.20 1 4 2 4 1.20 0 2 3.20 2 7 0 6.60 -0.40 7 -7 7 -5.60 0 -7 -0.80 -7 -4z" />
        <path
            d="M812 2049.20 c0 -20.20 19 -103.20 24 -104.80 1.20 -0.40 2 -2.40 2 -4.60 0 -2 2.40 -9.60 5.20 -16.80 4.40 -11 6 -13 10 -13 4.80 0 4.80 0 1.60 7.60 -15.20 34.80 -28 78.20 -32.80 110.40 -1.20 8.20 -2.60 18 -3.20 21.60 -1.40 8.80 -6.80 8.60 -6.80 -0.40z" />
        <path
            d="M1130 2024.20 c0 -9.80 1.80 -12.20 9.20 -12.20 6.60 0 6.80 -0.20 6.80 -8.80 l0 -8.60 9.20 -1.40 c16.20 -2.20 16.80 -2 16.80 5.80 0 6 -0.60 7 -4.80 7 -3.20 0 -5.40 1.40 -6.20 4 -1 3 -3 4 -8.20 4 -5.80 0 -6.80 0.60 -6.80 4.80 0 8.80 -2 11.20 -9.20 11.20 -6.20 0 -6.80 -0.60 -6.80 -5.80z" />
        <path
            d="M1297.40 2014.60 c-0.80 -0.60 -1.40 -4.20 -1.40 -8 0 -5.20 -0.80 -6.60 -4 -6.60 -3.20 0 -4 -1.40 -4 -7 0 -6.60 0.40 -7 7 -7 6.60 0 7 0.40 7 6.80 0 5.60 0.80 7 4.60 7.60 3.60 0.40 4.60 2 5 8.20 0.60 7.20 0.40 7.40 -6.20 7.40 -3.60 0 -7.40 -0.60 -8 -1.40z" />
        <path
            d="M1038 1996.60 c0 -4.80 21 -35.40 32.80 -48 7.80 -8.60 11.20 -8.40 11.20 0.40 0 5.60 -0.80 7 -4 7 -2.60 0 -4.40 1.80 -5.20 5 -0.60 2.80 -2.20 5 -3.20 5 -3.20 0 -7.60 5.60 -7.60 9.80 0 2.40 -1.20 4.20 -2.80 4.20 -3 0 -5.20 4.20 -5.20 10.20 0 2 -1.40 3.80 -3 3.80 -1.60 0 -3 1 -3 2 0 1.20 -2.20 2 -5 2 -2.80 0 -5 -0.60 -5 -1.40z" />
        <path
            d="M1180 1987 c0 -6.40 0.40 -7 6.20 -7 3.40 0 7.40 -1.20 8.80 -2.40 7.40 -6.80 9.40 -7.60 16 -7.60 6.60 0 7 0.40 7 7 0 3.80 -1 7 -2.20 7 -1.20 0 -3.40 1.40 -5 3 -1.80 1.60 -6.20 3 -10 3 -3.80 0 -6.80 1 -6.80 2 0 1.20 -3.20 2 -7 2 -6.60 0 -7 -0.40 -7 -7z" />
        <path
            d="M1404.80 1989 c-0.60 -2.80 -2 -5 -3 -5 -1 0 -1.80 -1.40 -1.80 -3 0 -1.60 -0.80 -3 -2 -3 -1 0 -2 -1.80 -2 -4 0 -3 -1.40 -4 -5 -4 -3.60 0 -5 -1 -5 -4 0 -2.60 -1.40 -4 -4 -4 -3.20 0 -4 -1.40 -4 -6.80 0 -11 4.80 -10.60 14.40 1.40 9.60 12.20 23.60 33.20 23.60 35.80 0 0.80 -2.20 1.60 -5 1.60 -3.60 0 -5.20 -1.40 -6.20 -5z" />
        <path
            d="M1242.60 1988.60 c-6 -0.80 -6.60 -1.40 -6.60 -7.80 0 -7.60 0.60 -7.80 16.80 -5.60 8.80 1.20 9.20 1.60 9.20 8 0 7.40 -1 7.60 -19.40 5.40z" />
        <path
            d="M652 1972 l-7 -5.80 7.60 -0.20 c7 0 7.40 0.40 7.40 6 0 3.40 -0.20 6 -0.60 6 -0.20 0 -3.60 -2.60 -7.40 -6z" />
        <path d="M4608 1950 c0 -6.60 0.60 -8 4 -8 4.20 0 5 3.20 2.80 11.60 -2.20 7.80 -6.80 5.40 -6.80 -3.60z" />
        <path
            d="M4610 1934.20 c0 -3.40 1.80 -15.20 4 -26.60 2 -11.40 4.40 -25.40 5.20 -31 0.80 -7 2.20 -10.60 4 -10.60 2 0 2.80 -2.60 2.80 -8.40 0 -4.80 0.60 -12 1.20 -16 1.20 -6.60 2 -7.60 6.60 -7.60 5 0 5.20 -0.40 4.60 -8 -0.60 -5 0 -8 1.40 -8 1.20 0 2.20 -1.80 2.20 -4 0 -2.20 1 -4 2 -4 1.20 0 2 -1 2 -2.20 0 -1.20 1.40 -3.40 3 -5 1.60 -1.80 3 -6.20 3 -10 0 -5.40 0.80 -6.80 4 -6.80 2.20 0 4 -0.80 4 -2 0 -1 1.40 -2 3 -2 2.20 0 3 -2.20 3 -8 0 -6.60 0.60 -8 4 -8 2.20 0 4 -1.40 4 -3 0 -1.60 1 -3 2 -3 1.20 0 2 -1.40 2 -3 0 -1.60 1.40 -3 3 -3 2.20 0 3 -2.20 3 -7.80 0 -7.80 0 -8 9 -9.40 8.60 -1.20 9 -1.60 9 -8 0 -3.80 0.80 -6.80 1.80 -6.80 1 0 2.20 -1.80 2.80 -4 0.60 -2.40 2.80 -4 5.20 -4 l4.20 0 0 -171 c0 -144.20 0.40 -171 2.80 -171 1.40 0 3.20 2 4 4.60 0.60 2.40 1.20 79.60 1.20 171.40 l0 167 -15.20 17 c-47.80 53.80 -79.20 122.40 -91.80 200.60 -1.40 9.20 -7 10.40 -7 1.60z" />
        <path
            d="M1090 1929.60 c9.40 -8.40 37.20 -27.60 40.20 -27.60 1 0 1.80 3 1.80 6.80 0 6.20 -0.60 6.80 -8 8 -4.40 0.60 -8 2.20 -8 3.20 0 1.20 -1.40 2 -3 2 -1.80 0 -3 1.80 -3 5 0 4 -1 5 -4.80 5 -2.60 0 -5.80 1.40 -7.20 3 -1.40 1.60 -5.60 3 -9.80 3 l-7.20 -0.20 9 -8.20z" />
        <path
            d="M1357 1934 c-0.60 -1 -2.80 -2 -5 -2 -2.20 0 -4 -2 -4.80 -5 -0.80 -2.80 -2.60 -5 -4.20 -5 -1.60 0 -3 -0.80 -3 -2 0 -1 -1.40 -2 -3 -2 -1.60 0 -3 -0.80 -3 -1.60 0 -0.80 -3.20 -2.80 -7 -4.20 -5.40 -1.80 -7 -3.60 -7 -7.40 0 -2.60 0.80 -4.80 1.60 -4.80 4.60 0 42.40 25.80 48.60 33.20 1.80 2.40 1.20 2.80 -4.80 2.80 -4 0 -7.80 -0.80 -8.40 -2z" />
        <path
            d="M1136 1904.20 c0 -5 1.40 -6.20 12 -11 13 -5.40 36.80 -12 52.60 -14.20 8.60 -1.40 9.40 -1.20 9.40 2.80 0 3.40 -1.20 4.20 -6.20 4.20 -4.40 0 -6.40 1 -7.20 4 -0.80 3 -2.80 4 -7.80 4 -3.80 0 -6.80 -0.80 -6.80 -1.80 0 -2.40 -24.20 4.20 -28.40 7.80 -2 1.60 -3.60 4.40 -3.60 6.40 0 2.80 -1.60 3.60 -7 3.60 -6.40 0 -7 -0.60 -7 -5.80z" />
        <path
            d="M463 1899.60 c-6.60 -1 -29 -1.40 -49.60 -1.20 l-37.80 0.60 1 -87 c0.80 -65.20 1.80 -91 4 -103.20 23 -124 104 -219.80 217 -256.80 32.80 -10.60 57.40 -14.40 93.40 -14.40 56 -0.20 105.20 13.20 153 41.60 54.20 32 96 77.40 125 135.80 19.20 38.60 27.40 66.60 33.80 114.40 l1.20 8.20 -20.80 16.20 c-40.60 31.40 -78 73.60 -104.60 118.60 -6.40 10.80 -12.20 19.60 -13 19.60 -1.80 0 -2 -10.40 -0.40 -14.80 0.60 -1.80 2.40 -3.20 4 -3.20 1.60 0 2.80 -2 2.80 -5 0 -3.20 1.20 -5 3 -5 1.80 0 3 -1.80 3 -5 0 -2.80 1 -5 2 -5 1.20 0 2 -1.40 2 -3 0 -1.60 1 -3 2 -3 1.20 0 2 -1.40 2 -3 0 -1.60 1.40 -3 3 -3 1.60 0 3 -1.80 3 -4 0 -2.20 1 -4 2 -4 1.20 0 2 -1.40 2 -3 0 -1.60 1 -3 2.20 -3 1.60 0 2 -14 1.40 -47.40 -0.80 -43.40 -1.40 -49.40 -6.20 -67.20 -22 -82.20 -87.80 -146.20 -167.20 -162.20 -24.40 -5 -36.80 -5.40 -59 -2.20 -45.40 6.80 -82.20 24.80 -115.80 56.80 -37.40 35.60 -60.80 80.80 -68.60 132.20 -2 13.80 -2.80 38.80 -2.80 91.60 0 56.60 -0.60 72.40 -2.40 72.20 -1.40 -0.20 -8 -1.20 -14.60 -2.20z" />
        <path
            d="M1294.60 1897.40 c-7.60 -3.20 -10.60 -5.40 -10.60 -8.20 0 -3 1 -3.40 5.60 -2.60 8.80 1.80 28.40 11 28.40 13.20 0 3.40 -12.20 2.20 -23.40 -2.40z" />
        <path
            d="M1257.60 1887.40 c-9.40 -1.60 -11.60 -2.80 -11.60 -6 0 -3.40 1 -3.80 9.60 -2.40 16.80 2.40 26.40 5.40 26.40 8.20 0 3.20 -7 3.20 -24.40 0.20z" />
        <path
            d="M4351.20 1769.60 c-6.40 -45.60 -12.40 -77 -19.20 -99.20 -18 -59.60 -48.20 -116.20 -88.20 -164.80 -11.60 -14.40 -11.80 -14.60 -6.60 -15.20 5.20 -0.80 12.80 4.40 12.80 8.40 0 1.20 1.80 3.40 4 4.80 2.20 1.40 4 3.80 4 5.40 0 1.60 0.80 3 2 3 1 0 4 3.20 6.40 7 2.60 3.80 6.20 7 8.20 7 2.60 0 3.40 1.60 3.40 7 0 3.80 1 7 2 7 1.20 0 2 1.40 2 3 0 1.80 1.80 3 5 3 4.20 0 5 1 5 5.40 0 5.20 9.20 26.20 12.40 28.60 0.80 0.60 4.60 8.20 8.60 17 4 8.80 8 16.40 9 17 0.80 0.60 2 3.20 2.20 6 0.60 3.40 2.20 5.20 5.60 5.60 4.40 0.60 4.60 1.40 3.60 9.60 -0.60 6.60 0.60 13.80 4.80 26.80 9 28.20 19.80 86.40 19.80 107.40 0 9 -5.40 9 -6.80 0.20z" />
        <path d="M4334 1383 c0 -6.60 0.40 -7 7 -7 6.60 0 7 0.40 7 7 0 6.60 -0.40 7 -7 7 -6.60 0 -7 -0.40 -7 -7z" />
        <path d="M4336 1365 c0 -6.60 0.40 -7 7 -7 6.60 0 7 0.40 7 7 0 6.60 -0.40 7 -7 7 -6.60 0 -7 -0.40 -7 -7z" />
        <path
            d="M4603.20 1362.60 c-2.40 -15.20 -2 -16.60 5.80 -16.60 6.20 0 7 0.60 7 5 0 2.80 1 5 2 5 1.20 0 2 3.20 2 7 0 6.80 -0.20 7 -7.80 7 -7.40 0 -7.80 -0.40 -9 -7.40z" />
        <path
            d="M4232 1363.20 c0 -19.40 13.80 -69.20 26.20 -93.60 8.20 -16.40 25.40 -42.40 34.60 -52.60 l7.20 -8 -0.40 8 c-0.60 6.60 -1.40 8.20 -5 8.60 -3.40 0.60 -4.60 2 -4.60 5.60 0 2.60 -0.80 4.80 -2 4.80 -1 0 -2 3.40 -2 7.80 0 7.20 -0.40 7.80 -7 9 -5.80 1.20 -7 2.20 -7 6.20 0 2.80 -0.80 5 -2 5 -1 0 -2.40 4.60 -3.20 10 -0.80 6.40 -2.20 10 -4 10 -2 0 -2.80 2.60 -2.80 8 0 5.80 -0.80 8 -3 8 -1.60 0 -3 1.80 -3 4 0 2 -1.20 4.60 -2.60 5.40 -2.60 1.60 -11.40 42.80 -11.40 53.20 0 4 -1 5.40 -4 5.40 -2.80 0 -4 -1.40 -4 -4.80z" />
        <path
            d="M4714 1355 c0 -4.40 -1.20 -7.60 -3 -8.20 -2 -0.80 -2.80 -4.40 -2.80 -12.40 0 -6.60 -1.60 -16.40 -4 -23.20 -2.40 -6.60 -4.20 -13 -4.20 -14.60 0 -1.60 -1.40 -4.20 -3 -5.80 -3.80 -3.80 -4.20 -17.40 -0.40 -16.40 4.20 1.40 15.80 33.60 20.60 57.60 5.80 28.40 5.80 30 0.80 30 -3.20 0 -4 -1.40 -4 -7z" />
        <path
            d="M4338 1341 c0 -4.80 1 -7 3 -7 1.60 0 3 -1.40 3 -3 0 -2 2.20 -3 7 -3 6.40 0 7 0.60 7 5.60 0 12.20 -1.80 14.40 -11.20 14.40 -8.80 0 -8.80 0 -8.80 -7z" />
        <path
            d="M4594 1332 c0 -2.20 -0.80 -4 -2 -4 -1 0 -2 -3.20 -2 -7 0 -6.60 0.40 -7 7 -7 5.60 0 7 0.80 7 4 0 2.20 1 4 2 4 1.20 0 2 3.20 2 7 0 6.60 -0.40 7 -7 7 -5.60 0 -7 -0.80 -7 -4z" />
        <path d="M4354 1305 c0 -6.60 0.40 -7 7 -7 6.60 0 7 0.40 7 7 0 6.60 -0.40 7 -7 7 -6.60 0 -7 -0.40 -7 -7z" />
        <path
            d="M4580.60 1307 c-1.40 -1.60 -2.60 -4.60 -2.60 -7 0 -2.20 -1.40 -4 -3 -4 -2 0 -3 -2 -3 -6 0 -5.20 -0.60 -6 -5.80 -6 -6.20 0 -8.20 -2.80 -8.20 -12.20 0 -5.20 0.60 -5.80 6.80 -5.80 7.20 0 9.20 2.40 9.20 11.20 0 4 1 4.80 6 4.80 5 0 6 0.80 6 5 0 4 1 5 5 5 4.60 0 5 0.80 5 9 0 8.80 -0.20 9 -6.40 9 -3.60 -0.20 -7.80 -1.40 -9 -3z" />
        <path
            d="M4372 1286 l0 -10 10 0 10 0 0 7 c0 4.80 -1 7 -3 7 -1.60 0 -3 1.40 -3 3 0 2 -2.20 3 -7 3 l-7 0 0 -10z" />
        <path
            d="M4395.40 1272.60 c-0.80 -0.60 -1.40 -4.20 -1.40 -8 0 -5.20 0.80 -6.60 4 -6.60 2.60 0 4 -1.40 4 -4 0 -3.20 1.40 -4 6.80 -4 3.80 0 7.40 1.20 7.80 2.60 0.80 2 1.20 2 1.20 0 0.20 -1.40 2.80 -2.60 6 -2.60 4.20 0 6.40 -1.20 7.20 -4 1 -3 3 -4 8.20 -4 6.20 0 6.80 0.60 6.80 5.80 0 9.40 -2 12.20 -8.20 12.20 -3.20 0 -5.80 1 -5.80 2 0 1.20 -1.40 2 -3.20 2 -1.60 0 -4.40 1.40 -6 3 -1.80 1.60 -5.20 3 -8 3 -2.60 0 -4.80 1 -4.80 2 0 2.20 -12.60 2.80 -14.60 0.60z" />
        <path
            d="M4534 1268.20 c0 -1 -2.20 -2.40 -5 -3 -4.20 -1 -5 -2.40 -5 -8.20 l0 -7 13 0 c12.80 0 13 0 13 5.60 0 11.40 -2 14.40 -9.20 14.40 -3.80 0 -6.80 -0.80 -6.80 -1.80z" />
        <path
            d="M4680 1255 c0 -2.80 -1 -5 -2.20 -5 -3.40 0 -11.60 -9.40 -13 -15 -0.80 -3.20 -2.60 -5 -5 -5 -2 0 -3.80 -1.40 -3.80 -3 0 -1.60 -1.40 -3 -3 -3 -1.60 0 -3 -0.80 -3 -2 0 -1 -1.80 -2 -4 -2 -3 0 -4 -1.40 -4 -5.60 0 -7.20 -3.20 -10.40 -10.40 -10.40 -3.60 0 -5.60 -1 -5.60 -3 0 -1.60 -1.80 -3 -4 -3 -2.60 0 -4 -1.40 -4 -4 0 -2.60 -1.40 -4 -4 -4 -3 0 -4 -1.40 -4 -4.80 0 -4 -1.20 -5 -6.40 -5.60 -5.40 -0.40 -6.80 -1.80 -8.40 -7 -1.20 -4.40 -3 -6.60 -5.60 -6.60 -3.60 0 -23.60 -9.20 -25.60 -11.80 -0.60 -0.60 -5 -2.40 -10 -3.80 -35.40 -9.60 -47.20 -12.40 -53.20 -12.40 -5.60 0 -6.80 -0.80 -6.80 -4.20 0 -3.80 0.80 -4 10.60 -2.80 70.80 9 134.40 48.80 174.60 109.20 11.80 18 12.40 19.80 6 19.80 -4.20 0 -5.20 -1 -5.20 -5z" />
        <path d="M4498 1249 c0 -6.60 0.40 -7 7 -7 6.60 0 7 0.40 7 7 0 6.60 -0.40 7 -7 7 -6.60 0 -7 -0.40 -7 -7z" />
        <path d="M4456 1247 c0 -7 0 -7 9 -7 9 0 9 0 9 7 0 7 0 7 -9 7 -9 0 -9 0 -9 -7z" />
        <path d="M4480 1247 c0 -6.80 0.20 -7 8 -7 7.80 0 8 0.20 8 7 0 6.80 -0.20 7 -8 7 -7.80 0 -8 -0.20 -8 -7z" />
        <path
            d="M4302 1210.40 c0 -4.60 8 -12.40 12.60 -12.40 2.60 0 3.40 1.80 3.40 8 l0 8 -8 0 c-6.40 0 -8 -0.80 -8 -3.60z" />
        <path
            d="M4316 1194.20 c0 -2.80 20 -18.60 36.80 -29.20 27.40 -17 64.40 -30.20 95.80 -34 10.20 -1.20 11.40 -1 11.40 2.40 0 3.20 -2.60 4.20 -16 6.20 -8.80 1.20 -24 5 -34 8.40 -10 3.20 -19.60 6 -21.20 6 -1.60 0 -2.80 0.80 -2.80 1.60 0 2.20 -17.20 10.40 -22 10.40 -2.20 0 -4 1.40 -4 3 0 1.60 -1.40 3 -3 3 -1.60 0 -3 1 -3 2 0 1.20 -1.40 2 -3 2 -1.60 0 -3 1 -3 2 0 1.20 -1.20 2 -2.80 2 -1.60 0 -3.60 1.80 -4.20 4 -0.60 2.20 -3 4 -5 4 -2 0 -4.40 1.80 -5 4 -1 3 -3 4 -8.20 4 -3.80 0 -6.80 -0.80 -6.80 -1.80z" />
    </g>
    <g fill="#ffc85b">
        <path
            d="M885 852.60 c-114.60 -14.80 -210 -92 -247.80 -200.40 -11.60 -33.40 -16 -59.80 -16 -98.20 0 -82.80 29 -152.60 87.60 -211 36.20 -36.20 73.40 -59.40 118.40 -74.20 35 -11.40 51.20 -13.80 94.80 -13.60 35.40 0 41.20 0.60 63 5.60 95.80 22.20 172.80 85.60 211.20 173.80 24.20 55 31.20 122 18.80 179.40 -1.80 8.20 -3.60 17.40 -4.40 20.60 -0.80 4.20 -0.40 5.40 2.20 5.40 4.40 0 4 4.20 -0.60 5.40 -2.60 0.60 -3.40 2.20 -2.80 4.80 0.80 2.40 0 3.80 -1.80 3.80 -2 0 -5.80 6.80 -10.40 17.60 -8.20 20 -23.40 46.20 -36.20 63 -5 6.20 -9 11.80 -9 12.40 0 0.60 2 1 4.20 1 6.60 0 1.20 5.20 -6.80 6.80 -4.40 0.80 -10.60 5.40 -19.40 14.40 -42.40 42.80 -105.80 73.80 -168.80 82.60 -14.60 2 -62.80 2.60 -76.20 0.80z m171 -75.60 c2.60 -2.80 5.60 -5 6.60 -5 3 0 18.20 -13.80 21.60 -19.40 4.40 -7.80 13.20 -9.80 31.60 -7.20 8.40 1.40 16.80 3 18.80 3.60 2.60 1.20 3.40 0.40 3.40 -2.80 0 -2.80 -1.20 -4.20 -4 -4.20 -5.20 0 -24.20 -7.20 -49.20 -18.80 -20.20 -9.20 -20.40 -9.20 -41 -9 -17.40 0.20 -19.40 0.60 -12 2 11.40 2.20 14.20 4.80 14.20 13 0 8.60 -4.80 10.80 -22.40 10.80 -11.40 0 -13.40 0.60 -26.40 9.80 -7.80 5.20 -17.20 11.20 -20.60 13 -8.80 4.40 -8.20 7.20 1.40 7.20 4.60 0 8.60 1 9 2.60 1.40 3.20 18.80 2 23 -1.60 1.60 -1.40 10.80 -3.20 20.60 -4 l17.40 -1.40 0 8.20 c0 9.60 1.60 10.20 8 3.20z" />
    </g>
    <g fill="#c7b793">
        <path
            d="M1034 790.80 c0 -1.80 1.80 -5.40 4 -8.20 6 -7.60 5.20 -10.80 -2 -9.20 -5.20 1 -6 0.60 -6 -3.20 0 -3.40 1.20 -4.20 7 -4.20 4.80 0 7 1 7 3 0 1.60 1 3 2 3 1.20 0 2 2.20 2 5 0 2.80 1 5 2 5 1.20 0 2 1.20 2 2.60 0 1.40 -4 4 -9 5.80 -8 3 -9 3 -9 0.40z" />
        <path
            d="M1056 781.40 c0 -6.20 0.80 -7.80 5.20 -9.40 2.80 -1.20 7.20 -2 10 -2 3.80 0 4.80 -1 4.80 -5 0 -3 1.20 -5 2.80 -5 1.60 0 3.40 -2.80 4.20 -6 0.80 -3.40 3.20 -7 5.40 -8.20 4.20 -2.20 29 -1.40 43.20 1.40 4.20 0.80 6.40 0.40 6.40 -1 0 -1.20 -1.20 -2.60 -2.40 -3 -17 -4.60 -25.60 -7.80 -25.60 -9.40 0 -1 -2.20 -1.80 -4.80 -1.80 -2.80 0 -6.20 -1.40 -8 -3 -1.60 -1.60 -4.20 -3 -5.60 -3 -1.40 0 -8.20 -2.40 -15 -5.40 -8.40 -3.80 -12.60 -6.80 -12.60 -9 0 -5.40 4.80 -4.40 26.80 5.60 25.80 11.80 44 18.80 49.80 18.80 2.40 0 5.80 1 7.40 2 2.60 1.80 2.60 2.40 -0.60 4.80 -2 1.60 -3 3.20 -2 3.60 4 2.20 21.40 1.20 42.60 -2.20 12.60 -2.20 23.40 -3.40 23.80 -3 1.80 1.80 -17.40 8.80 -24 8.80 -4 0 -12.20 1 -18 2 -19.20 3.80 -36.40 4 -52 0.80 -17 -3.40 -24.80 -1.80 -27.60 5.60 -1.80 4.40 -18.40 19.60 -21.40 19.60 -1 0 -4.20 2.40 -7.20 5.40 l-5.60 5.40 0 -7.40z" />
        <path
            d="M982 781.20 c0 -5 -5.40 -6 -11 -2.40 -6.80 4.40 -9.60 4 -8.40 -1 1 -3.40 0.40 -4 -2.80 -3 -12.60 3.80 -12.20 3.80 -11.40 0 0.40 -2 5.60 -7 11.60 -11 6 -3.80 18.80 -12.20 28.20 -18.40 18.20 -12 25.80 -14.20 25.80 -7.40 0 2.80 -1.80 4.20 -7 5.20 -4 0.60 -7 2.40 -7 4 0 1.60 -1.40 2.80 -3 2.80 -1.60 0 -3 1 -3 2 0 1.20 -1.40 2 -3 2 -1.60 0 -3 1 -3 2 0 1.20 -2.20 2 -5 2 -3 0 -5 1.20 -5 3 0 1.60 -2.20 3.40 -5 4.20 -7 1.80 -6.20 4.80 1 4.80 4.20 0 6 1 6 3.20 0 2.60 1.40 3 6.60 2.20 3.40 -0.60 12.80 -1.80 20.40 -2.40 l14 -1.20 -5.60 5.20 c-4.20 3.60 -8 5.20 -13 5 -4.20 0 -10.40 0.40 -13.80 1.20 -5.40 1 -6.60 0.60 -6.60 -2z" />
        <path
            d="M1026 737 c0 -1.60 0.80 -3 1.80 -3 1 0 4.40 -1 7.40 -2 4.80 -1.80 5.20 -2.60 2.60 -5 -2.60 -2.60 -13.20 -5.20 -42.60 -11 -5.60 -1.20 -10.80 -3.20 -11.60 -4.60 -1.20 -1.80 -2 -1.80 -3.40 0.60 -1.60 2.20 -3.20 2.40 -7.40 1 -7 -2.60 -8.20 -6.40 -2.40 -7.80 2.60 -0.60 -0.20 -0.60 -6.20 -0.20 -10.60 0.80 -22.40 -2.40 -25 -6.80 -2.20 -3.40 31.80 -1.20 42.40 2.60 4.80 1.60 13.20 3.60 19 4.20 20.80 2.40 23 3 24 7 1.40 5.80 13.40 5.80 13.40 0 0 -3.40 1.40 -4 9 -4 7.60 0 9 0.60 9 4 0 3.40 -1.40 4 -8.40 4 -6.80 0.20 -7.80 0.60 -5 2.20 4.40 2.60 4.80 15.80 0.40 15.80 -1.60 0 -3 1.40 -3 3 0 2 -2.20 3 -7 3 -4.80 0 -7 -1 -7 -3z" />
        <path
            d="M1356 700.20 c-2.80 -0.80 -5.20 -2.80 -5.60 -4.60 -0.60 -3 0.20 -3 9.20 0 13.80 4.60 10.60 8.60 -3.60 4.60z" />
        <path d="M1334 691.80 c-11.40 -4 -15.60 -6.80 -13.40 -9 2 -2 23.80 5.80 25 8.80 1.40 4 0 4.20 -11.60 0.20z" />
        <path
            d="M1263.60 678.40 c-2 -0.40 -3.60 -2 -3.60 -3.60 0 -2.20 3.20 -2.80 14 -2.80 11.20 0 14 0.60 14 3 0 1.60 -1.20 3 -2.40 3.20 -10.20 0.80 -19.20 1 -22 0.20z" />
        <path d="M1295.60 678.60 c-6.60 -1.60 -4 -6.60 3.40 -6.60 5.60 0 7 0.80 7 4 0 4 -2.80 4.60 -10.40 2.60z" />
        <path
            d="M1236.60 667.40 c-8.40 -5.60 -8.20 -7.40 0.40 -7.40 6.40 0 7 0.40 7 6 0 3.40 -0.20 6 -0.40 5.80 -0.40 0 -3.60 -2 -7 -4.40z" />
        <path
            d="M1220.60 659 c-8.60 -3.60 -8.40 -7 0.40 -7 6.20 0 7 0.60 7 5 0 2.80 -0.20 5 -0.40 5 -0.40 -0.20 -3.60 -1.40 -7 -3z" />
        <path
            d="M1134 653.20 c0 -0.60 5.20 -3.80 11.60 -7.40 l11.40 -6.40 33.40 -0.20 c30.80 -0.20 33.60 0 33.60 3.40 0 2.60 -1.60 3.40 -7 3.40 -5.60 0 -7 0.80 -7 4 0 2.20 -0.80 4 -2 4 -5.60 0 -22 -4.60 -22 -6.20 0 -2.40 -5.40 -2.40 -6.40 0.20 -1.20 3.60 -45.60 8.60 -45.60 5.20z" />
        <path d="M1310 639.60 c0 -6.80 0.60 -7.60 5 -7.60 6.20 0 6.40 2.20 0 9.40 l-4.80 5.60 -0.20 -7.40z" />
        <path
            d="M1231.20 618.20 c-0.60 -0.80 -2 -4 -3 -7 -2 -4.80 -1.60 -5.20 2.80 -5.20 4.40 0 5 0.80 5 7 0 6.60 -2.40 9.20 -4.80 5.20z" />
        <path
            d="M1226 600.80 c0 -4.20 3.60 -10.80 6 -10.80 1.20 0 2 3.20 2 7 0 5.60 -0.80 7 -4 7 -2.20 0 -4 -1.40 -4 -3.20z" />
        <path
            d="M1235 577.60 c6 -19.80 10.80 -27.60 16.60 -27.60 1.80 0 2.60 1.40 1.80 4 -0.60 2.20 -0.20 4.40 0.80 5 0.80 0.60 1.20 3.60 0.60 6.80 -1 4.60 -0.40 5.80 3.20 6.80 6.40 1.60 3.80 6.20 -3.60 7 -6 0.60 -6.40 0.40 -6.40 -6.40 0 -3.80 -0.80 -7.60 -2 -8.20 -1.20 -0.60 -2 0.80 -2 3.60 0 11.60 -2.40 17.40 -7 17.40 -4.40 0 -4.60 -0.20 -2 -8.40z" />
        <path d="M1264 584.60 c0 -1 3.20 -3.60 7 -6.20 l7 -4.40 0 6 c0 5.60 -0.60 6 -7 6 -3.80 0 -7 -0.60 -7 -1.40z" />
        <path
            d="M1332 569 c0 -3.80 -0.80 -7 -2 -7 -1 0 -2 -3 -2 -6.80 0 -5.80 0.80 -7.20 6.20 -9 3.60 -1.20 8.20 -2.20 10.40 -2.20 5.80 0 0.80 5.40 -6.80 7 -3.20 0.80 -6.20 2.20 -7 3.20 -0.60 1.20 0.80 1.60 3.60 1 15.40 -3.40 24 0 13 5 -2.60 1.20 -6.40 5.20 -8.40 9 -4.60 8.60 -7 8.60 -7 -0.20z" />
        <path
            d="M1296 546.20 c0 -1.20 2.20 -4.60 5 -7.60 l4.80 -5.60 0.20 7.60 c0 6.60 -0.60 7.40 -5 7.40 -2.80 0 -5 -0.80 -5 -1.80z" />
        <path
            d="M1307.60 536 c-1 -6 3 -12 8 -12 3 0 3 2.20 0.20 9.40 l-2 5.60 6.60 -6.40 c9.60 -9.20 13.20 -8.20 5.60 1.40 -4.60 6 -7.80 8 -12 8 -4.60 0 -5.60 -1 -6.40 -6z" />
        <path
            d="M1328 539 c2.80 -1.60 6.80 -2.80 9 -2.80 4 0 4 0 0.20 2.80 -2.20 1.60 -6.20 3 -9 3 l-5.20 -0.20 5 -2.80z" />
    </g>
    <g fill="#9bbaab">
        <path
            d="M3661.40 2696 c1 -4 2.80 -4 238.80 -4 236.40 0 237.80 0 237.80 4 0 4 -1.40 4 -238.80 4 -237.80 0 -238.80 0 -237.80 -4z" />
        <path
            d="M302.40 2503.60 l0.60 -194.60 4.60 -14 c13.40 -40.20 46 -71.80 84.40 -82 14.40 -3.80 42.20 -3.80 56.80 0 31 8 59.80 31.20 74.80 60.20 15 29 14.40 19 14.40 233.40 l0 191.40 -118 0 -118.20 0 0.60 -194.40z" />
        <path
            d="M4870 2337.60 c0 -310.80 0.40 -362.40 3 -373.20 8.20 -34.80 34.80 -64.60 68.20 -76.60 16.80 -6 47.20 -6.20 63.60 0 33.60 12.20 60 42 68.20 76.60 2.60 10.80 3 62.40 3 373.20 l0 360.40 -103 0 -103 0 0 -360.40z" />
        <path
            d="M1146 751.60 c0 -2.80 1.60 -3.60 7 -3.60 4.60 0 7 1 7 2.80 0 1.60 -2.80 3 -7 3.60 -5.80 0.60 -7 0.20 -7 -2.80z" />
        <path
            d="M1188 747.20 c0 -2.80 11.60 -6.20 13.80 -4 1.80 1.60 -6 6.80 -10.20 6.80 -2 0 -3.60 -1.20 -3.60 -2.80z" />
        <path
            d="M1348.80 697.20 c-2 -1.60 -3.20 -3.60 -2.40 -4.40 1.80 -1.60 13.60 3 13.60 5.40 0 2.80 -6.80 2.20 -11.20 -1z" />
        <path
            d="M1310.60 683 c-8.60 -3.60 -8.40 -7 0.40 -7 6.20 0 7 0.60 7 5 0 2.80 -0.20 5 -0.40 5 -0.40 -0.20 -3.60 -1.40 -7 -3z" />
        <path
            d="M1229.60 636 c2.40 -2.40 4.40 -5.40 4.40 -7 0 -1.60 1.40 -3 3 -3 2 0 3 2.20 3 7 0 6.80 -0.20 7 -7.40 7 l-7.40 0 4.40 -4z" />
        <path d="M1318 615 c0 -5.60 0.80 -7 4 -7 4.20 0 4.80 2 2.80 9.60 -2 7.20 -6.80 5.40 -6.80 -2.60z" />
        <path d="M1322 593 c0 -5.60 0.80 -7 4 -7 4.20 0 4.80 2 2.80 9.60 -2 7.20 -6.80 5.40 -6.80 -2.60z" />
        <path
            d="M1239.40 564 c1.20 -4.60 9.60 -14 12.40 -14 1.20 0 1.80 2.60 1.60 6 -0.20 3.20 -1.60 6 -2.80 6 -1.40 0 -2.60 1.40 -2.60 3 0 1.80 -1.80 3 -4.80 3 -3.80 0 -4.60 -0.80 -3.80 -4z" />
    </g>
    <g fill="#8faabd">
        <path
            d="M1012.60 2389.60 c0.20 -169.80 1.20 -313.40 2 -319.20 2.20 -15.60 8.40 -37.80 14.80 -54.60 7.40 -18.80 22.20 -44.20 24.80 -42.60 1.20 0.60 1.80 0 1.40 -1.40 -0.80 -4 6.40 -14 9 -12.40 1.20 0.80 1.40 0.20 0.60 -1.20 -3 -4.80 51.60 -52.80 55.60 -48.80 0.60 0.60 1.20 0.20 1.20 -1 0 -3.80 33.20 -18.40 53.80 -23.80 26.60 -7 61 -8.40 87.60 -3.60 48 8.40 96 36.20 126.20 73.20 14.20 17.20 32.80 47.60 31.40 51.40 -0.40 1.40 -0.20 2.20 0.80 1.60 1.80 -1.20 12.60 29 17.60 49.80 3 12.80 3.40 41.20 4 327.60 l0.80 313.40 -216.20 0 -216 0 0.60 -308.40z" />
        <path
            d="M4353.40 2232.60 c-0.40 -357 -1.20 -469.40 -3 -481.60 -5 -31.40 -12.60 -65.80 -19.60 -87.20 -3.80 -12 -6.40 -22.80 -5.60 -24.20 0.80 -1.20 0.60 -1.60 -0.60 -1 -2.20 1.40 -9.20 -14.20 -7.40 -16.80 0.60 -1 0.20 -1.80 -0.80 -1.80 -1 0 -4 -4.80 -6.40 -10.40 -12.20 -29.20 -41.20 -75.40 -65 -104 l-13.40 -16 1 -70.40 c0.80 -63 1.20 -72.20 5.20 -90 2.40 -11 5.40 -21.80 6.80 -24 1.20 -2.40 2 -4.80 1.80 -5.60 -0.40 -1.60 4.20 -12.80 12.60 -30.40 16 -33.60 52.40 -76.20 83 -96.60 62.80 -42 132.60 -53.20 202.40 -32.40 27.40 8.20 67.80 28.80 64.20 32.80 -1 0.80 -0.40 1 1 0.20 3.20 -1.80 19 10.40 17.20 13.20 -1 1.40 -0.40 1.60 1 0.80 3 -2 10.60 4.60 8.80 7.40 -0.60 1 -0.40 1.40 0.80 0.80 2.60 -1.60 17.20 13.40 15.20 15.60 -1 0.80 -0.60 1 0.80 0.40 2.60 -1.60 11.20 8.20 9.40 10.80 -0.60 1 0 1.60 1.20 1.40 6 -1.40 36.20 51 45 78.40 12.40 38 11.80 25.60 12.40 228.80 0.80 186.80 0.60 192 -6 190.60 -1.20 -0.20 -2.20 0.80 -2.40 2.20 0 1.40 -1.40 3.40 -3 4.40 -1.60 1 -2.40 2 -1.40 2 0.80 0 -4.20 6.80 -11.20 15.20 -7 8.20 -18 23.60 -24.40 33.80 -6.40 10.40 -12.60 18.40 -13.60 17.60 -1.20 -0.60 -1.40 -0.20 -0.60 1 1.40 2.40 -2.60 12.40 -5.20 12.40 -0.80 0 -1.40 0.60 -1.40 1.60 0.60 4 -0.40 6.40 -2.60 5.20 -1.20 -0.80 -1.60 -0.60 -1 0.80 2 3 -0.60 8.60 -3.20 7 -1.20 -0.60 -1.40 -0.20 -0.60 1.20 1.60 2.60 -8.40 30.20 -11.80 32.60 -1 0.80 -1.40 1.60 -0.60 1.60 1.40 0 -3.60 19 -6 23 -0.60 1 -1.40 3.60 -1.60 6 -0.40 2.20 -2.60 13 -5.20 24 l-4.40 20 -0.60 382.60 -0.60 382.40 -130 0 -130 0 -0.60 -465.40z" />
        <path
            d="M1140 752.40 c0 -3.80 1.20 -4.20 12.60 -4.20 10.20 0 39.20 -3.60 56 -7.20 1.80 -0.40 3 0.20 2.40 1.20 -1.80 2.80 -20.80 7.40 -41 9.80 -10.40 1.40 -21.40 2.80 -24.40 3.40 -4.60 1 -5.60 0.40 -5.60 -3z" />
        <path
            d="M1345.60 695.60 c-8.60 -3.40 -15.60 -7.40 -15.60 -8.80 0 -2.20 1.40 -2.20 7.60 0.20 18 6.60 30.20 12.40 29 13.60 -2 2.20 -4.80 1.60 -21 -5z" />
        <path
            d="M1316.60 685 c-8.60 -3.60 -8.40 -7 0.40 -7 6.20 0 7 0.60 7 5 0 2.80 -0.20 5 -0.40 5 -0.40 -0.20 -3.60 -1.40 -7 -3z" />
        <path d="M1269.60 678.40 c-6.80 -1.40 -4 -6.40 3.40 -6.40 4.60 0 7 1 7 2.80 0 3 -5 4.80 -10.40 3.60z" />
        <path
            d="M1249 674.20 c-4.40 -2 -9.20 -5 -10.80 -6.80 -2.40 -3 -2 -3.40 4.60 -3.40 5 0 7.20 0.80 7.20 3 0 2 2.20 3 7 3 5.60 0 7 0.80 7 4 0 5 -4.40 5 -15 0.20z" />
        <path
            d="M1308 669 c0 -4 -1 -5 -5 -5 -4.40 0 -5 -0.80 -5 -8 0 -4.40 1 -8 2 -8 1.20 0 2 -1.40 2 -3 0 -1.80 1.80 -3 5 -3 4.40 0 5 -0.80 5 -7 0 -3.80 1 -7 2 -7 1.20 0 2 -2.60 2 -6 0 -4.60 0.80 -6 4 -6 7 0 3.60 13.40 -7.20 28.20 -8.80 12 -8.60 16.40 0.20 21.60 8.60 5 9 8.20 1 8.20 -5 0 -6 -0.80 -6 -5z" />
        <path
            d="M1210.60 655.40 c-19.60 -6.60 -14.40 -13 5.60 -7 6.20 1.80 7.80 3.20 7.80 7 0 2.40 -0.20 4.60 -0.40 4.40 -0.40 0 -6.20 -2 -13 -4.40z" />
        <path
            d="M1212 643.20 c0 -1.40 2 -3.20 4.60 -4 8.20 -2.20 11.40 -1.40 11.40 2.80 0 3.40 -1.40 4 -8 4 -5.40 0 -8 -0.80 -8 -2.80z" />
        <path
            d="M1230.40 616.40 c-2.40 -6.40 -4.40 -12.80 -4.40 -14.40 0 -4.80 9.60 -24 12 -24 3 0 2.40 12.20 -1 18 -3.80 6.60 -3.80 11.60 0 15.20 3.60 3.80 4 16.80 0.40 16.80 -1.20 0 -4.40 -5.20 -7 -11.60z" />
        <path d="M1320 603 c0 -5.60 0.80 -7 4 -7 4.20 0 4.80 2 2.80 9.60 -2 7.20 -6.80 5.40 -6.80 -2.60z" />
        <path
            d="M1324 585 c0 -6 0.60 -7 4.80 -7 4.60 0 4.80 0.40 2.60 7 -1.20 3.80 -3.20 7 -4.80 7 -1.60 0 -2.60 -2.60 -2.60 -7z" />
        <path
            d="M1254 585.20 c0 -3.20 -1.40 -5.40 -4 -6.20 -3 -1 -4 -3 -4 -8.20 0 -5.40 0.80 -6.80 4 -6.80 3 0 4 1.40 4 5 0 3.40 0.80 4.60 2.80 3.80 4 -1.60 6 2.80 3.20 6.20 -2 2.60 -1.60 3 2.80 3 3.80 0 5.20 1 5.20 4 0 3.20 -1.40 4 -7 4 -6 0 -7 -0.60 -7 -4.80z" />
        <path
            d="M1334 565 c0 -5.60 0.80 -7 4 -7 2.20 0 4 -0.80 4 -2 0 -1 2.20 -2 5 -2 6.20 0 6.60 3.60 0.40 5.80 -2.40 1 -5.80 4.20 -7.20 7 -4 7.20 -6.20 6.60 -6.20 -1.80z" />
        <path d="M1286.40 563 c5.80 -8.80 7.60 -8.80 7.60 0 0 6.40 -0.40 7 -6 7 l-6 0 4.40 -7z" />
        <path
            d="M1318 551 c0 -4 -1 -5 -5 -5 -3 0 -5 -1.20 -5 -2.80 0 -1.60 -2 -3.20 -4.40 -3.60 -4 -0.60 -4 -1 2.80 -8 10.80 -11.60 13.20 -10.20 8 4.40 -0.80 2.20 0 2.20 3 -0.60 4.80 -4.20 8.60 -1.20 4.60 3.60 -3.20 3.80 -1.80 3.80 7 -0.40 6.80 -3.20 13 -2 7 1.40 -1.60 1 -4.80 3.20 -7 5 -4 3.20 -3.80 3.20 1 2.20 13.20 -3.20 16 -3.60 16 -2 0 2.40 -18.60 10.80 -23.80 10.80 -3.20 0 -4.20 -1.20 -4.20 -5z" />
    </g>
    <g fill="#7eb1b8">
        <path
            d="M3662.60 2240.60 l0.60 -457.60 4.20 -18 c19.40 -81 64.20 -139 133.60 -173.60 98.20 -49 218.20 -18.40 287.20 73.40 14.20 18.60 34 58.20 39.80 79.20 10.40 38 10 16.80 10 502.60 l0 451.40 -238 0 -238 0 0.60 -457.40z" />
        <path
            d="M808 2181.60 c-9 -27 -32.20 -73.40 -49 -98.60 -31.60 -47 -73.60 -88.80 -120 -119.60 -22.60 -14.80 -68.20 -37.20 -92.60 -45.40 -20.80 -7 -58.40 -16 -66.80 -16 l-5.60 0 0 -75.40 c0 -100.40 3.40 -122.40 26.20 -166.60 12.20 -23.80 25.20 -41 45.20 -60.20 33.80 -32.20 70.60 -50.20 117 -57 64.40 -9.40 130.80 13.60 178.60 62 26.80 27.20 48.40 65.20 58.40 102.60 5 18.20 5.40 23.40 6.20 70.80 l0.80 51.20 -15 22.20 c-35.40 52.60 -58 108.60 -69.60 173.40 -3.80 20.80 -4.60 34 -5.60 100.60 l-1.20 76.60 -7 -20.60z" />
    </g>
    <g fill="#383838">
        <path
            d="M1034 790.60 c0 -1.20 1.80 -4.40 4 -7.20 2.20 -2.80 4 -6.40 4 -8 0 -4.40 -21.20 -2.20 -28.60 3.20 -4 2.60 -7.40 3.40 -11.60 2.60 -3.20 -0.60 -8.20 0 -11 1.20 -4.80 2.20 -5.80 2 -8.40 -2 -3.40 -5 -7.80 -5.60 -13.20 -1.40 -5.20 4 -8 3.80 -6.40 -0.20 2 -5.40 -0.80 -7 -6.80 -3.80 -5.60 3 -9.60 1.20 -7 -2.80 1.20 -2 41.80 -28.20 53.60 -34.60 4 -2.40 10.80 -3.60 18.60 -3.60 7.60 0 13.40 -1 16 -3 3.80 -3 3.80 -3 0 -6 -2.20 -1.60 -6.20 -3 -9 -3 -2.80 0 -12 -1.80 -20.20 -4 -8.20 -2.20 -18.80 -4 -23.40 -4 -7.80 0 -41.20 -11.80 -45.40 -16 -2.80 -2.80 32.60 0 41.40 3.20 11.80 4.40 34 7 62.40 7 l26 0.20 27 12 c14.80 6.60 32.40 13.20 39 15 14.80 3.80 16.40 4.60 12.20 7 -1.80 1 -3.20 2.60 -3.20 3.40 0 3.60 10 4 29.20 1 10.80 -1.60 23.80 -3.40 28.80 -4 l9 -1 -9 4 c-5 2.20 -12.40 4 -16.40 4 -4.20 0.20 -16.60 1.60 -27.60 3.40 -18.40 3 -21.40 3 -34.40 0 -23.20 -5.20 -30.20 -4.20 -34.40 5.40 -2.40 5.60 -18.20 19.40 -22.20 19.40 -1.40 0 -4 2.20 -5.60 4.80 -2.20 3.20 -5.80 5 -10.80 5.80 -4.20 0.40 -9.60 1.60 -12 2.40 -2.80 0.80 -4.60 0.60 -4.60 -0.40z" />
        <path
            d="M1329 689.40 c-24.80 -9.60 -27.20 -10.20 -51 -11.40 -25 -1.20 -25 -1.20 -38.80 -9.60 -28.40 -17.20 -41.80 -19.60 -88.20 -15.80 l-20 1.60 16.60 -8.20 16.40 -8.40 16.60 2 c17.60 2.20 41.80 0.60 49 -3.40 5.60 -3 5.60 -10 0 -23.60 l-4.20 -10.40 5.20 -11.80 c3 -6.60 5.40 -13.20 5.40 -14.60 0 -8.40 11.40 -25.80 16.80 -25.80 0.20 0 0.40 5.20 0.40 11.60 0 9.20 0.80 11.40 3.20 11.40 4.80 0 6.40 2.60 4 5.60 -3.40 4 -0.80 5.40 5.40 3.20 8.40 -3.20 20 -15.80 27.40 -29.80 6.80 -13 19.40 -28 23.20 -28 1.20 0 1.40 1.40 0.80 3.20 -0.60 1.80 -1.80 5.40 -2.40 8 -1.20 4.40 -0.60 4.20 6 -2.40 9 -9 11.60 -7.60 4.20 2 -6 8 -4.80 8.80 4.80 4 3.60 -1.80 7 -2.60 7.80 -1.80 0.80 0.80 0.40 2 -1 2.40 -3.60 1.20 -13 9 -12 9.80 0.40 0.40 5 -0.60 10 -2.40 12.80 -4.40 16.60 -2.20 5 2.80 -5.40 2.40 -9.60 4.60 -9.60 5.20 0 0.40 5 0.40 11 -0.20 11.80 -1.20 14.60 1.20 6 5 -7.60 3.40 -16 22.60 -20.80 47.20 -4.60 23.20 -7.40 29.80 -16.80 41.60 -6.40 8 -5.80 11.40 3.20 17.40 2.80 1.80 7.40 6.40 9.80 10.20 4.40 6.40 20.80 15 41.60 22 4.60 1.60 4.40 1.60 -2 1.60 -3.80 0 -18.60 -4.60 -33 -10.20z" />
    </g>
</svg>